<?xml version="1.0" encoding="UTF-8"?>
<svg id="Layer_1" data-name="Layer 1" xmlns="http://www.w3.org/2000/svg" viewBox="0 0 2386.93 2961">
  <defs>
    <style>
      .cls-1, .cls-2 {
        stroke-width: 0px;
      }

      .cls-3 {
        opacity: .4;
      }

      .cls-2 {
        fill: #fff;
      }
    </style>
  </defs>
  <g class="cls-3">
    <path class="cls-2" d="m888.29,86.27c-25.22-2.72-50.63-3.32-75.94-1.72-33.91,2.15-68.07,6.82-101.18,14.52-24.4,5.67-48.25,13.43-71.38,23.04-19.65,8.16-39.32,16.26-58.2,26.11-18.15,9.48-34.34,21.42-49.94,34.81-11.29,9.69-20.42,22.92-28.8,34.67-3.87,5.42-6.97,11.33-9.67,17.41-9.06,20.39-16.22,41.2-24.79,61.71l10.58-25.08c-30.06,70.54-89.96,122.62-123.07,191.44-12.03,25.01-22.91,51.1-30.46,77.87s-11.19,54.45-14.71,82.16c-4.98,39.17-4.55,78.83-.77,118.09,7.98,83.01,24.34,166.81,51.09,245.93,8.28,24.5,18.26,48.33,28.58,72.04,6.81,15.64,14.4,30.95,23,45.69,12.71,21.77,28.02,41.68,43.8,61.31,10.17,12.65,21.42,24.44,33.78,34.96,18.99,16.17,39.2,31.98,61.32,43.78,16.51,8.81,34.06,15.86,51.47,22.61,9.63,3.73,19.46,6.92,29.4,9.71,40.18,11.3,81.96,17.61,123.08,24.47,92.81,15.5,187.41,28.43,281.74,24.68,20.87-.83,41.71-2.5,62.43-5.17,29.71-3.83,59.29-7.8,88.47-14.64,49.06-11.5,96.24-30.34,141.57-52.14,37.25-17.91,72.78-39.18,107.36-61.77,41.36-27.02,82.47-55.02,121.25-85.63,7.92-6.25,15.31-13.01,21.69-20.85,11.41-14.02,22.63-27.63,29.8-44.21,7.22-16.68,14.73-32.78,17.88-50.7s5.93-36.48,6.08-54.76c.08-10.17-.7-20.32-1.98-30.4-2.42-19.09-4.67-38.17-9.15-56.9-4.84-20.22-11.68-39.91-19.45-59.18-11.11-27.52-23.07-54.64-35.66-81.51-8.67-18.51-17.22-37.19-28.2-54.48-15.37-24.2-34.07-46.58-54.88-66.3-14.39-13.64-29.49-26.54-43.29-40.79-11.21-11.58-21.65-23.86-31.53-36.59,5.47,7.08,10.95,14.17,16.42,21.25-55.77-72.31-91.49-157.33-143.45-232.15-17.48-25.17-36.2-49.85-56.95-72.43-20.74-22.56-44.37-41.46-69.02-59.64-27.53-20.32-58.18-33.89-89.87-46.52-23.97-9.55-49.02-15.86-74.55-19.41-34.38-4.79-67.86-8.47-102.52-5.13-33.72,3.24-67.45,8.28-99.66,18.99-31.6,10.52-62.91,24.02-91.71,40.86-28.29,16.53-54.78,36.81-79.39,58.34-18.47,16.16-35.35,34.08-50.49,53.39-21.84,27.87-42.92,55.76-57.46,88.24-8.88,19.85-17.91,40.2-23.54,61.32-5.73,21.53-8.76,44.2-10.04,66.36-1.24,21.5,1.97,43.48,5.7,64.51,3.45,19.48,11.85,37.45,19.71,55.48,4.57,10.48,10.26,20.34,17.09,29.52,11.52,15.49,23.02,31.6,38.08,43.93s29.85,24.7,47.45,32.56c12.09,5.4,25.32,11.7,38.49,15.34,14.05,3.88,29.25,5.23,43.49,6.7,5.51.57,11,.6,16.51.08,28.48-2.72,41.93-5.46,67.61-18.22,12.85-6.38,24.99-15.72,34.11-26.82,5.01-6.1,15.08-17.59,19.96-26.95,5.48-10.53,10.01-21.67,13.89-32.9,1.88-5.44,3.16-11.1,4.12-16.76,2.48-14.58,4.89-29.61,5.49-44.5.8-19.82-2.46-40.29-6.12-59.55-3.79-19.9-12.38-38.55-20.57-56.92s-20.87-33.93-33.45-49.9c-6.94-8.81-14.66-16.66-23.43-23.65-21.64-17.25-33.45-26.42-60.27-35.33-11.09-3.68-23.42-5.26-34.87-5.24-5.96.01-11.39,1.18-17.54,2.01-7.13.96-12.55,1.18-18.86,3.18-22.31,7.07-40.84,18.33-57.49,34.95-10.69,10.67-19.77,23.93-28.6,35.75-7.11,9.51-13.25,19.72-18.5,30.37-14.81,29.98-26.51,61.43-33.22,94.2s-10.71,67.61-13.66,101.59c-2.49,28.79-5.04,57.86-3.11,86.76,1.55,23.11,4.19,46.8,10.47,69.17,5.48,19.52,13.58,38.72,23.27,56.49,2.76,5.06,5.83,9.95,9.22,14.6,8.4,11.51,16.92,23.45,26.91,33.72s21.83,18.47,32.75,26.64c5,3.74,10.26,7.1,15.89,9.83,12.02,5.82,24.38,11.5,37.23,15.26s28.95,5.26,42.17,6.58c5.32.53,10.66.67,15.99.24,14.04-1.12,28.44-2.56,42.15-6.14,12.99-3.38,26.15-9.53,37.84-15.14,12.51-6.02,23.22-15.45,33.92-24.04,3.69-2.97,7.06-6.15,10.11-9.78,8.7-10.35,18.66-21.99,24.69-34.65,13.04-27.38,21.48-54.9,20.36-85.77-.77-21.36-4.03-43.71-11.23-64.01-12.05-33.98-28.45-64.78-48.65-94.42-12.91-18.95-27.04-37.08-41.27-55.04-8.21-10.36-16.5-21.82-26.49-30.54-16.43-14.33-21.97-17.9-39.39-25.25-16.74-7.06-25.64-10.26-46.35-10.26-10.96,0-22.44,1.42-33,4.66-22.77,6.98-33.05,14.35-50.89,29.54-10.04,8.54-18.04,19.73-24.68,31.07-3.52,6.02-6,13.06-8.64,19.32-2.91,6.89-5.88,13.38-8.05,20.46-9.69,31.54-14.38,64.69-17.41,97.44-2.21,23.84-2.01,47.9.47,71.72,3.42,32.88,8.19,65.78,17.76,97.48,9.42,31.22,22.24,61.88,37.46,90.71,15.14,28.68,34.54,54.57,55.04,79.64s46.45,47.8,74.21,66.47c17.55,11.8,37.73,20.26,57.57,27.11,5.44,1.88,11.03,3.36,16.7,4.38,14.77,2.64,30.1,5.51,45.24,5.24,13.67-.24,27.61-2.68,40.99-5.01,5.3-.92,10.52-2.33,15.56-4.2,12.95-4.78,26.24-9.84,38.3-16.74,11.83-6.77,22.84-16.06,33.06-24.61,3.62-3.03,6.89-6.41,9.9-10.05,8.4-10.14,18.55-21.75,24.51-34.22,5.15-10.78,11.87-24.37,14.57-37.02,2.32-10.91,3.63-22.49,4.65-33.56.31-3.32.44-6.63.25-9.96-1.69-30.75-8.82-56.92-23.85-83.96-2.75-4.94-5.98-9.55-9.4-14.05-9.07-11.96-17.89-24.21-28.53-34.84-14.75-14.74-31.97-27.27-48.72-39.51-11.11-8.12-22.7-15.65-35-21.85-13.07-6.59-26.71-12.14-40.37-17.39-6.59-2.53-13.36-4.59-20.27-6.02-14.85-3.09-30.07-5.28-45.24-5.96-14.33-.64-30.02,2.29-43.6,4.46-5.26.84-10.4,1.99-15.46,3.7-13.55,4.59-27.09,10.01-39.59,17.02-11.64,6.53-22.19,15.54-32.41,23.93-7.8,6.41-13.35,14.01-19.56,22.05-5.79,7.49-11.68,14.38-15.71,22.91-5.46,11.56-12.4,25.57-14.78,38.95-2.18,12.26-5.44,28.42-4.23,42.03s2.25,29.33,7.02,42.64c4.45,12.41,9.36,25.34,16.15,36.82,7.05,11.93,16.16,22.83,25.09,33.3,12.78,14.99,29.84,27.06,45.76,38.12,9.58,6.65,19.86,12.31,30.48,17.11,19.9,8.99,40.28,17.5,60.97,24.6,27.67,9.49,56.23,16.39,85.18,20.62,37.1,5.42,73.91,9.7,111.44,8.49,22.26-.72,44.23-3.36,66.24-6.89,19.79-3.18,39.24-11.11,56.76-20.43,24.75-13.16,45.93-34.98,60.44-58.74,15.49-25.35,20.12-50.49,22.77-79.47.47-5.19.39-10.41-.11-15.59-1.39-14.3-2.93-29.07-6.41-43.1-4.83-19.53-13.35-38.56-22.67-56.28-9.15-17.39-21.93-33.97-34.71-48.51-9.33-10.62-21.13-19.73-33.63-26.26-20.41-10.67-44.55-18.52-67.89-16.18-25.95,2.6-43.65,6.25-66.82,19.5-13.13,7.51-25.4,17.37-36.18,28.04-14.33,14.17-26.98,30.75-37.35,48.01-20.94,34.85-33.23,77.22-33.14,117.95.03,13.99,2.69,29.23,4.78,42.5.93,5.94,2.21,11.77,4.13,17.48,5.82,17.31,13.09,36.06,24.07,51.13,10.9,14.97,21.86,30.24,36.38,41.92,14.17,11.39,28.39,23.19,44.88,31.12s34.81,16.09,53.2,20.62c18.84,4.63,38.49,7.17,57.85,8.06,18.98.87,37.97-2.31,56.64-5.14,11.49-1.74,22.7-4.81,33.58-8.89,19.67-7.37,39.51-15.55,57.69-26.25,17.69-10.41,33.79-23.36,49.86-36.05,20.07-15.85,38.1-34.07,54.78-53.41,13.84-16.05,27.78-32.63,39.48-50.23,8.4-12.64,14.54-27.83,19.14-41.88,7.85-23.98,6.46-47.49,1.78-71.69-2.64-13.65-8.23-27.33-16.1-38.77-16.23-23.57-25.4-31.37-48.53-48.19-16.91-12.29-38.78-20.06-57.78-27.5-21.28-8.33-44.1-11.33-66.76-13.33-6.25-.55-12.54-.59-18.79-.01-14.94,1.38-31.81,2.68-46.54,7.5-29.11,9.51-50.03,22.14-72.92,42.31-10.29,9.07-18.79,21.64-26.6,32.18-8.67,11.7-13.36,25.64-18.79,39.05-1.93,4.76-3.28,9.53-4.13,14.59-1.41,8.43-4.01,23.04-4.24,33.98-.25,11.83,2.3,24.03,4.17,35.6,2.33,14.41,9.45,28.87,15.47,41.54,6.2,13.05,16.88,25.39,25.63,36.1,12.39,15.17,28.86,27.6,45.27,37.92s34.02,17.34,52.02,22.62c5.27,1.55,10.64,2.68,16.06,3.53,14.13,2.21,28.59,4.63,42.96,5.12,19.99.68,40.37-2.53,59.86-6.34s36.66-11.85,54.38-19.62,33.04-19.95,48.81-32.46,27.16-28.08,39.21-44.19c11.77-15.72,18.64-33.17,25.97-51.45,7.3-18.19,9.78-38.39,10.93-57.76.28-4.77.04-9.49-.5-14.23-1.58-13.78-2.58-29-7.4-42.43-4.27-11.9-9.51-26.43-16.94-37.66-6.04-9.13-13.2-18.19-20.38-26.46-2.18-2.51-4.62-4.7-7.19-6.79-20.19-16.47-33.43-26.09-59.07-33.7-22.04-6.54-47.39-6.41-69.59-.68-22.48,5.8-40.9,17.63-57.94,32.89-10.74,9.62-20.12,22.04-26.49,35.08-12.67,25.94-14.41,35.63-17.55,64.12-1.49,13.47,1.67,28.55,3.9,41.13s9.08,26.2,14.17,37.3c2.25,4.9,4.9,9.34,8.12,13.67,7.21,9.71,15.55,22,25.14,30.59,8.05,7.21,16.99,13.68,25.67,20.07,2.52,1.85,5.07,3.61,7.78,5.17,2.29,1.31,4.65,2.45,7.05,3.54,9.92,4.48,20.06,9.2,30.43,12.62,2.25.74,4.55,1.36,6.88,1.84,11.38,2.34,23.38,3.84,34.94,4.75,13.77,1.09,28.69-2.29,41.7-4.41,5.8-.94,11.33-2.65,16.79-4.81,11.74-4.63,25.88-9.79,37.15-16.85,11.87-7.44,22.98-16.32,33.45-25.58,4.26-3.77,8.21-7.91,11.82-12.3,8.93-10.88,18.09-22.04,25.59-34.05,10.61-16.99,18.45-36.2,24.49-55.2,9.39-29.51,10.7-60.26,3.94-90.47-3.1-13.85-9.2-27.8-17.38-39.49-7.2-10.28-16.11-22.97-26.41-31.44-15.94-13.12-31.56-23.8-48.77-34.56-19.98-12.5-39.3-26.03-57.95-40.44,7.08,5.47,14.17,10.95,21.25,16.42-53.56-41.57-101.07-90.4-142.5-144l16.42,21.25c-41.4-53.77-76.69-112.08-106.28-173.12-8.43-17.38-16.38-34.99-23.91-52.77,3.53,8.36,7.06,16.72,10.58,25.08-18.28-43.35-33.94-87.76-47.1-132.92-63.97,26.97-127.94,53.94-191.91,80.91,6.28,10.77,11.87,21.88,16.79,33.33-3.53-8.36-7.06-16.72-10.58-25.08,8.29,19.64,15.26,40.52,18.41,61.66-1.25-9.3-2.5-18.61-3.75-27.91.45,3.73.6,7.35.23,11.09,1.25-9.3,2.5-18.61,3.75-27.91-.38,2.38-.95,4.59-1.82,6.83l10.58-25.08c-.88,1.92-1.89,3.66-3.1,5.38,5.47-7.08,10.95-14.17,16.42-21.25-1.97,2.51-4.16,4.65-6.66,6.64l21.25-16.42c-3.48,2.56-7.18,4.6-11.13,6.34,8.36-3.53,16.72-7.06,25.08-10.58-7.64,3.12-15.56,5.04-23.71,6.19l27.91-3.75c-16.15,2-32.38.94-48.57.05-7.82-.43-15.66-.83-23.5-.78-15.17.09-30.91,2.74-45.61,5.08-20.18,3.22-40.3,11.56-57.98,21.28-24.28,13.35-45,33.95-59.46,57.46-7.25,11.79-13.14,25.2-16.12,38.76-6.45,29.31-5.15,47.99-.01,77.35,2.82,16.1,9.24,31.91,15.08,47.11,14.34,37.27,30.51,74.09,50.44,108.74,19.56,34.02,42.48,67.41,68.57,96.69,14.73,16.54,32.73,31.08,51.5,42.62,12.88,7.91,27.47,13.59,41.55,18.63s31.41,6.4,45.36,7.74c6,.58,11.87.48,17.85-.21,9.93-1.14,24-2.35,35.13-5.13s23.69-9.04,33.37-13.28c25.56-11.22,47.79-34.54,61.97-58.14,6.04-10.06,10.08-21.56,14.19-32.34,1.15-3.02,2.13-6.08,2.82-9.24,3.31-15.19,5.94-31.78,5.22-47.58-1.04-22.68-4.83-46.23-12.15-67.87-7.28-21.54-16.15-42.89-26.96-62.91-10.96-20.32-25.39-39.24-40.62-56.44-4.74-5.36-9.87-10.39-15.39-14.94-11.53-9.49-23.95-19.97-37.27-27.45s-28.03-13.63-42.74-18.3-31.64-6.13-47.21-7.58l-27.91,3.75c-13.66,3.25-25.57,9.51-35.71,18.79-7.89,4.67-14.17,10.95-18.83,18.83-9.28,10.14-15.55,22.04-18.79,35.71-5.47,33.35-10.66,66.81-14.07,100.44-2.44,24.1-3.48,48.43-1.54,72.61,2.41,30.05,6.15,61.5,16.68,90.05,9.33,25.3,20.1,51.07,36.26,72.93,10.41,14.08,21.14,28.86,33.74,41.26s26.57,22.8,40.71,32.59c7.32,5.07,15.1,9.29,23.25,12.86,16.16,7.07,32.49,14.87,50,18.05,29.03,5.26,54.85,7.73,83.85-.18,12.5-3.41,24.94-8.52,35.89-15.48,18.32-11.63,25.25-18.96,37.24-34.48s15.49-22.74,23.36-43.82c1.47-3.92,2.41-7.79,3.04-11.93,1.77-11.73,4.93-26.46,4-39.29-.96-13.18-2.39-26.53-5.61-39.37-3.01-12.02-9.35-24.96-14.05-35.35-1.96-4.34-4.22-8.49-6.86-12.46-6.91-10.38-14.81-20.33-22.87-29.82-3.14-3.7-6.56-7.15-10.2-10.34-12.92-11.31-26.84-22.66-42.19-30.71-11.45-6-23.69-10.64-35.64-15.46-4.58-1.85-9.27-3.41-14.04-4.68-4.28-1.14-8.62-2.04-12.99-2.71-13.32-2.03-26.83-4.35-40.34-4.99-18.03-.86-36.62,2.39-54.15,5.43-9.96,1.72-19.65,4.63-29.01,8.42-17.24,6.98-34.76,13.78-50.49,23.85-23.39,14.98-46.4,33.23-64.21,54.82-8.62,10.44-17.89,20.8-24.64,32.59-5.34,9.33-9.42,19.63-12.6,29.94l-.39,1.7c-1.25,9.3-2.5,18.61-3.75,27.91-.17,1.76-.22,3.19-.15,4.95.85,21.29,6.01,44.56,18.15,62.5,5.93,8.77,12.84,18.02,20.07,25.78,1.92,2.06,4.03,3.93,6.2,5.7,21.11,17.28,42.78,33.48,67.76,44.65,25.27,11.31,50.48,21.86,77.75,26.99,27.11,5.1,55.38,8.88,83.09,7.8,27.62-1.07,55.83-4.8,82.54-12.1,9.01-2.46,17.88-5.46,26.52-8.99,16.74-6.84,33.77-13.52,49.58-22.39s31.63-19.41,43.7-30.99c22.86-21.94,38.82-56.81,37.61-88.92-.2-5.18-1.23-10.01-1.95-15.37-.55-4.07-.85-10.68-2.28-15.61-1.35-4.68-8.69-21.63-10.92-25.8l-.21-.31c-5.07-7.53-10.61-14.72-16.63-21.56-6.27-5.84-15.82-13.13-23.09-17.67-17.1-10.68-23.1-10.39-39.85-12.64-3.62-.49-10.77-2.3-15.9-1.83-14.46-.55-27.94,2.47-40.45,9.04-13.02,4.23-24.28,11.47-33.79,21.71-10.24,9.51-17.48,20.77-21.71,33.79-6.57,12.51-9.59,26-9.04,40.45l3.75,27.91c4.99,17.79,13.99,33.23,27,46.33l21.25,16.42c16.38,9.5,34.04,14.28,53,14.34.65-.11,1.29-.12,1.94-.05l-27.91-3.75.81.18c-8.36-3.53-16.72-7.06-25.08-10.58.49.16.93.4,1.32.73-7.08-5.47-14.17-10.95-21.25-16.42l.51.53-16.42-21.25c.32.41.57.85.75,1.34l-10.58-25.08c.2.54.33,1.09.4,1.66l-3.75-27.91c.08,1.01.07,1.92-.01,2.92l3.75-27.91c-.28,1.9-.78,3.66-1.46,5.45l10.58-25.08c-.82,1.86-1.78,3.55-2.96,5.19,5.47-7.08,10.95-14.17,16.42-21.25-.98,1.2-2,2.25-3.22,3.22,7.08-5.47,14.17-10.95,21.25-16.42-13.43,9.77-27.88,17.91-43.13,24.46,8.36-3.53,16.72-7.06,25.08-10.58-19.25,8.11-39.43,13.56-60.11,16.47l27.91-3.75c-22.35,2.99-44.94,2.98-67.29-.02,9.3,1.25,18.61,2.5,27.91,3.75-20.69-2.91-40.88-8.36-60.15-16.42l25.08,10.58c-17.24-7.36-33.47-16.72-48.35-28.13l21.25,16.42c-3.98-3.1-7.73-6.37-10.96-10.26,5.47,7.08,10.95,14.17,16.42,21.25-1.66-2.2-3.02-4.41-4.11-6.93l10.58,25.08c-.53-1.54-.89-2.95-1.16-4.56,1.25,9.3,2.5,18.61,3.75,27.91-.12-1.74-.07-3.22.15-4.95l-3.75,27.91c.41-1.77.91-3.31,1.61-4.98l-10.58,25.08c1.62-3.23,3.62-6.1,5.82-8.96l-16.42,21.25c9.87-12.5,21.09-23.77,33.66-33.56-7.08,5.47-14.17,10.95-21.25,16.42,11.24-8.59,23.34-15.84,36.34-21.43l-25.08,10.58c11.44-4.76,23.29-8.11,35.56-9.83l-27.91,3.75c10.45-1.32,20.89-1.32,31.34,0-9.3-1.25-18.61-2.5-27.91-3.75,10.86,1.51,21.39,4.38,31.51,8.61-8.36-3.53-16.72-7.06-25.08-10.58,8.54,3.71,16.56,8.31,24,13.91l-21.25-16.42c6.89,5.34,13.06,11.41,18.43,18.29-5.47-7.08-10.95-14.17-16.42-21.25,4.25,5.63,7.93,11.62,10.72,18.11l-10.58-25.08c2.19,5.41,3.7,10.97,4.58,16.74-1.25-9.3-2.5-18.61-3.75-27.91.68,5.24.79,10.44.22,15.69l3.75-27.91c-.56,4.11-1.53,8.06-3.04,11.93l10.58-25.08c-1.25,2.9-2.73,5.55-4.57,8.11l16.42-21.25c-1.97,2.52-4.13,4.67-6.65,6.63l21.25-16.42c-2.22,1.58-4.51,2.86-6.98,3.99l25.08-10.58c-3.3,1.31-6.61,2.19-10.11,2.77l27.91-3.75c-5.96.77-11.85.62-17.81-.09l27.91,3.75c-10.34-1.44-20.34-4.25-29.98-8.25l25.08,10.58c-10.3-4.43-19.88-10.14-28.8-16.91,7.08,5.47,14.17,10.95,21.25,16.42-11.05-8.58-20.78-18.57-29.34-29.63l16.42,21.25c-9.9-13.02-17.99-27.21-24.38-42.27,3.53,8.36,7.06,16.72,10.58,25.08-7.43-17.92-12-36.63-14.6-55.83,1.25,9.3,2.5,18.61,3.75,27.91-4.67-36.58-2.08-73.45,2.74-109.88l-3.75,27.91c2.24-16.59,4.9-33.12,7.61-49.65-33.75,25.7-67.5,51.39-101.25,77.09,1.54.14,3.06.31,4.6.51l-27.91-3.75c7.97,1.16,15.63,3.32,23.05,6.43-8.36-3.53-16.72-7.06-25.08-10.58,8.24,3.61,15.85,8.25,22.97,13.74l-21.25-16.42c9.3,7.36,17.44,15.92,24.72,25.27-5.47-7.08-10.95-14.17-16.42-21.25,11,14.4,19.79,30.28,26.9,46.93l-10.58-25.08c6.61,15.76,12.07,32.17,14.36,49.16-1.25-9.3-2.5-18.61-3.75-27.91.93,7.78,1.13,15.53.13,23.31l3.75-27.91c-.82,5.37-2.19,10.51-4.3,15.52,3.53-8.36,7.06-16.72,10.58-25.08-1.81,3.96-3.99,7.6-6.64,11.05l16.42-21.25c-2.47,3.01-5.18,5.67-8.22,8.09,7.08-5.47,14.17-10.95,21.25-16.42-3.86,2.89-7.98,5.21-12.43,7.09,8.36-3.53,16.72-7.06,25.08-10.58-5.02,1.98-10.16,3.3-15.5,4.08l27.91-3.75c-6.46.81-12.88.79-19.34.03,9.3,1.25,18.61,2.5,27.91,3.75-6.94-.95-13.62-2.74-20.09-5.44,8.36,3.53,16.72,7.06,25.08,10.58-8-3.53-15.36-8.04-22.3-13.35,7.08,5.47,14.17,10.95,21.25,16.42-12.01-9.47-22.18-20.85-31.53-32.91l16.42,21.25c-29.91-38.99-54.36-82.34-73.53-127.54l10.58,25.08c-4.62-10.99-8.94-22.09-12.91-33.33s-8.33-23.44-10-35.73l3.75,27.91c-.5-4.76-.56-9.36,0-14.11-1.25,9.3-2.5,18.61-3.75,27.91.63-3.87,1.61-7.53,3.09-11.16-3.53,8.36-7.06,16.72-10.58,25.08,1.63-3.67,3.65-7.04,6.08-10.23l-16.42,21.25c2.82-3.51,5.99-6.59,9.51-9.4-7.08,5.47-14.17,10.95-21.25,16.42,5.23-3.99,10.9-7.16,16.94-9.77-8.36,3.53-16.72,7.06-25.08,10.58,8.57-3.55,17.49-5.86,26.66-7.2l-27.91,3.75c17.1-2.28,34.39-.55,51.53.3,9.39.46,18.81.75,28.2.13,17.69-1.15,36.23-2.85,53.28-8.23,11.94-3.77,23.75-8.98,34.93-14.45s20.78-14.19,30.08-21.92c1.42-1.18,2.8-2.38,4.05-3.74,6.67-7.26,13.44-16.11,18.85-24.29,1.01-1.53,1.85-3.1,2.66-4.75,3.69-7.52,8.66-18.6,11.15-26.55.37-1.18.68-2.35.96-3.55,6.32-27.59,4.19-51.47-1.88-78.98-2.05-9.28-4.55-18.45-7.5-27.49-5.85-17.94-13.52-35.39-21.12-52.61-4.51-10.2-9.62-20.1-15.23-29.73-6.6-12.24-15.61-22.06-27.04-29.46-10.14-9.28-22.04-15.55-35.71-18.79l-27.91-3.75c-14.46-.55-27.94,2.47-40.45,9.04-8.89,2.49-16.62,6.99-23.17,13.5-11.43,7.4-20.45,17.22-27.04,29.46-13.1,24.8-18.61,53.35-10.58,80.91,13,44.62,28.45,88.49,46.43,131.35,21.46,51.13,44.39,101.28,72.27,149.28,27.52,47.38,59.31,91.6,93.38,134.47,28.55,35.93,59.94,69.63,94.14,100.24,25.4,22.74,52.38,43.83,79.97,63.83,10.45,7.58,21.11,14.87,31.97,21.86,10.92,7.03,22.41,13.3,32.81,21.1-7.08-5.47-14.17-10.95-21.25-16.42,4.66,3.62,8.92,7.54,12.55,12.21l-16.42-21.25c1.85,2.55,3.41,5.18,4.72,8.04-3.53-8.36-7.06-16.72-10.58-25.08,1.36,3.32,2.21,6.64,2.71,10.2-1.25-9.3-2.5-18.61-3.75-27.91.36,3.93.26,7.76-.16,11.69,1.25-9.3,2.5-18.61,3.75-27.91-1.46,10.67-4.67,21.04-8.82,30.96,3.53-8.36,7.06-16.72,10.58-25.08-4.42,10.21-9.95,19.8-16.73,28.63,5.47-7.08,10.95-14.17,16.42-21.25-5.46,6.93-11.58,13.2-18.5,18.67l21.25-16.42c-6.06,4.64-12.52,8.5-19.54,11.5l25.08-10.58c-6.17,2.5-12.49,4.22-19.08,5.15l27.91-3.75c-4.8.57-9.52.59-14.32.02l27.91,3.75c-5.69-.81-11.12-2.36-16.43-4.58,8.36,3.53,16.72,7.06,25.08,10.58-5.29-2.34-10.2-5.24-14.84-8.7,7.08,5.47,14.17,10.95,21.25,16.42-4.91-3.82-9.28-8.13-13.15-13l16.42,21.25c-3.37-4.44-6.19-9.16-8.38-14.3,3.53,8.36,7.06,16.72,10.58,25.08-1.67-4.18-2.86-8.44-3.51-12.9,1.25,9.3,2.5,18.61,3.75,27.91-.46-3.99-.46-7.92.04-11.9-1.25,9.3-2.5,18.61-3.75,27.91.58-3.63,1.55-7.07,2.93-10.48-3.53,8.36-7.06,16.72-10.58,25.08,1.54-3.47,3.41-6.63,5.71-9.65l-16.42,21.25c1.81-2.17,3.74-4.09,5.94-5.86-7.08,5.47-14.17,10.95-21.25,16.42,1.83-1.31,3.67-2.4,5.71-3.36-8.36,3.53-16.72,7.06-25.08,10.58,2.02-.8,4-1.37,6.14-1.77l-27.91,3.75c2.6-.32,5.08-.32,7.68-.03l-27.91-3.75c2.6.43,5.05,1.11,7.52,2.03-8.36-3.53-16.72-7.06-25.08-10.58,3.52,1.5,6.69,3.37,9.76,5.65l-21.25-16.42c3.48,2.77,6.52,5.85,9.27,9.35l-16.42-21.25c3.02,4.11,5.44,8.53,7.45,13.21-3.53-8.36-7.06-16.72-10.58-25.08,2.15,5.35,3.61,10.83,4.44,16.54-1.25-9.3-2.5-18.61-3.75-27.91.83,6.67.77,13.29-.04,19.96,1.25-9.3,2.5-18.61,3.75-27.91-1.17,8.32-3.45,16.34-6.63,24.11,3.53-8.36,7.06-16.72,10.58-25.08-4.01,9.43-9.2,18.2-15.38,26.36,5.47-7.08,10.95-14.17,16.42-21.25-6.65,8.57-14.25,16.25-22.79,22.94,7.08-5.47,14.17-10.95,21.25-16.42-8.91,6.8-18.65,12.26-28.97,16.63,8.36-3.53,16.72-7.06,25.08-10.58-11.88,4.88-24.25,8.19-36.98,9.91,9.3-1.25,18.61-2.5,27.91-3.75-12.12,1.51-24.3,1.56-36.41-.05l27.91,3.75c-10.37-1.5-20.45-4.18-30.11-8.25,8.36,3.53,16.72,7.06,25.08,10.58-7.71-3.37-14.95-7.54-21.68-12.6,7.08,5.47,14.17,10.95,21.25,16.42-6.22-4.84-11.78-10.28-16.72-16.43l16.42,21.25c-3.95-5.12-7.28-10.53-9.92-16.45,3.53,8.36,7.06,16.72,10.58,25.08-1.99-4.81-3.41-9.72-4.17-14.87,1.25,9.3,2.5,18.61,3.75,27.91-.54-4.61-.51-9.15.07-13.75-1.25,9.3-2.5,18.61-3.75,27.91.78-5.06,2.17-9.87,4.13-14.59-3.53,8.36-7.06,16.72-10.58,25.08,2.32-5.22,5.22-10.04,8.68-14.59-5.47,7.08-10.95,14.17-16.42,21.25,3.95-4.98,8.4-9.39,13.37-13.34-7.08,5.47-14.17,10.95-21.25,16.42,5.5-4.19,11.39-7.65,17.75-10.36l-25.08,10.58c6.48-2.6,13.16-4.24,20.06-5.23l-27.91,3.75c9.42-1.16,18.77-.99,28.17.23l-27.91-3.75c12.7,1.86,24.92,5.51,36.78,10.38l-25.08-10.58c10.82,4.58,21.69,9.77,31.07,16.93-7.08-5.47-14.17-10.95-21.25-16.42,2.93,2.37,5.58,4.88,7.97,7.8l-16.42-21.25c1.6,2.12,2.94,4.29,4.1,6.67-3.53-8.36-7.06-16.72-10.58-25.08,1.14,2.7,1.89,5.38,2.36,8.27-1.25-9.3-2.5-18.61-3.75-27.91.31,3,.26,5.86-.1,8.85,1.25-9.3,2.5-18.61,3.75-27.91-.62,3.63-1.62,7.04-2.96,10.47,3.53-8.36,7.06-16.72,10.58-25.08-3.28,7.65-7.84,14.51-12.87,21.12l16.42-21.25c-21.6,27.76-45.84,54.01-73.62,75.69,7.08-5.47,14.17-10.95,21.25-16.42-16.02,12.35-33.22,23-51.82,31.02,8.36-3.53,16.72-7.06,25.08-10.58-13.81,5.81-28.15,10.21-43.01,12.29l27.91-3.75c-13.39,1.75-26.87,1.73-40.26.06l27.91,3.75c-13.3-1.79-26.26-5.18-38.66-10.31,8.36,3.53,16.72,7.06,25.08,10.58-10.33-4.39-20.06-9.92-28.99-16.75,7.08,5.47,14.17,10.95,21.25,16.42-7.23-5.67-13.74-12.08-19.4-19.32l16.42,21.25c-5.04-6.64-9.24-13.77-12.54-21.42,3.53,8.36,7.06,16.72,10.58,25.08-3.25-7.83-5.45-15.93-6.71-24.31l3.75,27.91c-1.3-9.74-1.28-19.48-.09-29.23-1.25,9.3-2.5,18.61-3.75,27.91,1.57-11.49,4.69-22.59,9.16-33.29l-10.58,25.08c4.64-10.74,10.53-20.78,17.59-30.1-5.47,7.08-10.95,14.17-16.42,21.25,5.94-7.65,12.51-14.82,20.17-20.79-7.08,5.47-14.17,10.95-21.25,16.42,3.9-2.88,7.94-5.34,12.37-7.29-8.36,3.53-16.72,7.06-25.08,10.58,2.71-1.06,5.39-1.86,8.24-2.39-9.3,1.25-18.61,2.5-27.91,3.75,2.84-.37,5.53-.41,8.36-.08l-27.91-3.75c2.28.42,4.38,1.04,6.53,1.92-8.36-3.53-16.72-7.06-25.08-10.58,2.02.99,3.86,2.11,5.68,3.44l-21.25-16.42c4,3.21,7.31,6.99,10.46,11.02l-16.42-21.25c8.06,10.58,14.78,22.04,20.03,34.27-3.53-8.36-7.06-16.72-10.58-25.08,4.25,10.21,7.39,20.78,8.9,31.75l-3.75-27.91c.9,7.43,1.02,14.81.04,22.23,1.25-9.3,2.5-18.61,3.75-27.91-.8,5.24-2.13,10.27-4.11,15.19l10.58-25.08c-1.92,4.47-4.3,8.59-7.21,12.49,5.47-7.08,10.95-14.17,16.42-21.25-2.94,3.73-6.22,7.04-9.9,10.03,7.08-5.47,14.17-10.95,21.25-16.42-4.8,3.69-9.95,6.62-15.49,9.04l25.08-10.58c-9.87,4.07-20.24,6.32-30.79,7.75l27.91-3.75c-36.63,4.63-74.37,3.29-110.91-1.5l27.91,3.75c-41.57-5.63-82.22-16.61-120.91-32.82l25.08,10.58c-15.25-6.47-29.8-14.38-42.99-24.46,7.08,5.47,14.17,10.95,21.25,16.42-7.74-6.05-14.85-12.76-20.93-20.49,5.47,7.08,10.95,14.17,16.42,21.25-4.16-5.47-7.67-11.27-10.36-17.61,3.53,8.36,7.06,16.72,10.58,25.08-1.96-4.94-3.33-9.97-4.07-15.24l3.75,27.91c-.57-4.96-.56-9.86.03-14.82l-3.75,27.91c.71-4.85,1.98-9.48,3.83-14.02l-10.58,25.08c2.14-4.89,4.84-9.37,8.08-13.61-5.47,7.08-10.95,14.17-16.42,21.25,3.7-4.61,7.87-8.68,12.52-12.34-7.08,5.47-14.17,10.95-21.25,16.42,5.63-4.27,11.66-7.76,18.12-10.59-8.36,3.53-16.72,7.06-25.08,10.58,7.04-2.94,14.29-4.99,21.83-6.13-9.3,1.25-18.61,2.5-27.91,3.75,8.31-1.11,16.55-.92,24.87.11l-27.91-3.75c11.61,1.64,22.76,4.98,33.57,9.5l-25.08-10.58c18.85,8.16,36.08,19.49,52.33,31.96-7.08-5.47-14.17-10.95-21.25-16.42,11.89,9.26,23.01,19.45,32.38,31.28l-16.42-21.25c5.48,7.12,10.19,14.68,13.72,22.95l-10.58-25.08c2.24,5.57,3.84,11.25,4.73,17.19-1.25-9.3-2.5-18.61-3.75-27.91.67,5.44.7,10.82.04,16.26,1.25-9.3,2.5-18.61,3.75-27.91-.76,5.16-2.13,10.08-4.14,14.89,3.53-8.36,7.06-16.72,10.58-25.08-2.1,4.7-4.7,9.03-7.79,13.14l16.42-21.25c-3.82,4.85-8.16,9.11-13,12.94l21.25-16.42c-5.8,4.42-12.04,8.02-18.72,10.93,8.36-3.53,16.72-7.06,25.08-10.58-7.26,3.02-14.76,5.12-22.54,6.27l27.91-3.75c-7.48.98-14.86.99-22.35.1l27.91,3.75c-10.35-1.41-20.29-4.25-29.92-8.28,8.36,3.53,16.72,7.06,25.08,10.58-12.36-5.37-23.76-12.46-34.43-20.65l21.25,16.42c-18.61-14.55-34.75-32.01-49.18-50.66l16.42,21.25c-18.65-24.35-33.99-50.99-45.96-79.22l10.58,25.08c-12.71-30.38-21.4-62.27-25.91-94.89l3.75,27.91c-4.36-32.61-4.51-65.64-.17-98.26l-3.75,27.91c2.88-20.89,6.81-42.88,14.72-62.52l-10.58,25.08c1.79-4.16,3.92-8.08,6.67-11.69l-16.42,21.25c1.51-1.82,3.09-3.44,4.94-4.92-7.08,5.47-14.17,10.95-21.25,16.42,1.1-.78,2.17-1.42,3.37-2.04-8.36,3.53-16.72,7.06-25.08,10.58,1.64-.68,3.19-1.11,4.96-1.35l-27.91,3.75c.89-.08,1.78-.08,2.67,0l-27.91-3.75c1.62.23,3,.59,4.55,1.15-8.36-3.53-16.72-7.06-25.08-10.58,1.54.74,2.87,1.52,4.28,2.5-7.08-5.47-14.17-10.95-21.25-16.42,6.27,4.97,11.3,11.58,16.43,17.67,5.58,6.62,11,13.37,16.3,20.22-5.47-7.08-10.95-14.17-16.42-21.25,20.57,26.81,40.64,55.5,54.04,86.67l-10.58-25.08c4.85,11.59,8.64,23.53,10.51,35.98l-3.75-27.91c1.06,7.92,1.29,15.8.35,23.75l3.75-27.91c-.87,6.14-2.41,12.01-4.75,17.75,3.53-8.36,7.06-16.72,10.58-25.08-2.17,4.94-4.81,9.54-8.07,13.84l16.42-21.25c-3.25,4.08-6.9,7.67-11,10.89,7.08-5.47,14.17-10.95,21.25-16.42-4.55,3.41-9.41,6.2-14.61,8.49l25.08-10.58c-6.67,2.78-13.56,4.61-20.72,5.62l27.91-3.75c-7.27.89-14.5.9-21.77.05l27.91,3.75c-7.25-.98-14.23-2.8-21.01-5.55,8.36,3.53,16.72,7.06,25.08,10.58-7.35-3.15-14.14-7.26-20.49-12.1,7.08,5.47,14.17,10.95,21.25,16.42-7.27-5.73-13.68-12.31-19.38-19.59,5.47,7.08,10.95,14.17,16.42,21.25-7.02-9.22-12.72-19.25-17.31-29.89l10.58,25.08c-5.84-13.96-9.47-28.52-11.61-43.48,1.25,9.3,2.5,18.61,3.75,27.91-3.4-25.55-2.47-51.33-.64-76.97,1.58-22.16,3.45-44.31,6.37-66.33l-3.75,27.91c4.18-30.87,10.61-61.57,22.62-90.42l-10.58,25.08c6.88-16.19,15.47-31.48,26.2-45.43l-16.42,21.25c4.27-5.44,8.69-10.83,13.99-15.31-7.08,5.47-14.17,10.95-21.25,16.42,2.3-1.78,4.62-3.24,7.27-4.42l-25.08,10.58c1.66-.59,3.17-1,4.91-1.3l-27.91,3.75c1.86-.15,3.49-.14,5.35.04-9.3-1.25-18.61-2.5-27.91-3.75,2.4.43,4.61,1.08,6.88,1.98l-25.08-10.58c4.43,2.04,8.39,4.69,12.25,7.66-7.08-5.47-14.17-10.95-21.25-16.42,8.78,6.91,16.57,14.83,23.43,23.65-5.47-7.08-10.95-14.17-16.42-21.25,7.41,9.75,13.5,20.31,18.3,31.57-3.53-8.36-7.06-16.72-10.58-25.08,4.88,11.82,8.23,24.11,9.99,36.77l-3.75-27.91c1.54,12.13,1.58,24.31-.03,36.44l3.75-27.91c-1.26,8.7-3.17,17.33-6.58,25.45l10.58-25.08c-1.41,3.09-3.02,5.98-4.99,8.76,5.47-7.08,10.95-14.17,16.42-21.25-1.75,2.24-3.62,4.21-5.78,6.05l21.25-16.42c-2.69,2.05-5.49,3.67-8.6,5.02l25.08-10.58c-3.72,1.44-7.45,2.38-11.39,3l27.91-3.75c-7.09.9-14.15.68-21.23-.23l27.91,3.75c-8.48-1.23-16.66-3.5-24.58-6.75,8.36,3.53,16.72,7.06,25.08,10.58-8.8-3.76-16.98-8.6-24.6-14.38,7.08,5.47,14.17,10.95,21.25,16.42-8.9-6.92-16.77-14.91-23.7-23.8,5.47,7.08,10.95,14.17,16.42,21.25-7.56-9.93-13.77-20.69-18.63-32.18,3.53,8.36,7.06,16.72,10.58,25.08-4.52-11.03-7.69-22.48-9.36-34.29l3.75,27.91c-1.89-14.7-1.73-29.49.1-44.19l-3.75,27.91c2.68-19.84,8.36-39.01,16.14-57.44l-10.58,25.08c10.8-25.1,25.23-48.35,41.88-69.97-5.47,7.08-10.95,14.17-16.42,21.25,20.33-26.16,43.84-49.66,70.04-69.94-7.08,5.47-14.17,10.95-21.25,16.42,24.87-19.07,51.92-35.07,80.76-47.36-8.36,3.53-16.72,7.06-25.08,10.58,27.19-11.43,55.64-19.42,84.88-23.44l-27.91,3.75c28.88-3.82,58.1-3.83,86.99-.05l-27.91-3.75c27.61,3.77,54.59,10.99,80.29,21.77-8.36-3.53-16.72-7.06-25.08-10.58,22.85,9.74,44.28,22.22,64.01,37.31l-21.25-16.42c25.15,19.45,47.02,42.57,66.49,67.64-5.47-7.08-10.95-14.17-16.42-21.25,34.69,44.96,61.64,95.14,89.57,144.41,32.16,56.73,66.98,112.37,111.21,160.67,25.28,27.61,56.17,49.84,79.25,79.48-5.47-7.08-10.95-14.17-16.42-21.25,13,17.07,22.76,36.16,31.93,55.49,9.35,19.72,18.62,39.5,27.14,59.59-3.53-8.36-7.06-16.72-10.58-25.08,13.04,30.99,24.03,62.94,28.77,96.34-1.25-9.3-2.5-18.61-3.75-27.91,2.4,17.89,3.1,35.94.75,53.88,1.25-9.3,2.5-18.61,3.75-27.91-1.52,10.63-4.1,20.97-8.12,30.94,3.53-8.36,7.06-16.72,10.58-25.08-3.24,7.66-7.25,14.81-12.22,21.47,5.47-7.08,10.95-14.17,16.42-21.25-6.99,8.98-15.37,16.54-24.34,23.5,7.08-5.47,14.17-10.95,21.25-16.42-28.27,21.58-58.25,41.37-87.87,61.05-29.84,19.82-60.31,38.77-91.96,55.59-17.76,9.43-35.88,18.15-54.39,26.01l25.08-10.58c-46.37,19.49-94.95,32.3-144.76,39.11l27.91-3.75c-84.43,11.27-169.98,6.06-254.11-5.2l27.91,3.75c-39.07-5.28-77.95-11.85-116.73-18.92-37.26-6.79-74.82-13.79-109.89-28.57,8.36,3.53,16.72,7.06,25.08,10.58-17.62-7.59-34.14-17.16-49.38-28.81,7.08,5.47,14.17,10.95,21.25,16.42-17.58-13.62-33.05-29.58-46.65-47.15,5.47,7.08,10.95,14.17,16.42,21.25-20.31-26.53-36.11-56.09-49.08-86.81l10.58,25.08c-23.37-55.8-38.33-115.26-50.06-174.49-3.72-18.76-6.92-37.62-9.49-56.58,1.25,9.3,2.5,18.61,3.75,27.91-6.53-48.99-8.67-98.75-2.23-147.87l-3.75,27.91c4.24-31.26,12.03-61.9,24.2-91.03l-10.58,25.08c28.85-67.93,84.19-118.73,118.72-183.23,14-26.15,23.05-54.35,34.44-81.61l-10.58,25.08c3.37-7.83,7.26-15.28,12.38-22.11-5.47,7.08-10.95,14.17-16.42,21.25,4.21-5.32,9-9.93,14.31-14.13-7.08,5.47-14.17,10.95-21.25,16.42,16.92-12.9,37-21.96,56.48-30.27-8.36,3.53-16.72,7.06-25.08,10.58,36.73-15.48,75.33-26,114.82-31.42l-27.91,3.75c35.68-4.74,71.76-5.27,107.56-1.42,14.46.55,27.94-2.47,40.45-9.04,13.02-4.23,24.28-11.47,33.79-21.71,10.24-9.51,17.48-20.77,21.71-33.79,6.57-12.51,9.59-26,9.04-40.45l-3.75-27.91c-4.99-17.79-13.99-33.23-27-46.33l-21.25-16.42c-16.38-9.5-34.04-14.28-53-14.34h0Z"/>
  </g>
  <g class="cls-3">
    <path class="cls-2" d="m579.62,2385.95c2.2,10.6,4.01,21.27,5.47,32l-3.75-27.91c3.94,29.38,5.2,59.07,4.63,88.69s-2.94,59.34-6.17,88.87c-1.84,16.82-3.97,33.61-6.22,50.39l3.75-27.91c-5.63,41.87-11.03,83.9-19.13,125.39-2.31,11.83-4.87,23.61-7.77,35.31-4.38,13.96-5,27.91-1.88,41.87.63,13.97,4.79,26.99,12.46,39.04l16.42,21.25c13.1,13.01,28.55,22.01,46.33,27,25.14,4.07,50.4,7.47,75.7,10.39,16.26,1.88,32.56,3.37,48.88,4.48,32.65,2.23,65.41,2.92,98.13,2.08,8.32-.21,16.64-.53,24.95-.94,4.09-.2,8.17-.43,12.25-.68,12.67-.78,25.25-2.68,37.8-4.6,1.57-.24,3.14-.57,4.66-1.05.75-.24,1.47-.52,2.2-.81,5.82-2.35,19.79-8.02,25.38-10.72.5-.24.99-.48,1.48-.76,4.31-2.49,9.37-7.06,12.29-9.31,2.19-1.69,8.64-6.07,12.09-9.48,7.24-7.14,13.5-15.47,18.73-24.19.34-.57.61-1.15.9-1.74,1.88-3.92,9.18-21.35,10.69-25.34.13-.35.27-.7.39-1.05,3-8.9,4.75-33.26,4.57-31.51.15-1.37.22-2.74.18-4.12-.02-.71-.08-1.42-.15-2.13-.99-9.8-2.52-20.02-3.98-29.76-.95-6.27-3.31-12.16-5.64-18.01-5.97-14.95-12.05-29.89-18.79-44.51-3.03-6.58-6.37-13.03-10.24-19.16-1.93-3.06-4.02-6.01-6.21-8.88-6.29-8.23-12.39-16.7-19.13-24.59-1.12-1.31-2.27-2.58-3.46-3.81-2.31-2.4-4.77-4.66-7.35-6.77-7.99-6.49-16.2-12.88-24.53-18.94-1.39-1.01-2.81-1.97-4.27-2.88-2.8-1.75-5.71-3.28-8.73-4.63-9.45-4.22-19.05-8.56-28.85-12.09-1.59-.57-3.2-1.07-4.83-1.5-1.52-.4-3.05-.73-4.6-1-9.73-1.67-19.78-2.79-29.58-4.01-.89-.11-1.78-.22-2.68-.3-2.99-.25-5.97-.18-8.96,0-5.54.33-11.07.97-16.62,1.07-2.64.05-5.28-.04-7.91-.36,9.3,1.25,18.61,2.5,27.91,3.75-2.31-.32-4.55-.84-6.7-1.74,8.36,3.53,16.72,7.06,25.08,10.58-1.29-.57-2.48-1.26-3.6-2.11,7.08,5.47,14.17,10.95,21.25,16.42-.86-.7-1.62-1.45-2.32-2.3l16.42,21.25c-.83-1.07-1.49-2.21-2.05-3.44,3.53,8.36,7.06,16.72,10.58,25.08-.57-1.41-.94-2.81-1.16-4.32,1.25,9.3,2.5,18.61,3.75,27.91-.21-2.02-.13-3.99.13-6-1.25,9.3-2.5,18.61-3.75,27.91,1.26-8.14,4.47-16.06,6.77-23.95s4.57-16.13,6.65-24.24c4.16-16.23,7.78-32.61,10.85-49.09,4.76-25.56,8.19-51.4,11.25-77.2,1.97-16.64,3.39-33.35,4.25-50.09.97-18.93,1.21-37.9.75-56.85-44.3,33.75-88.61,67.5-132.91,101.25,9.95,1.99,19.91,3.99,29.86,5.98-20.92-51.41-41.83-102.83-62.75-154.24-2.12,4.21-4.24,8.43-6.36,12.64-7.67,12.05-11.83,25.07-12.46,39.04-3.13,13.96-2.5,27.91,1.88,41.87,3.25,13.66,9.51,25.57,18.79,35.71,7.4,11.43,17.22,20.45,29.46,27.04,8.36,3.53,16.72,7.06,25.08,10.58,18.61,5,37.22,5,55.83,0,8.36-3.53,16.72-7.06,25.08-10.58,15.78-9.33,28.33-21.89,37.67-37.67,2.12-4.21,4.24-8.43,6.36-12.64,9.5-16.38,14.28-34.04,14.34-53,.55-14.46-2.47-27.94-9.04-40.45-4.23-13.02-11.47-24.28-21.71-33.79-13.1-13.01-28.55-22.01-46.33-27-9.95-1.99-19.91-3.99-29.86-5.98-18.61-5-37.22-5-55.83,0-13.66,3.25-25.57,9.51-35.71,18.79-11.43,7.4-20.45,17.22-27.04,29.46-9.5,16.38-14.28,34.04-14.34,53,.75,30.77-.38,61.57-3.39,92.2-.86,8.75-1.88,17.48-3.05,26.2,1.25-9.3,2.5-18.61,3.75-27.91-4.14,30.77-10.15,61.28-18.04,91.32-1.99,7.57-4.1,15.12-6.33,22.62-1.09,3.69-2.22,7.37-3.37,11.04-2.53,8.09-3.3,15.39-4.47,24.1-.64,4.76-2.49,12.87-2.11,18.85.02.37.07.74.1,1.11l1.88,13.96c.6,4.9,1.26,9.8,1.98,14.69.19.99.44,1.93.77,2.88,1.52,4.31,5.45,12.94,5.58,13.24-.06-.14,3.49,8.96,5.51,13.02.27.53.54,1.06.85,1.56s.64.94.98,1.39c2.31,3.12,14.07,18.57,16.57,21.43.26.3.51.6.79.88.38.39.79.74,1.2,1.09,2.92,2.51,18.26,14.25,21.43,16.56.19.14.37.28.56.41.97.67,1.98,1.21,3.05,1.7,6.63,3.06,18.74,8.18,25.52,10.77.22.09.45.17.67.25.53.19,1.07.36,1.62.51,1.14.32,2.29.53,3.46.72,9.61,1.52,19.79,2.93,29.47,3.95.71.07,1.42.13,2.14.17,1.48.08,2.96.1,4.44.08,3.08-.05,6.15-.26,9.22-.5,6.46-.5,12.87-1.12,19.33-.28-9.3-1.25-18.61-2.5-27.91-3.75,4.91.71,9.66,2.08,14.24,3.99-8.36-3.53-16.72-7.06-25.08-10.58,5.46,2.35,10.54,5.41,15.27,9.02-7.08-5.47-14.17-10.95-21.25-16.42,5.69,4.42,10.71,9.53,15.15,15.2l-16.42-21.25c8.58,11.13,14.79,23.77,20.24,36.66l-10.58-25.08c4.01,9.53,8.79,19.4,10.19,29.75-1.25-9.3-2.5-18.61-3.75-27.91.28,2.39.35,4.77.07,7.17l3.75-27.91c-.24,1.7-.66,3.32-1.32,4.91,3.53-8.36,7.06-16.72,10.58-25.08-.56,1.22-1.22,2.32-2.03,3.38l16.42-21.25c-.8.96-1.67,1.8-2.65,2.58,7.08-5.47,14.17-10.95,21.25-16.42-1.09.79-2.22,1.44-3.44,2,8.36-3.53,16.72-7.06,25.08-10.58-2.53,1.06-5.17,1.63-7.88,2.01,9.3-1.25,18.61-2.5,27.91-3.75-6.57.81-13.24.99-19.85,1.32-7.04.36-14.09.64-21.14.86-13.82.42-27.64.57-41.47.44-27.65-.25-55.29-1.6-82.83-4.03-15.74-1.39-31.44-3.15-47.1-5.24,9.3,1.25,18.61,2.5,27.91,3.75-9.51-1.28-19-2.69-28.47-4.22,24.45,43.05,48.89,86.11,73.34,129.16,6.75-27.22,11.64-54.85,15.86-82.56,5.54-36.38,10.38-72.89,15.24-109.36,7.28-54.68,13.23-109.8,11.9-165.05-.37-15.49-1.32-30.97-2.98-46.38-2.63-24.45-5.82-48.99-10.82-73.1-3.25-13.66-9.51-25.57-18.79-35.71-7.4-11.43-17.22-20.45-29.46-27.04-12.05-7.67-25.07-11.83-39.04-12.46-13.96-3.13-27.91-2.5-41.87,1.88-8.36,3.53-16.72,7.06-25.08,10.58-15.78,9.33-28.33,21.89-37.67,37.67-3.53,8.36-7.06,16.72-10.58,25.08-5,18.61-5,37.22,0,55.83h0Z"/>
  </g>
  <g class="cls-3">
    <path class="cls-2" d="m1340.37,2575.85c-7.07-2.74-13.59-3.04-21.41-4.09-7.13-.96-14.32-2.46-21.56-2.24-13.15.4-27.76,2.3-40.32,6.74-34.95,12.38-62.72,33.36-82.94,64.76-14.87,23.08-23.05,53.98-21.43,81.38,2.34,39.57,17.35,72.07,42.93,101.91,19.2,22.39,45.32,36.25,72.56,46.1,32.38,11.71,68.02,8.82,99.19-4.33,45.22-19.08,74.7-62.79,75.03-112.12.14-21.56-5.68-43.61-16.62-62.22-5.19-8.83-11.76-17.1-19.11-24.29-17.02-16.68-28.22-20.05-50.05-28.94-18.61-5-37.22-5-55.83,0-17.79,4.99-33.23,13.99-46.33,27-6.87,5.94-13.8,11.79-20.96,17.38l21.25-16.42c-10.79,8.22-21.98,15.6-34.37,21.2l25.08-10.58c-8.15,3.39-16.35,5.78-25.11,6.98,9.3-1.25,18.61-2.5,27.91-3.75-6.04.56-11.93.55-17.96-.1,9.3,1.25,18.61,2.5,27.91,3.75-6.88-.99-13.38-2.77-19.81-5.4,8.36,3.53,16.72,7.06,25.08,10.58-6.25-2.81-12.01-6.24-17.53-10.3l21.25,16.42c-8.46-6.58-15.75-14.22-22.37-22.64,5.47,7.08,10.95,14.17,16.42,21.25-12.1-15.97-21.35-33.69-29.24-52.06,3.53,8.36,7.06,16.72,10.58,25.08-11.37-27.03-20.37-55.21-29.18-83.15-10.04-31.82-18.54-64.1-23.28-97.16,1.25,9.3,2.5,18.61,3.75,27.91-1.38-10.36-2.4-20.73-3.01-31.17l-105,105c8.32-.46,16.45-.2,24.73.77-9.3-1.25-18.61-2.5-27.91-3.75,10.59,1.56,20.75,4.25,30.72,8.14-8.36-3.53-16.72-7.06-25.08-10.58,5.46,2.32,10.7,4.9,15.86,7.84,32.74,18.63,73.29,19.14,105.99,0s52.96-53.95,52-90.66c-.44-17.03.57-33.93,2.71-50.82-1.25,9.3-2.5,18.61-3.75,27.91,7.75-57.09,27.63-111.34,44.14-166.26,7.86-26.13,15.02-52.54,19.54-79.48,5.97-35.59,10.93-72.06,7.33-108.18-3.04-30.54-6.44-60.59-22.62-87.54-15.07-25.1-36.99-46.02-62.69-60.07-26.16-14.3-54.76-24.87-81.8-37.42-58.42-27.11-116.13-55.74-173.06-85.86-32.53-17.21-64.8-34.91-96.8-53.08-16-9.09-31.93-18.29-47.8-27.62-14.38-8.45-29.36-16.43-42.61-26.61l21.25,16.42c-4.15-3.44-7.85-7.04-11.24-11.23l16.42,21.25c-2.61-3.67-4.65-7.36-6.43-11.5,3.53,8.36,7.06,16.72,10.58,25.08-1.92-5.47-3.11-10.89-3.89-16.62,1.25,9.3,2.5,18.61,3.75,27.91-1.94-19.08-1.25-38.5-1.79-57.65-.6-21.14-1.45-42.27-2.57-63.39-2.2-41.56-5.41-83.06-9.62-124.46-5.44-53.48-7.96-108.19-32.61-156.97-14.52-28.74-39.28-51.06-65.67-68.6-19.47-12.93-42.42-21.2-64.3-28.99-17.54-6.24-35.42-12.4-53.79-15.61-34.23-5.98-69.39-8.46-102.85,3.56-48.4,17.38-87.02,51.12-125.24,84.53-52.46,45.85-100.14,96.88-142.85,151.9-48,61.85-91.37,126.22-126.47,196.34-7.73,15.43-15.12,31.04-22.04,46.85-14.29,32.65-28.72,65.43-26.97,102.15,2.06,43.13,18.42,79.36,47.54,110.77,17.01,18.34,38.69,33.01,58.85,47.55,61.12,44.07,132.62,74,203.87,97.38,66.19,21.72,134.28,36.84,202.03,52.77,73.89,17.38,146.86,37.37,218.81,61.62,76.73,25.86,152.23,55.2,227.42,85.21,18.49,7.38,36.97,14.8,55.44,22.22,22.67,9.1,60.95,2.28,80.91-10.58,19.5-12.57,33.9-28.74,42.96-50.21,8.8-20.86,12.46-46.21,5.29-68.37-8.76-27.08-24.7-46.63-48.25-62.75-150.12-102.75-315.29-176.3-487.88-232.38-42.11-13.68-84.19-27.55-125.07-44.63,8.36,3.53,16.72,7.06,25.08,10.58-40.95-17.3-80.42-37.96-115.84-64.99l21.25,16.42c-18.85-14.64-37.26-30.81-51.93-49.73,5.47,7.08,10.95,14.17,16.42,21.25-3.94-5.4-7.34-10.93-10.17-17l10.58,25.08c-2.16-5.32-3.61-10.52-4.49-16.19l3.75,27.91c-.44-4.94-.41-9.68.04-14.62l-3.75,27.91c1.42-9.99,4.41-19.31,8.24-28.61l-10.58,25.08c17.17-39.28,39.61-76.93,62.2-113.29,22.72-36.58,47.33-71.95,73.59-106.08-5.47,7.08-10.95,14.17-16.42,21.25,20.7-26.74,41.76-57.3,68.67-78.19l-21.25,16.42c5.64-4.05,11.45-7.33,17.85-10.05-8.36,3.53-16.72,7.06-25.08,10.58,7.75-2.91,15.53-4.79,23.71-6.06-9.3,1.25-18.61,2.5-27.91,3.75,31.64-4.07,64.35-1.34,96.18-1.52,32.87-.19,65.73-.88,98.58-2.09,67.06-2.46,134.04-7.05,200.81-13.76,73.15-7.35,146.22-16.83,218.76-28.82,57.93-9.58,115.61-21.5,171.7-39.05,69.46-21.73,138.23-51.04,198.56-92.08-47.89-12.56-95.77-25.11-143.66-37.67,24.9,53.82,59.21,102.82,98.21,147.37,38.19,43.63,84.28,77.03,130.03,112.17-7.08-5.47-14.17-10.95-21.25-16.42,19.72,15.27,38.97,31.38,54.5,51.03-5.47-7.08-10.95-14.17-16.42-21.25,6.19,8.13,11.53,16.65,15.74,25.97l-10.58-25.08c3.16,7.54,5.39,15.21,6.63,23.29-1.25-9.3-2.5-18.61-3.75-27.91.79,6.57.88,12.96.34,19.55,59.75-24.75,119.5-49.5,179.25-74.25-34.08-38.92-71.48-74.85-111.9-107.14-46.62-37.25-95.04-71.95-147.62-100.34-57.99-31.32-125.63-58.27-192.93-53.04-40.09,3.12-76.82,11.73-112.24,31.5-33.07,18.45-61.29,47.02-80.46,79.56-16.93,28.74-27.17,61.47-35.86,93.52-7.38,27.19-14.72,54.4-21.83,81.66-14.57,55.81-28.14,111.93-38.64,168.66-11.9,64.28-20.83,129.63-23.52,194.99-.87,21.08-1.28,41.94,4.04,62.72,8.21,32.08,30.1,63.66,59.85,79.43,44.68,23.68,99.68,21.12,141.47-8.02,39.79-27.74,65.93-65.4,76.87-112.97,7.69-33.46,10.47-68.44,8.84-102.72-2.58-53.98-14.05-107.95-7.2-162.06-1.25,9.3-2.5,18.61-3.75,27.91,2.27-16.06,6.21-31.54,12.4-46.55-3.53,8.36-7.06,16.72-10.58,25.08l1.31-3c3.53-8.36,7.06-16.72,10.58-25.08,4.38-13.96,5-27.91,1.88-41.87-2.96-22.03-12.01-44.8-28.88-60.29-13.41-12.31-29.01-21.4-46.33-27-23.32-7.55-60.45-3.65-80.91,10.58-4.24,2.95-8.57,5.45-13.24,7.62,8.36-3.53,16.72-7.06,25.08-10.58-6.52,2.71-13.03,4.51-20.01,5.61,9.3-1.25,18.61-2.5,27.91-3.75-9.14,1.11-18.13.9-27.25-.3,9.3,1.25,18.61,2.5,27.91,3.75-11.64-1.85-22.75-5.15-33.68-9.52l25.08,10.58c-18.11-7.66-34.4-17.95-49.97-29.89,7.08,5.47,14.17,10.95,21.25,16.42-27.12-21.07-52.98-44.03-81.64-63.04-36-23.88-76.28-36.53-119.05-40.38-70.01-6.29-139.42,27.81-194.01,68.62-17.42,13.02-34.88,26.23-51.57,40.19-22.8,19.07-38.5,44.08-48.19,71.99-15.5,44.62-6.33,101.68,21.38,139.73,17.03,23.38,34.1,40.74,59.02,56.44,17.61,11.09,37.89,18.93,57.79,24.9,34.77,10.43,73.09,14.85,109.38,14.02s75.53-6.34,110.82-18.08c53.66-17.84,107.02-45,124.44-103.59,16.5-55.48-4.33-110.34-40.38-152.35-10.56-12.3-24.59-22.37-37.84-31.35-14.93-10.12-32.71-17.02-49.74-22.38-66.74-21.01-145.15-3.52-195.12,45.61-52.22,51.34-69.22,134-47.21,203.13,11.68,36.67,32.12,73.86,61.97,98.95,23.92,20.11,42.39,30.68,71.43,41.81,19.28,7.39,39.97,9.73,60.45,11.54,42.39,3.75,83.98-9.36,121.73-27.17,38.07-17.97,67.88-49.01,91.56-83.06,18.78-27.01,17.45-64.65,5.29-93.45-4.23-13.02-11.47-24.28-21.71-33.79-13.1-13.01-28.55-22.01-46.33-27-24.99-3.65-40.03-5.68-65.14-.2-11.82,2.58-23.04,7.66-33.78,13.23-21.86,11.34-41.22,31.54-54.01,52.36-25.87,42.12-30.52,104.58-.91,146.4,10.34,14.61,21.97,28.48,37.67,37.67,20.42,11.95,43.79,15.57,66.95,12.46,40.89-5.49,76.04-34.76,87.29-75.21,21.92-78.78,45.71-158.54,77.45-234-3.53,8.36-7.06,16.72-10.58,25.08,7.93-18.4,17.11-36.08,29.14-52.14l-16.42,21.25c8.76-11.19,18.69-20.96,29.83-29.78-7.08,5.47-14.17,10.95-21.25,16.42,20.29-15.5,42.87-27.29,65.59-38.77,24.11-12.18,48.29-24.22,73.18-34.74-8.36,3.53-16.72,7.06-25.08,10.58,28.78-11.95,58.37-21.58,89.28-26.03-9.3,1.25-18.61,2.5-27.91,3.75,21.05-2.72,42.03-2.82,63.08-.1-9.3-1.25-18.61-2.5-27.91-3.75,23.83,3.42,46.76,10.2,68.97,19.41-8.36-3.53-16.72-7.06-25.08-10.58,59.99,25.55,111.69,66.27,163.03,105.69,12.45,9.56,24.73,20.53,38.6,27.95,21.04,11.25,44.96,18.61,69.04,17.68,23.52-.9,48.26-7.36,67.89-20.8,33.67-23.05,60.54-55.86,87.39-86.24,96.17-108.81,181.84-227.81,252.75-354.58,41.61-74.38,77.28-151.51,109.76-230.27,9.65-23.41,1.58-60.12-10.58-80.91-12.75-21.78-37.72-42.55-62.75-48.25-26.88-6.12-57.05-4.8-80.91,10.58-7.08,5.47-14.17,10.95-21.25,16.42-13.01,13.1-22.01,28.55-27,46.33-2.28,5.53-4.58,11.06-6.91,16.57,3.53-8.36,7.06-16.72,10.58-25.08-49.73,117.42-111.07,229.81-183.06,335.07-20.61,30.14-42.1,59.66-64.38,88.59l16.42-21.25c-23.06,29.84-46.94,59.03-71.69,87.47-12.18,13.99-24.57,27.81-37.15,41.44s-24.23,27.96-38.45,39.17c7.08-5.47,14.17-10.95,21.25-16.42-2.55,1.78-4.96,3.22-7.76,4.57l25.08-10.58c-1.82.78-3.7,1.36-5.64,1.72,9.3-1.25,18.61-2.5,27.91-3.75-2.1.38-4.22.47-6.35.28,9.3,1.25,18.61,2.5,27.91,3.75-3.52-.56-6.34-1.37-9.65-2.69l25.08,10.58c-13.57-6.76-25.45-17.45-37.43-26.64-12.22-9.37-24.41-18.79-36.7-28.06-24.52-18.49-49.48-36.5-75.83-52.33-32.64-19.61-68.09-36.07-104.36-47.58-14.03-4.45-28.33-7.66-42.89-9.78-23.53-3.43-46.88-6.8-70.68-5.57-41.63,2.15-82.86,10.55-121.78,25.4-39.05,14.9-76.73,32.79-113.99,51.62-35.58,17.99-69.47,38.07-98.91,65.44-36.22,33.68-56.79,76.5-75.28,121.28-30.82,74.64-54.45,153-76.08,230.73,63.97-8.36,127.94-16.72,191.91-25.08-1.41-1.99-2.52-3.87-3.58-6.07,3.53,8.36,7.06,16.72,10.58,25.08-1.12-2.92-1.84-5.72-2.27-8.81,1.25,9.3,2.5,18.61,3.75,27.91-.21-3.12-.1-6.07.31-9.17-1.25,9.3-2.5,18.61-3.75,27.91.61-3.12,1.45-6.04,2.58-9.01l-10.58,25.08c1.63-3.69,3.56-7.02,5.93-10.27-5.47,7.08-10.95,14.17-16.42,21.25,2.52-3.1,5.21-5.77,8.36-8.23-7.08,5.47-14.17,10.95-21.25,16.42,2.58-1.77,5.16-3.21,8.03-4.44-8.36,3.53-16.72,7.06-25.08,10.58,2.22-.77,4.29-1.32,6.6-1.74-9.3,1.25-18.61,2.5-27.91,3.75,2.39-.25,4.55-.29,6.95-.14-9.3-1.25-18.61-2.5-27.91-3.75l2.37.35c-20.92-51.41-41.83-102.83-62.75-154.24-1.63,2.35-3.3,4.63-5.04,6.9,5.47-7.08,10.95-14.17,16.42-21.25-6.59,8.2-13.95,15.48-22.16,22.05l21.25-16.42c-9.88,7.58-20.49,13.8-31.9,18.77,8.36-3.53,16.72-7.06,25.08-10.58-11.46,4.72-23.23,8-35.49,9.79,9.3-1.25,18.61-2.5,27.91-3.75-11.22,1.4-22.35,1.48-33.58.08,9.3,1.25,18.61,2.5,27.91,3.75-9.3-1.38-18.23-3.72-26.98-7.17,8.36,3.53,16.72,7.06,25.08,10.58-8.27-3.51-15.92-7.81-23.1-13.22,7.08,5.47,14.17,10.95,21.25,16.42-6.71-5.34-12.64-11.32-18-18.01,5.47,7.08,10.95,14.17,16.42,21.25-6.27-8.23-11.35-17.04-15.43-26.54,3.53,8.36,7.06,16.72,10.58,25.08-3.87-9.58-6.54-19.4-8.05-29.63,1.25,9.3,2.5,18.61,3.75,27.91-1.27-10.13-1.31-20.17.01-30.29-1.25,9.3-2.5,18.61-3.75,27.91,1.29-8.3,3.46-16.24,6.66-24-3.53,8.36-7.06,16.72-10.58,25.08,3.1-6.95,6.89-13.36,11.52-19.4l-16.42,21.25c4.06-4.97,8.47-9.38,13.51-13.36-7.08,5.47-14.17,10.95-21.25,16.42,5.57-4.13,11.47-7.49,17.83-10.25-8.36,3.53-16.72,7.06-25.08,10.58,7.18-2.89,14.52-4.86,22.16-6.06-9.3,1.25-18.61,2.5-27.91,3.75,9.3-1.24,18.53-1.28,27.85-.2-9.3-1.25-18.61-2.5-27.91-3.75,9.25,1.28,18.13,3.62,26.79,7.13-8.36-3.53-16.72-7.06-25.08-10.58,7,3.04,13.52,6.72,19.67,11.25l-21.25-16.42c5.33,4.16,10.09,8.77,14.32,14.04l-16.42-21.25c3.65,4.84,6.67,9.92,9.14,15.45l-10.58-25.08c2.09,5.13,3.55,10.25,4.55,15.7l-3.75-27.91c.4,3.68.47,6.89.17,10.57,1.25-9.3,2.5-18.61,3.75-27.91-.32,2.33-.94,4.57-1.87,6.72l10.58-25.08c-.76,1.73-1.71,3.35-2.84,4.86l16.42-21.25c-1.86,2.26-3.69,4.1-5.91,6.01l21.25-16.42c-6.69,4.98-14.12,8.34-21.75,11.62,8.36-3.53,16.72-7.06,25.08-10.58-22.71,9.42-46.28,15.86-70.6,19.42,9.3-1.25,18.61-2.5,27.91-3.75-25.59,3.4-51.26,3.52-76.87.25,9.3,1.25,18.61,2.5,27.91,3.75-18.1-2.55-35.94-6.46-52.94-13.3,8.36,3.53,16.72,7.06,25.08,10.58-8.98-3.87-17.37-8.51-25.19-14.39,7.08,5.47,14.17,10.95,21.25,16.42-4.95-4.01-9.41-8.3-13.45-13.23l16.42,21.25c-3.67-4.91-6.66-10-9.18-15.59l10.58,25.08c-2.26-5.65-3.82-11.29-4.73-17.31,1.25,9.3,2.5,18.61,3.75,27.91-.5-4.96-.49-9.71.07-14.66l-3.75,27.91c.68-3.9,1.66-7.54,3.04-11.26-3.53,8.36-7.06,16.72-10.58,25.08,1.78-3.98,3.89-7.5,6.44-11.04l-16.42,21.25c10.23-12.53,23.91-22.13,36.62-31.97-7.08,5.47-14.17,10.95-21.25,16.42,24.22-18.58,49.47-35.97,77.58-48.16-8.36,3.53-16.72,7.06-25.08,10.58,13.55-5.62,27.4-9.81,41.92-11.98-9.3,1.25-18.61,2.5-27.91,3.75,11.16-1.39,22.17-1.49,33.34-.16-9.3-1.25-18.61-2.5-27.91-3.75,10.9,1.61,21.27,4.51,31.49,8.62-8.36-3.53-16.72-7.06-25.08-10.58,19.11,8.19,36.15,19.87,52.56,32.51l-21.25-16.42c21.49,16.76,42.45,34.11,64.21,50.55s45.64,27.37,71.12,37.47c24.06,9.54,51.07,14.44,76.86,14.4,17.04-.03,35.17-2.17,51.49-7.1s32.8-11.62,46.72-21.3c-47.89-47.89-95.77-95.77-143.66-143.66-7.72,17.68-15.9,35.34-20.47,54.15-4.61,18.95-6.87,38.63-8.65,57.99-2.11,22.93-.98,46.03.94,68.93,3.88,46.28,11.44,92.75,5.67,139.21,1.25-9.3,2.5-18.61,3.75-27.91-2.05,14.76-5.28,29.42-10.84,43.28,3.53-8.36,7.06-16.72,10.58-25.08-2.19,4.75-4.84,9.03-7.99,13.2l16.42-21.25c-3.96,4.83-8.27,9.03-13.21,12.87,7.08-5.47,14.17-10.95,21.25-16.42-4.1,2.94-8.31,5.42-12.95,7.42l25.08-10.58c-2.87,1.07-5.68,1.88-8.69,2.44,9.3-1.25,18.61-2.5,27.91-3.75-2.81.32-5.42.35-8.23,0,9.3,1.25,18.61,2.5,27.91,3.75-1.3-.22-2.57-.57-3.8-1.04l25.08,10.58c-1.93-.85-3.46-1.74-5.16-2.98l21.25,16.42c-1.1-.9-2.1-1.9-3-3,5.47,7.08,10.95,14.17,16.42,21.25-1.67-2.26-2.76-4.25-3.94-6.82,3.53,8.36,7.06,16.72,10.58,25.08-.76-2.03-1.3-4.12-1.62-6.26,1.25,9.3,2.5,18.61,3.75,27.91-2.52-21.23.31-43.99,1.87-65.25,1.66-22.65,4.11-45.22,7.11-67.73-1.25,9.3-2.5,18.61-3.75,27.91,8.69-63.74,22.1-126.7,37.53-189.12,7.73-31.29,15.96-62.45,24.33-93.57,7.64-28.42,14.2-57.57,25.47-84.84-3.53,8.36-7.06,16.72-10.58,25.08,4.62-10.63,10.04-20.64,16.86-30.03l-16.42,21.25c5.86-7.58,12.4-14.27,19.86-20.28l-21.25,16.42c9.04-6.88,18.72-12.36,29.18-16.78-8.36,3.53-16.72,7.06-25.08,10.58,11.66-4.61,23.63-7.7,36.03-9.52-9.3,1.25-18.61,2.5-27.91,3.75,14.99-1.9,29.81-1.79,44.8.03-9.3-1.25-18.61-2.5-27.91-3.75,22.19,3.11,43.42,9.6,64.11,18.13-8.36-3.53-16.72-7.06-25.08-10.58,55.66,23.65,107.58,57.8,155.39,94.56-7.08-5.47-14.17-10.95-21.25-16.42,44.72,34.67,85.97,73.49,123.25,116.06l21.25,16.42c8.36,3.53,16.72,7.06,25.08,10.58,22.87,6.3,46.79,3.81,68.37-5.29,17.26-7.28,30.54-17.51,42-32.34,15.01-19.43,20.5-38.92,22.54-63.62,4.84-58.52-25.25-113.62-63.78-155.15-29.83-32.15-67.48-56.34-102.02-82.99l21.25,16.42c-34.28-26.81-65.02-57.65-91.83-91.93,5.47,7.08,10.95,14.17,16.42,21.25-24.49-31.73-45.33-65.95-62.16-102.32-10-21.61-40.05-43.08-62.75-48.25-26.48-6.03-57.65-5.24-80.91,10.58-32.44,22.07-67.06,40.44-103.12,55.82l25.08-10.58c-103.77,43.63-215.89,62.34-326.81,77.33,9.3-1.25,18.61-2.5,27.91-3.75-111.99,14.99-224.74,24.14-337.7,27.2-28.06.76-56.14,1.14-84.21,1.16-26.52.01-53.37-1.73-79.75,1.47-13.84,1.68-28.16,2.85-41.69,6.52-12.65,3.43-24.83,9.21-36.63,14.56-17.79,8.07-33.61,21.05-47.64,34.47-18.16,17.36-33.75,38.03-49.3,57.71-36.55,46.24-71.29,93.68-102.18,143.9-13.4,21.79-26.15,43.98-38.21,66.54-15.46,28.92-33.35,59.6-39.35,92.03-5.21,28.18-7.12,56.23,1.63,84.13s22.69,49.14,41.53,72.11c13.83,16.87,30.26,31.59,47.33,45.11,41.58,32.92,84.84,59.86,133.58,80.82,106.13,45.65,218.3,74.16,324.8,118.88-8.36-3.53-16.72-7.06-25.08-10.58,103.17,43.6,201.78,97.43,294.21,160.7,26.97-63.97,53.94-127.94,80.91-191.91-104.66-42.03-209.44-84.1-316.87-118.62-97.58-31.35-197.56-51.86-296.71-77.28-52.59-13.48-104.74-29-154.89-49.93,8.36,3.53,16.72,7.06,25.08,10.58-45.31-19.15-88.49-42.82-127.51-72.89l21.25,16.42c-10.63-8.31-21.05-16.78-29.49-27.38l16.42,21.25c-3.28-4.53-5.96-9.11-8.14-14.26,3.53,8.36,7.06,16.72,10.58,25.08-1.21-3.48-2.07-6.78-2.75-10.41l3.75,27.91c-.72-6.27-.58-12.21.23-18.46l-3.75,27.91c1.8-10.13,5.03-19.68,8.89-29.2-3.53,8.36-7.06,16.72-10.58,25.08,34.54-81.72,81.05-158.71,135.1-228.95l-16.42,21.25c54.24-70.01,116.82-133.73,186.71-188.18-7.08,5.47-14.17,10.95-21.25,16.42,10.05-7.69,20.34-14.73,31.9-19.96-8.36,3.53-16.72,7.06-25.08,10.58,6.63-2.71,13.21-4.59,20.29-5.73-9.3,1.25-18.61,2.5-27.91,3.75,8.83-1,17.33-.77,26.14.32-9.3-1.25-18.61-2.5-27.91-3.75,25.09,3.86,50.2,12.61,73.59,22.39-8.36-3.53-16.72-7.06-25.08-10.58,10.39,4.53,20.24,9.77,29.31,16.61l-21.25-16.42c5.57,4.49,10.43,9.33,14.83,14.97l-16.42-21.25c3.34,4.68,6.07,9.5,8.49,14.71l-10.58-25.08c5.47,13.14,8.06,26.89,9.99,40.93l-3.75-27.91c7.75,59.82,12.94,120.03,16.23,180.25,1.67,30.65,2.8,61.34,3.37,92.03.39,20.91,1.7,40.09,4.97,61.01,4.53,29.05,19.93,55.27,39.32,76.92,22.2,24.79,54.84,41.15,83.32,57.77,24.97,14.57,50.12,28.85,75.43,42.84,50.62,27.97,101.89,54.75,153.77,80.31,29.47,14.52,59.14,28.66,88.99,42.39,14.33,6.59,28.7,13.09,43.11,19.5,13.2,5.87,26.7,11.24,38.57,19.61l-21.25-16.42c4.12,3.19,7.71,6.57,11.01,10.59l-16.42-21.25c1.96,2.76,3.5,5.37,5.03,8.4-3.53-8.36-7.06-16.72-10.58-25.08,3.25,7.97,4.74,16.05,5.88,24.55-1.25-9.3-2.5-18.61-3.75-27.91,2.96,24.59,2.31,49.18-.82,73.71,1.25-9.3,2.5-18.61,3.75-27.91-7.31,53.39-25.35,104.33-41.1,155.63-18.01,58.67-32.64,120.4-31.04,182.15,52.67-30.22,105.33-60.44,158-90.66-37.13-21.13-81.37-33.48-124.3-31.09-26.61,1.49-55.55,10.38-74.25,30.75s-32.37,46.44-30.75,74.25c4.71,80.83,27.25,162.03,58.11,236.74,17.05,41.28,35.07,78.36,66.14,111.37,34.51,36.68,84.3,59.55,134.89,59.34,64.84-.27,115.99-36.17,162.92-76.78-34.05,9-68.11,18-102.16,27l1.99.81c-8.36-3.53-16.72-7.06-25.08-10.58l1.73,1.13c-7.08-5.47-14.17-10.95-21.25-16.42l1.47,1.4-16.42-21.25c.91,1.05,1.63,2.2,2.18,3.48-3.53-8.36-7.06-16.72-10.58-25.08.56,1.32.95,2.68,1.16,4.1-1.25-9.3-2.5-18.61-3.75-27.91.22,1.46.27,2.93.15,4.4,1.25-9.3,2.5-18.61,3.75-27.91-.32,2.36-.8,4.24-1.66,6.46,3.53-8.36,7.06-16.72,10.58-25.08-.61,1.35-1.39,2.6-2.34,3.74,5.47-7.08,10.95-14.17,16.42-21.25l-1.54,1.58,21.25-16.42c-1.49,1.31-3.13,2.4-4.92,3.27,8.36-3.53,16.72-7.06,25.08-10.58-2.9,1.2-5.4,1.9-8.49,2.43,9.3-1.25,18.61-2.5,27.91-3.75-3.14.25-5.99.23-9.13-.02,9.3,1.25,18.61,2.5,27.91,3.75-5.09-.75-9.79-2.05-14.58-3.91,8.36,3.53,16.72,7.06,25.08,10.58-5.54-2.47-10.53-5.46-15.34-9.14l21.25,16.42c-3.85-3.23-7.26-6.68-10.44-10.56l16.42,21.25c-2.96-3.99-5.4-8.07-7.48-12.57,3.53,8.36,7.06,16.72,10.58,25.08-1.82-4.58-3.05-9.07-3.76-13.95,1.25,9.3,2.5,18.61,3.75,27.91-.31-3.87-.29-7.55.17-11.4-1.25,9.3-2.5,18.61-3.75,27.91.68-3.53,1.65-6.76,3.02-10.08l-10.58,25.08c1.58-3.23,3.35-6.15,5.48-9.05l-16.42,21.25c2.29-2.77,4.7-5.23,7.42-7.58-7.08,5.47-14.17,10.95-21.25,16.42,3.53-2.73,7.15-4.93,11.2-6.78-8.36,3.53-16.72,7.06-25.08,10.58,3.26-1.25,6.44-2.14,9.88-2.74-9.3,1.25-18.61,2.5-27.91,3.75,3.46-.35,6.68-.32,10.13.11-9.3-1.25-18.61-2.5-27.91-3.75,2.63.55,4.94,1.24,7.45,2.21,23.89,9.28,59.68,1.84,80.91-10.58,21.78-12.75,42.55-37.72,48.25-62.75,6.12-26.88,4.8-57.05-10.58-80.91-5.47-7.08-10.95-14.17-16.42-21.25-13.1-13.01-28.55-22.01-46.33-27h0Z"/>
  </g>
  <path class="cls-1" d="m772.84,11.6c-98.36,41.53-189.98,98.4-269.99,169.21-80.96,71.65-149.32,159.93-193.98,258.62-47.29,104.5-72.99,219.88-63.42,334.88,5.31,63.8,20.06,125.94,38.99,186.94,17.87,57.58,36.45,116.87,66.9,169.22,31.22,53.67,76.28,95.25,126.76,130.48,47.57,33.21,99.1,59.33,152.63,81.44,103.44,42.74,216.82,63.27,328.61,63.14,111.53-.12,223.65-21.42,327.97-60.63,108.72-40.87,210.15-98.51,300.25-171.89,24.1-19.63,45.12-41.2,64.03-65.87s32.34-52.88,41.5-82.39c18.11-58.34,17.44-120.92,7.54-180.63-17.79-107.36-78.02-206.16-162.39-274.11-20.64-16.63-41.5-33-57.85-54.08l8.21,10.63c-18.5-24.47-30.89-52.56-43.64-80.26-12.29-26.71-25.32-53.08-39.35-78.93-29.79-54.88-64.37-106.89-104.19-155.03-78.04-94.36-183.06-169.26-303.26-198.08-69.77-16.73-143.23-18.02-212.74.76-26.51,7.16-45.37,37.69-36.67,64.58s36.17,44.34,64.58,36.67c14.81-4,29.83-7.01,45.03-9.06l-13.96,1.88c32.5-4.17,65.31-3.81,97.78.44l-13.96-1.88c38.63,5.28,76.25,15.94,112.22,30.94l-12.54-5.29c39.51,16.7,76.66,38.47,110.69,64.58l-10.63-8.21c43.21,33.47,81.19,73.04,114.62,116.19l-8.21-10.63c40.22,52.23,73.77,109.25,102.9,168.3,14.83,30.07,27.27,61.51,43.96,90.62,10.32,17.99,22.78,35.14,37.02,50.22,11.77,12.45,25.09,23.29,38.42,34,28.26,22.7,54.39,46.68,76.77,75.34l-8.21-10.63c21.52,27.87,39.31,58.36,53.09,90.76-1.76-4.18-3.53-8.36-5.29-12.54,13.89,33.13,23.44,67.86,28.23,103.47l-1.88-13.96c4.03,31.23,4.47,62.87.47,94.13.63-4.65,1.25-9.3,1.88-13.96-3.16,23.28-8.86,46.05-17.92,67.75,1.76-4.18,3.53-8.36,5.29-12.54-7.38,17.17-16.81,33.11-28.19,47.92l8.21-10.63c-20.09,25.61-44.74,46.93-70.38,66.77l10.63-8.21c-69.36,53.4-145.28,98.05-225.88,132.24l12.54-5.29c-76.25,32.13-156.37,54.67-238.4,65.78l13.96-1.88c-74.53,9.89-150.07,10.05-224.63.22l13.96,1.88c-71.32-9.6-141.25-28.24-207.62-56.12l12.54,5.29c-55.27-23.42-108.53-52.94-156.14-89.62l10.63,8.21c-23.62-18.38-45.51-38.87-64.02-62.46l8.21,10.63c-19.03-24.65-33.65-52.1-45.83-80.68l5.29,12.54c-16.67-39.58-29.72-80.84-42.11-121.94-13.01-43.14-23.99-86.94-30.13-131.63l1.88,13.96c-6.84-51.36-6.58-103.29.2-154.65l-1.88,13.96c7.74-57.02,23.32-112.68,45.52-165.74l-5.29,12.54c23.53-55.7,54.21-108.06,91.03-156.01l-8.21,10.63c42.19-54.61,91.7-103.12,146.22-145.35l-10.63,8.21c65.91-50.78,138.64-92.2,215.25-124.54,11.22-4.74,21.07-20.26,24.13-31.38,3.46-12.57,1.9-29.3-5.29-40.45-7.23-11.21-17.99-21.08-31.38-24.13l-13.96-1.88c-9.48.03-18.31,2.42-26.5,7.17h0Z"/>
  <path class="cls-1" d="m949.36,532.89c-21.77,3.71-42.26,11.47-62.27,20.71-19.7,9.1-37.46,21.73-53.94,35.8-6.53,5.58-12.66,11.63-18.26,18.14-8.33,9.67-16.31,19.93-22.99,30.85s-11.78,23.02-16.48,35.04c-2.96,7.58-5.2,15.42-6.63,23.43-2.16,12.08-3.88,24.52-3.89,36.84s1.75,24.77,3.79,36.9c1.3,7.72,3.26,15.34,5.85,22.73,2.73,7.79,6.06,15.4,9.43,22.92,1.58,3.54,3.32,7,5.22,10.38,5.85,10.43,13.34,20.06,20.99,29.18,4.92,5.85,10.42,11.18,16.43,15.89,9.69,7.6,19.08,15.04,30.29,20.2,13.46,6.2,27.02,11.62,41.65,14.11s30.13,4.36,45.35,3.72c5.21-.22,10.42-.67,15.59-1.33,9.57-1.23,19.18-2.39,28.64-4.33,24.72-5.07,48.25-14.72,71.15-25.1,19.51-8.84,38.28-19.19,56.89-29.76,15.71-8.93,31.38-17.96,46.37-28.08,10.85-7.33,21.28-15.3,31.48-23.5,6.73-5.41,13.19-11.16,19.21-17.35,2.94-3.03,5.78-6.17,8.48-9.42,5.4-6.5,10.63-13.19,15.45-20.14,7.35-10.59,12.13-22,17.07-33.9,3.25-7.83,5.49-16.03,6.7-24.42,1.88-13.1,3.59-25.44,1.93-38.57-1.65-12.97-3.27-25.39-8.07-37.58s-9.67-23.74-16.84-34.43c-4.76-7.11-10.11-13.87-15.53-20.48-2.73-3.33-5.63-6.53-8.68-9.57s-6.27-5.98-9.6-8.74c-6.64-5.48-13.46-10.83-20.57-15.69s-14.93-9.16-22.98-12.61-16.03-7.05-24.38-9.64c-4.84-1.5-9.77-2.75-14.74-3.75-9.38-1.9-18.95-3.09-28.45-4.13-5.08-.56-10.18-.88-15.28-.99-14.83-.31-29.32,1.62-44,3.63-20.65,2.83-40.81,8.49-60.17,16.17-13.46,5.34-26.83,11.05-39.75,17.59-6.12,3.3-11.03,7.81-14.73,13.52-4.64,5.07-7.77,11.02-9.4,17.85-2.19,6.98-2.5,13.96-.94,20.93.32,6.99,2.39,13.49,6.23,19.52l8.21,10.63c6.55,6.51,14.27,11.01,23.17,13.5l13.96,1.88c9.48-.03,18.31-2.42,26.5-7.17,6.86-3.47,13.83-6.72,20.91-9.72l-12.54,5.29c21.28-8.96,43.56-15.65,66.48-18.75l-13.96,1.88c16.35-2.16,32.92-2.45,49.29-.28l-13.96-1.88c12.63,1.73,25.09,4.82,36.85,9.76l-12.54-5.29c10.59,4.5,20.53,10.37,29.65,17.38l-10.63-8.21c9.06,7.03,17.23,15.13,24.25,24.2l-8.21-10.63c6.18,8.06,11.4,16.8,15.39,26.14-1.76-4.18-3.53-8.36-5.29-12.54,3.52,8.38,6.01,17.14,7.23,26.15-.63-4.65-1.25-9.3-1.88-13.96,1.04,8,1.07,16.06.03,24.06l1.88-13.96c-1.21,8.85-3.62,17.48-7.09,25.71,1.76-4.18,3.53-8.36,5.29-12.54-4.03,9.43-9.38,18.19-15.64,26.3l8.21-10.63c-9.97,12.82-21.99,23.86-34.8,33.78l10.63-8.21c-13.98,10.77-28.9,20.25-44.1,29.2-17.23,10.15-34.66,20.04-52.41,29.25-10.61,5.5-21.38,10.7-32.38,15.36l12.54-5.29c-20.25,8.54-41.33,15.23-63.15,18.22l13.96-1.88c-14.42,1.93-29.04,2.27-43.49.39l13.96,1.88c-10.64-1.44-21.07-4.09-30.98-8.24l12.54,5.29c-7.94-3.38-15.39-7.75-22.23-13l10.63,8.21c-7.36-5.71-13.93-12.35-19.65-19.7l8.21,10.63c-6.68-8.65-12.14-18.17-16.39-28.23l5.29,12.54c-4.67-11.16-7.83-22.89-9.46-34.88l1.88,13.96c-1.57-11.85-1.64-23.87-.08-35.73l-1.88,13.96c1.52-11.25,4.57-22.16,8.97-32.62l-5.29,12.54c4.96-11.65,11.46-22.57,19.19-32.6l-8.21,10.63c8.83-11.37,19.16-21.49,30.55-30.29l-10.63,8.21c13.06-10.02,27.4-18.27,42.56-24.67l-12.54,5.29c13.96-5.85,28.55-10.12,43.48-12.67,6.83-1.62,12.78-4.76,17.85-9.4,5.72-3.7,10.22-8.61,13.52-14.73,3.84-6.03,5.91-12.53,6.23-19.52,1.56-6.98,1.25-13.96-.94-20.93l-5.29-12.54c-4.67-7.89-10.95-14.17-18.83-18.83l-12.54-5.29c-9.3-2.5-18.61-2.5-27.91,0h0Z"/>
  <path class="cls-1" d="m606.74,532.75c-.19-.33-.39-.64-.6-.96-.09-.13-.19-.26-.28-.39-1.74-2.45-6.42-8.45-8.31-10.75-.47-.58-.97-1.13-1.53-1.63-.12-.11-.24-.21-.36-.31-3.06-2.61-7.63-6-10.88-8.41-.26-.19-.51-.39-.78-.56-.63-.42-1.28-.77-1.96-1.1-4.55-2.17-9.32-4.39-14.2-5.93-.72-.23-1.45-.38-2.2-.51-4.59-.78-10.5-1.91-15.72-2.03-.37,0-.75,0-1.12.02-.16,0-.32.02-.48.04-4.29.35-10.01,1.27-14.28,1.91-.69.1-1.37.22-2.03.42-.36.11-.71.23-1.06.37-2.17.83-5.42,2.29-6.57,2.77-1.33.56-4.59,1.78-6.71,2.85-.19.1-.38.2-.57.3-.43.23-10.37,7.89-10.77,8.29l-4.1,5.31c-3.25,3.28-5.5,7.14-6.75,11.58-.13.3-2.02,4.4-2.76,6.57-.23.68-.38,1.36-.5,2.07-.02.13-2.19,10.92-1.94,15.72.02.29.05.58.08.87.28,2.59,1.43,11.57,1.9,14.1.04.24.08.48.13.72.14.62.35,1.22.58,1.82,1.11,2.87,4.06,9.85,5.35,12.68.06.14.12.27.18.41.17.36.35.71.56,1.06.15.26.31.52.48.77,2.59,3.83,5.78,7.62,8.65,11.24.45.56.91,1.11,1.42,1.62.48.48,1,.91,1.53,1.34,3.48,2.81,7.46,6.03,11.13,8.58.34.24.69.48,1.05.69.58.35,1.19.67,1.81.95,4.07,1.89,8.94,3.92,13.12,5.54.39.15.78.3,1.18.42.65.2,1.3.35,1.97.47.15.03.31.05.46.07,3.36.52,10.75,1.56,14.11,1.89.41.04.82.08,1.24.09.67.02,1.34-.03,2.01-.11,2.91-.32,11.26-1.39,14.11-1.9.15-.03.31-.05.46-.08.41-.08.81-.18,1.21-.3.3-.09.6-.2.9-.32,3.91-1.46,9.01-3.72,12.84-5.41.15-.06.29-.12.44-.19.67-.31,1.32-.66,1.94-1.06.31-.2.6-.41.9-.62,3.57-2.61,7.72-5.76,11.12-8.59.56-.47,1.1-.96,1.6-1.49.25-.27.49-.54.72-.82,2.91-3.45,5.91-7.48,8.6-11.12.44-.59.86-1.19,1.24-1.82.35-.59.68-1.2.97-1.83,2-4.28,3.85-8.9,5.62-13.27.14-.35.28-.7.41-1.05.5-1.38.84-2.8,1.08-4.25.78-4.77,1.45-9.96,1.99-14.77.04-.33.07-.65.1-.98.06-.76.08-1.53.07-2.29s-.08-1.52-.16-2.28c-.53-4.73-1.21-9.91-1.96-14.6-.07-.43-.14-.86-.23-1.28-.15-.69-.33-1.37-.54-2.04-.05-.15-.1-.31-.15-.46l-2.65-6.27c-1.25-4.45-3.5-8.31-6.75-11.58-1.67-2.16-3-4.35-4.95-6.15-.25-.23-.5-.45-.77-.67-3.6-2.94-7.53-6-11.29-8.73-.64-.46-1.3-.89-1.99-1.27-2.54-1.39-5.59-2.47-8.09-3.52s-5.51-2.55-8.34-3.37c-.71-.2-1.42-.37-2.15-.49-4.8-.83-9.8-1.39-14.63-1.98-.45-.06-.9-.11-1.35-.15-3.79-.28-7.72.58-11.4,1.07s-7.71.69-11.27,2c-4.84,1.78-9.61,3.79-14.26,6.02-.72.34-1.41.73-2.07,1.17-.33.22-.66.45-.98.68-3.66,2.7-7.66,5.74-11.17,8.63-.63.52-1.23,1.06-1.79,1.65-1.98,2.08-3.82,4.77-5.46,6.89-1.73,2.24-3.84,4.65-5.38,7.17-.39.64-.75,1.31-1.07,1.98-1.11,2.35-2.1,4.92-3.07,7.22s-2.14,4.8-3.03,7.24c-.54,1.48-.91,3.01-1.15,4.57-.72,4.6-2.35,12.47-2.1,18.32.13,3,.74,6.24,1.12,9.07s.64,6.35,1.4,9.38c.17.68.37,1.35.61,2,.88,2.44,2.09,5.03,3.03,7.25.79,1.87,1.91,4.96,3.08,7.21.28.54.61,1.04.97,1.54,2.5,3.47,5.81,7.79,8.56,11.07.24.29.49.58.76.85.43.45.9.86,1.38,1.26,3.42,2.84,7.48,5.96,11.08,8.56.31.23.63.45.95.65.52.33,1.07.64,1.63.91.26.12.52.23.77.35,4.34,1.9,8.85,4.03,13.32,5.59.56.19,1.13.36,1.71.47.26.05.52.09.78.14,2.88.46,11.16,1.59,14.09,1.89.21.02.43.05.64.06.54.04,1.07.01,1.61-.03,2.3-.17,8.76-1.18,7.22-.97-1.79.24,4.97-.51,7.21-.97.31-.06.61-.13.91-.22,10.55-3.34,17.4-7.18,25.42-14.81.2-.19.37-.4.55-.61.72-.82,7.7-9.86,8.28-10.72.07-.1.15-.19.21-.3.13-.22.26-.43.37-.66,1.41-2.68,4.27-9.92,5.4-12.78.07-.17.14-.33.2-.5,2.19-6.98,2.5-13.96.94-20.93-.32-6.99-2.39-13.49-6.23-19.52-3.3-6.12-7.81-11.03-13.52-14.73-5.07-4.64-11.02-7.77-17.85-9.4l-13.96-1.88c-9.48.03-18.31,2.42-26.5,7.17l-10.63,8.21c-6.51,6.55-11.01,14.27-13.5,23.17-.06.17-.13.34-.2.5l5.29-12.54c-.21.46-.46.88-.76,1.29l8.21-10.63c-.3.37-.62.69-.99.98l10.63-8.21c-.37.27-.76.5-1.18.69l12.54-5.29c-.58.24-1.17.4-1.8.5l13.96-1.88c-.83.11-1.66.09-2.49,0l13.96,1.88c-1.17-.16-2.3-.48-3.4-.93l12.54,5.29c-1.33-.57-2.56-1.29-3.7-2.17l10.63,8.21c-.9-.72-1.71-1.52-2.43-2.42l8.21,10.63c-.64-.84-1.16-1.73-1.57-2.7l5.29,12.54c-.71-1.73-1.19-3.53-1.45-5.38l1.88,13.96c-.27-2.09-.26-4.19.02-6.28l-1.88,13.96c.29-1.97.8-3.87,1.55-5.71l-5.29,12.54c.73-1.71,1.64-3.31,2.76-4.8l-8.21,10.63c1.01-1.28,2.13-2.43,3.41-3.45l-10.63,8.21c1.27-.97,2.63-1.77,4.1-2.41l-12.54,5.29c1.69-.7,3.43-1.17,5.24-1.43l-13.96,1.88c1.93-.25,3.85-.24,5.78.01l-13.96-1.88c1.69.25,3.31.69,4.89,1.32l-12.54-5.29c1.46.62,2.81,1.39,4.08,2.35l-10.63-8.21c.71.56,1.38,1.16,2.01,1.82-4.5-7.72-9-15.44-13.5-23.17.45,1.34.78,2.7.98,4.1l-1.88-13.96c.27,2.06.26,4.13,0,6.2l1.88-13.96c-.29,2.04-.82,4.02-1.62,5.93l5.29-12.54c-.68,1.56-1.53,3.01-2.57,4.36l8.21-10.63c-.85,1.06-1.79,2.02-2.86,2.87l10.63-8.21c-1.09.84-2.26,1.52-3.52,2.07l12.54-5.29c-.98.4-1.97.68-3.02.83l13.96-1.88c-1.14.14-2.26.13-3.4,0l13.96,1.88c-1.35-.19-2.64-.56-3.9-1.08l12.54,5.29c-1.26-.55-2.43-1.23-3.53-2.05l10.63,8.21c-1.15-.89-2.18-1.9-3.07-3.05l8.21,10.63c-.66-.89-1.22-1.83-1.66-2.85l5.29,12.54c-.37-.91-.64-1.84-.79-2.81l1.88,13.96c-.11-.88-.12-1.75-.02-2.63l-1.88,13.96c.12-.81.32-1.59.61-2.36-8.04,10.46-16.08,20.92-24.13,31.38.38-.21.76-.4,1.15-.58l-12.54,5.29c1.09-.46,2.21-.75,3.39-.91l-13.96,1.88c1.18-.13,2.35-.12,3.53.03l-13.96-1.88c1.29.19,2.52.53,3.72,1.03l-12.54-5.29c1.09.48,2.09,1.07,3.04,1.79l-10.63-8.21c.84.67,1.58,1.42,2.24,2.27l-8.21-10.63c.32.44.61.88.88,1.35,3.3,6.12,7.81,11.03,13.52,14.73,5.07,4.64,11.02,7.77,17.85,9.4,6.98,2.19,13.96,2.5,20.93.94,6.99-.32,13.49-2.39,19.52-6.23l10.63-8.21c6.51-6.55,11.01-14.27,13.5-23.17l1.88-13.96c-.03-9.48-2.42-18.31-7.17-26.5h0Z"/>
  <path class="cls-1" d="m1123.39,312.22c-.09-9.91-2.55-20.01-7.79-28.5.79,1.28-5.66-8.44-8.95-11.38l-5.31-4.1c-1.81-1.46-3.66-2.89-5.53-4.27-.24-.15-.47-.28-.72-.41-10.49-5.4-16.82-7.22-28.73-7.71-10.6-.44-19.55,2.92-28.77,7.55-4.87,2.45-9.36,6.01-13.03,10.06-3.24,3.57-6.14,7.48-8.85,11.47-.41.6-.74,1.24-1.04,1.9-1.82,3.9-3.84,8.87-5.44,12.88-.14.34-.28.68-.4,1.03-.19.52-.35,1.05-.51,1.58-.36,1.23-.66,2.49-.92,3.74-1.44,6.9-2.45,13.96-2.82,21-.06,1.11-.07,2.23-.02,3.34.03.61.07,1.22.13,1.83.52,5.16,1.26,10.45,2.09,15.57.18,1.11.43,2.22.77,3.29.17.56.38,1.11.59,1.65,1.61,4.08,3.62,8.86,5.43,12.86.17.37.33.74.52,1.11.51.99,1.11,1.92,1.78,2.81,1.9,2.53,6.47,9.5,10.33,12.88.22.19.45.37.68.56,3.22,2.6,7.51,5.97,10.86,8.38.39.28.78.55,1.2.8,4.61,2.75,9.9,4.53,14.83,6.4.88.33,1.78.58,2.7.75,5.43,1,10.95,1.96,16.49,2.14.96.03,1.91-.02,2.86-.13,5.23-.57,11.17-1.01,16.53-2.35.91-.23,1.8-.51,2.67-.85,5.07-1.97,10.29-3.88,15.11-6.48.83-.45,1.64-.95,2.41-1.5,3.91-2.77,7.73-5.84,11.47-8.83.47-.37.93-.75,1.37-1.16.66-.6,1.28-1.25,1.86-1.93,3.11-3.67,6.1-7.69,8.95-11.55.35-.48.69-.96,1-1.47.47-.76.86-1.55,1.23-2.36,1.51-3.34,4.96-10.29,6.24-15.38.13-.53.25-1.06.34-1.59.06-.35.11-.71.16-1.06.66-4.56,1.45-9.73,1.92-14.31.13-1.24.18-2.49.12-3.73-.03-.65-.09-1.3-.17-1.95-.61-5.15-1.16-10.44-2.12-15.54-.25-1.35-.61-2.69-1.07-3.99-1.88-5.43-4.17-10.73-6.68-15.89-.59-1.21-1.25-2.38-1.98-3.51-3.09-4.79-6.82-9.21-10.38-13.62-.85-1.06-1.77-2.07-2.74-3.02s-2-1.84-3.06-2.68c-4.09-3.26-9.09-7.53-13.95-10.5-6.03-3.84-12.53-5.91-19.52-6.23-6.98-1.56-13.96-1.25-20.93.94-6.83,1.62-12.78,4.76-17.85,9.4-5.72,3.7-10.22,8.61-13.52,14.73l-5.29,12.54c-2.5,9.3-2.5,18.61,0,27.91l5.29,12.54c4.67,7.89,10.95,14.17,18.83,18.83,1.15.7,2.26,1.47,3.32,2.29l-10.63-8.21c2.33,1.84,4.42,3.94,6.25,6.29l-8.21-10.63c1.79,2.34,3.29,4.87,4.44,7.59l-5.29-12.54c.91,2.23,1.56,4.53,1.91,6.91l-1.88-13.96c.28,2.13.31,4.26.05,6.39l1.88-13.96c-.26,1.89-.71,3.73-1.45,5.49l5.29-12.54c-.64,1.45-1.45,2.8-2.41,4.06l8.21-10.63c-1.11,1.41-2.38,2.67-3.79,3.78l10.63-8.21c-1.59,1.22-3.3,2.23-5.14,3.02l12.54-5.29c-1.81.76-3.7,1.3-5.65,1.57l13.96-1.88c-1.61.21-3.23.23-4.84.03l13.96,1.88c-1.4-.2-2.75-.55-4.06-1.09l12.54,5.29c-1.14-.5-2.2-1.11-3.19-1.86l10.63,8.21c-1.05-.83-1.97-1.77-2.8-2.81l8.21,10.63c-.93-1.21-1.68-2.52-2.3-3.91l5.29,12.54c-.83-1.98-1.34-4.04-1.63-6.16.63,4.65,1.25,9.3,1.88,13.96-.37-3.08-.27-6.17.12-9.24l-1.88,13.96c.46-3.39,1.16-6.86,2.46-10.04l-5.29,12.54c.44-1,.95-1.94,1.61-2.81l-8.21,10.63c.38-.46.78-.87,1.23-1.26-3.54,2.74-7.08,5.47-10.63,8.21.44-.34.89-.63,1.39-.86l-12.54,5.29c.46-.18.91-.29,1.4-.36l-13.96,1.88c.49-.04.97-.03,1.46.02l-13.96-1.88c.48.08.94.2,1.39.37l-12.54-5.29c.43.19.82.41,1.2.69l-10.63-8.21c.28.23.52.48.74.76l-8.21-10.63c.15.22.27.44.39.68l-5.29-12.54c.1.26.16.5.21.77l-1.88-13.96c.03.18.04.37.03.56-.27,7.23,1.23,13.97,4.52,20.23,2.12,6.51,5.74,12.14,10.86,16.9,4.76,5.12,10.39,8.74,16.9,10.86,6.26,3.29,13,4.79,20.23,4.52l13.96-1.88c8.89-2.49,16.62-6.99,23.17-13.5l8.21-10.63c4.75-8.19,7.14-17.02,7.17-26.5h0Z"/>
  <path class="cls-1" d="m464.98,1181.94c-65.79,77.75-129.39,157.29-191.13,238.29-59.44,78-116.88,157.53-172.22,238.49-26.25,38.4-53.38,76.93-72.19,119.68-10.71,24.34-20.26,48.97-24.65,75.3-2.41,14.43-4.4,29.12-4.75,43.78s1.42,29.7,3.6,44.55c7.19,48.9,35.24,94.02,73.87,124.43,19.46,15.32,39.51,28.75,61.61,39.95,25.17,12.76,51.37,23.65,77.76,33.62,46.27,17.48,93.69,31.98,140.74,47.17,48.42,15.64,96.9,31.11,145.42,46.41,97.41,30.72,195.02,60.77,292.84,90.15,49.09,14.74,98.22,29.32,147.41,43.72,23.78,6.97,47.51,14.65,71.56,20.63,31.94,7.95,68.41,8.91,96.35-11.26,14.91-10.76,25.96-23.01,36.08-38.49,5.64-8.61,10.6-17.72,15.23-26.91,11.01-21.84,21.01-45.15,25.94-69.22,5.67-27.68,7.24-56.98-1.22-84.34-8.94-28.89-26.4-52.73-50.15-71.08-17.6-13.6-36.62-23.29-57.01-32.03-23.63-10.12-47.31-20.14-70.97-30.21-47.25-20.11-94.5-40.23-141.74-60.34-94.5-40.23-188.99-80.45-283.49-120.68-19.46-8.29-40.33-15.5-57.42-28.28,3.54,2.74,7.08,5.47,10.63,8.21-4.54-3.54-8.63-7.44-12.25-11.92,2.74,3.54,5.47,7.08,8.21,10.63-3.1-4.07-5.68-8.38-7.79-13.04l5.29,12.54c-2.34-5.59-3.86-11.33-4.72-17.33l1.88,13.96c-.93-7.85-.7-15.64.33-23.48l-1.88,13.96c2.09-14.23,6.57-27.87,12.07-41.11l-5.29,12.54c8.02-18.94,18.01-37.02,27.6-55.2,10.51-19.92,21.18-39.75,32.02-59.5,21.67-39.49,44-78.62,66.95-117.38,6.92-11.69,8.89-27.39,5.29-40.45-3.35-12.18-12.77-25.38-24.13-31.38-25.28-13.36-56.88-6.42-71.83,18.83-37.01,62.52-72.4,126-106.06,190.39-15.73,30.08-32.73,61.39-37.86,95.34-3.29,21.77-4.7,44.54,3.16,65.67,3.79,10.19,7.85,19.93,14.31,28.64,9.89,13.31,18.93,22.06,32.46,31.78,11.52,8.28,24.57,13.85,37.55,19.38,17.12,7.29,34.24,14.58,51.36,21.86,34.24,14.58,68.48,29.15,102.71,43.73,67.79,28.86,135.58,57.72,203.37,86.58,37.66,16.03,75.32,32.07,112.98,48.1,17.95,7.64,36,15.07,53.82,23.01,14.77,6.58,29.25,13.91,42.14,23.76l-10.63-8.21c6.71,5.28,12.75,11.14,18,17.88l-8.21-10.63c4.17,5.59,7.63,11.54,10.42,17.94l-5.29-12.54c3.04,7.37,5.04,14.96,6.18,22.85l-1.88-13.96c1.3,10.35,1.07,20.69-.24,31.03l1.88-13.96c-2.36,16.87-7.43,33.12-13.94,48.83l5.29-12.54c-7.77,18.37-17.02,37.09-29.19,52.98l8.21-10.63c-3.52,4.42-7.35,8.45-11.79,11.96l10.63-8.21c-3.25,2.4-6.6,4.36-10.3,5.99,4.18-1.76,8.36-3.53,12.54-5.29-4.11,1.6-8.2,2.64-12.57,3.25,4.65-.63,9.3-1.25,13.96-1.88-6.31.67-12.52.4-18.8-.42,4.65.63,9.3,1.25,13.96,1.88-13.31-1.99-26.17-6.11-39.07-9.86-13.81-4.01-27.61-8.04-41.42-12.08-27.96-8.18-55.9-16.42-83.82-24.71-55.14-16.37-110.22-32.95-165.23-49.75-110.73-33.8-221.2-68.47-331.4-103.99-59.82-19.28-120.57-37.15-178.6-61.45l12.54,5.29c-30.39-12.83-60.41-27.48-86.75-47.55l10.63,8.21c-12.67-9.81-24.24-20.84-34.05-33.53l8.21,10.63c-7.31-9.69-13.37-20.1-18.12-31.27l5.29,12.54c-5.15-12.55-8.54-25.61-10.44-39.03l1.88,13.96c-2.27-17.32-2.04-34.76.17-52.08l-1.88,13.96c3.05-22.35,9.45-43.87,18.09-64.67l-5.29,12.54c23.58-55.79,60.72-105.42,95.03-154.94,35.89-51.8,72.64-103,110.23-153.58,21.12-28.42,42.51-56.63,64.14-84.65l-8.21,10.63c51.96-67.23,105.4-133.31,160.29-198.18,9.17-10.83,15.38-22.49,15.38-37.12,0-12.88-5.72-28.26-15.38-37.12s-23.14-16-37.12-15.38c-13.24.59-28.22,4.86-37.12,15.38h0Z"/>
  <path class="cls-1" d="m1479,1201.76c53.57,57.08,107.13,114.16,160.7,171.24,26.78,28.54,53.57,57.08,80.35,85.62,16.37,17.45,35.04,33.82,58.68,40.28,7.11,1.94,14.95,3.02,22.32,3.04,6.07.02,12.33-1.15,18.26-2.17,2.09-.36,4.1-.8,6.11-1.51,15.4-5.41,27.07-12.73,39.28-23.67,12.6-11.29,23.23-25.25,34.09-38.17,11.13-13.24,22.02-26.67,32.68-40.29,24.1-30.75,47.42-62.06,69.61-94.22,40.15-58.19,76.98-118.63,111.61-180.25,17.27-30.73,34-61.77,50.33-93.01,14.66-28.04,27.88-57.21,44.98-83.89,3.77-5.89,7.77-11.61,12.03-17.15l-8.21,10.63c7.47-9.57,15.75-18.45,25.36-25.91l-10.63,8.21c5.94-4.49,12.26-8.33,19.09-11.31l-12.54,5.29c6.13-2.56,12.45-4.34,19.02-5.3l-13.96,1.88c6.17-.79,12.3-.84,18.48-.09l-13.96-1.88c6.7.95,13.1,2.77,19.34,5.39-4.18-1.76-8.36-3.53-12.54-5.29,6.66,2.93,12.83,6.66,18.6,11.08l-10.63-8.21c6.52,5.15,12.31,11.03,17.41,17.58l-8.21-10.63c5.02,6.63,9.21,13.74,12.53,21.35l-5.29-12.54c4.2,10.04,6.93,20.52,8.48,31.28-.63-4.65-1.25-9.3-1.88-13.96,2.03,15.35,1.64,30.79-.33,46.12l1.88-13.96c-3.86,28.38-12.76,55.85-23.84,82.18l5.29-12.54c-15.35,36.07-35.07,70.01-55.14,103.61-20.51,34.34-41.52,68.39-63.02,102.13-42.85,67.22-87.64,133.21-134.3,197.84-26.3,36.43-53.2,72.43-80.67,107.99,2.74-3.54,5.47-7.08,8.21-10.63-22.69,29.36-45.77,58.41-69.24,87.15-11.6,14.2-23.26,28.36-35.08,42.37-10.51,12.45-21.42,24.63-34.29,34.71l10.63-8.21c-6.79,5.19-14,9.66-21.83,13.11,4.18-1.76,8.36-3.53,12.54-5.29-7.1,2.99-14.43,5.04-22.05,6.18,4.65-.63,9.3-1.25,13.96-1.88-8.47,1.12-16.93,1.05-25.4.01,4.65.63,9.3,1.25,13.96,1.88-12.29-1.69-24.09-5.32-35.51-10.12,4.18,1.76,8.36,3.53,12.54,5.29-22.92-9.86-43.76-23.88-63.64-38.83-21.84-16.41-43.31-33.34-64.94-50.03-44.6-34.41-89.21-68.82-133.81-103.22-25-19.28-49.99-38.57-74.99-57.85-6.03-3.84-12.53-5.91-19.52-6.23-6.98-1.56-13.96-1.25-20.93.94-12.18,3.35-25.38,12.77-31.38,24.13-6.44,12.18-9.66,26.94-5.29,40.45,1.76,4.18,3.53,8.36,5.29,12.54,4.67,7.89,10.95,14.17,18.83,18.83,65.68,50.67,131.36,101.33,197.04,152,16.17,12.48,32.35,24.96,48.52,37.43,15.38,11.87,30.6,23.98,46.64,34.96,35.16,24.06,76.47,43.59,119.89,43.67,25.01.05,50.44-6.86,71.93-19.69,17.9-10.69,33.75-25.15,47.55-40.69,25.23-28.4,48.85-58.41,72.55-88.09,50.71-63.53,99.79-128.39,146.89-194.65,45.01-63.32,88.23-127.91,129.6-193.67,20.47-32.54,40.55-65.33,60.03-98.47,21.3-36.24,40.68-73.28,55.79-112.58,6.75-17.55,12.35-35.62,16.01-54.07,4.36-22,7.41-45.05,5.47-67.51-2.25-26.11-7.97-50.62-20.68-73.76-11.42-20.8-27.79-36.95-46.74-50.77-19.23-14.03-42.81-20.72-66.28-22.39-22.34-1.59-44.68,5.12-64.42,15.03-16,8.03-30.65,20.37-42.58,33.68-12.68,14.14-23.94,29.84-33.67,46.16-17.77,29.81-32.37,61.61-48.59,92.27-17.53,33.14-35.54,66.03-54.2,98.55-37.11,64.67-76.84,127.91-120.47,188.4-10.6,14.7-21.44,29.23-32.51,43.58l8.21-10.63c-12.62,16.33-25.54,32.43-38.8,48.25-6.46,7.7-12.99,15.33-19.61,22.9-6.26,7.16-12.48,14.4-20.02,20.25l10.63-8.21c-3.06,2.26-6.23,4.19-9.7,5.73l12.54-5.29c-2.63,1.05-5.26,1.79-8.06,2.25l13.96-1.88c-2.88.33-5.67.33-8.55-.02l13.96,1.88c-3.3-.54-6.36-1.47-9.44-2.76l12.54,5.29c-4.01-1.84-7.68-4.15-11.22-6.77l10.63,8.21c-8.42-6.52-15.54-14.44-22.81-22.18-8.5-9.06-17.01-18.12-25.51-27.18-17.22-18.35-34.44-36.7-51.65-55.04-34.22-36.47-68.45-72.94-102.67-109.41-19.13-20.39-38.26-40.77-57.39-61.16-9.03-9.62-24.1-15.38-37.12-15.38s-28.26,5.72-37.12,15.38c-9.18,10.01-16,23.14-15.38,37.12s5.55,26.65,15.38,37.12h0Z"/>
  <path class="cls-1" d="m1369.67,1562.12c-13.76,91.37-27.52,182.75-41.28,274.12-13.69,90.91-27.38,181.83-41.07,272.74-7.71,51.23-15.43,102.45-23.14,153.68-2.19,6.98-2.5,13.96-.94,20.93.32,6.99,2.39,13.49,6.23,19.52,3.3,6.12,7.81,11.03,13.52,14.73,5.07,4.64,11.02,7.77,17.85,9.4,13.44,3.06,28.52,2.4,40.45-5.29l10.63-8.21c6.51-6.55,11.01-14.27,13.5-23.17,13.76-91.37,27.52-182.75,41.28-274.12,13.69-90.91,27.38-181.83,41.07-272.74,7.71-51.23,15.43-102.45,23.14-153.68,2.19-6.98,2.5-13.96.94-20.93-.32-6.99-2.39-13.49-6.23-19.52-3.3-6.12-7.81-11.03-13.52-14.73-5.07-4.64-11.02-7.77-17.85-9.4-13.44-3.06-28.52-2.4-40.45,5.29l-10.63,8.21c-6.51,6.55-11.01,14.27-13.5,23.17h0Z"/>
  <path class="cls-1" d="m540.51,2214.68c-5.97,74.6-12.71,149.13-20.24,223.59-7.53,74.46-15.84,148.83-24.92,223.11-5.13,41.93-10.51,83.82-16.13,125.68l1.88-13.96c-3.98,29.58-8.07,59.14-12.29,88.68-2.19,6.98-2.5,13.96-.94,20.93.32,6.99,2.39,13.49,6.23,19.52l8.21,10.63c6.55,6.51,14.27,11.01,23.17,13.5,92.55,14.45,185.76,24.85,279.28,30.34,21.87,1.28,43.75,2.31,65.64,3.07,21.21.74,42.57,1.85,63.78.74,14.52-.76,29.2-2.46,43.38-5.7,13.18-3,26.01-8.22,38.04-14.3,10.95-5.54,20.79-13.3,30.18-21.09,6.58-5.46,12.43-11.68,17.72-18.39,7.73-9.81,15.21-19.51,20.96-30.61s10.78-22.99,14.5-35.03c4.03-13.03,5.75-26.61,7.31-40.13,1.15-10,1.34-20.1.71-30.15-1.56-24.87-6.16-49.76-14.49-73.27-7.2-20.33-16.02-40.43-27.21-58.92-21.55-35.6-50.13-66.01-84.61-89.29-16.98-11.46-36.09-20.19-55.49-26.64-7.96-2.64-16.12-4.67-24.4-6.02-11.78-1.92-23.78-3.7-35.76-3.64-11.83.06-23.78,1.79-35.4,3.71-7.73,1.28-15.35,3.2-22.78,5.71-18.37,6.21-36.66,14.42-52.42,25.86-9.32,6.77-18.65,13.84-26.86,21.97-8.14,8.06-15.2,17.3-21.9,26.55-4.42,6.1-8.27,12.61-11.42,19.45-4.74,10.32-9.43,21-12.07,32.11s-4.25,23.19-4.56,34.86c-.27,7.23,1.23,13.97,4.52,20.23,2.12,6.51,5.74,12.14,10.86,16.9,4.76,5.12,10.39,8.74,16.9,10.86,6.26,3.29,13,4.79,20.23,4.52,13.58-.61,27.66-5.07,37.12-15.38s14.99-22.77,15.38-37.12c.1-3.7.39-7.38.86-11.06l-1.88,13.96c1.25-9,3.67-17.73,7.15-26.12l-5.29,12.54c3.9-9.18,8.99-17.74,15.04-25.66l-8.21,10.63c6.97-8.98,15.07-16.97,24.03-23.97l-10.63,8.21c10.16-7.83,21.25-14.3,33.04-19.35l-12.54,5.29c11.87-4.99,24.29-8.48,37.04-10.29-4.65.63-9.3,1.25-13.96,1.88,11.8-1.59,23.71-1.68,35.51-.11-4.65-.63-9.3-1.25-13.96-1.88,13.98,1.95,27.57,5.76,40.59,11.2-4.18-1.76-8.36-3.53-12.54-5.29,14.83,6.31,28.66,14.62,41.41,24.47l-10.63-8.21c14.79,11.55,27.94,25.01,39.44,39.82l-8.21-10.63c12.96,16.86,23.71,35.31,32.03,54.88l-5.29-12.54c8.07,19.19,13.96,39.28,16.83,59.92l-1.88-13.96c2.05,15.43,2.33,31.01.36,46.46l1.88-13.96c-1.72,12.68-4.96,24.99-9.93,36.79l5.29-12.54c-4.49,10.47-10.21,20.32-17.16,29.35l8.21-10.63c-6.11,7.81-13.07,14.85-20.91,20.93l10.63-8.21c-7.13,5.43-14.83,9.94-23.09,13.43,4.18-1.76,8.36-3.53,12.54-5.29-10.31,4.22-21.1,6.79-32.12,8.29,4.65-.63,9.3-1.25,13.96-1.88-21.47,2.78-43.23,1.82-64.81,1.19-23.26-.69-46.52-1.67-69.75-2.94-46.7-2.56-93.34-6.3-139.85-11.22-26.09-2.76-52.15-5.9-78.15-9.39,4.65.63,9.3,1.25,13.96,1.88-19.45-2.62-38.86-5.45-58.25-8.47,12.22,21.53,24.45,43.05,36.67,64.58,12.87-90.09,24.71-180.34,35.4-270.71,10.19-86.17,19.34-172.47,27.44-258.86,4.54-48.45,8.75-96.94,12.63-145.45.27-7.23-1.23-13.97-4.52-20.23-2.12-6.51-5.74-12.14-10.86-16.9-4.76-5.12-10.39-8.74-16.9-10.86-6.26-3.29-13-4.79-20.23-4.52-13.58.61-27.66,5.07-37.12,15.38-2.74,3.54-5.47,7.08-8.21,10.63-4.75,8.19-7.14,17.02-7.17,26.5h0Z"/>
  <path class="cls-1" d="m1000.33,2909.54c44.77,6.06,89.6,11.59,134.56,16.12,40.28,4.06,80.63,7.44,121.02,10.12,20.35,1.35,40.71,2.53,61.07,3.53,19.11.94,38.32,2.23,57.47,1.99,12.95-.16,25.8-1.71,38.57-3.84,12.81-2.13,24.63-6.93,36.38-12.45,3.79-1.78,7.42-3.88,10.83-6.29,6.51-4.6,13.08-9.48,18.86-15.02,2.82-2.7,5.41-5.63,7.82-8.7,4.95-6.31,10.12-12.6,14.29-19.49,6.33-10.45,11.05-22.07,15.14-33.53,2.67-7.48,4.66-15.18,6.12-22.98,3.97-21.27,6.15-43.01,4.62-64.63-.9-12.81-2.66-25.61-4.94-38.24-1.56-8.58-3.59-17.08-6.04-25.45s-5.27-16.49-8.48-24.52c-4.8-12.03-9.86-24.02-15.67-35.6-7.85-15.64-17.01-30.61-27.26-44.79-12.63-17.46-26.03-34.92-42.23-49.26-9.47-8.38-19.6-16.33-30.38-23s-22.38-11.46-34.04-15.79c-7.55-2.8-15.37-4.86-23.32-6.19-12.28-2.05-24.84-3.82-37.33-3.67-4.09.05-8.18.29-12.26.71-8.48.89-17,1.95-25.38,3.58-7.9,1.54-15.67,3.81-23.14,6.82-11.43,4.6-22.84,9.27-33.2,16.02-10.02,6.53-19.66,13.99-28.31,22.26-8.59,8.23-15.86,17.81-22.87,27.37-4.53,6.18-8.52,12.76-11.92,19.63-5.28,10.68-10.04,21.83-13.46,33.27s-4.98,23.7-6.38,35.74c-.87,7.5-1.03,15.06-.51,22.59-.27,7.23,1.23,13.97,4.52,20.23,2.12,6.51,5.74,12.14,10.86,16.9,4.76,5.12,10.39,8.74,16.9,10.86,6.26,3.29,13,4.79,20.23,4.52,4.65-.63,9.3-1.25,13.96-1.88,8.89-2.49,16.62-6.99,23.17-13.5l8.21-10.63c4.75-8.19,7.14-17.02,7.17-26.5-.57-8.22-.3-16.46.76-24.63-.63,4.65-1.25,9.3-1.88,13.96,1.54-11.35,4.59-22.41,8.99-32.98-1.76,4.18-3.53,8.36-5.29,12.54,4.46-10.56,10.23-20.49,17.2-29.59l-8.21,10.63c6.59-8.5,14.17-16.16,22.66-22.77l-10.63,8.21c8.24-6.34,17.24-11.55,26.81-15.6l-12.54,5.29c10.46-4.35,21.42-7.26,32.65-8.78-4.65.63-9.3,1.25-13.96,1.88,11.72-1.52,23.57-1.5,35.29.06l-13.96-1.88c11.21,1.56,22.17,4.52,32.6,8.92l-12.54-5.29c10.11,4.33,19.48,10.03,28.18,16.74l-10.63-8.21c13.47,10.52,25.04,23.18,35.48,36.66l-8.21-10.63c16.77,21.77,30.95,45.54,41.68,70.84-1.76-4.18-3.53-8.36-5.29-12.54,8.89,21.11,15.33,43.24,18.4,65.96-.63-4.65-1.25-9.3-1.88-13.96,2.4,18.21,2.6,36.65.18,54.87.63-4.65,1.25-9.3,1.88-13.96-1.83,13.39-4.99,26.57-10.2,39.07,1.76-4.18,3.53-8.36,5.29-12.54-3.46,8.16-7.77,15.93-13.16,22.98l8.21-10.63c-4.1,5.27-8.76,10.04-14.04,14.14l10.63-8.21c-4.88,3.72-10.18,6.75-15.82,9.17l12.54-5.29c-7.96,3.32-16.34,5.32-24.87,6.49,4.65-.63,9.3-1.25,13.96-1.88-22.42,2.95-45.4.94-67.89-.1-25.05-1.16-50.08-2.58-75.1-4.27-50.19-3.39-100.3-7.84-150.3-13.35-28.08-3.1-56.12-6.53-84.11-10.29l13.96,1.88c-1.2-.16-2.4-.32-3.59-.49-6.98-2.19-13.96-2.5-20.93-.94-6.99.32-13.49,2.39-19.52,6.23-6.12,3.3-11.03,7.81-14.73,13.52-4.64,5.07-7.77,11.02-9.4,17.85l-1.88,13.96c.03,9.48,2.42,18.31,7.17,26.5l8.21,10.63c6.55,6.51,14.27,11.01,23.17,13.5h0Z"/>
  <path class="cls-1" d="m1317.13,2539.81c7.62-39.52,15.23-79.05,22.85-118.57,7.58-39.33,15.16-78.67,22.74-118,4.26-22.08,8.51-44.17,12.77-66.25,2.19-6.98,2.5-13.96.94-20.93-.32-6.99-2.39-13.49-6.23-19.52-3.3-6.12-7.81-11.03-13.52-14.73-5.07-4.64-11.02-7.77-17.85-9.4-4.65-.63-9.3-1.25-13.96-1.88-9.48.03-18.31,2.42-26.5,7.17l-10.63,8.21c-6.51,6.55-11.01,14.27-13.5,23.17-7.61,39.48-15.22,78.96-22.83,118.43-7.58,39.33-15.16,78.66-22.74,117.99-4.27,22.13-8.53,44.27-12.8,66.4-2.19,6.98-2.5,13.96-.94,20.93.32,6.99,2.39,13.49,6.23,19.52,3.3,6.12,7.81,11.03,13.52,14.73,5.07,4.64,11.02,7.77,17.85,9.4,4.65.63,9.3,1.25,13.96,1.88,9.48-.03,18.31-2.42,26.5-7.17l10.63-8.21c6.51-6.55,11.01-14.27,13.5-23.17h0Z"/>
  <path class="cls-1" d="m921.77,2330.66c1.98,31.68.94,63.45-.78,95.12-1.72,31.74-3.77,63.47-5.68,95.2-1.07,17.79-2.14,35.57-3.21,53.36-.27,7.23,1.23,13.97,4.52,20.23,2.12,6.51,5.74,12.14,10.86,16.9,4.76,5.12,10.39,8.74,16.9,10.86,6.26,3.29,13,4.79,20.23,4.52,4.65-.63,9.3-1.25,13.96-1.88,8.89-2.49,16.62-6.99,23.17-13.5l8.21-10.63c4.75-8.19,7.14-17.02,7.17-26.5,1.91-31.75,3.82-63.5,5.73-95.24,1.91-31.7,4.16-63.4,4.84-95.16.38-17.76.21-35.54-.9-53.28.27-7.23-1.23-13.97-4.52-20.23-2.12-6.51-5.74-12.14-10.86-16.9-4.76-5.12-10.39-8.74-16.9-10.86-6.26-3.29-13-4.79-20.23-4.52-4.65.63-9.3,1.25-13.96,1.88-8.89,2.49-16.62,6.99-23.17,13.5l-8.21,10.63c-4.75,8.19-7.14,17.02-7.17,26.5h0Z"/>
  <path class="cls-1" d="m521.44,261.71c-.81-2.69-1.74-5.33-2.79-7.94-2.68-6.64-5.36-13.36-8.56-19.79-2.53-5.08-5.46-9.95-8.65-14.63-1.59-2.33-3.24-4.62-4.95-6.86-4.33-5.71-8.67-11.42-13.22-16.96-3.65-4.44-7.47-8.75-11.36-12.99-7.7-8.38-15.45-16.96-24.42-24.02-7.81-6.14-15.6-12.82-24.74-16.98s-18.34-8.36-28.25-10.07c-5.87-1.02-11.81-1.72-17.72-2.42-1.4-.17-2.81-.29-4.22-.38-2.84-.18-5.68-.21-8.52-.11s-5.72.35-8.56.7c-7.3.92-14.79,1.74-22.05,3.21-5.57,1.13-11.05,2.68-16.42,4.55-9.1,3.16-18.01,6.99-26.73,11.05-9.44,4.39-18.43,9.74-26.81,15.91-11.85,8.72-23.44,17.79-33.41,28.64-6.43,7.01-12.18,14.66-17.89,22.24-3.11,4.13-6.02,8.41-8.7,12.84-1.41,2.32-2.84,4.66-3.97,7.13-1.06,2.32-2.06,4.84-3.01,7.09-.89,2.12-2.11,4.72-2.97,7.1-.25.69-.46,1.39-.61,2.11-2.73,13.04-2.66,18.4-.17,31.3,1.05,5.42,3.3,10.77,6.34,15.36l4.1,5.31c1.41,1.85,2.84,3.69,4.27,5.52.15.17.29.33.45.48,3.52,3.37,7.46,6.34,11.57,8.95,4.47,2.84,9.57,5.1,14.76,6.2s9.96,1.81,14.99,2.01c.17,0,.34,0,.51,0,.17,0,.33-.02.49-.05l13.96-1.88c9.43-2.21,17.98-7.6,24.91-14.19,8.5-8.09,10.39-14.13,14.64-24.71,2.19-6.98,2.5-13.96.94-20.93-.32-6.99-2.39-13.49-6.23-19.52-3.3-6.12-7.81-11.03-13.52-14.73-5.07-4.64-11.02-7.77-17.85-9.4l-13.96-1.88c-9.48.03-18.31,2.42-26.5,7.17l-10.63,8.21c-6.51,6.55-11.01,14.27-13.5,23.17l-.1.24,5.29-12.54c-.11.23-.23.43-.37.64l8.21-10.63c-.2.25-.41.46-.66.66l10.63-8.21c-.26.18-.52.32-.82.45l12.54-5.29c-.31.11-.61.19-.93.24l13.96-1.88c-.51.06-1,.06-1.51,0l13.96,1.88c-.62-.09-1.2-.25-1.79-.49l12.54,5.29c-.5-.22-.95-.49-1.39-.81l10.63,8.21c-.42-.34-.79-.7-1.12-1.13l8.21,10.63c-.2-.29-.38-.59-.53-.91l5.29,12.54c-.25-.62-.41-1.25-.51-1.91l1.88,13.96c-.09-.86-.08-1.68.02-2.54l-1.88,13.96c.21-1.31.59-2.56,1.09-3.79l-5.29,12.54c1.75-4.12,4.27-7.99,6.7-11.74s4.86-7.17,7.51-10.6l-8.21,10.63c8.25-10.64,17.85-20.18,28.5-28.41l-10.63,8.21c10.67-8.2,22.34-15.05,34.74-20.29l-12.54,5.29c10.48-4.4,21.44-7.71,32.71-9.25l-13.96,1.88c7.77-1.03,15.64-1.2,23.42-.16l-13.96-1.88c5.72.8,11.32,2.26,16.65,4.49l-12.54-5.29c5.39,2.29,10.36,5.36,15,8.92l-10.63-8.21c6.13,4.75,11.62,10.24,16.95,15.84s10.42,11.06,15.38,16.8c2.83,3.27,5.58,6.61,8.23,10.04l-8.21-10.63c6.76,8.78,12.77,18.17,17.12,28.38l-5.29-12.54c1.31,3.1,2.46,6.26,3.43,9.48,1.62,6.83,4.76,12.78,9.4,17.85,3.7,5.72,8.61,10.22,14.73,13.52,6.03,3.84,12.53,5.91,19.52,6.23,6.98,1.56,13.96,1.25,20.93-.94l12.54-5.29c7.89-4.67,14.17-10.95,18.83-18.83l5.29-12.54c2.5-9.3,2.5-18.61,0-27.91h0Z"/>
  <path class="cls-1" d="m519.63,232.77c-4.23-11.63-7.16-23.69-8.82-35.95l1.88,13.96c-2.16-16.19-2.1-32.63.04-48.81l-1.88,13.96c1.72-12.78,4.73-25.37,9.02-37.53,1.23-3.49,2.57-6.94,4-10.34l-5.29,12.54c5.91-13.97,13.53-27.19,22.78-39.22l-8.21,10.63c4.37-5.66,8.96-11.35,14.63-15.77l-10.63,8.21c2.56-1.97,5.3-3.68,8.28-4.94l-12.54,5.29c1.78-.72,3.61-1.26,5.52-1.53l-13.96,1.88c1.36-.16,2.71-.18,4.07,0l-13.96-1.88c1.13.17,2.21.46,3.27.88l-12.54-5.29c.99.43,1.91.95,2.79,1.58,6.03,3.84,12.53,5.91,19.52,6.23,6.98,1.56,13.96,1.25,20.93-.94,6.83-1.62,12.78-4.76,17.85-9.4,5.72-3.7,10.22-8.61,13.52-14.73l5.29-12.54c2.5-9.3,2.5-18.61,0-27.91l-5.29-12.54c-4.67-7.89-10.95-14.17-18.83-18.83-.69-.49-1.4-.93-2.16-1.29-.21-.1-.42-.19-.63-.28-3.8-1.7-8.97-3.98-12.86-5.42-.43-.16-.86-.3-1.3-.42-.38-.1-.77-.19-1.15-.25-2.46-.43-5.31-.72-7.48-1.02-1.74-.23-4.9-.73-7.31-.98-.9-.09-1.81-.11-2.71-.05-2.66.18-5.55.71-8.01,1.04s-5.4.61-8.01,1.1c-.94.18-1.86.42-2.76.72-5.93,1.97-11.84,4.39-17.33,7.42-1.66.91-3.24,1.96-4.75,3.1-4.25,3.2-8.56,6.38-12.64,9.81-.75.63-1.48,1.29-2.2,1.96-2.78,2.62-5.25,5.57-7.67,8.52-5.14,6.26-10.12,12.68-14.85,19.27-2.23,3.1-4.36,6.28-6.38,9.52-4.01,6.43-7.59,13.13-10.75,20.02-8.22,17.94-15.31,36.23-18.96,55.66-1.54,8.18-2.52,16.49-3.58,24.73-.49,3.8-.86,7.61-1.11,11.43-.5,7.57-.55,15.17-.11,22.74.22,3.82.56,7.62,1.02,11.42,1,8.25,2.01,16.54,3.52,24.72,1.38,7.46,3.24,14.82,5.59,22.03.59,1.82,1.22,3.63,1.88,5.43,1.62,6.83,4.76,12.78,9.4,17.85,3.7,5.72,8.61,10.22,14.73,13.52,6.03,3.84,12.53,5.91,19.52,6.23,6.98,1.56,13.96,1.25,20.93-.94l12.54-5.29c7.89-4.67,14.17-10.95,18.83-18.83l5.29-12.54c2.5-9.3,2.5-18.61,0-27.91h0Z"/>
  <path class="cls-1" d="m876.17,1105.22c10.33,11.42,20.56,22.94,31.02,34.24,4.71,5.09,9.52,10.09,14.55,14.87,8.17,7.76,17.07,14.64,26.1,21.37,5.39,4.02,11.09,7.66,17.11,10.68,8.99,4.51,18.42,8.55,28.08,11.45s20.28,4.07,30.57,5.37c5.72.72,11.51.98,17.27.78,2.89-.1,5.77-.31,8.64-.64,7.33-.83,14.71-1.72,21.98-3.08,5.77-1.09,11.45-2.63,16.97-4.62,6.8-2.45,13.45-5.37,20.04-8.32,2.63-1.18,5.21-2.46,7.73-3.85,8.82-4.86,16.66-11.2,24.53-17.45,4.6-3.65,8.87-7.72,12.72-12.17,4.7-5.42,9.04-11.19,13.26-16.98,1.7-2.34,3.3-4.75,4.79-7.23,5.22-8.67,9-18.21,12.74-27.57,2.18-5.47,3.91-11.12,5.19-16.87,2.22-10.04,3.58-20.37,4.25-30.62.38-5.79.31-11.6-.23-17.38-.96-10.26-2.2-20.74-4.83-30.76s-6.73-19.19-10.88-28.35c-1.2-2.64-2.52-5.22-3.95-7.75l-8.21-10.63-10.63-8.21-12.54-5.29c-6.98-2.19-13.96-2.5-20.93-.94-4.74.01-9.15,1.21-13.25,3.58-4.45,1.25-8.31,3.5-11.58,6.75-3.94,2.33-7.08,5.47-9.42,9.42-4.64,5.07-7.77,11.02-9.4,17.85-.87,5.11-1.74,10.58-2.11,15.76-.06.79-.05,1.58.01,2.36.39,5.02,1.14,10.47,2.06,15.41.16.87.36,1.72.63,2.56,1.56,4.84,3.85,9.58,5.91,14.21.33.74.66,1.47,1.04,2.18.78,1.46,1.7,2.84,2.68,4.18,4.49,6.16,9.11,12.38,14.54,17.76,2.38,2.35,4.83,4.64,7.27,6.92,4.96,4.64,9.99,9.2,15.23,13.52,8.46,6.98,17.13,13.9,26.38,19.84s19.23,10.05,29.43,14.2,21.03,5.4,32.15,6.8c3.38.42,6.77.64,10.17.56,1.75-.04,3.5-.15,5.25-.33,6.18-.63,12.38-1.46,18.51-2.49,11.26-1.9,21.68-6.68,32.07-11.24,6.51-2.86,12.7-6.43,18.53-10.5,8.28-5.79,16.48-11.99,23.83-18.95,4.01-3.8,7.75-7.88,11.19-12.2,6.12-7.68,12.31-15.42,17.41-23.83,2.88-4.75,5.45-9.68,7.7-14.75,4-9.01,8.03-18.15,10.9-27.62,1.6-5.27,2.86-10.64,3.77-16.06,1.63-9.78,3.12-19.76,3.46-29.71.18-5.38-.01-10.78-.62-16.14-1.09-9.71-2.19-19.68-4.76-29.18s-6.53-18.33-10.53-27.06c-2.24-4.88-4.91-9.56-7.99-13.95-4.03-5.75-8.38-11.32-12.89-16.71-4.76-5.12-10.39-8.74-16.9-10.86-6.26-3.29-13-4.79-20.23-4.52-7.23-.27-13.97,1.23-20.23,4.52-6.51,2.12-12.14,5.74-16.9,10.86l-8.21,10.63c-4.75,8.19-7.14,17.02-7.17,26.5.63,4.65,1.25,9.3,1.88,13.96,2.49,8.89,6.99,16.62,13.5,23.17.77.92,1.52,1.85,2.26,2.8l-8.21-10.63c4.72,6.14,8.6,12.85,11.61,19.98-1.76-4.18-3.53-8.36-5.29-12.54,3.27,7.85,5.44,16.09,6.61,24.51l-1.88-13.96c1.35,10.07,1.27,20.25-.05,30.32.63-4.65,1.25-9.3,1.88-13.96-1.52,11.29-4.56,22.31-8.95,32.81l5.29-12.54c-4.32,10.23-9.9,19.9-16.66,28.71,2.74-3.54,5.47-7.08,8.21-10.63-6.13,7.92-13.17,15.09-21.1,21.22,3.54-2.74,7.08-5.47,10.63-8.21-7.5,5.75-15.62,10.68-24.33,14.39l12.54-5.29c-6.71,2.8-13.69,4.83-20.9,5.81l13.96-1.88c-5.79.73-11.59.74-17.37,0l13.96,1.88c-6.67-.92-13.12-2.79-19.32-5.39l12.54,5.29c-9.57-4.09-18.33-9.76-26.55-16.1l10.63,8.21c-6.04-4.69-11.79-9.72-17.41-14.9s-11.37-10.17-16-16.14l8.21,10.63c-1.62-2.14-3.03-4.39-4.1-6.86l5.29,12.54c-.59-1.47-1.03-2.96-1.29-4.52.63,4.65,1.25,9.3,1.88,13.96-.21-1.59-.22-3.13-.01-4.72l-1.88,13.96.1-.6-95.96,12.54c1.84,3.26,3.5,6.61,4.96,10.06l-5.29-12.54c3.47,8.28,5.79,16.96,7.02,25.85l-1.88-13.96c1.29,9.66,1.28,19.43.02,29.1l1.88-13.96c-1.3,9.66-3.83,19.09-7.59,28.09l5.29-12.54c-3.43,8.09-7.82,15.71-13.17,22.68l8.21-10.63c-4.94,6.35-10.62,12.03-16.97,16.97l10.63-8.21c-7.08,5.45-14.84,9.92-23.06,13.4l12.54-5.29c-8.96,3.74-18.36,6.27-27.97,7.58l13.96-1.88c-9.62,1.26-19.35,1.29-28.96.03l13.96,1.88c-8.85-1.21-17.5-3.52-25.74-6.97l12.54,5.29c-8.92-3.8-17.15-8.95-24.81-14.86l10.63,8.21c-10.58-8.24-19.98-17.82-29.05-27.66-10.05-10.91-19.93-22-29.88-33-4.76-5.12-10.39-8.74-16.9-10.86-6.26-3.29-13-4.79-20.23-4.52-7.23-.27-13.97,1.23-20.23,4.52-6.51,2.12-12.14,5.74-16.9,10.86l-8.21,10.63c-4.75,8.19-7.14,17.02-7.17,26.5l1.88,13.96c2.49,8.89,6.99,16.62,13.5,23.17h0Z"/>
  <path class="cls-1" d="m547.49,1549.61c.4,39.19.8,78.38,1.21,117.58.4,38.99.8,77.98,1.2,116.98.23,22,.45,43.99.68,65.99-.27,7.23,1.23,13.97,4.52,20.23,2.12,6.51,5.74,12.14,10.86,16.9,4.76,5.12,10.39,8.74,16.9,10.86,6.26,3.29,13,4.79,20.23,4.52l13.96-1.88c8.89-2.49,16.62-6.99,23.17-13.5l8.21-10.63c4.75-8.19,7.14-17.02,7.17-26.5-.4-39.19-.8-78.38-1.21-117.58-.4-38.99-.8-77.98-1.2-116.98-.23-22-.45-43.99-.68-65.99.27-7.23-1.23-13.97-4.52-20.23-2.12-6.51-5.74-12.14-10.86-16.9-4.76-5.12-10.39-8.74-16.9-10.86-6.26-3.29-13-4.79-20.23-4.52l-13.96,1.88c-8.89,2.49-16.62,6.99-23.17,13.5l-8.21,10.63c-4.75,8.19-7.14,17.02-7.17,26.5h0Z"/>
</svg>