<?xml version="1.0" encoding="UTF-8"?>
<svg id="Layer_1" data-name="Layer 1" xmlns="http://www.w3.org/2000/svg" viewBox="0 0 2992.57 1375.97">
  <defs>
    <style>
      .cls-1 {
        fill: #f9e961;
        opacity: .75;
      }

      .cls-1, .cls-2, .cls-3, .cls-4, .cls-5 {
        stroke-width: 0px;
      }

      .cls-2 {
        fill: #ffab21;
      }

      .cls-3 {
        fill: #d9b640;
      }

      .cls-4 {
        fill: #efc800;
      }

      .cls-5 {
        opacity: .1;
      }
    </style>
  </defs>
  <path class="cls-3" d="m1422.34,71.12c458.31-79.95,526.96,538.59,152.02,598.84-453.66,72.9-509.27-536.52-152.02-598.84Z"/>
  <path class="cls-4" d="m658.31,877.51c-.04.33-.08.67-.12,1-304.56,10.35-419.66-49.71-611.67,151.49-18.3,19.18-22.77,36.22-24.47,37.88-5.21,5.07-7,5.39-8.16,6.31-64.45,331.76,103.12,280.25,342.54,284.06,509.92,8.09,1023.1,1.54,1533.28,0,140.22-.43,958.35,9.38,1007.23,0,108.31-20.81,103.79-188.92,85.63-252.5-4.94-17.3-7.54-27.18-16.31-44.18-23.63-45.82-41.98-56.76-81.56-88.38-9.63-7.7-35.87-35.32-40.77-37.87-139.09-72.48-324.5-51.2-481.19-56.81-15.88-.57-33.7,1.6-48.94,0,13.49-188.39-118.31-400.52-367-454.49-32.72-63.24,27.87-135.25-81.56-255.65l-89.71-97.84C1536.23-58.85,1243.68-2.77,1098.6,177.84c-23.67,29.46-25.65,39.83-40.78,69.43-11.62,45.5-5.09,87.05,0,132.56,1.63,14.55,6.31,26.48,8.16,44.19-112.16,21.75-228.93,62.24-285.45,145.18l-44.69,76.09c-41.78,71.14-67.8,150.29-77.53,232.22ZM1357.52,172.53c159.97-91.16,360.52-21.38,388.29,117.28,43.8,218.76-208.93,313.22-391.45,239.44-161.72-65.36-130.3-280.68,3.16-356.72Z"/>
  <path class="cls-2" d="m15.99,1242.37c991.89,19.13,1985.71-14.79,2976.29,15.78-23.05,33.96-34.62,99.43-94.16,110.47-135.34,25.08-2411.56-24.1-2783.87,0-77.01-20.56-118.31-113.16-98.25-126.25Z"/>
  <path class="cls-1" d="m1965,732.19l-201.96-80.46c-70.3-28.01-100.11-94.09-54.14-120.06l117.59-66.43c44.17-24.96,128.23,4.71,157.44,55.57l84.38,146.89c32.69,56.92-27.69,94.61-103.3,64.49Z"/>
  <ellipse class="cls-1" cx="2163.28" cy="827" rx="71" ry="95" transform="translate(116.05 1909.85) rotate(-48.8)"/>
  <path class="cls-5" d="m1582.6,427.04c-7.59,7.82-30.18-1.79-50.45-21.47l-36.36-35.29-36.75,33.94c-20.76,19.17-43.58,28.22-50.97,20.21-7.39-8.01,3.44-30.03,24.19-49.2l35.17-32.47-34.84-33.81c-20.28-19.68-30.56-41.97-22.97-49.79,7.59-7.82,30.18,1.79,50.45,21.47l36.39,35.32,37.73-34.84c20.76-19.17,43.57-28.21,50.97-20.21,7.39,8.01-3.44,30.04-24.2,49.2l-36.14,33.37,34.81,33.78c20.28,19.68,30.56,41.96,22.97,49.79Z"/>
</svg>