<?xml version="1.0" encoding="UTF-8"?>
<svg id="Layer_1" data-name="Layer 1" xmlns="http://www.w3.org/2000/svg" viewBox="0 0 5995 2443.52">
  <defs>
    <style>
      .cls-1 {
        fill: #faf7c7;
      }

      .cls-1, .cls-2 {
        stroke: #000;
        stroke-miterlimit: 10;
        stroke-width: 70px;
      }

      .cls-2 {
        fill: #25284b;
      }
    </style>
  </defs>
  <rect class="cls-1" x="35" y="35" width="5925" height="2373.52" rx="361.83" ry="361.83"/>
  <path class="cls-2" d="m3859.18,1959.49c-30.18,43.19-20.56,45.02-22.06,46.87-152.07,187.41-445.71,128.66-650.71,124.99-20.14-153.6-10.86-313.62-11.03-468.72-.2-187.66-11.08-1233.89,0-1296.8,2.42-13.71-5.35-38.79,5.51-46.87,241.54,39.35,648.71-159.59,689.31,335.92,27.78,339.03-117.04,504.43-110.29,531.22,10.29,40.81,226.07-3,99.26,773.39Z"/>
  <path class="cls-2" d="m5458,430.12c13.78,29.44,118.34,228.56,127.22,236.86-13.29,487.37,155.06,1412.07-300.69,1484.33-109.91,17.42-332.04-.65-451.04-15.79V327.48c211.38-5.61,435.29-56.99,624.52,102.64Z"/>
  <path class="cls-2" d="m4706.31,2146.55c-100.81-4.19-219.66,19.46-257.23-23.7-211.06-697.79-203.46-801.15-198.77,0q-128.61,3.95-257.23,7.9V321.46c117.83,2.2,454.12-29.49,531.99-7.9,266.3,73.83,254.42,1021.61,52.61,1208.83,47.63,194.59,214.85,655.42,128.61,624.16Z"/>
  <path class="cls-2" d="m2581.21,378.1c63.77-73.36,82.46-57.79,116.17-63.04,36.2-5.64,249.71-10.47,261.37,23.64q-210.55,449.17-421.1,898.34c-1.61,37.85,59.47,129.97,72.6,165.48,88.75,239.9,221.09,459.85,290.42,709.22-103.74-3-220.28,34.75-326.72,15.76-322.95-619.18-264.21-774.44-268.63-7.88q-152.47,3.94-304.94,7.88c-7.91-581.34-33.05-1168.39-29.04-1749.4.02-3.25,10.38,19.24,14.52-63.04q166.99,11.82,333.98,23.64-3.63,295.51-7.26,591.01c54.47-104.26,223.09-499.22,268.63-551.61Z"/>
  <path class="cls-2" d="m1920.52,2078.12c-2.19.57,7.84,24.97-20.1,46.87-216.56,2.84-433.36-3.83-649.9,0-22.67-49.93-12.9-115.44-13.4-171.85-4.76-538.86,3.55-1078.02,0-1616.91q130.65-3.91,261.3-7.81,10.05,683.48,20.1,1366.95,190.95,3.91,381.9,7.81,10.05,187.47,20.1,374.94Z"/>
  <path class="cls-2" d="m835.65,1705.77c8.15,1.91,18.12-1.36,26.59,0,85.44,13.72,260.6-26.17,279.21,23.73v387.63c-30.21,22.25-322.73,23.97-372.28,15.82-42.78-7.04-116.36-36.42-152.9-63.29-257.01-188.96-241.04-970.83-206.09-1289.47,50.89-463.92,403.08-525.19,731.27-443.01v348.08c-600.58-33.96-387.2,400.64-425.47,933.48,29.88,43.11,74.05,76.35,119.66,87.02Z"/>
</svg>