<?xml version="1.0" encoding="UTF-8"?>
<svg id="Layer_1" data-name="Layer 1" xmlns="http://www.w3.org/2000/svg" viewBox="0 0 2996 3000.08">
  <defs>
    <style>
      .cls-1 {
        fill: #f9e961;
      }

      .cls-1, .cls-2, .cls-3, .cls-4, .cls-5, .cls-6 {
        stroke-width: 0px;
      }

      .cls-7 {
        stroke: #ff9e21;
        stroke-miterlimit: 10;
        stroke-width: 80px;
      }

      .cls-7, .cls-4 {
        fill: #efc800;
      }

      .cls-2 {
        fill: #faf7c7;
      }

      .cls-3 {
        fill: #ff9e21;
      }

      .cls-5 {
        fill: #25284b;
      }

      .cls-6 {
        fill: #feee36;
      }
    </style>
  </defs>
  <rect class="cls-5" y="260.01" width="2996" height="2626" rx="361.83" ry="361.83"/>
  <rect class="cls-2" x="158.03" y="434.01" width="2675.45" height="2276" rx="361.83" ry="361.83"/>
  <path class="cls-5" d="m925.21,2154.49c11.51,2.03,25.59-1.45,37.55,0,120.63,14.58,367.97-27.8,394.24,25.21v411.76c-42.66,23.64-455.69,25.46-525.65,16.81-60.41-7.48-164.29-38.69-215.89-67.23-362.9-200.72-340.34-1031.24-290.99-1369.72,71.86-492.79,569.13-557.87,1032.54-470.58v369.74c-848.01-36.08-546.72,425.58-600.75,991.57,42.19,45.79,104.56,81.1,168.96,92.43Z"/>
  <path class="cls-5" d="m2499.13,1614.11c-10.68-27.97,218.29-200.65,174.37-554.59-64.19-517.3-707.95-309.61-1089.83-350.69-17.18,8.44-4.9,34.62-8.72,48.93-17.52,65.68-.32,1157.93,0,1353.84.26,161.92-14.41,328.98,17.44,489.34,324.11,3.83,788.38,65.16,1028.8-130.49,2.37-1.93-12.84-3.85,34.87-48.93,200.48-810.54-140.67-764.81-156.94-807.41Zm-335.1,669.33c-74.08,4.27-223.81-.16-304.02-3.87v-442.64c142.48-1.37,293.41-13.95,420.96,25.13,9.29,7.21,79.77,55.96,85.75,57.99-8.96,119.32,104.52,345.7-202.68,363.39Zm0-896.21c-74.08,4.27-223.81-.16-304.02-3.87v-442.64c142.48-1.37,293.41-13.95,420.96,25.13,9.29,7.21,79.77,55.96,85.75,57.99-8.96,119.32,104.52,345.7-202.68,363.39Z"/>
  <polygon class="cls-7" points="2780.33 2936.02 2555.92 2709.65 2423 2910.01 2154.79 2117.39 2896 2490.01 2667 2604.01 2898 2795.01 2780.33 2936.02"/>
  <path class="cls-3" d="m1646.3,38.47v13.77c-155.85-71.07-377.93-.18-425.55,44.76h-27.28c97.05-98.5,292.75-129.09,452.83-58.53Z"/>
  <path class="cls-4" d="m1220.75,96.99c-41.02,38.71-14.21,107.2-54.56,110.17-3.41-24.82-7.78-47.48,0-72.3,10.12-16.15,11.44-21.8,27.28-37.87h27.28Z"/>
  <path class="cls-1" d="m898.86,479.14c-22.83,13.38-258.38-20.88-316.43,49.92-28.93,35.28,25.16,58.04-92.75,32.71,128.45-109.74,205.45-76.98,409.18-82.63Z"/>
  <path class="cls-1" d="m2361,510.12c3.28,1.39,20.83,16.46,27.28,20.66-8.58,15.63-19.89,41.65-57.29,37.87-65.64-6.63-4.07-58.49-27.28-68.86-44.73-19.97-206.89-13.84-264.6-20.66,104.82,3.06,228.85-8.55,321.89,30.98Z"/>
  <path class="cls-6" d="m1171.65,231.26c.05.35,8.92-1.25,10.91,1.72-2.69,14.61-197.52,94.54-201.86,77.46,37.81-45.23,115.92-67.32,190.95-79.18Z"/>
  <path class="cls-4" d="m1646.3,52.24c3.52,1.6,56.83,36.74,60.01,39.59,73.2,65.66,32.67,104.94,54.56,139.43,15.5,24.43,141.18,75.35,190.95,132.55,3.12,3.59,13.74-.12,16.37,3.44,43.1,58.55.66,108.68,38.19,111.89,10.19.87,22.12-.31,32.73,0,57.71,6.82,219.87.68,264.6,20.66,23.21,10.36-38.37,62.22,27.28,68.86,37.39,3.78,48.71-22.24,57.29-37.87,26.47,17.24,38.75,23.21,54.56,48.2,5.87,9.28,7.6,14.66,10.91,24.1,12.15,34.68,15.17,126.36-57.29,137.71-32.7,5.12-579.98-.23-673.79,0-341.28.84-684.57,4.42-1025.68,0-160.16-2.07-272.26,26.02-229.14-154.92.78-.5,1.97-.68,5.46-3.44,1.14-.9,4.13-10.2,16.37-20.66,117.91,25.33,63.82,2.57,92.75-32.71,58.05-70.8,293.61-36.54,316.43-49.92,2.79-18.2-1.35-36.88,0-55.08.16-2.14,5.33-2.96,5.46-13.77.01-1.05,8.62,2.31,5.46-20.66,37.83-25.62,30.99-42.37,32.73-44.76,6.94-9.49,19.46-17.54,27.28-27.54,1.92-2.46,3.34-4.36,5.46-6.89h5.46c4.34,17.08,199.18-62.86,201.86-77.46-1.99-2.97-10.87-1.37-10.91-1.72-1.24-9.66-4.37-16.16-5.46-24.1,40.34-2.97,13.54-71.45,54.56-110.17,47.62-44.94,269.7-115.83,425.55-44.76Z"/>
  <path class="cls-3" d="m470.58,665.05c660.92,10.43,1323.12-8.07,1983.17,8.61-15.36,18.52-23.07,54.23-62.74,60.25-90.18,13.68-1606.87-13.15-1854.96,0-51.32-11.22-78.83-61.72-65.47-68.86Z"/>
  <path class="cls-1" d="m1329.86,344.87c157.72,51.98,376.11-14.57,338.26-168.7,21.06,1.28-.91,31.49,32.73,56.81,2.08,58.24-75.45,117.17-160.94,135.99-114.27,25.15-268.11-5.38-210.05-24.1Z"/>
  <path class="cls-1" d="m2006.38,479.14c-37.53-3.21,4.91-53.34-38.19-111.89-2.62-3.56-13.25.14-16.37-3.44-49.78-57.19-175.45-108.12-190.95-132.55,166.37,29.43,254.53,145.13,245.51,247.88Z"/>
  <path class="cls-5" d="m1668.12,176.18c37.85,154.12-180.53,220.67-338.26,168.7-139.75-46.05-112.59-197.75,2.73-251.32,138.23-64.22,311.54-15.06,335.53,82.63Z"/>
  <path class="cls-5" d="m1452.62,103.88c247.81-12.66,241.03,225.63-10.91,203.12-165.69-14.8-182.03-193.27,10.91-203.12Z"/>
  <path class="cls-2" d="m1436.25,162.4c98.69-11.95,113.47,80.51,32.73,89.51-97.69,10.9-109.66-80.2-32.73-89.51Z"/>
</svg>