<?xml version="1.0" encoding="UTF-8"?>
<svg id="Layer_1" data-name="Layer 1" xmlns="http://www.w3.org/2000/svg" viewBox="0 0 2156.2 2704">
  <defs>
    <style>
      .cls-1 {
        fill: #faf7c7;
      }

      .cls-1, .cls-2 {
        stroke-width: 0px;
      }

      .cls-3 {
        opacity: .35;
      }

      .cls-2 {
        fill: #acceac;
      }
    </style>
  </defs>
  <rect class="cls-1" width="2156.2" height="2704" rx="152.96" ry="152.96"/>
  <g class="cls-3">
    <path class="cls-2" d="m2044.24,2442.11c70.64.99,57.08,44.06-14.74,52.96-46.64,5.78-467.82,23.96-560.03,26.48-462.85,12.68-927.29-3.98-1390.26,0-12.82-4.83-15.22-45.66-4.91-48.55,566.6,3.69,1133.38,2.33,1699.75-13.24,71.38-1.96,232.03-18.19,270.19-17.65Z"/>
    <path class="cls-2" d="m2039.33,2278.8c20.25,2.42,23.81,24.35,17.19,37.52-6.36,12.65-270.58,18.33-307.04,19.86-556.15,23.34-1116.16,6.1-1672.74,2.21q3.68-18.76,7.37-37.52c335.6,2.44,671.46,8.26,1007.08,4.41,150.36-1.73,901.11-32.11,948.13-26.48Z"/>
    <path class="cls-2" d="m2009.85,839.92c37.63,1.32,41.64,7.89,24.56,44.14-649.32,2.53-1298.74,12.42-1947.84-6.62q1.23-16.55,2.46-33.1,960.41-2.21,1920.82-4.41Z"/>
    <path class="cls-2" d="m89.03,345.58q975.15,2.21,1950.3,4.41,1.23,18.76,2.46,37.52c-650.98,17.35-1301.96,1.3-1952.75-11.03v-30.9Z"/>
    <path class="cls-2" d="m1577.55,1788.87c55.84-.52,438.21-11.83,456.87,0,4.49,2.84,5.65,30.61-4.91,35.31-650.9,3.48-1301.81,26.98-1952.75,6.62q3.68-16.55,7.37-33.1c428.99-2.33,858.12,3.11,1287.1,0,67.93-.49,138.39-8.19,206.33-8.83Z"/>
    <path class="cls-2" d="m1783.87,522.13c33.74-.14,239.09-4.56,250.54,0,10.71,4.27,10.71,26.63,0,30.9-650.78,20.8-1301.88,21.78-1952.75,2.21l2.46-28.69c566.62,3.04,1133.16-2.09,1699.75-4.41Z"/>
    <path class="cls-2" d="m89.03,1475.5h1945.38q1.23,16.55,2.46,33.1c-649.12,16.54-1298.67,6.01-1947.84-2.21v-30.9Z"/>
    <path class="cls-2" d="m89.03,1012.05c19.06-12.11,409.38,8.29,466.7,8.83,492.78,4.66,985.91-1.74,1478.69-4.41,9.42,4.28,9.57,28.69,7.37,33.1-7.49,15.01-325.24,10.49-365.99,11.03-529.31,7.05-1062.29-2.39-1589.22-28.69,1.01-5.45-2.62-16.63,2.46-19.86Z"/>
    <path class="cls-2" d="m2029.5,1616.74c5.03,3,7.04,48.91-9.83,48.55-647.43,10.91-1295.64,17.11-1942.93-2.21q3.68-16.55,7.37-33.1c528.08,10.38,1058.64,24.68,1586.76,8.83,46.39-1.39,343.64-30.99,358.62-22.07Z"/>
    <path class="cls-2" d="m2034.42,1952.18c10.58,3.26,11.32,35.21,0,39.72-650.97-1.22-1301.8,21.05-1952.75,2.21l2.46-28.69c479.73-3.23,959.69,4.32,1439.39,0,68.41-.62,486.73-20.69,510.91-13.24Z"/>
    <path class="cls-2" d="m1995.12,2115.49c44.38.93,54.24-.84,44.21,44.14-654.06,13.76-1308.39,22.87-1962.58,6.62q1.23-12.14,2.46-24.28c638.66-4.27,1278.47,14.31,1915.91-26.48Z"/>
    <path class="cls-2" d="m84.12,1312.19c648.1,26.64,1296.84,15.34,1945.38,17.65q3.68,14.34,7.37,28.69c-649.25,19.53-1298.67-4.84-1947.84-11.03q-2.46-17.65-4.91-35.31Z"/>
    <path class="cls-2" d="m84.12,1170.95c648.25,22.3,1296.79,17.74,1945.38,17.65q3.68,14.34,7.37,28.69c-649.2,17.16-1298.93-1.4-1947.84-15.45q-2.46-15.45-4.91-30.9Z"/>
    <path class="cls-2" d="m79.21,177.86c652.88,30.83,1306.64,23.26,1960.12,17.65q3.68,12.14,7.37,24.28c-654.11,25.61-1308.55,10.49-1962.58-6.62q-2.46-17.65-4.91-35.31Z"/>
    <path class="cls-2" d="m1970.55,667.78c46.01,1.11,92.66-13.37,63.86,44.14-650.93,8.82-1301.8,20-1952.75,11.03l2.46-28.69c628.81-6.77,1258.89,19.01,1886.43-26.48Z"/>
  </g>
</svg>