<?xml version="1.0" encoding="UTF-8"?>
<svg id="Layer_1" data-name="Layer 1" xmlns="http://www.w3.org/2000/svg" viewBox="0 0 2983.3 2843.62">
  <defs>
    <style>
      .cls-1 {
        opacity: .5;
      }

      .cls-2 {
        fill: #1a1a1a;
      }

      .cls-2, .cls-3, .cls-4, .cls-5 {
        stroke-width: 0px;
      }

      .cls-6 {
        opacity: .8;
      }

      .cls-3 {
        fill: #333;
      }

      .cls-4 {
        fill: #fff;
      }

      .cls-7 {
        opacity: .6;
      }

      .cls-5 {
        fill: #f2f2f2;
      }
    </style>
  </defs>
  <path class="cls-2" d="m1391.08,50.43c-153.03.25-298.46,57.9-429.44,133.13-118.92,68.3-231.41,150.07-332.92,242.28-203.79,185.11-360.54,422.74-413.36,695.73-51.88,268.11-21.62,552.09,84.15,803.72,97.75,232.53,259.71,439.83,478.61,569.27,246.69,145.87,543.07,179.57,823.73,145.8,143.56-17.28,284.69-49.75,421.91-95.24,128.76-42.68,255.07-96.03,371.78-165.52,114.93-68.43,222.04-153.38,307.38-256.86,95.31-115.56,161.65-250.45,205.88-393.12,42.97-138.58,68.37-284.75,72.47-429.83,3.97-140.49-13.6-284.52-64.54-416.13-26.11-67.45-59.57-131.3-101.95-189.97-43.93-60.81-94.36-116.36-148.65-168.04-106.51-101.4-223.55-194.01-347.46-273.24C2066.94,91.41,1767.43-12.02,1465.65,19.18c-74.89,7.74-148.68,22.7-219.95,47.12-22.22,7.61-39.23,31.24-31.43,55.36,7.13,22.03,31.51,39.6,55.36,31.43,34.82-11.93,70.28-21.84,106.29-29.52,17.18-3.67,34.46-6.84,51.81-9.55,4.73-.74,9.47-1.44,14.22-2.11-8.35,1.16,7.22-.89,7.04-.87,9.52-1.15,19.05-2.16,28.6-3.03,73.46-6.71,147.59-5.3,220.85,3.08,4,.46,7.99.94,11.98,1.44,1.6.2,11.7,1.56,4.79.6,9.57,1.32,19.11,2.79,28.64,4.36,19.07,3.14,38.06,6.74,56.95,10.78,34.62,7.41,68.92,16.32,102.79,26.63,34.45,10.49,68.45,22.47,101.94,35.7,8.58,3.39,17.14,6.86,25.66,10.42-5.9-2.47,1.21.52,2,.86,4.24,1.83,8.47,3.66,12.7,5.51,16.89,7.43,33.64,15.17,50.25,23.21,63.77,30.86,125.42,66.04,184.9,104.49,56.78,36.71,116.02,79.69,163.71,117.63,55.61,44.24,109.77,90.59,161.11,139.74,25.7,24.61,50.63,50.04,74.32,76.6,11.3,12.66,22.32,25.58,33,38.77,11.61,14.34,17.03,21.44,29.27,38.77,19.7,27.9,37.7,56.98,53.63,87.19,7.23,13.71,14.05,27.64,20.46,41.75,1.83,4.02,3.6,8.07,5.38,12.12,5.84,13.22-3.04-7.89,2.32,5.53,3.28,8.2,6.54,16.39,9.62,24.67,23.67,63.6,39.57,130.02,48.87,197.21-1.3-9.39.63,5.15.7,5.7.36,2.95.71,5.9,1.04,8.86,1.01,8.87,1.91,17.75,2.7,26.65,1.59,17.84,2.75,35.71,3.52,53.6,1.47,34.44,1.47,68.94.14,103.39-1.3,33.79-3.86,67.53-7.54,101.15-.9,8.21-1.87,16.42-2.9,24.61-.06.45-2.03,15.13-.75,5.89-.41,2.97-.83,5.94-1.25,8.91-2.55,17.78-5.41,35.52-8.55,53.21-12.45,70.14-29.07,139.66-50.61,207.57-10.85,34.19-22.99,67.98-36.59,101.17-4.31,10.51-10.67,25.02-17.92,40.56-7.89,16.9-16.19,33.6-24.93,50.07-16.02,30.19-33.51,59.6-52.55,87.99-9.23,13.75-18.82,27.26-28.77,40.5-.32.43-8.85,11.5-3.28,4.36-2.6,3.34-5.24,6.66-7.89,9.96-5.29,6.6-10.68,13.12-16.14,19.58-41.8,49.33-88.56,94.34-138.76,135.06-5.47,4.43-10.98,8.8-16.51,13.15-10.93,8.58,6.85-5.04-4.28,3.28-3.39,2.53-6.75,5.09-10.15,7.61-13.6,10.1-27.42,19.91-41.42,29.45-26.95,18.36-54.59,35.69-82.77,52.08-55.52,32.29-113.14,60.9-172.03,86.49-3.94,1.71-7.88,3.4-11.83,5.09-12.99,5.56,7.99-3.26-5.07,2.12-6.61,2.72-13.22,5.45-19.86,8.13-15.91,6.41-31.9,12.62-47.97,18.63-30.69,11.49-61.65,22.27-92.81,32.41-65.15,21.21-131.23,39.62-198.05,54.78-33.35,7.57-66.89,14.33-100.58,20.21-16.47,2.87-32.97,5.54-49.51,7.99-4.51.67-9.02,1.29-13.53,1.95-14.81,2.16,8.74-1.07-6.09.84-9.03,1.16-18.06,2.29-27.11,3.33-68.98,7.95-138.45,11.93-207.89,11.11-34.41-.41-68.82-1.99-103.11-4.88-16.33-1.38-32.63-3.04-48.9-5.01-2.95-.36-5.9-.74-8.86-1.1-14.55-1.81,8.78,1.37-5.71-.78-9.55-1.42-19.09-2.83-28.61-4.4-66.45-11.01-132.04-27.41-195.58-49.81-15.38-5.42-30.64-11.19-45.76-17.32-.2-.08-13.73-5.66-5.72-2.3-4.11-1.73-8.2-3.52-12.29-5.31-8.18-3.6-16.32-7.31-24.4-11.12-29.31-13.82-57.98-29.03-85.81-45.64-25.81-15.4-50.91-31.98-75.21-49.66-5.27-3.83-10.5-7.71-15.69-11.64-.93-.7-11.16-8.69-3.28-2.49-3.07-2.41-6.14-4.83-9.19-7.26-11.68-9.34-23.15-18.95-34.42-28.79-44.59-38.96-85.86-81.69-123.55-127.35-4.98-6.04-9.9-12.12-14.76-18.26-1.62-2.05-3.23-4.1-4.84-6.16-8.02-10.23,5.26,7.12-2.52-3.31-9.39-12.58-18.72-25.17-27.7-38.04-17.26-24.72-33.59-50.1-48.97-76.03-15.44-26.03-29.93-52.63-43.47-79.7-6.49-12.98-12.76-26.07-18.82-39.26-2.75-6-5.46-12.03-8.13-18.07-1.6-3.63-3.16-7.27-4.75-10.9-4.27-9.76,2.06,5.14-1.64-3.86-23.2-56.4-42.92-114.1-58.54-173.05-7.81-29.49-14.64-59.23-20.47-89.18-2.79-14.31-5.35-28.67-7.68-43.06-1.06-6.54-2.07-13.09-3.03-19.64-.58-3.93-1.13-7.87-1.68-11.8,1.53,10.88-.74-5.85-.97-7.73-7.66-62.1-10.91-124.68-10.02-187.24,1.11-78.03,7.83-148.78,22.27-221.75,14.06-71.04,34.87-140.57,62.58-207.48-3.14,7.58.37-.87,1.18-2.73,1.38-3.2,2.78-6.39,4.19-9.57,3.38-7.64,6.86-15.23,10.42-22.79,7.11-15.1,14.56-30.03,22.33-44.8,14.25-27.06,29.58-53.55,45.88-79.42,17.08-27.1,35.22-53.52,54.29-79.25,2.49-3.36,5-6.71,7.53-10.05.39-.51,8.79-11.47,3.15-4.19,4.28-5.52,8.61-11,12.97-16.45,10.5-13.1,21.23-26.01,32.19-38.73,42.21-48.99,87.71-95.13,135.69-138.47,23.56-21.29,47.72-41.91,72.4-61.89,6.04-4.89,12.1-9.73,18.2-14.54,3.33-2.62,6.66-5.23,10-7.83-6.13,4.77,1.12-.86,2.63-2.01,12.89-9.86,25.91-19.55,39.04-29.07,54.47-39.5,110.93-76.5,169.29-110.01,31.43-18.05,63.5-35.01,96.35-50.35,31.06-14.51,57.71-25.41,93.9-37.29,32.44-10.65,65.56-19.29,99.18-25.28,28.2-5.02,59.37-7.87,94.59-7.93,23.54-.04,46.09-20.67,45-45-1.09-24.35-19.77-45.04-45-45h0Z"/>
  <path class="cls-2" d="m1248.36,53.26c-162.14.29-315.48,64.48-452.46,146.75-125.38,75.3-243.72,164.84-349.52,265.85-103.53,98.85-195.85,211.09-268.23,334.78-78.13,133.52-131.33,280.53-156.13,433.23-47.62,293.19-8.98,596.64,108.99,869.01,106.28,245.36,284.57,465.29,520.83,595.27,272.97,150.18,593.11,170.76,895.79,121.74,147.47-23.88,292.38-64.36,431.91-117.58,135.04-51.51,266.24-115.16,384.67-198.51,59.05-41.56,115.34-87.43,166.54-138.4,53.29-53.04,99.44-111.8,142.14-173.56,91.49-132.32,178.81-271.57,228.24-425.77,23.73-74.02,35.74-152.07,49.26-228.47,15.15-85.54,27.73-171.96,31.58-258.83,7.35-165.69-27.1-327.17-101.49-475.44-69.72-138.97-181.63-246.35-295.84-349.09-116.58-104.87-243.34-193.37-383.33-264.29-70.11-35.52-142.28-66.97-215.43-95.69-70.15-27.54-140.87-53.43-214.77-69-153.39-32.33-312.07-32.27-466.5-7.45-70.38,11.31-139.77,28.56-206.96,52.41-22.13,7.86-39.29,31.06-31.43,55.36,7.06,21.83,31.6,39.86,55.36,31.43,68.72-24.4,139.75-41.89,211.78-53.17,19.65-3.08,26.41-3.97,46.3-6.17,17.95-1.98,35.95-3.58,53.97-4.82,37.74-2.59,75.61-3.52,113.43-2.75s75.06,3.2,112.36,7.48c3.22.37,6.43.75,9.65,1.15-.3-.04,15.45,2.08,7.25.93,8.75,1.23,17.49,2.57,26.21,4.02,18.07,2.99,36.06,6.45,53.95,10.39,72.19,15.91,141.47,41.74,210.1,68.82,66.04,26.06,131.62,55.18,198.17,89.31,66.42,34.06,130.98,71.86,192.53,114.13,60.44,41.51,111.44,84.48,167.23,134.73,56.35,50.75,112.2,102.36,162.86,158.89,47.41,52.91,84.7,106.82,117.57,173.18,17.43,35.2,28.55,61.62,41.49,98.95,12.21,35.23,22.31,71.18,30.06,107.65,16.05,75.55,19.28,154.31,14.65,235.35-4.64,81.25-15.86,154.33-30.34,234.24-13.52,74.61-25.56,150.35-49.6,222.44-24.06,72.12-56.9,138.7-95.89,206.82-38.58,67.41-81.5,132.22-125.78,195.99-38.23,55.06-78.02,103.78-128.93,153.63-97.82,95.78-209.11,169.45-334.81,232.61-30.14,15.14-60.72,29.41-91.64,42.88-4.22,1.84-8.44,3.65-12.67,5.46-13.84,5.95,7.72-3.15-6.19,2.61-7.08,2.93-14.15,5.85-21.25,8.71-17.02,6.87-34.12,13.51-51.31,19.94-66.65,24.94-134.46,46.88-203.11,65.62-145.74,39.78-283.69,63.37-432.7,67.77-72.52,2.14-145.22-.64-217.26-9.35-4.77-.58-9.55-1.16-14.31-1.81,6.98.95-3.08-.47-4.69-.7-8.71-1.26-17.41-2.61-26.09-4.06-18.92-3.14-37.76-6.71-56.51-10.74-34.34-7.37-68.37-16.22-101.92-26.64-124.62-38.72-250.76-107.09-346.67-187.69-48.41-40.69-93.22-85.63-134.18-133.8-10.07-11.85-19.81-23.94-29.5-36.1-8.7-10.91,5.08,6.8-3.37-4.32-2.57-3.38-5.14-6.77-7.69-10.17-5.1-6.82-10.12-13.68-15.08-20.6-18.66-26.04-36.32-52.8-52.99-80.15-34.05-55.87-63.59-114.19-89.69-174.16-5.54-12.73,1.81,4.43-1.37-3.22-1.39-3.34-2.77-6.67-4.14-10.02-3.28-8.03-6.49-16.1-9.63-24.19-6.02-15.53-11.78-31.17-17.27-46.9-10.77-30.84-20.52-62.04-29.25-93.53-17.49-63.09-30.88-127.32-40.09-192.14-.1-.73-2-14.99-.75-5.33-.56-4.33-1.11-8.65-1.64-12.98-.88-7.21-1.7-14.44-2.47-21.66-1.86-17.33-3.41-34.69-4.66-52.07-2.5-34.71-3.75-69.5-3.84-104.29-.42-159.71,22.29-314.24,79.05-464.96,22.33-59.29,52.79-121.92,88.37-182,16.98-28.67,35.05-56.69,54.1-84.02,21.58-30.96,36.7-50.97,58.72-77.98,43.21-53.02,90-103.1,139.53-150.26,25.35-24.14,51.42-47.52,78.11-70.15,12.76-10.82,25.66-21.47,38.7-31.94,14.29-11.48,22.72-18.07,33.98-26.62,57.4-43.57,117.07-84.39,178.85-121.49,32.04-19.23,64.73-37.39,98.24-53.93,35.7-17.62,63.45-29.64,100.89-42.67,70.95-24.69,135.78-37.73,207.9-37.86,23.54-.04,46.09-20.67,45-45s-19.77-45.05-45-45h0Z"/>
  <g class="cls-1">
    <path class="cls-2" d="m1246.67,93.66c-175.57-.47-341.68,81.35-490.01,178.48C472.17,458.4,219.89,719.64,110.52,1048.93c-48.44,145.86-67.58,301.19-65.1,455.38,7.4,460.08,231.27,930.01,623.17,1148.01,361.68,201.2,807.09,166.49,1198.28,37.16,287.97-95.21,571.45-247.4,748.61-500.72,108.22-154.75,226.53-339.25,262.71-526.52,54.57-282.48,115.36-573.01-28-820-67.8-116.81-227.47-296.73-327-386-186.5-167.29-349.39-258.36-583-341-233.61-82.64-598.91-89.67-832.25-6.25"/>
    <path class="cls-2" d="m1246.67,48.66c-167.72.29-325.76,68.86-466.42,155.23-127.33,78.18-247.48,170.47-354.04,275.29-105.11,103.39-198.16,221.03-268.84,350.65-79.28,145.39-126.77,303.24-146.55,467.4-35.52,294.78,17.14,600.36,148.8,866.4,124.76,252.11,327.77,466.58,588.86,577.53,295.67,125.65,628.05,118.81,936.37,46.58,149.26-34.97,295.62-85.13,434.69-149.68,135.02-62.67,262.95-142.32,373.26-242.73,115.98-105.56,205.27-238.03,284.65-372.37,43.39-73.43,81.92-150.05,110.97-230.34,27.74-76.69,41.1-157.03,55.81-236.97,29.78-161.81,53.1-326.68,29.22-490.82-11.58-79.59-36.61-157.08-74.72-227.98-31.31-58.24-71.97-111.39-113.02-163-174.49-219.36-388.01-408.71-644.45-526.09-68.45-31.33-138.93-59.97-210.58-83.17-64.01-20.73-130.25-34.33-196.83-43.61-149.28-20.8-300.43-21.67-449.69-.16-63.89,9.21-127.28,23.19-188.18,44.79-22.13,7.85-39.29,31.07-31.43,55.36,7.07,21.83,31.6,39.85,55.36,31.43,60.9-21.6,124.29-35.57,188.18-44.79.83-.12,14.89-2.02,5.1-.74,4.3-.56,8.6-1.1,12.9-1.62,8.67-1.05,17.35-2.01,26.04-2.89,17.59-1.78,35.22-3.24,52.87-4.38,35.85-2.32,71.77-3.36,107.69-3.21,36.03.15,72.05,1.49,107.99,4.05,16.3,1.16,32.58,2.57,48.84,4.24,8.78.9,17.56,1.88,26.32,2.94,4.36.52,8.71,1.08,13.06,1.63,5.44.71,5.78.76,1.02.13,2.87.4,5.74.81,8.61,1.22,64.91,9.41,129.48,23.08,191.84,43.57,32.87,10.8,65.31,23.09,97.52,35.71,8.49,3.33,16.96,6.71,25.41,10.15,4.18,1.7,8.35,3.41,12.51,5.14.18.07,13.75,5.79,5.74,2.39,16.18,6.88,32.26,13.99,48.23,21.34,61.85,28.49,121.9,60.85,179.33,97.49,112.17,71.56,210.03,154.55,304.29,253.72,46.49,48.91,91.1,99.69,133.34,152.33,5.31,6.62,10.54,13.29,15.8,19.94,8.56,10.84-5.13-6.79,3.18,4.08,2.5,3.27,4.99,6.54,7.47,9.82,9.55,12.64,18.92,25.43,28.04,38.39,17.01,24.17,33.21,48.95,47.43,74.87,19.59,35.71,30.66,61.78,42.84,100.15,11.48,36.16,19.5,73.18,25.17,110.67,2.31,15.27-.83-8.54.9,6.82.53,4.72,1.1,9.43,1.59,14.15.9,8.67,1.66,17.36,2.29,26.06,1.45,19.88,2.22,39.81,2.42,59.75.39,38.86-1.41,77.72-4.71,116.44-6.64,78.06-18.63,149.4-33.55,229.66-14.26,76.71-27.38,153.47-53.98,227.08-13.79,38.16-27.05,68.12-45.5,105.36-18.2,36.74-38.06,72.64-59.01,107.89-40.5,68.15-84.41,134.78-131.03,198.9-11.22,15.44-14.07,19.16-26.02,33.87-12.28,15.11-25,29.87-38.11,44.27-24.11,26.47-49.55,51.71-76.12,75.71-53.64,48.46-101.27,83.91-163.92,123.68-60.19,38.21-123.16,71.96-187.81,101.97-16.36,7.6-32.83,14.95-49.4,22.08-.1.04-13.71,5.83-5.84,2.52-2.77,1.17-5.54,2.32-8.32,3.47-9.71,4.02-19.44,7.97-29.21,11.85-33.37,13.25-67.07,25.65-101.04,37.29-72.04,24.69-145.24,46.03-219.39,63.4-37.55,8.8-75.35,16.58-113.34,23.25-17.4,3.05-34.84,5.87-52.31,8.45-19.22,2.83-31.73,4.46-54.82,7-74.4,8.18-149.35,11.74-224.18,9.62-37.85-1.07-75.67-3.6-113.32-7.72-9.38-1.03-18.75-2.13-28.1-3.38,8.6,1.14-6.7-.98-6.71-.98-4.66-.68-9.31-1.38-13.97-2.11-18.58-2.92-37.11-6.25-55.54-10-36.82-7.5-73.3-16.7-109.24-27.68-17.24-5.27-34.36-10.96-51.32-17.05-8.13-2.92-16.22-5.94-24.28-9.05-4.4-1.7-8.79-3.43-13.17-5.19-1.55-.62-16.5-6.81-11.07-4.51-65.22-27.66-127.58-62.25-185.67-102.78-12.38-8.63-24.54-17.56-36.55-26.7,7.5,5.71-3.27-2.57-3.89-3.06-3.23-2.55-6.44-5.12-9.64-7.7-7.47-6.03-14.85-12.17-22.15-18.4-24.54-20.95-48.15-42.98-70.78-65.98s-44.44-47.14-65.16-72.03c-5.31-6.37-10.55-12.8-15.72-19.29-2.59-3.24-5.15-6.51-7.72-9.77-8.47-10.76,5.1,6.9-3.11-4.06-10-13.33-19.89-26.72-29.44-40.37-38.48-55.03-72.6-113.09-102.38-173.26-7.5-15.16-14.73-30.45-21.68-45.86-2.9-6.44-5.76-12.89-8.56-19.37-.26-.61-5.74-13.47-2.11-4.85-2.19-5.21-4.34-10.45-6.47-15.69-12.79-31.53-24.47-63.5-35.04-95.84-21.23-64.91-38.01-131.28-50.27-198.46-2.81-15.41-5.39-30.86-7.72-46.34-.64-4.22-1.26-8.45-1.86-12.67-.13-.9-1.99-14.89-.7-4.96-1.19-9.17-2.31-18.35-3.34-27.54-3.72-33.17-6.34-66.46-7.84-99.81-7.51-166.71,9.65-327.69,62.2-485.91,22.87-68.86,47.14-123.79,83.3-189.55,17.14-31.16,35.58-61.61,55.18-91.28,8.98-13.6,18.21-27.04,27.67-40.32,5.16-7.25,10.39-14.44,15.69-21.59,2.65-3.57,5.31-7.14,8-10.69,1.3-1.72,8.77-11.47,7.3-9.58,83.49-107.26,189.59-209.87,300.15-295.96-6.62,5.15,4.94-3.79,5.01-3.84,3.54-2.7,7.09-5.39,10.65-8.07,7.11-5.35,14.25-10.66,21.43-15.92,14.33-10.5,28.79-20.81,43.39-30.94,30.77-21.36,62.09-41.96,94.01-61.55,34.09-20.93,68.92-40.69,104.67-58.66,36.77-18.48,65.36-31.13,103.11-44.55,35.4-12.59,71.66-22.85,108.56-29.99,34.77-6.73,65.28-9.67,104.66-9.74,23.54-.04,46.09-20.67,45-45-1.09-24.35-19.77-45.04-45-45h0Z"/>
  </g>
  <g class="cls-6">
    <path class="cls-5" d="m1390.87,95.91c-168.84-.44-328.57,75.66-471.22,165.99-273.57,173.23-516.19,416.19-621.36,722.44-46.59,135.65-64.99,280.11-62.6,423.52,7.11,427.89,222.4,864.93,599.27,1067.68,347.81,187.12,776.14,154.84,1152.33,34.56,276.93-88.54,549.54-230.09,719.91-465.69,104.07-143.92,164.39-315.59,199.18-489.76,52.48-262.71,45.46-550.22-92.4-779.93-65.2-108.64-156.46-199.23-252.17-282.26-179.35-155.58-380.56-290.29-605.21-367.14-224.65-76.85-474.74-92.74-699.13-15.15"/>
    <path class="cls-2" d="m1390.87,50.91c-153.03.25-298.46,57.9-429.44,133.13-118.92,68.3-231.41,150.07-332.92,242.28-203.79,185.11-360.54,422.74-413.36,695.73-51.88,268.11-21.62,552.09,84.15,803.72,97.75,232.53,259.71,439.83,478.61,569.27,246.69,145.87,543.07,179.57,823.73,145.8,143.56-17.28,284.69-49.75,421.91-95.24,128.76-42.68,255.07-96.03,371.78-165.52,114.93-68.43,222.04-153.38,307.38-256.86,95.31-115.56,161.65-250.45,205.88-393.12,42.97-138.58,68.37-284.75,72.47-429.83,3.97-140.49-13.6-284.52-64.54-416.13-26.11-67.45-59.57-131.3-101.95-189.97-43.93-60.81-94.36-116.36-148.65-168.04-106.51-101.4-223.55-194.01-347.46-273.24C2066.73,91.89,1767.23-11.54,1465.45,19.66c-74.89,7.74-148.68,22.7-219.95,47.12-22.22,7.61-39.23,31.24-31.43,55.36,7.13,22.03,31.51,39.6,55.36,31.43,34.82-11.93,70.28-21.84,106.29-29.52,17.18-3.67,34.46-6.84,51.81-9.55,4.73-.74,9.47-1.44,14.22-2.11-8.35,1.16,7.22-.89,7.04-.87,9.52-1.15,19.05-2.16,28.6-3.03,73.46-6.71,147.59-5.3,220.85,3.08,4,.46,7.99.94,11.98,1.44,1.6.2,11.7,1.56,4.79.6,9.57,1.32,19.11,2.79,28.64,4.36,19.07,3.14,38.06,6.74,56.95,10.78,34.62,7.41,68.92,16.32,102.79,26.63,34.45,10.49,68.45,22.47,101.94,35.7,8.58,3.39,17.14,6.86,25.66,10.42-5.9-2.47,1.21.52,2,.86,4.24,1.83,8.47,3.66,12.7,5.51,16.89,7.43,33.64,15.17,50.25,23.21,63.77,30.86,125.42,66.04,184.9,104.49,56.78,36.71,116.02,79.69,163.71,117.63,55.61,44.24,109.77,90.59,161.11,139.74,25.7,24.61,50.63,50.04,74.32,76.6,11.3,12.66,22.32,25.58,33,38.77,11.61,14.34,17.03,21.44,29.27,38.77,19.7,27.9,37.7,56.98,53.63,87.19,7.23,13.71,14.05,27.64,20.46,41.75,1.83,4.02,3.6,8.07,5.38,12.12,5.84,13.22-3.04-7.89,2.32,5.53,3.28,8.2,6.54,16.39,9.62,24.67,23.67,63.6,39.57,130.02,48.87,197.21-1.3-9.39.63,5.15.7,5.7.36,2.95.71,5.9,1.04,8.86,1.01,8.87,1.91,17.75,2.7,26.65,1.59,17.84,2.75,35.71,3.52,53.6,1.47,34.44,1.47,68.94.14,103.39-1.3,33.79-3.86,67.53-7.54,101.15-.9,8.21-1.87,16.42-2.9,24.61-.06.45-2.03,15.13-.75,5.89-.41,2.97-.83,5.94-1.25,8.91-2.55,17.78-5.41,35.52-8.55,53.21-12.45,70.14-29.07,139.66-50.61,207.57-10.85,34.19-22.99,67.98-36.59,101.17-4.31,10.51-10.67,25.02-17.92,40.56-7.89,16.9-16.19,33.6-24.93,50.07-16.02,30.19-33.51,59.6-52.55,87.99-9.23,13.75-18.82,27.26-28.77,40.5-.32.43-8.85,11.5-3.28,4.36-2.6,3.34-5.24,6.66-7.89,9.96-5.29,6.6-10.68,13.12-16.14,19.58-41.8,49.33-88.56,94.34-138.76,135.06-5.47,4.43-10.98,8.8-16.51,13.15-10.93,8.58,6.85-5.04-4.28,3.28-3.39,2.53-6.75,5.09-10.15,7.61-13.6,10.1-27.42,19.91-41.42,29.45-26.95,18.36-54.59,35.69-82.77,52.08-55.52,32.29-113.14,60.9-172.03,86.49-3.94,1.71-7.88,3.4-11.83,5.09-12.99,5.56,7.99-3.26-5.07,2.12-6.61,2.72-13.22,5.45-19.86,8.13-15.91,6.41-31.9,12.62-47.97,18.63-30.69,11.49-61.65,22.27-92.81,32.41-65.15,21.21-131.23,39.62-198.05,54.78-33.35,7.57-66.89,14.33-100.58,20.21-16.47,2.87-32.97,5.54-49.51,7.99-4.51.67-9.02,1.29-13.53,1.95-14.81,2.16,8.74-1.07-6.09.84-9.03,1.16-18.06,2.29-27.11,3.33-68.98,7.95-138.45,11.93-207.89,11.11-34.41-.41-68.82-1.99-103.11-4.88-16.33-1.38-32.63-3.04-48.9-5.01-2.95-.36-5.9-.74-8.86-1.1-14.55-1.81,8.78,1.37-5.71-.78-9.55-1.42-19.09-2.83-28.61-4.4-66.45-11.01-132.04-27.41-195.58-49.81-15.38-5.42-30.64-11.19-45.76-17.32-.2-.08-13.73-5.66-5.72-2.3-4.11-1.73-8.2-3.52-12.29-5.31-8.18-3.6-16.32-7.31-24.4-11.12-29.31-13.82-57.98-29.03-85.81-45.64-25.81-15.4-50.91-31.98-75.21-49.66-5.27-3.83-10.5-7.71-15.69-11.64-.93-.7-11.16-8.69-3.28-2.49-3.07-2.41-6.14-4.83-9.19-7.26-11.68-9.34-23.15-18.95-34.42-28.79-44.59-38.96-85.86-81.69-123.55-127.35-4.98-6.04-9.9-12.12-14.76-18.26-1.62-2.05-3.23-4.1-4.84-6.16-8.02-10.23,5.26,7.12-2.52-3.31-9.39-12.58-18.72-25.17-27.7-38.04-17.26-24.72-33.59-50.1-48.97-76.03-15.44-26.03-29.93-52.63-43.47-79.7-6.49-12.98-12.76-26.07-18.82-39.26-2.75-6-5.46-12.03-8.13-18.07-1.6-3.63-3.16-7.27-4.75-10.9-4.27-9.76,2.06,5.14-1.64-3.86-23.2-56.4-42.92-114.1-58.54-173.05-7.81-29.49-14.64-59.23-20.47-89.18-2.79-14.31-5.35-28.67-7.68-43.06-1.06-6.54-2.07-13.09-3.03-19.64-.58-3.93-1.13-7.87-1.68-11.8,1.53,10.88-.74-5.85-.97-7.73-7.66-62.1-10.91-124.68-10.02-187.24,1.11-78.03,7.83-148.78,22.27-221.75,14.06-71.04,34.87-140.57,62.58-207.48-3.14,7.58.37-.87,1.18-2.73,1.38-3.2,2.78-6.39,4.19-9.57,3.38-7.64,6.86-15.23,10.42-22.79,7.11-15.1,14.56-30.03,22.33-44.8,14.25-27.06,29.58-53.55,45.88-79.42s35.22-53.52,54.29-79.25c2.49-3.36,5-6.71,7.53-10.05.39-.51,8.79-11.47,3.15-4.19,4.28-5.52,8.61-11,12.97-16.45,10.5-13.1,21.23-26.01,32.19-38.73,42.21-48.99,87.71-95.13,135.69-138.47,23.56-21.29,47.72-41.91,72.4-61.89,6.04-4.89,12.1-9.73,18.2-14.54,3.33-2.62,6.66-5.23,10-7.83-6.13,4.77,1.12-.86,2.63-2.01,12.89-9.86,25.91-19.55,39.04-29.07,54.47-39.5,110.93-76.5,169.29-110.01,31.43-18.05,63.5-35.01,96.35-50.35,31.06-14.51,57.71-25.41,93.9-37.29,32.44-10.65,65.56-19.29,99.18-25.28,28.2-5.02,59.37-7.87,94.59-7.93,23.54-.04,46.09-20.67,45-45-1.09-24.35-19.77-45.04-45-45h0Z"/>
  </g>
  <path class="cls-3" d="m760.56,618.84c8.91,39.69,18.24,79.28,28,118.76,9.76,39.48,19.94,78.85,30.54,118.11,10.55,39.06,21.51,78.01,32.89,116.84,11.43,39.01,23.28,77.89,35.55,116.64,12.26,38.74,24.94,77.35,38.04,115.82,1.63,4.78,3.26,9.57,4.91,14.35,3.82,11.14,10.3,20.82,20.68,26.89,5.17,3.29,10.74,5.07,16.73,5.34,5.98,1.34,11.96,1.07,17.94-.8,10.89-3.52,21.39-10.27,26.89-20.68,5.46-10.33,8.46-23.24,4.54-34.68-13.19-38.43-25.98-77-38.35-115.71s-24.33-77.57-35.86-116.54c-11.48-38.8-22.55-77.72-33.2-116.75-10.71-39.23-20.99-78.57-30.85-118.03-9.86-39.46-19.3-79.02-28.32-118.69-1.12-4.93-2.24-9.87-3.34-14.81-1.39-5.86-4.08-10.96-8.05-15.3-3.17-4.9-7.38-8.76-12.63-11.59-5.17-3.29-10.74-5.07-16.73-5.34-5.98-1.34-11.96-1.07-17.94.8-10.89,3.52-21.39,10.27-26.89,20.68l-4.54,10.75c-2.14,7.98-2.14,15.95,0,23.93h0Z"/>
  <path class="cls-3" d="m649.97,1038.39c50.17-24.4,100.4-48.7,151.35-71.43,14.44-6.44,28.94-12.75,43.51-18.9-3.58,1.51-7.17,3.02-10.75,4.54,37.88-15.97,76.23-30.86,115.22-43.92,38.66-12.95,77.94-24.1,117.8-32.68,22.31-4.8,44.8-8.77,67.42-11.82-3.99.54-7.98,1.07-11.96,1.61,25.81-3.45,51.77-5.68,77.8-6.54,11.77-.39,23.39-4.75,31.82-13.18,4.39-4.08,7.49-8.9,9.3-14.48,2.82-5.36,4.11-11.14,3.88-17.34-.52-11.64-4.34-23.71-13.18-31.82-8.64-7.93-19.78-13.58-31.82-13.18-42.98,1.41-85.9,6.55-128.19,14.22-38.69,7.02-76.89,16.61-114.49,28.08-38.06,11.61-75.53,25.12-112.49,39.87-40.31,16.08-80.14,33.42-119.58,51.54-36.19,16.63-72.07,33.91-107.89,51.31-4.4,2.14-8.79,4.27-13.19,6.41-5.24,2.83-9.45,6.69-12.63,11.59-3.98,4.35-6.66,9.45-8.05,15.3-1.88,5.98-2.14,11.96-.8,17.94.27,5.99,2.05,11.57,5.34,16.73,6.19,9.61,15.42,18.07,26.89,20.68,3.99.54,7.98,1.07,11.96,1.61,8.12-.03,15.69-2.07,22.71-6.14h0Z"/>
  <g class="cls-7">
    <path class="cls-4" d="m1650.02,941.17c-12.32-.9-24.33.67-36.52,2.54-4.17.64-8.31,1.53-12.37,2.68-7.57,2.15-14.73,5.37-21.95,8.47-11.11,4.77-20.58,11.86-29.87,19.58-3.13,2.6-6.06,5.44-8.7,8.53-3.63,4.24-7,8.72-10.3,13.22-1.17,1.6-2.28,3.24-3.31,4.93-4.03,6.57-6.81,13.83-9.72,20.93-1.47,3.59-2.68,7.28-3.56,11.05-.45,1.91-.81,3.85-1.09,5.79-.83,5.74-1.81,11.54-2.16,17.35-.23,3.82-.12,7.64.35,11.44.93,7.64,1.62,15.54,4.08,22.9.29.86.59,1.71.92,2.55.17.42.34.84.51,1.26,1.5,3.63,3.07,7.36,4.63,10.96.92,2.13,1.42,2.11,3.79,5.18l3.52,4.55c4.08,4.39,8.9,7.49,14.48,9.3,8.33,3.52,3.35,1.68,5.83,2.34,1.68.45,10.45,1.41,6.44.87,1.94.26,4.3.63,6.44.86.98.11,1.96.17,2.95.17s1.94-.05,2.91-.15c4.79-.52,9.66-1.04,14.39-1.98,1.91-.38,3.76-.96,5.56-1.68,5.14-2.05,10.61-4.02,15.43-6.87s9.3-6.7,13.7-10.18c3.24-2.56,6.12-5.51,8.69-8.75,4.86-6.12,9.8-12.11,13.37-19.07,3.83-7.47,6.95-15.33,9.97-23.16,1.66-4.31,3.2-8.67,4.84-12.99.83-2.2,1.69-4.38,2.6-6.55l-4.54,10.75c2.84-6.71,6.23-13.11,10.68-18.9l-7.04,9.11c3.84-4.92,8.26-9.31,13.18-13.14l-9.11,7.04c5.19-3.99,10.85-7.31,16.88-9.86l-10.75,4.54c5.32-2.22,10.86-3.81,16.56-4.73,5.86-1.39,10.96-4.08,15.3-8.05,4.9-3.17,8.76-7.38,11.59-12.63l4.54-10.75c1.88-5.98,2.14-11.96.8-17.94-.01-4.06-1.04-7.85-3.07-11.36-1.81-5.58-4.92-10.41-9.3-14.48-3.04-2.35-6.07-4.69-9.11-7.04-7.02-4.07-14.59-6.12-22.71-6.14-9.36.44-18.71.89-28.07,1.33v90c22.31-2.37,44.71-3.89,67.14-4.54,22.33-.64,44.68-.43,66.99.64,12.62.6,25.22,1.49,37.8,2.64-3.99-29.46-7.98-58.93-11.96-88.39-21.24,6.26-42.53,12.33-63.87,18.22s-42.74,11.59-64.18,17.1c-12.14,3.12-24.3,6.18-36.47,9.18,7.98,28.93,15.95,57.86,23.93,86.79,17.36-7.05,34.72-14.1,52.08-21.15,16.73-6.79,33.36-14.14,50.48-19.93,9.08-3.07,18.35-5.44,27.85-6.74l-11.96,1.61c12.24-1.63,24.64-1.59,36.87.04l-11.96-1.61c12.06,1.65,23.86,4.84,35.09,9.53l-10.75-4.54c5.44,2.3,10.73,4.94,15.83,7.92,5.17,3.29,10.74,5.07,16.73,5.34,5.98,1.34,11.96,1.07,17.94-.8l10.75-4.54c5.24-2.83,9.45-6.69,12.63-11.59,2.79-2.81,4.72-6.12,5.79-9.93,2.82-5.36,4.11-11.14,3.88-17.34-.54-3.99-1.07-7.98-1.61-11.96-2.14-7.62-6-14.24-11.57-19.86-2.04-2.19-4.07-4.38-6.11-6.58-4.08-4.39-8.9-7.49-14.48-9.3-5.36-2.82-11.14-4.11-17.34-3.88-6.2-.23-11.97,1.06-17.34,3.88-5.58,1.81-10.41,4.92-14.48,9.3l-7.04,9.11c-4.07,7.02-6.12,14.59-6.14,22.71.54,3.99,1.07,7.98,1.61,11.96,2.14,7.62,6,14.24,11.57,19.86,2.04,2.19,4.07,4.38,6.11,6.58,18.18-23.56,36.35-47.12,54.53-70.68-9.28-5.42-19.25-9.59-29.23-13.54-6.54-2.59-13.28-4.67-20.13-6.23-10.5-2.39-21.31-3.82-32.03-4.66-6.92-.54-13.89-.57-20.82-.07-7.38.54-14.75,1.63-22.05,2.72-3.43.51-6.85,1.16-10.23,1.94-7.61,1.75-15.06,4.17-22.39,6.88-14.98,5.53-29.68,11.83-44.47,17.83-17.17,6.97-34.35,13.94-51.52,20.92-5.86,1.39-10.96,4.08-15.3,8.05-4.9,3.17-8.76,7.38-11.59,12.63-3.29,5.17-5.07,10.74-5.34,16.73-1.34,5.98-1.07,11.96.8,17.94l4.54,10.75c4,6.76,9.38,12.14,16.14,16.14l10.75,4.54c7.98,2.14,15.95,2.14,23.93,0,21.5-5.3,42.95-10.79,64.35-16.46,21.4-5.68,42.75-11.54,64.05-17.58,12.06-3.42,24.1-6.91,36.13-10.45,5.86-1.39,10.96-4.08,15.3-8.05,4.9-3.17,8.76-7.38,11.59-12.63,1.51-3.58,3.02-7.17,4.54-10.75,1.88-5.98,2.14-11.96.8-17.94-.01-4.06-1.04-7.85-3.07-11.36-1.81-5.58-4.92-10.41-9.3-14.48l-9.11-7.04c-7.02-4.07-14.59-6.12-22.71-6.14-22.34-2.04-44.76-3.23-67.2-3.55s-44.68.22-66.97,1.62c-12.61.79-25.2,1.86-37.76,3.19-6.2-.23-11.97,1.06-17.34,3.88-5.58,1.81-10.41,4.92-14.48,9.3-4.39,4.08-7.49,8.9-9.3,14.48-2.82,5.36-4.11,11.14-3.88,17.34.54,3.99,1.07,7.98,1.61,11.96,2.14,7.62,6,14.24,11.57,19.86l9.11,7.04c7.02,4.07,14.59,6.12,22.71,6.14,9.36-.44,18.71-.89,28.07-1.33-3.99-29.46-7.98-58.93-11.96-88.39-10.22,1.64-19.61,5.78-29.02,10.01-9.4,4.23-17.38,10.59-25.37,17.02s-14.17,14.6-20.24,22.87c-6.47,8.82-10.38,19.13-14.51,29.16-3.24,7.87-5.84,15.98-9.14,23.82,1.51-3.58,3.02-7.17,4.54-10.75-2.51,5.91-5.42,11.6-9.34,16.71,2.35-3.04,4.69-6.07,7.04-9.11-2.74,3.5-5.84,6.68-9.35,9.41l9.11-7.04c-2.69,2.05-5.58,3.79-8.7,5.1l10.75-4.54c-2.36.96-4.79,1.65-7.31,2.03l11.96-1.61c-2.4.32-4.79.33-7.2.04l11.96,1.61c-.31-.04-.61-.09-.92-.14,8.96,6.89,17.93,13.79,26.89,20.68-.12-.28-.24-.56-.36-.84l4.54,10.75c-1.91-4.59-3.18-9.38-3.85-14.3l1.61,11.96c-.71-5.52-.66-11.09.06-16.6-.54,3.99-1.07,7.98-1.61,11.96.85-6.18,2.52-12.19,4.92-17.94l-4.54,10.75c2.45-5.76,5.61-11.18,9.42-16.15l-7.04,9.11c3.76-4.82,8.12-9.09,12.93-12.84l-9.11,7.04c5.74-4.42,12.04-8.03,18.7-10.88l-10.75,4.54c8.23-3.47,16.9-5.74,25.74-6.93l-11.96,1.61c7.42-.96,14.92-1.16,22.38-.62,6.2.23,11.97-1.06,17.34-3.88,5.58-1.81,10.41-4.92,14.48-9.3,4.39-4.08,7.49-8.9,9.3-14.48,2.82-5.36,4.11-11.14,3.88-17.34-.54-3.99-1.07-7.98-1.61-11.96-2.14-7.62-6-14.24-11.57-19.86l-9.11-7.04c-7.02-4.07-14.59-6.12-22.71-6.14h0Z"/>
  </g>
  <g class="cls-7">
    <path class="cls-4" d="m1844.76,780.95c19.85-.3,39.71-.59,59.56-.89,19.77-.29,39.54-.59,59.31-.88,11.21-.17,22.43-.33,33.64-.5,3.92.15,7.58-.67,10.98-2.45,3.53-1.15,6.59-3.11,9.17-5.89,2.78-2.58,4.74-5.64,5.89-9.17,1.78-3.4,2.6-7.06,2.45-10.98l-1.02-7.58c-1.35-4.83-3.8-9.02-7.33-12.58l-5.77-4.46c-4.45-2.58-9.24-3.88-14.38-3.89-19.85.3-39.71.59-59.56.89-19.77.29-39.54.59-59.31.88-11.21.17-22.43.33-33.64.5-3.92-.15-7.58.67-10.98,2.45-3.53,1.15-6.59,3.11-9.17,5.89-2.78,2.58-4.74,5.64-5.89,9.17-1.78,3.4-2.6,7.06-2.45,10.98l1.02,7.58c1.35,4.83,3.8,9.02,7.33,12.58l5.77,4.46c4.45,2.58,9.24,3.88,14.38,3.89h0Z"/>
  </g>
  <g class="cls-7">
    <path class="cls-4" d="m2225.39,1164.93c-17.43-6.53-36.85-9.49-55.4-9.51-15.93-.02-31.15,3.43-45.01,11.39-16.27,9.35-28.91,26.72-33.5,44.84-3.54,13.94-3.22,29.46,1.11,43.16,4.25,13.45,11.96,27.22,22.67,36.61,11.59,10.16,24.65,17.75,39.81,21.42,11.28,2.73,23.02,3.35,34.52,4.89-5.58-.75-11.17-1.5-16.75-2.25,7.8,1.17,15.27,3.23,22.56,6.22l-15.05-6.35c8.27,3.57,15.9,8.12,23.08,13.55l-12.75-9.85c8.64,6.75,16.28,14.51,23.08,23.1-3.28-4.25-6.57-8.5-9.85-12.75,8.69,11.27,15.54,23.55,21.1,36.64-2.12-5.02-4.23-10.03-6.35-15.05,12.38,30.1,17.49,62.31,22.37,94.3,2.99,10.67,8.39,19.94,16.2,27.8,7.86,7.81,17.13,13.21,27.8,16.2,11.17,3,22.33,3,33.5,0,10.67-2.99,19.94-8.39,27.8-16.2.84-.72,1.7-1.41,2.57-2.09-4.25,3.28-8.5,6.57-12.75,9.85,5.18-3.91,10.71-7.09,16.66-9.67-5.02,2.12-10.03,4.23-15.05,6.35,8.52-3.49,17.4-5.61,26.5-6.93l-16.75,2.25c24.21-3.22,48.66-1.16,72.99-2.1,32.52-1.26,68.12-6.89,95.08-26.63-28.73-7.53-57.46-15.07-86.2-22.6,1.52,3.01,2.96,6.05,4.31,9.13-2.12-5.02-4.23-10.03-6.35-15.05,5.25,12.46,8.79,25.42,10.73,38.79l-2.25-16.75c1.85,14.08,1.88,28.21.07,42.3l2.25-16.75c-1.89,13.38-5.39,26.35-10.6,38.83l6.35-15.05c-13.3,30.68-35.86,57.02-43.29,90.35-2.43,10.91-4.56,22.84-3.5,34.13,1.71,18.37,4.82,30.61,12.73,47.28s22.26,30.33,33.82,44.92c-3.28-4.25-6.57-8.5-9.85-12.75,5.93,7.72,10.74,16.02,14.63,24.94-2.12-5.02-4.23-10.03-6.35-15.05,4.76,11.4,7.82,23.28,9.6,35.5-.75-5.58-1.5-11.17-2.25-16.75,2.46,18.31,2.06,36.76-.26,55.06.75-5.58,1.5-11.17,2.25-16.75-5.5,40.78-19.36,79.76-27.02,120.1-3.87,20.38-1.6,38.26,11.28,54.92,4.44,6.86,10.33,12.27,17.68,16.23,9.83,5.7,20.43,8.57,31.8,8.6l1.58.18-16.75-2.25c4.67.68,9.1,1.92,13.45,3.74l-15.05-6.35c4.24,1.93,8.15,4.31,11.84,7.15-4.25-3.28-8.5-6.57-12.75-9.85,4.08,3.31,7.67,7.01,10.91,11.14-3.28-4.25-6.57-8.5-9.85-12.75,3.52,4.71,6.41,9.72,8.78,15.1l-6.35-15.05c2.47,5.97,4.17,12.1,5.09,18.49l-2.25-16.75c.71,5.86.72,11.65-.04,17.51l2.25-16.75c-.88,5.62-2.45,11.01-4.55,16.29l6.35-15.05c-2.72,6.4-6.17,12.31-10.32,17.89,3.28-4.25,6.57-8.5,9.85-12.75-5.03,6.48-10.78,12.16-17.22,17.24,4.25-3.28,8.5-6.57,12.75-9.85-7.56,5.75-15.71,10.43-24.44,14.14,5.02-2.12,10.03-4.23,15.05-6.35-8.09,3.28-16.44,5.73-25.09,6.95l16.75-2.25c-2.98.29-5.84.35-8.83.11l16.75,2.25c-2.47-.4-4.75-.96-7.07-1.9l15.05,6.35c-1.74-.83-3.31-1.77-4.86-2.91,4.25,3.28,8.5,6.57,12.75,9.85-1.84-1.52-3.4-3.16-4.86-5.05,3.28,4.25,6.57,8.5,9.85,12.75-1.39-2-2.54-4.05-3.54-6.27,2.12,5.02,4.23,10.03,6.35,15.05-1.34-3.3-2.22-6.62-2.8-10.13l2.25,16.75c-.6-4.65-.6-9.24-.02-13.89l-2.25,16.75c.83-5.26,2.49-10.18,4.56-15.08-2.12,5.02-4.23,10.03-6.35,15.05,5.04-11.29,11.99-21.54,17.42-32.63,4.53-9.24,8.83-18.77,11.8-28.64,3.26-10.82,4.55-22.86,5.62-33.92,2.62-26.93-2.48-54.48-4.99-81.26-5.27-56.24-8.97-112.64-11.1-169.09-2.14-56.85-2.7-113.77-1.65-170.65.25-13.72.76-27.43,1.04-41.14.31-15.29-2.87-29.51-9.78-43.12-8.67-17.06-25.91-30.57-44.29-35.57-17-4.62-35.18-2.89-52.58-2.51-13.04.29-26.21.09-39.2,1.26-22.4,2.02-44.97,6.16-64.05,18.98-18.29,12.28-30.56,25.82-43.31,43.69-13.87,19.45-23.19,41.62-37.76,60.65l9.85-12.75c-11.2,14.36-24.13,27.11-38.49,38.29l12.75-9.85c-16.48,12.63-34.47,22.99-53.54,31.18,5.02-2.12,10.03-4.23,15.05-6.35-22.11,9.32-45.3,15.6-69.07,18.83,5.58-.75,11.17-1.5,16.75-2.25-25.03,3.22-50.28,2.84-75.29-.44l16.75,2.25c-31.28-4.32-61.64-13.15-90.72-25.4,5.02,2.12,10.03,4.23,15.05,6.35-30.48-13.04-59.23-29.65-86.13-49.01-10.6,39.13-21.2,78.27-31.8,117.4,2.77.09,5.5.32,8.25.68l-16.75-2.25c5.5.9,10.74,2.37,15.91,4.46-5.02-2.12-10.03-4.23-15.05-6.35,5.1,2.25,9.81,4.97,14.28,8.3,21.2-36.27,42.4-72.53,63.59-108.8-25.81-12.51-51.45-19.38-80.27-20.39-11.7-.41-23.15.96-34.73,2.51s-23.3,3.42-34.75,6.55c-40.87,11.17-78.11,32.08-114.76,52.75-18.66,10.52-37.46,20.83-57.19,29.25,5.02-2.12,10.03-4.23,15.05-6.35-18.59,7.79-37.73,13.5-57.7,16.38l16.75-2.25c-23.68,3.17-47.5,2.56-71.15-.56l16.75,2.25c-32-4.44-63.17-13.18-93.71-23.58-15.03-5.12-29.77-11.39-44.98-15.96-27.53-8.27-58.45-7.8-83.85,6.83-39.94,23-59.98,73.79-58.04,118.35,1.63,37.54,14.39,74.18,36.95,104.26,12.87,17.16,26.43,33.03,42.05,47.71,11.42,10.73,24.99,20.3,34.73,32.63l-9.85-12.75c1.76,2.44,3.22,4.9,4.4,7.67l-6.35-15.05c.59,1.71,1.01,3.3,1.33,5.08l-2.25-16.75c.17,1.77.21,3.37.1,5.14l2.25-16.75c-.3,2.2-.81,4.21-1.57,6.29l6.35-15.05c-1.36,3.1-3.09,5.84-5.15,8.53l9.85-12.75c-7.69,9.3-17.82,16.14-25.6,25.36-6.44,7.63-12.95,15.76-18.2,24.36-5.59,9.15-9.53,19.31-13.51,29.22-12.25,30.51-12.14,64.54-6.26,96.39,2.89,15.66,9.29,31.11,16.64,45.11,2.47,4.7,5.33,9.15,8.5,13.4,6.36,8.53,12.72,17.33,20.58,24.58,26.52,24.48,59.72,40.45,94.88,48.07,31.79,6.89,64.51,8.97,96.87,11.33,33.97,2.48,67.95,4.96,101.92,7.45,67.83,4.96,135.65,10.08,203.49,14.86,37.02,2.61,74.34,4.54,111.31.27,39.49-4.56,78-14.16,117.34-19.49-5.58.75-11.17,1.5-16.75,2.25,19.15-2.48,38.42-3.55,57.63-1.14l-16.75-2.25c11.96,1.67,23.53,4.69,34.67,9.36-5.02-2.12-10.03-4.23-15.05-6.35l1.99.87c5.02-38.38,10.03-76.77,15.05-115.15-23.1,6.77-46.62,11.81-70.47,15.13,5.58-.75,11.17-1.5,16.75-2.25-30.02,4.03-60.3,5.28-90.55,3.69v126c68.16-4.79,136.32-9.58,204.49-14.37,34.08-2.39,68.16-4.79,102.24-7.18,37.35-2.62,75.77-4.65,112-14.68,10.69-2.96,21.58-6.98,31.07-12.68,13.56-8.14,26.6-20.41,34.17-34.44,11.09-20.54,14.6-43.51,13.31-66.6-1.9-33.81-4.22-67.61-6.34-101.41-4.23-67.57-8.45-135.14-12.68-202.72-2.13-33.99-4.25-67.98-6.38-101.97-1.04-16.59-2.07-33.18-3.11-49.77-.53-8.5-1.05-16.99-1.59-25.49-.73-11.5-1.26-23.6-4.8-34.57-5.82-18.09-15.15-32.82-30.21-44.45s-30.74-16.67-49.36-18.13c-21.57-1.68-44.26,6.95-62.76,17.21-16.03,8.89-31.08,20.65-45.3,32.07s-27.13,26.1-35.54,42.35c-10.81,20.86-16.35,41.85-17.49,65.35-1.14,23.36,5.14,44.97,14.34,66.01,15.88,36.3,51.39,63.01,88.62,74.37,10.49,3.2,21.78,4.4,32.63,5.38,3,.27,6,.36,9.01.28,24.47-.63,44.1-11.85,57.16-32.76,12.19-19.52,17.11-40.55,19.65-63.01.66-5.85.88-11.7.4-17.57-.92-11.25-2.21-23.11-5.51-34.01-6.29-20.77-17.16-41.24-32.46-56.86-18.74-19.14-45-27.09-71.17-21.06-7.52,1.73-14.74,4.93-21.28,9.03-12.99,8.14-18.53,15.82-27.72,27.87-11.96,15.68-20.9,30.86-28.02,49.49-16.99,44.48.17,101.58,42.8,125.04,6.42,3.54,13.59,6.61,20.77,8.49,18.1,4.74,34.89.82,51.19-7.09,12.08-5.86,24.48-18.13,31.01-29.89,14.61-26.34,16.61-59.92.89-86.42-15.23-25.67-40.73-40.86-69.82-44.77-14.57-1.96-24.71-1.26-39.89,1.53-11.91,2.19-23.43,7.86-34.26,12.8-13.41,6.12-26.23,13.34-39.81,19.14,5.02-2.12,10.03-4.23,15.05-6.35-32.77,13.78-67.23,22.72-102.42,27.49l16.75-2.25c-45.96,6.01-92.49,4.96-138.39-1.06l16.75,2.25c-40.94-5.5-81.29-14.84-120.69-27.2-20.47-6.42-40.39-14.91-61.08-20.56-29.92-8.17-62.16-8.46-91.53,2.13-26.84,9.68-51.62,23.91-77.84,35.01l15.05-6.35c-42.32,17.7-86.8,29.64-132.25,35.79l16.75-2.25c-46.18,6.06-92.96,6.09-139.14-.03l16.75,2.25c-25.85-3.54-51.38-8.98-76.41-16.36-19.29-5.69-39.39-.72-54.92,11.28-6.86,4.44-12.27,10.33-16.23,17.68-5.7,9.83-8.57,20.43-8.6,31.8,1.48,11.53,2.32,22.62,6.5,33.42s8.15,20.78,14.37,29.95c9.69,14.3,20.88,27.39,33.68,38.94,19.18,17.31,40.95,32.19,56.97,52.73l-9.85-12.75c4.57,6.01,8.5,12.4,11.47,19.35-2.12-5.02-4.23-10.03-6.35-15.05,2.35,5.79,3.91,11.7,4.76,17.89-.75-5.58-1.5-11.17-2.25-16.75.68,6.23.57,12.37-.21,18.59.75-5.58,1.5-11.17,2.25-16.75-1.49,10.01-4.59,19.52-8.47,28.84,2.12-5.02,4.23-10.03,6.35-15.05-11.36,26.53-26.43,51.01-36.3,78.29-7.98,22.05-8.8,44.79-4.92,67.67,3.89,22.93,18.21,42.97,36.26,56.91,21.9,16.92,51.28,24.43,78.42,16.1,23.43-7.19,41.55-22.5,54.48-43.02,17.81-28.27,20.47-64.1,22.25-96.51,1.72-31.25.59-62.69,4.68-93.78l-2.25,16.75c2.44-17.57,6.54-34.84,13.33-51.26l-6.35,15.05c4.4-10.3,9.81-20.02,16.55-28.97l-9.85,12.75c5.02-6.44,10.59-12.33,16.9-17.53l-12.75,9.85c2.3-1.73,4.58-3.16,7.19-4.36-5.02,2.12-10.03,4.23-15.05,6.35,1.26-.51,2.56-.86,3.91-1.05l-16.75,2.25c1.35-.18,2.69-.14,4.03.13l-16.75-2.25c1.04.21,2.04.55,2.99,1.03l-15.05-6.35c.93.47,1.8,1.03,2.6,1.7l-12.75-9.85c1.23,1.12,2.23,2.22,3.25,3.53l-9.85-12.75c1.6,2.35,2.88,4.78,4.05,7.37-2.12-5.02-4.23-10.03-6.35-15.05,4.36,10.35,7.89,21.16,9.62,32.27l-2.25-16.75c.68,5.13.91,10.21.39,15.36l2.25-16.75c-.52,3.82-1.43,7.36-2.92,10.91l6.35-15.05c-.95,1.97-2.01,3.79-3.25,5.59l9.85-12.75c-1.9,2.46-3.98,4.53-6.39,6.49,4.25-3.28,8.5-6.57,12.75-9.85-6.2,4.53-13.28,7.59-19.59,11.95-9.55,6.6-19.32,13.83-27.05,22.64-16.06,18.31-26.41,36.82-34.45,59.78-13.57,38.74-10.29,82.49-.05,121.52,4.45,16.98,10.54,33.46,16.81,49.84,4.75,12.41,8.9,24.43,18.66,34.19,9.24,9.24,21.49,15.37,34.21,18.04,16.79,3.52,32.86,3.74,49.58-.85,10.43-2.86,21.08-7.47,30.07-13.62,15.16-10.38,24.26-19.96,35.15-34.6,15.07-20.26,20.1-45.1,22.54-69.64,1.9-19.13-.48-38.24-1.19-57.36-.74-19.78.3-39.56,2.91-59.17-.75,5.58-1.5,11.17-2.25,16.75,3.89-27.85,10.76-55.58,21.66-81.55-2.12,5.02-4.23,10.03-6.35,15.05,3.94-9.1,8.54-17.77,14.47-25.75l-9.85,12.75c4.03-5.18,8.49-9.82,13.61-13.92-4.25,3.28-8.5,6.57-12.75,9.85,3.81-2.85,7.82-5.19,12.17-7.13-5.02,2.12-10.03,4.23-15.05,6.35,4.42-1.81,8.89-3.09,13.6-3.88l-16.75,2.25c4.65-.62,9.19-.7,13.85-.14-5.58-.75-11.17-1.5-16.75-2.25,3.41.55,6.63,1.4,9.85,2.65-5.02-2.12-10.03-4.23-15.05-6.35,3.19,1.41,6.06,3.12,8.83,5.25-10.4-18.13-20.8-36.27-31.2-54.4.3,4.15.17,8.19-.34,12.32l2.25-16.75c-.99,6.16-2.76,12.02-5.08,17.8,2.12-5.02,4.23-10.03,6.35-15.05-6.89,16.21-17.13,30.67-25.54,46.09-10.39,19.03-19.11,39.03-26.85,59.26-6.03,15.74-10.89,31.96-14.16,48.5-4.12,20.82-7.07,42.45-6.72,63.74s2.99,41.58,8.67,61.28c3.59,12.43,8.8,24.48,14.21,36.19,3.29,7.12,7.08,14.14,11.71,20.49,13.24,18.2,28.73,33.37,51.14,39.62,27.1,7.56,54.77-1.13,75.18-19.57,6.24-5.63,11.29-12.87,15.96-19.81,2.6-3.87,4.74-8.06,6.67-12.31,5.45-11.99,10.59-24.12,13.41-37.02,9.77-44.77,5.55-91.08,11.52-136.33l-2.25,16.75c6.03-44.15,17.82-87.28,35.11-128.34l-6.35,15.05c6.09-14.27,12.07-29.78,21.47-42.25l-9.85,12.75c1.89-2.31,3.87-4.38,6.17-6.28l-12.75,9.85c1.91-1.39,3.83-2.52,5.99-3.49-5.02,2.12-10.03,4.23-15.05,6.35,1.07-.45,2.18-.79,3.32-1.03-5.58.75-11.17,1.5-16.75,2.25,1-.2,2-.27,3.02-.19l-16.75-2.25c.92.07,1.82.27,2.68.59-5.02-2.12-10.03-4.23-15.05-6.35.85.33,1.65.75,2.4,1.27l-12.75-9.85c1.6,1.24,2.88,2.59,4.14,4.16l-9.85-12.75c7.88,10.93,13.14,22.82,23.23,32.38,7.71,7.31,16.63,14.06,26.04,19.15,17.75,9.6,37.45,16.41,57.08,21.06,46.54,11.01,95.19,14.84,142.87,17.12s98.71,2.35,148.05,1.27c42.04-.92,84.06-2.68,126.04-5.12,20.3-1.18,40.7-2.13,60.94-4.1.3-.03.6-.05.9-.07l-63-63c2.08,29.39,4.17,58.77,6.25,88.16,3.33,46.89,6.65,93.78,9.98,140.68.77,10.84,1.54,21.68,2.31,32.52l63-63c-18.94.82-37.88,1.63-56.82,2.45-45.47,1.96-90.94,3.92-136.4,5.88-54.78,2.36-109.55,4.72-164.33,7.09-47.37,2.04-94.75,4.09-142.12,6.13-23.14,1-46.34,1.62-69.47,3-.33.02-.66.03-.99.04l60.75,79.75c4.77-25.69,9.53-51.38,14.3-77.06,7.55-40.72,15.11-81.44,22.66-122.15,1.74-9.4,3.49-18.8,5.23-28.19l-60.75,46.25c14.51.86,29.01,1.71,43.52,2.57,34.63,2.05,69.26,4.09,103.89,6.14,42.09,2.49,84.18,4.97,126.26,7.46,36.23,2.14,72.47,4.28,108.7,6.42,17.72,1.05,35.45,2.38,53.19,3.14.25.01.5.03.75.04l-63-63v72.37c0,18.49-1.21,36.4,8.66,53.41,5.53,9.54,11.88,18.69,17.8,27.99,6.6,10.38,13.2,20.76,19.8,31.14,23.72-30.85,47.43-61.7,71.15-92.55-26.43-7.76-52.87-15.52-79.3-23.28-42.11-12.36-84.21-24.72-126.32-37.08-9.63-2.83-19.25-5.65-28.88-8.48v121.5c40.39-9.66,80.78-19.33,121.16-28.99,5.71-1.37,11.43-2.73,17.14-4.1,14.44-3.45,30.69-15.77,37.65-28.95s9.4-25.84,7.48-40.17c-1.78-13.22-7.21-26.88-17.33-36.17-12.04-11.05-27.73-19.12-44.55-18.45-34.58,1.38-69.15,2.76-103.73,4.14-54.83,2.19-109.67,4.37-164.5,6.56-12.58.5-25.15,1-37.73,1.5-28.81,1.15-52.01,18.93-60.75,46.25-7.51,23.46-15.01,46.93-22.52,70.39-6.08,19.01-.51,39.66,11.28,54.92,12.69,16.43,29.04,23.25,49.47,24.83,28.29,2.18,56.59,4.36,84.88,6.54,45.07,3.47,90.15,6.94,135.22,10.41,10.31.79,20.63,1.59,30.94,2.38l16.75-2.25c8.2-1.95,15.34-5.71,21.42-11.28,10.41-8.04,19.57-19.53,22.58-32.73,2.52-11.08,2.52-22.42,0-33.5-3.65-16.01-15.89-28.82-28.95-37.65-38.21-25.83-76.42-51.66-114.63-77.5-60.47-40.88-120.94-81.76-181.41-122.65-13.9-9.4-27.8-18.79-41.69-28.19-13.02-8.8-33.8-10.41-48.55-6.35s-30.45,15.32-37.65,28.95c-7.72,14.62-11.6,32.33-6.35,48.55,5.24,16.2,14.79,28.07,28.95,37.65,38.21,25.83,76.42,51.66,114.63,77.5,60.47,40.88,120.94,81.76,181.41,122.65,13.9,9.4,27.8,18.79,41.69,28.19,10.6-39.13,21.2-78.27,31.8-117.4-28.29-2.18-56.59-4.36-84.88-6.54-45.07-3.47-90.15-6.94-135.22-10.41-10.31-.79-20.63-1.59-30.94-2.38l60.75,79.75c7.51-23.46,15.01-46.93,22.52-70.39l-60.75,46.25c34.58-1.38,69.15-2.76,103.73-4.14,54.83-2.19,109.67-4.37,164.5-6.56,12.58-.5,25.15-1,37.73-1.5l-16.75-123.75c-40.39,9.66-80.78,19.33-121.16,28.99-5.71,1.37-11.43,2.73-17.14,4.1-5.02,2.12-10.03,4.23-15.05,6.35-7.34,3.96-13.23,9.37-17.68,16.23-8.21,10.63-14.14,24.37-13.53,38.17,1.26,28.13,18.73,52.67,46.25,60.75,26.43,7.76,52.87,15.52,79.3,23.28,42.11,12.36,84.21,24.72,126.32,37.08,9.63,2.83,19.25,5.65,28.88,8.48,10.22,3,23.26,2.82,33.5,0,13.26-3.65,24.42-11.83,32.73-22.58,14.9-19.29,18.5-48.61,4.93-69.97-12.55-19.74-25.1-39.48-37.66-59.23,2.87,10.6,5.73,21.2,8.6,31.8v-93.89c0-15.45-6.86-33.91-18.45-44.55-12.73-11.69-27.18-17.43-44.55-18.45-14.51-.86-29.01-1.71-43.52-2.57-34.63-2.05-69.26-4.09-103.89-6.14-42.09-2.49-84.18-4.97-126.26-7.46-36.23-2.14-72.47-4.28-108.7-6.42-17.69-1.04-35.47-2.7-53.19-3.14-.25,0-.5-.03-.75-.04l-16.75,2.25c-8.2,1.95-15.34,5.71-21.42,11.28-10.08,7.79-20.17,19.75-22.58,32.73-4.77,25.69-9.53,51.38-14.3,77.06-7.55,40.72-15.11,81.44-22.66,122.15-1.74,9.4-3.49,18.8-5.23,28.19-3,11.17-3,22.33,0,33.5,1.95,8.2,5.71,15.34,11.28,21.42,11.63,15.05,29.79,25.68,49.47,24.83,18.94-.82,37.88-1.63,56.82-2.45,45.47-1.96,90.94-3.92,136.4-5.88,54.78-2.36,109.55-4.72,164.33-7.09,47.37-2.04,94.75-4.09,142.12-6.13,23.15-1,46.32-1.8,69.47-3,.33-.02.66-.03.99-.04,15.85-.68,33.46-6.38,44.55-18.45,10.85-11.82,19.63-27.96,18.45-44.55-2.08-29.39-4.17-58.77-6.25-88.16-3.33-46.89-6.65-93.78-9.98-140.68-.77-10.84-1.54-21.68-2.31-32.52-1.14-16.1-6.06-33.17-18.45-44.55-11.73-10.77-28.05-19.81-44.55-18.45-32.86,2.7-65.81,4.55-98.75,6.14-68.46,3.29-137.1,4.99-205.63,3.07-37.89-1.06-75.85-3.16-113.45-8.16l16.75,2.25c-25.96-3.5-52.64-7.96-76.93-18.16,5.02,2.12,10.03,4.23,15.05,6.35-6.69-2.85-13.21-6.21-18.99-10.65l12.75,9.85c-2.81-2.2-5.4-4.65-7.61-7.47l9.85,12.75c-.84-1.11-1.6-2.27-2.32-3.46-5.36-8.9-9.88-16.26-16.93-24.55-1.32-1.55-2.61-2.85-4.14-4.16-9.04-7.74-18.48-14.4-30.2-17.48-20.49-5.37-39.6-1.96-58.36,7.34-4.33,2.15-7.66,5.04-11.57,8.06-4.1,3.17-8.03,5.97-11.41,9.81-6.65,7.56-13,15.94-17.76,24.91-8.15,15.35-14.78,31.54-21.48,47.55-22.18,53-34.33,109.02-39.4,166.17-2.49,28.09-.97,56.47-4.54,84.46l2.25-16.75c-1.58,11.38-4.15,22.49-8.51,33.14,2.12-5.02,4.23-10.03,6.35-15.05-2.63,6.06-5.67,11.93-9.69,17.19,3.28-4.25,6.57-8.5,9.85-12.75-1.24,1.46-2.47,2.74-3.89,4.02l12.75-9.85c-1.51,1.15-2.88,2.02-4.6,2.85,5.02-2.12,10.03-4.23,15.05-6.35-1.12.47-2.28.79-3.48.96l16.75-2.25c-1.12.16-2.25.18-3.38.06l16.75,2.25c-1.73-.29-3.14-.69-4.76-1.33,5.02,2.12,10.03,4.23,15.05,6.35-1.57-.8-2.93-1.65-4.36-2.68l12.75,9.85c-2.34-1.94-4.35-4.06-6.25-6.42,3.28,4.25,6.57,8.5,9.85,12.75-6.02-8.04-10.62-17.18-14.53-26.41l6.35,15.05c-5.22-12.79-8.65-26.09-10.52-39.77l2.25,16.75c-2.22-17.74-1.8-35.56.56-53.26l-2.25,16.75c3.61-25.55,11.09-50.3,21.07-74.06-2.12,5.02-4.23,10.03-6.35,15.05,5.71-13.39,12.17-26.45,19.37-39.1,7.57-13.3,16.07-26,22.19-40.08,3.19-7.33,6.8-15.07,9.17-22.86,2.62-8.59,3.56-17.96,4.51-26.74.37-3.43.61-6.79.49-10.24-.35-9.87-1.89-17.62-5.57-26.35-5.9-13.97-14.7-22.6-27.16-31.19-23.42-16.15-52.62-17.86-79.69-13.05-41.9,7.44-75.03,41.96-91.5,79.63-8.34,19.07-15.52,38.35-20.63,58.54-5.21,20.59-8.24,41.64-10.61,62.73-2.08,18.5-2.64,37.14-1.73,55.73.9,18.36,2.88,36.7.74,55.05l2.25-16.75c-1.04,7.63-2.74,15.1-5.67,22.25,2.12-5.02,4.23-10.03,6.35-15.05-2.15,4.82-4.82,9.25-8.02,13.44,3.28-4.25,6.57-8.5,9.85-12.75-3.32,4.1-7,7.75-11.16,10.99,4.25-3.28,8.5-6.57,12.75-9.85-3.68,2.69-7.53,4.92-11.73,6.7,5.02-2.12,10.03-4.23,15.05-6.35-3.1,1.18-6.19,2.04-9.46,2.59l16.75-2.25c-3.26.4-6.42.45-9.69.1l16.75,2.25c-2.78-.43-5.39-1.12-8.03-2.09l44,44c-10.38-26.95-20.66-54.15-24.6-82.92l2.25,16.75c-1.56-12.6-1.87-25.16-.24-37.76-.75,5.58-1.5,11.17-2.25,16.75,1.45-10.11,4.01-19.94,7.85-29.41-2.12,5.02-4.23,10.03-6.35,15.05,3.24-7.62,7.22-14.76,12.16-21.41-3.28,4.25-6.57,8.5-9.85,12.75,4.3-5.56,9.12-10.53,14.62-14.93-4.25,3.28-8.5,6.57-12.75,9.85,14.01-10.68,30.73-16.78,42.27-30.89,9.88-12.07,17.75-23.99,21.52-39.48,2.48-10.18,4.02-21.17,3.28-31.71-3.52-50.38-27.83-112.69-87.09-114.23-28.26-.74-53.59,15.62-71.48,36.36-11.16,12.94-21.47,26.86-28.6,42.46s-13.74,32.01-17.67,49.07c-4.09,17.77-6.37,36.08-7.84,54.24-2.86,35.27-.96,70.79-5.53,105.95.75-5.58,1.5-11.17,2.25-16.75-1.33,9.62-3.07,18.99-6.72,28.03l6.35-15.05c-1.9,4.41-4.16,8.54-7.06,12.37l9.85-12.75c-1.92,2.35-3.97,4.41-6.36,6.28,4.25-3.28,8.5-6.57,12.75-9.85-1.62,1.13-3.25,2.1-5.03,2.95l15.05-6.35c-2.37.97-4.7,1.59-7.24,1.96l16.75-2.25c-1.75.14-3.35.15-5.1.03,5.58.75,11.17,1.5,16.75,2.25-2.27-.32-4.36-.83-6.52-1.59,5.02,2.12,10.03,4.23,15.05,6.35-2.67-1.13-5.06-2.5-7.4-4.19,4.25,3.28,8.5,6.57,12.75,9.85-2.29-1.85-4.3-3.84-6.18-6.11l9.85,12.75c-1.78-2.37-3.25-4.8-4.53-7.46l6.35,15.05c-1.59-3.79-2.54-7.62-3.12-11.68l2.25,16.75c-.5-5.13-.33-10.07.34-15.17l-2.25,16.75c1.49-9.06,4.41-17.63,7.94-26.08l-6.35,15.05c10.48-24.4,23.87-47.24,33.84-71.92,11.13-27.56,13.73-58.68,6.34-87.58-10.22-39.97-39.86-68.99-70.42-94.46-13.23-11.02-26.61-22.14-37.32-35.72l9.85,12.75c-4.55-5.91-8.46-12.2-11.42-19.05l6.35,15.05c-2.19-5.34-3.72-10.81-4.57-16.52l2.25,16.75-.17-1.35-79.75,60.75c57.12,16.84,117.98,24.72,177.51,23.05,58.87-1.66,118.52-11.67,174.18-31.07,19.1-6.66,37.84-14.48,56.27-22.79,14.23-6.42,27.96-13.89,42.28-20.09-5.02,2.12-10.03,4.23-15.05,6.35,9.75-4.1,19.67-7.39,30.17-8.94l-16.75,2.25c7.24-.88,14.36-.8,21.59.11l-16.75-2.25c17.5,2.61,33.88,9.4,50.49,15.21,15.13,5.29,30.4,10.15,45.81,14.55,31.64,9.02,63.87,16.08,96.47,20.63,37.28,5.2,74.5,8.89,112.19,7.7,36.87-1.16,74.2-5.9,110.02-14.83,17.2-4.29,34.12-9.73,50.56-16.38,12.68-5.12,25.34-10.41,37.65-16.39,8.97-4.36,17.67-9.25,26.84-13.18-5.02,2.12-10.03,4.23-15.05,6.35,5.84-2.37,11.77-4.25,18.01-5.17l-16.75,2.25c4.06-.45,7.98-.44,12.03.04l-16.75-2.25c3.41.54,6.64,1.38,9.86,2.64-5.02-2.12-10.03-4.23-15.05-6.35,2.58,1.16,4.91,2.5,7.19,4.17-4.25-3.28-8.5-6.57-12.75-9.85,1.74,1.44,3.25,2.96,4.69,4.7-3.28-4.25-6.57-8.5-9.85-12.75,1.18,1.63,2.14,3.24,2.95,5.08-2.12-5.02-4.23-10.03-6.35-15.05.65,1.8,1.09,3.55,1.39,5.44-.75-5.58-1.5-11.17-2.25-16.75.23,2.39.19,4.67-.12,7.05l2.25-16.75c-.35,1.86-.84,3.61-1.5,5.38,2.12-5.02,4.23-10.03,6.35-15.05-.75,1.69-1.61,3.22-2.67,4.74,3.28-4.25,6.57-8.5,9.85-12.75-1.14,1.41-2.34,2.6-3.77,3.71l12.75-9.85c-1.16.76-2.24,1.34-3.51,1.89,5.02-2.12,10.03-4.23,15.05-6.35-.86.33-1.74.57-2.65.74h33.5c-1.51-.42-2.91-.89-4.36-1.49l15.05,6.35c-1.84-.88-3.52-1.87-5.18-3.04,4.25,3.28,8.5,6.57,12.75,9.85-2.42-1.9-4.47-4-6.36-6.43,3.28,4.25,6.57,8.5,9.85,12.75-1.82-2.56-3.3-5.22-4.57-8.1,2.12,5.02,4.23,10.03,6.35,15.05-1.38-3.5-2.33-7-2.93-10.71l2.25,16.75c-.53-4.25-.54-8.39.02-12.64l-2.25,16.75c.93-5.38,2.48-10.46,4.59-15.5-2.12,5.02-4.23,10.03-6.35,15.05,5.31-11.82,12.99-22.35,20.89-32.57-3.28,4.25-6.57,8.5-9.85,12.75,1.59-1.92,3.21-3.66,5.12-5.27l-12.75,9.85c.92-.72,1.91-1.33,2.98-1.82-5.02,2.12-10.03,4.23-15.05,6.35,1.04-.47,2.12-.76,3.26-.86-5.58.75-11.17,1.5-16.75,2.25l1.74.03-16.75-2.25,1.86.41c-5.02-2.12-10.03-4.23-15.05-6.35,1.21.42,2.33,1.02,3.36,1.79-4.25-3.28-8.5-6.57-12.75-9.85,2.46,2.03,4.48,4.33,6.45,6.81-3.28-4.25-6.57-8.5-9.85-12.75,3.92,5.17,7.12,10.68,9.73,16.62-2.12-5.02-4.23-10.03-6.35-15.05,2.93,7.1,4.87,14.41,5.89,22.01l-2.25-16.75c.8,7.05.79,14.03-.04,21.08.75-5.58,1.5-11.17,2.25-16.75-.98,7.01-2.75,13.74-5.39,20.3,2.12-5.02,4.23-10.03,6.35-15.05-1.86,4.33-4.05,8.43-6.61,12.38,18.13-10.4,36.27-20.8,54.4-31.2-4.83.2-9.59,0-14.39-.61l16.75,2.25c-7.19-1.08-14.07-3.03-20.77-5.83,5.02,2.12,10.03,4.23,15.05,6.35-6.65-2.94-12.81-6.6-18.59-11.03l12.75,9.85c-5.19-4.17-9.82-8.8-13.95-14.02,3.28,4.25,6.57,8.5,9.85,12.75-4.05-5.37-7.34-11.07-9.97-17.26,2.12,5.02,4.23,10.03,6.35,15.05-2.5-6.32-4.18-12.78-5.14-19.51.75,5.58,1.5,11.17,2.25,16.75-.88-7.37-.85-14.68.07-22.05l-2.25,16.75c1.08-7.34,3.01-14.38,5.86-21.23-2.12,5.02-4.23,10.03-6.35,15.05,2.51-5.65,5.54-10.91,9.21-15.87-3.28,4.25-6.57,8.5-9.85,12.75,5.92-7.6,12.89-14.04,20.45-19.98l-12.75,9.85c12.59-9.65,26.01-19.48,40.68-25.68-5.02,2.12-10.03,4.23-15.05,6.35,4.32-1.71,8.68-3.03,13.28-3.75l-16.75,2.25c2.67-.3,5.25-.37,7.93-.13-5.58-.75-11.17-1.5-16.75-2.25,2.05.31,3.94.77,5.89,1.48-5.02-2.12-10.03-4.23-15.05-6.35,1.93.86,3.61,1.86,5.3,3.13-4.25-3.28-8.5-6.57-12.75-9.85,1.33,1.16,2.43,2.31,3.56,3.66l-9.85-12.75c1.08,1.53,1.94,2.99,2.77,4.66-2.12-5.02-4.23-10.03-6.35-15.05,1.44,3.47,2.3,6.96,2.9,10.67l-2.25-16.75c2.08,15.9,2.3,32.19,3.3,48.19,1.06,16.99,2.13,33.99,3.19,50.98,2.13,33.99,4.25,67.98,6.38,101.97,4.25,67.98,8.5,135.95,12.75,203.93,1.16,18.61,2.33,37.23,3.49,55.84,1.07,17.05,3.71,34.86,1.55,51.9l2.25-16.75c-.59,3.67-1.45,7.16-2.77,10.64,2.12-5.02,4.23-10.03,6.35-15.05-1.24,2.82-2.7,5.35-4.55,7.81,3.28-4.25,6.57-8.5,9.85-12.75-1.66,1.94-3.42,3.61-5.42,5.2,4.25-3.28,8.5-6.57,12.75-9.85-2.62,1.85-5.32,3.35-8.23,4.69,5.02-2.12,10.03-4.23,15.05-6.35-14.86,6.2-31.5,8.67-47.35,10.89,5.58-.75,11.17-1.5,16.75-2.25-46.83,6.25-94.5,7.78-141.61,11.09-47.47,3.34-94.94,6.67-142.41,10.01-27.18,1.91-54.37,3.82-81.55,5.73-16.84,1.18-32.32,6.23-44.55,18.45-10.93,10.93-19.16,28.85-18.45,44.55s6.08,33.19,18.45,44.55c12.69,11.64,27.21,17.55,44.55,18.45,59.54,3.11,120.56-4.32,177.76-21.07,10.04-2.94,20.38-8.78,27.8-16.2,9.85-9.85,15.49-22.53,17.33-36.17,1.55-11.52.22-21.93-4.3-32.65-4.82-11.42-13.95-24.93-25.78-30.13-11.82-5.19-23.65-10.52-36.22-13.65-12.56-3.13-25.67-4.7-38.51-5.88-16.02-1.48-32.17-.54-48.1,1.42-38.29,4.73-75.74,13.81-113.92,19.06l16.75-2.25c-63,8.3-127.44-.11-190.44-4.71-63.9-4.67-127.81-9.34-191.71-14.01-32.83-2.4-65.92-3.81-98.57-8.15l16.75,2.25c-18.91-2.62-37.62-6.61-55.3-13.96,5.02,2.12,10.03,4.23,15.05,6.35-9.74-4.2-18.91-9.36-27.37-15.77,4.25,3.28,8.5,6.57,12.75,9.85-6.3-4.94-11.97-10.4-16.97-16.65l9.85,12.75c-5.21-6.75-9.46-14.03-12.88-21.84l6.35,15.05c-3.72-8.88-6.24-18.1-7.65-27.62l2.25,16.75c-1.42-10.65-1.42-21.33,0-31.99l-2.25,16.75c1.41-9.52,3.93-18.74,7.65-27.62-2.12,5.02-4.23,10.03-6.35,15.05,3.41-7.81,7.67-15.09,12.88-21.84l-9.85,12.75c4.13-5.16,8.75-9.7,13.67-14.09,9.22-8.22,16.24-16.4,23.79-26.49,9.93-13.26,14.61-30.22,15.33-46.62.37-8.47-.82-17.16-3.11-25.32-2.16-7.68-5.79-16.13-10.27-22.91-11.65-17.62-27.33-29.88-42.59-44.01-12.16-11.26-23.78-23.09-33.99-36.17,3.28,4.25,6.57,8.5,9.85,12.75-8.2-10.73-15.34-22.15-20.62-34.6l6.35,15.05c-3.91-9.65-6.66-19.6-8.13-29.91.75,5.58,1.5,11.17,2.25,16.75-1.11-8.92-1.23-17.78-.12-26.71l-2.25,16.75c1.09-7.51,3.03-14.72,5.97-21.71l-6.35,15.05c2.37-5.26,5.21-10.17,8.64-14.81l-9.85,12.75c2.46-3.09,5.09-5.81,8.22-8.23l-12.75,9.85c1.66-1.14,3.27-2.08,5.07-2.99-5.02,2.12-10.03,4.23-15.05,6.35,3.09-1.3,6.12-2.13,9.43-2.63l-16.75,2.25c4.03-.38,7.93-.24,11.94.26l-16.75-2.25c14.18,2.27,27.51,8.27,40.95,13.1s27.35,9.54,41.21,13.72c32.93,9.93,66.69,16.58,101,19.48,33.01,2.8,67.48-.18,99.4-9.01s59.5-22.51,87.12-37.63c27.08-14.82,53.44-31.17,81.87-43.38-5.02,2.12-10.03,4.23-15.05,6.35,19.25-8.11,39.22-14.31,59.94-17.21-5.58.75-11.17,1.5-16.75,2.25,13.43-1.72,26.89-1.97,40.33-.16l-16.75-2.25c9.99,1.51,19.6,4.11,28.93,8-5.02-2.12-10.03-4.23-15.05-6.35,1.87.82,3.72,1.67,5.56,2.57,15.43,7.48,31.52,11.04,48.55,6.35,14.61-4.02,30.45-15.32,37.65-28.95,7.72-14.62,11.6-32.33,6.35-48.55-2.12-5.02-4.23-10.03-6.35-15.05-5.6-9.47-13.13-17-22.6-22.6-19.88-14.77-45.84-21.22-70.24-22.04l-16.75,2.25c-8.2,1.95-15.34,5.71-21.42,11.28-10.41,8.04-19.57,19.53-22.58,32.73-2.52,11.08-2.52,22.42,0,33.5,3.75,16.47,15.91,28.26,28.95,37.65,70.11,50.47,155.1,83.64,242.03,85.67,82.25,1.92,165.59-28.2,225.61-84.81,16.79-15.83,31.62-34.53,43.7-54.14,9.74-15.81,17.58-32.79,28.94-47.58l-9.85,12.75c4.24-5.34,8.86-10.22,14.2-14.47l-12.75,9.85c4.1-3.09,8.43-5.66,13.14-7.73-5.02,2.12-10.03,4.23-15.05,6.35,5.93-2.36,12-3.77,18.31-4.65l-16.75,2.25c12.44-1.46,25.06-1.31,37.57-1.59s25.6-1.48,38.19-.59l-16.75-2.25c1.88.28,3.35.66,5.1,1.39-5.02-2.12-10.03-4.23-15.05-6.35l1.49.94-12.75-9.85c.83.64,1.54,1.39,2.14,2.25-3.28-4.25-6.57-8.5-9.85-12.75.58.86,1.05,1.77,1.4,2.75l-6.35-15.05c.49,1.59.8,3.06,1.03,4.72l-2.25-16.75c1.16,14.49-.53,29.58-.82,44.12-.31,15.73-.49,31.47-.56,47.21-.12,30.67.21,61.33,1.02,91.99,1.63,62.12,5.15,124.19,10.58,186.09,1.54,17.62,3.27,35.22,5.09,52.81,1.68,16.2,3.16,32.45,1.29,48.71.75-5.58,1.5-11.17,2.25-16.75-1.08,7.95-2.99,15.56-6.01,22.99,2.12-5.02,4.23-10.03,6.35-15.05-6.83,15.72-16.47,29.9-23.16,45.74-5.94,14.07-8.25,23.63-9.98,39.35-1.16,10.47.39,21.1,2.39,31.39,4.8,24.61,20.92,47.06,42.36,59.93,24.74,14.86,55.24,14.31,82.08,6.11,38.01-11.62,70.24-35.07,92.31-68.14,20.78-31.14,27.33-74.46,14.89-110.02-7.32-20.94-18.31-41.67-35.24-56.54-8.14-7.14-17.02-14.4-26.98-18.99-7.15-3.29-14.66-6.87-22.34-8.89-7.95-2.09-16.41-2.72-24.48-3.63l60.75,79.75c7.47-39.31,20.94-77.33,26.6-117.01,3.09-21.69,5.83-43.21,4.02-65.13-2.04-24.67-6.55-46.89-16.11-69.54-4.64-10.99-9.5-21.34-16.64-30.94-8.6-11.57-18.19-22.19-27.01-33.56l9.85,12.75c-3.44-4.6-6.44-9.35-8.74-14.62l6.35,15.05c-1.39-3.59-2.39-7.19-3.05-10.98l2.25,16.75c-.65-4.92-.63-9.73-.05-14.66l-2.25,16.75c1.03-6.93,3.06-13.51,5.68-20-2.12,5.02-4.23,10.03-6.35,15.05,6.88-16.25,16.75-30.92,25.18-46.37,10.54-19.31,19.29-40.52,23.08-62.3,2.34-13.42,4.32-27.19,4.55-40.86s-1.67-27.34-3.7-40.93c-3.3-22.13-11.29-43.05-21.39-62.98-6.6-13.02-23.52-25.73-37.65-28.95-15.54-3.54-35.11-3.49-48.55,6.35-4.87,3.56-10.01,6.51-15.52,8.96,5.02-2.12,10.03-4.23,15.05-6.35-9.09,3.83-18.6,6.1-28.35,7.48l16.75-2.25c-25.12,3.26-50.47.94-75.69,2.18-17.01.84-34.58,2.56-50.94,7.46-21.71,6.5-38.81,16.84-56.05,31.18,35.1,9.27,70.2,18.53,105.3,27.8-3.45-22.59-6.94-45.25-13.1-67.29-6.77-24.2-16.3-48.8-30.29-69.8-15.76-23.64-34.34-42.96-57.95-58.8-11.38-7.64-24.45-13.07-37.28-17.63-14.2-5.05-29.43-5.87-44.27-7.79,5.58.75,11.17,1.5,16.75,2.25-4.61-.66-9.04-1.53-13.42-3.12l15.05,6.35c-2.28-.98-4.38-2.06-6.41-3.48l12.75,9.85c-1.16-.97-2.14-1.93-3.14-3.07,3.28,4.25,6.57,8.5,9.85,12.75-1.22-1.61-2.2-3.23-3.06-5.05,2.12,5.02,4.23,10.03,6.35,15.05-.72-1.84-1.22-3.61-1.53-5.57.75,5.58,1.5,11.17,2.25,16.75-.11-1.43-.11-2.7.02-4.13-.75,5.58-1.5,11.17-2.25,16.75.12-.88.34-1.74.64-2.58-2.12,5.02-4.23,10.03-6.35,15.05.56-1.3,1.13-2.28,1.98-3.41-3.28,4.25-6.57,8.5-9.85,12.75.61-.7,1.29-1.32,2.05-1.85l-12.75,9.85c.98-.68,2.04-1.21,3.17-1.6l-15.05,6.35c1.13-.39,2.29-.67,3.48-.84-5.58.75-11.17,1.5-16.75,2.25,7.03-.81,14.21-.22,21.2.68l-16.75-2.25c8.25,1.24,16.2,3.3,24.01,6.22,14.5,5.43,35.65,1.2,48.55-6.35s25.53-22.63,28.95-37.65c3.67-16.13,2.88-34.23-6.35-48.55-3.28-4.25-6.57-8.5-9.85-12.75-7.86-7.81-17.13-13.21-27.8-16.2h0Z"/>
  </g>
  <g>
    <path class="cls-3" d="m1348.25,1808.47c-3.96-1.3-7.86-2.76-11.7-4.37l7.17,3.02c-12.55-5.32-24.34-12.29-35.13-20.61l6.07,4.69c-11.36-8.8-21.56-19.03-30.36-30.39l4.69,6.07c-8.86-11.49-16.27-24.06-21.94-37.42l3.02,7.17c-5.4-12.82-9.18-26.29-11.06-40.08l1.07,7.98c-1.79-13.44-1.73-27.06.05-40.5l-1.07,7.98c1.97-14.49,5.9-28.66,11.57-42.13l-3.02,7.17c5.71-13.48,13.12-26.2,22.05-37.81l-4.69,6.07c8.49-10.98,18.3-20.91,29.27-29.42-2.02,1.56-4.05,3.13-6.07,4.69,7.18-5.54,14.81-10.45,22.85-14.64,3.5-1.89,6.3-4.46,8.42-7.73,2.65-2.9,4.44-6.3,5.37-10.2,1.25-3.99,1.43-7.98.54-11.96-.18-3.99-1.37-7.71-3.56-11.15l-4.69-6.07c-3.74-3.72-8.16-6.29-13.24-7.72l-7.98-1.07c-5.42.02-10.46,1.38-15.14,4.1-13.24,6.91-25.49,15.89-36.68,25.75-11.26,9.92-20.86,21.49-29.61,33.66-7.35,10.22-13.54,21.26-18.47,32.83-3.43,8.06-6.76,16.09-9.29,24.48-1.81,6.01-3.28,12.13-4.39,18.31-2.66,14.84-4.21,29.98-3.24,45.05s3.37,29.72,7.82,43.88c8.9,28.35,24.1,54.16,44.15,76.05,9.96,10.88,21.44,20.34,33.51,28.79,12.19,8.53,25.43,14.88,39.25,20.35,2.81,1.11,5.64,2.13,8.51,3.07,3.99,1.25,7.98,1.43,11.96.54,3.99-.18,7.71-1.37,11.15-3.56,3.5-1.89,6.3-4.46,8.42-7.73,2.65-2.9,4.44-6.3,5.37-10.2l1.07-7.98c-.02-5.42-1.38-10.46-4.1-15.14l-4.69-6.07c-3.74-3.72-8.16-6.29-13.24-7.72h0Z"/>
    <g>
      <path class="cls-3" d="m1772.19,716.81c-1.06,17.4-2.12,34.79-3.18,52.19-.3,4.96-.6,9.92-.91,14.88h60c-2.72-20.25-3.35-40.76-1.85-61.14.43-5.8,1.03-11.58,1.79-17.34l-30,30c32.58.44,65.17.88,97.75,1.33,32.58.44,65.17.88,97.75,1.33l27.35.37c4.56.06,9.12.12,13.67.19l6.58.09c2.08.03,4.2-.07,6.27.19l-7.98-1.07c.61.1,1.17.25,1.74.48l-7.17-3.02c.33.17.6.34.9.56l-6.07-4.69c.19.15.35.33.51.51l-4.69-6.07c.22.3.39.58.55.91l-3.02-7.17c.23.58.36,1.14.45,1.76l-1.07-7.98c.26,2.41.08,4.89.06,7.3-.02,2.62-.03,5.23-.05,7.85-.04,5.32-.07,10.64-.11,15.95-.07,10.55-.14,21.1-.21,31.66-.04,5.99-.08,11.99-.12,17.98,7.34-9.64,14.68-19.29,22.02-28.93-14.51,2.16-29.03,4.3-43.57,6.26l7.98-1.07c-20.97,2.82-42.01,5.25-63.12,6.75-20.86,1.48-41.81,2.05-62.72,1.12-11.7-.52-23.38-1.51-34.99-3.06l7.98,1.07c-13.14-1.77-26.18-4.25-39.02-7.56-3.99-1.25-7.98-1.43-11.96-.54-3.99.18-7.71,1.37-11.15,3.56-3.5,1.89-6.3,4.46-8.42,7.73-2.65,2.9-4.44,6.3-5.37,10.2l-1.07,7.98c.02,5.42,1.38,10.46,4.1,15.14l4.69,6.07c3.74,3.72,8.16,6.29,13.24,7.72,17.92,4.62,36.21,7.5,54.59,9.57,15.85,1.79,31.81,2.56,47.77,2.57,32.07.03,64.07-2.99,95.85-7.06,20.42-2.62,40.8-5.57,61.16-8.6l7.17-3.02c3.5-1.89,6.3-4.46,8.42-7.73,1.86-1.87,3.14-4.08,3.86-6.62,1.88-3.58,2.74-7.43,2.58-11.56.15-22.37.3-44.74.45-67.11.02-2.79.04-5.57.06-8.36.03-4.89.06-9.98-1.47-14.67-1.89-5.83-4.44-10.69-8.9-15l-3.04-2.35c-1.1-.87-2.2-1.72-3.32-2.56-.2-.12-.4-.23-.61-.35l-3.58-1.51c-1.3-.56-2.6-1.11-3.91-1.65-.29-.09-.57-.18-.87-.25-5.08-1.11-9.74-1.3-14.79-1.37-11.14-.15-22.28-.3-33.43-.45-22.37-.3-44.74-.61-67.11-.91-22.37-.3-44.74-.61-67.11-.91-22.37-.3-44.74-.61-67.11-.91-2.79-.04-5.57-.08-8.36-.11-4.13-.16-7.98.71-11.56,2.58-3.72,1.21-6.94,3.28-9.65,6.2l-4.69,6.07c-2.71,4.68-4.08,9.73-4.1,15.14-2.69,20.25-3.29,40.77-1.76,61.14.44,5.8,1.05,11.58,1.82,17.34-.16,4.13.71,7.98,2.58,11.56,1.21,3.72,3.28,6.94,6.2,9.65,2.72,2.93,5.94,4.99,9.65,6.2,3.58,1.88,7.43,2.74,11.56,2.58l7.98-1.07c5.08-1.43,9.49-4,13.24-7.72l4.69-6.07c2.71-4.68,4.08-9.73,4.1-15.14,1.06-17.4,2.12-34.79,3.18-52.19.3-4.96.6-9.92.91-14.88.16-4.13-.71-7.98-2.58-11.56-1.21-3.72-3.28-6.94-6.2-9.65-2.72-2.93-5.94-4.99-9.65-6.2-3.58-1.88-7.43-2.74-11.56-2.58l-7.98,1.07c-5.08,1.43-9.49,4-13.24,7.72l-4.69,6.07c-2.71,4.68-4.08,9.73-4.1,15.14h0Z"/>
      <path class="cls-3" d="m2522.58,1896.42c2.26.6,4.47,1.35,6.62,2.25l-7.17-3.02c4.22,1.79,8.15,4.14,11.79,6.92l-6.07-4.69c4.78,3.71,8.96,8.09,12.67,12.86l-4.69-6.07c6.5,8.45,11.49,17.96,15.65,27.76l-3.02-7.17c2.4,5.69,4.52,11.5,6.47,17.36,2.34,7.08,4.33,14.29,5.34,21.69l-1.07-7.98c.83,6.29.85,12.6.04,18.89l1.07-7.98c-1.01,7.47-3.13,14.73-6.06,21.67l3.02-7.17c-3.78,8.86-8.82,17.11-14.7,24.73l4.69-6.07c-9.52,12.26-20.95,22.83-32.71,32.9-3.36,2.88-6.75,5.72-10.14,8.56-2.93,2.72-4.99,5.94-6.2,9.65-1.88,3.58-2.74,7.43-2.58,11.56-.16,4.13.71,7.98,2.58,11.56,1.21,3.72,3.28,6.94,6.2,9.65l6.07,4.69c4.68,2.71,9.73,4.08,15.14,4.1l7.98-1.07c5.08-1.43,9.49-4,13.24-7.72,13.41-11.24,26.92-22.56,38.32-35.9,4.34-5.08,8.46-10.38,12.33-15.83,2.45-3.45,4.72-7.02,6.77-10.71,3.22-5.78,5.74-11.87,8.25-17.99,1.59-3.88,2.93-7.87,3.96-11.93,1.62-6.42,2.49-13.1,3.09-19.67.39-4.22.39-8.46,0-12.68-.65-7.08-1.65-14.23-3.35-21.15-1.1-4.51-2.47-8.94-3.96-13.34-3.14-9.28-6.81-18.4-10.88-27.32-2.94-6.46-6.3-12.75-10.28-18.63-3.32-4.91-6.96-9.64-10.82-14.14-2.19-2.55-4.54-4.97-7.07-7.18-4.31-3.77-8.89-7.38-13.77-10.4s-10.52-5.31-15.94-7.35c-1.59-.6-3.21-1.11-4.85-1.55-3.99-1.25-7.98-1.43-11.96-.54-3.99.18-7.71,1.37-11.15,3.56-3.5,1.89-6.3,4.46-8.42,7.73-2.65,2.9-4.44,6.3-5.37,10.2l-1.07,7.98c.02,5.42,1.38,10.46,4.1,15.14l4.69,6.07c3.74,3.72,8.16,6.29,13.24,7.72h0Z"/>
      <path class="cls-3" d="m1333.5,1521.75c-4.71-4.66-9.1-9.62-13.15-14.86l4.69,6.07c-8.25-10.7-15.06-22.46-20.33-34.89l3.02,7.17c-5.56-13.2-9.36-27.09-11.29-41.28l1.07,7.98c-1.82-13.65-1.9-27.5-.08-41.16l-1.07,7.98c1.77-13.05,5.29-25.79,10.39-37.92l-3.02,7.17c5.35-12.66,12.36-24.56,20.75-35.44l-4.69,6.07c8.34-10.76,18.01-20.46,28.77-28.81l-6.07,4.69c10.47-8.09,21.92-14.86,34.1-20.01l-7.17,3.02c1.51-.63,3.03-1.25,4.56-1.83,3.9-.93,7.3-2.72,10.2-5.37,3.27-2.12,5.84-4.92,7.73-8.42,2.19-3.44,3.38-7.16,3.56-11.15.89-3.99.71-7.98-.54-11.96l-3.02-7.17c-2.67-4.51-6.25-8.1-10.76-10.76l-7.17-3.02c-5.32-1.43-10.63-1.43-15.95,0-11.6,4.45-22.94,9.58-33.46,16.21-4.26,2.69-8.38,5.59-12.37,8.66-5.83,4.49-11.62,8.97-17.01,13.98-9.11,8.47-16.93,18.03-24.35,28-5.94,7.98-11.14,16.52-15.49,25.47-3.28,6.74-6.21,13.68-8.82,20.7-1.74,4.66-3.25,9.4-4.51,14.21s-2.34,9.95-3.11,14.99c-1.18,7.68-2.22,15.41-2.61,23.17-.66,13.07.68,25.93,2.6,38.85,1.54,10.35,4.09,20.55,7.6,30.41,4.31,12.12,9.57,24.1,16.15,35.18,2.67,4.49,5.56,8.85,8.67,13.05,4.54,6.14,9.24,12.22,14.39,17.87,1.74,1.91,3.53,3.77,5.37,5.59,2.72,2.93,5.94,4.99,9.65,6.2,3.58,1.88,7.43,2.74,11.56,2.58,4.13.16,7.98-.71,11.56-2.58,3.72-1.21,6.94-3.28,9.65-6.2l4.69-6.07c2.71-4.68,4.08-9.73,4.1-15.14l-1.07-7.98c-1.43-5.08-4-9.49-7.72-13.24h0Z"/>
      <path class="cls-3" d="m1367.42,1258.64c-.38-.03-.76-.08-1.13-.12l7.98,1.07c-2.1-.3-4.12-.87-6.09-1.68l7.17,3.02c-2.54-1.09-4.87-2.54-7.07-4.22l6.07,4.69c-4.82-3.76-8.8-8.46-12.52-13.28l4.69,6.07c-10.86-14.11-21.04-28.85-29.25-44.68-2.32-4.48-4.48-9.05-6.44-13.7l3.02,7.17c-5.04-12.01-8.71-24.57-10.47-37.5l1.07,7.98c-1.35-10.2-1.51-20.53-.15-30.73l-1.07,7.98c1.27-9.24,3.85-18.17,7.46-26.77l-3.02,7.17c5.78-13.62,13.7-26.28,21.94-38.52,2.05-3.05,4.17-6.04,6.41-8.95l-4.69,6.07c4.2-5.43,8.82-10.56,14.24-14.79l-6.07,4.69c3.22-2.49,6.69-4.61,10.43-6.22l-7.17,3.02c2.3-.96,4.66-1.71,7.09-2.24,3.9-.93,7.3-2.72,10.2-5.37,3.27-2.12,5.84-4.92,7.73-8.42,2.19-3.44,3.38-7.16,3.56-11.15.89-3.99.71-7.98-.54-11.96l-3.02-7.17c-2.67-4.51-6.25-8.1-10.76-10.76l-7.17-3.02c-5.32-1.43-10.63-1.43-15.95,0-2.13.46-4.21,1.09-6.24,1.89-4.18,1.66-8.52,3.34-12.47,5.58-1.88,1.07-3.67,2.26-5.39,3.56-3.62,2.74-7.32,5.45-10.66,8.54s-6.18,6.28-8.93,9.72c-4.29,5.37-8.46,10.84-12.3,16.54-5.63,8.35-11.05,16.9-15.83,25.78-3.57,6.64-6.52,13.51-9.42,20.48-2,4.82-3.73,9.75-5.03,14.8-1.91,7.41-2.91,15.08-3.7,22.67-.54,5.18-.69,10.39-.5,15.6.28,7.74,1.35,15.48,2.57,23.12.83,5.18,1.96,10.31,3.36,15.37,3.39,12.22,8.36,24.09,13.91,35.46,4.5,9.22,9.72,18.08,15.37,26.64,6.9,10.45,14.41,20.52,22.2,30.32,2.8,3.51,5.77,6.92,9.17,9.87,2.65,2.3,5.5,4.4,8.3,6.5.91.68,1.84,1.33,2.8,1.93,3.87,2.39,8.27,4.11,12.51,5.62s9.31,1.93,13.81,2.34c4.13.16,7.98-.71,11.56-2.58,3.72-1.21,6.94-3.28,9.65-6.2,2.93-2.72,4.99-5.94,6.2-9.65,1.88-3.58,2.74-7.43,2.58-11.56l-1.07-7.98c-1.43-5.08-4-9.49-7.72-13.24l-6.07-4.69c-4.68-2.71-9.73-4.08-15.14-4.1h0Z"/>
      <path class="cls-3" d="m2422.41,1038.68c17.33,14.15,32.99,30.21,46.69,47.9l-4.69-6.07c13.85,18.06,25.56,37.67,34.44,58.64l-3.02-7.17c7.42,17.8,12.71,36.38,15.29,55.5l-1.07-7.98c2.05,16.03,2.15,32.19.08,48.22l1.07-7.98c-2.38,17.35-7.32,34.13-14.03,50.28l3.02-7.17c-7.96,18.82-18.15,36.54-29.48,53.52-7.03,10.53-4.69,27.86,4.69,36.35,8.37,7.58,16.03,15.86,22.97,24.77l-4.69-6.07c10.18,13.28,18.61,27.74,25.19,43.12l-3.02-7.17c6.65,15.84,11.25,32.41,13.62,49.43l-1.07-7.98c2.2,16.69,2.17,33.49-.06,50.17l1.07-7.98c-2.41,17.17-7.07,33.88-13.8,49.85l3.02-7.17c-6.49,15.08-14.75,29.28-24.72,42.33l4.69-6.07c-5.03,6.48-10.43,12.62-16.23,18.43-8.56,8.57-10.85,21.75-6.2,32.77,4.64,11,15.34,18.27,27.42,18.44,1.49.02,2.95.11,4.43.27l-7.98-1.07c3.2.45,6.24,1.28,9.23,2.5l-7.17-3.02c3.26,1.44,6.25,3.26,9.07,5.44l-6.07-4.69c3.46,2.79,6.5,5.96,9.26,9.45l-4.69-6.07c4.77,6.22,8.5,13.08,11.56,20.28l-3.02-7.17c6.27,15.24,9.38,31.75,11.58,48.01l-1.07-7.98c3.19,24.57,3.15,49.42-.04,73.99l1.07-7.98c-3.37,25.04-9.97,49.5-19.77,72.79l3.02-7.17c-3.05,7.14-6.38,14.15-9.99,21.02-7.3,13.88-4,33.25,10.76,41.05,13.84,7.31,33.25,4.07,41.05-10.76,21.43-40.74,33.52-85.45,35.92-131.41,1.19-22.84-.67-45.6-4.39-68.14-3.32-20.17-8.7-40.41-19.08-58.21-13.57-23.28-35.91-40.75-63.7-41.13,7.07,17.07,14.14,34.14,21.21,51.21,32.34-32.38,55.2-75.77,62.08-121.14,1.91-12.57,3.32-25.17,3.19-37.9-.13-12.6-1.64-25.21-3.78-37.62-3.8-22.08-11.69-43.52-21.94-63.39-11.64-22.55-27.71-43.46-46.53-60.49l4.69,36.35c29.71-44.51,51.29-95.88,49-150.29-2.09-49.77-20.7-98.32-49.66-138.6-16.42-22.84-35.2-43.71-57.01-61.52-6.35-5.19-12.71-8.79-21.21-8.79-7.36,0-16.15,3.27-21.21,8.79s-9.14,13.22-8.79,21.21c.34,7.48,2.73,16.27,8.79,21.21h0Z"/>
      <path class="cls-3" d="m1360.06,1021.88l-.61-.25,7.17,3.02c-6.07-2.58-11.75-5.93-16.98-9.95l6.07,4.69c-5.55-4.32-10.49-9.31-14.83-14.85l4.69,6.07c-4.72-6.12-8.62-12.78-11.68-19.88l3.02,7.17c-3.08-7.31-5.22-14.96-6.3-22.82l1.07,7.98c-.93-7.18-.97-14.42,0-21.61l-1.07,7.98c.99-6.92,2.94-13.6,5.64-20.05l-3.02,7.17c3.4-7.93,7.88-15.29,13.12-22.14l-4.69,6.07c9.27-11.97,20.58-22.13,32.53-31.37l-6.07,4.69c11.82-9.09,24.24-17.4,36.72-25.54,13.81-9,27.89-17.6,42.49-25.27,8.19-4.3,16.53-8.29,25.05-11.91l-7.17,3.02c27.03-11.39,55.59-18.01,84.6-21.92l-7.98,1.07c31.45-4.18,63.26-5.72,94.95-6.65,32.67-.96,65.38-.82,98.04.43,18.5.71,36.99,1.78,55.46,3.19,7.32.56,16.17-3.75,21.21-8.79s9.12-13.74,8.79-21.21-2.9-15.81-8.79-21.21l-6.07-4.69c-4.68-2.71-9.73-4.08-15.14-4.1-50.42-3.85-101.02-5.09-151.57-3.67-24.61.69-49.26,1.84-73.78,4.12-26.02,2.41-52.15,5.95-77.45,12.59-47.34,12.42-89.75,37.13-129.87,64.49-18.11,12.35-36.33,25.51-51.19,41.75-8.07,8.82-15.65,18.54-21.33,29.11-5.47,10.19-10.14,21.43-12.04,32.91-1.09,6.59-2.05,13.36-2.09,20.07s.93,13.42,1.89,20.09c1.58,10.96,5.48,21.09,10.03,31.15s11.11,19.1,18.28,27.45,15.95,15.41,25.21,21.07c5.62,3.43,11.66,5.86,17.74,8.38,3.99,1.25,7.98,1.43,11.96.54,3.99-.18,7.71-1.37,11.15-3.56,6.22-3.64,12.16-10.78,13.79-17.93,1.75-7.68,1.37-16.3-3.02-23.12l-4.69-6.07c-3.74-3.72-8.16-6.29-13.24-7.72h0Z"/>
      <path class="cls-3" d="m2068.31,822.17c5.2-1.18,10.44-2.12,15.72-2.85l-7.98,1.07c26.96-3.59,54.23-1.43,81.13,1.6s55.42,6.62,83.09,10.17c15.66,2.01,31.32,4.06,46.97,6.17l-7.98-1.07c34.64,4.66,69.76,8.58,103.45,18.28,9.44,2.72,18.73,5.92,27.78,9.71l-7.17-3.02c6.32,2.68,12.5,5.71,17.96,9.92l-6.07-4.69c2.76,2.19,5.23,4.64,7.38,7.42l-4.69-6.07c2.47,3.29,4.44,6.87,6.07,10.65l-3.02-7.17c4.95,11.81,7.24,24.96,8.96,37.58l-1.07-7.98c1.72,13,2.17,26.15.47,39.17l1.07-7.98c-1.23,9-3.51,17.79-7.02,26.17l3.02-7.17c-2.97,6.95-6.72,13.51-11.33,19.5l4.69-6.07c-3.75,4.79-8,9.12-12.78,12.88l6.07-4.69c-1.61,1.24-3.26,2.41-4.96,3.52-6.52,4.23-11.69,10.31-13.79,17.93-1.25,3.99-1.43,7.98-.54,11.96.18,3.99,1.37,7.71,3.56,11.15,4.13,6.41,10.28,12.04,17.93,13.79s16.32,1.38,23.12-3.02c8.36-5.42,16.36-11.9,22.68-19.66s12.26-15.99,16.42-25.31c4.21-9.44,7.91-18.89,9.82-29.07,2.22-11.76,3.44-23.79,3.05-35.76-.39-12-2.06-24.03-4.24-35.82-1.58-8.53-3.37-17.18-6.54-25.28-2.33-5.96-4.73-12.16-8.33-17.52s-7.46-10.48-12.3-14.55-10.22-8.18-15.97-11.26c-5.83-3.12-12.04-5.58-18.14-8.09-34.75-14.28-72.29-19.48-109.25-24.55-42.03-5.76-84.1-11.24-126.21-16.35-19.34-2.35-38.69-4.88-58.13-6.3-9.66-.7-19.34-1.1-29.03-.97-11.98.17-23.77,1.44-35.62,3.14-4.77.68-9.51,1.57-14.22,2.64-3.9.93-7.3,2.72-10.2,5.37-3.27,2.12-5.84,4.92-7.73,8.42-2.19,3.44-3.38,7.16-3.56,11.15-.89,3.99-.71,7.98.54,11.96,2.35,7.26,6.85,14.26,13.79,17.93,7.32,3.87,14.96,4.88,23.12,3.02h0Z"/>
      <path class="cls-3" d="m1258.56,1522.43c36.63,61.43,111.48,90.1,179.1,100.25,75.02,11.26,150.66,2.27,220.52-27.5,33.32-14.2,63.47-34.14,95.11-51.55,7.64-4.21,15.38-8.25,23.27-11.97,1.97-.93,3.95-1.84,5.94-2.73,1.71-.77,7.23-4.38.86-.41,3.67-2.29,8.86-3.46,12.95-4.83,7.42-2.49,14.99-4.55,22.66-6.12,1.92-.39,3.84-.75,5.78-1.08l1.93-.32c3.3-.49,2.57-.41-2.17.25,1.31.41,4.41-.49,5.81-.61,2.58-.22,5.16-.39,7.74-.48,3.85-.14,7.71-.13,11.56.04,1.91.09,3.82.21,5.73.38l1.9.18c3.3.38,2.53.27-2.31-.35,2.67,1.55,8.04,1.46,11.13,2.25,1.83.47,3.65.98,5.45,1.54,1.1.34,6.23,2.91,7.12,2.51l-3.68-1.57c1.16.51,2.3,1.04,3.44,1.59,1.71.83,3.4,1.72,5.06,2.65,3.36,1.89,6.5,4.06,9.67,6.24,5.54,3.83-5.06-4.47-.05.03,1.42,1.28,2.91,2.49,4.33,3.77,3.33,3.01,6.52,6.16,9.64,9.38,11.2,11.5,21.54,23.92,33.96,34.16,15.26,12.58,31.78,22.12,50.83,27.84,34.14,10.25,71.47,6.93,105.51-1.91,33.72-8.75,67.17-23.15,97.18-40.79,31.95-18.78,62.01-44.92,77.87-79.09,8.61-18.57,14.27-38.2,14.14-58.85s-6.41-41.16-15.86-59.86c-15.93-31.52-41.62-61.99-72.55-79.58-16.15-9.18-33.79-13.42-51.32-18.94-1.88-.59-3.75-1.2-5.61-1.87l-1.84-.67c-3.02-1.19-2.44-.91,1.74.82-.22.44-9.42-5.07-10.24-5.54-5.78-3.3,4.56,4.43.45.42-1.12-1.09-2.28-2.1-3.36-3.23-2.15-2.27-2.73-5.27.75,1.35-.93-1.77-2.33-3.38-3.34-5.14-.73-1.27-1.26-2.91-2.11-4.09,4.07,5.65,1.86,4.77.73,1.45-1.01-2.96-1.65-5.96-2.33-9-1.3-5.84.52,7.76.25,1.77-.07-1.57-.21-3.14-.24-4.71s0-3.16.08-4.74c.05-1.05.13-2.11.23-3.16.36-3.19.2-2.1-.46,3.26.98-2.96,1.25-6.24,2.18-9.26.45-1.45,1.28-3.02,1.56-4.49-1.31,7.01-1.97,4.39-.46,1.38,1.43-2.84,3.13-5.46,4.86-8.12,3.21-4.92-4.92,5.28-.77,1.12,1.63-1.64,3.14-3.38,4.84-4.96,1.16-1.08,2.94-2.14,3.91-3.37l-3.34,2.61c.92-.67,1.86-1.32,2.82-1.95,2.89-1.9,5.92-3.44,8.95-5.08,5.51-2.99-6.78,2.37-.85.28,1.63-.57,3.24-1.19,4.89-1.72,3.89-1.24,7.83-2.04,11.81-2.9,6.29-1.35-7.48.58-1.05.11,1.75-.13,3.49-.31,5.25-.39,3.51-.17,7.03-.15,10.54.05,1.62.09,3.66.62,5.26.44l-4.49-.63c1.16.17,2.31.36,3.46.57,4.02.73,7.99,1.71,11.88,2.94,1.82.57,3.62,1.19,5.4,1.86l1.77.68c2.99,1.21,2.35.93-1.93-.82.42,1.32,8.63,4.29,10.12,5.13,3.3,1.87,6.51,3.88,9.64,6.03.38.26,4.43,3.44,4.63,3.32-3.54-2.78-4.06-3.17-1.56-1.19.99.8,1.97,1.61,2.94,2.44,5.84,4.96,11.31,10.36,16.43,16.06,2.57,2.86,5,5.83,7.44,8.8,4.31,5.26-3.94-5.53-.03.02,1.47,2.08,2.99,4.13,4.43,6.24,20.48,29.93,33.11,63.79,48.6,96.33,16.12,33.89,45.33,64.72,86.2,59.85,21.69-2.58,40.38-12.53,59.58-22.33,11.58-5.91,21.46-14.31,32.27-21.44,2.5-1.65,5.05-3.24,7.7-4.65,1.23-.65,2.53-1.17,3.74-1.83-7.58,4.12-5.03,2.1-2.33,1.26s6.6-.34-3.37.25c3.22-.19,5.04,1.42-3.65-.76,4.61,1.16-7.24-4.02-3.18-1.41-7.25-4.65-4.54-3.82-2.47-1.59,10.72,11.51,31.73,11.65,42.43,0,11.31-12.32,11.44-30.15,0-42.43-15.75-16.91-38.27-16.03-57.7-7.13-11.71,5.36-21.57,13.97-32.17,21.14-5.49,3.72-11.3,6.64-17.17,9.68-3.79,1.96-7.58,3.94-11.42,5.81-1.59.77-4.04,2.48-5.79,2.71,3.93-1.62,4.38-1.81,1.33-.59-1.3.5-2.6.98-3.92,1.42-1.95.66-3.91,1.26-5.91,1.76l-1.98.47c-3.31.62-2.63.6,2.02-.06.02.08-5.59.33-5.99.33l-2-.06c-3.33-.28-2.68-.17,1.95.33,0-.04-4.86-1.29-5.28-1.4-5.8-1.52,6.1,3.53,1.05.41-1.39-.86-2.84-1.71-4.25-2.53-2.53-1.79-1.83-1.22,2.09,1.73-.86-.71-1.69-1.44-2.51-2.19-2.43-2.25-4.36-5.42-6.89-7.47,5.3,4.31,2.42,3.18.58.49-.99-1.45-1.94-2.93-2.85-4.43-3.99-6.51-7.36-13.37-10.51-20.32-7.52-16.55-14.58-33.31-22.55-49.66-15.57-31.94-35.33-63.51-62.96-86.42-28.15-23.34-63.04-39.52-100.39-37.05-36.08,2.39-73.02,19.49-90.66,52.59-15.66,29.38-17.23,69.24,2.29,97.44,12.33,17.81,29.04,28.46,49.25,35.67,7.47,2.67,15.17,4.62,22.78,6.86,3.8,1.12,7.6,2.3,11.32,3.67l1.85.69c3.06,1.22,2.45.96-1.83-.79.05.53,6.08,3,6.81,3.4,3.34,1.82,6.57,3.82,9.7,5.96.44.3,4.3,3.48,4.63,3.34l-3.07-2.35c.99.8,1.97,1.61,2.94,2.44,6.33,5.4,12.16,11.36,17.55,17.69,1.25,1.47,2.45,2.97,3.68,4.45,4.36,5.23-3.95-5.51,0,.02,2.29,3.2,4.6,6.37,6.78,9.64,2.29,3.44,4.48,6.94,6.54,10.52,1.03,1.79,2.03,3.6,2.98,5.43.83,1.58,3.77,5.64,3.61,7.4l-1.4-3.39c.52,1.26,1.02,2.54,1.49,3.82.71,1.92,1.37,3.86,1.96,5.82.32,1.04,3.48,11.68,2.83,11.94l-.5-3.99c.16,1.3.28,2.61.38,3.92.14,1.96.22,3.92.23,5.88s-.04,3.91-.16,5.87c-.08,1.3-.18,2.6-.31,3.9-.38,3.31-.28,2.59.3-2.16-1,.52-2.15,9.97-2.58,11.48-.48,1.67-2.29,10.61-3.85,11.19l1.48-3.52c-.54,1.21-1.09,2.41-1.67,3.6-.87,1.79-1.78,3.56-2.73,5.31-2.23,4.09-4.68,8.05-7.34,11.87l-1.15,1.63c-1.92,2.59-1.55,2.16,1.1-1.29-.62,1.54-2.71,3.35-3.79,4.61-2.64,3.06-5.41,6-8.29,8.83s-5.96,5.64-9.09,8.3c-1.37,1.16-3.13,3.15-4.76,3.9,3.38-2.58,3.77-2.9,1.19-.95-1.1.82-2.21,1.62-3.32,2.41-14.03,9.98-29.23,18.2-44.78,25.54-3.73,1.76-7.49,3.48-11.27,5.15-1.36.6-4.2,1.27-5.25,2.29l3.62-1.53c-1.19.49-2.38.98-3.57,1.46-7.84,3.16-15.79,6.06-23.84,8.63-7.46,2.38-15.01,4.48-22.65,6.21-3.79.86-7.6,1.64-11.43,2.31-1.9.34-3.81.62-5.72.93-3.29.47-2.54.37,2.26-.3-1.27.15-2.54.29-3.81.42-7.52.75-15.08,1.06-22.63.8-3.72-.13-7.4-.47-11.11-.81-6.67-.62,7.22,1.38.68.04-2.4-.49-4.8-.89-7.19-1.45-3.56-.83-7.09-1.82-10.56-2.99-1.14-.38-4.01-2.02-5.16-1.88l3.77,1.62c-1.13-.49-2.25-1-3.35-1.52-3.36-1.6-6.64-3.37-9.81-5.32-1.61-.99-3.19-2.02-4.75-3.1-1.05-.73-2.09-1.48-3.12-2.24,3.52,2.76,4.04,3.14,1.55,1.13-24.89-21.8-44.29-50.77-74.75-65.62-34.91-17.02-74.05-18.02-111.4-9.13-36.15,8.6-69.07,27.42-100.83,46.09-15.71,9.24-31.4,18.56-47.72,26.71-3.75,1.87-7.53,3.68-11.34,5.42-1.89.86-3.79,1.69-5.69,2.54-6.6,2.96,6.25-2.45-.49.2-8.38,3.29-16.78,6.47-25.35,9.23-16.47,5.3-33.31,9.42-50.36,12.35-3.97.68-8.28,1.83-12.31,1.9,8.42-.16,1.7-.26-.27-.03-2.06.24-4.13.46-6.2.66-8.96.88-17.95,1.43-26.94,1.66-17.3.44-34.63-.33-51.82-2.31-2.2-.25-8.35.22-.26.03-1.95.05-4.23-.61-6.16-.91-4.1-.64-8.19-1.35-12.27-2.13-8.83-1.69-17.61-3.71-26.29-6.06-7.9-2.14-15.72-4.55-23.45-7.24-3.59-1.25-7.15-2.57-10.69-3.96l-1.77-.7c-2.99-1.22-2.36-.94,1.88.84-1.77-1.4-4.91-2.14-6.98-3.1-6.92-3.2-13.69-6.72-20.24-10.61-3.25-1.94-6.46-3.96-9.59-6.09-1.56-1.06-3.1-2.14-4.63-3.25-1.01-.74-2.02-1.49-3.02-2.25,3.59,2.79,4.14,3.19,1.65,1.2-5.67-4.91-11.19-9.84-16.18-15.45-1.24-1.39-2.41-2.84-3.63-4.25-4.32-5.03,3.85,5.66.15.15-2.1-3.12-4.22-6.2-6.15-9.44-8.04-13.48-27.35-19.6-41.05-10.76s-19.36,26.62-10.76,41.05h0Z"/>
      <path class="cls-3" d="m1872.03,914.23c-26.09-10.2-52.77-19-80.08-25.28-29.45-6.77-59.91-11.01-90.17-10.89-16.27.07-32.39,1.7-48.46,4.15-11.59,1.77-23.04,4.34-34.22,7.88-23.17,7.33-45.78,17.86-65.77,31.73-10.82,7.51-21.29,15.76-30.8,24.9s-17.75,19.23-25.46,29.82c-6.33,8.7-11.84,18.01-16.3,27.81-5.44,11.95-10.18,24.17-12.95,37.03-1.78,8.25-2.98,16.71-3.49,25.12s.46,16.9,1.72,25.41,4.26,15.93,7.76,23.58c1.24,2.71,2.71,5.31,4.41,7.76,2.82,4.06,5.84,8.08,9.24,11.68,1.75,1.85,3.65,3.53,5.64,5.11,3.91,3.08,7.8,6.25,12.13,8.74,3.26,1.87,6.7,3.28,10.16,4.74s6.94,2.91,10.58,3.95c7.38,2.11,15.2,3.11,22.82,3.68,5.31.4,10.65.28,15.94-.32,7.71-.87,15.43-1.88,22.88-4.09,8.36-2.48,16.49-5.96,24.36-9.66,11.76-5.52,22.72-12.57,33.44-19.86,10.95-7.45,21.73-15.13,32.98-22.13s22.87-13.48,34.79-19.3c5.84-2.85,11.75-5.54,17.73-8.07l-7.17,3.02c24.13-10.13,49.4-17.48,75.36-20.97l-7.98,1.07c21.03-2.76,42.31-2.87,63.34-.07l-7.98-1.07c18.81,2.56,37.25,7.43,54.75,14.8l-7.17-3.02c14.2,6.05,27.66,13.72,39.97,23.04l7.17,3.02,7.98,1.07,7.98-1.07c3.9-.93,7.3-2.72,10.2-5.37,2.25-1.33,4.05-3.13,5.38-5.38,1.86-1.87,3.14-4.08,3.86-6.62,2.43-5.77,3.77-13.45,1.51-19.53-8.06-21.76-16.39-43.55-26.79-64.32-4.63-9.23-9.73-18.24-15.56-26.76-7.04-10.3-14.84-20.37-23.87-29.01-9.58-9.17-20.57-17.48-32.55-23.26-3.44-2.19-7.16-3.38-11.15-3.56-3.99-.89-7.98-.71-11.96.54-6.96,1.92-14.5,7.3-17.93,13.79-3.68,6.96-5.52,15.4-3.02,23.12,2.3,7.09,6.82,14.57,13.79,17.93,6.21,2.99,12.04,6.63,17.5,10.82l-6.07-4.69c8.48,6.59,15.89,14.38,22.47,22.86l-4.69-6.07c13.17,17.13,22.87,36.63,31.26,56.46l-3.02-7.17c4.91,11.63,9.36,23.45,13.75,35.29,14.69-11.29,29.38-22.59,44.07-33.88-9.92-7.51-20.59-13.99-31.81-19.36-13.08-6.26-26.71-11.65-40.7-15.52-14.41-3.98-29.21-6.3-44.06-7.86-12.21-1.28-24.52-1.59-36.79-.96-57.06,2.93-112.05,23.12-160.5,52.81-24.6,15.08-47.01,34.27-73.73,45.66l7.17-3.02c-8.13,3.41-16.51,6-25.26,7.21l7.98-1.07c-7.39.97-14.85,1.05-22.25.1l7.98,1.07c-5.99-.82-11.84-2.3-17.43-4.6l7.17,3.02c-4.51-1.9-8.75-4.3-12.63-7.28l6.07,4.69c-3.23-2.53-6.12-5.4-8.66-8.62l4.69,6.07c-2.71-3.54-4.91-7.38-6.66-11.48l3.02,7.17c-2.09-5.09-3.43-10.4-4.18-15.85l1.07,7.98c-1.02-7.99-.79-16.05.25-24.03l-1.07,7.98c1.68-12.23,5.15-24.18,9.93-35.54l-3.02,7.17c5.43-12.78,12.58-24.73,21.06-35.72l-4.69,6.07c9.82-12.63,21.31-23.87,33.96-33.66l-6.07,4.69c14.61-11.24,30.65-20.51,47.61-27.72l-7.17,3.02c18.64-7.86,38.16-12.98,58.19-15.7l-7.98,1.07c26.93-3.58,54.21-2.97,81.11.6l-7.98-1.07c31.37,4.24,62.09,12.39,91.96,22.75,8.45,2.93,16.84,6.05,25.17,9.31,3.99,1.25,7.98,1.43,11.96.54,3.99-.18,7.71-1.37,11.15-3.56,6.22-3.64,12.16-10.78,13.79-17.93,1.75-7.68,1.37-16.3-3.02-23.12l-4.69-6.07c-3.74-3.72-8.16-6.29-13.24-7.72h0Z"/>
      <path class="cls-3" d="m1329.81,1811.54c-25.45,7.44-42.18,27.68-54.93,49.85-12.56,21.84-24.35,45.32-29.84,70.05-5.4,24.32-5.34,49.94,2.54,73.74,7.45,22.48,19.83,42.45,35.7,59.95,32.41,35.73,78.31,55.77,124.69,65.96,49.77,10.94,101.5,14.43,152.15,19.19,101.96,9.58,204.27,15.76,306.68,17.35,102.59,1.59,205.29-1.44,307.51-10.39,103.48-9.05,206.59-23.93,308.11-46,12.38-2.69,24.74-5.5,37.08-8.4,15.29-3.6,25.81-21.89,20.95-36.9-5.16-15.95-20.52-24.81-36.9-20.95-48.15,11.33-96.67,21.03-145.46,29.16-12.09,2.01-24.19,3.93-36.31,5.76-5.86.88-11.73,1.74-17.6,2.58-2.74.39-5.48.78-8.22,1.16-1.57.22-3.13.44-4.7.65-.9.12-7.61,1.04-3.06.42,4.16-.57-4.2.55-5.42.71-3.14.41-6.27.81-9.41,1.21-6.27.8-12.55,1.57-18.83,2.32-12.17,1.45-24.35,2.81-36.54,4.08-98.07,10.24-196.69,14.86-295.27,14.98-98.84.12-197.66-4.25-296.19-12.01-49.13-3.87-98.23-8.48-147.2-14.04-5.13-.58-10.26-1.19-15.39-1.84-1.46-.18-2.95-.33-4.4-.57,7.2,1.19,2.98.41,1.39.17-3.29-.49-6.58-.95-9.86-1.47-11.27-1.77-22.5-3.87-33.6-6.52-11.02-2.63-21.92-5.8-32.56-9.71-2.4-.88-4.77-1.81-7.15-2.75-5.64-2.23,1.04.19,1.11.47-.07-.26-3.41-1.53-4-1.8-5-2.31-9.92-4.81-14.7-7.54-4.03-2.3-7.96-4.77-11.79-7.4-1.79-1.23-3.55-2.51-5.31-3.79-4.09-2.98,1.23.85,1.64,1.28-1.04-1.08-2.45-1.99-3.61-2.96-7.38-6.23-13.99-13.12-20.26-20.45-3.29-3.85,1.07,1.18,1.26,1.73-.28-.83-1.76-2.36-2.19-2.96-1.25-1.74-2.46-3.51-3.63-5.3-2.82-4.33-5.4-8.82-7.69-13.45-.53-1.07-3.56-7.78-1.49-3.01s-.7-2.02-1.1-3.16c-1.69-4.83-3.04-9.77-4.03-14.79-.18-.89-.32-1.78-.49-2.67-.98-5.03.38,2.08.3,2.59.35-2.14-.49-5.06-.58-7.27s-.12-4.62-.06-6.93c.06-2.45,1.33-7.37.67-9.71.2.69-1.22,7.12-.16,1.57.2-1.06.38-2.12.59-3.18.55-2.83,1.2-5.63,1.94-8.41,1.48-5.6,3.3-11.11,5.36-16.52.39-1.02.8-2.03,1.19-3.05,2.19-5.62-.17,1.02-.48,1.11.79-.23,3.24-7.09,3.67-7.98,2.53-5.28,5.25-10.48,8.06-15.62,2.42-4.42,4.88-8.82,7.49-13.12,1.11-1.84,2.25-3.66,3.44-5.45.68-1.02,1.41-2.02,2.08-3.04,3.4-5.23-3.2,3.67-.83.95,1.39-1.59,2.71-3.24,4.18-4.77,1.24-1.29,4.57-3.3,5.22-4.84-.33.78-6,3.82-1.82,1.58,1-.54,2.05-1.19,3.01-1.78.83-.5,3.78-1.71-.4.03-4.92,2.04.6-.02,1.43-.26,15.05-4.4,26-21.32,20.95-36.9s-20.77-25.67-36.9-20.95h0Z"/>
    </g>
  </g>
</svg>