<?xml version="1.0" encoding="UTF-8"?>
<svg id="Layer_1" data-name="Layer 1" xmlns="http://www.w3.org/2000/svg" viewBox="0 0 2791.44 2638.84">
  <defs>
    <style>
      .cls-1 {
        fill: #999;
      }

      .cls-1, .cls-2, .cls-3 {
        stroke-width: 0px;
      }

      .cls-2 {
        fill: #1a1a1a;
      }

      .cls-4 {
        opacity: .8;
      }

      .cls-5 {
        opacity: .4;
      }

      .cls-3 {
        fill: #fff;
      }
    </style>
  </defs>
  <path class="cls-2" d="m1200.5,36.8c-153.03.25-298.46,57.9-429.44,133.13-118.92,68.3-231.41,150.07-332.92,242.28C234.36,597.32,77.61,834.95,24.79,1107.93c-51.88,268.11-21.62,552.09,84.15,803.72,97.75,232.53,259.71,439.83,478.61,569.27,246.69,145.87,543.07,179.57,823.73,145.8,143.56-17.28,284.69-49.75,421.91-95.24,128.76-42.68,255.07-96.03,371.78-165.52,114.93-68.43,222.04-153.38,307.38-256.86,95.31-115.56,161.65-250.45,205.88-393.12,42.97-138.58,68.37-284.75,72.47-429.83,3.97-140.49-13.6-284.52-64.54-416.13-26.11-67.45-59.57-131.3-101.95-189.97-43.93-60.81-94.36-116.36-148.65-168.04-106.51-101.4-223.55-194.01-347.46-273.24C1876.36,77.78,1576.86-25.65,1275.08,5.55c-74.89,7.74-148.68,22.7-219.95,47.12-22.22,7.61-39.23,31.24-31.43,55.36,7.13,22.03,31.51,39.6,55.36,31.43,34.82-11.93,70.28-21.84,106.29-29.52,17.18-3.67,34.46-6.84,51.81-9.55,4.73-.74,9.47-1.44,14.22-2.11-8.35,1.16,7.22-.89,7.04-.87,9.52-1.15,19.05-2.16,28.6-3.03,73.46-6.71,147.59-5.3,220.85,3.08,4,.46,7.99.94,11.98,1.44,1.6.2,11.7,1.56,4.79.6,9.57,1.32,19.11,2.79,28.64,4.36,19.07,3.14,38.06,6.74,56.95,10.78,34.62,7.41,68.92,16.32,102.79,26.63,34.45,10.49,68.45,22.47,101.94,35.7,8.58,3.39,17.14,6.86,25.66,10.42-5.9-2.47,1.21.52,2,.86,4.24,1.83,8.47,3.66,12.7,5.51,16.89,7.43,33.64,15.17,50.25,23.21,63.77,30.86,125.42,66.04,184.9,104.49,56.78,36.71,116.02,79.69,163.71,117.63,55.61,44.24,109.77,90.59,161.11,139.74,25.7,24.61,50.63,50.04,74.32,76.6,11.3,12.66,22.32,25.58,33,38.77,11.61,14.34,17.03,21.44,29.27,38.77,19.7,27.9,37.7,56.98,53.63,87.19,7.23,13.71,14.05,27.64,20.46,41.75,1.83,4.02,3.6,8.07,5.38,12.12,5.84,13.22-3.04-7.89,2.32,5.53,3.28,8.2,6.54,16.39,9.62,24.67,23.67,63.6,39.57,130.02,48.87,197.21-1.3-9.39.63,5.15.7,5.7.36,2.95.71,5.9,1.04,8.86,1.01,8.87,1.91,17.75,2.7,26.65,1.59,17.84,2.75,35.71,3.52,53.6,1.47,34.44,1.47,68.94.14,103.39-1.3,33.79-3.86,67.53-7.54,101.15-.9,8.21-1.87,16.42-2.9,24.61-.06.45-2.03,15.13-.75,5.89-.41,2.97-.83,5.94-1.25,8.91-2.55,17.78-5.41,35.52-8.55,53.21-12.45,70.14-29.07,139.66-50.61,207.57-10.85,34.19-22.99,67.98-36.59,101.17-4.31,10.51-10.67,25.02-17.92,40.56-7.89,16.9-16.19,33.6-24.93,50.07-16.02,30.19-33.51,59.6-52.55,87.99-9.23,13.75-18.82,27.26-28.77,40.5-.32.43-8.85,11.5-3.28,4.36-2.6,3.34-5.24,6.66-7.89,9.96-5.29,6.6-10.68,13.12-16.14,19.58-41.8,49.33-88.56,94.34-138.76,135.06-5.47,4.43-10.98,8.8-16.51,13.15-10.93,8.58,6.85-5.04-4.28,3.28-3.39,2.53-6.75,5.09-10.15,7.61-13.6,10.1-27.42,19.91-41.42,29.45-26.95,18.36-54.59,35.69-82.77,52.08-55.52,32.29-113.14,60.9-172.03,86.49-3.94,1.71-7.88,3.4-11.83,5.09-12.99,5.56,7.99-3.26-5.07,2.12-6.61,2.72-13.22,5.45-19.86,8.13-15.91,6.41-31.9,12.62-47.97,18.63-30.69,11.49-61.65,22.27-92.81,32.41-65.15,21.21-131.23,39.62-198.05,54.78-33.35,7.57-66.89,14.33-100.58,20.21-16.47,2.87-32.97,5.54-49.51,7.99-4.51.67-9.02,1.29-13.53,1.95-14.81,2.16,8.74-1.07-6.09.84-9.03,1.16-18.06,2.29-27.11,3.33-68.98,7.95-138.45,11.93-207.89,11.11-34.41-.41-68.82-1.99-103.11-4.88-16.33-1.38-32.63-3.04-48.9-5.01-2.95-.36-5.9-.74-8.86-1.1-14.55-1.81,8.78,1.37-5.71-.78-9.55-1.42-19.09-2.83-28.61-4.4-66.45-11.01-132.04-27.41-195.58-49.81-15.38-5.42-30.64-11.19-45.76-17.32-.2-.08-13.73-5.66-5.72-2.3-4.11-1.73-8.2-3.52-12.29-5.31-8.18-3.6-16.32-7.31-24.4-11.12-29.31-13.82-57.98-29.03-85.81-45.64-25.81-15.4-50.91-31.98-75.21-49.66-5.27-3.83-10.5-7.71-15.69-11.64-.93-.7-11.16-8.69-3.28-2.49-3.07-2.41-6.14-4.83-9.19-7.26-11.68-9.34-23.15-18.95-34.42-28.79-44.59-38.96-85.86-81.69-123.55-127.35-4.98-6.04-9.9-12.12-14.76-18.26-1.62-2.05-3.23-4.1-4.84-6.16-8.02-10.23,5.26,7.12-2.52-3.31-9.39-12.58-18.72-25.17-27.7-38.04-17.26-24.72-33.59-50.1-48.97-76.03-15.44-26.03-29.93-52.63-43.47-79.7-6.49-12.98-12.76-26.07-18.82-39.26-2.75-6-5.46-12.03-8.13-18.07-1.6-3.63-3.16-7.27-4.75-10.9-4.27-9.76,2.06,5.14-1.64-3.86-23.2-56.4-42.92-114.1-58.54-173.05-7.81-29.49-14.64-59.23-20.47-89.18-2.79-14.31-5.35-28.67-7.68-43.06-1.06-6.54-2.07-13.09-3.03-19.64-.58-3.93-1.13-7.87-1.68-11.8,1.53,10.88-.74-5.85-.97-7.73-7.66-62.1-10.91-124.68-10.02-187.24,1.11-78.03,7.83-148.78,22.27-221.75,14.06-71.04,34.87-140.57,62.58-207.48-3.14,7.58.37-.87,1.18-2.73,1.38-3.2,2.78-6.39,4.19-9.57,3.38-7.64,6.86-15.23,10.42-22.79,7.11-15.1,14.56-30.03,22.33-44.8,14.25-27.06,29.58-53.55,45.88-79.42,17.08-27.1,35.22-53.52,54.29-79.25,2.49-3.36,5-6.71,7.53-10.05.39-.51,8.79-11.47,3.15-4.19,4.28-5.52,8.61-11,12.97-16.45,10.5-13.1,21.23-26.01,32.19-38.73,42.21-48.99,87.71-95.13,135.69-138.47,23.56-21.29,47.72-41.91,72.4-61.89,6.04-4.89,12.1-9.73,18.2-14.54,3.33-2.62,6.66-5.23,10-7.83-6.13,4.77,1.12-.86,2.63-2.01,12.89-9.86,25.91-19.55,39.04-29.07,54.47-39.5,110.93-76.5,169.29-110.01,31.43-18.05,63.5-35.01,96.35-50.35,31.06-14.51,57.71-25.41,93.9-37.29,32.44-10.65,65.56-19.29,99.18-25.28,28.2-5.02,59.37-7.87,94.59-7.93,23.54-.04,46.09-20.67,45-45s-19.77-45.04-45-45h0Z"/>
  <g class="cls-4">
    <path class="cls-1" d="m1200.71,81.88c-168.84-.44-328.57,75.66-471.22,165.99C455.91,421.1,213.3,664.06,108.12,970.31c-46.59,135.65-64.99,280.11-62.6,423.52,7.11,427.89,222.4,864.93,599.27,1067.68,347.81,187.12,776.14,154.84,1152.33,34.56,276.93-88.54,549.54-230.09,719.91-465.69,104.07-143.92,164.39-315.59,199.18-489.76,52.48-262.71,45.46-550.22-92.4-779.93-65.2-108.64-156.46-199.23-252.17-282.26-179.35-155.58-380.56-290.29-605.21-367.14-224.65-76.85-474.74-92.74-699.13-15.15"/>
    <path class="cls-2" d="m1200.71,36.88c-153.03.25-298.46,57.9-429.44,133.13-118.92,68.3-231.41,150.07-332.92,242.28C234.56,597.4,77.82,835.02,24.99,1108.01c-51.88,268.11-21.62,552.09,84.15,803.72,97.75,232.53,259.71,439.83,478.61,569.27,246.69,145.87,543.07,179.57,823.73,145.8,143.56-17.28,284.69-49.75,421.91-95.24,128.76-42.68,255.07-96.03,371.78-165.52s222.04-153.38,307.38-256.86c95.31-115.56,161.65-250.45,205.88-393.12,42.97-138.58,68.37-284.75,72.47-429.83,3.97-140.49-13.6-284.52-64.54-416.13-26.11-67.45-59.57-131.3-101.95-189.97-43.93-60.81-94.36-116.36-148.65-168.04-106.51-101.4-223.55-194.01-347.46-273.24C1876.57,77.86,1577.06-25.57,1275.28,5.63c-74.89,7.74-148.68,22.7-219.95,47.12-22.22,7.61-39.23,31.24-31.43,55.36,7.13,22.03,31.51,39.6,55.36,31.43,34.82-11.93,70.28-21.84,106.29-29.52,17.18-3.67,34.46-6.84,51.81-9.55,4.73-.74,9.47-1.44,14.22-2.11-8.35,1.16,7.22-.89,7.04-.87,9.52-1.15,19.05-2.16,28.6-3.03,73.46-6.71,147.59-5.3,220.85,3.08,4,.46,7.99.94,11.98,1.44,1.6.2,11.7,1.56,4.79.6,9.57,1.32,19.11,2.79,28.64,4.36,19.07,3.14,38.06,6.74,56.95,10.78,34.62,7.41,68.92,16.32,102.79,26.63,34.45,10.49,68.45,22.47,101.94,35.7,8.58,3.39,17.14,6.86,25.66,10.42-5.9-2.47,1.21.52,2,.86,4.24,1.83,8.47,3.66,12.7,5.51,16.89,7.43,33.64,15.17,50.25,23.21,63.77,30.86,125.42,66.04,184.9,104.49,56.78,36.71,116.02,79.69,163.71,117.63,55.61,44.24,109.77,90.59,161.11,139.74,25.7,24.61,50.63,50.04,74.32,76.6,11.3,12.66,22.32,25.58,33,38.77,11.61,14.34,17.03,21.44,29.27,38.77,19.7,27.9,37.7,56.98,53.63,87.19,7.23,13.71,14.05,27.64,20.46,41.75,1.83,4.02,3.6,8.07,5.38,12.12,5.84,13.22-3.04-7.89,2.32,5.53,3.28,8.2,6.54,16.39,9.62,24.67,23.67,63.6,39.57,130.02,48.87,197.21-1.3-9.39.63,5.15.7,5.7.36,2.95.71,5.9,1.04,8.86,1.01,8.87,1.91,17.75,2.7,26.65,1.59,17.84,2.75,35.71,3.52,53.6,1.47,34.44,1.47,68.94.14,103.39-1.3,33.79-3.86,67.53-7.54,101.15-.9,8.21-1.87,16.42-2.9,24.61-.06.45-2.03,15.13-.75,5.89-.41,2.97-.83,5.94-1.25,8.91-2.55,17.78-5.41,35.52-8.55,53.21-12.45,70.14-29.07,139.66-50.61,207.57-10.85,34.19-22.99,67.98-36.59,101.17-4.31,10.51-10.67,25.02-17.92,40.56-7.89,16.9-16.19,33.6-24.93,50.07-16.02,30.19-33.51,59.6-52.55,87.99-9.23,13.75-18.82,27.26-28.77,40.5-.32.43-8.85,11.5-3.28,4.36-2.6,3.34-5.24,6.66-7.89,9.96-5.29,6.6-10.68,13.12-16.14,19.58-41.8,49.33-88.56,94.34-138.76,135.06-5.47,4.43-10.98,8.8-16.51,13.15-10.93,8.58,6.85-5.04-4.28,3.28-3.39,2.53-6.75,5.09-10.15,7.61-13.6,10.1-27.42,19.91-41.42,29.45-26.95,18.36-54.59,35.69-82.77,52.08-55.52,32.29-113.14,60.9-172.03,86.49-3.94,1.71-7.88,3.4-11.83,5.09-12.99,5.56,7.99-3.26-5.07,2.12-6.61,2.72-13.22,5.45-19.86,8.13-15.91,6.41-31.9,12.62-47.97,18.63-30.69,11.49-61.65,22.27-92.81,32.41-65.15,21.21-131.23,39.62-198.05,54.78-33.35,7.57-66.89,14.33-100.58,20.21-16.47,2.87-32.97,5.54-49.51,7.99-4.51.67-9.02,1.29-13.53,1.95-14.81,2.16,8.74-1.07-6.09.84-9.03,1.16-18.06,2.29-27.11,3.33-68.98,7.95-138.45,11.93-207.89,11.11-34.41-.41-68.82-1.99-103.11-4.88-16.33-1.38-32.63-3.04-48.9-5.01-2.95-.36-5.9-.74-8.86-1.1-14.55-1.81,8.78,1.37-5.71-.78-9.55-1.42-19.09-2.83-28.61-4.4-66.45-11.01-132.04-27.41-195.58-49.81-15.38-5.42-30.64-11.19-45.76-17.32-.2-.08-13.73-5.66-5.72-2.3-4.11-1.73-8.2-3.52-12.29-5.31-8.18-3.6-16.32-7.31-24.4-11.12-29.31-13.82-57.98-29.03-85.81-45.64-25.81-15.4-50.91-31.98-75.21-49.66-5.27-3.83-10.5-7.71-15.69-11.64-.93-.7-11.16-8.69-3.28-2.49-3.07-2.41-6.14-4.83-9.19-7.26-11.68-9.34-23.15-18.95-34.42-28.79-44.59-38.96-85.86-81.69-123.55-127.35-4.98-6.04-9.9-12.12-14.76-18.26-1.62-2.05-3.23-4.1-4.84-6.16-8.02-10.23,5.26,7.12-2.52-3.31-9.39-12.58-18.72-25.17-27.7-38.04-17.26-24.72-33.59-50.1-48.97-76.03-15.44-26.03-29.93-52.63-43.47-79.7-6.49-12.98-12.76-26.07-18.82-39.26-2.75-6-5.46-12.03-8.13-18.07-1.6-3.63-3.16-7.27-4.75-10.9-4.27-9.76,2.06,5.14-1.64-3.86-23.2-56.4-42.92-114.1-58.54-173.05-7.81-29.49-14.64-59.23-20.47-89.18-2.79-14.31-5.35-28.67-7.68-43.06-1.06-6.54-2.07-13.09-3.03-19.64-.58-3.93-1.13-7.87-1.68-11.8,1.53,10.88-.74-5.85-.97-7.73-7.66-62.1-10.91-124.68-10.02-187.24,1.11-78.03,7.83-148.78,22.27-221.75,14.06-71.04,34.87-140.57,62.58-207.48-3.14,7.58.37-.87,1.18-2.73,1.38-3.2,2.78-6.39,4.19-9.57,3.38-7.64,6.86-15.23,10.42-22.79,7.11-15.1,14.56-30.03,22.33-44.8,14.25-27.06,29.58-53.55,45.88-79.42,17.08-27.1,35.22-53.52,54.29-79.25,2.49-3.36,5-6.71,7.53-10.05.39-.51,8.79-11.47,3.15-4.19,4.28-5.52,8.61-11,12.97-16.45,10.5-13.1,21.23-26.01,32.19-38.73,42.21-48.99,87.71-95.13,135.69-138.47,23.56-21.29,47.72-41.91,72.4-61.89,6.04-4.89,12.1-9.73,18.2-14.54,3.33-2.62,6.66-5.23,10-7.83-6.13,4.77,1.12-.86,2.63-2.01,12.89-9.86,25.91-19.55,39.04-29.07,54.47-39.5,110.93-76.5,169.29-110.01,31.43-18.05,63.5-35.01,96.35-50.35,31.06-14.51,57.71-25.41,93.9-37.29,32.44-10.65,65.56-19.29,99.18-25.28,28.2-5.02,59.37-7.87,94.59-7.93,23.54-.04,46.09-20.67,45-45s-19.77-45.04-45-45h0Z"/>
  </g>
  <path class="cls-2" d="m555.47,598.02c8.91,39.69,18.24,79.28,28,118.76s19.94,78.85,30.54,118.11c10.55,39.06,21.51,78.01,32.89,116.84,11.43,39.01,23.28,77.89,35.55,116.64,12.26,38.74,24.94,77.35,38.04,115.82,1.63,4.78,3.26,9.57,4.91,14.35,3.82,11.14,10.3,20.82,20.68,26.89,5.17,3.29,10.74,5.07,16.73,5.34,5.98,1.34,11.96,1.07,17.94-.8,10.89-3.52,21.39-10.27,26.89-20.68,5.46-10.33,8.46-23.24,4.54-34.68-13.19-38.43-25.98-77-38.35-115.71-12.37-38.72-24.33-77.57-35.86-116.54-11.48-38.8-22.55-77.72-33.2-116.75-10.71-39.23-20.99-78.57-30.85-118.03s-19.3-79.02-28.32-118.69c-1.12-4.93-2.24-9.87-3.34-14.81-1.39-5.86-4.08-10.96-8.05-15.3-3.17-4.9-7.38-8.76-12.63-11.59-5.17-3.29-10.74-5.07-16.73-5.34-5.98-1.34-11.96-1.07-17.94.8-10.89,3.52-21.39,10.27-26.89,20.68l-4.54,10.75c-2.14,7.98-2.14,15.95,0,23.93h0Z"/>
  <path class="cls-2" d="m444.88,1017.57c50.17-24.4,100.4-48.7,151.35-71.43,14.44-6.44,28.94-12.75,43.51-18.9l-10.75,4.54c37.88-15.97,76.23-30.86,115.22-43.92,38.66-12.95,77.94-24.1,117.8-32.68,22.31-4.8,44.8-8.77,67.42-11.82-3.99.54-7.98,1.07-11.96,1.61,25.81-3.45,51.77-5.68,77.8-6.54,11.77-.39,23.39-4.75,31.82-13.18,4.39-4.08,7.49-8.9,9.3-14.48,2.82-5.36,4.11-11.14,3.88-17.34-.52-11.64-4.34-23.71-13.18-31.82-8.64-7.93-19.78-13.58-31.82-13.18-42.98,1.41-85.9,6.55-128.19,14.22-38.69,7.02-76.89,16.61-114.49,28.08-38.06,11.61-75.53,25.12-112.49,39.87-40.31,16.08-80.14,33.42-119.58,51.54-36.19,16.63-72.07,33.91-107.89,51.31-4.4,2.14-8.79,4.27-13.19,6.41-5.24,2.83-9.45,6.69-12.63,11.59-3.98,4.35-6.66,9.45-8.05,15.3-1.88,5.98-2.14,11.96-.8,17.94.27,5.99,2.05,11.57,5.34,16.73,6.19,9.61,15.42,18.07,26.89,20.68,3.99.54,7.98,1.07,11.96,1.61,8.12-.03,15.69-2.07,22.71-6.14h0Z"/>
  <g class="cls-5">
    <path class="cls-3" d="m1648.82,825.08c-10.81,25.16-20.84,50.36-28.93,76.53-6.29,20.33-11.72,40.92-16.83,61.58-10.21,41.29-19.1,82.93-30.95,123.8-6.63,22.87-14.23,45.46-23.46,67.42,2.57-6.09,5.14-12.18,7.71-18.27-9.84,23.2-21.56,45.55-35.73,66.42,46.61,19.65,93.22,39.3,139.82,58.95,1.28-4.25,1.5-8.83,2.08-13.17.53-3.94,1.56-8.74,1.52-13.03-.03-3.39-1.5-11.56-1.43-11.09-.17-1.27-.76-8.06-1.58-11.52-1-4.23-3.15-8.26-4.8-12.17-1.36-3.21-2.98-8.13-5.15-11.58-3.72-5.91-8.59-11.7-13.05-17.03-3.66-4.38-8.21-7.39-12.77-10.91s-8.75-7.13-13.74-9.84c-7.95-4.31-16.91-7.71-25.11-10.87-5.04-1.94-10.24-3.4-15.57-4.33-31.22-5.45-61.98-12.05-92.28-21.46-17.17-5.33-34.1-11.39-50.78-18.11,18.72,24.59,37.44,49.18,56.16,73.77.29-2.18.58-4.35.87-6.53-.91,6.78-1.82,13.56-2.73,20.34,9.55-70.69,22.73-140.89,39.52-210.22,16.79-69.33,37.18-137.79,61.04-205.01,13.4-37.75,27.92-75.1,43.48-112.01-2.57,6.09-5.14,12.18-7.71,18.27,11.12-26.3,22.44-52.91,39.83-75.79-3.99,5.16-7.97,10.32-11.96,15.48,6.58-8.51,13.94-16.32,22.44-22.94-5.16,3.99-10.32,7.97-15.48,11.96,6.18-4.69,12.81-8.62,19.95-11.67-6.09,2.57-12.18,5.14-18.27,7.71,7.25-2.97,14.76-4.86,22.52-5.92l-20.34,2.73c22.75-2.74,45.4,1.58,68.12,2.43,29.05,1.09,57.98-4.96,86.64-8.84-6.78.91-13.56,1.82-20.34,2.73,17.23-2.29,34.58-3.8,51.9-1.52l-20.34-2.73c11.39,1.66,22.25,5.08,32.84,9.52-6.09-2.57-12.18-5.14-18.27-7.71,31.34,13.42,60.09,32.52,93.28,41.68,32.92,9.09,67.54,8.53,101.17,12.98l-20.34-2.73c12.72,1.76,25.25,4.48,37.15,9.43-6.09-2.57-12.18-5.14-18.27-7.71,13.84,5.99,25.17,15.47,37.33,24.16,5.91,4.23,12.01,7.99,18.66,10.93,8.11,3.59,17.97,8.5,27.22,10.6,3.52.8,7.06,1.15,10.45,2.46-6.09-2.57-12.18-5.14-18.27-7.71.81.35,1.58.78,2.3,1.3-5.16-3.99-10.32-7.97-15.48-11.96.89.71,1.59,1.38,2.33,2.24-3.99-5.16-7.97-10.32-11.96-15.48.61.88,1.07,1.69,1.51,2.67-2.57-6.09-5.14-12.18-7.71-18.27.36,1.01.6,1.95.8,3.01-.91-6.78-1.82-13.56-2.73-20.34.22,1.87.19,3.65,0,5.52l2.73-20.34c-.58,4-1.81,7.78-3.36,11.5,2.57-6.09,5.14-12.18,7.71-18.27-11.23,25.62-23.2,50.86-32.39,77.33-7.32,21.1-13.25,42.68-17.72,64.55-9.73,47.65-13.34,96.33-16.95,144.74-1.79,23.98-3.73,47.95-6.93,71.79.91-6.78,1.82-13.56,2.73-20.34-4.57,33.43-11.79,66.55-24.79,97.78,2.57-6.09,5.14-12.18,7.71-18.27-2.17,5.14-4.48,10.2-6.93,15.21,46.61,19.65,93.22,39.3,139.82,58.95,24.68-77.55,49.41-155.27,66.7-234.88,4.91-22.63,9.2-45.39,12.74-68.28-49.18-13.56-98.36-27.12-147.53-40.67-11.2,76.08-26.14,151.59-44.8,226.2-18.65,74.6-40.99,148.27-66.91,220.67-14.57,40.71-30.29,81-47.1,120.84,2.57-6.09,5.14-12.18,7.71-18.27-7.67,18.15-15.57,36.2-23.68,54.15,46.61,6.09,93.22,12.18,139.82,18.27-3.79-11.89-8.81-23.5-14.21-34.73-2.75-5.71-5.92-11.22-9.49-16.45-10.31-15.12-21.96-30.3-36.12-42.14-14.38-12.03-29.34-23.65-46.62-31.17-12.24-5.33-24.4-10.78-37.34-14.17-7.14-1.87-14.4-3.24-21.69-4.33-23.62-3.55-47.35-5.46-71.01-8.55,6.78.91,13.56,1.82,20.34,2.73-19.2-2.59-37.82-7.21-55.74-14.61,6.09,2.57,12.18,5.14,18.27,7.71-13.94-5.88-27.61-13.06-39.67-22.24,5.16,3.99,10.32,7.97,15.48,11.96-4.56-3.58-8.72-7.49-12.32-12.04,3.99,5.16,7.97,10.32,11.96,15.48-2.6-3.46-4.73-7.13-6.49-11.08,2.57,6.09,5.14,12.18,7.71,18.27-2.38-5.75-3.84-11.7-4.75-17.84.91,6.78,1.82,13.56,2.73,20.34-1.74-13.27-1.03-26.69-.65-40.03.43-15.25.86-30.5,1.32-45.75.92-30.8,1.93-61.6,3.17-92.39,2.47-61.25,5.86-122.48,11.33-183.54,3.08-34.35,6.83-68.65,11.41-102.84-.91,6.78-1.82,13.56-2.73,20.34,2.65-19.66,5.57-39.28,8.82-58.84,1.57-9.47,3.31-18.9,4.92-28.36,1.81-10.62,3.33-21.32,4.39-32.05.43-4.39.61-8.81.27-13.21-.8-10.54-1.57-21.53-4.9-31.64-2.43-7.38-5.72-15.05-9.17-21.99-.92-1.86-1.96-3.58-3.15-5.28-5.07-7.24-10.8-15.79-17.94-21.72-15.45-12.85-22.25-17.16-41-24.02-8.96-3.28-18.78-4.13-28.25-4.58-.77-.04-1.53,0-2.3.02-6.31.22-15.24,1.7-21.48,2.84-8.01,1.46-15.62,5.5-22.8,8.85-17,7.94-31.5,24.53-40.91,40.36-4.32,7.27-7.64,15.22-11.21,22.86-3.92,8.4-7.77,16.83-11.55,25.29-10.13,22.71-19.83,45.63-29.18,68.68-14.05,34.6-26.89,69.69-38.51,105.18-11.53,35.23-21.85,70.86-30.92,106.8-10.35,41-19.94,82.46-25.07,124.47-.85,6.96-1.22,14.03-.46,21.01,1.02,9.42,1.72,19.68,4.37,29.03.42,1.48.94,2.9,1.49,4.34,2.84,7.46,5.72,15.36,9.68,22.34.75,1.32,1.61,2.53,2.49,3.76,4.4,6.11,8.94,12.63,14.2,18.07,6.64,6.86,14.48,13.15,22.95,17.58,16.76,8.77,36.13,14.97,55.31,13.74,21.08-1.35,36.94-5.72,55.76-15.33,2.92-1.49,5.59-3.3,8.2-5.27,7.48-5.61,16.13-11.35,22.39-18.69s12.64-15.2,17.64-23.55c5.31-8.86,8.88-18.84,12.77-28.32,3.08-7.51,5.36-15.26,7.25-23.14,4.19-17.45,7.77-35.03,12.15-52.44s9.43-35.87,14.73-53.63c10.46-35.02,22.43-69.58,35.89-103.56,3.36-8.49,6.82-16.95,10.37-25.37-2.57,6.09-5.14,12.18-7.71,18.27,12.02-28.47,25.04-56.51,39.1-84.03,12.4-24.27,24.92-49.01,41.61-70.68-3.99,5.16-7.97,10.32-11.96,15.48,7.11-9.1,14.99-17.55,24.1-24.69-5.16,3.99-10.32,7.97-15.48,11.96,5.92-4.52,12.24-8.38,19.07-11.37-6.09,2.57-12.18,5.14-18.27,7.71,5.8-2.43,11.76-4.16,17.97-5.17-31.37-17.81-62.74-35.62-94.1-53.43l.21,1.51c-.91-6.78-1.82-13.56-2.73-20.34,5.6,41.97,3.98,84.39-1.64,126.27.91-6.78,1.82-13.56,2.73-20.34-11.01,80.67-35.78,158.54-51.87,238.2-9.26,45.82-16.4,92.73-17.24,139.54-.47,25.92,1.32,51.75,5.99,77.29,2.72,14.9,8.7,28.9,15.19,42.54,1.85,3.89,4.06,7.57,6.6,11.04,5.88,8.05,12.26,17.3,19.93,24.21,21.77,19.62,48.3,33.3,77.28,38.24,24.38,4.16,48.9,5.37,73.36,8.58-6.78-.91-13.56-1.82-20.34-2.73,11.81,1.61,23.5,4.02,34.55,8.61-6.09-2.57-12.18-5.14-18.27-7.71,5.41,2.33,10.17,5.54,15.36,8.26,6.56,3.44,13.88,6.57,20.85,8.93,4.64,1.57,9.1,1.72,14.15,2.39,3.18.43,7.73,1.42,11.53,1.41l1.38-.15c6.78-.91,13.56-1.82,20.34-2.73.52-.14,1.03-.27,1.54-.42,3.7-1.07,15.9-6.18,19.23-8.11.59-.34,1.16-.7,1.73-1.06,2.62-1.67,13.58-10.03,15.89-12.27,3.1-3,5.41-6.56,8.08-10.02s5.34-6.36,7.39-10.05c1.77-3.18,3.64-8.43,4.58-10.65,1.22-2.9,3.27-7.16,4.48-10.73,2.13-6.3,2.77-13.04,3.8-19.58,5-31.68,10-63.36,15-95.04,10.15-64.28,20.29-128.57,30.44-192.85,10.11-64.03,20.21-128.06,30.32-192.09,3.36-21.31,7.23-42.65,9.48-64.1.3-2.89.49-5.81.42-8.72-.04-1.54-.17-3.05-.34-4.58-.88-7.93-1.49-16.35-3.44-24.11-.36-1.44-.86-2.79-1.4-4.17-2.64-6.77-5.19-14.17-8.84-20.5s-9.06-12.58-13.74-18.08c-1-1.18-2.06-2.21-3.21-3.24-13.81-12.32-22.39-16.22-39.34-23.02-2.92-1.17-5.87-2.07-8.96-2.7-13.31-2.71-26.96-3.82-40.43-5.6-15.82-2.09-31.64-4.19-47.46-6.28-7.44-.98-15.41-2.95-22.93-2.65-.72.03-1.42.12-2.14.19-6.42.58-15.54,1.33-21.73,3.03-3.42.94-8.77,3.59-10.5,4.32,1.63-.69-7.38,2.72-10.1,4.3-13.9,8.08-22.41,17.61-31.26,30.61-.67.99-1.24,1.94-1.79,3-3.23,6.25-6.57,13.94-8.62,20.71-.32,1.04-.52,2.1-.73,3.17-1.48,7.68-2.54,15.86-3.13,23.68-.47,6.24.45,12.51.88,18.72,2.18,31.48.9,63.11-2.39,94.47-.84,8.01-1.82,16.01-2.9,23.99.91-6.78,1.82-13.56,2.73-20.34-6.01,44.11-15.11,87.73-23.84,131.36-8.83,44.16-17.67,88.32-26.5,132.49-5.05,25.24-10.1,50.47-15.15,75.71-3.19,10.17-3.64,20.34-1.37,30.51.46,10.18,3.49,19.66,9.08,28.44,3.99,5.16,7.97,10.32,11.96,15.48,6.93,7.46,15.14,12.73,24.62,15.82,5.97,3.46,12.4,5.2,19.31,5.22,10.17,2.28,20.34,1.82,30.51-1.37,19.08-6.17,35.27-17.64,45.72-35.16,3.76-6.3,7.52-12.61,11.28-18.91,5.59-8.78,8.62-18.26,9.08-28.44,2.28-10.17,1.82-20.34-1.37-30.51-2.37-9.96-6.93-18.63-13.69-26.02-5.39-8.33-12.55-14.9-21.46-19.7-17.75-9.38-39.26-14.08-58.95-7.71-19.08,6.17-35.27,17.64-45.72,35.16-3.76,6.3-7.52,12.61-11.28,18.91,46.61,19.65,93.22,39.3,139.82,58.95,12.74-63.66,25.47-127.33,38.21-190.99,13.75-68.72,28.41-137.51,34.29-207.47,1.49-17.7,2.26-35.48,2.07-53.24-.1-8.89-.44-17.77-1.05-26.64-.48-6.99-1.47-13.97-.65-20.97-.91,6.78-1.82,13.56-2.73,20.34.32-2.15.81-4.2,1.6-6.23-2.57,6.09-5.14,12.18-7.71,18.27.56-1.24,1.2-2.36,2-3.47-3.99,5.16-7.97,10.32-11.96,15.48.66-.78,1.31-1.42,2.1-2.08l-15.48,11.96c.88-.61,1.7-1.08,2.68-1.53l-18.27,7.71c.89-.36,1.81-.61,2.75-.76l-20.34,2.73c6.81-.78,14.01,1,20.75,1.89,7.19.95,14.38,1.9,21.57,2.86,14.54,1.92,29.07,3.82,43.61,5.77-6.78-.91-13.56-1.82-20.34-2.73,5.36.75,10.63,1.7,15.64,3.78l-18.27-7.71c2,.94,3.82,2.01,5.59,3.34-5.16-3.99-10.32-7.97-15.48-11.96,1.34,1.15,2.51,2.36,3.61,3.74-3.99-5.16-7.97-10.32-11.96-15.48.98,1.39,1.79,2.8,2.51,4.33-2.57-6.09-5.14-12.18-7.71-18.27.97,2.38,1.6,4.77,2.02,7.3-.91-6.78-1.82-13.56-2.73-20.34.75,5.78.35,11.52-.4,17.27l2.73-20.34c-4.98,35.57-11.17,71.01-16.77,106.49-5.63,35.64-11.25,71.27-16.88,106.91-11.24,71.23-22.49,142.47-33.73,213.7-3.14,19.87-6.27,39.74-9.41,59.62-1.55,9.79-3.09,19.58-4.64,29.38-1.33,8.44-1.87,17.51-5.11,25.5,2.57-6.09,5.14-12.18,7.71-18.27-.62,1.35-1.3,2.6-2.13,3.82l11.96-15.48c-.66.84-1.31,1.55-2.1,2.28l15.48-11.96c-.85.65-1.63,1.13-2.6,1.59l18.27-7.71c-.66.27-1.34.47-2.04.59,6.78-.91,13.56-1.82,20.34-2.73-.91.16-1.82.19-2.74.11,6.78.91,13.56,1.82,20.34,2.73-1.43-.22-2.63-.54-3.99-1.03,6.09,2.57,12.18,5.14,18.27,7.71-4.42-1.95-8.34-4.83-12.64-7.02-9.18-4.67-18.79-8.61-28.48-12.09-8.04-2.88-16.41-4.7-24.84-6.01-23.67-3.68-47.44-5.06-71.14-8.21,6.78.91,13.56,1.82,20.34,2.73-11.02-1.52-21.95-3.76-32.24-8.1l18.27,7.71c-5.12-2.24-9.92-4.96-14.39-8.3,5.16,3.99,10.32,7.97,15.48,11.96-4.13-3.2-7.79-6.81-11.05-10.89,3.99,5.16,7.97,10.32,11.96,15.48-3.59-4.71-6.47-9.79-8.82-15.23,2.57,6.09,5.14,12.18,7.71,18.27-3.71-9-5.84-18.45-7.18-28.06.91,6.78,1.82,13.56,2.73,20.34-4.89-37.46-2.08-76.26,2.86-113.56l-2.73,20.34c7.55-56.11,21.82-110.98,35.24-165.89,14.77-60.43,27.9-121.41,32.61-183.58,1.17-15.49,1.67-31.04,1.32-46.58-.5-22.31-3.34-44.2-6.38-66.29-2.37-9.96-6.93-18.63-13.69-26.02-5.39-8.33-12.55-14.9-21.46-19.7l-18.27-7.71c-13.56-3.64-27.12-3.64-40.67,0-13.09,2.12-25.45,7.94-37.38,13.37-6.42,2.92-12.32,6.63-17.94,10.88-10.89,8.21-21.6,16.16-30.8,26.2-9.09,9.92-17.21,20.81-25.06,31.72-8.95,12.43-16.51,25.75-23.78,39.21-8.69,16.07-17.03,32.34-25,48.78-34.64,71.37-63.82,145.78-85.64,222.08-5.62,19.63-10.76,39.41-15.41,59.29-4.38,18.7-7.25,38.17-14.65,56,2.57-6.09,5.14-12.18,7.71-18.27-2.63,6.07-5.8,11.76-9.85,17,3.99-5.16,7.97-10.32,11.96-15.48-2.34,2.9-4.91,5.49-7.8,7.83,5.16-3.99,10.32-7.97,15.48-11.96-3.57,2.75-7.38,5.01-11.51,6.8l18.27-7.71c-3.73,1.51-7.52,2.57-11.51,3.13l20.34-2.73c-3.1.34-6.15.36-9.25,0l20.34,2.73c-2.68-.41-5.19-1.08-7.7-2.09l18.27,7.71c-2.16-.96-4.13-2.11-6.05-3.5,5.16,3.99,10.32,7.97,15.48,11.96-2.16-1.7-4.03-3.55-5.74-5.69,3.99,5.16,7.97,10.32,11.96,15.48-1.81-2.45-3.26-5.03-4.46-7.83,2.57,6.09,5.14,12.18,7.71,18.27-1.43-3.64-2.34-7.37-2.91-11.24.91,6.78,1.82,13.56,2.73,20.34-1.05-8.22-.59-16.47.48-24.66-.91,6.78-1.82,13.56-2.73,20.34,3-21.53,8.15-42.93,12.95-64.11,5.06-22.33,10.6-44.55,16.62-66.64,12.09-44.45,26.09-88.38,41.94-131.64,8.91-24.32,18.41-48.41,28.47-72.27-2.57,6.09-5.14,12.18-7.71,18.27,6.15-14.56,12.51-29.04,19.08-43.42,3.17-6.94,6.4-13.86,9.67-20.75,2.97-6.27,5.8-12.66,9.88-18.31l-11.96,15.48c1.57-2.02,3.25-3.83,5.22-5.47-5.16,3.99-10.32,7.97-15.48,11.96,1.7-1.27,3.44-2.29,5.39-3.12-6.09,2.57-12.18,5.14-18.27,7.71,1.49-.53,2.95-.9,4.52-1.14-6.78.91-13.56,1.82-20.34,2.73,1.95-.18,3.8-.14,5.73.11-6.78-.91-13.56-1.82-20.34-2.73,1.95.36,3.78.89,5.62,1.61-6.09-2.57-12.18-5.14-18.27-7.71,2.24.99,4.28,2.18,6.28,3.6-5.16-3.99-10.32-7.97-15.48-11.96,2.31,1.79,4.33,3.75,6.19,6.01-3.99-5.16-7.97-10.32-11.96-15.48,1.77,2.32,3.22,4.71,4.4,7.38-2.57-6.09-5.14-12.18-7.71-18.27,1.3,3.28,2.14,6.61,2.71,10.08l-2.73-20.34c.97,7.27.54,14.48-.41,21.72.91-6.78,1.82-13.56,2.73-20.34-3.66,25.78-8.77,51.36-12.46,77.14-4.55,31.8-8.69,63.68-12.12,95.62-5.59,52.05-9.47,104.28-12.34,156.55-2.88,52.33-4.75,104.72-6.34,157.1-.76,25.05-2.16,50.2-1.99,75.26.04,5.35.31,10.68.93,16,1.32,11.42,2.26,24.4,6.14,35.65,7.55,21.87,18.82,42.8,36.64,58.1,14.11,12.11,29.22,22.82,45.84,31.13s35.63,16.39,54.36,21.67c32.06,9.04,65.76,9.99,98.64,14.34-6.78-.91-13.56-1.82-20.34-2.73,15.34,2.1,30.53,5.23,44.87,11.2l-18.27-7.71c10.08,4.32,19.48,9.89,28.17,16.58-5.16-3.99-10.32-7.97-15.48-11.96,8.62,6.78,16.34,14.53,23.1,23.17-3.99-5.16-7.97-10.32-11.96-15.48,6.67,8.71,12.22,18.12,16.55,28.19-2.57-6.09-5.14-12.18-7.71-18.27,1.52,3.64,2.87,7.32,4.07,11.08,2.57,6.09,5.14,12.18,7.71,18.27,3.99,5.16,7.97,10.32,11.96,15.48,5.16,3.99,10.32,7.97,15.48,11.96,8.78,5.59,18.26,8.62,28.44,9.08,6.78,1.82,13.56,1.82,20.34,0,6.9-.02,13.34-1.76,19.31-5.22,6.48-1.82,12.11-5.1,16.88-9.84,8.33-5.39,14.9-12.55,19.7-21.46,37.45-82.81,70.97-167.46,99.25-253.84,26.39-80.62,48.39-162.68,65.86-245.69,9.8-46.6,18.16-93.49,25.1-140.6,3.19-10.17,3.64-20.34,1.37-30.51-.46-10.18-3.49-19.66-9.08-28.44-4.81-8.91-11.38-16.07-19.7-21.46-7.39-6.76-16.06-11.33-26.02-13.69-19.58-4.46-41.56-3.5-58.95,7.71-5.16,3.99-10.32,7.97-15.48,11.96-9.48,9.55-16.04,20.8-19.67,33.76-12.45,80.51-34.44,159.1-58.52,236.8-6.86,22.15-13.9,44.26-20.93,66.36-3.19,10.17-3.64,20.34-1.37,30.51.46,10.18,3.49,19.66,9.08,28.44,3.99,5.16,7.97,10.32,11.96,15.48,6.93,7.46,15.14,12.73,24.62,15.82,5.97,3.46,12.4,5.2,19.31,5.22,10.17,2.28,20.34,1.82,30.51-1.37,18.17-5.88,37.01-17.4,45.72-35.16,18.86-38.46,31.42-78.47,37.91-120.73,6.53-42.53,9.79-85.2,13.08-128.07,1.59-20.72,3.41-41.44,6.15-62.05-.91,6.78-1.82,13.56-2.73,20.34,6.15-45.55,17.94-90.01,35.75-132.4-2.57,6.09-5.14,12.18-7.71,18.27,3.57-8.43,7.42-16.72,11.35-24.98,4.1-8.61,8.21-17.46,11.08-26.58.48-1.53.88-3.08,1.18-4.66,1.5-7.83,2.98-16.35,3.18-24.33.02-.73-.02-1.46-.05-2.19-.31-6.17-1.55-15.34-2.86-21.4-.15-.68-.28-1.36-.46-2.04-1.42-5.37-5.55-14.26-8.05-19.24-.39-.77-.78-1.5-1.22-2.25-1.98-3.31-9.88-13.57-12.6-16.31-.51-.51-1.02-1-1.55-1.5-3.33-3.11-12.53-10.4-16.48-12.67-8.8-5.05-17.98-8.76-27.81-10.59-4-.75-7.83-1.89-11.61-3.42l18.27,7.71c-12.24-5.27-22.45-13.88-33.12-21.66-15.91-11.59-34.31-19.85-53.15-25.42-19.34-5.72-39.9-7.64-59.89-9.49-14.09-1.3-28.22-2.08-42.25-3.91l20.34,2.73c-14.56-1.98-28.55-5.41-42.14-11.03,6.09,2.57,12.18,5.14,18.27,7.71-31.81-13.43-60.9-33.11-94.59-42.16-13.12-3.52-26.86-5.06-40.34-6.2-8.08-.68-16.21-.57-24.29-.02-22.13,1.52-44.05,5.46-66.01,8.44l20.34-2.73c-14.15,1.89-28.32,3.21-42.61,2.62s-28.58-2.53-42.92-3.15c-7.32-.32-14.67-.29-21.97.47-12.78,1.34-26.46,2.54-38.86,6.56-5.31,1.72-10.41,4.06-15.55,6.23-5.48,2.31-11.07,4.47-16.33,7.27-7.41,3.95-13.86,9.1-20.5,14.23-11.15,8.61-21.11,17.28-29.8,28.42-10.72,13.75-20.94,27.14-29.3,42.41-15.01,27.42-26.33,57.04-38.18,85.87-21.69,52.78-41.18,106.47-58.42,160.87-17.32,54.66-32.37,110.04-45.09,165.95s-23.12,112.35-31.14,169.13c-1.88,13.29-3.65,26.6-5.4,39.91l2.73,20.34c2.37,9.96,6.93,18.63,13.69,26.02,3.4,5.75,7.97,10.32,13.72,13.72,7.39,6.76,16.06,11.33,26.02,13.69,26.94,10.85,54.56,19.94,82.7,27.14,13.93,3.56,27.98,6.66,42.12,9.29,11.78,2.19,23.7,3.4,34.89,7.91-6.09-2.57-12.18-5.14-18.27-7.71,4.17,1.76,8.12,3.85,11.75,6.58l-15.48-11.96c1.86,1.49,3.53,3.07,5.02,4.93-3.99-5.16-7.97-10.32-11.96-15.48.94,1.27,1.72,2.57,2.39,4-2.57-6.09-5.14-12.18-7.71-18.27.57,1.44.95,2.85,1.16,4.39-.91-6.78-1.82-13.56-2.73-20.34.1,1.29.06,2.51-.08,3.79.91-6.78,1.82-13.56,2.73-20.34-.18,1.03-.42,2-.72,3-3.19,10.17-3.64,20.34-1.37,30.51.46,10.18,3.49,19.66,9.08,28.44,3.99,5.16,7.97,10.32,11.96,15.48,6.93,7.46,15.14,12.73,24.62,15.82,5.97,3.46,12.4,5.2,19.31,5.22,10.17,2.28,20.34,1.82,30.51-1.37,6.09-2.57,12.18-5.14,18.27-7.71,11.5-6.8,20.64-15.95,27.44-27.44,18.03-26.53,31.07-55.2,43.44-84.69,9.87-23.52,17.89-47.74,24.85-72.26,14.2-50.04,24.25-101.13,37.92-151.31,7.72-28.34,16.63-56.38,27.99-83.5-2.57,6.09-5.14,12.18-7.71,18.27.56-1.33,1.13-2.65,1.69-3.98,5.59-8.78,8.62-18.26,9.08-28.44,2.28-10.17,1.82-20.34-1.37-30.51-2.37-9.96-6.93-18.63-13.69-26.02-5.39-8.33-12.55-14.9-21.46-19.7-17.75-9.38-39.26-14.08-58.95-7.71l-18.27,7.71c-11.5,6.8-20.64,15.95-27.44,27.44h0Z"/>
  </g>
  <g class="cls-5">
    <path class="cls-3" d="m1098.68,1470.5l9.47-11.65c9.48-9.55,16.04-20.8,19.67-33.76,3.19-10.17,3.64-20.34,1.37-30.51-.46-10.18-3.49-19.66-9.08-28.44-6.8-11.5-15.95-20.64-27.44-27.44-4.44-2.8-9.15-4.45-14.06-6.52-4.51-1.9-9.32-4.38-14.23-5.54-9.85-2.32-21.15-4.41-31.56-3.39-9.94.98-20.73,1.75-30.46,4.93-10.42,3.41-20.7,7.77-30.33,13.04-13.18,7.2-25.27,17.19-36.53,26.91-6.93,5.98-13.59,12.4-19.78,19.14-6.93,7.55-13.03,15.85-19.2,24-2.95,3.9-5.73,7.9-8.07,12.2-4.99,9.16-9.05,18.96-12.35,28.83-3.36,10.02-4.24,21.45-5.28,31.6-.41,4.05-.46,8.05-.06,12.11,1.02,10.31,1.9,21.28,5.05,31.29,2.96,9.41,7.08,18.68,11.43,27.5,2,4.06,4.4,7.92,7.07,11.58,8.58,11.74,17.28,23.44,28.3,32.99,11.2,9.69,23.16,19.03,35.94,26.64,7.75,4.62,15.92,8.47,24.19,12.05,13.87,6.01,27.79,11.97,42.11,16.82,35.23,11.95,71.98,18.47,108.47,25.24,40.6,7.53,81.53,15.39,119.79,31.42l-18.27-7.71c13.28,5.65,26.1,12.25,38.27,20.02l18.27-139.82c-5.9,1.68-11.87,2.93-17.95,3.79,6.78-.91,13.56-1.82,20.34-2.73-12.59,1.61-25.21,1.4-37.8-.18,6.78.91,13.56,1.82,20.34,2.73-23.11-3.13-45.26-10.61-66.68-19.64l18.27,7.71c-14.78-6.3-29.22-13.33-43.58-20.53-12.87,47.52-25.74,95.04-38.61,142.56,12.43-.1,24.8.75,37.12,2.37-6.78-.91-13.56-1.82-20.34-2.73,42.13,5.76,82.32,20.08,122.57,33.2,20,6.52,40.12,12.79,60.61,17.6,26.02,6.11,52.71,9.66,79.35,11.64,22.63,1.68,45.35,2.26,67.87,5.23-6.78-.91-13.56-1.82-20.34-2.73,15.87,2.18,31.53,5.62,46.39,11.7-6.09-2.57-12.18-5.14-18.27-7.71,7.39,3.12,14.45,6.85,21.14,11.27,6.09-46.61,12.18-93.22,18.27-139.82-7.4,1.57-14.85,2.87-22.34,3.89,6.78-.91,13.56-1.82,20.34-2.73-25.43,3.32-51.12,3.3-76.56-.02,6.78.91,13.56,1.82,20.34,2.73-13.27-1.81-26.37-4.5-39.28-8.08v147.53c7.36-2.56,14.9-4.36,22.61-5.46-6.78.91-13.56,1.82-20.34,2.73,13.54-1.78,27.14-1.34,40.65.41-6.78-.91-13.56-1.82-20.34-2.73,24.48,3.33,48.17,10.56,71.87,17.33,29.89,8.53,59.99,15.3,91.13,17.45,18.34,1.27,36.6-1.11,54.66-4.26,18.36-3.2,36.18-10.95,52.69-19.23,16.89-8.47,31.78-20.44,46.44-32.19,10.23-8.19,19.76-17.23,28.93-26.58,21.04-21.43,41.01-43.95,61.37-66.02,10.94-11.86,21.88-23.72,32.83-35.58,13.91-15.08,28.21-30.16,39.14-47.64,1.77-2.83,3.31-5.77,4.67-8.82,3.7-8.3,8.23-16.94,10.25-25.94,1.69-7.53,2.43-15.5,3.25-23.15.18-1.65.34-3.27.3-4.93-.09-4.51-1.08-9.47-1.64-13.69-.6-4.49-.9-9.81-2.32-14.37-.22-.71-.5-1.39-.76-2.09-1.68-4.5-5.53-14.76-7.99-18.97-4.97-8.5-12.03-15.54-19.7-21.46-9.28-7.17-13.99-10.01-26.89-13.95-3.77-1.15-7.58-2.22-11.36-3.33-7.57-2.23-15.13-4.49-22.69-6.77-30.22-9.13-60.34-18.63-90.33-28.5-59.98-19.74-119.47-40.96-178.4-63.64-7.37-2.84-14.72-5.69-22.07-8.57-6.78,50.09-13.56,100.18-20.34,150.27,6.79.57,13.57,1.3,20.33,2.19-6.78-.91-13.56-1.82-20.34-2.73,36.07,4.89,71.33,14.53,104.87,28.68l-18.27-7.71c5.75,2.45,11.44,5.03,17.08,7.72,6.09-46.61,12.18-93.22,18.27-139.82-3.38.62-6.76,1.18-10.16,1.66,6.78-.91,13.56-1.82,20.34-2.73-22.05,2.96-44.28,2.51-66.31-.42,6.78.91,13.56,1.82,20.34,2.73-37.78-5.24-74.14-17.39-109.18-32.15l18.27,7.71c-67.74-28.72-132.31-66.05-203.53-85.99-10.17-3.19-20.34-3.64-30.51-1.37-10.18.46-19.66,3.49-28.44,9.08-8.91,4.81-16.07,11.38-21.46,19.7-6.76,7.39-11.33,16.06-13.69,26.02-4.46,19.58-3.5,41.56,7.71,58.95,3.99,5.16,7.97,10.32,11.96,15.48,9.55,9.48,20.8,16.04,33.76,19.67,63.9,25.85,131.87,39.77,200.52,44.89,17.69,1.32,35.43,1.82,53.17,1.58-6.78-50.09-13.56-100.18-20.34-150.27-20.25,5.67-40.65,10.95-61.51,13.8,6.78-.91,13.56-1.82,20.34-2.73-15.26,1.99-30.65,2.61-45.95.62,6.78.91,13.56,1.82,20.34,2.73-9.94-1.41-19.58-3.93-28.84-7.83l18.27,7.71c-8.68-3.81-16.58-8.79-24.09-14.55,5.16,3.99,10.32,7.97,15.48,11.96-16.69-13.02-32.01-27.45-49.49-39.55-23.41-16.19-51.05-23.35-79.11-25.19-13.9-.91-28.45,1.72-41.95,3.92-7.91,1.29-15.67,3.38-23.28,5.87-21.95,7.19-42.98,17.1-64.22,26.09,6.09-2.57,12.18-5.14,18.27-7.71-19.24,8.11-38.62,14.66-59.07,18.98-21.16,4.46-42.63,7.48-63.59,12.89-8.76,2.27-17.4,4.99-25.79,8.4-13.68,5.57-27.73,11.03-40.4,18.78-3.58,2.19-7.04,4.56-10.39,7.08-8.28,6.25-16.89,12.38-24.42,19.57-2.98,2.84-5.78,5.86-8.35,9.07-6.46,8.05-13.31,16.13-18.62,25.05-6.95,11.67-12.82,24.74-15.71,38.05s-5.09,27.02-4,40.35,2.45,27.27,7.18,39.77c3.29,8.7,6.74,17.69,11.26,25.88s11.33,16.28,17.47,23.7c2.08,2.51,4.31,4.85,6.82,6.94,7.08,5.89,14.39,12.32,22.6,16.81,18.69,10.22,37.4,15.1,58.7,15.79,1.92.06,3.84,0,5.76-.16,8.63-.74,17.51-1.86,26.01-3.54,4.3-.85,8.37-2.28,12.42-3.93,9.68-3.94,19.86-7.7,28.83-13.28,9.42-5.86,18.15-13.05,26.7-20.03,16.91-13.8,29.84-31.7,43.24-48.74,14-17.8,28.48-35.51,46.43-49.51l-15.48,11.96c8.76-6.68,18.14-12.36,28.25-16.75-6.09,2.57-12.18,5.14-18.27,7.71,8.09-3.38,16.45-5.82,25.13-7.05-6.78.91-13.56,1.82-20.34,2.73,7.13-.88,14.2-.91,21.32.05-6.78-.91-13.56-1.82-20.34-2.73,1.02.15,2.04.32,3.05.51-18.72-24.59-37.44-49.18-56.16-73.77l-.19,1.47c.91-6.78,1.82-13.56,2.73-20.34-.9,5.79-2.52,11.32-4.78,16.72,2.57-6.09,5.14-12.18,7.71-18.27-3.17,7.19-7.31,13.8-12.05,20.05,3.99-5.16,7.97-10.32,11.96-15.48-16.5,21.24-38.98,36.69-55.95,57.49-7.86,9.64-16.23,19.61-22.39,30.56-3.05,5.43-5.29,11.2-7.72,16.94s-5.27,11.83-6.99,18.07c-2.44,8.88-3.25,18.33-4.22,27.41-.3,2.78-.46,5.54-.32,8.33.45,8.97,1.83,18.14,3.5,26.91.49,2.58,1.12,5.11,1.95,7.6,2.79,8.32,6.42,16.5,10.2,24.4,1.19,2.5,2.58,4.91,4.16,7.18,4.88,7.05,10.13,14.15,15.94,20.48s13.53,11.47,20.46,16.58c1.94,1.43,3.91,2.73,6.06,3.83,6.37,3.26,13.59,6.08,20.26,8.61,1.37.52,2.72,1.01,4.14,1.37,19.12,4.81,34.62,4.11,53.69.28,11.26-2.26,22.69-7.25,32.1-13.92,7.14-5.05,14.57-10.37,20.86-16.56,4.37-4.3,7.94-9.36,11.67-14.19,5.7-7.38,11.07-14.5,15.54-22.66,3.43-6.24,6.5-12.68,9.68-19.05,8.19-16.43,16.38-32.86,24.58-49.28,6.24-12.51,12.81-24.9,21.32-36.04l-11.96,15.48c4.36-5.57,9.17-10.69,14.71-15.1l-15.48,11.96c4.13-3.16,8.51-5.8,13.29-7.86-6.09,2.57-12.18,5.14-18.27,7.71,4.01-1.61,8.08-2.79,12.37-3.37-6.78.91-13.56,1.82-20.34,2.73,2.23-.18,4.33-.15,6.55.14-6.78-.91-13.56-1.82-20.34-2.73,1.35.3,2.52.62,3.81,1.12-6.09-2.57-12.18-5.14-18.27-7.71,1.4.65,2.66,1.39,3.91,2.3l-15.48-11.96c1.19.98,2.23,2.02,3.23,3.19l-11.96-15.48c1.44,1.88,2.58,3.85,3.53,6.02l-7.71-18.27c.88,2.27,1.5,4.54,1.9,6.94l-2.73-20.34c.36,2.83.39,5.57.06,8.4l2.73-20.34c-.55,3.45-1.54,6.7-2.83,9.95l7.71-18.27c-5.01,11.59-13.25,21.47-19.97,32.08-7.05,11.12-13.4,22.69-19.02,34.6-7.95,16.86-15.27,34.17-21.27,51.84-2.12,6.24-4.04,12.54-5.76,18.89-.72,2.65-1.4,5.31-2.05,7.97-.39,1.6-.78,3.2-1.13,4.81-3.64,13.56-3.64,27.12,0,40.67,3.63,12.96,10.19,24.21,19.67,33.76,7.63,7.36,16.15,14.44,25.75,19.08,18.98,9.19,30.77,12.23,51.86,13.93,23.08,1.86,44.62-5.51,65.11-15,21.61-10,36.91-27.94,50.68-46.59,10.6-14.35,17.4-31.87,22.94-48.62,9.2-27.78,9.94-57.69,21.17-84.89-2.57,6.09-5.14,12.18-7.71,18.27,2.51-5.85,5.5-11.39,9.35-16.47l-11.96,15.48c2.42-3.03,5.06-5.74,8.09-8.16-5.16,3.99-10.32,7.97-15.48,11.96,2.23-1.65,4.52-3.07,7.04-4.24-6.09,2.57-12.18,5.14-18.27,7.71,2.87-1.2,5.74-2,8.82-2.47-6.78.91-13.56,1.82-20.34,2.73,2.62-.29,5.15-.31,7.77-.04-6.78-.91-13.56-1.82-20.34-2.73,2.13.32,4.14.82,6.16,1.56-6.09-2.57-12.18-5.14-18.27-7.71,1.98.84,3.76,1.84,5.5,3.1l-15.48-11.96c1.35,1.11,2.54,2.3,3.69,3.62-3.99-5.16-7.97-10.32-11.96-15.48,1.27,1.65,2.3,3.34,3.16,5.22l-7.71-18.27c.74,1.87,1.24,3.71,1.57,5.69-.91-6.78-1.82-13.56-2.73-20.34.34,2.88.26,5.64-.12,8.52l2.73-20.34c-.67,3.95-1.85,7.71-3.37,11.41l7.71-18.27c-3.25,7.44-7.62,14.24-12.57,20.65l11.96-15.48c-17.87,22.6-38.74,43.49-50.42,70.22-4.31,9.87-9.35,20.34-11.95,31-2.75,11.25-4.21,22.95-4.86,34.5s1.55,22.45,3.17,33.11c.78,5.13,2,10.02,3.89,14.86,3.88,9.94,7.65,20.39,13.91,29.19,11.32,15.91,20.1,25.62,36.67,36.4,12.71,8.27,25.63,11.88,40.13,13.83,5.92.8,11,1.9,16.78,1.35,8.63-.83,18.01-1.32,26.24-4.39,17.62-6.57,27.73-12.42,42.12-25.03,8.13-7.13,14.6-16.66,20.56-25.44,2.51-3.7,4.66-7.63,6.57-11.67,5.21-11.04,9.89-22.36,14.24-33.77,4.91-12.89,8.73-26.19,11.41-39.72,2.38-12.02,4.02-24.24,8.79-35.63-2.57,6.09-5.14,12.18-7.71,18.27,1.62-3.63,3.5-7.06,5.83-10.28-3.99,5.16-7.97,10.32-11.96,15.48,2.11-2.7,4.49-5.02,7.19-7.12-5.16,3.99-10.32,7.97-15.48,11.96,2.44-1.76,4.95-3.23,7.7-4.46l-18.27,7.71c2.72-1.11,5.43-1.89,8.33-2.34-6.78.91-13.56,1.82-20.34,2.73,2.41-.27,4.74-.28,7.15.01-6.78-.91-13.56-1.82-20.34-2.73,1.97.35,3.8.87,5.65,1.64-6.09-2.57-12.18-5.14-18.27-7.71,1.48.72,2.82,1.53,4.15,2.5-5.16-3.99-10.32-7.97-15.48-11.96,1.29,1.06,2.43,2.17,3.52,3.43-3.99-5.16-7.97-10.32-11.96-15.48,1.24,1.61,2.25,3.27,3.12,5.1-2.57-6.09-5.14-12.18-7.71-18.27,1.12,2.68,1.82,5.36,2.24,8.23-.91-6.78-1.82-13.56-2.73-20.34.42,3.87.3,7.69-.21,11.54.91-6.78,1.82-13.56,2.73-20.34-.75,4.75-2.03,9.32-3.83,13.78,2.57-6.09,5.14-12.18,7.71-18.27-8.05,19.01-21.42,35.03-30.42,53.52-4.77,9.81-9.21,19.89-12.66,30.25-3.34,10.03-4.42,21.68-5.32,31.79-.31,3.47-.35,6.93-.03,10.4.94,10.25,1.87,21.59,4.97,31.72,6.08,19.9,15.02,35.42,28.76,50.84,6.28,7.05,14.28,12.62,22.01,17.88,1.41.96,2.88,1.73,4.42,2.46,6.97,3.34,14.55,7.06,22.1,9.06s16.51,2.88,24.4,3.46c1.82.14,3.58.12,5.4-.03,8.08-.67,16.93-1.47,24.81-3.55s15.29-5.78,22.39-9.14c18.23-8.64,30.71-24.18,42.13-40.08,8.69-12.11,13.89-27.3,19.08-40.95,3.62-9.54,6.51-19.34,10.42-28.77-2.57,6.09-5.14,12.18-7.71,18.27,5.76-13.52,13.12-26.21,22-37.91l-11.96,15.48c4.67-6.04,9.6-12.47,15.66-17.17-5.16,3.99-10.32,7.97-15.48,11.96,1.26-.87,2.46-1.58,3.84-2.24l-18.27,7.71c.86-.37,1.75-.64,2.66-.81l-20.34,2.73c.89-.16,1.78-.18,2.67-.07-6.78-.91-13.56-1.82-20.34-2.73l1.32.3-18.27-7.71c.86.28,1.64.69,2.36,1.23-5.16-3.99-10.32-7.97-15.48-11.96.66.51,1.25,1.1,1.75,1.78-3.99-5.16-7.97-10.32-11.96-15.48.75,1.12,1.29,2.16,1.83,3.39-2.57-6.09-5.14-12.18-7.71-18.27,1.12,3.15,1.73,6.41,2.25,9.71-.91-6.78-1.82-13.56-2.73-20.34.99,7.37.89,14.67-.07,22.03.91-6.78,1.82-13.56,2.73-20.34-1.84,12.51-5.98,24.42-10.85,36.04,2.57-6.09,5.14-12.18,7.71-18.27-9.59,22.51-20.61,44.25-29.64,67.04-1.48,3.74-2.98,7.53-4.1,11.39-2.23,7.7-3,16.31-3.62,24.22-.66,8.45.36,17.4,2.85,25.41,6.72,21.59,19.84,39.03,39.33,50.89,14.17,8.62,31.25,11.7,47.53,12.18,21.3.62,39.09-5.74,57.9-14.66,3.16-1.5,6.1-3.36,8.93-5.39,8.1-5.82,16.54-11.91,23.64-19.03,4.94-4.95,9.05-10.56,13.33-16.1,4.46-5.77,8.98-11.4,12.83-17.59,4.28-6.88,7.71-14.17,10.94-21.59,7.07-16.28,13.56-33.11,24.44-47.33-3.99,5.16-7.97,10.32-11.96,15.48,3.56-4.51,7.49-8.59,11.99-12.17-5.16,3.99-10.32,7.97-15.48,11.96,2.14-1.63,4.34-3.11,6.65-4.48,16.61-9.86,30.01-27.05,35.16-45.72,3.19-10.17,3.64-20.34,1.37-30.51-.46-10.18-3.49-19.66-9.08-28.44-10.53-16.33-26.21-30.71-45.72-35.16-20.01-4.56-40.93-2.98-58.95,7.71-27.19,16.14-47.83,41.4-61.07,69.84-8.45,18.14-14.9,37-27.23,53.03,3.99-5.16,7.97-10.32,11.96-15.48-4.28,5.41-9.01,10.35-14.44,14.62,5.16-3.99,10.32-7.97,15.48-11.96-3.85,2.9-7.9,5.34-12.34,7.23l18.27-7.71c-3.6,1.42-7.25,2.4-11.09,2.92,6.78-.91,13.56-1.82,20.34-2.73-3.09.32-6.1.32-9.2.02,6.78.91,13.56,1.82,20.34,2.73-1.75-.24-3.36-.6-5.02-1.22,6.09,2.57,12.18,5.14,18.27,7.71-.78-.33-1.5-.77-2.16-1.3l15.48,11.96-.91-.88c3.99,5.16,7.97,10.32,11.96,15.48-.55-.63-.98-1.34-1.29-2.11,2.57,6.09,5.14,12.18,7.71,18.27-.31-.77-.51-1.56-.6-2.38l2.73,20.34c-.09-1.34-.05-2.52.1-3.86-.91,6.78-1.82,13.56-2.73,20.34,1.28-7.24,4.52-14.31,7.36-21.05-2.57,6.09-5.14,12.18-7.71,18.27,9.5-22.25,20.36-43.77,29.33-66.28,3.16-7.95,5.91-16.1,7.65-24.49,2.96-14.26,5.65-29.73,4.44-44.46-.84-10.28-1.93-20.69-4.35-30.73-3.85-15.94-12.36-29.97-23.44-41.85-5.32-5.7-11.77-10.61-18.78-14.02-5.52-2.68-13.68-6.5-19.59-8.01-3.39-.46-6.78-.91-10.17-1.37-3.8-.79-7.64-1.27-11.5-1.44l-1.34.14c-6.78.91-13.56,1.82-20.34,2.73-.93.24-1.76.53-2.66.81-16.94,5.19-24.12,10.86-37.6,21.91-11.05,9.06-20.33,22.86-28.57,33.91-5.32,7.13-10.13,14.63-14.32,22.49-7.45,13.99-13.59,28.85-18.76,43.82-2.69,7.78-5.26,15.59-8.42,23.19,2.57-6.09,5.14-12.18,7.71-18.27-2.81,6.6-6.04,12.99-10.42,18.69,3.99-5.16,7.97-10.32,11.96-15.48-2.07,2.58-4.33,4.92-6.92,6.99,5.16-3.99,10.32-7.97,15.48-11.96-2.02,1.51-4.11,2.77-6.4,3.83,6.09-2.57,12.18-5.14,18.27-7.71-2.43,1-4.85,1.68-7.44,2.1,6.78-.91,13.56-1.82,20.34-2.73-2.56.32-5.03.35-7.59.05,6.78.91,13.56,1.82,20.34,2.73-2.39-.38-4.62-1.02-6.85-1.95l18.27,7.71c-2.18-1.01-4.16-2.22-6.07-3.67,5.16,3.99,10.32,7.97,15.48,11.96-2.19-1.78-4.12-3.75-5.9-5.94,3.99,5.16,7.97,10.32,11.96,15.48-2.49-3.24-4.48-6.73-6.12-10.47,2.57,6.09,5.14,12.18,7.71,18.27-1.92-4.66-3.21-9.46-3.93-14.44l2.73,20.34c-.57-4.62-.63-9.22-.1-13.85l-2.73,20.34c.8-5.81,2.65-11.33,4.88-16.74-2.57,6.09-5.14,12.18-7.71,18.27,7.63-17.77,19.83-32.94,28.71-50.03,6.71-12.92,13.4-26.63,15.78-41.1,1.46-8.85,3.86-20.79,3.07-30.63-.63-7.88-1.68-16.28-3.27-24.04-1.07-5.17-3.69-10.18-5.69-14.92-1.96-4.65-3.45-9.17-6.24-13.28-3.52-5.17-8.53-11.75-12.7-16.44-.68-.77-1.34-1.52-2.1-2.22-13.1-12.11-24.51-18.78-41.54-24.24-9.35-3-19.86-4.34-29.72-3.68-19.33,1.29-30.73,4.77-48.15,12.92-18.06,8.45-32.15,23.78-43.07,40.04-5.89,8.78-9.64,19.3-13.4,28.93-1.85,4.75-3.26,9.61-4.39,14.57-2.5,11-4.06,22.17-6.87,33.11-3.01,11.7-6.91,23.13-11.56,34.27l7.71-18.27c-3.37,7.9-7.04,15.56-12.25,22.43l11.96-15.48c-2.44,3.08-5.11,5.87-8.2,8.31l15.48-11.96c-2.02,1.48-4.1,2.72-6.39,3.75,6.09-2.57,12.18-5.14,18.27-7.71-1.94.76-3.85,1.31-5.9,1.66,6.78-.91,13.56-1.82,20.34-2.73-2.24.27-4.37.27-6.62.02,6.78.91,13.56,1.82,20.34,2.73-2.35-.41-4.53-1.05-6.73-1.97l18.27,7.71c-2.17-1.03-4.17-2.22-6.12-3.62,5.16,3.99,10.32,7.97,15.48,11.96-3.06-2.38-5.68-5.06-8.05-8.12,3.99,5.16,7.97,10.32,11.96,15.48-2.49-3.42-4.53-7.03-6.2-10.91,2.57,6.09,5.14,12.18,7.71,18.27-1.92-4.81-3.17-9.74-3.89-14.86l2.73,20.34c-.73-6.18-.65-12.31.1-18.48-.91,6.78-1.82,13.56-2.73,20.34,1.04-7.34,3.02-14.33,5.83-21.18-2.57,6.09-5.14,12.18-7.71,18.27,4.93-11.52,11.76-21.95,19.4-31.85-3.99,5.16-7.97,10.32-11.96,15.48,15-19.17,33.53-36.55,43.6-59.03,3.78-8.44,8.96-18.73,10.87-28.43,3.76-19.05,3.99-31.37.34-50.44-.3-1.56-.64-3.07-1.13-4.58-1.98-5.99-5.39-13.68-8.15-19.38-.44-.91-.86-1.81-1.38-2.67s-1.17-1.7-1.79-2.55c-3.81-5.23-8.38-11.76-12.8-16.46-5.62-5.98-12.5-11.01-19.36-15.36-4.21-2.67-9.04-4.28-13.6-6.21s-9.06-4.25-14.03-5.22c-19.07-3.71-31.86-3.8-51.01.04s-38.85,16.03-52.62,30c-3.63,3.68-6.65,8.04-9.78,12.09s-6.54,8.12-9.32,12.51c-4.12,6.53-6.88,13.75-9.87,20.84-5.3,12.56-9.68,24.86-12.6,38.18-4.83,22.05-7.41,44.64-16.08,65.66l7.71-18.27c-3.3,7.72-7.33,15.03-12.46,21.69l11.96-15.48c-3.35,4.17-7.04,7.97-11.22,11.32,5.16-3.99,10.32-7.97,15.48-11.96-3.82,2.92-7.91,5.28-12.33,7.18,6.09-2.57,12.18-5.14,18.27-7.71-4.47,1.81-9.03,3.06-13.8,3.77,6.78-.91,13.56-1.82,20.34-2.73-4.27.53-8.49.59-12.76.12,6.78.91,13.56,1.82,20.34,2.73-3.75-.52-7.34-1.44-10.85-2.85,6.09,2.57,12.18,5.14,18.27,7.71-2.7-1.18-5.17-2.58-7.56-4.3,5.16,3.99,10.32,7.97,15.48,11.96-1.35-1.04-2.61-2.14-3.84-3.32,6.56,24.81,13.12,49.62,19.67,74.43,4.18-18.21,9.91-35.98,17.13-53.21l-7.71,18.27c4.94-11.62,10.5-22.96,16.75-33.93,6.17-10.82,13.29-20.91,20.13-31.29,12.77-19.36,20.7-42.32,21.02-65.62.14-10.72-1.25-21.98-4.95-32.1-2.22-6.05-5.97-16.69-10.55-23.38-3.53-5.16-8.51-11.7-12.66-16.4-1.02-1.16-2.07-2.17-3.23-3.19-12.27-10.74-15.53-12.64-28.53-18.12s-19.29-7.17-34.9-7.92c-11.79-.57-25.11,1.48-36.42,5.69-21.26,7.91-38.81,17.78-55.07,34.09-7.72,7.74-14.18,16.9-20.67,25.59-3.28,4.39-6.3,8.96-9.1,13.67-5.85,9.81-10.81,20.12-15.91,30.33-6.83,13.69-13.66,27.38-20.48,41.07-5.68,11.38-11.09,22.98-18.84,33.15l11.96-15.48c-3,3.79-6.26,7.26-10.05,10.28l15.48-11.96c-2.73,2.05-5.58,3.75-8.71,5.11,6.09-2.57,12.18-5.14,18.27-7.71-2.81,1.1-5.61,1.84-8.59,2.25,6.78-.91,13.56-1.82,20.34-2.73-2.28.23-4.5.24-6.78.02,6.78.91,13.56,1.82,20.34,2.73-2.93-.39-5.69-1.15-8.42-2.27l18.27,7.71c-2.71-1.23-5.18-2.73-7.55-4.52l15.48,11.96c-2.69-2.16-5.06-4.58-7.22-7.26l11.96,15.48c-2.91-3.8-5.24-7.88-7.11-12.28,2.57,6.09,5.14,12.18,7.71,18.27-1.65-4.14-2.82-8.37-3.51-12.77.91,6.78,1.82,13.56,2.73,20.34-.59-4.39-.66-8.72-.15-13.12l-2.73,20.34c.8-5.53,2.47-10.85,4.62-16.01l-7.71,18.27c3.15-7.17,7.25-13.75,11.99-19.98l-11.96,15.48c13.59-17.44,31.18-30.92,46.43-46.78,11.67-12.13,22.73-25.56,31.23-40.08,5.65-9.64,9.79-20.29,13.66-30.7,4.16-11.2,4.83-23.47,6.36-35.17l-2.73-20.34c-2.37-9.96-6.93-18.63-13.69-26.02-3.4-5.75-7.97-10.32-13.72-13.72-7.39-6.76-16.06-11.33-26.02-13.69-12.92-2.29-26.85-4.79-40.16-3.77s-27.08,2.58-39.84,6.53-25.17,9.32-36.93,15.47c-6.26,3.28-12.24,7.09-17.91,11.31-17.16,12.79-32.78,25.85-46.75,42.01-9.98,11.54-19.18,23.73-28.66,35.68-10.3,12.98-20.94,25.6-34.04,35.88l15.48-11.96c-6.04,4.61-12.4,8.62-19.35,11.71,6.09-2.57,12.18-5.14,18.27-7.71-4.93,2.07-9.96,3.58-15.25,4.41,6.78-.91,13.56-1.82,20.34-2.73-4.34.56-8.62.61-12.97.14,6.78.91,13.56,1.82,20.34,2.73-4.09-.57-7.99-1.56-11.81-3.12,6.09,2.57,12.18,5.14,18.27,7.71-3.33-1.46-6.42-3.25-9.35-5.4l15.48,11.96c-3.45-2.67-6.48-5.71-9.18-9.13l11.96,15.48c-3.15-4.15-5.7-8.61-7.75-13.4l7.71,18.27c-2.32-5.66-3.86-11.51-4.71-17.57l2.73,20.34c-.76-6.13-.77-12.24,0-18.37-.91,6.78-1.82,13.56-2.73,20.34.76-5.31,2.1-10.44,4.1-15.42l-7.71,18.27c2.65-6.22,6.11-11.99,10.18-17.39-3.99,5.16-7.97,10.32-11.96,15.48,5.09-6.55,10.97-12.31,17.46-17.45l-15.48,11.96c9.7-7.48,20.39-13.39,31.64-18.19-6.09,2.57-12.18,5.14-18.27,7.71,26.96-11.23,56.02-15.07,84.48-20.71,14.72-2.91,29.32-6.39,43.47-11.46,19.46-6.97,38.29-15.63,57.31-23.69-6.09,2.57-12.18,5.14-18.27,7.71,17.95-7.57,36.26-14.87,55.66-17.64-6.78.91-13.56,1.82-20.34,2.73,7.94-1.02,15.86-1.2,23.81-.23-6.78-.91-13.56-1.82-20.34-2.73,6.56.93,12.86,2.62,19,5.11l-18.27-7.71c8,3.44,15.24,8.13,22.15,13.4l-15.48-11.96c15.18,11.78,29.44,24.56,44.81,36.16,5.31,4.01,10.83,7.7,16.76,10.75,11.38,5.85,23.45,11.05,35.74,14.71,12.29,3.67,25.24,4.89,37.89,6.48,6.78.85,13.58,1.3,20.42,1.26,20.31-.12,40.76-3.26,60.67-7,15.76-2.96,31.28-7.08,46.71-11.4,9.96-2.37,18.63-6.93,26.02-13.69,8.33-5.39,14.9-12.55,19.7-21.46,2.57-6.09,5.14-12.18,7.71-18.27,3.19-10.17,3.64-20.34,1.37-30.51-.02-6.9-1.76-13.34-5.22-19.31-3.09-9.48-8.36-17.69-15.82-24.62-14.85-13.63-33.47-22.69-54.09-22.41-29.67.41-59.32-1.37-88.73-5.3,6.78.91,13.56,1.82,20.34,2.73-49.6-6.78-98.21-19.66-144.62-38.43-13.56,49.18-27.12,98.36-40.67,147.53,21.51,6.02,42.46,13.8,63.04,22.46l-18.27-7.71c39.67,16.8,77.9,36.75,117.46,53.79,25.18,10.85,50.47,21.46,76.72,29.45,27.04,8.23,54.53,12.87,82.61,16.01,30.2,3.37,60.17.69,90.01-4.82,6.09-2.57,12.18-5.14,18.27-7.71,5.16-3.99,10.32-7.97,15.48-11.96,3.99-5.16,7.97-10.32,11.96-15.48,5.59-8.78,8.62-18.26,9.08-28.44,1.82-6.78,1.82-13.56,0-20.34-.02-6.9-1.76-13.34-5.22-19.31-1.82-6.48-5.1-12.11-9.84-16.88-5.39-8.33-12.55-14.9-21.46-19.7-28.18-13.47-57.46-25.34-87.64-33.52-30.39-8.24-61.91-12.88-93.24-15.51-10.53-.4-20.36,1.8-29.47,6.59-9.48,3.09-17.69,8.36-24.62,15.82-3.99,5.16-7.97,10.32-11.96,15.48-5.59,8.78-8.62,18.26-9.08,28.44-1.82,6.78-1.82,13.56,0,20.34.46,10.18,3.49,19.66,9.08,28.44,3.99,5.16,7.97,10.32,11.96,15.48,9.55,9.48,20.8,16.04,33.76,19.67,83.11,32.55,167.33,62.24,252.5,88.93,24.33,7.63,48.75,15,73.23,22.15-17.81-17.81-35.62-35.62-53.43-53.43.92,2.29,1.58,4.55,1.99,6.99-.91-6.78-1.82-13.56-2.73-20.34.34,2.85.32,5.6-.03,8.45.91-6.78,1.82-13.56,2.73-20.34-.56,3.4-1.49,6.59-2.76,9.79,2.57-6.09,5.14-12.18,7.71-18.27-2.68,6.24-6.31,11.89-10.41,17.28,3.99-5.16,7.97-10.32,11.96-15.48-11.62,14.88-25.35,28.31-38.15,42.17-13.05,14.14-26.09,28.28-39.14,42.42-22.62,24.51-44.62,50.24-71.1,70.74,5.16-3.99,10.32-7.97,15.48-11.96-11,8.39-22.71,15.69-35.44,21.16,6.09-2.57,12.18-5.14,18.27-7.71-10.25,4.26-20.87,7.16-31.87,8.64,6.78-.91,13.56-1.82,20.34-2.73-13.76,1.7-27.58,1.22-41.31-.58,6.78.91,13.56,1.82,20.34,2.73-26.29-3.61-51.65-11.62-77.11-18.81-12.79-3.61-25.65-7.05-38.71-9.59-18.74-3.64-38.06-6.66-57.2-6.7-13.34-.02-26.75,2.09-39.87,4.1-7.25,1.11-14.34,2.86-21.27,5.27-6.09,2.57-12.18,5.14-18.27,7.71-8.91,4.81-16.07,11.38-21.46,19.7-4.74,4.77-8.02,10.4-9.84,16.88-4.79,9.12-6.99,18.94-6.59,29.47l2.73,20.34,7.71,18.27c4.81,8.91,11.38,16.07,19.7,21.46,7.39,6.76,16.06,11.33,26.02,13.69,11.5,3.19,23.16,5.71,34.96,7.47,17.97,2.68,36.03,5.2,54.21,5.76,29.97.92,60.42-2.81,89.68-9.03,6.09-2.57,12.18-5.14,18.27-7.71,5.16-3.99,10.32-7.97,15.48-11.96,3.99-5.16,7.97-10.32,11.96-15.48,5.59-8.78,8.62-18.26,9.08-28.44,1.82-6.78,1.82-13.56,0-20.34-.02-6.9-1.76-13.34-5.22-19.31-1.82-6.48-5.1-12.11-9.84-16.88-5.39-8.33-12.55-14.9-21.46-19.7-5.86-3.87-11.99-7.26-18.41-10.1-11.9-5.26-23.91-10.64-36.43-14.28-19.08-5.54-39.25-7.79-58.89-9.97-28.21-3.13-56.68-3.07-84.84-6.76,6.78.91,13.56,1.82,20.34,2.73-68.4-9.34-131.03-40.94-198.53-54.09-25.1-4.89-50.93-8.47-76.56-8.26-6.78.91-13.56,1.82-20.34,2.73-9.96,2.37-18.63,6.93-26.02,13.69-5.75,3.4-10.32,7.97-13.72,13.72-6.76,7.39-11.33,16.06-13.69,26.02l-2.73,20.34,2.73,20.34c2.37,9.96,6.93,18.63,13.69,26.02,5.39,8.33,12.55,14.9,21.46,19.7,13.84,6.94,27.76,13.72,41.99,19.85,19.2,8.27,38.48,16.63,58.66,22.24,40.25,11.19,83.8,13.68,124.31,2.19,6.09-2.57,12.18-5.14,18.27-7.71,5.16-3.99,10.32-7.97,15.48-11.96,3.99-5.16,7.97-10.32,11.96-15.48,5.59-8.78,8.62-18.26,9.08-28.44,1.82-6.78,1.82-13.56,0-20.34-.02-6.9-1.76-13.34-5.22-19.31-1.82-6.48-5.1-12.11-9.84-16.88-5.39-8.33-12.55-14.9-21.46-19.7-21.65-13.82-45.64-24.05-69.66-32.91-18.5-6.82-37.57-11.96-56.79-16.29-38.82-8.75-78.29-14.27-117.01-23.48-21.73-5.17-43.19-11.56-63.8-20.24,6.09,2.57,12.18,5.14,18.27,7.71-14.34-6.12-28.05-13.25-40.45-22.76l15.48,11.96c-7.48-5.86-14.34-12.4-20.25-19.86,3.99,5.16,7.97,10.32,11.96,15.48-4.15-5.41-7.68-11.16-10.41-17.42l7.71,18.27c-2.02-4.92-3.45-9.96-4.21-15.23l2.73,20.34c-.6-4.96-.57-9.85.08-14.8l-2.73,20.34c.76-4.81,2.06-9.41,3.88-13.93-2.57,6.09-5.14,12.18-7.71,18.27,2.89-6.75,6.74-12.89,11.2-18.71l-11.96,15.48c9.45-12.02,20.85-23,32.85-32.46l-15.48,11.96c6.81-5.25,14-9.92,21.87-13.42l-18.27,7.71c4.37-1.83,8.81-3.24,13.49-4.01-6.78.91-13.56,1.82-20.34,2.73,3.57-.47,7.06-.54,10.64-.09-6.78-.91-13.56-1.82-20.34-2.73,2.67.45,5.18,1.16,7.69,2.18-6.09-2.57-12.18-5.14-18.27-7.71,1.71.78,3.33,1.66,4.92,2.67l-15.48-120.15c-3.16,3.88-6.31,7.77-9.47,11.65-7.46,6.93-12.73,15.14-15.82,24.62-4.79,9.12-6.99,18.94-6.59,29.47-.4,10.53,1.8,20.36,6.59,29.47,3.09,9.48,8.36,17.69,15.82,24.62,14.58,13.38,33.72,23.32,54.09,22.41,6.78-.91,13.56-1.82,20.34-2.73,12.96-3.63,24.21-10.19,33.76-19.67h0Z"/>
  </g>
  <g class="cls-5">
    <path class="cls-3" d="m1459.93,1847.96c-3.09,47.87-6.18,95.74-9.26,143.61-.43,6.68-.86,13.35-1.29,20.03-.39,6.01-.53,12.1-1.34,18.07l1.5-11.17c-.37,2.53-.92,5-1.87,7.38l4.23-10.03c-.6,1.37-1.31,2.64-2.23,3.83l6.57-8.5c-.6.71-1.23,1.34-1.95,1.93l8.5-6.57c-.83.62-1.69,1.12-2.63,1.56,3.34-1.41,6.69-2.82,10.03-4.23-1.51.6-3.03.95-4.63,1.2l11.17-1.5c-9.06,1.16-18.39,1.2-26.95,4.68-5.83,2.37-11.54,4.76-17.13,7.59-2.56,1.3-5.12,2.6-7.75,3.74,3.34-1.41,6.69-2.82,10.03-4.23-3.59,1.51-7.29,2.59-11.14,3.16l11.17-1.5c-3.87.51-7.74.5-11.62.02l11.17,1.5c-4.78-.66-9.39-2.01-13.85-3.85l10.03,4.23c-6.83-2.91-13.1-6.86-18.96-11.38l8.5,6.57c-7.36-5.75-14.04-12.32-20.17-19.36-5.47-6.27-10.51-12.9-15.87-19.25s-11.06-12.69-17.27-18.38c-5.41-4.96-11.32-9.43-17.21-13.78-3.11-2.3-6.38-4.4-9.8-6.2-14.38-7.56-29.21-11.85-45.52-12.23-3.72.5-7.44,1-11.17,1.5-5.47,1.3-10.23,3.81-14.28,7.52-3.16,1.87-5.67,4.38-7.53,7.53-3.71,4.06-6.22,8.82-7.52,14.28l-1.5,11.17,1.5,11.17c1.3,5.47,3.81,10.23,7.52,14.28,2.96,4.57,6.89,8.18,11.78,10.82,24.34,13.62,47.9,28.61,70.52,44.92,6.4,4.62,12.73,9.34,18.98,14.16l-8.5-6.57c4.06,3.14,8.09,6.31,12.08,9.53,3.63,2.93,7.64,5.73,10.6,9.37l-6.57-8.5c.66.88,1.21,1.76,1.67,2.76l-4.23-10.03c.32.82.53,1.61.67,2.48l-1.5-11.17c.06.72.06,1.36,0,2.08l1.5-11.17c-.18,1.17-.49,2.24-.93,3.34l4.23-10.03c-1.58,3.51-4.02,6.6-6.21,9.75-2.44,3.5-4.88,7.01-7.31,10.51-4.79,6.89-9.59,13.78-14.38,20.67-9.59,13.78-19.18,27.57-28.76,41.35-8.76,12.59-17.91,24.99-25.54,38.31-5.21,9.11-9.29,18.6-13.32,28.3-2.59,6.24-4.71,12.71-5.97,19.35-1.34,7.08-2.45,14.34-2.68,21.55s1,14.1,2.07,20.99c.53,3.45,1.46,6.81,2.74,10.06,2.6,6.61,5.18,13.38,9.27,19.25l6.57,8.5c3.8,4.1,8.31,6.99,13.52,8.68,3.28,1.9,6.81,2.86,10.6,2.87,5.58,1.25,11.17,1,16.75-.75l10.03-4.23,8.5-6.57c4.1-3.8,6.99-8.31,8.68-13.52,2.63-5.01,3.84-10.4,3.62-16.18.06-6.81.53-13.61,1.42-20.37l-1.5,11.17c2.08-15.41,6.28-30.45,12.3-44.78l-4.23,10.03c6.56-15.47,15.16-30,25.42-43.3l-6.57,8.5c10.59-13.64,22.87-25.9,36.52-36.48l-8.5,6.57c13.31-10.26,27.85-18.85,43.33-25.41-3.34,1.41-6.69,2.82-10.03,4.23,14.33-6.02,29.36-10.24,44.76-12.34l-11.17,1.5c12.76-1.69,25.84-2.1,38.63-.46-3.72-.5-7.44-1-11.17-1.5,6.71.91,13.26,2.51,19.53,5.11-3.34-1.41-6.69-2.82-10.03-4.23,6.85,2.93,13.15,6.88,19.04,11.43-2.83-2.19-5.67-4.38-8.5-6.57,13.65,10.69,25.43,23.98,36.03,37.63-2.19-2.83-4.38-5.67-6.57-8.5,14.36,18.61,26.29,39,35.47,60.64l-4.23-10.03c6.88,16.36,11.37,33.77,19.72,49.5,3.24,6.11,7.64,11.48,11.95,16.85,4.21,5.25,9.57,9.01,14.98,13.04s11.42,6.07,17.37,8.46c6.13,2.47,12.68,2.96,19.21,3.72,1.73.2,3.47.3,5.21.18,4.29-.29,8.64-.98,12.87-1.68.84-.14,1.67-.29,2.5-.51,10.61-2.81,18.11-7.97,26.31-14.9,4.1-3.8,6.99-8.31,8.68-13.52,2.63-5.01,3.84-10.4,3.62-16.18-.5-3.72-1-7.44-1.5-11.17-2-7.12-5.6-13.29-10.8-18.53-18.77-23.79-37.54-47.57-56.32-71.36-18.77-23.79-37.54-47.57-56.32-71.36-10.58-13.4-21.15-26.8-31.73-40.2v59.4c1.57-1.92,3.31-3.64,5.25-5.19-2.83,2.19-5.67,4.38-8.5,6.57,2.65-2.04,5.54-3.66,8.62-4.97l-10.03,4.23c8.01-3.31,16.66-4.51,25.19-5.66l-11.17,1.5c10.1-1.35,20.45-2.31,30.41-4.64,3.27-.76,6.49-1.72,9.61-2.96,6.51-2.6,13.17-5.19,19.2-8.81,5.99-3.6,11.45-8.12,16.92-12.42,2.9-2.28,5.66-4.72,8.34-7.25,5.44-5.14,10.52-10.64,15.65-16.08,5.92-6.28,11.93-12.42,18.74-17.74-2.83,2.19-5.67,4.38-8.5,6.57,5.67-4.36,11.73-8.17,18.32-10.97-3.34,1.41-6.69,2.82-10.03,4.23,4.23-1.75,8.59-3.04,13.13-3.69l-11.17,1.5c3.58-.46,7.14-.5,10.72-.05l-11.17-1.5c2.05.29,4.05.73,6.04,1.32,5.58,1.75,11.17,2,16.75.75,5.59-.25,10.79-1.91,15.62-4.98,4.89-2.64,8.82-6.25,11.78-10.82,3.71-4.06,6.22-8.82,7.52-14.28.5-3.72,1-7.44,1.5-11.17-.02-7.58-1.93-14.65-5.73-21.2-2.19-2.83-4.38-5.67-6.57-8.5-5.24-5.21-11.42-8.81-18.53-10.8-14.07-4.18-28.56-3.72-42.74-.62-7,1.53-13.65,4.69-20.15,7.54-3.46,1.52-6.8,3.3-10.01,5.32-9.36,5.88-18.22,12.94-26.15,20.66-5.28,5.15-10.23,10.63-15.32,15.97-5.74,6.02-11.65,11.9-18.23,17,2.83-2.19,5.67-4.38,8.5-6.57-4.92,3.76-10.17,7.01-15.87,9.44,3.34-1.41,6.69-2.82,10.03-4.23-8.33,3.44-17.26,4.79-26.14,5.99l11.17-1.5c-11.61,1.56-23.92,2.42-35.22,5.92-5.08,1.57-9.95,3.85-14.81,5.96-1.78.77-3.53,1.62-5.2,2.62-4.54,2.74-8.75,6.23-12.79,9.62-1.61,1.35-3.06,2.86-4.38,4.49-4.1,3.8-6.99,8.31-8.68,13.52-2.63,5.01-3.84,10.4-3.62,16.18l1.5,11.17c2,7.12,5.6,13.29,10.8,18.53,18.77,23.79,37.54,47.57,56.32,71.36,18.77,23.79,37.54,47.57,56.32,71.36,10.58,13.4,21.15,26.8,31.73,40.2v-59.4c-.3.26-.6.51-.91.75,2.83-2.19,5.67-4.38,8.5-6.57-1.39,1.04-2.86,1.88-4.46,2.55l10.03-4.23c-1.59.62-3.22,1.05-4.91,1.31l11.17-1.5c-2.31.3-4.6.28-6.92,0l11.17,1.5c-2.78-.4-5.45-1.15-8.05-2.22l10.03,4.23c-2.8-1.21-5.4-2.74-7.82-4.6,2.83,2.19,5.67,4.38,8.5,6.57-2.34-1.87-4.36-4.02-6.22-6.37,2.19,2.83,4.38,5.67,6.57,8.5-3.51-4.58-6.16-9.67-8.41-14.97,1.41,3.34,2.82,6.69,4.23,10.03-3.54-8.48-6.17-17.3-9.51-25.85-4.57-11.71-9.53-23.33-15.24-34.53-10.04-19.68-22.67-37.56-36.45-54.8-13.71-17.14-29.37-32.75-47.67-45-3.77-2.53-7.73-4.78-11.88-6.63-7.49-3.34-15.04-6.72-23.07-8.53-12.9-2.91-26.43-4.15-39.67-3.83-11.14.26-22.26,1.77-33.24,3.53-7.66,1.23-15.24,2.99-22.67,5.23-10.53,3.19-20.68,7.48-30.74,11.91-7.03,3.1-13.87,6.63-20.48,10.56s-13.02,8.26-19.15,12.94c-8.85,6.75-17.59,13.53-25.64,21.23-13.48,12.88-25.38,27.73-35.64,43.27-10.34,15.66-18.29,32.93-24.6,50.58s-9.6,36.62-11.06,55.43c-.29,3.8-.45,7.61-.48,11.43l78.27-21.2c-1.89-2.72-3.49-5.58-4.79-8.62l4.23,10.03c-1.53-3.73-2.55-7.6-3.12-11.59l1.5,11.17c-.66-5.12-.55-10.25.11-15.36l-1.5,11.17c1.17-8.38,3.74-16.46,7.02-24.25l-4.23,10.03c7.78-18.19,19.31-34.19,30.55-50.34,12.76-18.34,25.51-36.68,38.27-55.01,6.39-9.19,12.87-18.32,19.17-27.57,3.15-4.63,5.14-9.69,7.11-14.99.42-1.13.71-2.15.93-3.34.6-3.35,1.55-8.46,1.55-11.85.02-.47,0-.93-.05-1.39l-1.5-11.17c-1.03-5.41-3.35-10.79-6.57-15.27s-6.55-9.11-10.85-12.71c-18.31-15.34-37.52-29.78-57.16-43.39-19.14-13.26-38.92-25.58-59.24-36.95-7.07,26.09-14.13,52.18-21.2,78.27,1.86.04,3.7.18,5.55.4l-11.17-1.5c4.79.64,9.42,1.94,13.88,3.79l-10.03-4.23c5.81,2.48,11.17,5.8,16.18,9.63l-8.5-6.57c16.85,13.05,28.54,30.76,42.72,46.37,9.89,10.88,21.43,20.67,33.81,28.57,7.44,4.75,15.74,8.25,23.98,11.29s17.2,4.17,25.75,4.68c2.82.17,5.61.02,8.41-.32,6.55-.81,13.37-1.34,19.65-3.61,9.37-3.39,17.82-8.17,26.88-12.11-3.34,1.41-6.69,2.82-10.03,4.23,3.06-1.29,6.17-2.29,9.46-2.76l-11.17,1.5c6.51-.79,13.04-1.15,19.5-2.42.78-.15,1.56-.35,2.31-.61,3.75-1.29,7.76-2.98,11.3-4.74,4.23-2.1,8.12-5.35,11.45-8.52.4-.38.77-.77,1.14-1.19,2.5-2.79,5.14-6.25,7.24-9.37,1.7-2.53,2.67-5.38,3.85-8.19,1.74-4.12,3.28-7.72,3.95-12.1,2.68-17.52,3.25-35.3,4.39-52.97,1.92-29.83,3.85-59.66,5.77-89.49,1.09-16.9,2.18-33.81,3.27-50.71.22-5.78-.99-11.18-3.62-16.18-1.69-5.21-4.59-9.71-8.68-13.52-3.8-4.1-8.31-6.99-13.52-8.68-5.01-2.63-10.4-3.84-16.18-3.62l-11.17,1.5c-7.12,2-13.29,5.6-18.53,10.8-2.19,2.83-4.38,5.67-6.57,8.5-3.8,6.55-5.71,13.62-5.73,21.2h0Z"/>
  </g>
  <g class="cls-5">
    <path class="cls-3" d="m1740.91,2059.53c1.88,1.9,3.76,3.8,5.64,5.71,2.72,2.93,5.94,4.99,9.65,6.2,3.58,1.88,7.43,2.74,11.56,2.58,4.13.16,7.98-.71,11.56-2.58,3.72-1.21,6.94-3.28,9.65-6.2l4.69-6.07c2.71-4.68,4.08-9.73,4.1-15.14-.36-2.66-.71-5.32-1.07-7.98-1.43-5.08-4-9.49-7.72-13.24-1.88-1.9-3.76-3.8-5.64-5.71-2.72-2.93-5.94-4.99-9.65-6.2-3.58-1.88-7.43-2.74-11.56-2.58-4.13-.16-7.98.71-11.56,2.58-3.72,1.21-6.94,3.28-9.65,6.2l-4.69,6.07c-2.71,4.68-4.08,9.73-4.1,15.14.36,2.66.71,5.32,1.07,7.98,1.43,5.08,4,9.49,7.72,13.24h0Z"/>
  </g>
  <g class="cls-5">
    <path class="cls-3" d="m1211.35,2060.93c1.89.95,3.78,1.89,5.67,2.84,3.44,2.19,7.16,3.38,11.15,3.56,3.99.89,7.98.71,11.96-.54,3.9-.93,7.3-2.72,10.2-5.37,3.27-2.12,5.84-4.92,7.73-8.42l3.02-7.17c1.43-5.32,1.43-10.63,0-15.95l-3.02-7.17c-2.67-4.51-6.25-8.1-10.76-10.76-1.89-.95-3.78-1.89-5.67-2.84-3.44-2.19-7.16-3.38-11.15-3.56-3.99-.89-7.98-.71-11.96.54-3.9.93-7.3,2.72-10.2,5.37-3.27,2.12-5.84,4.92-7.73,8.42l-3.02,7.17c-1.43,5.32-1.43,10.63,0,15.95l3.02,7.17c2.67,4.51,6.25,8.1,10.76,10.76h0Z"/>
  </g>
  <g class="cls-5">
    <path class="cls-3" d="m1193,2293.03c-.08.86-.1,1.72-.02,2.59.31,3.33.61,6.7,1.41,9.96.97,3.98,2.7,7.89,4.78,11.42,4.3,7.3,10.04,12.62,17.01,17.27,3.51,2.34,7.7,3.77,11.55,5.32,1.76.71,3.58,1.27,5.42,1.71,6.33,1.5,12.88,2.08,19.34,2.77l7.98-1.07c3.9-.93,7.3-2.72,10.2-5.37,2.25-1.33,4.05-3.13,5.38-5.38,2.65-2.9,4.44-6.3,5.37-10.2l1.07-7.98-1.07-7.98c-.93-3.9-2.72-7.3-5.37-10.2-2.12-3.27-4.92-5.84-8.42-7.73-2.05-1.3-4.1-2.6-6.14-3.9-3.44-2.19-7.16-3.38-11.15-3.56-3.99-.89-7.98-.71-11.96.54-3.9.93-7.3,2.72-10.2,5.37-3.27,2.12-5.84,4.92-7.73,8.42l-3.02,7.17c-1.43,5.32-1.43,10.63,0,15.95l3.02,7.17c2.67,4.51,6.25,8.1,10.76,10.76,2.05,1.3,4.1,2.6,6.14,3.9l15.14-55.9c-1.76-.19-3.52-.38-5.28-.61l7.98,1.07c-4.07-.56-8.11-1.37-11.92-2.96l7.17,3.02c-1.86-.81-3.6-1.78-5.21-3.01l6.07,4.69c-1.4-1.11-2.65-2.35-3.76-3.76l4.69,6.07c-.9-1.2-1.67-2.47-2.27-3.85l3.02,7.17c-.47-1.14-.8-2.3-1-3.52l1.07,7.98c-.15-1.11-.17-2.2-.06-3.31.16-4.13-.71-7.98-2.58-11.56-1.21-3.72-3.28-6.94-6.2-9.65-2.72-2.93-5.94-4.99-9.65-6.2-3.58-1.88-7.43-2.74-11.56-2.58l-7.98,1.07c-5.08,1.43-9.49,4-13.24,7.72l-4.69,6.07c-2.71,4.68-4.08,9.73-4.1,15.14h0Z"/>
  </g>
  <g class="cls-5">
    <path class="cls-3" d="m1676.57,2345.57c2.3,3.03,4.51,6.55,7.51,9.04,2.42,2,4.91,4.02,7.52,5.77.62.41,1.26.79,1.92,1.13,2.84,1.45,5.86,2.61,8.82,3.77.7.27,1.4.52,2.12.72,3.87,1.09,8.09,1.45,12,1.82,1.47.14,2.94.14,4.41.02,3.28-.28,6.57-.77,9.82-1.3.75-.12,1.5-.28,2.23-.47,3.8-.99,7.55-2.8,11.04-4.4,1.32-.6,2.58-1.33,3.74-2.19,2.6-1.92,5.29-3.83,7.68-6.02.58-.53,1.13-1.1,1.64-1.71,2.56-3.05,5.52-6.38,7.24-10.12,2.19-3.44,3.38-7.16,3.56-11.15.89-3.99.71-7.98-.54-11.96-.93-3.9-2.72-7.3-5.37-10.2-2.12-3.27-4.92-5.84-8.42-7.73-2.39-1.01-4.78-2.02-7.17-3.02-5.32-1.43-10.63-1.43-15.95,0l-7.17,3.02c-4.51,2.67-8.1,6.25-10.76,10.76-.55,1.21-1.23,2.33-2.03,3.4l4.69-6.07c-.97,1.25-2.09,2.36-3.33,3.35l6.07-4.69c-1.49,1.15-3.11,2.08-4.83,2.81l7.17-3.02c-1.93.8-3.95,1.34-6.02,1.64l7.98-1.07c-2.17.29-4.36.3-6.53.03l7.98,1.07c-1.96-.27-3.86-.77-5.68-1.53l7.17,3.02c-1.45-.63-2.82-1.41-4.09-2.37l6.07,4.69c-1.2-.93-2.26-1.98-3.19-3.17l4.69,6.07-.17-.23c-1.89-3.5-4.46-6.3-7.73-8.42-2.9-2.65-6.3-4.44-10.2-5.37-3.99-1.25-7.98-1.43-11.96-.54-3.99.18-7.71,1.37-11.15,3.56l-6.07,4.69c-3.72,3.74-6.29,8.16-7.72,13.24-.36,2.66-.71,5.32-1.07,7.98.02,5.42,1.38,10.46,4.1,15.14h0Z"/>
  </g>
  <path class="cls-2" d="m1327.66,1209.21c-66.77,10.72-132.91,25.25-197.99,43.61-32.54,9.18-64.81,19.3-96.76,30.36-30.11,10.42-60.47,21.13-88.93,35.57-28.59,14.51-54.06,33.96-73.54,59.54-19.94,26.19-30.32,58.33-40.36,89.29-5.81,17.92-10.56,36.03-11.81,54.93s3.11,38.24,11.62,55.53c13.9,28.25,40.89,49.09,67.45,64.66,29.71,17.41,61.93,30.37,94.09,42.47,30.94,11.64,62.04,22.87,93.18,33.95,63.1,22.45,126.63,43.78,190.92,62.56,64.39,18.81,129.58,35.07,195.58,47.21,34.88,6.41,70,11.63,105.23,15.71,32.64,3.77,65.85,7.48,98.76,6.7,34.85-.83,69.03-8.24,99.23-26.15,26.02-15.42,48.28-36.72,68.08-59.39,20.25-23.19,39.16-47.65,58.12-71.89,21.18-27.09,41.99-54.5,60.94-83.21,8.85-13.41,17.28-27.1,25.19-41.09s3.7-33.41-10.76-41.05c-14.21-7.51-32.79-3.83-41.05,10.76-15.84,27.99-33.79,54.7-52.83,80.61-4.46,6.07-8.98,12.1-13.54,18.09-1.24,1.64-2.49,3.27-3.74,4.9-.95,1.24-5.19,7-.33.44-2.45,3.3-5.05,6.5-7.58,9.73-9.72,12.4-19.56,24.71-29.41,37.01-17.5,21.86-35.17,43.82-55.92,62.73-2.17,1.98-4.38,3.93-6.62,5.83-1.34,1.14-2.69,2.26-4.06,3.37-1.9,1.54-6.42,3.59.56-.36-5.99,3.4-11.36,8.16-17.34,11.7-5.43,3.22-11.79,5.38-17.05,8.77,6.51-4.19,3.26-1.35.67-.37-1.73.66-3.47,1.28-5.22,1.87-3.8,1.28-7.66,2.4-11.56,3.36s-7.81,1.78-11.75,2.46l-1.98.33c-3.31.5-2.64.43,2.02-.21-.04-.08-4.28.5-3.99.47-8.02.87-16.08,1.26-24.14,1.34-16.3.17-32.58-.95-48.82-2.26s-32.01-2.88-47.97-4.75c-3.47-.41-6.93-.83-10.39-1.26-2.08-.26-4.15-.52-6.23-.79-1.71-.22-8.99-.9-.33-.03-8.3-.84-16.61-2.32-24.86-3.59-64.2-9.83-127.7-23.88-190.42-40.69-62.97-16.88-125.17-36.55-186.84-57.65-30.52-10.44-60.92-21.24-91.25-32.24-15.38-5.58-30.74-11.19-46.07-16.87-7.32-2.71-14.63-5.45-21.91-8.27-3.17-1.22-6.33-2.46-9.48-3.72-1.89-.75-3.78-1.51-5.67-2.28-1.66-.68-10.51-3.85-2.23-.88-14.48-5.2-28.65-12.8-42.12-20.18-6.16-3.38-12.25-6.91-18.16-10.71-2.91-1.87-5.78-3.8-8.6-5.82-.94-.67-1.86-1.37-2.81-2.04-2.5-1.89-1.86-1.38,1.94,1.53-.91-.72-1.81-1.44-2.7-2.18-4.87-4.01-9.5-8.32-13.77-12.97-1.15-1.26-2.23-2.57-3.36-3.84-4.15-4.63,4.04,5.85.53.75-1.91-2.77-3.81-5.52-5.48-8.44-.83-1.45-1.62-2.93-2.35-4.43l-.72-1.51c-1.29-2.87-.94-2.02,1.05,2.55-.37-2.87-2.1-5.98-2.81-8.84-.4-1.62-.69-3.27-1.04-4.9-1.51-6.91.13,6.83.08-.21-.03-4.83-.24-9.57.18-14.4.12-1.35.41-2.78.43-4.12-.12,8.12-.19,1.91.22-.26.78-4.14,1.73-8.24,2.8-12.31,2.13-8.16,4.73-16.19,7.36-24.21,2.21-6.75,4.43-13.49,6.79-20.19,1.18-3.35,2.4-6.69,3.66-10.01.58-1.51,1.16-3.01,1.76-4.51.48-1.2.96-2.39,1.46-3.58-1.78,4.2-2.03,4.81-.75,1.84,2.97-6.41,5.98-12.76,9.55-18.87,1.94-3.32,3.99-6.57,6.18-9.73.9-1.3,1.85-2.55,2.77-3.84,1.36-1.82.69-.95-2.02,2.61.73-.91,1.46-1.81,2.21-2.69,4.09-4.86,8.52-9.43,13.21-13.72,2.56-2.34,5.22-4.53,7.89-6.75,4.87-4.06-5.75,4.14-.58.46,1.42-1.01,2.81-2.05,4.23-3.04,11.53-8.06,23.9-14.86,36.61-20.87,2.68-1.26,5.37-2.5,8.07-3.7,1.61-.71,3.34-1.31,4.89-2.13-7.71,4.06-2.56,1.08-.61.27,6.56-2.69,13.17-5.25,19.81-7.73,29.91-11.16,60.21-21.33,90.71-30.74,62.59-19.31,126.28-35.09,190.65-47.23,15.92-3,31.88-5.78,47.88-8.34,6.96-1.12,14.52-7.97,17.93-13.79,3.76-6.43,5.36-15.91,3.02-23.12-5.46-16.86-20.25-23.63-36.9-20.95h0Z"/>
  <path class="cls-2" d="m1982.61,1576.17c6.51-9.82,12.75-19.83,17.43-30.67,3.15-7.32,6.3-14.62,7.91-22.46s2.75-15.74,2.07-23.54c-1.36-15.57-6.21-30.25-15.73-42.77-8.09-10.64-17.07-19.83-27.15-28.58-19.47-16.89-40.6-32.11-63.18-44.57-23.39-12.92-48.3-23.16-73.39-32.29-23.39-8.51-47.14-16-70.81-23.66-24.93-8.06-49.87-16.05-74.85-23.98-49.75-15.78-99.58-31.29-149.5-46.52-49.72-15.17-99.53-30.07-149.42-44.68-6.29-1.84-12.57-3.68-18.86-5.51-7.4-2.16-16.5-.85-23.12,3.02-6.22,3.64-12.16,10.78-13.79,17.93-1.75,7.68-1.37,16.3,3.02,23.12s10.23,11.54,17.93,13.79c65.23,19.02,130.33,38.51,195.28,58.47,64.95,19.96,129.76,40.39,194.42,61.28,34.48,11.14,69.25,21.83,102.68,35.92-2.39-1.01-4.78-2.02-7.17-3.02,28.55,12.11,55.56,27.18,80.14,46.15l-6.07-4.69c13.08,10.17,26.44,21.09,36.71,34.19l-4.69-6.07c3.24,4.25,6.04,8.74,8.16,13.65l-3.02-7.17c1.57,3.85,2.65,7.79,3.24,11.9l-1.07-7.98c.55,4.52.49,9-.07,13.52l1.07-7.98c-.96,6.73-2.97,13.17-5.58,19.43,1.01-2.39,2.02-4.78,3.02-7.17-4.66,10.84-10.92,20.86-17.43,30.67-4.16,6.27-4.98,16.03-3.02,23.12s7.3,14.5,13.79,17.93c6.96,3.68,15.4,5.52,23.12,3.02s13.44-7.02,17.93-13.79h0Z"/>
  <path class="cls-2" d="m1427.53,1817.65c.51.54.99,1.1,1.44,1.68l-4.69-6.07c1.09,1.46,1.97,3.03,2.68,4.71l-3.02-7.17c.97,2.41,1.57,4.92,1.94,7.49l-1.07-7.98c.61,4.55.52,9.15.29,13.73-.28,5.74-.6,11.48-.9,17.22-.62,11.81-1.24,23.62-1.86,35.43-1.24,23.62-2.47,47.24-3.71,70.85-.7,13.31-1.39,26.61-2.09,39.92-.16,4.13.71,7.98,2.58,11.56,1.21,3.72,3.28,6.94,6.2,9.65,2.72,2.93,5.94,4.99,9.65,6.2,3.58,1.88,7.43,2.74,11.56,2.58l7.98-1.07c5.08-1.43,9.49-4,13.24-7.72l4.69-6.07c2.71-4.68,4.08-9.73,4.1-15.14,1.39-26.61,2.79-53.22,4.18-79.84,1.39-26.45,2.77-52.89,4.16-79.34.31-5.99.7-11.99-.07-17.97-.67-5.2-1.04-10.55-3.01-15.46-1.26-3.16-2.72-7.26-4.67-10.38-2.06-3.3-4.49-6.42-7.17-9.25-2.72-2.93-5.94-4.99-9.65-6.2-3.58-1.88-7.43-2.74-11.56-2.58-4.13-.16-7.98.71-11.56,2.58-3.72,1.21-6.94,3.28-9.65,6.2l-4.69,6.07c-2.71,4.68-4.08,9.73-4.1,15.14l1.07,7.98c1.43,5.08,4,9.49,7.72,13.24h0Z"/>
  <path class="cls-2" d="m1522.09,1826.84c-.89,23.79-1.78,47.58-2.68,71.37-.89,23.84-1.75,47.69-2.69,71.54-.52,13.21-1.2,26.43-2.95,39.54l1.07-7.98c-.24,1.79-.5,3.58-.79,5.36-1.25,3.99-1.43,7.98-.54,11.96.18,3.99,1.37,7.71,3.56,11.15,1.89,3.5,4.46,6.3,7.73,8.42,2.9,2.65,6.3,4.44,10.2,5.37l7.98,1.07c5.42-.02,10.46-1.38,15.14-4.1l6.07-4.69c3.72-3.74,6.29-8.16,7.72-13.24,2.3-14.52,3.71-29.09,4.42-43.77.59-12.24.97-24.49,1.43-36.73.92-24.62,1.85-49.24,2.77-73.86.52-13.81,1.04-27.62,1.55-41.42.16-4.13-.71-7.98-2.58-11.56-1.21-3.72-3.28-6.94-6.2-9.65-2.72-2.93-5.94-4.99-9.65-6.2-3.58-1.88-7.43-2.74-11.56-2.58l-7.98,1.07c-5.08,1.43-9.49,4-13.24,7.72l-4.69,6.07c-2.71,4.68-4.08,9.73-4.1,15.14h0Z"/>
  <path class="cls-2" d="m1252.69,2201.56c.99-.31,1.97-.66,2.93-1.04,3.29-1.32,6.61-2.65,9.81-4.19,1.92-.93,3.78-1.99,5.56-3.15,3.77-2.45,7.28-5.32,10.8-8.08,1.71-1.34,3.36-2.74,4.98-4.18,7.12-6.36,13.79-13.25,20.61-19.92,14.62-14.3,29.24-28.6,43.85-42.9,8.2-8.02,16.4-16.05,24.6-24.07,2.93-2.72,4.99-5.94,6.2-9.65,1.88-3.58,2.74-7.43,2.58-11.56.16-4.13-.71-7.98-2.58-11.56-1.21-3.72-3.28-6.94-6.2-9.65l-6.07-4.69c-4.68-2.71-9.73-4.08-15.14-4.1l-7.98,1.07c-5.08,1.43-9.49,4-13.24,7.72-12.54,12.27-25.08,24.53-37.61,36.8-12.48,12.21-24.96,24.42-37.44,36.63-6.27,6.13-12.39,12.52-19.32,17.91l6.07-4.69c-3.73,2.86-7.7,5.38-12.03,7.22l7.17-3.02c-1.15.47-2.32.9-3.51,1.28-3.9.93-7.3,2.72-10.2,5.37-3.27,2.12-5.84,4.92-7.73,8.42-2.19,3.44-3.38,7.16-3.56,11.15-.89,3.99-.71,7.98.54,11.96l3.02,7.17c2.67,4.51,6.25,8.1,10.76,10.76l7.17,3.02c5.32,1.43,10.63,1.43,15.95,0h0Z"/>
  <path class="cls-2" d="m1403.04,2244.12c19.27-26.78,38.55-53.55,57.82-80.33,5.13-7.13,10.13-14.38,15.49-21.34l-4.69,6.07c3.6-4.66,7.51-9.09,12.17-12.72l-6.07,4.69c2.49-1.91,5.15-3.52,8.03-4.78l-7.17,3.02c2.73-1.15,5.56-1.96,8.49-2.35l-7.98,1.07c2.23-.27,4.45-.29,6.68,0l-7.98-1.07c1.95.28,3.82.78,5.64,1.54l-7.17-3.02c1.71.75,3.29,1.71,4.78,2.84l-6.07-4.69c2.65,2.08,4.87,4.59,6.93,7.24l-4.69-6.07c5.51,7.19,10.61,14.73,15.87,22.1,5.51,7.71,11.02,15.42,16.53,23.13,11.02,15.42,22.04,30.84,33.06,46.26,6.19,8.66,12.37,17.31,18.56,25.97,1.89,3.5,4.46,6.3,7.73,8.42,2.9,2.65,6.3,4.44,10.2,5.37,3.99,1.25,7.98,1.43,11.96.54,3.99-.18,7.71-1.37,11.15-3.56l6.07-4.69c3.72-3.74,6.29-8.16,7.72-13.24l1.07-7.98c-.02-5.42-1.38-10.46-4.1-15.14-13.44-18.8-26.87-37.61-40.31-56.41-13.44-18.8-26.87-37.61-40.31-56.41-2.8-3.92-5.72-7.75-8.72-11.52-1.46-1.84-3.02-3.6-4.77-5.17-2.6-2.32-5.42-4.41-8.24-6.44-.97-.7-1.99-1.33-3.07-1.86-2.67-1.33-5.49-2.4-8.24-3.52-.55-.22-1.09-.44-1.65-.62-1.11-.37-2.25-.64-3.41-.83-4.7-.75-9.63-1.71-14.44-1.24s-9.71.94-14.23,2.38c-2.26.72-4.43,1.72-6.61,2.64s-4.52,1.84-6.66,3.01c-4.19,2.3-8.01,5.54-11.68,8.48s-7.15,6.71-10.2,10.54c-4.67,5.85-9.09,11.85-13.45,17.92-6.77,9.4-13.53,18.8-20.3,28.2-13.53,18.8-27.06,37.6-40.59,56.39-1.65,2.3-3.31,4.6-4.96,6.9-2.19,3.44-3.38,7.16-3.56,11.15-.89,3.99-.71,7.98.54,11.96.93,3.9,2.72,7.3,5.37,10.2,2.12,3.27,4.92,5.84,8.42,7.73l7.17,3.02c5.32,1.43,10.63,1.43,15.95,0l7.17-3.02c4.51-2.67,8.1-6.25,10.76-10.76h0Z"/>
  <path class="cls-2" d="m1605.67,2095.9c17.28,19.98,34.13,40.33,50.53,61.03,4.62,5.83,9.2,11.68,13.74,17.57l-4.69-6.07c15.66,20.28,30.91,40.88,45.71,61.8,4.2,5.94,8.37,11.9,12.5,17.89,1.89,3.5,4.46,6.3,7.73,8.42,2.9,2.65,6.3,4.44,10.2,5.37,3.99,1.25,7.98,1.43,11.96.54,3.99-.18,7.71-1.37,11.15-3.56l6.07-4.69c3.72-3.74,6.29-8.16,7.72-13.24l1.07-7.98c-.02-5.42-1.38-10.46-4.1-15.14-14.82-21.48-30.1-42.65-45.82-63.48-17.17-22.74-34.76-45.17-52.88-67.17-9.35-11.35-18.85-22.59-28.47-33.72-2.72-2.93-5.94-4.99-9.65-6.2-3.58-1.88-7.43-2.74-11.56-2.58-4.13-.16-7.98.71-11.56,2.58-3.72,1.21-6.94,3.28-9.65,6.2l-4.69,6.07c-2.71,4.68-4.08,9.73-4.1,15.14l1.07,7.98c1.43,5.08,4,9.49,7.72,13.24h0Z"/>
  <path class="cls-2" d="m1367.48,2103.28c7.65-3.05,9.23-3.64,15.45-8.97,2.63-2.25,4.65-5.24,6.52-8.11.25-.39.47-.8.67-1.21,1.27-2.61,2.49-5.46,3.45-8.21,1.15-3.3,1.42-7.89,1.69-10.8.09-.99.1-1.98,0-2.97-.36-3.52-.58-7.43-1.67-10.92-2.35-7.49-5.56-12.75-10.81-18.53-2.46-2.71-5.98-5.05-8.7-7.11-1.11-.84-2.27-1.6-3.49-2.28-4.52-2.51-9.41-4.37-14.25-6.17-5.88-2.19-11.83-4.17-17.69-6.38-6.81-2.57-13.56-5.26-20.26-8.09,2.39,1.01,4.78,2.02,7.17,3.02-26.11-11.02-51.38-23.99-75.54-38.8-6.85-4.2-13.6-8.54-20.26-13.03-3.44-2.19-7.16-3.38-11.15-3.56-3.99-.89-7.98-.71-11.96.54-3.9.93-7.3,2.72-10.2,5.37-3.27,2.12-5.84,4.92-7.73,8.42l-3.02,7.17c-1.43,5.32-1.43,10.63,0,15.95l3.02,7.17c2.67,4.51,6.25,8.1,10.76,10.76,16.72,11.25,34.03,21.62,51.86,31.02,19.86,10.47,40.36,19.66,61.2,27.98,5.28,2.11,10.59,4.13,15.93,6.08,4.94,1.8,9.99,3.37,14.84,5.39l-7.17-3.02c2.71,1.15,5.32,2.5,7.67,4.29l-6.07-4.69c1.29,1.02,2.46,2.15,3.49,3.44l-4.69-6.07c.69.9,1.25,1.84,1.71,2.87l-3.02-7.17c.51,1.21.86,2.46,1.05,3.75l-1.07-7.98c.17,1.29.19,2.57.04,3.86l1.07-7.98c-.16,1.15-.44,2.25-.89,3.32l3.02-7.17c-.34.76-.76,1.47-1.27,2.14l4.69-6.07c-.41.5-.85.95-1.35,1.36l6.07-4.69c-.6.47-1.24.84-1.94,1.15l7.17-3.02-.27.11c-3.9.93-7.3,2.72-10.2,5.37-3.27,2.12-5.84,4.92-7.73,8.42-2.19,3.44-3.38,7.16-3.56,11.15-.89,3.99-.71,7.98.54,11.96l3.02,7.17c2.67,4.51,6.25,8.1,10.76,10.76l7.17,3.02c5.32,1.43,10.63,1.43,15.95,0h0Z"/>
  <path class="cls-2" d="m1332.53,1923.51c.15-.17.31-.32.49-.46-2.02,1.56-4.05,3.13-6.07,4.69.27-.19.52-.34.81-.48l-7.17,3.02c.3-.11.57-.19.89-.26l-7.98,1.07c.54-.07,1.06-.06,1.6,0l-7.98-1.07c.7.12,1.35.32,2.01.59l-7.17-3.02c1.26.55,2.41,1.25,3.5,2.07l-6.07-4.69c7.93,6.17,15.58,12.7,23.51,18.88,9.82,7.66,19.7,15.25,29.85,22.47,16.34,11.65,33.33,22.45,51.18,31.65,12.22,6.29,24.86,11.82,37.7,16.7-4.41-16.71-8.83-33.43-13.24-50.14-1.43,1.38-2.87,2.75-4.3,4.13-2.93,2.72-4.99,5.94-6.2,9.65-1.88,3.58-2.74,7.43-2.58,11.56-.16,4.13.71,7.98,2.58,11.56,1.21,3.72,3.28,6.94,6.2,9.65l6.07,4.69c4.68,2.71,9.73,4.08,15.14,4.1l7.98-1.07c5.08-1.43,9.49-4,13.24-7.72,1.43-1.38,2.87-2.75,4.3-4.13,7.67-7.37,10.51-19.03,7.72-29.19-1.43-5.08-4-9.49-7.72-13.24-3.74-3.72-8.16-6.29-13.24-7.72-3.16-1.2-6.3-2.46-9.42-3.78l7.17,3.02c-26.16-11.07-50.52-25.93-73.56-42.45-6.6-4.73-13.11-9.61-19.54-14.57l6.07,4.69c-6.6-5.1-13.12-10.3-19.6-15.57-1.6-1.3-3.2-2.61-4.79-3.92-1.69-1.39-3.4-2.71-5.13-4.05-1.62-1.25-3.24-2.65-5.04-3.68-5.97-3.4-12.24-5.33-19.14-5.47-9.08-.18-18.14,3.55-24.51,10.02-2.93,2.72-4.99,5.94-6.2,9.65-1.88,3.58-2.74,7.43-2.58,11.56-.16,4.13.71,7.98,2.58,11.56,1.21,3.72,3.28,6.94,6.2,9.65l6.07,4.69c4.68,2.71,9.73,4.08,15.14,4.1l7.98-1.07c5.08-1.43,9.49-4,13.24-7.72h0Z"/>
  <path class="cls-2" d="m1559.66,2038.69c21.61-11.69,43.16-23.48,64.66-35.38,21.35-11.81,42.65-23.72,63.89-35.73,12.06-6.82,24.09-13.66,36.12-20.54,3.5-1.89,6.3-4.46,8.42-7.73,2.65-2.9,4.44-6.3,5.37-10.2,1.25-3.99,1.43-7.98.54-11.96-.18-3.99-1.37-7.71-3.56-11.15l-4.69-6.07c-3.74-3.72-8.16-6.29-13.24-7.72l-7.98-1.07c-5.42.02-10.46,1.38-15.14,4.1-21.32,12.2-42.7,24.31-64.13,36.31-21.29,11.92-42.64,23.75-64.04,35.47-12.15,6.65-24.31,13.28-36.49,19.87-3.5,1.89-6.3,4.46-8.42,7.73-2.65,2.9-4.44,6.3-5.37,10.2-1.25,3.99-1.43,7.98-.54,11.96.18,3.99,1.37,7.71,3.56,11.15l4.69,6.07c3.74,3.72,8.16,6.29,13.24,7.72l7.98,1.07c5.42-.02,10.46-1.38,15.14-4.1h0Z"/>
  <path class="cls-2" d="m1639.13,2095.18c21.79-10.13,43.43-20.57,64.92-31.33,21.41-10.72,42.67-21.76,63.76-33.1,11.9-6.4,23.74-12.9,35.54-19.49,3.5-1.89,6.3-4.46,8.42-7.73,2.65-2.9,4.44-6.3,5.37-10.2,1.25-3.99,1.43-7.98.54-11.96-.18-3.99-1.37-7.71-3.56-11.15l-4.69-6.07c-3.74-3.72-8.16-6.29-13.24-7.72l-7.98-1.07c-5.42.02-10.46,1.38-15.14,4.1-20.97,11.73-42.11,23.15-63.42,34.26-21.23,11.07-42.63,21.83-64.18,32.28-12.16,5.89-24.36,11.69-36.62,17.38-3.5,1.89-6.3,4.46-8.42,7.73-2.65,2.9-4.44,6.3-5.37,10.2-1.25,3.99-1.43,7.98-.54,11.96.18,3.99,1.37,7.71,3.56,11.15l4.69,6.07c3.74,3.72,8.16,6.29,13.24,7.72l7.98,1.07c5.42-.02,10.46-1.38,15.14-4.1h0Z"/>
  <path class="cls-2" d="m1216.57,2184.45c1.67,19.91,3.35,39.82,5.02,59.73.84,9.96,1.67,19.91,2.51,29.87.42,4.98.84,9.96,1.26,14.93.3,3.53.79,7.05,1.33,10.55.17,1.1.4,2.15.8,3.19.79,2.08,2.14,5.36,3.11,7.35.12.25.24.49.37.72.1.18.22.35.33.52,1.31,1.93,3.37,4.62,4.92,6.38.3.33.59.66.93.95,1.09.95,2.45,1.91,3.48,2.71,1.08.84,2.4,1.96,3.66,2.78.76.49,1.58.9,2.41,1.26,3.21,1.42,6.46,2.77,9.72,4.08,2.12.85,4.25,1.65,6.4,2.41,4.3,1.51,8.67,2.84,13.09,3.99,11.26,2.91,22.9,4.61,34.47,5.63,9.09.8,18.25.83,27.34.08,2.23-.18,4.45-.41,6.67-.7,4.31-.56,9.24-.72,13.41-2.37,2.67-1.05,5.51-2.12,8.06-3.43.41-.21.8-.45,1.18-.71,2.29-1.59,4.77-3.45,6.85-5.29.44-.39.84-.8,1.22-1.25,1.83-2.15,3.66-4.52,5.28-6.84.26-.37.5-.76.72-1.16,1.69-2.98,3.06-6.77,4.22-9.67,1.66-4.16,2.96-8.51,4.28-12.79,1.41-4.56,2.73-9.15,3.96-13.77,2.46-9.23,4.55-18.56,6.26-27.96.43-2.35.83-4.7,1.22-7.06,1.25-3.99,1.43-7.98.54-11.96-.18-3.99-1.37-7.71-3.56-11.15-1.89-3.5-4.46-6.3-7.73-8.42-2.9-2.65-6.3-4.44-10.2-5.37l-7.98-1.07c-5.42.02-10.46,1.38-15.14,4.1l-6.07,4.69c-3.72,3.74-6.29,8.16-7.72,13.24-2.68,16.5-6.5,32.82-11.44,48.79-1.34,4.34-2.64,8.76-4.36,12.97l3.02-7.17c-.62,1.46-1.34,2.84-2.3,4.1l4.69-6.07c-.5.61-1.04,1.15-1.64,1.65l6.07-4.69c-.74.56-1.52,1.01-2.37,1.4l7.17-3.02c-1.74.72-3.56,1.08-5.42,1.35l7.98-1.07c-13.8,1.84-27.9,1.65-41.69-.19l7.98,1.07c-13.84-1.88-27.44-5.51-40.34-10.87l7.17,3.02c-1.32-.56-2.59-1.17-3.76-2.01l6.07,4.69c-.51-.4-.96-.82-1.38-1.31l4.69,6.07c-.42-.55-.74-1.11-1.03-1.73l3.02,7.17c-.41-1.04-.64-2.09-.8-3.19l1.07,7.98c-.85-6.79-1.19-13.68-1.76-20.49s-1.17-13.94-1.76-20.91c-1.18-14.02-2.36-28.04-3.54-42.06-.66-7.88-1.33-15.76-1.99-23.64.16-4.13-.71-7.98-2.58-11.56-1.21-3.72-3.28-6.94-6.2-9.65-2.72-2.93-5.94-4.99-9.65-6.2-3.58-1.88-7.43-2.74-11.56-2.58l-7.98,1.07c-5.08,1.43-9.49,4-13.24,7.72l-4.69,6.07c-2.71,4.68-4.08,9.73-4.1,15.14h0Z"/>
  <path class="cls-2" d="m1568.05,2248.81c1.04,8.32,2.08,16.64,3.11,24.96l1.54,12.36c.56,4.51,1.08,9.02,1.79,13.51.66,4.19,2.5,8.02,4.26,11.86.34.75.72,1.45,1.2,2.13,1.53,2.19,3.38,4.58,5.11,6.61.26.3.52.59.81.87.24.23.5.45.76.66,2.11,1.74,4.37,3.51,6.61,5.09.6.42,1.23.79,1.89,1.11,2.83,1.37,5.79,2.62,8.75,3.69.72.26,1.45.48,2.19.66,3.98.98,8.17,1.34,12.22,1.8,7.73.88,15.63.93,23.4,1.09,16.38.32,32.78-.17,49.11-1.48,8.21-.66,16.4-1.52,24.56-2.59,6.62-.87,13.24-1.74,19.84-2.77,3.57-.56,7.45-.82,10.85-2.09,2.58-.97,5.37-2.1,7.84-3.32.33-.16.64-.35.95-.56,1.62-1.07,4.71-3.54,6.22-4.8.14-.12.29-.23.42-.35s.27-.26.4-.39c1.63-1.7,3.56-4.43,4.93-6.36.22-.3.43-.6.61-.93.09-.16.16-.33.24-.5.91-1.93,2.35-5.32,3.1-7.34.28-.77.5-1.55.63-2.36,1.05-6.45,1.55-12.81,1.86-19.31.39-8.3.49-16.61.3-24.91-.05-2.06-.11-4.11-.2-6.16.16-4.13-.71-7.98-2.58-11.56-1.21-3.72-3.28-6.94-6.2-9.65-2.72-2.93-5.94-4.99-9.65-6.2-3.58-1.88-7.43-2.74-11.56-2.58l-7.98,1.07c-5.08,1.43-9.49,4-13.24,7.72l-4.69,6.07c-2.71,4.68-4.08,9.73-4.1,15.14.28,7.07.36,14.14.22,21.21s-.21,13.82-1.03,20.62c.36-2.66.71-5.32,1.07-7.98-.14,1.01-.35,1.98-.71,2.93l3.02-7.17c-.25.57-.54,1.09-.92,1.59l4.69-6.07c-.33.38-.67.71-1.06,1.03l6.07-4.69c-.51.36-1.03.64-1.6.89l7.17-3.02c-3.07,1.21-6.58,1.46-9.81,1.97-3.7.59-7.41,1.13-11.13,1.63l7.98-1.07c-26.18,3.51-52.62,4.94-79.03,4.24-6.93-.19-14-.23-20.88-1.12l7.98,1.07c-2.23-.31-4.42-.79-6.5-1.66l7.17,3.02c-1.04-.46-2.01-1.01-2.92-1.69,2.02,1.56,4.05,3.13,6.07,4.69-.71-.57-1.34-1.19-1.91-1.9l4.69,6.07c-.57-.75-1.02-1.54-1.4-2.4l3.02,7.17c-.76-1.85-1.12-3.78-1.39-5.75l1.07,7.98c-1.85-13.92-3.48-27.87-5.22-41.8.16-4.13-.71-7.98-2.58-11.56-1.21-3.72-3.28-6.94-6.2-9.65-2.72-2.93-5.94-4.99-9.65-6.2-3.58-1.88-7.43-2.74-11.56-2.58l-7.98,1.07c-5.08,1.43-9.49,4-13.24,7.72l-4.69,6.07c-2.71,4.68-4.08,9.73-4.1,15.14h0Z"/>
  <path class="cls-2" d="m1706.69,1940.15c7.23,1.03,14.27,3.02,20.99,5.84l-7.17-3.02c8.07,3.42,15.59,7.99,22.52,13.35l-6.07-4.69c9.39,7.3,17.64,15.97,24.91,25.37l-4.69-6.07c4.9,6.37,9.35,13.07,13.38,20.02,1.01,1.75,2,3.51,2.96,5.29.42.77.81,1.53,1.31,2.26,3.39,4.97,6.02,8.16,11.27,11.27,2.51,1.49,5.28,2.58,8.06,3.38,13.09,3.79,27.69-2.4,34.53-14.04,4.24-7.22,5.27-15.99,2.99-24.03-2.91-10.27-11.06-18.57-21.42-21.4-7.78-2.13-16.27-1.03-23.24,3.04-4.76,2.77-8.12,6.34-10.98,11.01-2.19,3.44-3.38,7.16-3.56,11.15-.89,3.99-.71,7.98.54,11.96.93,3.9,2.72,7.3,5.37,10.2,2.12,3.27,4.92,5.84,8.42,7.73l7.17,3.02c5.32,1.43,10.63,1.43,15.95,0l7.17-3.02c4.51-2.67,8.1-6.25,10.76-10.76l.1-.16-10.76,10.76.12-.08-15.14,4.1h.12c-2.66-.37-5.32-.73-7.98-1.08l.13.05c-4.41-2.57-8.83-5.14-13.24-7.72.1.06.17.14.24.24l-4.69-6.07.1.17-3.02-7.17c.06.12.1.25.12.38l-1.07-7.98v.19c.37-2.66.73-5.32,1.09-7.98l-.03.18,3.02-7.17-.07.16,4.69-6.07-.13.13,6.07-4.69-.19.08,15.14-4.1-.33.04c2.66.36,5.32.71,7.98,1.07-.22,0-.42-.06-.62-.17l7.17,3.02-.28-.19,6.07,4.69c-.19-.15-.36-.32-.5-.51l4.69,6.07c-1.13-1.54-1.92-3.4-2.86-5.07s-1.88-3.3-2.86-4.93c-2-3.33-4.1-6.61-6.3-9.81-5.77-8.39-12.05-16.55-18.93-24.07-2.6-2.84-5.32-5.59-8.15-8.2-4.6-4.25-9.56-8.03-14.52-11.84-5.97-4.58-12.37-8.6-19.2-11.78-10-4.66-20.23-8.65-31.18-10.2-3.99-1.25-7.98-1.43-11.96-.54-3.99.18-7.71,1.37-11.15,3.56-3.5,1.89-6.3,4.46-8.42,7.73-2.65,2.9-4.44,6.3-5.37,10.2l-1.07,7.98c.02,5.42,1.38,10.46,4.1,15.14l4.69,6.07c3.74,3.72,8.16,6.29,13.24,7.72h0Z"/>
  <path class="cls-2" d="m1304.67,1880.09c-6.39.46-12.8,1.32-19.09,2.54-3.78.74-7.52,1.71-11.19,2.89-5.95,1.93-11.75,4.43-17.45,6.99-3.46,1.56-6.84,3.32-10.11,5.26s-6.54,4.13-9.62,6.45c-5.03,3.79-10.06,7.61-14.66,11.92-2.77,2.6-5.4,5.35-7.87,8.24-4.08,4.78-7.96,9.78-11.48,14.98-2.4,3.54-4.56,7.24-6.47,11.06-2.07,4.15-3.8,8.48-5.58,12.75-.84,2.01-1.6,4.04-2.3,6.1-1.25,3.99-1.43,7.98-.54,11.96.18,3.99,1.37,7.71,3.56,11.15,1.89,3.5,4.46,6.3,7.73,8.42,2.9,2.65,6.3,4.44,10.2,5.37l7.98,1.07c5.42-.02,10.46-1.38,15.14-4.1l6.07-4.69c3.72-3.74,6.29-8.16,7.72-13.24.74-2.17,1.55-4.32,2.44-6.43l-3.02,7.17c3.26-7.66,7.52-14.85,12.6-21.44l-4.69,6.07c5.41-6.97,11.7-13.21,18.68-18.6l-6.07,4.69c7-5.37,14.64-9.86,22.75-13.31l-7.17,3.02c7.89-3.32,16.18-5.64,24.66-6.8l-7.98,1.07c1.92-.25,3.84-.45,5.77-.59,4.13.16,7.98-.71,11.56-2.58,3.72-1.21,6.94-3.28,9.65-6.2,2.93-2.72,4.99-5.94,6.2-9.65,1.88-3.58,2.74-7.43,2.58-11.56l-1.07-7.98c-1.43-5.08-4-9.49-7.72-13.24l-6.07-4.69c-4.68-2.71-9.73-4.08-15.14-4.1h0Z"/>
  <path class="cls-2" d="m1248.7,2207.07c-5.92-3.08-11.03-4.73-17.81-4.76-3.85-.01-7.92.55-11.61,1.77-4.44,1.46-8.75,3.42-12.98,5.37s-7.93,4.15-11.55,6.77c-5.57,4.02-11.13,8.28-15.91,13.24-4.74,4.92-8.98,10.43-12.8,16.07-2.51,3.7-4.7,7.63-6.5,11.73-2.78,6.3-5.53,12.62-7.14,19.33-.52,2.17-.93,4.37-1.24,6.58-.67,4.74-1.44,9.53-1.64,14.33-.28,7.11.76,14.2,1.86,21.21.71,4.49,1.85,8.92,3.39,13.2s3.45,8.73,5.39,12.98c.95,2.07,1.99,4.1,3.12,6.08,3.43,6,7.76,11.55,12.16,16.84,2.91,3.5,6.14,6.73,9.66,9.61,5.37,4.41,10.93,8.78,17.09,12.08,4.54,2.43,9.39,4.4,14.17,6.25,2.61,1.01,5.31,1.83,8.06,2.39,3.81.78,7.71,1.2,11.56,1.64,1.39.16,2.79.24,4.2.26,5.55.05,11.21-.94,16.65-1.72,5.67-.82,11.37-1.87,16.95-3.16,7.6-1.75,15.02-4.6,21.93-8.19,6.38-3.31,12.2-7.94,17.59-12.62,3.68-3.19,7.02-6.75,10.13-10.49,4.7-5.65,9.15-11.53,13.35-17.56,1.36-1.96,2.7-3.93,4.03-5.91,2.19-3.44,3.38-7.16,3.56-11.15.89-3.99.71-7.98-.54-11.96-.93-3.9-2.72-7.3-5.37-10.2-2.12-3.27-4.92-5.84-8.42-7.73l-7.17-3.02c-5.32-1.43-10.63-1.43-15.95,0l-7.17,3.02c-4.51,2.67-8.1,6.25-10.76,10.76-3.11,4.64-6.28,9.24-9.69,13.66l4.69-6.07c-4.76,6.14-10,11.93-16.15,16.7l6.07-4.69c-3.73,2.86-7.74,5.28-12.06,7.14l7.17-3.02c-4.48,1.87-9.18,3.1-13.93,4.09s-9.79,1.95-14.72,2.63l7.98-1.07c-4.42.59-8.85.8-13.29.21l7.98,1.07c-4.22-.6-8.29-1.82-12.22-3.44l7.17,3.02c-5.29-2.24-10.25-5.15-14.8-8.64l6.07,4.69c-4.87-3.77-9.23-8.15-13.01-13.01l4.69,6.07c-3.99-5.18-7.3-10.84-9.86-16.86l3.02,7.17c-2.48-5.91-4.2-12.1-5.08-18.45l1.07,7.98c-.79-5.96-.82-11.99-.03-17.95l-1.07,7.98c.84-6.11,2.5-12.07,4.88-17.76l-3.02,7.17c2.51-5.91,5.76-11.47,9.67-16.57l-4.69,6.07c3.93-5.08,8.47-9.64,13.55-13.57l-6.07,4.69c4.71-3.6,9.82-6.62,15.28-8.94l-7.17,3.02c2.02-.85,4.08-1.71,6.24-2.07l-7.98,1.07c.68-.08,1.33-.11,2.01-.05l-7.98-1.07c.53.09,1.02.22,1.51.43l-7.17-3.02.36.19c3.44,2.19,7.16,3.38,11.15,3.56,3.99.89,7.98.71,11.96-.54,3.9-.93,7.3-2.72,10.2-5.37,3.27-2.12,5.84-4.92,7.73-8.42l3.02-7.17c1.43-5.32,1.43-10.63,0-15.95l-3.02-7.17c-2.67-4.51-6.25-8.1-10.76-10.76h0Z"/>
  <path class="cls-2" d="m1634.96,2286.81c-1.05,1.08-1.93,2.41-2.82,3.56-.61.79-2,2.38-2.74,3.61-1.54,2.55-2.63,5.6-3.55,8.27-.18.51-.32,1.03-.42,1.56-.58,3.13-1.07,6.44-1.26,9.62-.15,2.4.04,4.85.26,7.25.66,7.17,1.62,14.49,3.55,21.46s4.78,13.61,7.87,20.05c2.02,4.21,4.41,8.24,7.15,12.02,4.12,5.68,8.45,11.36,13.54,16.24,5.04,4.83,10.66,9.19,16.52,12.96s12.35,6.47,18.82,8.98c4.38,1.69,8.95,2.89,13.59,3.6,7.09,1.08,14.16,2.09,21.34,1.79,4.93-.21,9.82-.99,14.69-1.67,2.36-.33,4.71-.75,7.03-1.29,7.01-1.64,13.52-4.45,20.13-7.31,4.39-1.9,8.61-4.21,12.57-6.9s7.89-5.77,11.64-8.86c1.85-1.53,3.63-3.14,5.32-4.84,1.85-1.85,3.6-3.8,5.23-5.85,3.21-4.02,6.54-8.1,9.2-12.53s4.62-9.4,6.55-14.22c1.08-2.71,1.89-5.51,2.52-8.36,1.84-8.26,2.71-16.88,3.77-25.23.79-6.23,1.33-12.54.75-18.81-.73-7.86-1.86-15.71-4.53-23.16s-5.83-14.63-9.73-21.41c-2.7-4.71-5.73-9.22-8.89-13.64-1.55-2.16-3.13-4.3-4.72-6.43-1.89-3.5-4.46-6.3-7.73-8.42-2.9-2.65-6.3-4.44-10.2-5.37-3.99-1.25-7.98-1.43-11.96-.54-3.99.18-7.71,1.37-11.15,3.56l-6.07,4.69c-3.72,3.74-6.29,8.16-7.72,13.24l-1.07,7.98c.02,5.42,1.38,10.46,4.1,15.14,7.14,9.55,14.1,19.38,18.79,30.41-1.01-2.39-2.02-4.78-3.02-7.17,2.28,5.44,3.95,11.11,4.74,16.96l-1.07-7.98c1,7.8.21,15.61-.83,23.37.36-2.66.71-5.32,1.07-7.98-1.09,8.11-2.05,16.36-5.22,23.97l3.02-7.17c-1.85,4.33-4.31,8.33-7.19,12.05l4.69-6.07c-3.74,4.77-8.06,9.05-12.84,12.77l6.07-4.69c-5.24,4.04-10.96,7.37-17.05,9.95l7.17-3.02c-6.24,2.61-12.78,4.4-19.49,5.31l7.98-1.07c-6.25.81-12.58.84-18.83,0,2.66.36,5.32.71,7.98,1.07-5.61-.78-11.09-2.24-16.31-4.42,2.39,1.01,4.78,2.02,7.17,3.02-5.23-2.22-10.14-5.11-14.65-8.56l6.07,4.69c-4.92-3.81-9.31-8.23-13.14-13.14l4.69,6.07c-4.16-5.39-7.6-11.29-10.25-17.55l3.02,7.17c-2.66-6.37-4.49-13.05-5.41-19.9l1.07,7.98c-.47-3.63-.91-7.47-.51-11.13l-1.07,7.98c.11-.85.29-1.65.59-2.45-1.01,2.39-2.02,4.78-3.02,7.17.23-.55.51-1.04.86-1.51l-4.69,6.07c.15-.18.3-.36.47-.52,2.93-2.72,4.99-5.94,6.2-9.65,1.88-3.58,2.74-7.43,2.58-11.56.16-4.13-.71-7.98-2.58-11.56-1.21-3.72-3.28-6.94-6.2-9.65l-6.07-4.69c-4.68-2.71-9.73-4.08-15.14-4.1l-7.98,1.07c-5.08,1.43-9.49,4-13.24,7.72h0Z"/>
  <path class="cls-2" d="m1666.5,2039.65c-1.1,2.18-2.39,5.22-3.21,7.53-.09.26-.17.49-.25.75l-.07.39-1.07,7.98c-.02.27-.05.52-.05.79.04,3.65.48,7.67,1.78,11.18,1.54,4.15,3.32,8.35,5.37,12.3,2.98,5.74,7.02,10.77,11.03,15.83,2.51,3.17,5.33,6.09,8.38,8.75,3.35,2.91,6.92,5.6,10.48,8.22,1.67,1.23,3.4,2.39,5.18,3.46,5.63,3.42,11.77,5.93,17.88,8.34,3.84,1.52,7.82,2.7,11.88,3.5,6.55,1.3,13.31,2.26,20,2.33,6.74.07,13.58-.92,20.18-2.08,4.14-.73,8.21-1.84,12.16-3.29,6.2-2.29,12.44-4.88,18.19-8.2s10.85-7.34,15.84-11.49c3.21-2.67,6.18-5.64,8.83-8.86,4.06-4.95,8.15-10.08,11.19-15.76,2.32-4.32,4.17-8.91,5.93-13.47.9-2.33,1.62-4.74,2.1-7.19.73-3.73,1.19-7.55,1.57-11.33.13-1.31.18-2.62.16-3.93-.09-5.15-.96-10.31-1.83-15.36s-2.07-10.32-3.45-15.37c-.67-2.45-1.45-4.86-2.39-7.21-1.77-4.41-3.52-8.98-5.96-13.1s-5.34-7.57-8.15-11.14c-1.32-1.67-2.71-3.27-4.19-4.8-4.75-4.89-10.29-9-15.72-13.08-3.58-2.69-7.33-5.16-11.13-7.54-1.87-1.16-3.75-2.3-5.64-3.43-3.44-2.19-7.16-3.38-11.15-3.56-3.99-.89-7.98-.71-11.96.54-3.9.93-7.3,2.72-10.2,5.37-3.27,2.12-5.84,4.92-7.73,8.42l-3.02,7.17c-1.43,5.32-1.43,10.63,0,15.95l3.02,7.17c2.67,4.51,6.25,8.1,10.76,10.76,6.19,3.7,12.32,7.52,18.03,11.93l-6.07-4.69c4.63,3.6,8.95,7.59,12.58,12.22l-4.69-6.07c2.52,3.26,4.62,6.78,6.22,10.57-1.01-2.39-2.02-4.78-3.02-7.17,1.64,3.99,2.76,8.15,3.74,12.34,1.01,4.32,2.03,8.65,2.64,13.05-.36-2.66-.71-5.32-1.07-7.98.44,3.43.53,6.85.08,10.29l1.07-7.98c-.55,3.76-1.65,7.39-3.12,10.89l3.02-7.17c-1.98,4.6-4.53,8.9-7.58,12.86l4.69-6.07c-3.48,4.47-7.52,8.45-12,11.92l6.07-4.69c-4.86,3.72-10.16,6.79-15.79,9.18l7.17-3.02c-5.68,2.37-11.63,4.03-17.73,4.87l7.98-1.07c-5.85.78-11.75.8-17.6.02,2.66.36,5.32.71,7.98,1.07-6-.83-11.85-2.46-17.44-4.8l7.17,3.02c-5.53-2.35-10.74-5.38-15.52-9.03l6.07,4.69c-4.5-3.48-8.57-7.48-12.07-11.97l4.69,6.07c-3.14-4.07-5.77-8.5-7.8-13.23,1.01,2.39,2.02,4.78,3.02,7.17-.48-1.14-.89-2.28-1.09-3.5l1.07,7.98c-.06-.54-.07-1.05-.01-1.59l-1.07,7.98c.07-.41.17-.75.32-1.14l-3.02,7.17.18-.36c2.19-3.44,3.38-7.16,3.56-11.15.89-3.99.71-7.98-.54-11.96-.93-3.9-2.72-7.3-5.37-10.2-2.12-3.27-4.92-5.84-8.42-7.73l-7.17-3.02c-5.32-1.43-10.63-1.43-15.95,0l-7.17,3.02c-4.51,2.67-8.1,6.25-10.76,10.76h0Z"/>
  <path class="cls-2" d="m1252.25,1943.73c-1.86-1.52-4.34-3.63-6.36-4.93-.21-.14-.41-.26-.63-.38l-.33-.15-7.17-3.02c-.24-.08-.46-.16-.7-.22-3.55-.82-7.35-1.52-11.02-1.14-4.49.46-9.04,1.05-13.42,2.2-6.14,1.61-12.09,4.21-17.78,6.94-3.6,1.72-7.03,3.79-10.26,6.15-5.15,3.76-10.32,7.68-14.78,12.26-1.39,1.43-2.72,2.92-3.99,4.47-2.81,3.43-5.57,6.93-8.09,10.58-2.28,3.31-4.28,6.81-5.95,10.47-2.71,5.94-5.38,12.05-6.96,18.42-.5,2-.9,4.03-1.2,6.07-.68,4.55-1.39,9.15-1.67,13.75-.25,4.17-.11,8.36.4,12.5.81,6.62,1.6,13.23,3.51,19.63s4.46,12.35,7.35,18.17c1.79,3.61,3.9,7.06,6.32,10.29,3.9,5.2,7.78,10.41,12.64,14.76,3.43,3.07,7.14,5.87,10.87,8.54,1.92,1.37,3.93,2.62,6.04,3.68,4.26,2.15,8.71,4.13,13.29,5.47,4.92,1.44,10.22,1.94,15.27,2.41s10.51.35,15.72.21c2.63-.07,5.26-.23,7.88-.55,4.91-.6,10.06-1.08,14.86-2.46,4.46-1.28,8.75-3.28,12.97-5.12,2.01-.88,3.97-1.9,5.86-3.01,5.99-3.53,11.51-7.96,16.8-12.45,3.49-2.96,6.79-6.15,9.99-9.42,1.6-1.63,3.17-3.29,4.73-4.95,2.93-2.72,4.99-5.94,6.2-9.65,1.88-3.58,2.74-7.43,2.58-11.56.16-4.13-.71-7.98-2.58-11.56-1.21-3.72-3.28-6.94-6.2-9.65l-6.07-4.69c-4.68-2.71-9.73-4.08-15.14-4.1l-7.98,1.07c-5.08,1.43-9.49,4-13.24,7.72-5.69,6.04-11.51,12-18.08,17.1,2.02-1.56,4.05-3.13,6.07-4.69-4.27,3.28-8.83,6.16-13.78,8.28l7.17-3.02c-3.83,1.6-7.79,2.66-11.91,3.22l7.98-1.07c-4.28.54-8.59.62-12.9.64s-8.56.06-12.82-.48l7.98,1.07c-3.11-.43-6.11-1.21-9.02-2.41l7.17,3.02c-3.7-1.57-7.11-3.69-10.29-6.14l6.07,4.69c-3.97-3.1-7.5-6.69-10.58-10.67l4.69,6.07c-3.42-4.48-6.24-9.37-8.45-14.55l3.02,7.17c-2.46-5.84-4.12-11.96-4.97-18.24l1.07,7.98c-.79-6.07-.81-12.2,0-18.27l-1.07,7.98c.79-5.64,2.3-11.14,4.51-16.39l-3.02,7.17c2.3-5.39,5.27-10.45,8.84-15.09l-4.69,6.07c3.63-4.68,7.82-8.89,12.51-12.53l-6.07,4.69c4.45-3.42,9.28-6.28,14.45-8.47l-7.17,3.02c4.24-1.77,8.74-3.19,13.31-3.81l-7.98,1.07c.77-.09,1.53-.12,2.31-.05l-7.98-1.07c.5.07.96.17,1.44.34l-7.17-3.02c.35.15.65.32.97.53l-6.07-4.69.29.24c2.72,2.93,5.94,4.99,9.65,6.2,3.58,1.88,7.43,2.74,11.56,2.58,4.13.16,7.98-.71,11.56-2.58,3.72-1.21,6.94-3.28,9.65-6.2l4.69-6.07c2.71-4.68,4.08-9.73,4.1-15.14l-1.07-7.98c-1.43-5.08-4-9.49-7.72-13.24h0Z"/>
  <path class="cls-2" d="m1369.98,1214.09c14.3-92.67,26.41-186.04,48.09-277.35,21.21-89.32,49.91-176.65,80.34-263.19,8.44-23.99,17.01-47.94,25.6-71.88s16.76-47.23,26.45-70.34l-3.02,7.17c7.38-17.48,15.6-34.58,25.33-50.88,8.05-13.49,3.47-33.53-10.76-41.05-14.49-7.66-32.45-3.63-41.05,10.76-25.84,43.27-41.7,91.81-58.63,139.02s-33.41,93.61-49.02,140.79c-15.67,47.34-30.31,95.05-43,143.28-12.77,48.55-23.19,97.59-31.54,147.08-8.53,50.57-15.97,101.34-23.79,152.02-.96,6.2-1.91,12.41-2.87,18.61-1.27,8.26-1.36,15.62,3.02,23.12,3.64,6.22,10.78,12.16,17.93,13.79,7.68,1.75,16.3,1.37,23.12-3.02,6.13-3.95,12.62-10.39,13.79-17.93h0Z"/>
  <path class="cls-2" d="m2038.61,1497.72c25.11-57.14,48.42-115.08,69.57-173.8,20.46-56.8,38.97-114.31,55.48-172.38,16.51-58.07,31.04-116.71,43.54-175.78,12.56-59.34,23.07-119.11,31.51-179.17,8.7-61.9,15.51-124.05,19.95-186.41.53-7.46,1.03-14.92,1.5-22.38.99-15.69-14.5-30.69-30-30-17.1.77-28.94,13.19-30,30-3.9,61.92-9.98,123.69-18.23,185.18l1.07-7.98c-12.2,90.58-29.07,180.52-50.57,269.36-21.37,88.29-47.29,175.48-77.64,261.1-17.21,48.55-35.87,96.59-55.89,144.05l3.02-7.17c-4.96,11.73-10,23.43-15.13,35.1-3.36,7.65-5.34,14.72-3.02,23.12,1.92,6.96,7.3,14.5,13.79,17.93,6.96,3.68,15.4,5.52,23.12,3.02,6.94-2.25,14.86-6.81,17.93-13.79h0Z"/>
  <path class="cls-2" d="m1567.8,494.26c10.05-6.83,20.75-12.54,31.93-17.28l-7.17,3.02c22.61-9.44,46.6-14.81,70.82-18.11l-7.98,1.07c27.98-3.74,56.32-5.1,84.53-5.47s57.56.6,86.24,2.93c16.33,1.32,32.63,3.09,48.87,5.27l-7.98-1.07c63.78,8.63,126.64,23.77,187.3,45.28,16.95,6.01,33.72,12.52,50.29,19.5l-7.17-3.02c18.04,7.62,35.84,15.79,53.36,24.55,8.58,4.29,17.09,8.71,25.53,13.27,7.9,4.27,15.95,8.43,23.15,13.83l-6.07-4.69c3.15,2.44,6.04,5.1,8.55,8.2l-4.69-6.07c1.58,2.07,2.91,4.22,4,6.59l-3.02-7.17c.51,1.21.94,2.43,1.32,3.69,2.18,7.33,7.14,14.04,13.79,17.93,6.43,3.76,15.91,5.36,23.12,3.02s14.26-6.85,17.93-13.79,5.35-15.27,3.02-23.12c-4.94-16.65-16.21-28.48-30.11-38.19-9.13-6.38-19.32-11.38-29.16-16.56-21.22-11.17-42.88-21.49-64.91-30.95-46.32-19.89-93.81-36.63-142.65-49.17-48.66-12.49-98.35-20.94-148.34-25.88s-96.22-5.72-144.29-2.85c-50.11,2.99-101.27,10.08-145.92,34.5-5,2.74-9.85,5.72-14.57,8.93-6.52,4.43-11.64,10.14-13.79,17.93-1.98,7.18-1.08,16.74,3.02,23.12s10.28,12.04,17.93,13.79,16.47,1.5,23.12-3.02h0Z"/>
  <path class="cls-2" d="m2129.3,1068.73c-49.85,34.7-99.14,70.18-147.84,106.47s-100.18,75.9-149.35,115.03c-47.52,37.82-94.43,76.41-140.7,115.74-5.33,4.53-10.85,8.93-15.65,14.03-7.87,8.36-13.34,17.27-17.23,28.04-5.5,15.25-3.86,31.93-1.88,47.63,3.92,31.2,7.85,62.41,11.77,93.61,7.91,62.87,15.81,125.75,23.72,188.62,1,7.92,1.99,15.83,2.99,23.75-.16,4.13.71,7.98,2.58,11.56,1.21,3.72,3.28,6.94,6.2,9.65,5.2,5.2,13.74,9.12,21.21,8.79s15.81-2.9,21.21-8.79,9.2-13.25,8.79-21.21c-.05-.99-.03-1.88.07-2.87l-1.07,7.98c.23-1.28.57-2.45,1.06-3.65l-3.02,7.17c.57-1.17,1.21-2.23,1.99-3.27l-4.69,6.07c.84-1,1.73-1.87,2.74-2.7l-6.07,4.69c1.06-.76,2.12-1.39,3.3-1.93l-7.17,3.02c1.21-.46,2.39-.78,3.67-.97l-7.98,1.07c.64-.07,1.28-.09,1.92-.06,7.66.04,15.8-3.38,21.21-8.79s9.12-13.74,8.79-21.21c-.73-16.33-13.18-29.9-30-30-23.96-.14-46.03,20.93-44.75,45.45h60c-11.13-88.49-22.26-176.98-33.39-265.46-1.58-12.57-3.16-25.15-4.74-37.72-1.39-11.03-3.09-22.16-1.72-33.28l-1.07,7.98c.57-3.93,1.53-7.7,3.05-11.37-1.01,2.39-2.02,4.78-3.02,7.17,1.31-2.9,2.91-5.56,4.81-8.12l-4.69,6.07c5.4-6.92,12.32-12.42,18.97-18.08,7.37-6.27,14.75-12.51,22.15-18.74,14.46-12.16,28.98-24.26,43.55-36.28,29.5-24.32,59.26-48.35,89.25-72.07,16.94-13.39,33.95-26.69,51.04-39.89l-6.07,4.69c57.68-44.54,116.22-87.98,175.57-130.27,16.85-12.01,33.78-23.92,50.76-35.74,6.51-4.53,11.62-10.06,13.79-17.93,1.98-7.18,1.08-16.74-3.02-23.12s-10.28-12.04-17.93-13.79-16.55-1.55-23.12,3.02h0Z"/>
  <path class="cls-2" d="m1363.46,900.34c-45.01,19.08-90.02,38.16-135.03,57.24-45.01,19.08-90.02,38.16-135.03,57.24s-89.74,38.04-134.61,57.06c-11.22,4.76-22.44,9.51-33.65,14.27-4.27,1.81-8.56,3.64-12.46,6.17s-7.67,5.31-10.96,8.55c-.82.81-1.56,1.68-2.28,2.58-2.17,2.71-4.55,5.43-6.27,8.47-7.98,14.11-7.98,30.58-8.64,46.32-.5,11.85-.79,23.71-.87,35.57-.35,50.67,3.43,101.09,10.23,151.28.8,5.88,1.65,11.75,2.54,17.61.93,3.9,2.72,7.3,5.37,10.2,2.12,3.27,4.92,5.84,8.42,7.73,6.43,3.76,15.91,5.36,23.12,3.02s14.26-6.85,17.93-13.79l3.02-7.17c1.43-5.32,1.43-10.63,0-15.95-.97-6.31-1.88-12.64-2.73-18.97l1.07,7.98c-6.89-51.56-9.86-103.63-8.79-155.63.15-7.3.38-14.59.68-21.89.29-6.89.39-13.87,1.3-20.71l-1.07,7.98c.43-2.88,1.09-5.66,2.2-8.36l-3.02,7.17c.73-1.61,1.58-3.09,2.62-4.51l-4.69,6.07c1.43-1.83,3.06-3.4,4.89-4.83l-6.07,4.69c5.23-3.91,11.33-6.33,17.3-8.86,7.38-3.13,14.77-6.26,22.15-9.39,14.91-6.32,29.82-12.64,44.73-18.96,29.82-12.64,59.64-25.28,89.45-37.92,29.82-12.64,59.64-25.28,89.45-37.92,29.82-12.64,59.64-25.28,89.45-37.92,29.82-12.64,59.64-25.28,89.45-37.92,3.69-1.56,7.38-3.13,11.08-4.69,3.5-1.89,6.3-4.46,8.42-7.73,2.65-2.9,4.44-6.3,5.37-10.2,1.25-3.99,1.43-7.98.54-11.96-.18-3.99-1.37-7.71-3.56-11.15-4.13-6.41-10.28-12.04-17.93-13.79l-7.98-1.07c-5.42.02-10.46,1.38-15.14,4.1h0Z"/>
</svg>