<?xml version="1.0" encoding="UTF-8"?>
<svg id="Layer_1" data-name="Layer 1" xmlns="http://www.w3.org/2000/svg" viewBox="0 0 2983.3 2843.62">
  <defs>
    <style>
      .cls-1 {
        opacity: .5;
      }

      .cls-2 {
        fill: #1a1a1a;
      }

      .cls-2, .cls-3, .cls-4 {
        stroke-width: 0px;
      }

      .cls-5 {
        opacity: .8;
      }

      .cls-3 {
        fill: #333;
      }

      .cls-4 {
        fill: #f2f2f2;
      }
    </style>
  </defs>
  <path class="cls-2" d="m1391.08,50.43c-153.03.25-298.46,57.9-429.44,133.13-118.92,68.3-231.41,150.07-332.92,242.28-203.79,185.11-360.54,422.74-413.36,695.73-51.88,268.11-21.62,552.09,84.15,803.72,97.75,232.53,259.71,439.83,478.61,569.27,246.69,145.87,543.07,179.57,823.73,145.8,143.56-17.28,284.69-49.75,421.91-95.24,128.76-42.68,255.07-96.03,371.78-165.52,114.93-68.43,222.04-153.38,307.38-256.86,95.31-115.56,161.65-250.45,205.88-393.12,42.97-138.58,68.37-284.75,72.47-429.83,3.97-140.49-13.6-284.52-64.54-416.13-26.11-67.45-59.57-131.3-101.95-189.97-43.93-60.81-94.36-116.36-148.65-168.04-106.51-101.4-223.55-194.01-347.46-273.24C2066.94,91.41,1767.43-12.02,1465.65,19.18c-74.89,7.74-148.68,22.7-219.95,47.12-22.22,7.61-39.23,31.24-31.43,55.36,7.13,22.03,31.51,39.6,55.36,31.43,34.82-11.93,70.28-21.84,106.29-29.52,17.18-3.67,34.46-6.84,51.81-9.55,4.73-.74,9.47-1.44,14.22-2.11-8.35,1.16,7.22-.89,7.04-.87,9.52-1.15,19.05-2.16,28.6-3.03,73.46-6.71,147.59-5.3,220.85,3.08,4,.46,7.99.94,11.98,1.44,1.6.2,11.7,1.56,4.79.6,9.57,1.32,19.11,2.79,28.64,4.36,19.07,3.14,38.06,6.74,56.95,10.78,34.62,7.41,68.92,16.32,102.79,26.63s68.45,22.47,101.94,35.7c8.58,3.39,17.14,6.86,25.66,10.42-5.9-2.47,1.21.52,2,.86,4.24,1.83,8.47,3.66,12.7,5.51,16.89,7.43,33.64,15.17,50.25,23.21,63.77,30.86,125.42,66.04,184.9,104.49,56.78,36.71,116.02,79.69,163.71,117.63,55.61,44.24,109.77,90.59,161.11,139.74,25.7,24.61,50.63,50.04,74.32,76.6,11.3,12.66,22.32,25.58,33,38.77,11.61,14.34,17.03,21.44,29.27,38.77,19.7,27.9,37.7,56.98,53.63,87.19,7.23,13.71,14.05,27.64,20.46,41.75,1.83,4.02,3.6,8.07,5.38,12.12,5.84,13.22-3.04-7.89,2.32,5.53,3.28,8.2,6.54,16.39,9.62,24.67,23.67,63.6,39.57,130.02,48.87,197.21-1.3-9.39.63,5.15.7,5.7.36,2.95.71,5.9,1.04,8.86,1.01,8.87,1.91,17.75,2.7,26.65,1.59,17.84,2.75,35.71,3.52,53.6,1.47,34.44,1.47,68.94.14,103.39-1.3,33.79-3.86,67.53-7.54,101.15-.9,8.21-1.87,16.42-2.9,24.61-.06.45-2.03,15.13-.75,5.89-.41,2.97-.83,5.94-1.25,8.91-2.55,17.78-5.41,35.52-8.55,53.21-12.45,70.14-29.07,139.66-50.61,207.57-10.85,34.19-22.99,67.98-36.59,101.17-4.31,10.51-10.67,25.02-17.92,40.56-7.89,16.9-16.19,33.6-24.93,50.07-16.02,30.19-33.51,59.6-52.55,87.99-9.23,13.75-18.82,27.26-28.77,40.5-.32.43-8.85,11.5-3.28,4.36-2.6,3.34-5.24,6.66-7.89,9.96-5.29,6.6-10.68,13.12-16.14,19.58-41.8,49.33-88.56,94.34-138.76,135.06-5.47,4.43-10.98,8.8-16.51,13.15-10.93,8.58,6.85-5.04-4.28,3.28-3.39,2.53-6.75,5.09-10.15,7.61-13.6,10.1-27.42,19.91-41.42,29.45-26.95,18.36-54.59,35.69-82.77,52.08-55.52,32.29-113.14,60.9-172.03,86.49-3.94,1.71-7.88,3.4-11.83,5.09-12.99,5.56,7.99-3.26-5.07,2.12-6.61,2.72-13.22,5.45-19.86,8.13-15.91,6.41-31.9,12.62-47.97,18.63-30.69,11.49-61.65,22.27-92.81,32.41-65.15,21.21-131.23,39.62-198.05,54.78-33.35,7.57-66.89,14.33-100.58,20.21-16.47,2.87-32.97,5.54-49.51,7.99-4.51.67-9.02,1.29-13.53,1.95-14.81,2.16,8.74-1.07-6.09.84-9.03,1.16-18.06,2.29-27.11,3.33-68.98,7.95-138.45,11.93-207.89,11.11-34.41-.41-68.82-1.99-103.11-4.88-16.33-1.38-32.63-3.04-48.9-5.01-2.95-.36-5.9-.74-8.86-1.1-14.55-1.81,8.78,1.37-5.71-.78-9.55-1.42-19.09-2.83-28.61-4.4-66.45-11.01-132.04-27.41-195.58-49.81-15.38-5.42-30.64-11.19-45.76-17.32-.2-.08-13.73-5.66-5.72-2.3-4.11-1.73-8.2-3.52-12.29-5.31-8.18-3.6-16.32-7.31-24.4-11.12-29.31-13.82-57.98-29.03-85.81-45.64-25.81-15.4-50.91-31.98-75.21-49.66-5.27-3.83-10.5-7.71-15.69-11.64-.93-.7-11.16-8.69-3.28-2.49-3.07-2.41-6.14-4.83-9.19-7.26-11.68-9.34-23.15-18.95-34.42-28.79-44.59-38.96-85.86-81.69-123.55-127.35-4.98-6.04-9.9-12.12-14.76-18.26-1.62-2.05-3.23-4.1-4.84-6.16-8.02-10.23,5.26,7.12-2.52-3.31-9.39-12.58-18.72-25.17-27.7-38.04-17.26-24.72-33.59-50.1-48.97-76.03-15.44-26.03-29.93-52.63-43.47-79.7-6.49-12.98-12.76-26.07-18.82-39.26-2.75-6-5.46-12.03-8.13-18.07-1.6-3.63-3.16-7.27-4.75-10.9-4.27-9.76,2.06,5.14-1.64-3.86-23.2-56.4-42.92-114.1-58.54-173.05-7.81-29.49-14.64-59.23-20.47-89.18-2.79-14.31-5.35-28.67-7.68-43.06-1.06-6.54-2.07-13.09-3.03-19.64-.58-3.93-1.13-7.87-1.68-11.8,1.53,10.88-.74-5.85-.97-7.73-7.66-62.1-10.91-124.68-10.02-187.24,1.11-78.03,7.83-148.78,22.27-221.75,14.06-71.04,34.87-140.57,62.58-207.48-3.14,7.58.37-.87,1.18-2.73,1.38-3.2,2.78-6.39,4.19-9.57,3.38-7.64,6.86-15.23,10.42-22.79,7.11-15.1,14.56-30.03,22.33-44.8,14.25-27.06,29.58-53.55,45.88-79.42,17.08-27.1,35.22-53.52,54.29-79.25,2.49-3.36,5-6.71,7.53-10.05.39-.51,8.79-11.47,3.15-4.19,4.28-5.52,8.61-11,12.97-16.45,10.5-13.1,21.23-26.01,32.19-38.73,42.21-48.99,87.71-95.13,135.69-138.47,23.56-21.29,47.72-41.91,72.4-61.89,6.04-4.89,12.1-9.73,18.2-14.54,3.33-2.62,6.66-5.23,10-7.83-6.13,4.77,1.12-.86,2.63-2.01,12.89-9.86,25.91-19.55,39.04-29.07,54.47-39.5,110.93-76.5,169.29-110.01,31.43-18.05,63.5-35.01,96.35-50.35,31.06-14.51,57.71-25.41,93.9-37.29,32.44-10.65,65.56-19.29,99.18-25.28,28.2-5.02,59.37-7.87,94.59-7.93,23.54-.04,46.09-20.67,45-45-1.09-24.35-19.77-45.04-45-45h0Z"/>
  <path class="cls-2" d="m1248.36,53.26c-162.14.29-315.48,64.48-452.46,146.75-125.38,75.3-243.72,164.84-349.52,265.85-103.53,98.85-195.85,211.09-268.23,334.78-78.13,133.52-131.33,280.53-156.13,433.23-47.62,293.19-8.98,596.64,108.99,869.01,106.28,245.36,284.57,465.29,520.83,595.27,272.97,150.18,593.11,170.76,895.79,121.74,147.47-23.88,292.38-64.36,431.91-117.58,135.04-51.51,266.24-115.16,384.67-198.51,59.05-41.56,115.34-87.43,166.54-138.4s99.44-111.8,142.14-173.56c91.49-132.32,178.81-271.57,228.24-425.77,23.73-74.02,35.74-152.07,49.26-228.47,15.15-85.54,27.73-171.96,31.58-258.83,7.35-165.69-27.1-327.17-101.49-475.44-69.72-138.97-181.63-246.35-295.84-349.09-116.58-104.87-243.34-193.37-383.33-264.29-70.11-35.52-142.28-66.97-215.43-95.69s-140.87-53.43-214.77-69c-153.39-32.33-312.07-32.27-466.5-7.45-70.38,11.31-139.77,28.56-206.96,52.41-22.13,7.86-39.29,31.06-31.43,55.36,7.06,21.83,31.6,39.86,55.36,31.43,68.72-24.4,139.75-41.89,211.78-53.17,19.65-3.08,26.41-3.97,46.3-6.17,17.95-1.98,35.95-3.58,53.97-4.82,37.74-2.59,75.61-3.52,113.43-2.75s75.06,3.2,112.36,7.48c3.22.37,6.43.75,9.65,1.15-.3-.04,15.45,2.08,7.25.93,8.75,1.23,17.49,2.57,26.21,4.02,18.07,2.99,36.06,6.45,53.95,10.39,72.19,15.91,141.47,41.74,210.1,68.82,66.04,26.06,131.62,55.18,198.17,89.31,66.42,34.06,130.98,71.86,192.53,114.13,60.44,41.51,111.44,84.48,167.23,134.73s112.2,102.36,162.86,158.89c47.41,52.91,84.7,106.82,117.57,173.18,17.43,35.2,28.55,61.62,41.49,98.95,12.21,35.23,22.31,71.18,30.06,107.65,16.05,75.55,19.28,154.31,14.65,235.35-4.64,81.25-15.86,154.33-30.34,234.24-13.52,74.61-25.56,150.35-49.6,222.44-24.06,72.12-56.9,138.7-95.89,206.82-38.58,67.41-81.5,132.22-125.78,195.99-38.23,55.06-78.02,103.78-128.93,153.63-97.82,95.78-209.11,169.45-334.81,232.61-30.14,15.14-60.72,29.41-91.64,42.88-4.22,1.84-8.44,3.65-12.67,5.46-13.84,5.95,7.72-3.15-6.19,2.61-7.08,2.93-14.15,5.85-21.25,8.71-17.02,6.87-34.12,13.51-51.31,19.94-66.65,24.94-134.46,46.88-203.11,65.62-145.74,39.78-283.69,63.37-432.7,67.77-72.52,2.14-145.22-.64-217.26-9.35-4.77-.58-9.55-1.16-14.31-1.81,6.98.95-3.08-.47-4.69-.7-8.71-1.26-17.41-2.61-26.09-4.06-18.92-3.14-37.76-6.71-56.51-10.74-34.34-7.37-68.37-16.22-101.92-26.64-124.62-38.72-250.76-107.09-346.67-187.69-48.41-40.69-93.22-85.63-134.18-133.8-10.07-11.85-19.81-23.94-29.5-36.1-8.7-10.91,5.08,6.8-3.37-4.32-2.57-3.38-5.14-6.77-7.69-10.17-5.1-6.82-10.12-13.68-15.08-20.6-18.66-26.04-36.32-52.8-52.99-80.15-34.05-55.87-63.59-114.19-89.69-174.16-5.54-12.73,1.81,4.43-1.37-3.22-1.39-3.34-2.77-6.67-4.14-10.02-3.28-8.03-6.49-16.1-9.63-24.19-6.02-15.53-11.78-31.17-17.27-46.9-10.77-30.84-20.52-62.04-29.25-93.53-17.49-63.09-30.88-127.32-40.09-192.14-.1-.73-2-14.99-.75-5.33-.56-4.33-1.11-8.65-1.64-12.98-.88-7.21-1.7-14.44-2.47-21.66-1.86-17.33-3.41-34.69-4.66-52.07-2.5-34.71-3.75-69.5-3.84-104.29-.42-159.71,22.29-314.24,79.05-464.96,22.33-59.29,52.79-121.92,88.37-182,16.98-28.67,35.05-56.69,54.1-84.02,21.58-30.96,36.7-50.97,58.72-77.98,43.21-53.02,90-103.1,139.53-150.26,25.35-24.14,51.42-47.52,78.11-70.15,12.76-10.82,25.66-21.47,38.7-31.94,14.29-11.48,22.72-18.07,33.98-26.62,57.4-43.57,117.07-84.39,178.85-121.49,32.04-19.23,64.73-37.39,98.24-53.93,35.7-17.62,63.45-29.64,100.89-42.67,70.95-24.69,135.78-37.73,207.9-37.86,23.54-.04,46.09-20.67,45-45s-19.77-45.05-45-45h0Z"/>
  <g class="cls-1">
    <path class="cls-2" d="m1246.67,93.66c-175.57-.47-341.68,81.35-490.01,178.48C472.17,458.4,219.89,719.64,110.52,1048.93c-48.44,145.86-67.58,301.19-65.1,455.38,7.4,460.08,231.27,930.01,623.17,1148.01,361.68,201.2,807.09,166.49,1198.28,37.16,287.97-95.21,571.45-247.4,748.61-500.72,108.22-154.75,226.53-339.25,262.71-526.52,54.57-282.48,115.36-573.01-28-820-67.8-116.81-227.47-296.73-327-386-186.5-167.29-349.39-258.36-583-341-233.61-82.64-598.91-89.67-832.25-6.25"/>
    <path class="cls-2" d="m1246.67,48.66c-167.72.29-325.76,68.86-466.42,155.23-127.33,78.18-247.48,170.47-354.04,275.29-105.11,103.39-198.16,221.03-268.84,350.65-79.28,145.39-126.77,303.24-146.55,467.4-35.52,294.78,17.14,600.36,148.8,866.4,124.76,252.11,327.77,466.58,588.86,577.53,295.67,125.65,628.05,118.81,936.37,46.58,149.26-34.97,295.62-85.13,434.69-149.68,135.02-62.67,262.95-142.32,373.26-242.73,115.98-105.56,205.27-238.03,284.65-372.37,43.39-73.43,81.92-150.05,110.97-230.34,27.74-76.69,41.1-157.03,55.81-236.97,29.78-161.81,53.1-326.68,29.22-490.82-11.58-79.59-36.61-157.08-74.72-227.98-31.31-58.24-71.97-111.39-113.02-163-174.49-219.36-388.01-408.71-644.45-526.09-68.45-31.33-138.93-59.97-210.58-83.17-64.01-20.73-130.25-34.33-196.83-43.61-149.28-20.8-300.43-21.67-449.69-.16-63.89,9.21-127.28,23.19-188.18,44.79-22.13,7.85-39.29,31.07-31.43,55.36,7.07,21.83,31.6,39.85,55.36,31.43,60.9-21.6,124.29-35.57,188.18-44.79.83-.12,14.89-2.02,5.1-.74,4.3-.56,8.6-1.1,12.9-1.62,8.67-1.05,17.35-2.01,26.04-2.89,17.59-1.78,35.22-3.24,52.87-4.38,35.85-2.32,71.77-3.36,107.69-3.21,36.03.15,72.05,1.49,107.99,4.05,16.3,1.16,32.58,2.57,48.84,4.24,8.78.9,17.56,1.88,26.32,2.94,4.36.52,8.71,1.08,13.06,1.63,5.44.71,5.78.76,1.02.13,2.87.4,5.74.81,8.61,1.22,64.91,9.41,129.48,23.08,191.84,43.57,32.87,10.8,65.31,23.09,97.52,35.71,8.49,3.33,16.96,6.71,25.41,10.15,4.18,1.7,8.35,3.41,12.51,5.14.18.07,13.75,5.79,5.74,2.39,16.18,6.88,32.26,13.99,48.23,21.34,61.85,28.49,121.9,60.85,179.33,97.49,112.17,71.56,210.03,154.55,304.29,253.72,46.49,48.91,91.1,99.69,133.34,152.33,5.31,6.62,10.54,13.29,15.8,19.94,8.56,10.84-5.13-6.79,3.18,4.08,2.5,3.27,4.99,6.54,7.47,9.82,9.55,12.64,18.92,25.43,28.04,38.39,17.01,24.17,33.21,48.95,47.43,74.87,19.59,35.71,30.66,61.78,42.84,100.15,11.48,36.16,19.5,73.18,25.17,110.67,2.31,15.27-.83-8.54.9,6.82.53,4.72,1.1,9.43,1.59,14.15.9,8.67,1.66,17.36,2.29,26.06,1.45,19.88,2.22,39.81,2.42,59.75.39,38.86-1.41,77.72-4.71,116.44-6.64,78.06-18.63,149.4-33.55,229.66s-27.38,153.47-53.98,227.08c-13.79,38.16-27.05,68.12-45.5,105.36-18.2,36.74-38.06,72.64-59.01,107.89-40.5,68.15-84.41,134.78-131.03,198.9-11.22,15.44-14.07,19.16-26.02,33.87-12.28,15.11-25,29.87-38.11,44.27-24.11,26.47-49.55,51.71-76.12,75.71-53.64,48.46-101.27,83.91-163.92,123.68-60.19,38.21-123.16,71.96-187.81,101.97-16.36,7.6-32.83,14.95-49.4,22.08-.1.04-13.71,5.83-5.84,2.52-2.77,1.17-5.54,2.32-8.32,3.47-9.71,4.02-19.44,7.97-29.21,11.85-33.37,13.25-67.07,25.65-101.04,37.29-72.04,24.69-145.24,46.03-219.39,63.4-37.55,8.8-75.35,16.58-113.34,23.25-17.4,3.05-34.84,5.87-52.31,8.45-19.22,2.83-31.73,4.46-54.82,7-74.4,8.18-149.35,11.74-224.18,9.62-37.85-1.07-75.67-3.6-113.32-7.72-9.38-1.03-18.75-2.13-28.1-3.38,8.6,1.14-6.7-.98-6.71-.98-4.66-.68-9.31-1.38-13.97-2.11-18.58-2.92-37.11-6.25-55.54-10-36.82-7.5-73.3-16.7-109.24-27.68-17.24-5.27-34.36-10.96-51.32-17.05-8.13-2.92-16.22-5.94-24.28-9.05-4.4-1.7-8.79-3.43-13.17-5.19-1.55-.62-16.5-6.81-11.07-4.51-65.22-27.66-127.58-62.25-185.67-102.78-12.38-8.63-24.54-17.56-36.55-26.7,7.5,5.71-3.27-2.57-3.89-3.06-3.23-2.55-6.44-5.12-9.64-7.7-7.47-6.03-14.85-12.17-22.15-18.4-24.54-20.95-48.15-42.98-70.78-65.98-22.71-23.09-44.44-47.14-65.16-72.03-5.31-6.37-10.55-12.8-15.72-19.29-2.59-3.24-5.15-6.51-7.72-9.77-8.47-10.76,5.1,6.9-3.11-4.06-10-13.33-19.89-26.72-29.44-40.37-38.48-55.03-72.6-113.09-102.38-173.26-7.5-15.16-14.73-30.45-21.68-45.86-2.9-6.44-5.76-12.89-8.56-19.37-.26-.61-5.74-13.47-2.11-4.85-2.19-5.21-4.34-10.45-6.47-15.69-12.79-31.53-24.47-63.5-35.04-95.84-21.23-64.91-38.01-131.28-50.27-198.46-2.81-15.41-5.39-30.86-7.72-46.34-.64-4.22-1.26-8.45-1.86-12.67-.13-.9-1.99-14.89-.7-4.96-1.19-9.17-2.31-18.35-3.34-27.54-3.72-33.17-6.34-66.46-7.84-99.81-7.51-166.71,9.65-327.69,62.2-485.91,22.87-68.86,47.14-123.79,83.3-189.55,17.14-31.16,35.58-61.61,55.18-91.28,8.98-13.6,18.21-27.04,27.67-40.32,5.16-7.25,10.39-14.44,15.69-21.59,2.65-3.57,5.31-7.14,8-10.69,1.3-1.72,8.77-11.47,7.3-9.58,83.49-107.26,189.59-209.87,300.15-295.96-6.62,5.15,4.94-3.79,5.01-3.84,3.54-2.7,7.09-5.39,10.65-8.07,7.11-5.35,14.25-10.66,21.43-15.92,14.33-10.5,28.79-20.81,43.39-30.94,30.77-21.36,62.09-41.96,94.01-61.55,34.09-20.93,68.92-40.69,104.67-58.66,36.77-18.48,65.36-31.13,103.11-44.55,35.4-12.59,71.66-22.85,108.56-29.99,34.77-6.73,65.28-9.67,104.66-9.74,23.54-.04,46.09-20.67,45-45s-19.77-45.04-45-45h0Z"/>
  </g>
  <g class="cls-5">
    <path class="cls-4" d="m1390.87,95.91c-168.84-.44-328.57,75.66-471.22,165.99-273.57,173.23-516.19,416.19-621.36,722.44-46.59,135.65-64.99,280.11-62.6,423.52,7.11,427.89,222.4,864.93,599.27,1067.68,347.81,187.12,776.14,154.84,1152.33,34.56,276.93-88.54,549.54-230.09,719.91-465.69,104.07-143.92,164.39-315.59,199.18-489.76,52.48-262.71,45.46-550.22-92.4-779.93-65.2-108.64-156.46-199.23-252.17-282.26-179.35-155.58-380.56-290.29-605.21-367.14-224.65-76.85-474.74-92.74-699.13-15.15"/>
    <path class="cls-2" d="m1390.87,50.91c-153.03.25-298.46,57.9-429.44,133.13-118.92,68.3-231.41,150.07-332.92,242.28-203.79,185.11-360.54,422.74-413.36,695.73-51.88,268.11-21.62,552.09,84.15,803.72,97.75,232.53,259.71,439.83,478.61,569.27,246.69,145.87,543.07,179.57,823.73,145.8,143.56-17.28,284.69-49.75,421.91-95.24,128.76-42.68,255.07-96.03,371.78-165.52,114.93-68.43,222.04-153.38,307.38-256.86,95.31-115.56,161.65-250.45,205.88-393.12,42.97-138.58,68.37-284.75,72.47-429.83,3.97-140.49-13.6-284.52-64.54-416.13-26.11-67.45-59.57-131.3-101.95-189.97-43.93-60.81-94.36-116.36-148.65-168.04-106.51-101.4-223.55-194.01-347.46-273.24C2066.73,91.89,1767.23-11.54,1465.45,19.66c-74.89,7.74-148.68,22.7-219.95,47.12-22.22,7.61-39.23,31.24-31.43,55.36,7.13,22.03,31.51,39.6,55.36,31.43,34.82-11.93,70.28-21.84,106.29-29.52,17.18-3.67,34.46-6.84,51.81-9.55,4.73-.74,9.47-1.44,14.22-2.11-8.35,1.16,7.22-.89,7.04-.87,9.52-1.15,19.05-2.16,28.6-3.03,73.46-6.71,147.59-5.3,220.85,3.08,4,.46,7.99.94,11.98,1.44,1.6.2,11.7,1.56,4.79.6,9.57,1.32,19.11,2.79,28.64,4.36,19.07,3.14,38.06,6.74,56.95,10.78,34.62,7.41,68.92,16.32,102.79,26.63s68.45,22.47,101.94,35.7c8.58,3.39,17.14,6.86,25.66,10.42-5.9-2.47,1.21.52,2,.86,4.24,1.83,8.47,3.66,12.7,5.51,16.89,7.43,33.64,15.17,50.25,23.21,63.77,30.86,125.42,66.04,184.9,104.49,56.78,36.71,116.02,79.69,163.71,117.63,55.61,44.24,109.77,90.59,161.11,139.74,25.7,24.61,50.63,50.04,74.32,76.6,11.3,12.66,22.32,25.58,33,38.77,11.61,14.34,17.03,21.44,29.27,38.77,19.7,27.9,37.7,56.98,53.63,87.19,7.23,13.71,14.05,27.64,20.46,41.75,1.83,4.02,3.6,8.07,5.38,12.12,5.84,13.22-3.04-7.89,2.32,5.53,3.28,8.2,6.54,16.39,9.62,24.67,23.67,63.6,39.57,130.02,48.87,197.21-1.3-9.39.63,5.15.7,5.7.36,2.95.71,5.9,1.04,8.86,1.01,8.87,1.91,17.75,2.7,26.65,1.59,17.84,2.75,35.71,3.52,53.6,1.47,34.44,1.47,68.94.14,103.39-1.3,33.79-3.86,67.53-7.54,101.15-.9,8.21-1.87,16.42-2.9,24.61-.06.45-2.03,15.13-.75,5.89-.41,2.97-.83,5.94-1.25,8.91-2.55,17.78-5.41,35.52-8.55,53.21-12.45,70.14-29.07,139.66-50.61,207.57-10.85,34.19-22.99,67.98-36.59,101.17-4.31,10.51-10.67,25.02-17.92,40.56-7.89,16.9-16.19,33.6-24.93,50.07-16.02,30.19-33.51,59.6-52.55,87.99-9.23,13.75-18.82,27.26-28.77,40.5-.32.43-8.85,11.5-3.28,4.36-2.6,3.34-5.24,6.66-7.89,9.96-5.29,6.6-10.68,13.12-16.14,19.58-41.8,49.33-88.56,94.34-138.76,135.06-5.47,4.43-10.98,8.8-16.51,13.15-10.93,8.58,6.85-5.04-4.28,3.28-3.39,2.53-6.75,5.09-10.15,7.61-13.6,10.1-27.42,19.91-41.42,29.45-26.95,18.36-54.59,35.69-82.77,52.08-55.52,32.29-113.14,60.9-172.03,86.49-3.94,1.71-7.88,3.4-11.83,5.09-12.99,5.56,7.99-3.26-5.07,2.12-6.61,2.72-13.22,5.45-19.86,8.13-15.91,6.41-31.9,12.62-47.97,18.63-30.69,11.49-61.65,22.27-92.81,32.41-65.15,21.21-131.23,39.62-198.05,54.78-33.35,7.57-66.89,14.33-100.58,20.21-16.47,2.87-32.97,5.54-49.51,7.99-4.51.67-9.02,1.29-13.53,1.95-14.81,2.16,8.74-1.07-6.09.84-9.03,1.16-18.06,2.29-27.11,3.33-68.98,7.95-138.45,11.93-207.89,11.11-34.41-.41-68.82-1.99-103.11-4.88-16.33-1.38-32.63-3.04-48.9-5.01-2.95-.36-5.9-.74-8.86-1.1-14.55-1.81,8.78,1.37-5.71-.78-9.55-1.42-19.09-2.83-28.61-4.4-66.45-11.01-132.04-27.41-195.58-49.81-15.38-5.42-30.64-11.19-45.76-17.32-.2-.08-13.73-5.66-5.72-2.3-4.11-1.73-8.2-3.52-12.29-5.31-8.18-3.6-16.32-7.31-24.4-11.12-29.31-13.82-57.98-29.03-85.81-45.64-25.81-15.4-50.91-31.98-75.21-49.66-5.27-3.83-10.5-7.71-15.69-11.64-.93-.7-11.16-8.69-3.28-2.49-3.07-2.41-6.14-4.83-9.19-7.26-11.68-9.34-23.15-18.95-34.42-28.79-44.59-38.96-85.86-81.69-123.55-127.35-4.98-6.04-9.9-12.12-14.76-18.26-1.62-2.05-3.23-4.1-4.84-6.16-8.02-10.23,5.26,7.12-2.52-3.31-9.39-12.58-18.72-25.17-27.7-38.04-17.26-24.72-33.59-50.1-48.97-76.03-15.44-26.03-29.93-52.63-43.47-79.7-6.49-12.98-12.76-26.07-18.82-39.26-2.75-6-5.46-12.03-8.13-18.07-1.6-3.63-3.16-7.27-4.75-10.9-4.27-9.76,2.06,5.14-1.64-3.86-23.2-56.4-42.92-114.1-58.54-173.05-7.81-29.49-14.64-59.23-20.47-89.18-2.79-14.31-5.35-28.67-7.68-43.06-1.06-6.54-2.07-13.09-3.03-19.64-.58-3.93-1.13-7.87-1.68-11.8,1.53,10.88-.74-5.85-.97-7.73-7.66-62.1-10.91-124.68-10.02-187.24,1.11-78.03,7.83-148.78,22.27-221.75,14.06-71.04,34.87-140.57,62.58-207.48-3.14,7.58.37-.87,1.18-2.73,1.38-3.2,2.78-6.39,4.19-9.57,3.38-7.64,6.86-15.23,10.42-22.79,7.11-15.1,14.56-30.03,22.33-44.8,14.25-27.06,29.58-53.55,45.88-79.42s35.22-53.52,54.29-79.25c2.49-3.36,5-6.71,7.53-10.05.39-.51,8.79-11.47,3.15-4.19,4.28-5.52,8.61-11,12.97-16.45,10.5-13.1,21.23-26.01,32.19-38.73,42.21-48.99,87.71-95.13,135.69-138.47,23.56-21.29,47.72-41.91,72.4-61.89,6.04-4.89,12.1-9.73,18.2-14.54,3.33-2.62,6.66-5.23,10-7.83-6.13,4.77,1.12-.86,2.63-2.01,12.89-9.86,25.91-19.55,39.04-29.07,54.47-39.5,110.93-76.5,169.29-110.01,31.43-18.05,63.5-35.01,96.35-50.35,31.06-14.51,57.71-25.41,93.9-37.29,32.44-10.65,65.56-19.29,99.18-25.28,28.2-5.02,59.37-7.87,94.59-7.93,23.54-.04,46.09-20.67,45-45-1.09-24.35-19.77-45.04-45-45h0Z"/>
  </g>
  <path class="cls-3" d="m760.56,618.84c8.91,39.69,18.24,79.28,28,118.76s19.94,78.85,30.54,118.11,21.51,78.01,32.89,116.84,23.28,77.89,35.55,116.64,24.94,77.35,38.04,115.82c1.63,4.78,3.26,9.57,4.91,14.35,3.82,11.14,10.3,20.82,20.68,26.89,5.17,3.29,10.74,5.07,16.73,5.34,5.98,1.34,11.96,1.07,17.94-.8,10.89-3.52,21.39-10.27,26.89-20.68,5.46-10.33,8.46-23.24,4.54-34.68-13.19-38.43-25.98-77-38.35-115.71-12.37-38.72-24.33-77.57-35.86-116.54-11.48-38.8-22.55-77.72-33.2-116.75-10.71-39.23-20.99-78.57-30.85-118.03-9.86-39.46-19.3-79.02-28.32-118.69-1.12-4.93-2.24-9.87-3.34-14.81-1.39-5.86-4.08-10.96-8.05-15.3-3.17-4.9-7.38-8.76-12.63-11.59-5.17-3.29-10.74-5.07-16.73-5.34-5.98-1.34-11.96-1.07-17.94.8-10.89,3.52-21.39,10.27-26.89,20.68l-4.54,10.75c-2.14,7.98-2.14,15.95,0,23.93h0Z"/>
  <path class="cls-3" d="m649.97,1038.39c50.17-24.4,100.4-48.7,151.35-71.43,14.44-6.44,28.94-12.75,43.51-18.9l-10.75,4.54c37.88-15.97,76.23-30.86,115.22-43.92s77.94-24.1,117.8-32.68c22.31-4.8,44.8-8.77,67.42-11.82l-11.96,1.61c25.81-3.45,51.77-5.68,77.8-6.54,11.77-.39,23.39-4.75,31.82-13.18,4.39-4.08,7.49-8.9,9.3-14.48,2.82-5.36,4.11-11.14,3.88-17.34-.52-11.64-4.34-23.71-13.18-31.82s-19.78-13.58-31.82-13.18c-42.98,1.41-85.9,6.55-128.19,14.22-38.69,7.02-76.89,16.61-114.49,28.08-38.06,11.61-75.53,25.12-112.49,39.87-40.31,16.08-80.14,33.42-119.58,51.54-36.19,16.63-72.07,33.91-107.89,51.31-4.4,2.14-8.79,4.27-13.19,6.41-5.24,2.83-9.45,6.69-12.63,11.59-3.98,4.35-6.66,9.45-8.05,15.3-1.88,5.98-2.14,11.96-.8,17.94.27,5.99,2.05,11.57,5.34,16.73,6.19,9.61,15.42,18.07,26.89,20.68l11.96,1.61c8.12-.03,15.69-2.07,22.71-6.14h0Z"/>
</svg>