<?xml version="1.0" encoding="UTF-8"?>
<svg id="Layer_1" data-name="Layer 1" xmlns="http://www.w3.org/2000/svg" viewBox="0 0 2983.3 2843.62">
  <defs>
    <style>
      .cls-1 {
        opacity: .5;
      }

      .cls-2 {
        fill: #1a1a1a;
      }

      .cls-2, .cls-3, .cls-4, .cls-5 {
        stroke-width: 0px;
      }

      .cls-6 {
        opacity: .8;
      }

      .cls-3 {
        fill: #333;
      }

      .cls-4 {
        fill: #fff;
      }

      .cls-7 {
        opacity: .6;
      }

      .cls-5 {
        fill: #f2f2f2;
      }
    </style>
  </defs>
  <path class="cls-2" d="m1391.08,50.43c-153.03.25-298.46,57.9-429.44,133.13-118.92,68.3-231.41,150.07-332.92,242.28-203.79,185.11-360.54,422.74-413.36,695.73-51.88,268.11-21.62,552.09,84.15,803.72,97.75,232.53,259.71,439.83,478.61,569.27,246.69,145.87,543.07,179.57,823.73,145.8,143.56-17.28,284.69-49.75,421.91-95.24,128.76-42.68,255.07-96.03,371.78-165.52,114.93-68.43,222.04-153.38,307.38-256.86,95.31-115.56,161.65-250.45,205.88-393.12,42.97-138.58,68.37-284.75,72.47-429.83,3.97-140.49-13.6-284.52-64.54-416.13-26.11-67.45-59.57-131.3-101.95-189.97-43.93-60.81-94.36-116.36-148.65-168.04-106.51-101.4-223.55-194.01-347.46-273.24C2066.94,91.41,1767.43-12.02,1465.65,19.18c-74.89,7.74-148.68,22.7-219.95,47.12-22.22,7.61-39.23,31.24-31.43,55.36,7.13,22.03,31.51,39.6,55.36,31.43,34.82-11.93,70.28-21.84,106.29-29.52,17.18-3.67,34.46-6.84,51.81-9.55,4.73-.74,9.47-1.44,14.22-2.11-8.35,1.16,7.22-.89,7.04-.87,9.52-1.15,19.05-2.16,28.6-3.03,73.46-6.71,147.59-5.3,220.85,3.08,4,.46,7.99.94,11.98,1.44,1.6.2,11.7,1.56,4.79.6,9.57,1.32,19.11,2.79,28.64,4.36,19.07,3.14,38.06,6.74,56.95,10.78,34.62,7.41,68.92,16.32,102.79,26.63,34.45,10.49,68.45,22.47,101.94,35.7,8.58,3.39,17.14,6.86,25.66,10.42-5.9-2.47,1.21.52,2,.86,4.24,1.83,8.47,3.66,12.7,5.51,16.89,7.43,33.64,15.17,50.25,23.21,63.77,30.86,125.42,66.04,184.9,104.49,56.78,36.71,116.02,79.69,163.71,117.63,55.61,44.24,109.77,90.59,161.11,139.74,25.7,24.61,50.63,50.04,74.32,76.6,11.3,12.66,22.32,25.58,33,38.77,11.61,14.34,17.03,21.44,29.27,38.77,19.7,27.9,37.7,56.98,53.63,87.19,7.23,13.71,14.05,27.64,20.46,41.75,1.83,4.02,3.6,8.07,5.38,12.12,5.84,13.22-3.04-7.89,2.32,5.53,3.28,8.2,6.54,16.39,9.62,24.67,23.67,63.6,39.57,130.02,48.87,197.21-1.3-9.39.63,5.15.7,5.7.36,2.95.71,5.9,1.04,8.86,1.01,8.87,1.91,17.75,2.7,26.65,1.59,17.84,2.75,35.71,3.52,53.6,1.47,34.44,1.47,68.94.14,103.39-1.3,33.79-3.86,67.53-7.54,101.15-.9,8.21-1.87,16.42-2.9,24.61-.06.45-2.03,15.13-.75,5.89-.41,2.97-.83,5.94-1.25,8.91-2.55,17.78-5.41,35.52-8.55,53.21-12.45,70.14-29.07,139.66-50.61,207.57-10.85,34.19-22.99,67.98-36.59,101.17-4.31,10.51-10.67,25.02-17.92,40.56-7.89,16.9-16.19,33.6-24.93,50.07-16.02,30.19-33.51,59.6-52.55,87.99-9.23,13.75-18.82,27.26-28.77,40.5-.32.43-8.85,11.5-3.28,4.36-2.6,3.34-5.24,6.66-7.89,9.96-5.29,6.6-10.68,13.12-16.14,19.58-41.8,49.33-88.56,94.34-138.76,135.06-5.47,4.43-10.98,8.8-16.51,13.15-10.93,8.58,6.85-5.04-4.28,3.28-3.39,2.53-6.75,5.09-10.15,7.61-13.6,10.1-27.42,19.91-41.42,29.45-26.95,18.36-54.59,35.69-82.77,52.08-55.52,32.29-113.14,60.9-172.03,86.49-3.94,1.71-7.88,3.4-11.83,5.09-12.99,5.56,7.99-3.26-5.07,2.12-6.61,2.72-13.22,5.45-19.86,8.13-15.91,6.41-31.9,12.62-47.97,18.63-30.69,11.49-61.65,22.27-92.81,32.41-65.15,21.21-131.23,39.62-198.05,54.78-33.35,7.57-66.89,14.33-100.58,20.21-16.47,2.87-32.97,5.54-49.51,7.99-4.51.67-9.02,1.29-13.53,1.95-14.81,2.16,8.74-1.07-6.09.84-9.03,1.16-18.06,2.29-27.11,3.33-68.98,7.95-138.45,11.93-207.89,11.11-34.41-.41-68.82-1.99-103.11-4.88-16.33-1.38-32.63-3.04-48.9-5.01-2.95-.36-5.9-.74-8.86-1.1-14.55-1.81,8.78,1.37-5.71-.78-9.55-1.42-19.09-2.83-28.61-4.4-66.45-11.01-132.04-27.41-195.58-49.81-15.38-5.42-30.64-11.19-45.76-17.32-.2-.08-13.73-5.66-5.72-2.3-4.11-1.73-8.2-3.52-12.29-5.31-8.18-3.6-16.32-7.31-24.4-11.12-29.31-13.82-57.98-29.03-85.81-45.64-25.81-15.4-50.91-31.98-75.21-49.66-5.27-3.83-10.5-7.71-15.69-11.64-.93-.7-11.16-8.69-3.28-2.49-3.07-2.41-6.14-4.83-9.19-7.26-11.68-9.34-23.15-18.95-34.42-28.79-44.59-38.96-85.86-81.69-123.55-127.35-4.98-6.04-9.9-12.12-14.76-18.26-1.62-2.05-3.23-4.1-4.84-6.16-8.02-10.23,5.26,7.12-2.52-3.31-9.39-12.58-18.72-25.17-27.7-38.04-17.26-24.72-33.59-50.1-48.97-76.03-15.44-26.03-29.93-52.63-43.47-79.7-6.49-12.98-12.76-26.07-18.82-39.26-2.75-6-5.46-12.03-8.13-18.07-1.6-3.63-3.16-7.27-4.75-10.9-4.27-9.76,2.06,5.14-1.64-3.86-23.2-56.4-42.92-114.1-58.54-173.05-7.81-29.49-14.64-59.23-20.47-89.18-2.79-14.31-5.35-28.67-7.68-43.06-1.06-6.54-2.07-13.09-3.03-19.64-.58-3.93-1.13-7.87-1.68-11.8,1.53,10.88-.74-5.85-.97-7.73-7.66-62.1-10.91-124.68-10.02-187.24,1.11-78.03,7.83-148.78,22.27-221.75,14.06-71.04,34.87-140.57,62.58-207.48-3.14,7.58.37-.87,1.18-2.73,1.38-3.2,2.78-6.39,4.19-9.57,3.38-7.64,6.86-15.23,10.42-22.79,7.11-15.1,14.56-30.03,22.33-44.8,14.25-27.06,29.58-53.55,45.88-79.42,17.08-27.1,35.22-53.52,54.29-79.25,2.49-3.36,5-6.71,7.53-10.05.39-.51,8.79-11.47,3.15-4.19,4.28-5.52,8.61-11,12.97-16.45,10.5-13.1,21.23-26.01,32.19-38.73,42.21-48.99,87.71-95.13,135.69-138.47,23.56-21.29,47.72-41.91,72.4-61.89,6.04-4.89,12.1-9.73,18.2-14.54,3.33-2.62,6.66-5.23,10-7.83-6.13,4.77,1.12-.86,2.63-2.01,12.89-9.86,25.91-19.55,39.04-29.07,54.47-39.5,110.93-76.5,169.29-110.01,31.43-18.05,63.5-35.01,96.35-50.35,31.06-14.51,57.71-25.41,93.9-37.29,32.44-10.65,65.56-19.29,99.18-25.28,28.2-5.02,59.37-7.87,94.59-7.93,23.54-.04,46.09-20.67,45-45-1.09-24.35-19.77-45.04-45-45h0Z"/>
  <path class="cls-2" d="m1248.36,53.26c-162.14.29-315.48,64.48-452.46,146.75-125.38,75.3-243.72,164.84-349.52,265.85-103.53,98.85-195.85,211.09-268.23,334.78-78.13,133.52-131.33,280.53-156.13,433.23-47.62,293.19-8.98,596.64,108.99,869.01,106.28,245.36,284.57,465.29,520.83,595.27,272.97,150.18,593.11,170.76,895.79,121.74,147.47-23.88,292.38-64.36,431.91-117.58,135.04-51.51,266.24-115.16,384.67-198.51,59.05-41.56,115.34-87.43,166.54-138.4,53.29-53.04,99.44-111.8,142.14-173.56,91.49-132.32,178.81-271.57,228.24-425.77,23.73-74.02,35.74-152.07,49.26-228.47,15.15-85.54,27.73-171.96,31.58-258.83,7.35-165.69-27.1-327.17-101.49-475.44-69.72-138.97-181.63-246.35-295.84-349.09-116.58-104.87-243.34-193.37-383.33-264.29-70.11-35.52-142.28-66.97-215.43-95.69-70.15-27.54-140.87-53.43-214.77-69-153.39-32.33-312.07-32.27-466.5-7.45-70.38,11.31-139.77,28.56-206.96,52.41-22.13,7.86-39.29,31.06-31.43,55.36,7.06,21.83,31.6,39.86,55.36,31.43,68.72-24.4,139.75-41.89,211.78-53.17,19.65-3.08,26.41-3.97,46.3-6.17,17.95-1.98,35.95-3.58,53.97-4.82,37.74-2.59,75.61-3.52,113.43-2.75s75.06,3.2,112.36,7.48c3.22.37,6.43.75,9.65,1.15-.3-.04,15.45,2.08,7.25.93,8.75,1.23,17.49,2.57,26.21,4.02,18.07,2.99,36.06,6.45,53.95,10.39,72.19,15.91,141.47,41.74,210.1,68.82,66.04,26.06,131.62,55.18,198.17,89.31,66.42,34.06,130.98,71.86,192.53,114.13,60.44,41.51,111.44,84.48,167.23,134.73,56.35,50.75,112.2,102.36,162.86,158.89,47.41,52.91,84.7,106.82,117.57,173.18,17.43,35.2,28.55,61.62,41.49,98.95,12.21,35.23,22.31,71.18,30.06,107.65,16.05,75.55,19.28,154.31,14.65,235.35-4.64,81.25-15.86,154.33-30.34,234.24-13.52,74.61-25.56,150.35-49.6,222.44-24.06,72.12-56.9,138.7-95.89,206.82-38.58,67.41-81.5,132.22-125.78,195.99-38.23,55.06-78.02,103.78-128.93,153.63-97.82,95.78-209.11,169.45-334.81,232.61-30.14,15.14-60.72,29.41-91.64,42.88-4.22,1.84-8.44,3.65-12.67,5.46-13.84,5.95,7.72-3.15-6.19,2.61-7.08,2.93-14.15,5.85-21.25,8.71-17.02,6.87-34.12,13.51-51.31,19.94-66.65,24.94-134.46,46.88-203.11,65.62-145.74,39.78-283.69,63.37-432.7,67.77-72.52,2.14-145.22-.64-217.26-9.35-4.77-.58-9.55-1.16-14.31-1.81,6.98.95-3.08-.47-4.69-.7-8.71-1.26-17.41-2.61-26.09-4.06-18.92-3.14-37.76-6.71-56.51-10.74-34.34-7.37-68.37-16.22-101.92-26.64-124.62-38.72-250.76-107.09-346.67-187.69-48.41-40.69-93.22-85.63-134.18-133.8-10.07-11.85-19.81-23.94-29.5-36.1-8.7-10.91,5.08,6.8-3.37-4.32-2.57-3.38-5.14-6.77-7.69-10.17-5.1-6.82-10.12-13.68-15.08-20.6-18.66-26.04-36.32-52.8-52.99-80.15-34.05-55.87-63.59-114.19-89.69-174.16-5.54-12.73,1.81,4.43-1.37-3.22-1.39-3.34-2.77-6.67-4.14-10.02-3.28-8.03-6.49-16.1-9.63-24.19-6.02-15.53-11.78-31.17-17.27-46.9-10.77-30.84-20.52-62.04-29.25-93.53-17.49-63.09-30.88-127.32-40.09-192.14-.1-.73-2-14.99-.75-5.33-.56-4.33-1.11-8.65-1.64-12.98-.88-7.21-1.7-14.44-2.47-21.66-1.86-17.33-3.41-34.69-4.66-52.07-2.5-34.71-3.75-69.5-3.84-104.29-.42-159.71,22.29-314.24,79.05-464.96,22.33-59.29,52.79-121.92,88.37-182,16.98-28.67,35.05-56.69,54.1-84.02,21.58-30.96,36.7-50.97,58.72-77.98,43.21-53.02,90-103.1,139.53-150.26,25.35-24.14,51.42-47.52,78.11-70.15,12.76-10.82,25.66-21.47,38.7-31.94,14.29-11.48,22.72-18.07,33.98-26.62,57.4-43.57,117.07-84.39,178.85-121.49,32.04-19.23,64.73-37.39,98.24-53.93,35.7-17.62,63.45-29.64,100.89-42.67,70.95-24.69,135.78-37.73,207.9-37.86,23.54-.04,46.09-20.67,45-45s-19.77-45.05-45-45h0Z"/>
  <g class="cls-1">
    <path class="cls-2" d="m1246.67,93.66c-175.57-.47-341.68,81.35-490.01,178.48C472.17,458.4,219.89,719.64,110.52,1048.93c-48.44,145.86-67.58,301.19-65.1,455.38,7.4,460.08,231.27,930.01,623.17,1148.01,361.68,201.2,807.09,166.49,1198.28,37.16,287.97-95.21,571.45-247.4,748.61-500.72,108.22-154.75,226.53-339.25,262.71-526.52,54.57-282.48,115.36-573.01-28-820-67.8-116.81-227.47-296.73-327-386-186.5-167.29-349.39-258.36-583-341-233.61-82.64-598.91-89.67-832.25-6.25"/>
    <path class="cls-2" d="m1246.67,48.66c-167.72.29-325.76,68.86-466.42,155.23-127.33,78.18-247.48,170.47-354.04,275.29-105.11,103.39-198.16,221.03-268.84,350.65-79.28,145.39-126.77,303.24-146.55,467.4-35.52,294.78,17.14,600.36,148.8,866.4,124.76,252.11,327.77,466.58,588.86,577.53,295.67,125.65,628.05,118.81,936.37,46.58,149.26-34.97,295.62-85.13,434.69-149.68,135.02-62.67,262.95-142.32,373.26-242.73,115.98-105.56,205.27-238.03,284.65-372.37,43.39-73.43,81.92-150.05,110.97-230.34,27.74-76.69,41.1-157.03,55.81-236.97,29.78-161.81,53.1-326.68,29.22-490.82-11.58-79.59-36.61-157.08-74.72-227.98-31.31-58.24-71.97-111.39-113.02-163-174.49-219.36-388.01-408.71-644.45-526.09-68.45-31.33-138.93-59.97-210.58-83.17-64.01-20.73-130.25-34.33-196.83-43.61-149.28-20.8-300.43-21.67-449.69-.16-63.89,9.21-127.28,23.19-188.18,44.79-22.13,7.85-39.29,31.07-31.43,55.36,7.07,21.83,31.6,39.85,55.36,31.43,60.9-21.6,124.29-35.57,188.18-44.79.83-.12,14.89-2.02,5.1-.74,4.3-.56,8.6-1.1,12.9-1.62,8.67-1.05,17.35-2.01,26.04-2.89,17.59-1.78,35.22-3.24,52.87-4.38,35.85-2.32,71.77-3.36,107.69-3.21,36.03.15,72.05,1.49,107.99,4.05,16.3,1.16,32.58,2.57,48.84,4.24,8.78.9,17.56,1.88,26.32,2.94,4.36.52,8.71,1.08,13.06,1.63,5.44.71,5.78.76,1.02.13,2.87.4,5.74.81,8.61,1.22,64.91,9.41,129.48,23.08,191.84,43.57,32.87,10.8,65.31,23.09,97.52,35.71,8.49,3.33,16.96,6.71,25.41,10.15,4.18,1.7,8.35,3.41,12.51,5.14.18.07,13.75,5.79,5.74,2.39,16.18,6.88,32.26,13.99,48.23,21.34,61.85,28.49,121.9,60.85,179.33,97.49,112.17,71.56,210.03,154.55,304.29,253.72,46.49,48.91,91.1,99.69,133.34,152.33,5.31,6.62,10.54,13.29,15.8,19.94,8.56,10.84-5.13-6.79,3.18,4.08,2.5,3.27,4.99,6.54,7.47,9.82,9.55,12.64,18.92,25.43,28.04,38.39,17.01,24.17,33.21,48.95,47.43,74.87,19.59,35.71,30.66,61.78,42.84,100.15,11.48,36.16,19.5,73.18,25.17,110.67,2.31,15.27-.83-8.54.9,6.82.53,4.72,1.1,9.43,1.59,14.15.9,8.67,1.66,17.36,2.29,26.06,1.45,19.88,2.22,39.81,2.42,59.75.39,38.86-1.41,77.72-4.71,116.44-6.64,78.06-18.63,149.4-33.55,229.66-14.26,76.71-27.38,153.47-53.98,227.08-13.79,38.16-27.05,68.12-45.5,105.36-18.2,36.74-38.06,72.64-59.01,107.89-40.5,68.15-84.41,134.78-131.03,198.9-11.22,15.44-14.07,19.16-26.02,33.87-12.28,15.11-25,29.87-38.11,44.27-24.11,26.47-49.55,51.71-76.12,75.71-53.64,48.46-101.27,83.91-163.92,123.68-60.19,38.21-123.16,71.96-187.81,101.97-16.36,7.6-32.83,14.95-49.4,22.08-.1.04-13.71,5.83-5.84,2.52-2.77,1.17-5.54,2.32-8.32,3.47-9.71,4.02-19.44,7.97-29.21,11.85-33.37,13.25-67.07,25.65-101.04,37.29-72.04,24.69-145.24,46.03-219.39,63.4-37.55,8.8-75.35,16.58-113.34,23.25-17.4,3.05-34.84,5.87-52.31,8.45-19.22,2.83-31.73,4.46-54.82,7-74.4,8.18-149.35,11.74-224.18,9.62-37.85-1.07-75.67-3.6-113.32-7.72-9.38-1.03-18.75-2.13-28.1-3.38,8.6,1.14-6.7-.98-6.71-.98-4.66-.68-9.31-1.38-13.97-2.11-18.58-2.92-37.11-6.25-55.54-10-36.82-7.5-73.3-16.7-109.24-27.68-17.24-5.27-34.36-10.96-51.32-17.05-8.13-2.92-16.22-5.94-24.28-9.05-4.4-1.7-8.79-3.43-13.17-5.19-1.55-.62-16.5-6.81-11.07-4.51-65.22-27.66-127.58-62.25-185.67-102.78-12.38-8.63-24.54-17.56-36.55-26.7,7.5,5.71-3.27-2.57-3.89-3.06-3.23-2.55-6.44-5.12-9.64-7.7-7.47-6.03-14.85-12.17-22.15-18.4-24.54-20.95-48.15-42.98-70.78-65.98s-44.44-47.14-65.16-72.03c-5.31-6.37-10.55-12.8-15.72-19.29-2.59-3.24-5.15-6.51-7.72-9.77-8.47-10.76,5.1,6.9-3.11-4.06-10-13.33-19.89-26.72-29.44-40.37-38.48-55.03-72.6-113.09-102.38-173.26-7.5-15.16-14.73-30.45-21.68-45.86-2.9-6.44-5.76-12.89-8.56-19.37-.26-.61-5.74-13.47-2.11-4.85-2.19-5.21-4.34-10.45-6.47-15.69-12.79-31.53-24.47-63.5-35.04-95.84-21.23-64.91-38.01-131.28-50.27-198.46-2.81-15.41-5.39-30.86-7.72-46.34-.64-4.22-1.26-8.45-1.86-12.67-.13-.9-1.99-14.89-.7-4.96-1.19-9.17-2.31-18.35-3.34-27.54-3.72-33.17-6.34-66.46-7.84-99.81-7.51-166.71,9.65-327.69,62.2-485.91,22.87-68.86,47.14-123.79,83.3-189.55,17.14-31.16,35.58-61.61,55.18-91.28,8.98-13.6,18.21-27.04,27.67-40.32,5.16-7.25,10.39-14.44,15.69-21.59,2.65-3.57,5.31-7.14,8-10.69,1.3-1.72,8.77-11.47,7.3-9.58,83.49-107.26,189.59-209.87,300.15-295.96-6.62,5.15,4.94-3.79,5.01-3.84,3.54-2.7,7.09-5.39,10.65-8.07,7.11-5.35,14.25-10.66,21.43-15.92,14.33-10.5,28.79-20.81,43.39-30.94,30.77-21.36,62.09-41.96,94.01-61.55,34.09-20.93,68.92-40.69,104.67-58.66,36.77-18.48,65.36-31.13,103.11-44.55,35.4-12.59,71.66-22.85,108.56-29.99,34.77-6.73,65.28-9.67,104.66-9.74,23.54-.04,46.09-20.67,45-45-1.09-24.35-19.77-45.04-45-45h0Z"/>
  </g>
  <g class="cls-6">
    <path class="cls-5" d="m1390.87,95.91c-168.84-.44-328.57,75.66-471.22,165.99-273.57,173.23-516.19,416.19-621.36,722.44-46.59,135.65-64.99,280.11-62.6,423.52,7.11,427.89,222.4,864.93,599.27,1067.68,347.81,187.12,776.14,154.84,1152.33,34.56,276.93-88.54,549.54-230.09,719.91-465.69,104.07-143.92,164.39-315.59,199.18-489.76,52.48-262.71,45.46-550.22-92.4-779.93-65.2-108.64-156.46-199.23-252.17-282.26-179.35-155.58-380.56-290.29-605.21-367.14-224.65-76.85-474.74-92.74-699.13-15.15"/>
    <path class="cls-2" d="m1390.87,50.91c-153.03.25-298.46,57.9-429.44,133.13-118.92,68.3-231.41,150.07-332.92,242.28-203.79,185.11-360.54,422.74-413.36,695.73-51.88,268.11-21.62,552.09,84.15,803.72,97.75,232.53,259.71,439.83,478.61,569.27,246.69,145.87,543.07,179.57,823.73,145.8,143.56-17.28,284.69-49.75,421.91-95.24,128.76-42.68,255.07-96.03,371.78-165.52,114.93-68.43,222.04-153.38,307.38-256.86,95.31-115.56,161.65-250.45,205.88-393.12,42.97-138.58,68.37-284.75,72.47-429.83,3.97-140.49-13.6-284.52-64.54-416.13-26.11-67.45-59.57-131.3-101.95-189.97-43.93-60.81-94.36-116.36-148.65-168.04-106.51-101.4-223.55-194.01-347.46-273.24C2066.73,91.89,1767.23-11.54,1465.45,19.66c-74.89,7.74-148.68,22.7-219.95,47.12-22.22,7.61-39.23,31.24-31.43,55.36,7.13,22.03,31.51,39.6,55.36,31.43,34.82-11.93,70.28-21.84,106.29-29.52,17.18-3.67,34.46-6.84,51.81-9.55,4.73-.74,9.47-1.44,14.22-2.11-8.35,1.16,7.22-.89,7.04-.87,9.52-1.15,19.05-2.16,28.6-3.03,73.46-6.71,147.59-5.3,220.85,3.08,4,.46,7.99.94,11.98,1.44,1.6.2,11.7,1.56,4.79.6,9.57,1.32,19.11,2.79,28.64,4.36,19.07,3.14,38.06,6.74,56.95,10.78,34.62,7.41,68.92,16.32,102.79,26.63,34.45,10.49,68.45,22.47,101.94,35.7,8.58,3.39,17.14,6.86,25.66,10.42-5.9-2.47,1.21.52,2,.86,4.24,1.83,8.47,3.66,12.7,5.51,16.89,7.43,33.64,15.17,50.25,23.21,63.77,30.86,125.42,66.04,184.9,104.49,56.78,36.71,116.02,79.69,163.71,117.63,55.61,44.24,109.77,90.59,161.11,139.74,25.7,24.61,50.63,50.04,74.32,76.6,11.3,12.66,22.32,25.58,33,38.77,11.61,14.34,17.03,21.44,29.27,38.77,19.7,27.9,37.7,56.98,53.63,87.19,7.23,13.71,14.05,27.64,20.46,41.75,1.83,4.02,3.6,8.07,5.38,12.12,5.84,13.22-3.04-7.89,2.32,5.53,3.28,8.2,6.54,16.39,9.62,24.67,23.67,63.6,39.57,130.02,48.87,197.21-1.3-9.39.63,5.15.7,5.7.36,2.95.71,5.9,1.04,8.86,1.01,8.87,1.91,17.75,2.7,26.65,1.59,17.84,2.75,35.71,3.52,53.6,1.47,34.44,1.47,68.94.14,103.39-1.3,33.79-3.86,67.53-7.54,101.15-.9,8.21-1.87,16.42-2.9,24.61-.06.45-2.03,15.13-.75,5.89-.41,2.97-.83,5.94-1.25,8.91-2.55,17.78-5.41,35.52-8.55,53.21-12.45,70.14-29.07,139.66-50.61,207.57-10.85,34.19-22.99,67.98-36.59,101.17-4.31,10.51-10.67,25.02-17.92,40.56-7.89,16.9-16.19,33.6-24.93,50.07-16.02,30.19-33.51,59.6-52.55,87.99-9.23,13.75-18.82,27.26-28.77,40.5-.32.43-8.85,11.5-3.28,4.36-2.6,3.34-5.24,6.66-7.89,9.96-5.29,6.6-10.68,13.12-16.14,19.58-41.8,49.33-88.56,94.34-138.76,135.06-5.47,4.43-10.98,8.8-16.51,13.15-10.93,8.58,6.85-5.04-4.28,3.28-3.39,2.53-6.75,5.09-10.15,7.61-13.6,10.1-27.42,19.91-41.42,29.45-26.95,18.36-54.59,35.69-82.77,52.08-55.52,32.29-113.14,60.9-172.03,86.49-3.94,1.71-7.88,3.4-11.83,5.09-12.99,5.56,7.99-3.26-5.07,2.12-6.61,2.72-13.22,5.45-19.86,8.13-15.91,6.41-31.9,12.62-47.97,18.63-30.69,11.49-61.65,22.27-92.81,32.41-65.15,21.21-131.23,39.62-198.05,54.78-33.35,7.57-66.89,14.33-100.58,20.21-16.47,2.87-32.97,5.54-49.51,7.99-4.51.67-9.02,1.29-13.53,1.95-14.81,2.16,8.74-1.07-6.09.84-9.03,1.16-18.06,2.29-27.11,3.33-68.98,7.95-138.45,11.93-207.89,11.11-34.41-.41-68.82-1.99-103.11-4.88-16.33-1.38-32.63-3.04-48.9-5.01-2.95-.36-5.9-.74-8.86-1.1-14.55-1.81,8.78,1.37-5.71-.78-9.55-1.42-19.09-2.83-28.61-4.4-66.45-11.01-132.04-27.41-195.58-49.81-15.38-5.42-30.64-11.19-45.76-17.32-.2-.08-13.73-5.66-5.72-2.3-4.11-1.73-8.2-3.52-12.29-5.31-8.18-3.6-16.32-7.31-24.4-11.12-29.31-13.82-57.98-29.03-85.81-45.64-25.81-15.4-50.91-31.98-75.21-49.66-5.27-3.83-10.5-7.71-15.69-11.64-.93-.7-11.16-8.69-3.28-2.49-3.07-2.41-6.14-4.83-9.19-7.26-11.68-9.34-23.15-18.95-34.42-28.79-44.59-38.96-85.86-81.69-123.55-127.35-4.98-6.04-9.9-12.12-14.76-18.26-1.62-2.05-3.23-4.1-4.84-6.16-8.02-10.23,5.26,7.12-2.52-3.31-9.39-12.58-18.72-25.17-27.7-38.04-17.26-24.72-33.59-50.1-48.97-76.03-15.44-26.03-29.93-52.63-43.47-79.7-6.49-12.98-12.76-26.07-18.82-39.26-2.75-6-5.46-12.03-8.13-18.07-1.6-3.63-3.16-7.27-4.75-10.9-4.27-9.76,2.06,5.14-1.64-3.86-23.2-56.4-42.92-114.1-58.54-173.05-7.81-29.49-14.64-59.23-20.47-89.18-2.79-14.31-5.35-28.67-7.68-43.06-1.06-6.54-2.07-13.09-3.03-19.64-.58-3.93-1.13-7.87-1.68-11.8,1.53,10.88-.74-5.85-.97-7.73-7.66-62.1-10.91-124.68-10.02-187.24,1.11-78.03,7.83-148.78,22.27-221.75,14.06-71.04,34.87-140.57,62.58-207.48-3.14,7.58.37-.87,1.18-2.73,1.38-3.2,2.78-6.39,4.19-9.57,3.38-7.64,6.86-15.23,10.42-22.79,7.11-15.1,14.56-30.03,22.33-44.8,14.25-27.06,29.58-53.55,45.88-79.42s35.22-53.52,54.29-79.25c2.49-3.36,5-6.71,7.53-10.05.39-.51,8.79-11.47,3.15-4.19,4.28-5.52,8.61-11,12.97-16.45,10.5-13.1,21.23-26.01,32.19-38.73,42.21-48.99,87.71-95.13,135.69-138.47,23.56-21.29,47.72-41.91,72.4-61.89,6.04-4.89,12.1-9.73,18.2-14.54,3.33-2.62,6.66-5.23,10-7.83-6.13,4.77,1.12-.86,2.63-2.01,12.89-9.86,25.91-19.55,39.04-29.07,54.47-39.5,110.93-76.5,169.29-110.01,31.43-18.05,63.5-35.01,96.35-50.35,31.06-14.51,57.71-25.41,93.9-37.29,32.44-10.65,65.56-19.29,99.18-25.28,28.2-5.02,59.37-7.87,94.59-7.93,23.54-.04,46.09-20.67,45-45-1.09-24.35-19.77-45.04-45-45h0Z"/>
  </g>
  <path class="cls-3" d="m760.56,618.84c8.91,39.69,18.24,79.28,28,118.76,9.76,39.48,19.94,78.85,30.54,118.11,10.55,39.06,21.51,78.01,32.89,116.84,11.43,39.01,23.28,77.89,35.55,116.64,12.26,38.74,24.94,77.35,38.04,115.82,1.63,4.78,3.26,9.57,4.91,14.35,3.82,11.14,10.3,20.82,20.68,26.89,5.17,3.29,10.74,5.07,16.73,5.34,5.98,1.34,11.96,1.07,17.94-.8,10.89-3.52,21.39-10.27,26.89-20.68,5.46-10.33,8.46-23.24,4.54-34.68-13.19-38.43-25.98-77-38.35-115.71s-24.33-77.57-35.86-116.54c-11.48-38.8-22.55-77.72-33.2-116.75-10.71-39.23-20.99-78.57-30.85-118.03-9.86-39.46-19.3-79.02-28.32-118.69-1.12-4.93-2.24-9.87-3.34-14.81-1.39-5.86-4.08-10.96-8.05-15.3-3.17-4.9-7.38-8.76-12.63-11.59-5.17-3.29-10.74-5.07-16.73-5.34-5.98-1.34-11.96-1.07-17.94.8-10.89,3.52-21.39,10.27-26.89,20.68l-4.54,10.75c-2.14,7.98-2.14,15.95,0,23.93h0Z"/>
  <path class="cls-3" d="m649.97,1038.39c50.17-24.4,100.4-48.7,151.35-71.43,14.44-6.44,28.94-12.75,43.51-18.9-3.58,1.51-7.17,3.02-10.75,4.54,37.88-15.97,76.23-30.86,115.22-43.92,38.66-12.95,77.94-24.1,117.8-32.68,22.31-4.8,44.8-8.77,67.42-11.82-3.99.54-7.98,1.07-11.96,1.61,25.81-3.45,51.77-5.68,77.8-6.54,11.77-.39,23.39-4.75,31.82-13.18,4.39-4.08,7.49-8.9,9.3-14.48,2.82-5.36,4.11-11.14,3.88-17.34-.52-11.64-4.34-23.71-13.18-31.82-8.64-7.93-19.78-13.58-31.82-13.18-42.98,1.41-85.9,6.55-128.19,14.22-38.69,7.02-76.89,16.61-114.49,28.08-38.06,11.61-75.53,25.12-112.49,39.87-40.31,16.08-80.14,33.42-119.58,51.54-36.19,16.63-72.07,33.91-107.89,51.31-4.4,2.14-8.79,4.27-13.19,6.41-5.24,2.83-9.45,6.69-12.63,11.59-3.98,4.35-6.66,9.45-8.05,15.3-1.88,5.98-2.14,11.96-.8,17.94.27,5.99,2.05,11.57,5.34,16.73,6.19,9.61,15.42,18.07,26.89,20.68,3.99.54,7.98,1.07,11.96,1.61,8.12-.03,15.69-2.07,22.71-6.14h0Z"/>
  <g class="cls-7">
    <path class="cls-4" d="m1720,575.33c-15.4-1.66-30.9-2.03-46.36-1.05-20.33,1.29-40.82,4.1-60.68,8.72-14.9,3.46-29.45,8.2-43.58,14.06-11.67,4.85-23.34,9.68-34.55,15.53s-20.4,12.66-29.66,20.61c-6.64,5.7-11.99,13.4-16.94,20.34-2.36,3.31-4.26,6.92-5.91,10.63-5.38,12.12-9.63,24.5-14.72,36.69l6.05-14.33c-18.35,43.06-54.92,74.85-75.12,116.86-7.19,14.95-13.67,30.55-18.18,46.56-4.54,16.08-6.73,32.51-8.84,49.06-3.04,23.91-2.78,48.12-.47,72.09,4.84,50.31,14.83,101.09,31.04,149.04,4.94,14.62,10.87,28.85,17.04,43,4.16,9.55,8.79,18.89,14.04,27.89,7.58,12.99,16.68,24.89,26.1,36.6,6.21,7.72,13.08,14.92,20.62,21.34,11.34,9.65,23.41,19.04,36.6,26.08,9.77,5.21,20.14,9.4,30.44,13.39,5.88,2.28,11.88,4.22,17.95,5.93,24.53,6.9,50.03,10.75,75.13,14.94,56.31,9.4,113.68,17.19,170.9,14.92,30.5-1.21,61.3-4.98,91.03-11.94,29.61-6.94,58.08-18.26,85.44-31.42,22.74-10.94,44.43-23.92,65.54-37.71,24.95-16.3,49.79-33.16,73.19-51.63,4.83-3.82,9.35-7.94,13.24-12.73,6.76-8.31,13.31-16.35,17.55-26.16s8.64-19.37,10.5-29.97c1.85-10.56,3.48-21.54,3.56-32.34.05-6.21-.43-12.4-1.21-18.56-1.43-11.3-2.79-22.56-5.44-33.64-2.95-12.34-7.13-24.36-11.87-36.12-6.65-16.47-13.82-32.7-21.35-48.78-5.29-11.3-10.51-22.7-17.21-33.25-9.2-14.49-20.41-27.84-32.86-39.64-8.78-8.33-18-16.2-26.43-24.9-6.84-7.07-13.22-14.57-19.25-22.34,3.13,4.05,6.25,8.1,9.38,12.14-34.04-44.14-55.85-96.04-87.57-141.71-10.47-15.08-21.69-29.86-34.13-43.39-12.42-13.51-26.54-24.88-41.3-35.77-16.52-12.19-34.87-20.41-53.88-27.99-14.63-5.83-29.92-9.68-45.51-11.85-20.61-2.87-40.71-4.98-61.49-2.99s-40.43,5.02-59.75,11.45c-18.96,6.31-37.73,14.43-55.01,24.53-16.97,9.92-32.87,22.05-47.64,34.97-11.28,9.87-21.58,20.8-30.82,32.59-13.12,16.73-25.71,33.53-34.43,53.04-5.28,11.81-10.61,23.9-13.96,36.46s-5.22,26.25-5.98,39.42c-.73,12.77,1.12,25.79,3.33,38.29,2.05,11.56,6.95,22.19,11.62,32.89,2.79,6.4,6.26,12.42,10.43,18.02,6.84,9.19,13.67,18.67,22.61,25.99s17.69,14.58,28.13,19.24c7.1,3.17,14.81,6.82,22.51,8.95,8.23,2.27,17.11,3.08,25.46,3.94,3.36.35,6.72.37,10.08.05,16.37-1.57,24.44-3.23,39.2-10.56,7.53-3.74,14.65-9.22,19.99-15.73,3.05-3.72,8.7-10.18,11.54-15.62,3.18-6.11,5.81-12.59,8.07-19.11,1.15-3.32,1.93-6.77,2.52-10.23,1.45-8.55,2.85-17.35,3.2-26.07.48-11.74-1.42-23.85-3.59-35.26s-7.28-22.85-12.14-33.77c-4.92-11.04-12.31-20.15-19.78-29.63-4.24-5.38-8.95-10.17-14.3-14.44-12.45-9.92-19.56-15.39-34.98-20.51-6.42-2.13-13.57-3.06-20.2-3.05-3.46,0-6.59.67-10.16,1.15-4.14.56-7.29.7-10.97,1.87-12.9,4.1-23.65,10.67-33.28,20.28-6.28,6.27-11.62,14.04-16.82,20.99-4.34,5.81-8.09,12.04-11.29,18.54-8.89,17.99-15.84,36.87-19.87,56.52-4.11,20.05-6.42,40.54-8.19,60.93-1.52,17.57-3.08,35.32-1.9,52.96.92,13.74,2.51,27.83,6.24,41.14,3.25,11.57,8.05,22.97,13.79,33.5,1.68,3.09,3.56,6.07,5.63,8.91,4.93,6.75,9.93,13.73,15.79,19.76s12.73,10.81,19.16,15.62c3.05,2.29,6.26,4.33,9.7,6,7.02,3.4,14.24,6.71,21.75,8.9s16.87,3.1,24.66,3.87c3.25.32,6.5.41,9.76.15,8.21-.66,16.63-1.51,24.64-3.6,7.59-1.98,15.27-5.54,22.12-8.83,7.34-3.53,13.57-8.97,19.87-14.03,2.25-1.81,4.31-3.75,6.17-5.97,5.14-6.12,10.89-12.89,14.43-20.32,7.63-16.03,12.52-32.24,11.87-50.29-.46-12.69-2.44-25.93-6.71-37.99-7.23-20.39-17.16-38.87-29.29-56.66-7.69-11.28-16.08-22.08-24.55-32.77-5.01-6.33-10.07-13.32-16.17-18.64-9.32-8.12-12.77-10.37-22.72-14.57-9.59-4.05-14.92-5.91-26.72-5.91-6.32,0-12.96.83-19.05,2.7-13.05,4.01-19.03,8.28-29.26,16.98-5.87,4.99-10.55,11.51-14.43,18.14-2.07,3.53-3.51,7.62-5.07,11.31-1.7,4.04-3.43,7.85-4.71,12-5.81,18.91-8.67,38.75-10.48,58.39-1.35,14.56-1.22,29.24.29,43.78,2.05,19.71,4.96,39.41,10.69,58.42s13.33,37.11,22.45,54.39c9.08,17.2,20.66,32.75,32.96,47.79,12.7,15.53,27.81,28.73,44.47,39.93,10.42,7.01,22.37,12.06,34.16,16.13,3.32,1.15,6.73,2.05,10.19,2.67,8.66,1.55,17.65,3.21,26.53,3.06,7.98-.14,16.12-1.55,23.93-2.91,3.23-.56,6.42-1.42,9.5-2.56,7.58-2.8,15.34-5.77,22.4-9.81s13.37-9.37,19.35-14.38c2.21-1.85,4.21-3.91,6.05-6.13,4.96-6,10.83-12.74,14.32-20.06,3.03-6.34,6.91-14.23,8.48-21.62,1.34-6.31,2.1-12.99,2.69-19.4.19-2.03.27-4.05.15-6.08-.99-17.96-5.22-33.39-14-49.19-1.68-3.02-3.65-5.83-5.74-8.57-5.34-7.04-10.52-14.19-16.77-20.44-8.76-8.76-18.96-16.2-28.91-23.48-6.78-4.96-13.86-9.55-21.37-13.34-11.29-5.69-23.52-11.28-36.04-13.88-8.71-1.81-17.63-3.09-26.52-3.49-8.41-.38-17.49,1.3-25.53,2.58-11.39,1.82-22.68,6.65-32.63,12.23-6.81,3.82-12.98,9.06-18.95,13.97-4.63,3.8-7.94,8.28-11.62,13.04-8.33,10.78-15.45,22.67-17.88,36.37-1.29,7.26-3.15,16.6-2.43,24.57s1.34,17.15,4.14,24.94c2.6,7.25,5.48,14.79,9.44,21.5s9.45,13.37,14.68,19.5c7.58,8.89,17.65,16.06,27.11,22.63,5.85,4.06,12.12,7.51,18.61,10.45,11.83,5.34,23.94,10.39,36.24,14.6,16.89,5.79,34.33,10,51.99,12.59,22.28,3.26,44.4,5.77,66.94,5.04,13.22-.43,26.27-1.96,39.35-4.06,11.74-1.88,23.26-6.52,33.67-12.06,14.51-7.71,26.92-20.46,35.43-34.39,9.02-14.77,11.8-29.56,13.34-46.44.29-3.17.24-6.36-.07-9.52-.82-8.37-1.73-17.01-3.77-25.22-2.87-11.58-7.9-22.87-13.43-33.38s-12.95-20.14-20.55-28.79c-13.87-15.79-37.88-26.84-59.07-24.71-14.96,1.5-25.37,3.71-38.72,11.34-7.71,4.41-14.92,10.21-21.26,16.47-8.5,8.41-16.01,18.24-22.16,28.48-12.42,20.67-19.72,45.77-19.67,69.94.02,8.2,1.54,17.02,2.77,24.86.57,3.63,1.35,7.19,2.52,10.67,3.45,10.26,7.78,21.31,14.28,30.24,6.47,8.88,12.96,17.84,21.57,24.76s16.81,13.66,26.57,18.36,20.61,9.5,31.5,12.17c11.15,2.74,22.77,4.25,34.22,4.77s22.42-1.32,33.49-2.99c7.02-1.06,13.86-2.94,20.5-5.42,11.69-4.38,23.44-9.26,34.24-15.61s20.06-13.83,29.6-21.37c12.25-9.67,23.26-20.8,33.44-32.61,8.22-9.53,16.51-19.37,23.46-29.83,4.94-7.43,8.56-16.31,11.27-24.59,4.55-13.89,3.79-27.56,1.09-41.58-1.54-7.99-4.81-16-9.42-22.69-9.32-13.54-14.87-18.29-28.16-27.95-10.05-7.31-22.98-11.94-34.29-16.37-12.66-4.96-26.17-6.8-39.66-7.99-3.82-.34-7.66-.36-11.47,0-8.79.81-18.67,1.6-27.32,4.43-16.96,5.54-29.36,13.02-42.7,24.77-6.04,5.32-10.98,12.58-15.6,18.81-5.1,6.88-7.85,14.94-11.06,22.86-1.18,2.9-2,5.82-2.52,8.91-.84,5.04-2.31,13.32-2.44,19.65-.15,6.86,1.32,13.93,2.4,20.64,1.36,8.47,5.47,16.88,9.03,24.38,3.65,7.69,9.81,14.85,15,21.21,7.34,8.99,17.07,16.38,26.8,22.51,9.42,5.92,20.13,10.27,30.78,13.4,3.22.94,6.49,1.64,9.81,2.15,8.27,1.29,16.73,2.7,25.14,2.98,11.84.4,23.91-1.47,35.45-3.72,11.3-2.21,21.7-6.95,32.22-11.56s19.62-11.76,28.97-19.17c9.34-7.41,16.14-16.59,23.3-26.15s11.09-19.6,15.44-30.43c4.33-10.77,5.84-22.68,6.53-34.17.17-2.91.02-5.79-.31-8.69-.93-8.14-1.54-16.93-4.37-24.81-2.51-6.99-5.58-15.44-9.93-22.01-3.5-5.29-7.64-10.53-11.8-15.32-1.33-1.53-2.82-2.87-4.39-4.15-11.63-9.48-19.49-15.13-34.25-19.52-12.77-3.79-27.44-3.73-40.3-.41s-23.7,10.2-33.56,19.02c-6.3,5.64-11.8,12.93-15.53,20.59-7.25,14.86-8.35,20.76-10.16,37.07-.87,7.89.91,16.58,2.23,24.02s5.23,15.21,8.24,21.79c1.37,2.99,2.99,5.7,4.95,8.34,4.28,5.76,9.08,12.81,14.71,17.85,4.66,4.17,9.82,7.91,14.84,11.61,1.53,1.13,3.1,2.2,4.75,3.15,1.4.8,2.84,1.5,4.31,2.16,5.74,2.59,11.6,5.31,17.6,7.29,1.38.45,2.78.83,4.2,1.12,6.6,1.36,13.54,2.23,20.24,2.76,8.05.64,16.74-1.3,24.37-2.54,3.54-.58,6.92-1.62,10.25-2.93,6.94-2.74,15.1-5.73,21.7-9.87,6.95-4.36,13.46-9.55,19.59-14.97,8.76-7.74,16.05-17.63,22.2-27.47,6.29-10.07,10.95-21.45,14.54-32.72,5.5-17.29,6.37-35.34,2.41-53.05-1.81-8.11-5.4-16.28-10.2-23.13-4.28-6.1-9.43-13.39-15.48-18.36-9.44-7.76-18.74-14.08-28.94-20.46-12.2-7.63-23.99-15.89-35.38-24.69l12.14,9.38c-32.69-25.37-61.7-55.18-86.99-87.91l9.38,12.14c-25.27-32.82-46.81-68.42-64.88-105.68-5.14-10.61-10-21.36-14.6-32.22l6.05,14.33c-11.16-26.46-20.72-53.57-28.75-81.14-36.55,15.41-73.11,30.82-109.66,46.23,3.83,6.57,7.25,13.36,10.25,20.35l-6.05-14.33c5.06,11.99,9.31,24.73,11.24,37.64l-2.14-15.95c.28,2.28.37,4.48.14,6.77l2.14-15.95c-.23,1.45-.58,2.8-1.11,4.17l6.05-14.33c-.54,1.17-1.16,2.23-1.89,3.29l9.38-12.14c-1.2,1.53-2.54,2.84-4.07,4.05l12.14-9.38c-2.13,1.56-4.38,2.81-6.79,3.87l14.33-6.05c-4.66,1.91-9.5,3.08-14.48,3.78l15.95-2.14c-9.86,1.22-19.76.57-29.65.03-4.78-.26-9.56-.51-14.34-.48-8.91.06-18.1,1.58-26.75,2.96-11.97,1.91-23.91,6.8-34.41,12.58-14.21,7.82-26.36,19.84-34.83,33.61-4.24,6.9-7.68,14.75-9.43,22.68-3.73,16.94-2.98,28.07,0,45.04,1.72,9.83,5.64,19.48,9.21,28.76,8.63,22.43,18.39,44.55,30.38,65.4,11.77,20.47,25.52,40.57,41.22,58.19,8.76,9.84,19.44,18.51,30.61,25.37,7.56,4.65,16.11,8,24.38,10.96,8.26,2.96,18.32,3.78,26.6,4.58,3.66.35,7.25.29,10.9-.13,5.87-.67,13.89-1.37,20.36-2.99s13.66-5.18,19.39-7.7c15.01-6.59,28.03-20.15,36.36-34.02,9.15-15.22,13.83-34.67,13.01-52.36-.62-13.5-2.92-27.47-7.27-40.34s-9.62-25.51-16.04-37.43c-6.53-12.1-15.08-23.38-24.15-33.62-2.9-3.27-6.02-6.34-9.4-9.12-6.8-5.59-14.09-11.72-21.92-16.12s-16.47-8.01-25.11-10.76-18.57-3.63-27.73-4.48l-15.95,2.14c-7.81,1.86-14.61,5.44-20.4,10.74-4.51,2.67-8.1,6.25-10.76,10.76-5.3,5.79-8.88,12.6-10.74,20.4-3.28,20-6.4,40.06-8.44,60.22-1.49,14.71-2.13,29.57-.94,44.32,1.45,18.01,3.73,36.79,10.04,53.88,5.58,15.14,12.06,30.47,21.72,43.54,6.16,8.34,12.5,17.02,19.96,24.36s15.67,13.47,24.02,19.25c4.47,3.1,9.22,5.67,14.19,7.85,9.58,4.19,19.19,8.73,29.55,10.6,16.91,3.07,32.12,4.5,49.01-.11,7.29-1.99,14.55-4.98,20.93-9.03,10.48-6.66,14.68-11.06,21.58-19.99,7.42-9.6,13.54-20.41,15.39-32.64,1.05-6.96,2.84-15.39,2.29-22.89-.56-7.68-1.4-15.46-3.28-22.94-2.46-9.82-6.72-19.73-12.35-28.2-4.03-6.05-8.63-11.84-13.32-17.37-1.92-2.26-4-4.36-6.23-6.31-7.63-6.68-15.86-13.35-24.92-18.11-6.68-3.5-13.81-6.22-20.78-9.03-2.79-1.13-5.66-2.08-8.57-2.86-2.61-.7-5.26-1.25-7.93-1.65-7.77-1.18-15.66-2.53-23.53-2.9-10.65-.51-21.6,1.37-31.97,3.17-6.08,1.05-11.99,2.82-17.71,5.14-10.21,4.13-20.53,8.18-29.84,14.15-14.01,8.97-27.71,19.91-38.37,32.82-5.04,6.1-10.46,12.17-14.4,19.07-3.08,5.39-5.45,11.34-7.28,17.3-1.41,4.59-1.92,12.19-2.38,16.99-.1,1.07-.14,1.95-.09,3.02.5,12.31,3.51,25.72,10.52,36.08,3.44,5.08,7.42,10.41,11.61,14.91,1.17,1.26,2.46,2.4,3.79,3.48,12.62,10.33,25.61,19.94,40.53,26.62,15.11,6.76,30.19,13,46.48,16.06,16.21,3.05,33.07,5.26,49.63,4.62,16.5-.64,33.34-2.88,49.3-7.24,5.5-1.5,10.91-3.33,16.19-5.49,9.9-4.04,19.94-8.01,29.29-13.26s18.68-11.41,25.85-18.28c13.21-12.67,22.45-32.83,21.76-51.38-.11-2.98-.7-5.74-1.12-8.84-.32-2.42-.49-6.14-1.32-8.99s-4.9-12.23-6.25-14.77l-.13-.19c-2.9-4.31-6.07-8.42-9.51-12.33-3.64-3.39-9.04-7.51-13.26-10.15-9.79-6.1-13.22-5.94-22.8-7.23-2.26-.3-6.19-1.32-9.16-1.04-8.26-.31-15.97,1.41-23.12,5.17-7.44,2.42-13.88,6.56-19.31,12.41-5.85,5.43-9.99,11.87-12.41,19.31-3.76,7.15-5.48,14.86-5.17,23.12.7,15.52,5.79,31.61,17.57,42.43l12.14,9.38c9.36,5.43,19.45,8.16,30.28,8.19.39-.07.79-.08,1.19-.03l-15.95-2.14.5.11-14.33-6.05c.3.09.57.24.81.44-4.05-3.13-8.1-6.25-12.14-9.38l.31.32-9.38-12.14c.2.25.35.52.46.82l-6.05-14.33c.12.33.2.66.24,1.01l-2.14-15.95c.05.61.04,1.17,0,1.78.71-5.32,1.43-10.63,2.14-15.95-.17,1.16-.47,2.23-.89,3.33l6.05-14.33c-.5,1.13-1.08,2.17-1.81,3.17l9.38-12.14c-.6.74-1.22,1.37-1.96,1.96l12.14-9.38c-8.2,5.96-17.02,10.93-26.33,14.93l14.33-6.05c-11.75,4.95-24.07,8.28-36.69,10.05l15.95-2.14c-13.64,1.83-27.43,1.82-41.07-.01l15.95,2.14c-12.63-1.78-24.95-5.1-36.72-10.02l14.33,6.05c-10.52-4.49-20.43-10.21-29.51-17.17l12.14,9.38c-2.43-1.89-4.72-3.89-6.69-6.26,3.13,4.05,6.25,8.1,9.38,12.14-1.01-1.34-1.84-2.69-2.51-4.23l6.05,14.33c-.33-.94-.54-1.8-.71-2.79l2.14,15.95c-.07-1.06-.04-1.97.09-3.02l-2.14,15.95c.25-1.08.56-2.02.98-3.04-2.02,4.78-4.03,9.56-6.05,14.33.99-1.97,2.21-3.73,3.55-5.47l-9.38,12.14c6.03-7.63,12.88-14.51,20.55-20.49-4.05,3.13-8.1,6.25-12.14,9.38,6.86-5.24,14.25-9.67,22.18-13.08l-14.33,6.05c6.98-2.91,14.22-4.95,21.71-6l-15.95,2.14c6.38-.81,12.75-.81,19.13,0l-15.95-2.14c6.63.92,13.06,2.67,19.23,5.26-4.78-2.02-9.56-4.03-14.33-6.05,5.21,2.26,10.11,5.07,14.65,8.49-4.05-3.13-8.1-6.25-12.14-9.38,4.21,3.26,7.97,6.97,11.25,11.16l-9.38-12.14c2.59,3.44,4.84,7.09,6.54,11.05-2.02-4.78-4.03-9.56-6.05-14.33,1.34,3.31,2.26,6.7,2.79,10.22l-2.14-15.95c.41,3.2.48,6.37.13,9.58l2.14-15.95c-.34,2.51-.93,4.92-1.86,7.28,2.02-4.78,4.03-9.56,6.05-14.33-.76,1.77-1.66,3.39-2.79,4.95l9.38-12.14c-1.2,1.54-2.52,2.85-4.06,4.05,4.05-3.13,8.1-6.25,12.14-9.38-1.35.96-2.75,1.75-4.26,2.43l14.33-6.05c-2.01.8-4.04,1.34-6.17,1.69l15.95-2.14c-3.64.47-7.23.38-10.87-.06l15.95,2.14c-6.31-.88-12.42-2.59-18.3-5.04l14.33,6.05c-6.29-2.71-12.14-6.19-17.58-10.32l12.14,9.38c-6.75-5.24-12.69-11.34-17.91-18.09l9.38,12.14c-6.04-7.95-10.98-16.61-14.88-25.8,2.02,4.78,4.03,9.56,6.05,14.33-4.54-10.94-7.33-22.36-8.91-34.08l2.14,15.95c-2.85-22.33-1.27-44.84,1.67-67.07l-2.14,15.95c1.37-10.13,2.99-20.22,4.65-30.31l-57.86,44.05c.94.09,1.87.19,2.81.31l-15.95-2.14c4.86.71,9.54,2.02,14.07,3.93l-14.33-6.05c5.03,2.2,9.68,5.04,14.02,8.39-4.05-3.13-8.1-6.25-12.14-9.38,5.68,4.5,10.65,9.72,15.09,15.43l-9.38-12.14c6.72,8.79,12.08,18.48,16.42,28.65l-6.05-14.33c4.04,9.62,7.37,19.64,8.77,30.01l-2.14-15.95c.57,4.75.69,9.48.08,14.23.71-5.32,1.43-10.63,2.14-15.95-.5,3.28-1.34,6.42-2.63,9.48l6.05-14.33c-1.11,2.41-2.43,4.64-4.05,6.75,3.13-4.05,6.25-8.1,9.38-12.14-1.51,1.84-3.16,3.46-5.02,4.94,4.05-3.13,8.1-6.25,12.14-9.38-2.36,1.77-4.87,3.18-7.58,4.33l14.33-6.05c-3.07,1.21-6.2,2.01-9.46,2.49l15.95-2.14c-3.94.49-7.86.48-11.81.02l15.95,2.14c-4.24-.58-8.31-1.67-12.26-3.32l14.33,6.05c-4.88-2.16-9.37-4.91-13.61-8.15,4.05,3.13,8.1,6.25,12.14,9.38-7.33-5.78-13.54-12.73-19.25-20.09l9.38,12.14c-18.26-23.8-33.19-50.26-44.89-77.86l6.05,14.33c-2.82-6.71-5.46-13.49-7.88-20.35-2.51-7.11-5.09-14.31-6.11-21.81l2.14,15.95c-.31-2.9-.34-5.71,0-8.62l-2.14,15.95c.39-2.36.99-4.6,1.89-6.81l-6.05,14.33c.99-2.24,2.23-4.3,3.71-6.25-3.13,4.05-6.25,8.1-9.38,12.14,1.72-2.14,3.66-4.02,5.81-5.74l-12.14,9.38c3.2-2.43,6.66-4.37,10.34-5.96l-14.33,6.05c5.23-2.17,10.68-3.58,16.27-4.39l-15.95,2.14c10.44-1.39,20.99-.33,31.46.18,5.73.28,11.48.46,17.21.08,10.44-.68,21.37-1.7,31.43-4.88,6.95-2.19,13.83-5.22,20.34-8.41s12.11-8.24,17.54-12.74c.87-.72,1.71-1.45,2.47-2.28,3.85-4.2,7.73-9.27,10.87-14,.62-.93,1.13-1.89,1.62-2.9,2.14-4.38,4.94-10.6,6.4-15.23.23-.72.42-1.43.58-2.17,3.67-16.03,2.38-30.06-1.15-46.03-1.25-5.66-2.78-11.27-4.58-16.78-3.46-10.62-7.98-20.94-12.48-31.14-2.75-6.22-5.87-12.27-9.3-18.15-3.77-6.99-8.92-12.6-15.45-16.83-5.79-5.3-12.6-8.88-20.4-10.74l-15.95-2.14c-8.26-.31-15.97,1.41-23.12,5.17-5.08,1.43-9.49,4-13.24,7.72-6.53,4.23-11.68,9.84-15.45,16.83-7.49,14.17-10.64,30.49-6.05,46.23,7.93,27.24,17.37,54.02,28.35,80.18,12.96,30.88,26.86,61.16,43.7,90.15s35.79,55.36,56.36,81.26c17.43,21.93,36.59,42.5,57.47,61.19,15.25,13.65,31.43,26.32,47.99,38.32,6.38,4.63,12.89,9.08,19.51,13.35s13.68,8.12,20.03,12.88l-12.14-9.38c2.84,2.21,5.45,4.6,7.66,7.45l-9.38-12.14c1.13,1.56,2.08,3.16,2.88,4.91l-6.05-14.33c.83,2.03,1.35,4.05,1.66,6.23l-2.14-15.95c.22,2.4.16,4.74-.1,7.14l2.14-15.95c-.89,6.52-2.85,12.84-5.39,18.9,2.02-4.78,4.03-9.56,6.05-14.33-2.7,6.23-6.08,12.09-10.21,17.47l9.38-12.14c-3.33,4.23-7.07,8.06-11.29,11.4l12.14-9.38c-3.7,2.83-7.64,5.19-11.93,7.02l14.33-6.05c-3.76,1.52-7.63,2.57-11.65,3.14l15.95-2.14c-2.93.35-5.81.36-8.74.01l15.95,2.14c-3.47-.5-6.79-1.44-10.03-2.79l14.33,6.05c-3.23-1.43-6.23-3.2-9.06-5.31l12.14,9.38c-3-2.33-5.67-4.96-8.02-7.94l9.38,12.14c-2.06-2.71-3.78-5.59-5.12-8.73,2.02,4.78,4.03,9.56,6.05,14.33-1.02-2.55-1.75-5.15-2.14-7.87l2.14,15.95c-.28-2.43-.28-4.83.03-7.26l-2.14,15.95c.35-2.21.94-4.32,1.79-6.39-2.02,4.78-4.03,9.56-6.05,14.33.94-2.12,2.08-4.05,3.49-5.89l-9.38,12.14c1.11-1.33,2.28-2.5,3.63-3.58l-12.14,9.38c1.12-.8,2.24-1.47,3.49-2.05l-14.33,6.05c1.23-.49,2.44-.84,3.75-1.08l-15.95,2.14c1.59-.19,3.1-.2,4.69-.02l-15.95-2.14c1.59.26,3.08.68,4.59,1.24l-14.33-6.05c2.15.92,4.08,2.06,5.96,3.45l-12.14-9.38c2.12,1.69,3.98,3.57,5.66,5.7l-9.38-12.14c1.84,2.51,3.32,5.2,4.55,8.07-2.02-4.78-4.03-9.56-6.05-14.33,1.31,3.27,2.2,6.61,2.71,10.1l-2.14-15.95c.51,4.07.47,8.12-.03,12.19l2.14-15.95c-.71,5.08-2.11,9.97-4.05,14.72l6.05-14.33c-2.45,5.76-5.62,11.11-9.39,16.09l9.38-12.14c-4.06,5.23-8.7,9.92-13.91,14l12.14-9.38c-5.44,4.15-11.39,7.49-17.68,10.15l14.33-6.05c-7.25,2.98-14.81,5-22.57,6.05l15.95-2.14c-7.4.92-14.83.95-22.23-.03l15.95,2.14c-6.33-.91-12.48-2.55-18.38-5.04l14.33,6.05c-4.71-2.06-9.13-4.6-13.23-7.69l12.14,9.38c-3.8-2.95-7.19-6.28-10.21-10.03,3.13,4.05,6.25,8.1,9.38,12.14-2.41-3.13-4.45-6.43-6.06-10.04l6.05,14.33c-1.21-2.94-2.08-5.93-2.55-9.08l2.14,15.95c-.33-2.81-.31-5.58.04-8.39l-2.14,15.95c.48-3.09,1.32-6.02,2.52-8.91l-6.05,14.33c1.42-3.19,3.19-6.13,5.3-8.9l-9.38,12.14c2.41-3.04,5.13-5.73,8.16-8.14l-12.14,9.38c3.36-2.56,6.95-4.67,10.83-6.33l-14.33,6.05c3.96-1.59,8.03-2.59,12.25-3.19l-15.95,2.14c5.75-.71,11.46-.61,17.2.14l-15.95-2.14c7.75,1.13,15.21,3.37,22.45,6.34-4.78-2.02-9.56-4.03-14.33-6.05,6.61,2.79,13.24,5.97,18.97,10.34l-12.14-9.38c1.79,1.44,3.4,2.98,4.86,4.76-3.13-4.05-6.25-8.1-9.38-12.14.97,1.29,1.79,2.62,2.5,4.07l-6.05-14.33c.7,1.65,1.16,3.28,1.44,5.05l-2.14-15.95c.19,1.83.16,3.58-.06,5.4l2.14-15.95c-.38,2.21-.99,4.3-1.81,6.39l6.05-14.33c-2,4.67-4.79,8.86-7.86,12.89l9.38-12.14c-13.19,16.95-27.98,32.97-44.94,46.2l12.14-9.38c-9.78,7.54-20.28,14.04-31.64,18.93,4.78-2.02,9.56-4.03,14.33-6.05-8.43,3.55-17.19,6.23-26.26,7.5l15.95-2.14c-8.17,1.07-16.4,1.06-24.58.03l15.95,2.14c-8.12-1.09-16.03-3.16-23.6-6.29l14.33,6.05c-6.31-2.68-12.25-6.06-17.7-10.22,4.05,3.13,8.1,6.25,12.14,9.38-4.41-3.46-8.39-7.37-11.84-11.8l9.38,12.14c-3.08-4.05-5.64-8.4-7.66-13.08l6.05,14.33c-1.98-4.78-3.33-9.72-4.1-14.84l2.14,15.95c-.8-5.94-.78-11.89-.05-17.84l-2.14,15.95c.96-7.01,2.86-13.79,5.59-20.32l-6.05,14.33c2.83-6.55,6.43-12.69,10.74-18.38l-9.38,12.14c3.63-4.67,7.64-9.05,12.31-12.69l-12.14,9.38c2.38-1.76,4.84-3.26,7.55-4.45l-14.33,6.05c1.65-.65,3.29-1.14,5.03-1.46l-15.95,2.14c1.73-.23,3.37-.25,5.11-.05l-15.95-2.14c1.39.26,2.68.64,3.99,1.17l-14.33-6.05c1.23.6,2.36,1.29,3.47,2.1l-12.14-9.38c2.44,1.96,4.47,4.27,6.38,6.73l-9.38-12.14c4.92,6.46,9.02,13.45,12.23,20.92l-6.05-14.33c2.59,6.23,4.51,12.68,5.43,19.38-.71-5.32-1.43-10.63-2.14-15.95.55,4.53.62,9.04.02,13.57l2.14-15.95c-.49,3.2-1.3,6.27-2.51,9.27,2.02-4.78,4.03-9.56,6.05-14.33-1.17,2.73-2.63,5.25-4.4,7.63l9.38-12.14c-1.79,2.28-3.79,4.29-6.04,6.12l12.14-9.38c-2.93,2.25-6.07,4.04-9.46,5.52l14.33-6.05c-6.02,2.49-12.35,3.86-18.8,4.73l15.95-2.14c-22.36,2.83-45.4,2.01-67.7-.92l15.95,2.14c-25.38-3.44-50.19-10.14-73.81-20.04l14.33,6.05c-9.31-3.95-18.19-8.78-26.24-14.93l12.14,9.38c-4.72-3.69-9.06-7.79-12.78-12.51l9.38,12.14c-2.54-3.34-4.68-6.88-6.32-10.75l6.05,14.33c-1.2-3.02-2.03-6.09-2.49-9.3l2.14,15.95c-.35-3.03-.34-6.02.02-9.05l-2.14,15.95c.43-2.96,1.21-5.79,2.34-8.56l-6.05,14.33c1.31-2.98,2.95-5.72,4.93-8.31l-9.38,12.14c2.26-2.82,4.81-5.3,7.64-7.53-4.05,3.13-8.1,6.25-12.14,9.38,3.43-2.6,7.12-4.74,11.06-6.47l-14.33,6.05c4.3-1.8,8.72-3.05,13.33-3.74l-15.95,2.14c5.07-.67,10.1-.56,15.18.07l-15.95-2.14c7.09,1,13.89,3.04,20.49,5.8l-14.33-6.05c11.51,4.98,22.03,11.89,31.94,19.51l-12.14-9.38c7.26,5.65,14.05,11.87,19.77,19.1l-9.38-12.14c3.35,4.34,6.22,8.96,8.37,14.01-2.02-4.78-4.03-9.56-6.05-14.33,1.37,3.4,2.35,6.87,2.89,10.49l-2.14-15.95c.41,3.32.43,6.6.03,9.92l2.14-15.95c-.46,3.15-1.3,6.15-2.53,9.09l6.05-14.33c-1.28,2.87-2.87,5.51-4.76,8.02l9.38-12.14c-2.33,2.96-4.98,5.56-7.93,7.9l12.14-9.38c-3.54,2.7-7.35,4.9-11.43,6.67l14.33-6.05c-4.43,1.84-9.01,3.12-13.76,3.83l15.95-2.14c-4.57.6-9.07.6-13.64.06l15.95,2.14c-6.32-.86-12.39-2.59-18.26-5.05l14.33,6.05c-7.55-3.28-14.5-7.61-21.02-12.61,4.05,3.13,8.1,6.25,12.14,9.38-11.36-8.88-21.21-19.54-30.02-30.92l9.38,12.14c-11.38-14.86-20.75-31.13-28.05-48.36l6.05,14.33c-7.76-18.55-13.06-38.01-15.82-57.93l2.14,15.95c-2.66-19.91-2.76-40.07-.1-59.98l-2.14,15.95c1.76-12.75,4.16-26.17,8.99-38.16l-6.05,14.33c1.09-2.54,2.39-4.93,4.07-7.14l-9.38,12.14c.92-1.11,1.89-2.1,3.01-3l-12.14,9.38c.67-.47,1.32-.87,2.06-1.24l-14.33,6.05c1-.42,1.95-.68,3.03-.82l-15.95,2.14c.54-.05,1.09-.05,1.63,0l-15.95-2.14c.99.14,1.83.36,2.77.7l-14.33-6.05c.94.45,1.75.93,2.61,1.52-4.05-3.13-8.1-6.25-12.14-9.38,3.83,3.03,6.9,7.07,10.03,10.78,3.41,4.04,6.72,8.16,9.95,12.34l-9.38-12.14c12.56,16.37,24.81,33.88,32.99,52.91-2.02-4.78-4.03-9.56-6.05-14.33,2.96,7.07,5.28,14.37,6.42,21.96-.71-5.32-1.43-10.63-2.14-15.95.65,4.84.79,9.65.21,14.5l2.14-15.95c-.53,3.75-1.47,7.33-2.9,10.83l6.05-14.33c-1.32,3.01-2.94,5.82-4.92,8.45,3.13-4.05,6.25-8.1,9.38-12.14-1.98,2.49-4.21,4.68-6.71,6.65,4.05-3.13,8.1-6.25,12.14-9.38-2.78,2.08-5.74,3.78-8.92,5.18l14.33-6.05c-4.07,1.7-8.28,2.81-12.65,3.43l15.95-2.14c-4.44.54-8.85.55-13.29.03l15.95,2.14c-4.42-.6-8.69-1.71-12.83-3.39l14.33,6.05c-4.49-1.92-8.63-4.43-12.51-7.39l12.14,9.38c-4.44-3.5-8.35-7.51-11.83-11.96l9.38,12.14c-4.29-5.63-7.76-11.75-10.56-18.25l6.05,14.33c-3.56-8.52-5.78-17.41-7.09-26.54l2.14,15.95c-2.07-15.6-1.51-31.33-.39-46.98.97-13.52,2.11-27.05,3.89-40.49l-2.14,15.95c2.55-18.84,6.48-37.58,13.81-55.2l-6.05,14.33c4.2-9.88,9.44-19.22,15.99-27.73l-9.38,12.14c2.61-3.32,5.31-6.61,8.54-9.34-4.05,3.13-8.1,6.25-12.14,9.38,1.4-1.08,2.82-1.98,4.44-2.7l-14.33,6.05c1.01-.36,1.94-.61,3-.8l-15.95,2.14c1.13-.09,2.13-.09,3.26.02l-15.95-2.14c1.47.26,2.81.66,4.2,1.21l-14.33-6.05c2.71,1.24,5.12,2.87,7.48,4.67-4.05-3.13-8.1-6.25-12.14-9.38,5.36,4.22,10.12,9.05,14.3,14.44l-9.38-12.14c4.52,5.95,8.24,12.4,11.17,19.27l-6.05-14.33c2.98,7.21,5.03,14.71,6.1,22.45l-2.14-15.95c.94,7.41.96,14.84-.02,22.24l2.14-15.95c-.77,5.31-1.93,10.58-4.02,15.54l6.05-14.33c-.86,1.89-1.85,3.65-3.05,5.34l9.38-12.14c-1.07,1.37-2.21,2.57-3.53,3.69l12.14-9.38c-1.64,1.25-3.35,2.24-5.25,3.07l14.33-6.05c-2.27.88-4.55,1.45-6.95,1.83l15.95-2.14c-4.33.55-8.64.42-12.96-.14l15.95,2.14c-5.17-.75-10.17-2.14-15.01-4.12l14.33,6.05c-5.37-2.3-10.36-5.25-15.02-8.78l12.14,9.38c-5.43-4.22-10.24-9.1-14.47-14.53l9.38,12.14c-4.61-6.06-8.41-12.63-11.37-19.65l6.05,14.33c-2.76-6.74-4.7-13.72-5.71-20.93l2.14,15.95c-1.15-8.98-1.06-18,.06-26.97l-2.14,15.95c1.64-12.11,5.1-23.82,9.85-35.06l-6.05,14.33c6.59-15.32,15.4-29.51,25.56-42.71l-9.38,12.14c12.41-15.97,26.76-30.32,42.76-42.7-4.05,3.13-8.1,6.25-12.14,9.38,15.18-11.64,31.7-21.41,49.3-28.91l-14.33,6.05c16.6-6.98,33.97-11.85,51.81-14.31l-15.95,2.14c17.63-2.33,35.46-2.34,53.1-.03l-15.95-2.14c16.85,2.3,33.32,6.71,49.01,13.29l-14.33-6.05c13.95,5.95,27.03,13.56,39.07,22.78-4.05-3.13-8.1-6.25-12.14-9.38,15.35,11.87,28.7,25.99,40.59,41.29l-9.38-12.14c21.18,27.45,37.63,58.08,54.68,88.15,19.46,34.33,40.49,68.03,67.24,97.25,15.43,16.86,34.29,30.42,48.38,48.52l-9.38-12.14c7.93,10.42,13.89,22.08,19.49,33.87,5.71,12.04,11.37,24.11,16.57,36.38l-6.05-14.33c7.96,18.91,14.67,38.42,17.56,58.81l-2.14-15.95c1.47,10.92,1.89,21.94.46,32.89l2.14-15.95c-.93,6.49-2.5,12.8-4.96,18.88,2.02-4.78,4.03-9.56,6.05-14.33-1.98,4.67-4.43,9.04-7.46,13.11l9.38-12.14c-4.27,5.48-9.38,10.09-14.86,14.34,4.05-3.13,8.1-6.25,12.14-9.38-17.26,13.18-35.56,25.26-53.64,37.27-18.22,12.1-36.81,23.67-56.13,33.93-10.84,5.76-21.9,11.08-33.2,15.87l14.33-6.05c-28.31,11.89-57.96,19.72-88.37,23.87l15.95-2.14c-51.54,6.88-103.76,3.7-155.12-3.18l15.95,2.14c-23.85-3.22-47.58-7.23-71.26-11.55-22.75-4.15-45.67-8.42-67.08-17.44l14.33,6.05c-10.75-4.63-20.84-10.48-30.14-17.58l12.14,9.38c-10.73-8.31-20.18-18.06-28.47-28.78l9.38,12.14c-12.4-16.19-22.04-34.24-29.96-52.99l6.05,14.33c-14.27-34.06-23.4-70.36-30.56-106.51-2.27-11.45-4.23-22.97-5.8-34.54l2.14,15.95c-3.99-29.91-5.3-60.28-1.36-90.26l-2.14,15.95c2.59-19.08,7.34-37.79,14.77-55.57-2.02,4.78-4.03,9.56-6.05,14.33,17.61-41.47,51.39-72.48,72.47-111.85,8.38-15.65,13.79-32.52,20.61-48.84-2.02,4.78-4.03,9.56-6.05,14.33,2.05-4.78,4.43-9.33,7.56-13.5l-9.38,12.14c2.57-3.25,5.49-6.06,8.74-8.63-4.05,3.13-8.1,6.25-12.14,9.38,10.33-7.88,22.59-13.41,34.48-18.48l-14.33,6.05c22.42-9.45,45.98-15.87,70.09-19.18l-15.95,2.14c21.78-2.89,43.81-3.22,65.66-.86,8.26.31,15.97-1.41,23.12-5.17,7.44-2.42,13.88-6.56,19.31-12.41,5.85-5.43,9.99-11.87,12.41-19.31,3.76-7.15,5.48-14.86,5.17-23.12-.7-15.52-5.79-31.61-17.57-42.43l-12.14-9.38c-9.36-5.43-19.45-8.16-30.28-8.19h0Z"/>
  </g>
  <g class="cls-7">
    <path class="cls-4" d="m1535.53,1973.96c1.34,6.47,2.45,12.98,3.34,19.53l-2.14-15.95c2.41,17.94,3.18,36.06,2.83,54.14-.35,18.13-1.79,36.23-3.77,54.25-1.13,10.27-2.43,20.52-3.8,30.76l2.14-15.95c-3.43,25.56-6.74,51.22-11.67,76.54-1.41,7.22-2.98,14.41-4.75,21.55-2.5,7.98-2.86,15.95-1.07,23.93.36,7.98,2.74,15.42,7.12,22.31l9.38,12.14c7.49,7.44,16.31,12.58,26.48,15.43,14.98,2.43,30.04,4.45,45.12,6.19,9.92,1.15,19.87,2.06,29.84,2.74,19.93,1.36,39.93,1.78,59.9,1.27,5.08-.13,10.16-.32,15.23-.57,2.49-.12,4.99-.26,7.48-.42,7.37-.45,14.68-1.54,21.98-2.66.96-.15,1.91-.35,2.84-.64.46-.14.9-.32,1.34-.5,3.47-1.4,11.18-4.52,14.52-6.13.31-.15.61-.29.9-.46,2.49-1.44,5.34-4.01,7.09-5.36,1.36-1.05,4.97-3.5,6.97-5.47,4.17-4.11,7.78-8.91,10.79-13.94.21-.35.38-.7.55-1.07,1.15-2.41,5.19-12.04,6.11-14.49.08-.21.17-.42.24-.64,1.73-5.15,2.68-18.55,2.64-18.15.09-.84.14-1.67.11-2.52-.01-.43-.05-.87-.09-1.3-.57-5.63-1.44-11.48-2.29-17.08-.58-3.83-2.02-7.42-3.44-11-3.51-8.8-7.09-17.59-11.06-26.19-1.85-4.02-3.89-7.95-6.25-11.69-1.18-1.87-2.45-3.67-3.79-5.42-4.23-5.54-8.28-11.45-13.15-16.51-1.41-1.47-2.91-2.85-4.49-4.13-4.61-3.75-9.34-7.43-14.14-10.92-.85-.62-1.72-1.2-2.6-1.76-1.71-1.07-3.49-2-5.33-2.82-5.63-2.51-12.96-6.14-19.58-7.88-.93-.24-1.86-.45-2.81-.61-5.59-.96-11.34-1.6-16.97-2.3-.54-.07-1.09-.14-1.64-.18-1.82-.15-3.65-.11-5.47,0-3.38.2-6.76.59-10.15.65-1.61.03-3.22-.02-4.83-.22l15.95,2.14c-1.41-.2-2.78-.51-4.09-1.06,4.78,2.02,9.56,4.03,14.33,6.05-.78-.35-1.51-.77-2.2-1.29,4.05,3.13,8.1,6.25,12.14,9.38-.52-.43-.99-.89-1.42-1.41l9.38,12.14c-.5-.65-.91-1.35-1.25-2.1,2.02,4.78,4.03,9.56,6.05,14.33-.35-.86-.58-1.72-.71-2.63l2.14,15.95c-.13-1.23-.08-2.44.08-3.66l-2.14,15.95c.77-4.97,2.73-9.8,4.14-14.62s2.79-9.84,4.06-14.8c2.54-9.91,4.75-19.91,6.62-29.96,2.84-15.24,4.9-30.65,6.72-46.04,1.2-10.16,2.07-20.36,2.59-30.58.59-11.56.74-23.14.46-34.71l-75.95,57.86c6.08,1.22,12.15,2.43,18.23,3.65-11.95-29.38-23.91-58.76-35.86-88.14-1.29,2.57-2.59,5.15-3.88,7.72-4.38,6.89-6.76,14.32-7.12,22.31-1.79,7.98-1.43,15.95,1.07,23.93,1.86,7.81,5.44,14.61,10.74,20.4,4.23,6.53,9.84,11.68,16.83,15.45,4.78,2.02,9.56,4.03,14.33,6.05,10.63,2.86,21.27,2.86,31.9,0,4.78-2.02,9.56-4.03,14.33-6.05,9.02-5.33,16.19-12.51,21.53-21.53,1.29-2.57,2.59-5.15,3.88-7.72,5.43-9.36,8.16-19.45,8.19-30.28.31-8.26-1.41-15.97-5.17-23.12-2.42-7.44-6.56-13.88-12.41-19.31-7.49-7.44-16.31-12.58-26.48-15.43-6.08-1.22-12.15-2.43-18.23-3.65-10.63-2.86-21.27-2.86-31.9,0-7.81,1.86-14.61,5.44-20.4,10.74-6.53,4.23-11.68,9.84-15.45,16.83-5.43,9.36-8.16,19.45-8.19,30.28.46,18.78-.23,37.58-2.07,56.28-.53,5.34-1.15,10.67-1.86,15.99l2.14-15.95c-2.53,18.78-6.2,37.41-11.01,55.74-1.21,4.62-2.5,9.23-3.86,13.81-.67,2.25-1.35,4.5-2.06,6.74-1.49,4.76-1.97,9.06-2.65,14.17-.39,2.87-1.44,7.47-1.21,10.96.01.23.04.45.06.68l1.07,7.98c.35,2.81.73,5.62,1.14,8.42.12.6.27,1.18.47,1.76.87,2.47,3.05,7.24,3.2,7.6.05.13,2,5.13,3.16,7.46.16.33.33.65.52.95s.39.57.6.85c1.42,1.92,7.93,10.49,9.47,12.26.16.18.31.36.48.54.23.24.48.45.73.67,1.8,1.55,10.3,8.04,12.25,9.47.11.08.22.17.34.25.59.41,1.21.74,1.86,1.04,3.89,1.8,10.62,4.64,14.6,6.16.14.05.27.11.41.15.33.12.66.22.99.31.69.19,1.4.32,2.11.44,5.52.87,11.34,1.68,16.9,2.26.43.05.87.08,1.31.1.9.05,1.81.06,2.71.05,1.88-.03,3.75-.16,5.63-.31,3.94-.31,7.86-.69,11.8-.17l-15.95-2.14c3,.43,5.9,1.27,8.69,2.44-4.78-2.02-9.56-4.03-14.33-6.05,3.33,1.44,6.44,3.3,9.32,5.5-4.05-3.13-8.1-6.25-12.14-9.38,3.47,2.7,6.54,5.82,9.25,9.28l-9.38-12.14c5.24,6.79,9.03,14.51,12.36,22.38l-6.05-14.33c2.45,5.82,5.37,11.85,6.22,18.16l-2.14-15.95c.17,1.46.22,2.91.05,4.38l2.14-15.95c-.15,1.04-.4,2.03-.8,3l6.05-14.33c-.34.74-.74,1.42-1.24,2.06l9.38-12.14c-.49.59-1.02,1.1-1.61,1.57l12.14-9.38c-.66.48-1.35.88-2.1,1.22,4.78-2.02,9.56-4.03,14.33-6.05-1.55.65-3.15,1-4.81,1.22l15.95-2.14c-4.01.5-8.08.6-12.11.81-4.3.22-8.6.39-12.91.52-8.44.26-16.88.35-25.31.27-16.88-.15-33.75-.98-50.56-2.46-9.61-.85-19.19-1.92-28.75-3.2l15.95,2.14c-5.8-.78-11.6-1.64-17.38-2.58l41.91,73.81c4.12-16.62,7.1-33.48,9.68-50.4,3.33-21.85,6.24-43.77,9.16-65.67,4.45-33.38,8.07-67.03,7.27-100.75-.23-9.46-.81-18.91-1.82-28.31-1.57-14.56-3.48-29.18-6.46-43.53-1.86-7.81-5.44-14.61-10.74-20.4-4.23-6.53-9.84-11.68-16.83-15.45-6.89-4.38-14.32-6.76-22.31-7.12-7.98-1.79-15.95-1.43-23.93,1.07-4.78,2.02-9.56,4.03-14.33,6.05-9.02,5.33-16.19,12.51-21.53,21.53-2.02,4.78-4.03,9.56-6.05,14.33-2.86,10.63-2.86,21.27,0,31.9h0Z"/>
  </g>
  <g class="cls-7">
    <path class="cls-4" d="m1994.88,2094.92c-4.15-1.61-7.94-1.81-12.52-2.42-4.19-.56-8.38-1.43-12.61-1.3-7.69.24-16.19,1.37-23.52,3.97-20.28,7.2-36.44,19.43-48.18,37.65-8.72,13.53-13.49,31.55-12.52,47.61,1.38,23,10.14,41.96,25.01,59.32,11.24,13.12,26.52,21.31,42.49,27.09,18.89,6.84,39.68,5.24,57.88-2.44,26.09-11.01,43.08-36.25,43.28-64.7.09-12.43-3.28-25.18-9.59-35.92-2.99-5.09-6.79-9.85-11.02-14-9.73-9.52-16.28-11.53-28.75-16.61-10.63-2.86-21.27-2.86-31.9,0-10.16,2.85-18.99,7.99-26.48,15.43-4.19,3.63-8.42,7.2-12.79,10.61l12.14-9.38c-6.58,5.02-13.42,9.52-20.98,12.94l14.33-6.05c-4.98,2.07-9.98,3.53-15.33,4.26l15.95-2.14c-3.69.34-7.28.34-10.96-.06l15.95,2.14c-4.2-.61-8.17-1.69-12.09-3.3l14.33,6.05c-3.82-1.71-7.33-3.81-10.7-6.28l12.14,9.38c-5.17-4.02-9.61-8.68-13.65-13.82l9.38,12.14c-7.39-9.75-13.03-20.57-17.85-31.78l6.05,14.33c-6.94-16.5-12.43-33.7-17.82-50.76-6.13-19.42-11.31-39.13-14.21-59.31l2.14,15.95c-.85-6.32-1.47-12.66-1.84-19.03l-60,60c5.08-.28,10.04-.12,15.1.47l-15.95-2.14c6.47.95,12.67,2.59,18.75,4.97l-14.33-6.05c3.33,1.41,6.53,2.99,9.68,4.78,18.71,10.64,41.88,10.94,60.57,0,17.88-10.46,30.26-30.83,29.72-51.81-.27-10.39.35-20.71,1.65-31.02l-2.14,15.95c4.73-34.85,16.86-67.97,26.95-101.49,10.89-36.23,20.04-75.46,16.26-113.47-1.78-17.88-3.79-35.59-13.25-51.37-8.83-14.73-21.73-26.96-36.8-35.2-15.97-8.73-33.43-15.18-49.93-22.84-35.66-16.55-70.89-34.02-105.64-52.41-19.86-10.51-39.56-21.31-59.09-32.4-9.77-5.55-19.49-11.17-29.18-16.86-8.78-5.16-17.92-10.03-26.01-16.24,4.05,3.13,8.1,6.25,12.14,9.38-2.54-2.1-4.79-4.3-6.86-6.86,3.13,4.05,6.25,8.1,9.38,12.14-1.59-2.24-2.84-4.49-3.92-7.02l6.05,14.33c-1.17-3.34-1.9-6.65-2.38-10.15l2.14,15.95c-1.18-11.65-.76-23.5-1.09-35.19-.36-12.9-.89-25.8-1.57-38.7-1.34-25.37-3.3-50.7-5.87-75.97-3.24-31.87-4.67-64.67-19.35-93.75-8.54-16.92-23.08-30.08-38.62-40.41-11.59-7.7-25.24-12.65-38.27-17.28-10.7-3.81-21.62-7.57-32.84-9.53-20.18-3.52-40.9-4.91-60.61,2.17-28.82,10.36-51.88,30.65-74.64,50.55-32.02,27.99-61.13,59.14-87.2,92.73-29.08,37.47-55.3,76.55-76.56,119.02-4.72,9.42-9.23,18.95-13.45,28.6-8.42,19.24-16.93,38.66-15.9,60.29,1.2,25.19,10.81,46.38,27.82,64.72,10.15,10.94,23.06,19.71,35.09,28.39,37.03,26.7,80.3,44.86,123.47,59.03,40.4,13.26,81.97,22.49,123.32,32.21,45.1,10.61,89.65,22.82,133.57,37.62,46.84,15.79,92.93,33.7,138.83,52.01,11.29,4.5,22.57,9.03,33.84,13.56,12.95,5.2,34.83,1.3,46.23-6.05,11.14-7.18,19.37-16.42,24.55-28.69,5.03-11.92,7.12-26.41,3.02-39.07-5.01-15.47-14.11-26.65-27.57-35.86-91.36-62.53-191.81-107.31-296.85-141.44-25.7-8.35-51.39-16.82-76.35-27.24l14.33,6.05c-24.99-10.56-49.09-23.17-70.71-39.68,4.05,3.13,8.1,6.25,12.14,9.38-11.51-8.94-22.74-18.81-31.7-30.36l9.38,12.14c-2.41-3.3-4.48-6.67-6.21-10.38l6.05,14.33c-1.32-3.25-2.2-6.42-2.74-9.88l2.14,15.95c-.27-3.02-.25-5.91.02-8.92l-2.14,15.95c.87-6.1,2.69-11.79,5.03-17.47l-6.05,14.33c10.48-23.98,24.18-46.96,37.97-69.16s28.89-43.92,44.92-64.75c-3.13,4.05-6.25,8.1-9.38,12.14,12.64-16.33,25.49-34.98,41.92-47.73-4.05,3.13-8.1,6.25-12.14,9.38,3.44-2.47,6.99-4.47,10.9-6.14l-14.33,6.05c4.73-1.78,9.48-2.93,14.47-3.7l-15.95,2.14c19.31-2.48,39.28-.82,58.71-.93s40.13-.54,60.18-1.28c40.94-1.5,81.82-4.31,122.58-8.4,44.29-4.45,88.53-10.19,132.45-17.45,35.36-5.85,70.57-13.13,104.81-23.84,42.08-13.16,83.68-30.93,120.23-55.8-27.36-7.18-54.73-14.35-82.09-21.53,15.06,32.54,35.73,62.19,59.31,89.13,23.09,26.38,50.89,46.59,78.55,67.83l-12.14-9.38c12.04,9.32,23.79,19.15,33.27,31.15-3.13-4.05-6.25-8.1-9.38-12.14,3.78,4.96,7.04,10.16,9.61,15.86-2.02-4.78-4.03-9.56-6.05-14.33,1.93,4.6,3.29,9.29,4.05,14.22l-2.14-15.95c.48,4.01.54,7.91.21,11.94,34.14-14.14,68.28-28.28,102.43-42.43-44.22-50.5-98.5-94.1-157.59-126.02-34.8-18.8-75.32-34.96-115.71-31.82-23.68,1.84-45.53,6.99-66.45,18.67-19.59,10.93-36.29,27.82-47.64,47.1-10.16,17.25-16.26,36.89-21.48,56.11-4.5,16.6-8.98,33.21-13.33,49.85-8.89,34.07-17.18,68.32-23.59,102.96-7.2,38.88-12.59,78.4-14.21,117.94-.51,12.49-.82,24.9,2.32,37.2,4.75,18.6,17.41,36.9,34.65,46.04,26.02,13.79,57.95,12.05,82.23-4.89,23.41-16.34,38.61-38.55,45.04-66.51,4.62-20.08,6.23-41.05,5.25-61.61-1.57-32.95-8.57-65.9-4.39-98.93l-2.14,15.95c1.39-9.8,3.79-19.25,7.57-28.42l-6.05,14.33.8-1.83c2.02-4.78,4.03-9.56,6.05-14.33,2.5-7.98,2.86-15.95,1.07-23.93-1.69-12.59-6.86-25.6-16.5-34.45-7.66-7.03-16.58-12.23-26.48-15.43-13.33-4.31-34.54-2.08-46.23,6.05-2.59,1.8-5.23,3.33-8.08,4.65,4.78-2.02,9.56-4.03,14.33-6.05-3.98,1.65-7.96,2.75-12.21,3.42l15.95-2.14c-5.58.68-11.07.55-16.63-.18l15.95,2.14c-7.1-1.13-13.89-3.14-20.56-5.81l14.33,6.05c-11.05-4.67-21-10.96-30.5-18.25l12.14,9.38c-16.28-12.65-31.8-26.43-49.01-37.84-21.35-14.16-45.23-21.8-70.61-24.09-42.07-3.79-83.58,16.83-116.37,41.33-10.35,7.74-20.73,15.59-30.65,23.9-13.37,11.18-22.66,25.77-28.37,42.14-9.15,26.28-3.69,59.74,12.64,82.14,9.94,13.62,20.04,23.84,34.56,32.98,10.45,6.58,22.49,11.24,34.3,14.79,20.88,6.26,43.89,8.91,65.68,8.41,22.29-.51,45.36-3.84,66.56-10.89,31.36-10.42,62.85-26.12,73.1-60.37,9.68-32.34-2.57-64.5-23.6-89.02-13.15-15.33-32.66-25.76-51.65-31.74-39.35-12.39-85.63-2.2-115.12,26.79-30.87,30.35-40.77,79.18-27.76,120.01,6.93,21.76,19.07,43.72,36.77,58.59,13.89,11.67,24.94,18,41.8,24.47,11.43,4.39,23.65,5.82,35.81,6.9,25.14,2.22,49.84-5.46,72.24-16.03,22.6-10.66,40.36-29.01,54.42-49.23,10.73-15.43,9.97-36.94,3.02-53.4-2.42-7.44-6.56-13.88-12.41-19.31-7.49-7.44-16.31-12.58-26.48-15.43-14.36-2.1-23.16-3.26-37.59-.12-6.87,1.49-13.4,4.43-19.64,7.66-12.76,6.61-24.03,18.35-31.5,30.49-15.09,24.55-17.81,60.85-.56,85.24,5.91,8.35,12.55,16.28,21.53,21.53,11.67,6.83,25.02,8.9,38.26,7.12,23.37-3.14,43.45-19.86,49.88-42.98,13.38-48.09,27.9-96.78,47.28-142.84l-6.05,14.33c4.84-11.23,10.44-22.02,17.79-31.83l-9.38,12.14c5.35-6.83,11.41-12.79,18.21-18.18-4.05,3.13-8.1,6.25-12.14,9.38,12.39-9.46,26.17-16.66,40.04-23.67,14.72-7.44,29.48-14.78,44.67-21.21-4.78,2.02-9.56,4.03-14.33,6.05,17.57-7.29,35.63-13.17,54.5-15.89l-15.95,2.14c12.85-1.66,25.65-1.72,38.5-.06l-15.95-2.14c14.54,2.09,28.54,6.23,42.1,11.85l-14.33-6.05c36.62,15.6,68.18,40.45,99.52,64.52,7.6,5.83,15.1,12.54,23.56,17.06,24.64,13.15,55.74,14.37,79.45-1.9,20.22-13.87,36.38-33.74,52.52-52,58.48-66.17,110.53-138.53,153.65-215.62,25.22-45.09,46.9-91.84,66.59-139.58,5.52-13.38.9-34.36-6.05-46.23-7.28-12.45-21.55-24.32-35.86-27.57-15.36-3.5-32.6-2.74-46.23,6.05l-12.14,9.38c-7.44,7.49-12.58,16.31-15.43,26.48-1.39,3.38-2.8,6.75-4.22,10.12,2.02-4.78,4.03-9.56,6.05-14.33-30.36,71.68-67.8,140.28-111.75,204.54-12.58,18.4-25.7,36.42-39.3,54.08l9.38-12.14c-14.07,18.21-28.65,36.03-43.76,53.4-7.44,8.54-15,16.98-22.68,25.3-7.48,8.1-14.79,17.07-23.47,23.91l12.14-9.38c-1.56,1.08-3.03,1.96-4.74,2.79,4.78-2.02,9.56-4.03,14.33-6.05-1.11.48-2.26.83-3.45,1.05l15.95-2.14c-1.28.23-2.58.29-3.88.17l15.95,2.14c-2.15-.34-3.87-.84-5.89-1.64,4.78,2.02,9.56,4.03,14.33,6.05-8.28-4.13-15.54-10.65-22.85-16.26-7.46-5.72-14.9-11.47-22.4-17.13-14.97-11.29-30.21-22.28-46.29-31.95-19.62-11.79-40.91-21.71-62.73-28.63-8.56-2.72-17.3-4.68-26.18-5.97-14.01-2.04-27.89-3.99-42.06-3.25-51.18,2.65-96.82,23.7-141.85,46.46-21.4,10.82-41.84,22.85-59.55,39.31-21.55,20.04-33.9,45.57-44.9,72.22-18.81,45.56-33.24,93.4-46.44,140.85,36.55-4.78,73.11-9.56,109.66-14.33-.86-1.22-1.54-2.36-2.19-3.7,2.02,4.78,4.03,9.56,6.05,14.33-.69-1.78-1.12-3.49-1.39-5.38l2.14,15.95c-.13-1.9-.06-3.71.19-5.6l-2.14,15.95c.37-1.9.88-3.69,1.57-5.5l-6.05,14.33c1-2.25,2.17-4.28,3.62-6.27-3.13,4.05-6.25,8.1-9.38,12.14,1.54-1.89,3.18-3.52,5.1-5.02-4.05,3.13-8.1,6.25-12.14,9.38,1.57-1.08,3.15-1.96,4.9-2.71-4.78,2.02-9.56,4.03-14.33,6.05,1.36-.47,2.62-.8,4.03-1.06l-15.95,2.14c1.46-.15,2.77-.18,4.24-.09l-15.95-2.14,1.45.21c-11.95-29.38-23.91-58.76-35.86-88.14-1,1.43-2.01,2.83-3.08,4.21l9.38-12.14c-4.02,5-8.52,9.45-13.53,13.46l12.14-9.38c-6.03,4.63-12.5,8.42-19.48,11.46,4.78-2.02,9.56-4.03,14.33-6.05-6.99,2.88-14.18,4.88-21.67,5.98l15.95-2.14c-6.85.85-13.64.9-20.5.05l15.95,2.14c-5.68-.84-11.13-2.27-16.47-4.37l14.33,6.05c-5.05-2.14-9.72-4.77-14.1-8.07l12.14,9.38c-4.1-3.26-7.72-6.91-10.99-10.99,3.13,4.05,6.25,8.1,9.38,12.14-3.83-5.02-6.93-10.4-9.42-16.2l6.05,14.33c-2.36-5.85-4-11.84-4.91-18.09l2.14,15.95c-.77-6.18-.8-12.31,0-18.49l-2.14,15.95c.79-5.06,2.11-9.91,4.07-14.65l-6.05,14.33c1.89-4.24,4.21-8.16,7.03-11.84-3.13,4.05-6.25,8.1-9.38,12.14,2.48-3.04,5.17-5.73,8.25-8.16l-12.14,9.38c3.4-2.52,7-4.57,10.88-6.26-4.78,2.02-9.56,4.03-14.33,6.05,4.38-1.76,8.86-2.97,13.53-3.7l-15.95,2.14c5.68-.76,11.31-.78,17-.12l-15.95-2.14c5.65.78,11.07,2.21,16.35,4.35l-14.33-6.05c4.27,1.85,8.25,4.1,12.01,6.87-4.05-3.13-8.1-6.25-12.14-9.38,3.26,2.54,6.16,5.36,8.74,8.57-3.13-4.05-6.25-8.1-9.38-12.14,2.23,2.95,4.07,6.05,5.58,9.43-2.02-4.78-4.03-9.56-6.05-14.33,1.28,3.13,2.17,6.25,2.78,9.59l-2.14-15.95c.24,2.25.29,4.2.1,6.46l2.14-15.95c-.19,1.42-.57,2.79-1.14,4.1,2.02-4.78,4.03-9.56,6.05-14.33-.47,1.05-1.04,2.04-1.73,2.97l9.38-12.14c-1.14,1.38-2.25,2.51-3.61,3.67,4.05-3.13,8.1-6.25,12.14-9.38-4.08,3.04-8.62,5.09-13.28,7.09l14.33-6.05c-13.86,5.75-28.25,9.68-43.1,11.85l15.95-2.14c-15.62,2.08-31.29,2.15-46.92.15l15.95,2.14c-11.05-1.56-21.94-3.94-32.32-8.12l14.33,6.05c-5.48-2.36-10.6-5.19-15.38-8.79,4.05,3.13,8.1,6.25,12.14,9.38-3.02-2.45-5.74-5.07-8.21-8.08,3.13,4.05,6.25,8.1,9.38,12.14-2.24-3-4.07-6.1-5.61-9.52,2.02,4.78,4.03,9.56,6.05,14.33-1.38-3.45-2.33-6.89-2.89-10.57l2.14,15.95c-.3-3.03-.3-5.93.05-8.95l-2.14,15.95c.41-2.38,1.01-4.6,1.86-6.87l-6.05,14.33c1.09-2.43,2.37-4.58,3.93-6.74-3.13,4.05-6.25,8.1-9.38,12.14,6.24-7.65,14.59-13.51,22.35-19.51-4.05,3.13-8.1,6.25-12.14,9.38,14.79-11.34,30.2-21.96,47.36-29.4l-14.33,6.05c8.27-3.43,16.73-5.99,25.59-7.31l-15.95,2.14c6.81-.85,13.53-.91,20.35-.1l-15.95-2.14c6.65.98,12.98,2.76,19.22,5.26-4.78-2.02-9.56-4.03-14.33-6.05,11.67,5,22.07,12.13,32.08,19.85-4.05-3.13-8.1-6.25-12.14-9.38,12.85,10.02,25.36,20.39,38.37,30.22,13.06,9.86,27.23,16.43,42.43,22.46,14.35,5.69,30.43,8.67,45.83,8.64,19.68-.04,41.57-5.43,57.88-16.78-27.36-27.36-54.73-54.73-82.09-82.09-4.58,10.48-9.37,20.93-12.08,32.08-2.73,11.21-4.08,22.85-5.13,34.31-1.29,14-.6,28.1.58,42.08,2.37,28.25,6.98,56.62,3.46,84.98l2.14-15.95c-1.25,9.01-3.22,17.96-6.62,26.42l6.05-14.33c-1.33,2.9-2.95,5.51-4.88,8.06,3.13-4.05,6.25-8.1,9.38-12.14-2.42,2.95-5.05,5.51-8.06,7.86,4.05-3.13,8.1-6.25,12.14-9.38-2.5,1.8-5.07,3.31-7.91,4.53l14.33-6.05c-1.75.65-3.47,1.15-5.31,1.49l15.95-2.14c-1.72.2-3.31.21-5.02,0,5.32.71,10.63,1.43,15.95,2.14-.79-.14-1.57-.35-2.32-.63l14.33,6.05c-1.18-.52-2.11-1.06-3.15-1.82,4.05,3.13,8.1,6.25,12.14,9.38-.67-.55-1.28-1.16-1.83-1.83,3.13,4.05,6.25,8.1,9.38,12.14-1.02-1.38-1.68-2.59-2.4-4.16l6.05,14.33c-.46-1.24-.79-2.51-.99-3.82l2.14,15.95c-1.54-12.96.19-26.85,1.14-39.83,1.02-13.82,2.51-27.61,4.34-41.35l-2.14,15.95c5.31-38.91,13.49-77.34,22.91-115.45,4.72-19.1,9.74-38.12,14.85-57.12,4.66-17.35,8.67-35.15,15.55-51.79l-6.05,14.33c2.82-6.49,6.13-12.6,10.29-18.33-3.13,4.05-6.25,8.1-9.38,12.14,3.58-4.63,7.57-8.71,12.12-12.38-4.05,3.13-8.1,6.25-12.14,9.38,5.52-4.2,11.43-7.55,17.81-10.24-4.78,2.02-9.56,4.03-14.33,6.05,7.12-2.82,14.42-4.7,21.99-5.81l-15.95,2.14c9.15-1.16,18.2-1.09,27.35.02l-15.95-2.14c13.55,1.9,26.51,5.86,39.13,11.07l-14.33-6.05c33.98,14.44,65.67,35.28,94.86,57.72l-12.14-9.38c27.3,21.17,52.48,44.86,75.24,70.85l12.14,9.38c4.78,2.02,9.56,4.03,14.33,6.05,13.07,3.6,26.74,2.18,39.07-3.02,9.86-4.16,17.45-10,24-18.48,8.58-11.11,11.72-22.24,12.88-36.35,2.87-34.66-14.91-67.21-37.73-91.81-17.97-19.37-40.63-33.96-61.45-50.02,4.05,3.13,8.1,6.25,12.14,9.38-20.93-16.37-39.69-35.19-56.06-56.11l9.38,12.14c-14.95-19.37-27.67-40.26-37.94-62.46-5.71-12.35-22.88-24.62-35.86-27.57-15.13-3.45-32.94-2.99-46.23,6.05-19.8,13.47-40.93,24.69-62.95,34.08l14.33-6.05c-63.34,26.63-131.79,38.05-199.5,47.21l15.95-2.14c-68.37,9.15-137.19,14.74-206.14,16.6-17.13.46-34.27.7-51.41.71-16.18,0-32.58-1.06-48.68.9-8.09.99-16.45,1.69-24.36,3.83-7.38,2-14.49,5.35-21.38,8.47-10.55,4.78-19.93,12.45-28.25,20.4-11.09,10.6-20.6,23.22-30.1,35.23-22.09,27.95-43.06,56.66-61.73,87.02-8.18,13.3-15.96,26.85-23.32,40.62-9.27,17.34-20.01,35.74-23.61,55.2-3.04,16.45-4.11,32.9.99,49.18,5.23,16.7,13.32,28.82,24.3,42.21,8.44,10.3,18.47,19.29,28.89,27.54,25.08,19.86,51.31,36.05,80.72,48.7,64.45,27.72,132.61,44.99,197.29,72.16l-14.33-6.05c62.98,26.62,123.17,59.48,179.6,98.1,15.41-36.55,30.82-73.11,46.23-109.66-63.89-25.66-127.85-51.34-193.43-72.41-59.57-19.14-120.6-31.66-181.12-47.17-32.1-8.23-63.93-17.7-94.55-30.48l14.33,6.05c-27.66-11.69-54.02-26.14-77.84-44.49l12.14,9.38c-6.49-5.07-12.85-10.24-18-16.72l9.38,12.14c-2-2.77-3.64-5.56-4.97-8.7l6.05,14.33c-.74-2.13-1.26-4.14-1.68-6.35l2.14,15.95c-.44-3.83-.35-7.46.14-11.27l-2.14,15.95c1.1-6.19,3.07-12.01,5.43-17.82l-6.05,14.33c21.08-49.89,49.47-96.88,82.47-139.76-3.13,4.05-6.25,8.1-9.38,12.14,33.11-42.73,71.31-81.63,113.98-114.87-4.05,3.13-8.1,6.25-12.14,9.38,6.13-4.69,12.42-8.99,19.47-12.19l-14.33,6.05c4.05-1.65,8.06-2.8,12.38-3.5l-15.95,2.14c5.39-.61,10.58-.47,15.96.19l-15.95-2.14c15.32,2.36,30.64,7.7,44.92,13.67l-14.33-6.05c6.35,2.76,12.36,5.96,17.89,10.14-4.05-3.13-8.1-6.25-12.14-9.38,3.4,2.74,6.37,5.69,9.05,9.14l-9.38-12.14c2.04,2.86,3.71,5.8,5.18,8.98-2.02-4.78-4.03-9.56-6.05-14.33,3.34,8.02,4.92,16.42,6.1,24.99l-2.14-15.95c4.73,36.52,7.9,73.27,9.91,110.03,1.02,18.71,1.71,37.44,2.06,56.18.23,12.38.96,23.79,2.88,36.16,2.65,17.05,11.56,32.42,22.95,45.15,13.32,14.88,32.95,24.66,50.03,34.62,15.25,8.9,30.6,17.61,46.04,26.15,30.9,17.07,62.2,33.42,93.87,49.02,17.99,8.87,36.1,17.49,54.32,25.88,8.75,4.02,17.52,7.99,26.32,11.9,8.06,3.58,16.3,6.86,23.55,11.97-4.05-3.13-8.1-6.25-12.14-9.38,2.51,1.94,4.71,4.01,6.72,6.47-3.13-4.05-6.25-8.1-9.38-12.14,1.2,1.68,2.14,3.28,3.07,5.13l-6.05-14.33c1.98,4.87,2.89,9.8,3.59,14.98l-2.14-15.95c1.81,15.01,1.41,30.02-.5,45l2.14-15.95c-4.46,32.59-15.48,63.69-25.09,95-10.89,35.48-19.77,72.76-18.8,110.1,30.09-17.27,60.19-34.54,90.28-51.81-22.07-12.56-48.3-19.84-73.81-18.42-15.21.85-31.74,5.93-42.43,17.57-10.41,11.34-18.5,26.54-17.57,42.43,2.85,48.96,16.64,98.18,35.33,143.43,10.11,24.47,20.91,46.62,39.32,66.18,20.34,21.62,49.61,35.15,79.44,35.02,38.41-.16,68.76-21.62,96.56-45.67-19.46,5.14-38.92,10.29-58.38,15.43l1.21.49-14.33-6.05,1.06.69c-4.05-3.13-8.1-6.25-12.14-9.38l.9.86-9.38-12.14c.55.64,1,1.35,1.33,2.12-2.02-4.78-4.03-9.56-6.05-14.33.34.8.58,1.64.71,2.5l-2.14-15.95c.13.89.16,1.79.09,2.69l2.14-15.95c-.2,1.44-.49,2.59-1.01,3.94,2.02-4.78,4.03-9.56,6.05-14.33-.37.83-.85,1.59-1.43,2.29,3.13-4.05,6.25-8.1,9.38-12.14l-.94.97,12.14-9.38c-.91.8-1.91,1.47-3,1.99l14.33-6.05c-1.77.73-3.3,1.16-5.18,1.49l15.95-2.14c-1.92.15-3.66.14-5.58-.01l15.95,2.14c-3.11-.46-5.98-1.25-8.9-2.39,4.78,2.02,9.56,4.03,14.33,6.05-3.38-1.51-6.43-3.33-9.37-5.58,4.05,3.13,8.1,6.25,12.14,9.38-2.35-1.97-4.43-4.08-6.37-6.45l9.38,12.14c-1.8-2.44-3.3-4.92-4.57-7.67l6.05,14.33c-1.11-2.8-1.86-5.54-2.29-8.52l2.14,15.95c-.19-2.36-.18-4.61.1-6.96l-2.14,15.95c.41-2.15,1.01-4.13,1.85-6.15-2.02,4.78-4.03,9.56-6.05,14.33.96-1.97,2.05-3.75,3.34-5.52l-9.38,12.14c1.4-1.69,2.87-3.2,4.53-4.63l-12.14,9.38c2.16-1.67,4.36-3.01,6.84-4.14-4.78,2.02-9.56,4.03-14.33,6.05,1.99-.76,3.93-1.31,6.03-1.67l-15.95,2.14c2.11-.21,4.08-.2,6.18.07l-15.95-2.14c1.61.34,3.02.75,4.55,1.35,13.65,5.3,34.1,1.05,46.23-6.05,12.45-7.28,24.32-21.55,27.57-35.86,3.5-15.36,2.74-32.6-6.05-46.23l-9.38-12.14c-7.49-7.44-16.31-12.58-26.48-15.43h0Z"/>
  </g>
  <path class="cls-3" d="m1650.56,527.41c-59.88,25.28-115.69,59.87-164.4,102.97-49.3,43.64-90.9,97.35-118.09,157.46-28.72,63.46-44.24,133.56-38.44,203.39,3.22,38.76,12.23,76.52,23.73,113.57,10.86,34.98,22.13,71,40.63,102.81,18.88,32.44,46.12,57.61,76.64,78.92,28.89,20.16,60.18,36.08,92.68,49.51,62.99,26.02,131.98,38.55,200.05,38.47,67.91-.08,136.14-13.06,199.66-36.94,66.01-24.81,127.68-59.85,182.38-104.4,14.57-11.86,27.34-24.89,38.76-39.8s19.58-31.95,25.12-49.8c10.94-35.25,10.58-73.09,4.6-109.17-10.81-65.24-47.34-125.14-98.6-166.43-12.6-10.15-25.33-20.15-35.31-33.01l4.69,6.07c-11.29-14.94-18.85-32.08-26.64-48.99-7.5-16.3-15.46-32.4-24.02-48.18-18.1-33.34-39.09-64.97-63.28-94.22-47.43-57.35-111.16-102.87-184.22-120.39-42.23-10.13-86.7-10.91-128.78.46-15.15,4.09-25.93,21.54-20.95,36.9,5.03,15.53,20.67,25.34,36.9,20.95,9.04-2.44,18.21-4.28,27.49-5.53l-7.98,1.07c19.84-2.55,39.87-2.33,59.69.27l-7.98-1.07c23.58,3.22,46.55,9.73,68.5,18.89l-7.17-3.02c24.12,10.2,46.8,23.48,67.57,39.42l-6.07-4.69c26.37,20.43,49.56,44.59,69.97,70.93l-4.69-6.07c24.55,31.88,45.03,66.69,62.81,102.74,9.05,18.35,16.64,37.55,26.83,55.32,6.21,10.83,13.7,21.16,22.28,30.24,7.18,7.6,15.32,14.22,23.45,20.75,17.25,13.86,33.2,28.5,46.86,45.99l-4.69-6.07c13.14,17.02,23.99,35.63,32.41,55.41l-3.02-7.17c8.48,20.22,14.31,41.43,17.23,63.16l-1.07-7.98c2.46,19.07,2.73,38.38.29,57.46l1.07-7.98c-1.93,14.21-5.41,28.11-10.94,41.36l3.02-7.17c-4.5,10.48-10.26,20.21-17.21,29.25l4.69-6.07c-12.26,15.63-27.31,28.64-42.96,40.76l6.07-4.69c-42.34,32.6-88.69,59.86-137.89,80.72l7.17-3.02c-46.55,19.61-95.45,33.38-145.53,40.16l7.98-1.07c-45.5,6.04-91.61,6.13-137.12.14l7.98,1.07c-43.54-5.86-86.23-17.24-126.74-34.26l7.17,3.02c-33.74-14.29-66.25-32.31-95.31-54.71l6.07,4.69c-14.42-11.22-27.78-23.73-39.08-38.13l4.69,6.07c-11.62-15.05-20.54-31.81-27.98-49.25l3.02,7.17c-10.17-24.16-18.14-49.35-25.7-74.44-7.94-26.34-14.64-53.07-18.39-80.35l1.07,7.98c-4.17-31.35-4.02-63.05.12-94.4l-1.07,7.98c4.73-34.81,14.23-68.78,27.79-101.17l-3.02,7.17c14.36-34,33.09-65.96,55.57-95.23l-4.69,6.07c25.75-33.33,55.98-62.95,89.26-88.73l-6.07,4.69c40.24-31,84.63-56.28,131.4-76.03,6.41-2.71,12.04-11.58,13.79-17.93,1.98-7.18,1.08-16.74-3.02-23.12-4.13-6.41-10.28-12.04-17.93-13.79l-7.98-1.07c-5.42.02-10.46,1.38-15.14,4.1h0Z"/>
  <path class="cls-3" d="m1757.83,845.84c-13.04,2.22-25.31,6.83-37.3,12.34-11.92,5.48-22.66,13.06-32.63,21.55-4.05,3.45-7.85,7.21-11.32,11.24-4.94,5.74-9.66,11.83-13.62,18.31-4.06,6.65-7.13,13.86-9.94,21.11-1.76,4.55-3.1,9.25-3.96,14.05-1.29,7.21-2.3,14.63-2.32,21.98-.01,7.37,1.02,14.78,2.24,22.02.8,4.73,2,9.4,3.59,13.93,2.39,6.79,5.22,13.58,8.76,19.87,3.5,6.22,7.95,11.98,12.53,17.41,3.02,3.58,6.4,6.83,10.09,9.72,5.71,4.47,11.25,8.81,17.85,11.87,8.06,3.73,16.21,6.95,24.98,8.44s18.09,2.59,27.23,2.2c3.24-.14,6.48-.43,9.7-.84,5.64-.72,11.3-1.42,16.87-2.57,15-3.09,29.28-8.94,43.17-15.26,11.92-5.43,23.4-11.77,34.78-18.25,9.59-5.45,19.15-10.98,28.28-17.17,6.42-4.35,12.6-9.07,18.63-13.94,4.15-3.35,8.14-6.92,11.84-10.76,5.19-5.39,9.88-11.37,14.12-17.53s7.26-13.16,10.16-20.25c1.92-4.69,3.24-9.6,3.96-14.62,1.13-7.88,2.1-15.3,1.06-23.2-1.01-7.69-1.99-15.01-4.85-22.24-2.85-7.2-5.86-14.26-10.2-20.69-2.78-4.11-5.87-8.03-9.01-11.86-1.69-2.06-3.49-4.04-5.38-5.92-5.5-5.49-11.78-10.34-18.19-14.69-4.34-2.94-8.96-5.45-13.77-7.52-7.72-3.31-15.2-6.31-23.44-7.97s-17.27-2.84-25.96-3.04-17.7.94-26.55,2.16c-12.64,1.74-24.97,5.22-36.81,9.94-7.98,3.18-15.9,6.57-23.57,10.45-3.5,1.89-6.3,4.46-8.42,7.73-2.65,2.9-4.44,6.3-5.37,10.2-1.25,3.99-1.43,7.98-.54,11.96.18,3.99,1.37,7.71,3.56,11.15l4.69,6.07c3.74,3.72,8.16,6.29,13.24,7.72l7.98,1.07c5.42-.02,10.46-1.38,15.14-4.1,4.18-2.12,8.42-4.09,12.73-5.92l-7.17,3.02c12.96-5.46,26.53-9.54,40.48-11.44l-7.98,1.07c10.01-1.33,20.15-1.52,30.17-.19l-7.98-1.07c7.77,1.06,15.43,2.97,22.66,6.02l-7.17-3.02c6.4,2.74,12.41,6.29,17.93,10.52l-6.07-4.69c5.48,4.25,10.43,9.14,14.7,14.61l-4.69-6.07c3.87,5.01,7.13,10.47,9.61,16.3l-3.02-7.17c2.09,5,3.57,10.21,4.32,15.57l-1.07-7.98c.66,4.94.69,9.92.06,14.86l1.07-7.98c-.73,5.38-2.18,10.62-4.28,15.62l3.02-7.17c-2.46,5.78-5.73,11.15-9.55,16.12l4.69-6.07c-6.07,7.82-13.38,14.55-21.19,20.6l6.07-4.69c-8.54,6.59-17.67,12.39-26.96,17.86-10.57,6.23-21.26,12.3-32.15,17.95-6.5,3.37-13.1,6.55-19.84,9.4l7.17-3.02c-12.36,5.2-25.22,9.26-38.53,11.07l7.98-1.07c-8.78,1.16-17.68,1.36-26.47.21l7.98,1.07c-6.46-.88-12.79-2.5-18.81-5.01l7.17,3.02c-4.85-2.06-9.39-4.72-13.57-7.93l6.07,4.69c-4.52-3.5-8.54-7.57-12.05-12.08l4.69,6.07c-4.06-5.26-7.38-11.05-9.97-17.17l3.02,7.17c-2.86-6.82-4.79-14-5.79-21.33l1.07,7.98c-.96-7.24-1-14.58-.04-21.83l-1.07,7.98c.93-6.84,2.78-13.48,5.46-19.84l-3.02,7.17c3.03-7.11,6.98-13.77,11.69-19.89-1.56,2.02-3.13,4.05-4.69,6.07,5.35-6.9,11.6-13.03,18.49-18.38l-6.07,4.69c7.96-6.14,16.71-11.19,25.96-15.12l-7.17,3.02c8.59-3.62,17.57-6.26,26.76-7.83,3.9-.93,7.3-2.72,10.2-5.37,3.27-2.12,5.84-4.92,7.73-8.42,2.19-3.44,3.38-7.16,3.56-11.15.89-3.99.71-7.98-.54-11.96l-3.02-7.17c-2.67-4.51-6.25-8.1-10.76-10.76l-7.17-3.02c-5.32-1.43-10.63-1.43-15.95,0h0Z"/>
  <path class="cls-3" d="m1546.37,844.81c-3.16-5.47-8.74-11.39-14.54-14.08-2.4-1.11-6.22-3.1-9.39-3.64-8.25-1.41-10.02-1.43-18.25,0-3.27.57-6.87,2.22-9.48,3.74s-.6-.94-6.41,4.87c-4.05,4.05-6.07,8.06-7.8,13.47-.89,2.77-1.2,7.56-1.35,9.14-.6,6.32,1.89,13.98,5.02,19.38,3.37,5.81,8.38,10.63,14.1,14.09s12.84,5.34,19.7,5.48c13.81.27,26.79-8.01,33.68-19.71,1.69-2.87,2.84-6.12,3.99-9.2.33-.88.54-1.78.7-2.71.51-3.05,1.33-7.08,1.23-10.53-.01-.43-.05-.85-.09-1.28-.29-2.64-.69-5.61-1.1-8.23-.05-.34-.11-.67-.18-1-.09-.41-.2-.82-.33-1.23-1.72-5.46-2.53-6.66-5.45-10.44-.92-1.19-1.67-2.4-2.72-3.42-2.47-2.37-5.22-4.59-8.21-6.27-6.75-3.8-12.59-5.05-20.23-5.58-.9-.06-1.79-.01-2.68.09-2.69.32-7.4.55-10.58,1.72-6.78,2.51-12.51,5.2-17.58,10.59-2.33,2.48-4.48,5.21-6.24,8.12-.23.39-.45.79-.64,1.19-.63,1.32-1.2,2.81-1.74,4.08-.58,1.36-1.29,2.88-1.81,4.34-.31.86-.52,1.74-.67,2.65-.51,3.09-1.4,7.31-1.21,10.84s.56,7.4,1.55,10.94c.48,1.71,1.33,3.42,2,5,.55,1.31,1.2,3.31,2.08,4.7,1.78,2.82,3.79,5.69,6.32,7.92,2.27,2,5.19,4.56,8.17,6.04,2.71,1.35,6.17,3.12,9.44,3.75,7.17,1.38,10.73,1.61,17.92,0,5.79-1.3,10.57-4.55,14.89-8.44,4.81-4.34,6.62-9.04,8.86-14.89,1.25-3.99,1.43-7.98.54-11.96-.18-3.99-1.37-7.71-3.56-11.15-1.89-3.5-4.46-6.3-7.73-8.42-2.9-2.65-6.3-4.44-10.2-5.37l-7.98-1.07c-5.42.02-10.46,1.38-15.14,4.1l-6.07,4.69c-3.72,3.74-6.29,8.16-7.72,13.24l-.08.2,3.02-7.17c-.14.31-.29.59-.49.86l4.69-6.07c-.2.24-.41.45-.65.65l6.07-4.69c-.25.18-.5.32-.78.44l7.17-3.02c-.35.13-.7.22-1.07.28l7.98-1.07c-.53.06-1.05.04-1.58-.03l7.98,1.07c-.72-.12-1.4-.32-2.07-.6l7.17,3.02c-.77-.34-1.47-.76-2.14-1.27l6.07,4.69c-.53-.43-1.01-.9-1.44-1.43l4.69,6.07c-.42-.55-.75-1.12-1.02-1.75l3.02,7.17c-.41-1.02-.69-2.07-.85-3.16l1.07,7.98c-.17-1.28-.17-2.54-.01-3.82l-1.07,7.98c.18-1.27.51-2.49,1-3.68l-3.02,7.17c.44-1,.98-1.93,1.63-2.81l-4.69,6.07c.62-.79,1.31-1.49,2.09-2.12l-6.07,4.69c.79-.6,1.63-1.09,2.54-1.49l-7.17,3.02c1-.41,2.03-.69,3.1-.85l-7.98,1.07c1.16-.15,2.32-.16,3.49-.01l-7.98-1.07c1.07.15,2.09.42,3.09.82l-7.17-3.02c.9.39,1.74.87,2.52,1.46l-6.07-4.69c.42.34.81.69,1.19,1.08l-7.72-13.24c.27.81.47,1.63.59,2.47l-1.07-7.98c.17,1.28.16,2.55,0,3.83l1.07-7.98c-.17,1.18-.47,2.32-.92,3.43l3.02-7.17c-.42,1-.95,1.93-1.61,2.79l4.69-6.07c-.56.71-1.19,1.34-1.91,1.89l6.07-4.69c-.6.44-1.23.81-1.92,1.12l7.17-3.02c-.62.26-1.24.44-1.9.55l7.98-1.07c-.74.09-1.46.09-2.19,0l7.98,1.07c-.82-.13-1.6-.35-2.37-.68l7.17,3.02c-.76-.34-1.47-.76-2.14-1.26l6.07,4.69c-.65-.51-1.23-1.07-1.74-1.71l4.69,6.07c-.44-.57-.8-1.17-1.1-1.83l3.02,7.17c-.24-.58-.4-1.16-.5-1.78l1.07,7.98c-.06-.55-.06-1.07,0-1.62l-1.07,7.98c.08-.48.2-.94.37-1.4l-13.79,17.93c.23-.13.45-.24.69-.35l-7.17,3.02c.64-.26,1.28-.44,1.96-.55l-7.98,1.07c.77-.09,1.53-.09,2.3,0l-7.98-1.07c.77.12,1.5.32,2.23.62l-7.17-3.02c.63.28,1.21.62,1.77,1.02l-6.07-4.69c.54.42,1.02.89,1.45,1.43l-4.69-6.07c.2.28.39.56.56.86,1.89,3.5,4.46,6.3,7.73,8.42,2.9,2.65,6.3,4.44,10.2,5.37,3.99,1.25,7.98,1.43,11.96.54,3.99-.18,7.71-1.37,11.15-3.56l6.07-4.69c3.72-3.74,6.29-8.16,7.72-13.24l1.07-7.98c-.02-5.42-1.38-10.46-4.1-15.14h0Z"/>
  <path class="cls-3" d="m1861.47,709.16c-.05-1.46-.3-2.46-.55-4.26.3,2.24-.26-3.08-.58-4.25-.34-1.25-1.65-3.97-1.59-3.83.6,1.43-1.02-2.77-1.62-3.82-.64-1.1-2.63-3.44-2.49-3.25,1.03,1.34-1.68-2.4-2.51-3.24-.94-.94-2.59-2.04-3.23-2.53.24.18-2.28-1.94-3.36-2.58-1.22-.72-2.85-1.25-3.95-1.71,1.43.6-2.7-1.27-3.84-1.62-.28-.08-.55-.14-.84-.19-1.01-.19-7.13-1.08-8.12-1.08-.14,0-.29,0-.43,0-1.22,0-6.17.82-4.27.56-.63.08-3.05.25-4.41.63-.14.04-.27.1-.4.14-.76.25-6.65,2.7-7.29,3.09-1.33.81-2.48,1.84-3.73,2.81s-2.58,1.78-3.64,2.95c-1.2,1.32-3.75,4.73-4.8,6.2-.13.19-.27.37-.4.56-2.1,3.35-3.56,7.29-4.5,11.16s-1.4,8.12-1.79,12.15c-.16,1.58-.15,3.17.03,4.74.37,3.22.62,6.56,1.39,9.72.77,3.12,2.34,6.08,3.61,8.99.28.64.57,1.25.95,1.84.19.29.4.57.61.85,1.72,2.29,3.37,4.81,5.39,6.86.22.23.46.44.7.64,1.95,1.69,4.41,3.58,6.53,5.05.51.36,1.04.65,1.6.92,2.4,1.14,5.18,2.35,7.69,3.24.27.09.53.18.8.25s.55.13.82.18c2.76.53,5.88.92,8.67,1.17.62.06,1.23.08,1.85.04.29-.02.57-.05.86-.08,2.86-.32,5.86-.64,8.69-1.19.58-.11,1.15-.26,1.7-.45.28-.09.56-.2.83-.31,2.59-1.02,5.34-2.11,7.85-3.32.58-.28,1.15-.59,1.69-.94,2.58-1.68,5.06-3.68,7.39-5.67.45-.39.89-.79,1.29-1.23.2-.22.39-.45.58-.68,1.76-2.13,3.55-4.4,5.13-6.67.34-.49.64-1,.9-1.53,1.21-2.47,2.27-5.14,3.27-7.71.14-.37.29-.74.4-1.12.21-.7.34-1.41.45-2.13.49-3.25,1.22-6.62,1.19-9.94,0-.42-.02-.83-.06-1.25-.27-2.94-.71-5.95-1.18-8.86-.14-.89-.34-1.77-.62-2.63-1.01-3.15-2.44-6.2-3.82-9.2-.36-.78-.77-1.54-1.22-2.27-1.74-2.79-3.92-5.35-5.97-7.9-.58-.73-1.19-1.43-1.86-2.09-.62-.61-1.27-1.18-1.96-1.72-2.62-2.07-5.2-4.29-8.05-6.05-3.44-2.19-7.16-3.38-11.15-3.56-3.99-.89-7.98-.71-11.96.54-3.9.93-7.3,2.72-10.2,5.37-3.27,2.12-5.84,4.92-7.73,8.42l-3.02,7.17c-1.43,5.32-1.43,10.63,0,15.95l3.02,7.17c2.67,4.51,6.25,8.1,10.76,10.76.63.39,1.24.8,1.83,1.25l-6.07-4.69c1.48,1.15,2.79,2.45,3.96,3.91l-4.69-6.07c1.13,1.47,2.07,3.05,2.79,4.76l-3.02-7.17c.54,1.35.93,2.73,1.15,4.17l-1.07-7.98c.17,1.31.18,2.61.03,3.93l1.07-7.98c-.16,1.12-.42,2.2-.85,3.25l3.02-7.17c-.4.91-.9,1.75-1.5,2.55l4.69-6.07c-.68.86-1.45,1.62-2.31,2.31l6.07-4.69c-.96.73-1.98,1.33-3.07,1.82l7.17-3.02c-1.09.46-2.21.79-3.38.97l7.98-1.07c-1.05.14-2.08.16-3.13.03l7.98,1.07c-.84-.13-1.65-.34-2.43-.66l7.17,3.02c-.7-.31-1.35-.69-1.96-1.15l6.07,4.69c-.6-.49-1.13-1.02-1.63-1.62l4.69,6.07c-.64-.83-1.15-1.72-1.56-2.69l3.02,7.17c-.43-1.1-.71-2.22-.88-3.39l1.07,7.98c-.25-1.95-.19-3.9.06-5.84l-1.07,7.98c.28-2.03.71-4.08,1.46-5.99l-3.02,7.17c.28-.65.61-1.25,1.03-1.82l-4.69,6.07c.23-.27.45-.5.71-.73l-6.07,4.69c.27-.2.52-.37.82-.53l-7.17,3.02c.28-.11.53-.18.82-.23l-7.98,1.07c.3-.03.57-.03.86-.01l-7.98-1.07c.39.06.73.15,1.1.3l-7.17-3.02c.25.13.47.26.69.44l-6.07-4.69c.13.11.25.24.36.38l-4.69-6.07c.1.14.19.29.25.45l-3.02-7.17c.07.16.11.33.13.51l-1.07-7.98v.28c-.15,4.13.72,7.98,2.59,11.56,1.21,3.72,3.28,6.94,6.2,9.65,2.72,2.93,5.94,4.99,9.65,6.2,3.58,1.88,7.43,2.74,11.56,2.58l7.98-1.07c5.08-1.43,9.49-4,13.24-7.72l4.69-6.07c2.71-4.68,4.08-9.73,4.1-15.14h0Z"/>
  <path class="cls-3" d="m1463.04,1241.52c-40.05,47.33-78.77,95.74-116.35,145.05-36.29,47.61-71.35,96.16-105.13,145.58-16.02,23.44-32.58,46.96-44.07,73.05-6.47,14.69-12.19,29.59-14.84,45.48-1.44,8.63-2.61,17.41-2.82,26.18s.82,17.77,2.13,26.65c4.34,29.55,21.23,56.68,44.57,75.06,11.74,9.24,23.87,17.31,37.2,24.07,15.21,7.71,31.04,14.29,46.98,20.32,28.24,10.67,57.19,19.52,85.91,28.8,29.56,9.54,59.15,18.99,88.77,28.33,59.46,18.75,119.05,37.1,178.76,55.03,29.96,9,59.96,17.9,89.98,26.69,14.52,4.25,29,8.94,43.68,12.6,18.99,4.73,40.63,5.34,57.24-6.67,8.78-6.35,15.33-13.65,21.29-22.76,3.44-5.26,6.47-10.82,9.3-16.42,6.64-13.18,12.65-27.24,15.63-41.77,3.39-16.54,4.31-34.05-.75-50.4-5.32-17.2-15.74-31.4-29.88-42.33-10.67-8.24-22.24-14.1-34.6-19.39-14.43-6.18-28.88-12.3-43.32-18.44-28.84-12.28-57.68-24.56-86.53-36.83-57.68-24.56-115.37-49.11-173.05-73.67-11.88-5.06-24.62-9.46-35.05-17.26l6.07,4.69c-2.77-2.16-5.27-4.54-7.48-7.28l4.69,6.07c-1.89-2.49-3.47-5.12-4.75-7.96l3.02,7.17c-1.43-3.42-2.36-6.91-2.88-10.58l1.07,7.98c-.57-4.79-.42-9.55.2-14.33l-1.07,7.98c1.27-8.68,4.01-17.01,7.37-25.1l-3.02,7.17c4.9-11.56,10.99-22.6,16.85-33.69,6.42-12.16,12.93-24.27,19.55-36.32,13.23-24.11,26.86-47.99,40.87-71.66,3.95-6.68,5.08-15.65,3.02-23.12-1.92-6.96-7.3-14.5-13.79-17.93-14.45-7.63-32.5-3.67-41.05,10.76-22.59,38.17-44.2,76.92-64.75,116.22-9.52,18.21-19.8,37.16-22.91,57.71-1.95,12.93-2.73,26.46,1.93,39,2.25,6.06,4.69,11.82,8.53,16.99,5.77,7.77,11.19,12.99,19.08,18.67,7.03,5.06,15,8.45,22.92,11.83,10.45,4.45,20.9,8.9,31.35,13.35,20.9,8.9,41.8,17.79,62.7,26.69,41.38,17.62,82.76,35.23,124.15,52.85,22.99,9.79,45.98,19.57,68.97,29.36,10.96,4.66,21.98,9.2,32.85,14.04,9.02,4.02,17.86,8.49,25.73,14.5l-6.07-4.69c4.09,3.22,7.78,6.8,10.99,10.92l-4.69-6.07c2.55,3.42,4.66,7.05,6.36,10.95l-3.02-7.17c1.85,4.5,3.08,9.13,3.77,13.95l-1.07-7.98c.8,6.32.65,12.63-.15,18.94l1.07-7.98c-1.44,10.3-4.54,20.22-8.51,29.81l3.02-7.17c-4.74,11.22-10.39,22.64-17.82,32.34l4.69-6.07c-2.15,2.7-4.49,5.16-7.2,7.3l6.07-4.69c-1.99,1.47-4.03,2.66-6.29,3.66l7.17-3.02c-2.51.98-5.01,1.61-7.67,1.98l7.98-1.07c-3.85.41-7.64.25-11.47-.26,2.66.36,5.32.71,7.98,1.07-8.13-1.22-15.98-3.73-23.85-6.02-8.43-2.45-16.86-4.91-25.28-7.37-17.07-4.99-34.12-10.02-51.17-15.08-33.66-9.99-67.28-20.12-100.87-30.37-67.6-20.64-135.03-41.8-202.3-63.48-36.52-11.77-73.6-22.68-109.03-37.51l7.17,3.02c-18.55-7.83-36.88-16.77-52.96-29.03l6.07,4.69c-7.73-5.99-14.8-12.72-20.79-20.47l4.69,6.07c-4.46-5.92-8.16-12.27-11.06-19.09l3.02,7.17c-3.14-7.66-5.21-15.63-6.37-23.83l1.07,7.98c-1.39-10.58-1.25-21.22.1-31.79l-1.07,7.98c1.86-13.64,5.77-26.78,11.05-39.48l-3.02,7.17c14.4-34.06,37.07-64.35,58.01-94.58,21.91-31.62,44.34-62.88,67.29-93.75,12.89-17.35,25.95-34.57,39.16-51.68l-4.69,6.07c31.72-41.04,64.34-81.38,97.85-120.97,5.24-6.19,8.79-12.85,8.79-21.21,0-7.36-3.27-16.15-8.79-21.21s-13.22-9.14-21.21-8.79c-7.57.34-16.13,2.78-21.21,8.79h0Z"/>
  <path class="cls-3" d="m2082.04,1250.72c32.7,34.84,65.4,69.69,98.1,104.53,16.35,17.42,32.7,34.84,49.05,52.27,9.75,10.39,20.83,20.21,34.92,24.06,4.17,1.14,8.76,1.77,13.08,1.78,3.53.01,7.16-.66,10.61-1.25,1.28-.22,2.51-.49,3.73-.92,9.02-3.17,15.93-7.52,23.07-13.92,7.69-6.89,14.18-15.41,20.81-23.3s13.44-16.28,19.95-24.59c14.6-18.63,28.73-37.62,42.17-57.1,24.51-35.52,46.99-72.42,68.13-110.03,10.54-18.76,20.75-37.71,30.72-56.78,8.95-17.12,17.02-34.92,27.46-51.21,2.3-3.59,4.74-7.09,7.35-10.47l-4.69,6.07c4.56-5.84,9.61-11.27,15.48-15.81l-6.07,4.69c3.63-2.74,7.49-5.08,11.65-6.91l-7.17,3.02c3.74-1.56,7.6-2.65,11.61-3.23l-7.98,1.07c3.77-.48,7.51-.51,11.28-.05l-7.98-1.07c4.09.58,8,1.69,11.8,3.29l-7.17-3.02c4.06,1.79,7.83,4.06,11.36,6.76l-6.07-4.69c3.98,3.14,7.51,6.73,10.63,10.73l-4.69-6.07c3.06,4.04,5.62,8.38,7.65,13.04l-3.02-7.17c2.57,6.13,4.23,12.53,5.18,19.1l-1.07-7.98c1.24,9.37,1,18.8-.2,28.16l1.07-7.98c-2.36,17.32-7.79,34.09-14.55,50.17l3.02-7.17c-9.37,22.02-21.41,42.74-33.66,63.25-12.52,20.97-25.35,41.75-38.47,62.34-26.15,41.04-53.5,81.31-81.98,120.77-16.05,22.24-32.48,44.21-49.24,65.92l4.69-6.07c-13.85,17.92-27.94,35.66-42.27,53.2-7.08,8.67-14.2,17.31-21.42,25.86-6.42,7.6-13.08,15.04-20.93,21.19l6.07-4.69c-4.14,3.17-8.55,5.9-13.32,8.01l7.17-3.02c-4.34,1.83-8.81,3.08-13.46,3.77l7.98-1.07c-5.17.68-10.33.64-15.51,0l7.98,1.07c-7.5-1.03-14.71-3.25-21.68-6.18,2.39,1.01,4.78,2.02,7.17,3.02-13.99-6.02-26.71-14.58-38.85-23.7-13.33-10.02-26.44-20.35-39.64-30.54-27.23-21-54.46-42.01-81.68-63.01-15.26-11.77-30.52-23.54-45.78-35.31-5.71-4.41-16.55-4.83-23.12-3.02-6.96,1.92-14.5,7.3-17.93,13.79-3.68,6.96-5.52,15.4-3.02,23.12l3.02,7.17c2.67,4.51,6.25,8.1,10.76,10.76,40.09,30.93,80.19,61.86,120.28,92.79,9.87,7.62,19.75,15.23,29.62,22.85,9.39,7.24,18.68,14.64,28.47,21.34,21.16,14.48,46.01,26.33,72.15,26.38,14.92.03,30.06-4.09,42.88-11.74,10.79-6.44,20.3-15.16,28.61-24.52,15.4-17.34,29.82-35.65,44.29-53.77,30.85-38.64,60.7-78.1,89.35-118.41,27.47-38.65,53.86-78.08,79.12-118.22,12.5-19.86,24.75-39.88,36.65-60.11,12.91-21.96,24.69-44.41,33.85-68.23,4.12-10.71,7.54-21.74,9.77-33.01,2.63-13.26,4.44-27.13,3.27-40.67-1.34-15.55-4.77-30.21-12.34-43.99-6.79-12.36-16.52-22.03-27.8-30.26-11.44-8.35-25.45-12.4-39.43-13.39-13.28-.95-26.56,3.01-38.29,8.89-9.62,4.83-18.41,12.24-25.58,20.24-7.62,8.5-14.38,17.95-20.23,27.76-10.84,18.2-19.76,37.61-29.66,56.33-10.7,20.23-21.69,40.31-33.08,60.16-22.65,39.48-46.91,78.08-73.54,115.01-6.47,8.97-13.09,17.84-19.84,26.6l4.69-6.07c-7.7,9.97-15.59,19.8-23.68,29.45-3.94,4.7-7.93,9.36-11.97,13.98-3.82,4.37-7.62,8.79-12.22,12.36l6.07-4.69c-1.87,1.38-3.8,2.56-5.92,3.5l7.17-3.02c-1.61.64-3.21,1.1-4.92,1.38l7.98-1.07c-1.76.2-3.46.2-5.22-.01l7.98,1.07c-2.01-.33-3.88-.9-5.76-1.69l7.17,3.02c-2.45-1.12-4.69-2.53-6.85-4.14l6.07,4.69c-5.14-3.98-9.49-8.81-13.92-13.54-5.19-5.53-10.38-11.06-15.57-16.59-10.51-11.2-21.02-22.4-31.53-33.6-20.89-22.26-41.78-44.52-62.67-66.79-11.68-12.44-23.36-24.89-35.03-37.33-5.16-5.5-13.77-8.79-21.21-8.79s-16.15,3.27-21.21,8.79-9.14,13.22-8.79,21.21c.36,8.1,3.17,15.23,8.79,21.21h0Z"/>
  <path class="cls-3" d="m2015.83,1472.69c-8.4,55.78-16.8,111.56-25.2,167.34-8.36,55.5-16.71,110.99-25.07,166.49-4.71,31.27-9.42,62.54-14.13,93.81-1.25,3.99-1.43,7.98-.54,11.96.18,3.99,1.37,7.71,3.56,11.15,1.89,3.5,4.46,6.3,7.73,8.42,2.9,2.65,6.3,4.44,10.2,5.37,7.68,1.75,16.3,1.37,23.12-3.02l6.07-4.69c3.72-3.74,6.29-8.16,7.72-13.24,8.4-55.78,16.8-111.56,25.2-167.34,8.36-55.5,16.71-110.99,25.07-166.49,4.71-31.27,9.42-62.54,14.13-93.81,1.25-3.99,1.43-7.98.54-11.96-.18-3.99-1.37-7.71-3.56-11.15-1.89-3.5-4.46-6.3-7.73-8.42-2.9-2.65-6.3-4.44-10.2-5.37-7.68-1.75-16.3-1.37-23.12,3.02l-6.07,4.69c-3.72,3.74-6.29,8.16-7.72,13.24h0Z"/>
  <path class="cls-3" d="m1509.75,1870.5c-3.65,45.54-7.76,91.04-12.36,136.49-4.6,45.45-9.67,90.85-15.21,136.2-3.13,25.59-6.41,51.17-9.85,76.72l1.07-7.98c-2.43,18.05-4.93,36.1-7.5,54.13-1.25,3.99-1.43,7.98-.54,11.96.18,3.99,1.37,7.71,3.56,11.15l4.69,6.07c3.74,3.72,8.16,6.29,13.24,7.72,56.32,8.79,113.03,15.11,169.94,18.45,13.35.78,26.7,1.41,40.07,1.88s25.99,1.13,38.93.45c8.68-.45,17.46-1.47,25.94-3.4,7.88-1.8,15.54-4.89,22.73-8.52,6.53-3.31,12.4-7.9,18.01-12.55,4.02-3.33,7.59-7.13,10.82-11.22,4.61-5.85,9.04-11.65,12.47-18.27,3.45-6.67,6.43-13.71,8.65-20.89,2.41-7.78,3.46-15.88,4.39-23.95.7-6.11.82-12.27.43-18.4-.94-15-3.75-30-8.77-44.18-4.34-12.25-9.66-24.34-16.4-35.48-12.97-21.42-30.16-39.76-50.91-53.77-10.22-6.9-21.71-12.17-33.39-16.05-4.86-1.61-9.84-2.85-14.89-3.67-7.01-1.14-14.15-2.18-21.28-2.15-7.04.03-14.15,1.05-21.06,2.19-4.72.78-9.37,1.95-13.9,3.48-11.05,3.73-22.03,8.7-31.51,15.58-5.55,4.03-11.09,8.25-15.98,13.09s-9.06,10.28-13.05,15.79c-2.7,3.72-5.05,7.69-6.97,11.87-2.83,6.15-5.59,12.5-7.16,19.11s-2.53,13.79-2.71,20.74c-.2,7.56,3.49,15.92,8.79,21.21,2.72,2.93,5.94,4.99,9.65,6.2,3.58,1.88,7.43,2.74,11.56,2.58,7.76-.35,15.81-2.9,21.21-8.79s8.57-13.01,8.79-21.21c.06-2.26.24-4.51.53-6.75l-1.07,7.98c.76-5.49,2.24-10.83,4.37-15.95l-3.02,7.17c2.38-5.6,5.49-10.83,9.18-15.66l-4.69,6.07c4.26-5.48,9.2-10.36,14.67-14.64-2.02,1.56-4.05,3.13-6.07,4.69,6.2-4.78,12.97-8.73,20.17-11.81l-7.17,3.02c7.25-3.05,14.83-5.18,22.61-6.28l-7.98,1.07c7.2-.97,14.47-1.02,21.68-.07l-7.98-1.07c8.53,1.19,16.83,3.52,24.78,6.84l-7.17-3.02c9.05,3.85,17.5,8.93,25.28,14.94l-6.07-4.69c9.03,7.05,17.06,15.26,24.07,24.31l-4.69-6.07c7.91,10.29,14.47,21.55,19.55,33.5-1.01-2.39-2.02-4.78-3.02-7.17,4.93,11.71,8.52,23.98,10.27,36.58l-1.07-7.98c1.25,9.42,1.42,18.93.22,28.36.36-2.66.71-5.32,1.07-7.98-1.05,7.74-3.03,15.26-6.06,22.46l3.02-7.17c-2.74,6.39-6.23,12.41-10.47,17.92l4.69-6.07c-3.73,4.77-7.98,9.06-12.76,12.78l6.07-4.69c-4.35,3.31-9.06,6.06-14.1,8.2l7.17-3.02c-6.29,2.57-12.88,4.14-19.61,5.06l7.98-1.07c-13.11,1.7-26.39,1.11-39.56.72-14.2-.42-28.4-1.02-42.58-1.79-28.51-1.56-56.98-3.85-85.37-6.85-15.93-1.68-31.83-3.6-47.71-5.73l7.98,1.07c-11.87-1.6-23.72-3.33-35.56-5.17,6.98,12.3,13.97,24.6,20.95,36.9,7.83-54.81,15.03-109.72,21.54-164.71,6.22-52.6,11.81-105.28,16.75-158.02,2.77-29.58,5.34-59.18,7.71-88.79.16-4.13-.71-7.98-2.58-11.56-1.21-3.72-3.28-6.94-6.2-9.65-2.72-2.93-5.94-4.99-9.65-6.2-3.58-1.88-7.43-2.74-11.56-2.58-7.76.35-15.81,2.9-21.21,8.79l-4.69,6.07c-2.71,4.68-4.08,9.73-4.1,15.14h0Z"/>
  <path class="cls-3" d="m1788.94,2292.69c27.15,3.68,54.34,7.02,81.6,9.77,24.59,2.48,49.22,4.54,73.87,6.18,12.42.83,24.85,1.54,37.28,2.16,11.67.57,23.39,1.36,35.08,1.22,7.72-.1,15.38-1,23-2.27,7.65-1.27,14.7-4.1,21.72-7.39,2.31-1.08,4.53-2.37,6.61-3.84,3.83-2.71,7.69-5.59,11.1-8.85,1.72-1.65,3.3-3.43,4.77-5.31,2.92-3.72,5.95-7.42,8.4-11.48,3.77-6.23,6.6-13.15,9.04-19.98,1.63-4.56,2.85-9.27,3.74-14.03,2.39-12.81,3.67-25.89,2.75-38.91-.54-7.63-1.58-15.27-2.95-22.8-.95-5.24-2.19-10.43-3.69-15.54s-3.22-10.06-5.18-14.97c-2.87-7.18-5.89-14.33-9.36-21.25-4.79-9.55-10.38-18.69-16.64-27.34-7.61-10.52-15.7-21.01-25.46-29.66-5.65-5-11.7-9.74-18.13-13.72-6.34-3.92-13.33-6.85-20.29-9.43-4.61-1.71-9.39-2.97-14.23-3.78-7.32-1.22-14.8-2.26-22.24-2.17-2.5.03-5,.17-7.48.44-4.99.52-10.01,1.15-14.95,2.11s-9.57,2.33-14.13,4.16c-6.82,2.74-13.6,5.55-19.78,9.57s-11.71,8.34-16.86,13.27-9.46,10.59-13.64,16.29c-2.77,3.77-5.2,7.79-7.28,11.98-3.15,6.36-5.97,13.01-8.01,19.82s-2.99,14.1-3.82,21.27c-.53,4.58-.63,9.19-.31,13.79-.16,4.13.71,7.98,2.58,11.56,1.21,3.72,3.28,6.94,6.2,9.65,2.72,2.93,5.94,4.99,9.65,6.2,3.58,1.88,7.43,2.74,11.56,2.58l7.98-1.07c5.08-1.43,9.49-4,13.24-7.72l4.69-6.07c2.71-4.68,4.08-9.73,4.1-15.14-.35-5.02-.18-10.04.47-15.03-.36,2.66-.71,5.32-1.07,7.98.94-6.93,2.8-13.68,5.49-20.13-1.01,2.39-2.02,4.78-3.02,7.17,2.72-6.44,6.24-12.51,10.5-18.06l-4.69,6.07c4.02-5.19,8.65-9.87,13.83-13.9l-6.07,4.69c5.03-3.87,10.52-7.05,16.37-9.52l-7.17,3.02c6.38-2.65,13.08-4.43,19.93-5.36l-7.98,1.07c7.16-.93,14.39-.92,21.54.04l-7.98-1.07c6.85.95,13.53,2.76,19.9,5.45l-7.17-3.02c6.17,2.65,11.89,6.12,17.2,10.22l-6.07-4.69c8.22,6.42,15.29,14.15,21.66,22.38l-4.69-6.07c10.23,13.29,18.89,27.8,25.45,43.25l-3.02-7.17c5.43,12.89,9.36,26.39,11.23,40.26l-1.07-7.98c1.47,11.12,1.59,22.37.11,33.49.36-2.66.71-5.32,1.07-7.98-1.12,8.17-3.05,16.22-6.23,23.85,1.01-2.39,2.02-4.78,3.02-7.17-2.11,4.98-4.74,9.72-8.03,14.03l4.69-6.07c-2.5,3.22-5.35,6.13-8.57,8.63l6.07-4.69c-2.98,2.27-6.22,4.12-9.66,5.6l7.17-3.02c-4.86,2.02-9.97,3.25-15.18,3.96l7.98-1.07c-13.68,1.8-27.71.57-41.44-.06-15.29-.71-30.57-1.58-45.85-2.61-30.64-2.07-61.23-4.79-91.75-8.15-17.14-1.89-34.26-3.99-51.35-6.28l7.98,1.07c-.73-.1-1.46-.2-2.19-.3-3.99-1.25-7.98-1.43-11.96-.54-3.99.18-7.71,1.37-11.15,3.56-3.5,1.89-6.3,4.46-8.42,7.73-2.65,2.9-4.44,6.3-5.37,10.2l-1.07,7.98c.02,5.42,1.38,10.46,4.1,15.14l4.69,6.07c3.74,3.72,8.16,6.29,13.24,7.72h0Z"/>
  <path class="cls-3" d="m1979.81,2068.42c4.66-24.16,9.31-48.31,13.97-72.47,4.64-24.08,9.28-48.15,13.92-72.23,2.58-13.39,5.16-26.77,7.74-40.16,1.25-3.99,1.43-7.98.54-11.96-.18-3.99-1.37-7.71-3.56-11.15-1.89-3.5-4.46-6.3-7.73-8.42-2.9-2.65-6.3-4.44-10.2-5.37l-7.98-1.07c-5.42.02-10.46,1.38-15.14,4.1l-6.07,4.69c-3.72,3.74-6.29,8.16-7.72,13.24-4.61,23.93-9.22,47.86-13.84,71.8s-9.3,48.28-13.96,72.42c-2.61,13.55-5.22,27.09-7.83,40.64-1.25,3.99-1.43,7.98-.54,11.96.18,3.99,1.37,7.71,3.56,11.15,1.89,3.5,4.46,6.3,7.73,8.42,2.9,2.65,6.3,4.44,10.2,5.37l7.98,1.07c5.42-.02,10.46-1.38,15.14-4.1l6.07-4.69c3.72-3.74,6.29-8.16,7.72-13.24h0Z"/>
  <path class="cls-3" d="m1742.49,1941.3c1.2,19.32.58,38.69-.47,58-1.05,19.32-2.29,38.63-3.45,57.94-.66,10.94-1.32,21.88-1.97,32.81-.16,4.13.71,7.98,2.58,11.56,1.21,3.72,3.28,6.94,6.2,9.65,2.72,2.93,5.94,4.99,9.65,6.2,3.58,1.88,7.43,2.74,11.56,2.58l7.98-1.07c5.08-1.43,9.49-4,13.24-7.72l4.69-6.07c2.71-4.68,4.08-9.73,4.1-15.14,1.16-19.31,2.32-38.62,3.49-57.92,1.16-19.31,2.54-38.63,2.96-57.98.24-10.95.14-21.91-.54-32.85.16-4.13-.71-7.98-2.58-11.56-1.21-3.72-3.28-6.94-6.2-9.65-2.72-2.93-5.94-4.99-9.65-6.2-3.58-1.88-7.43-2.74-11.56-2.58l-7.98,1.07c-5.08,1.43-9.49,4-13.24,7.72l-4.69,6.07c-2.71,4.68-4.08,9.73-4.1,15.14h0Z"/>
  <path class="cls-3" d="m1494.09,678.87c-1.73-5.68-4.11-11.2-6.75-16.5-1.56-3.13-3.37-6.13-5.35-9.02-5.35-7.82-11.43-15.2-17.84-22.17-2.41-2.61-4.83-5.21-7.33-7.74-4.26-4.3-8.86-7.89-13.69-11.58-2.83-2.16-5.81-4.03-9.08-5.46-5.54-2.42-10.85-4.83-16.83-5.75s-12-1.85-18.1-1.53-12.2,1.17-18.16,2.46c-8.93,1.93-17.58,5.6-25.78,9.51-5.81,2.77-11.33,6.13-16.46,10.01-7.12,5.37-14.02,10.81-19.97,17.48-4.01,4.49-7.7,9.31-11.19,14.21-2.1,2.94-4.1,6-5.78,9.21-3.43,6.57-5.4,12.42-5.51,19.89-.08,5.8,1.67,11.94,4.5,16.97,1.5,2.67,3.38,5.28,5.72,7.27,5.11,4.34,7.89,6.3,14.44,8.31,3.04.93,6.33,1.37,9.51,1.22,6.07-.28,10.97-1.37,16.24-4.51,4.06-2.41,9.58-7.29,11.48-11.73,2.19-3.44,3.38-7.16,3.56-11.15.89-3.99.71-7.98-.54-11.96-.93-3.9-2.72-7.3-5.37-10.2-2.12-3.27-4.92-5.84-8.42-7.73l-7.17-3.02c-5.32-1.43-10.63-1.43-15.95,0l-7.17,3.02c-4.51,2.67-8.1,6.25-10.76,10.76-.11.25-.21.43-.37.65l4.69-6.07c-.1.12-.22.22-.35.32l6.07-4.69c-.13.09-.26.17-.41.23l7.17-3.02c-.24.09-.45.14-.7.19l7.98-1.07c-.26.02-.5.02-.76,0l7.98,1.07c-.45-.06-.86-.17-1.28-.35l7.17,3.02c-.25-.12-.47-.25-.7-.41l6.07,4.69c-.29-.23-.53-.46-.76-.75l4.69,6.07c-.15-.23-.27-.44-.38-.7l3.02,7.17c-.13-.4-.21-.77-.27-1.18l1.07,7.98c-.03-.41-.02-.79.01-1.21l-1.07,7.98c.12-.84.35-1.62.65-2.4l-3.02,7.17c2.06-4.85,5.38-9.38,8.57-13.54l-4.69,6.07c5.05-6.52,10.9-12.37,17.41-17.43l-6.07,4.69c6.53-5.03,13.67-9.23,21.25-12.45l-7.17,3.02c6.49-2.72,13.26-4.76,20.24-5.7l-7.98,1.07c4.64-.59,9.33-.69,13.97-.09l-7.98-1.07c3.61.5,7.13,1.42,10.5,2.84l-7.17-3.02c3.26,1.42,6.26,3.29,9.08,5.46l-6.07-4.69c4.72,3.7,8.84,8.08,12.93,12.44s8.04,8.78,11.69,13.49l-4.69-6.07c4.19,5.45,7.9,11.26,10.57,17.6l-3.02-7.17c.75,1.81,1.41,3.66,1.99,5.53.93,3.9,2.72,7.3,5.37,10.2,2.12,3.27,4.92,5.84,8.42,7.73,3.44,2.19,7.16,3.38,11.15,3.56,3.99.89,7.98.71,11.96-.54l7.17-3.02c4.51-2.67,8.1-6.25,10.76-10.76l3.02-7.17c1.43-5.32,1.43-10.63,0-15.95h0Z"/>
  <path class="cls-3" d="m1492.98,661.21c-2.57-7.07-4.35-14.4-5.37-21.86l1.07,7.98c-1.33-9.99-1.29-20.12.04-30.11l-1.07,7.98c1.37-9.99,4.04-19.77,7.95-29.07l-3.02,7.17c3.64-8.57,8.32-16.66,14-24.03l-4.69,6.07c2.66-3.43,5.44-6.84,8.88-9.52l-6.07,4.69c1.54-1.17,3.16-2.17,4.94-2.94l-7.17,3.02c1.11-.45,2.24-.78,3.43-.95l-7.98,1.07c.8-.09,1.57-.1,2.36-.02l-7.98-1.07c.79.11,1.53.32,2.27.62l-7.17-3.02c.54.25,1.04.55,1.54.89,3.44,2.19,7.16,3.38,11.15,3.56,3.99.89,7.98.71,11.96-.54,3.9-.93,7.3-2.72,10.2-5.37,3.27-2.12,5.84-4.92,7.73-8.42l3.02-7.17c1.43-5.32,1.43-10.63,0-15.95l-3.02-7.17c-2.67-4.51-6.25-8.1-10.76-10.76-.5-.35-.99-.63-1.54-.89-2.17-1.06-5.22-2.34-7.48-3.16-.21-.08-.42-.16-.64-.22-1.67-.49-3.75-.6-5.3-.81-1.71-.23-3.68-.67-5.5-.59-3,.13-6.21.68-9.17,1.19-.52.09-1.04.21-1.54.36s-1.03.35-1.54.55c-2.85,1.12-5.79,2.25-8.52,3.66-1.03.53-2.01,1.15-2.95,1.83-2.9,2.1-5.84,4.26-8.51,6.67-1.8,1.62-3.38,3.47-4.92,5.33-7.52,9.07-14.33,18.59-19.3,29.29s-9.3,21.95-11.53,33.69c-1.35,7.07-2.32,14.26-2.82,21.44-.32,4.64-.36,9.3-.11,13.95.42,7.75,1.46,15.52,2.96,23.12,1.04,5.25,2.48,10.42,4.31,15.45.93,3.9,2.72,7.3,5.37,10.2,2.12,3.27,4.92,5.84,8.42,7.73,3.44,2.19,7.16,3.38,11.15,3.56,3.99.89,7.98.71,11.96-.54l7.17-3.02c4.51-2.67,8.1-6.25,10.76-10.76l3.02-7.17c1.43-5.32,1.43-10.63,0-15.95h0Z"/>
  <path class="cls-3" d="m1714.05,1191.79c6.29,6.96,12.53,13.98,18.91,20.87,2.87,3.1,5.8,6.15,8.86,9.06,4.85,4.61,10.12,8.7,15.48,12.71,3.29,2.46,6.77,4.69,10.44,6.53s7.69,3.45,11.58,5.02c1.66.67,3.35,1.26,5.07,1.78,5.85,1.76,11.89,2.43,17.94,3.2,3.56.46,7.15.63,10.74.51,1.74-.06,3.47-.18,5.2-.38,4.32-.48,8.67-1.01,12.95-1.81,3.47-.65,6.89-1.57,10.22-2.76,4.01-1.43,7.94-3.16,11.83-4.89,1.64-.73,3.24-1.53,4.81-2.39,5.24-2.88,9.89-6.62,14.57-10.33,2.77-2.2,5.34-4.64,7.67-7.31,3.94-4.52,7.72-9.35,10.82-14.5s5.36-10.79,7.57-16.34c1.32-3.29,2.36-6.69,3.13-10.15,1.33-5.95,2.13-12.07,2.54-18.15.24-3.6.2-7.22-.14-10.81-.57-6.03-1.31-12.18-2.84-18.07s-3.96-11.38-6.42-16.83c-.74-1.65-1.57-3.25-2.45-4.82l-4.69-6.07-6.07-4.69-7.17-3.02c-3.99-1.25-7.98-1.43-11.96-.54-2.71,0-5.23.69-7.57,2.05-2.54.71-4.75,2-6.62,3.86-2.25,1.33-4.05,3.13-5.38,5.38-2.65,2.9-4.44,6.3-5.37,10.2-1.23,7.29-1.92,13.5.31,20.79.86,2.81,2.23,5.55,3.41,8.23.18.41.36.82.56,1.22.48.94,1.05,1.82,1.68,2.67,2.62,3.57,5.29,7.19,8.44,10.33,1.47,1.47,3,2.89,4.52,4.32,3,2.81,6.05,5.57,9.21,8.19,5.05,4.18,10.23,8.3,15.74,11.86,5.53,3.57,11.45,6.03,17.54,8.52s12.5,3.26,19.15,4.11,13.55-.18,20.24-1.32c6.66-1.13,12.8-3.93,18.96-6.62,4.01-1.75,7.82-3.95,11.4-6.46,4.92-3.44,9.78-7.13,14.14-11.27,2.46-2.33,4.74-4.84,6.85-7.49,3.63-4.57,7.29-9.16,10.31-14.16,1.73-2.86,3.28-5.84,4.64-8.9,2.37-5.35,4.75-10.78,6.45-16.4.98-3.23,1.75-6.52,2.3-9.85.96-5.8,1.84-11.72,2.03-17.61.11-3.3-.02-6.61-.4-9.89-.66-5.72-1.3-11.55-2.82-17.13-1.5-5.53-3.85-10.87-6.23-16.05-1.37-2.99-3.01-5.86-4.91-8.55-2.35-3.35-4.88-6.58-7.5-9.72-2.72-2.93-5.94-4.99-9.65-6.2-3.58-1.88-7.43-2.74-11.56-2.58-4.13-.16-7.98.71-11.56,2.58-3.72,1.21-6.94,3.28-9.65,6.2l-4.69,6.07c-2.71,4.68-4.08,9.73-4.1,15.14l1.07,7.98c1.43,5.08,4,9.49,7.72,13.24.49.59.98,1.19,1.45,1.8l-4.69-6.07c2.83,3.7,5.16,7.73,6.98,12.01l-3.02-7.17c2.03,4.85,3.37,9.94,4.08,15.14l-1.07-7.98c.82,6.15.75,12.38-.06,18.53l1.07-7.98c-.94,6.93-2.83,13.69-5.54,20.13l3.02-7.17c-2.63,6.16-5.99,11.98-10.07,17.3l4.69-6.07c-3.74,4.83-8.03,9.2-12.86,12.95l6.07-4.69c-4.61,3.54-9.61,6.57-14.97,8.84l7.17-3.02c-4.07,1.69-8.3,2.92-12.68,3.51l7.98-1.07c-3.59.45-7.2.45-10.79-.03l7.98,1.07c-4.04-.58-7.95-1.73-11.71-3.31l7.17,3.02c-5.8-2.5-11.12-5.94-16.11-9.79l6.07,4.69c-3.68-2.86-7.19-5.93-10.62-9.09s-6.88-6.16-9.7-9.77l4.69,6.07c-1.03-1.36-1.94-2.79-2.6-4.37l3.02,7.17c-.37-.94-.63-1.89-.78-2.89l1.07,7.98c-.1-.89-.09-1.75.02-2.64l-1.07,7.98.07-.38-54.83,7.17c1.13,1.99,2.13,4.04,3.03,6.14l-3.02-7.17c2.13,5.1,3.56,10.45,4.3,15.93l-1.07-7.98c.76,5.85.75,11.77,0,17.63l1.07-7.98c-.79,5.85-2.32,11.57-4.58,17.02l3.02-7.17c-2.1,4.98-4.8,9.68-8.1,13.96l4.69-6.07c-3.03,3.89-6.51,7.37-10.41,10.39l6.07-4.69c-4.27,3.28-8.94,5.97-13.89,8.08l7.17-3.02c-5.53,2.32-11.34,3.89-17.28,4.69l7.98-1.07c-5.83.76-11.72.78-17.54.01l7.98,1.07c-5.45-.74-10.78-2.16-15.85-4.3l7.17,3.02c-5.34-2.28-10.27-5.36-14.87-8.89l6.07,4.69c-6.5-5.03-12.28-10.9-17.84-16.94-6.17-6.69-12.22-13.49-18.33-20.24-2.72-2.93-5.94-4.99-9.65-6.2-3.58-1.88-7.43-2.74-11.56-2.58-4.13-.16-7.98.71-11.56,2.58-3.72,1.21-6.94,3.28-9.65,6.2l-4.69,6.07c-2.71,4.68-4.08,9.73-4.1,15.14l1.07,7.98c1.43,5.08,4,9.49,7.72,13.24h0Z"/>
  <path class="cls-3" d="m1514.02,1464.51c.24,23.83.49,47.66.73,71.49.25,23.91.49,47.82.74,71.74.14,13.41.28,26.83.41,40.24-.16,4.13.71,7.98,2.58,11.56,1.21,3.72,3.28,6.94,6.2,9.65,2.72,2.93,5.94,4.99,9.65,6.2,3.58,1.88,7.43,2.74,11.56,2.58l7.98-1.07c5.08-1.43,9.49-4,13.24-7.72l4.69-6.07c2.71-4.68,4.08-9.73,4.1-15.14-.24-23.83-.49-47.66-.73-71.49s-.49-47.82-.74-71.74c-.14-13.41-.28-26.83-.41-40.24.16-4.13-.71-7.98-2.58-11.56-1.21-3.72-3.28-6.94-6.2-9.65-2.72-2.93-5.94-4.99-9.65-6.2-3.58-1.88-7.43-2.74-11.56-2.58l-7.98,1.07c-5.08,1.43-9.49,4-13.24,7.72l-4.69,6.07c-2.71,4.68-4.08,9.73-4.1,15.14h0Z"/>
</svg>