<?xml version="1.0" encoding="UTF-8"?>
<svg id="Layer_1" data-name="Layer 1" xmlns="http://www.w3.org/2000/svg" viewBox="0 0 2791.44 2638.84">
  <defs>
    <style>
      .cls-1 {
        fill: #999;
      }

      .cls-1, .cls-2, .cls-3 {
        stroke-width: 0px;
      }

      .cls-2 {
        fill: #1a1a1a;
      }

      .cls-4 {
        opacity: .8;
      }

      .cls-5 {
        opacity: .4;
      }

      .cls-3 {
        fill: #fff;
      }
    </style>
  </defs>
  <path class="cls-2" d="m1200.5,36.8c-153.03.25-298.46,57.9-429.44,133.13-118.92,68.3-231.41,150.07-332.92,242.28C234.36,597.32,77.61,834.95,24.79,1107.93c-51.88,268.11-21.62,552.09,84.15,803.72,97.75,232.53,259.71,439.83,478.61,569.27,246.69,145.87,543.07,179.57,823.73,145.8,143.56-17.28,284.69-49.75,421.91-95.24,128.76-42.68,255.07-96.03,371.78-165.52,114.93-68.43,222.04-153.38,307.38-256.86,95.31-115.56,161.65-250.45,205.88-393.12,42.97-138.58,68.37-284.75,72.47-429.83,3.97-140.49-13.6-284.52-64.54-416.13-26.11-67.45-59.57-131.3-101.95-189.97-43.93-60.81-94.36-116.36-148.65-168.04-106.51-101.4-223.55-194.01-347.46-273.24C1876.36,77.78,1576.86-25.65,1275.08,5.55c-74.89,7.74-148.68,22.7-219.95,47.12-22.22,7.61-39.23,31.24-31.43,55.36,7.13,22.03,31.51,39.6,55.36,31.43,34.82-11.93,70.28-21.84,106.29-29.52,17.18-3.67,34.46-6.84,51.81-9.55,4.73-.74,9.47-1.44,14.22-2.11-8.35,1.16,7.22-.89,7.04-.87,9.52-1.15,19.05-2.16,28.6-3.03,73.46-6.71,147.59-5.3,220.85,3.08,4,.46,7.99.94,11.98,1.44,1.6.2,11.7,1.56,4.79.6,9.57,1.32,19.11,2.79,28.64,4.36,19.07,3.14,38.06,6.74,56.95,10.78,34.62,7.41,68.92,16.32,102.79,26.63,34.45,10.49,68.45,22.47,101.94,35.7,8.58,3.39,17.14,6.86,25.66,10.42-5.9-2.47,1.21.52,2,.86,4.24,1.83,8.47,3.66,12.7,5.51,16.89,7.43,33.64,15.17,50.25,23.21,63.77,30.86,125.42,66.04,184.9,104.49,56.78,36.71,116.02,79.69,163.71,117.63,55.61,44.24,109.77,90.59,161.11,139.74,25.7,24.61,50.63,50.04,74.32,76.6,11.3,12.66,22.32,25.58,33,38.77,11.61,14.34,17.03,21.44,29.27,38.77,19.7,27.9,37.7,56.98,53.63,87.19,7.23,13.71,14.05,27.64,20.46,41.75,1.83,4.02,3.6,8.07,5.38,12.12,5.84,13.22-3.04-7.89,2.32,5.53,3.28,8.2,6.54,16.39,9.62,24.67,23.67,63.6,39.57,130.02,48.87,197.21-1.3-9.39.63,5.15.7,5.7.36,2.95.71,5.9,1.04,8.86,1.01,8.87,1.91,17.75,2.7,26.65,1.59,17.84,2.75,35.71,3.52,53.6,1.47,34.44,1.47,68.94.14,103.39-1.3,33.79-3.86,67.53-7.54,101.15-.9,8.21-1.87,16.42-2.9,24.61-.06.45-2.03,15.13-.75,5.89-.41,2.97-.83,5.94-1.25,8.91-2.55,17.78-5.41,35.52-8.55,53.21-12.45,70.14-29.07,139.66-50.61,207.57-10.85,34.19-22.99,67.98-36.59,101.17-4.31,10.51-10.67,25.02-17.92,40.56-7.89,16.9-16.19,33.6-24.93,50.07-16.02,30.19-33.51,59.6-52.55,87.99-9.23,13.75-18.82,27.26-28.77,40.5-.32.43-8.85,11.5-3.28,4.36-2.6,3.34-5.24,6.66-7.89,9.96-5.29,6.6-10.68,13.12-16.14,19.58-41.8,49.33-88.56,94.34-138.76,135.06-5.47,4.43-10.98,8.8-16.51,13.15-10.93,8.58,6.85-5.04-4.28,3.28-3.39,2.53-6.75,5.09-10.15,7.61-13.6,10.1-27.42,19.91-41.42,29.45-26.95,18.36-54.59,35.69-82.77,52.08-55.52,32.29-113.14,60.9-172.03,86.49-3.94,1.71-7.88,3.4-11.83,5.09-12.99,5.56,7.99-3.26-5.07,2.12-6.61,2.72-13.22,5.45-19.86,8.13-15.91,6.41-31.9,12.62-47.97,18.63-30.69,11.49-61.65,22.27-92.81,32.41-65.15,21.21-131.23,39.62-198.05,54.78-33.35,7.57-66.89,14.33-100.58,20.21-16.47,2.87-32.97,5.54-49.51,7.99-4.51.67-9.02,1.29-13.53,1.95-14.81,2.16,8.74-1.07-6.09.84-9.03,1.16-18.06,2.29-27.11,3.33-68.98,7.95-138.45,11.93-207.89,11.11-34.41-.41-68.82-1.99-103.11-4.88-16.33-1.38-32.63-3.04-48.9-5.01-2.95-.36-5.9-.74-8.86-1.1-14.55-1.81,8.78,1.37-5.71-.78-9.55-1.42-19.09-2.83-28.61-4.4-66.45-11.01-132.04-27.41-195.58-49.81-15.38-5.42-30.64-11.19-45.76-17.32-.2-.08-13.73-5.66-5.72-2.3-4.11-1.73-8.2-3.52-12.29-5.31-8.18-3.6-16.32-7.31-24.4-11.12-29.31-13.82-57.98-29.03-85.81-45.64-25.81-15.4-50.91-31.98-75.21-49.66-5.27-3.83-10.5-7.71-15.69-11.64-.93-.7-11.16-8.69-3.28-2.49-3.07-2.41-6.14-4.83-9.19-7.26-11.68-9.34-23.15-18.95-34.42-28.79-44.59-38.96-85.86-81.69-123.55-127.35-4.98-6.04-9.9-12.12-14.76-18.26-1.62-2.05-3.23-4.1-4.84-6.16-8.02-10.23,5.26,7.12-2.52-3.31-9.39-12.58-18.72-25.17-27.7-38.04-17.26-24.72-33.59-50.1-48.97-76.03-15.44-26.03-29.93-52.63-43.47-79.7-6.49-12.98-12.76-26.07-18.82-39.26-2.75-6-5.46-12.03-8.13-18.07-1.6-3.63-3.16-7.27-4.75-10.9-4.27-9.76,2.06,5.14-1.64-3.86-23.2-56.4-42.92-114.1-58.54-173.05-7.81-29.49-14.64-59.23-20.47-89.18-2.79-14.31-5.35-28.67-7.68-43.06-1.06-6.54-2.07-13.09-3.03-19.64-.58-3.93-1.13-7.87-1.68-11.8,1.53,10.88-.74-5.85-.97-7.73-7.66-62.1-10.91-124.68-10.02-187.24,1.11-78.03,7.83-148.78,22.27-221.75,14.06-71.04,34.87-140.57,62.58-207.48-3.14,7.58.37-.87,1.18-2.73,1.38-3.2,2.78-6.39,4.19-9.57,3.38-7.64,6.86-15.23,10.42-22.79,7.11-15.1,14.56-30.03,22.33-44.8,14.25-27.06,29.58-53.55,45.88-79.42,17.08-27.1,35.22-53.52,54.29-79.25,2.49-3.36,5-6.71,7.53-10.05.39-.51,8.79-11.47,3.15-4.19,4.28-5.52,8.61-11,12.97-16.45,10.5-13.1,21.23-26.01,32.19-38.73,42.21-48.99,87.71-95.13,135.69-138.47,23.56-21.29,47.72-41.91,72.4-61.89,6.04-4.89,12.1-9.73,18.2-14.54,3.33-2.62,6.66-5.23,10-7.83-6.13,4.77,1.12-.86,2.63-2.01,12.89-9.86,25.91-19.55,39.04-29.07,54.47-39.5,110.93-76.5,169.29-110.01,31.43-18.05,63.5-35.01,96.35-50.35,31.06-14.51,57.71-25.41,93.9-37.29,32.44-10.65,65.56-19.29,99.18-25.28,28.2-5.02,59.37-7.87,94.59-7.93,23.54-.04,46.09-20.67,45-45s-19.77-45.04-45-45h0Z"/>
  <g class="cls-4">
    <path class="cls-1" d="m1200.71,81.88c-168.84-.44-328.57,75.66-471.22,165.99C455.91,421.1,213.3,664.06,108.12,970.31c-46.59,135.65-64.99,280.11-62.6,423.52,7.11,427.89,222.4,864.93,599.27,1067.68,347.81,187.12,776.14,154.84,1152.33,34.56,276.93-88.54,549.54-230.09,719.91-465.69,104.07-143.92,164.39-315.59,199.18-489.76,52.48-262.71,45.46-550.22-92.4-779.93-65.2-108.64-156.46-199.23-252.17-282.26-179.35-155.58-380.56-290.29-605.21-367.14-224.65-76.85-474.74-92.74-699.13-15.15"/>
    <path class="cls-2" d="m1200.71,36.88c-153.03.25-298.46,57.9-429.44,133.13-118.92,68.3-231.41,150.07-332.92,242.28C234.56,597.4,77.82,835.02,24.99,1108.01c-51.88,268.11-21.62,552.09,84.15,803.72,97.75,232.53,259.71,439.83,478.61,569.27,246.69,145.87,543.07,179.57,823.73,145.8,143.56-17.28,284.69-49.75,421.91-95.24,128.76-42.68,255.07-96.03,371.78-165.52s222.04-153.38,307.38-256.86c95.31-115.56,161.65-250.45,205.88-393.12,42.97-138.58,68.37-284.75,72.47-429.83,3.97-140.49-13.6-284.52-64.54-416.13-26.11-67.45-59.57-131.3-101.95-189.97-43.93-60.81-94.36-116.36-148.65-168.04-106.51-101.4-223.55-194.01-347.46-273.24C1876.57,77.86,1577.06-25.57,1275.28,5.63c-74.89,7.74-148.68,22.7-219.95,47.12-22.22,7.61-39.23,31.24-31.43,55.36,7.13,22.03,31.51,39.6,55.36,31.43,34.82-11.93,70.28-21.84,106.29-29.52,17.18-3.67,34.46-6.84,51.81-9.55,4.73-.74,9.47-1.44,14.22-2.11-8.35,1.16,7.22-.89,7.04-.87,9.52-1.15,19.05-2.16,28.6-3.03,73.46-6.71,147.59-5.3,220.85,3.08,4,.46,7.99.94,11.98,1.44,1.6.2,11.7,1.56,4.79.6,9.57,1.32,19.11,2.79,28.64,4.36,19.07,3.14,38.06,6.74,56.95,10.78,34.62,7.41,68.92,16.32,102.79,26.63,34.45,10.49,68.45,22.47,101.94,35.7,8.58,3.39,17.14,6.86,25.66,10.42-5.9-2.47,1.21.52,2,.86,4.24,1.83,8.47,3.66,12.7,5.51,16.89,7.43,33.64,15.17,50.25,23.21,63.77,30.86,125.42,66.04,184.9,104.49,56.78,36.71,116.02,79.69,163.71,117.63,55.61,44.24,109.77,90.59,161.11,139.74,25.7,24.61,50.63,50.04,74.32,76.6,11.3,12.66,22.32,25.58,33,38.77,11.61,14.34,17.03,21.44,29.27,38.77,19.7,27.9,37.7,56.98,53.63,87.19,7.23,13.71,14.05,27.64,20.46,41.75,1.83,4.02,3.6,8.07,5.38,12.12,5.84,13.22-3.04-7.89,2.32,5.53,3.28,8.2,6.54,16.39,9.62,24.67,23.67,63.6,39.57,130.02,48.87,197.21-1.3-9.39.63,5.15.7,5.7.36,2.95.71,5.9,1.04,8.86,1.01,8.87,1.91,17.75,2.7,26.65,1.59,17.84,2.75,35.71,3.52,53.6,1.47,34.44,1.47,68.94.14,103.39-1.3,33.79-3.86,67.53-7.54,101.15-.9,8.21-1.87,16.42-2.9,24.61-.06.45-2.03,15.13-.75,5.89-.41,2.97-.83,5.94-1.25,8.91-2.55,17.78-5.41,35.52-8.55,53.21-12.45,70.14-29.07,139.66-50.61,207.57-10.85,34.19-22.99,67.98-36.59,101.17-4.31,10.51-10.67,25.02-17.92,40.56-7.89,16.9-16.19,33.6-24.93,50.07-16.02,30.19-33.51,59.6-52.55,87.99-9.23,13.75-18.82,27.26-28.77,40.5-.32.43-8.85,11.5-3.28,4.36-2.6,3.34-5.24,6.66-7.89,9.96-5.29,6.6-10.68,13.12-16.14,19.58-41.8,49.33-88.56,94.34-138.76,135.06-5.47,4.43-10.98,8.8-16.51,13.15-10.93,8.58,6.85-5.04-4.28,3.28-3.39,2.53-6.75,5.09-10.15,7.61-13.6,10.1-27.42,19.91-41.42,29.45-26.95,18.36-54.59,35.69-82.77,52.08-55.52,32.29-113.14,60.9-172.03,86.49-3.94,1.71-7.88,3.4-11.83,5.09-12.99,5.56,7.99-3.26-5.07,2.12-6.61,2.72-13.22,5.45-19.86,8.13-15.91,6.41-31.9,12.62-47.97,18.63-30.69,11.49-61.65,22.27-92.81,32.41-65.15,21.21-131.23,39.62-198.05,54.78-33.35,7.57-66.89,14.33-100.58,20.21-16.47,2.87-32.97,5.54-49.51,7.99-4.51.67-9.02,1.29-13.53,1.95-14.81,2.16,8.74-1.07-6.09.84-9.03,1.16-18.06,2.29-27.11,3.33-68.98,7.95-138.45,11.93-207.89,11.11-34.41-.41-68.82-1.99-103.11-4.88-16.33-1.38-32.63-3.04-48.9-5.01-2.95-.36-5.9-.74-8.86-1.1-14.55-1.81,8.78,1.37-5.71-.78-9.55-1.42-19.09-2.83-28.61-4.4-66.45-11.01-132.04-27.41-195.58-49.81-15.38-5.42-30.64-11.19-45.76-17.32-.2-.08-13.73-5.66-5.72-2.3-4.11-1.73-8.2-3.52-12.29-5.31-8.18-3.6-16.32-7.31-24.4-11.12-29.31-13.82-57.98-29.03-85.81-45.64-25.81-15.4-50.91-31.98-75.21-49.66-5.27-3.83-10.5-7.71-15.69-11.64-.93-.7-11.16-8.69-3.28-2.49-3.07-2.41-6.14-4.83-9.19-7.26-11.68-9.34-23.15-18.95-34.42-28.79-44.59-38.96-85.86-81.69-123.55-127.35-4.98-6.04-9.9-12.12-14.76-18.26-1.62-2.05-3.23-4.1-4.84-6.16-8.02-10.23,5.26,7.12-2.52-3.31-9.39-12.58-18.72-25.17-27.7-38.04-17.26-24.72-33.59-50.1-48.97-76.03-15.44-26.03-29.93-52.63-43.47-79.7-6.49-12.98-12.76-26.07-18.82-39.26-2.75-6-5.46-12.03-8.13-18.07-1.6-3.63-3.16-7.27-4.75-10.9-4.27-9.76,2.06,5.14-1.64-3.86-23.2-56.4-42.92-114.1-58.54-173.05-7.81-29.49-14.64-59.23-20.47-89.18-2.79-14.31-5.35-28.67-7.68-43.06-1.06-6.54-2.07-13.09-3.03-19.64-.58-3.93-1.13-7.87-1.68-11.8,1.53,10.88-.74-5.85-.97-7.73-7.66-62.1-10.91-124.68-10.02-187.24,1.11-78.03,7.83-148.78,22.27-221.75,14.06-71.04,34.87-140.57,62.58-207.48-3.14,7.58.37-.87,1.18-2.73,1.38-3.2,2.78-6.39,4.19-9.57,3.38-7.64,6.86-15.23,10.42-22.79,7.11-15.1,14.56-30.03,22.33-44.8,14.25-27.06,29.58-53.55,45.88-79.42,17.08-27.1,35.22-53.52,54.29-79.25,2.49-3.36,5-6.71,7.53-10.05.39-.51,8.79-11.47,3.15-4.19,4.28-5.52,8.61-11,12.97-16.45,10.5-13.1,21.23-26.01,32.19-38.73,42.21-48.99,87.71-95.13,135.69-138.47,23.56-21.29,47.72-41.91,72.4-61.89,6.04-4.89,12.1-9.73,18.2-14.54,3.33-2.62,6.66-5.23,10-7.83-6.13,4.77,1.12-.86,2.63-2.01,12.89-9.86,25.91-19.55,39.04-29.07,54.47-39.5,110.93-76.5,169.29-110.01,31.43-18.05,63.5-35.01,96.35-50.35,31.06-14.51,57.71-25.41,93.9-37.29,32.44-10.65,65.56-19.29,99.18-25.28,28.2-5.02,59.37-7.87,94.59-7.93,23.54-.04,46.09-20.67,45-45s-19.77-45.04-45-45h0Z"/>
  </g>
  <path class="cls-2" d="m555.47,598.02c8.91,39.69,18.24,79.28,28,118.76s19.94,78.85,30.54,118.11c10.55,39.06,21.51,78.01,32.89,116.84,11.43,39.01,23.28,77.89,35.55,116.64,12.26,38.74,24.94,77.35,38.04,115.82,1.63,4.78,3.26,9.57,4.91,14.35,3.82,11.14,10.3,20.82,20.68,26.89,5.17,3.29,10.74,5.07,16.73,5.34,5.98,1.34,11.96,1.07,17.94-.8,10.89-3.52,21.39-10.27,26.89-20.68,5.46-10.33,8.46-23.24,4.54-34.68-13.19-38.43-25.98-77-38.35-115.71-12.37-38.72-24.33-77.57-35.86-116.54-11.48-38.8-22.55-77.72-33.2-116.75-10.71-39.23-20.99-78.57-30.85-118.03s-19.3-79.02-28.32-118.69c-1.12-4.93-2.24-9.87-3.34-14.81-1.39-5.86-4.08-10.96-8.05-15.3-3.17-4.9-7.38-8.76-12.63-11.59-5.17-3.29-10.74-5.07-16.73-5.34-5.98-1.34-11.96-1.07-17.94.8-10.89,3.52-21.39,10.27-26.89,20.68l-4.54,10.75c-2.14,7.98-2.14,15.95,0,23.93h0Z"/>
  <path class="cls-2" d="m444.88,1017.57c50.17-24.4,100.4-48.7,151.35-71.43,14.44-6.44,28.94-12.75,43.51-18.9l-10.75,4.54c37.88-15.97,76.23-30.86,115.22-43.92,38.66-12.95,77.94-24.1,117.8-32.68,22.31-4.8,44.8-8.77,67.42-11.82-3.99.54-7.98,1.07-11.96,1.61,25.81-3.45,51.77-5.68,77.8-6.54,11.77-.39,23.39-4.75,31.82-13.18,4.39-4.08,7.49-8.9,9.3-14.48,2.82-5.36,4.11-11.14,3.88-17.34-.52-11.64-4.34-23.71-13.18-31.82-8.64-7.93-19.78-13.58-31.82-13.18-42.98,1.41-85.9,6.55-128.19,14.22-38.69,7.02-76.89,16.61-114.49,28.08-38.06,11.61-75.53,25.12-112.49,39.87-40.31,16.08-80.14,33.42-119.58,51.54-36.19,16.63-72.07,33.91-107.89,51.31-4.4,2.14-8.79,4.27-13.19,6.41-5.24,2.83-9.45,6.69-12.63,11.59-3.98,4.35-6.66,9.45-8.05,15.3-1.88,5.98-2.14,11.96-.8,17.94.27,5.99,2.05,11.57,5.34,16.73,6.19,9.61,15.42,18.07,26.89,20.68,3.99.54,7.98,1.07,11.96,1.61,8.12-.03,15.69-2.07,22.71-6.14h0Z"/>
  <g class="cls-5">
    <path class="cls-3" d="m2333.22,1350.23c-58.59,16.86-118.58,28.18-177.33,44.38-57.37,15.82-112.76,37.61-167.01,61.96-98.43,44.19-191.2,99.61-285.99,150.88-53.16,28.76-107.07,56.25-162.78,79.77,5.37-2.27,10.75-4.54,16.12-6.8-46.49,19.52-94.44,34.54-141.95,51.27-28.98,10.21-57.68,21.53-85.46,34.68-21.4,10.13-41.66,22.25-61.83,34.6-22.36,13.68-44.77,27.41-68.9,37.8l16.12-6.8c-15.43,6.5-31.37,11.44-47.96,13.89,5.98-.8,11.96-1.61,17.94-2.41-2.01.27-4.02.51-6.04.73-9.29-.35-17.96,1.59-26.01,5.81-8.37,2.72-15.61,7.37-21.72,13.96l-10.55,13.66c-6.11,10.53-9.18,21.88-9.22,34.07-2.58,31.74-5.15,63.47-7.73,95.21-1.18,14.57-3.18,29.38-2.6,44.02,1.04,26.53,7.58,50.93,23.95,72.11,8.6,11.13,17.4,19.11,29.38,27.09,9.34,6.22,20.3,10.18,30.77,13.92,12.61,4.49,26.07,6.56,39.14,9.21,31.95,6.49,63.89,12.97,95.84,19.46,35.59,7.22,71.17,14.45,106.76,21.67-16.52-21.7-33.04-43.39-49.56-65.09.15,7.12.31,14.24.46,21.36.36,16.77,7.09,36.09,19.77,47.73,11.15,10.24,23.69,16.54,38.76,18.56s30.47.09,43.04-8.01c4.55-3.52,9.11-7.04,13.66-10.55,8.37-8.42,14.15-18.35,17.36-29.79,4.02-10.29,8.05-20.57,12.07-30.86,1.87-4.78,3.74-9.55,5.61-14.33,4.01-10.29,5.58-20.29,6.66-31.48,2.29-23.82-8.79-48.94-25.4-65.63-13.07-13.13-29.16-20.7-46.41-26.7-20.65-7.18-42.42-11.93-63.49-17.74-22.32-6.15-44.63-12.3-66.95-18.46-12.35-3.41-24.71-6.81-37.06-10.22-11.43-3.15-23.34-5.62-34.36-10.03l16.12,6.8c-4.88-2.1-9.46-4.6-13.72-7.77l13.66,10.55c-2.13-1.71-4.06-3.51-5.84-5.59,3.52,4.55,7.04,9.11,10.55,13.66-1.22-1.59-2.23-3.19-3.1-5l6.8,16.12c-.52-1.35-.88-2.58-1.16-4.01l2.41,17.94c-.14-1.47-.13-2.72.03-4.19l-2.41,17.94c.16-.99.41-1.95.76-2.88l-6.8,16.12c.66-1.56,1.35-2.84,2.31-4.23-3.52,4.55-7.04,9.11-10.55,13.66,1.07-1.27,2.1-2.29,3.38-3.35l-13.66,10.55c1.81-1.29,3.66-2.32,5.67-3.26l-16.12,6.8c8.51-3.5,17.77-4.99,26.56-7.64,9.94-3,19.65-6.63,29.22-10.64,24.11-10.1,47.22-21.15,69.52-34.8,36.44-22.3,70.56-48.22,105.61-72.58,72.58-50.47,147.12-98.33,225-140.25,43.29-23.3,87.61-44.55,132.88-63.71l-16.12,6.8c81.31-34.3,164.95-62.57,247.97-92.35,86.98-31.2,173.84-64.26,256.16-106.5,21.7-11.14,43.06-22.96,63.93-35.58,12.31-7.45,24.32-15.02,35.72-23.82,10.52-8.13,19.29-16.09,26.1-28.12,3.56-6.29,7-13.79,8.93-20.72,1.62-5.82,2.3-13.54,2.81-19.56.15-1.75.26-3.32.08-5.09-16.52,21.7-33.04,43.39-49.56,65.09.8-.3,1.63-.5,2.47-.61l-17.94,2.41c.77-.1,1.54-.1,2.31,0-5.98-.8-11.96-1.61-17.94-2.41.74.1,1.45.28,2.14.55-5.37-2.27-10.75-4.54-16.12-6.8,1.08.5,1.92,1.02,2.87,1.74-4.55-3.52-9.11-7.04-13.66-10.55.91.84,1.66,1.67,2.42,2.66-3.52-4.55-7.04-9.11-10.55-13.66.99,1.48,1.77,2.99,2.47,4.63l-6.8-16.12c.82,2.26,1.37,4.5,1.74,6.87l-2.41-17.94c.26,2.44.3,4.8.09,7.24l2.41-17.94c-.43,3.14-1.36,5.92-2.56,8.85,2.27-5.37,4.54-10.75,6.8-16.12-2.44,5.54-5.48,10.65-9.11,15.49l10.55-13.66c-5.67,7.24-12.29,13.44-19.53,19.1l13.66-10.55c-12.2,9.29-25.55,16.78-38.94,24.21-15.74,8.73-31.49,17.43-47.26,26.12-31.54,17.38-63.12,34.68-94.7,51.98-63.86,34.97-127.73,69.92-191.32,105.4-126.34,70.49-251.61,143.1-372.96,221.93-33.91,22.03-67.45,44.59-100.71,67.6-30.24,20.92-60.84,41.81-94.85,56.18l16.12-6.8c-16.03,6.62-32.58,11.59-49.76,14.11,5.98-.8,11.96-1.61,17.94-2.41-5.54.74-11.07,1.24-16.65,1.48,21.7,16.52,43.39,33.04,65.09,49.56l-.32-1.76,2.41,17.94c-.15-1.79-.14-3.36.04-5.15l-2.41,17.94c.32-1.73.74-3.26,1.33-4.92l-6.8,16.12c1.21-2.77,2.69-5.23,4.48-7.66l-10.55,13.66c3.58-4.46,7.74-8.25,12.2-11.81-4.55,3.52-9.11,7.04-13.66,10.55,27.5-21.23,55.86-41.42,83.78-62.09,27.33-20.24,54.64-40.5,82-60.7,51.37-37.92,103.25-75.39,158.33-107.79,30.79-18.11,62.55-34.54,95.43-48.51l-16.12,6.8c3.44-1.45,6.88-2.87,10.34-4.27-25.41-33.05-50.82-66.1-76.23-99.16-7.46,15.28-16.5,29.66-26.86,43.14l10.55-13.66c-19.35,24.91-42.7,46.21-67.58,65.47,4.55-3.52,9.11-7.04,13.66-10.55-37.32,28.72-77.76,52.98-117.03,78.88-42.31,27.9-84.98,57.9-119.21,95.59-20.46,22.53-39.2,47.56-52.49,75.04-6.11,10.53-9.18,21.88-9.22,34.07-.35,9.29,1.59,17.96,5.81,26.01,7.66,18.16,23.51,34.97,43.74,39.08s39.51,4.69,59.89-.82c13.87-3.75,27.57-10.09,39.81-17.68,21.57-13.38,40.89-30.57,60.96-46.09-4.55,3.52-9.11,7.04-13.66,10.55,89.83-69.37,182.55-134.99,277.89-196.57,95.85-61.91,194.36-119.51,294.96-173.32,29.28-15.66,58.69-31.07,88.12-46.43,28.39-14.81,56.59-30.18,86.12-42.64l-16.12,6.8c21.35-8.88,43.36-16.03,66.3-19.34l-17.94,2.41c13.22-1.75,26.46-2.16,39.75-.93-11.36-41.93-22.71-83.86-34.07-125.78-122.37,82.1-244.74,164.2-367.11,246.29-121.19,81.31-242.28,162.76-364.75,242.14-68.84,44.62-138.02,88.73-207.51,132.34-20.33,12.76-33.43,33.91-33.43,58.28s12.95,46.07,33.43,58.28c19.31,11.51,42,13.65,63.57,8.25,7.55-1.89,14.97-5.28,21.39-9.69,8.19-5.63,10.89-7.39,15.68-12.75,4.19-4.68,9.32-10.53,11.99-16.3,4.93-7.75,7.6-16.11,8.01-25.1,2.01-8.97,1.61-17.94-1.21-26.92-4.31-15.66-16.42-32.63-31.02-40.34-15.67-8.28-34.64-12.43-52.01-6.8-15.8,5.11-33.09,15.32-40.34,31.02-.36.94-.84,1.82-1.43,2.64,3.52-4.55,7.04-9.11,10.55-13.66-.59.81-1.26,1.54-2.02,2.2l13.66-10.55c-1.26.97-2.41,1.67-3.84,2.37,5.37-2.27,10.75-4.54,16.12-6.8-1.5.55-2.82.88-4.39,1.12l17.94-2.41c-1,.1-2.01.1-3.01-.01,5.98.8,11.96,1.61,17.94,2.41-1-.11-1.97-.33-2.91-.67l16.12,6.8c-.95-.34-1.84-.8-2.68-1.37v116.57c123.77-77.67,246.53-156.95,368.23-237.84s243.27-162.97,364.85-244.54c68.77-46.13,137.53-92.27,206.3-138.4,12.45-8.35,21.72-18.31,27.62-32.28,5.66-13.41,8.01-29.71,3.4-43.95-3.6-11.13-9.45-21.17-17.36-29.79-12.43-13.55-30.28-18.16-47.73-19.77-21.52-1.99-43.01.7-64.23,4.36-16.13,2.78-31.87,7.52-47.16,13.29-35.61,13.46-69.3,30.74-102.99,48.3-61.63,32.12-123.18,64.42-183.76,98.49-116.42,65.48-229.58,136.75-338.94,213.45-65.63,46.03-129.38,94.46-192.69,143.63,4.55-3.52,9.11-7.04,13.66-10.55-10.17,7.82-20.66,15.21-32.41,20.46l16.12-6.8c-5.69,2.37-11.45,4.12-17.56,4.99l17.94-2.41c-4.06.42-7.99.43-12.05-.02,5.98.8,11.96,1.61,17.94,2.41-1.37-.18-2.72-.42-4.06-.73,13.45,33.05,26.89,66.1,40.34,99.16,7.4-15.3,16.4-29.7,26.72-43.21-3.52,4.55-7.04,9.11-10.55,13.66,19.27-24.94,42.56-46.28,67.4-65.55l-13.66,10.55c37.28-28.76,77.7-53.03,116.97-78.9,42.34-27.9,85.05-57.88,119.38-95.51,20.51-22.48,39.3-47.51,52.69-74.95,5.18-10.62,9.22-22.08,9.22-34.07,0-15.03-5.42-29.15-14.49-40.9-7.36-9.53-15.9-16.1-27-20.79-12.67-5.35-30.67-8.78-43.95-3.4-38.61,15.64-76.1,33.25-112.24,53.97-31.72,18.19-62.38,38.16-92.43,58.98-62.85,43.56-123.71,90.06-185.16,135.55-17.74,13.14-35.59,26.15-53.23,39.41-16.53,12.43-28.96,22.31-40.44,39.73-5.09,7.73-8.8,16.69-11.22,25.56-4.4,16.13-2.92,28.33-.03,44.46l6.8,16.12c4.24,7.87,10.04,14.18,17.39,18.94,11.39,8.8,26.11,15.14,40.9,14.49,50.56-2.23,97.59-19.87,140.9-45.36,35.99-21.18,69.59-46.38,104.24-69.63,73.04-49.01,147.72-95.55,223.33-140.48,76.01-45.17,152.98-88.71,230.29-131.61,77.02-42.73,154.39-84.82,231.57-127.24,19.55-10.74,39.08-21.51,58.6-32.31,16.43-9.09,33.32-17.76,48.55-28.81,22.1-16.04,44.02-34.58,55.85-59.93,7.7-16.5,14.17-33.12,12.41-51.83-2.14-22.8-8.75-44.49-25.54-61.09-19.63-19.4-49.59-28.04-76.32-19.83-14.23,4.37-25.97,12.42-35.06,24.19-8.43,10.92-15.89,26.65-14.49,40.9.18,1.81.16,3.29-.08,5.09.8-5.98,1.61-11.96,2.41-17.94-.21,1.1-.53,2.16-.96,3.19,2.27-5.37,4.54-10.75,6.8-16.12-.75,1.61-1.55,3-2.54,4.46,3.52-4.55,7.04-9.11,10.55-13.66-2.28,2.93-4.86,5.4-7.74,7.74,4.55-3.52,9.11-7.04,13.66-10.55-13.84,10.56-29.6,19.16-44.65,27.88s-30.64,17.22-46.26,25.27c-31.57,16.27-63.87,31.06-96.58,44.89l16.12-6.8c-120.21,50.67-245.44,88.06-366.33,136.98-67.53,27.32-133.46,57.83-197.15,93.24-60.23,33.49-118.5,70.4-175.47,109.15-31.04,21.12-61.45,43.12-92.26,64.57-30.18,21.01-61.26,41-95.15,55.55l16.12-6.8c-10.55,4.44-21.31,8.39-32.32,11.55-14.65,4.21-29.05,7.23-42.56,15.01-26.15,15.07-42.48,43.18-42.74,73.34-.06,6.81,1.3,15.4,3.19,22.02s5.09,14.2,8.66,19.99c6.97,11.28,14.82,19.12,24.98,26.97,13.82,10.68,28.94,18.2,45.93,22.96,12.74,3.57,25.51,7.03,38.26,10.55,25.5,7.03,51.01,14.06,76.51,21.09,14.35,3.96,28.69,7.91,43.04,11.87,12.92,3.56,26.36,6.38,38.83,11.35l-16.12-6.8c3.64,1.56,7.01,3.34,10.2,5.71-4.55-3.52-9.11-7.04-13.66-10.55,1.65,1.37,3.1,2.8,4.45,4.46-3.52-4.55-7.04-9.11-10.55-13.66.93,1.33,1.66,2.58,2.36,4.04l-6.8-16.12c.67,1.76,1.05,3.29,1.38,5.16l-2.41-17.94c.14,2.21.08,4.14-.18,6.34l2.41-17.94c-1.9,9.98-6.59,19.54-10.28,28.96-3.88,9.92-7.76,19.84-11.64,29.76,44.2,5.98,88.39,11.96,132.59,17.94-.15-7.12-.31-14.24-.46-21.36-.33-15.14-5.27-28.96-14.49-40.9-8.46-10.95-21.06-21.35-35.06-24.19-42.87-8.7-85.73-17.4-128.6-26.11-21.03-4.27-42.06-8.54-63.08-12.81-18.37-3.73-37.79-6.17-55.19-13.43l16.12,6.8c-4.42-1.97-8.53-4.28-12.41-7.19l13.66,10.55c-2.82-2.29-5.29-4.77-7.55-7.62l10.55,13.66c-1.91-2.66-3.49-5.39-4.86-8.36l6.8,16.12c-1.99-4.84-3.2-9.77-3.95-14.94l2.41,17.94c-2.7-23.04,1.58-47.26,3.45-70.25,2.08-25.63,4.16-51.27,6.25-76.9l-67.5,67.5c24.51-2.64,47.32-6.89,70.09-16.25,22.52-9.26,43.91-19.64,64.84-32.04,34.37-20.36,67.64-41.5,104.53-57.19l-16.12,6.8c46.73-19.68,95.54-33.62,143.08-51.12,49.1-18.08,97.12-39.34,144.02-62.5,85.33-42.13,167.22-90.75,251.15-135.55,46.93-25.05,94.55-48.89,143.55-69.65l-16.12,6.8c35.05-14.78,70.77-27.98,107.26-38.76,40.77-12.04,82.31-21.18,123.65-31,23.79-5.65,47.53-11.56,71.03-18.33,16.44-4.73,31.67-16.2,40.34-31.02,8.47-14.47,12.05-35.79,6.8-52.01-5.29-16.33-15.41-32.09-31.02-40.34-15.97-8.44-34.26-11.91-52.01-6.8h0Z"/>
  </g>
  <g class="cls-5">
    <path class="cls-3" d="m1589.03,1524.63c32.13-10.3,62.28-25.21,93.25-38.37l-16.12,6.8c11.81-4.97,23.82-9.39,36.03-13.3-17.34-41.12-34.68-82.25-52.01-123.37-15.93,8.99-31.68,20.06-44.04,33.61-9.23,10.11-16.64,21.64-24.92,32.49l10.55-13.66c-2.47,3.18-5.17,6.1-8.32,8.61,4.55-3.52,9.11-7.04,13.66-10.55-3.38,2.6-7.05,4.61-10.97,6.28l16.12-6.8c-9.29,3.79-19.22,5.66-29.12,7.09,11.96,43.39,23.93,86.79,35.89,130.18,18-3.79,35.95-8,53.28-14.22,12.19-4.37,24.2-8.96,36.72-12.37,24.84-6.76,50.29-11.35,75.48-16.64,27.82-5.84,55.63-11.72,83.42-17.71,110.84-23.89,221.08-50.02,330.08-81.31,59.83-17.17,119.87-34.52,181.69-42.9l-17.94,2.41c23.45-3.11,46.83-3.9,70.4-5.33,30.11-1.82,61.97-7.23,86.79-25.72,7.12-5.3,14.95-10.88,21.31-17.34s12.55-14.92,18-22.37c4.76-6.51,8.7-13.52,11.92-20.9,5.54-12.7,10.98-25.23,14.49-38.63,2.22-8.49,3.8-17.13,5.02-25.81,1.95-13.93,3.88-27.83,4.66-41.88.9-16.29-.4-31.47-3.15-47.72-3.51-20.71-14.91-38.58-28.25-54.26-9.08-10.66-21.18-19.45-33.45-26.11-22.82-12.39-48.38-19.93-73.46-26.22-22.48-5.65-45.26-10.02-68.14-13.65-57.85-9.18-116.21-14.31-174.25-22.1l17.94,2.41c-65.06-8.8-128.73-24.47-193.24-36.32-64.67-11.89-130.2-19.29-195.97-20.08-34.44-.41-68.88.68-103.29,2.19-16.99.75-35.84,6.82-47.73,19.77l-10.55,13.66c-6.11,10.53-9.18,21.88-9.22,34.07,10.45,89.35-4.8,178.48-14.53,267.15-1.24,11.3-2.39,22.62-3.39,33.94-.43,4.84-1.16,9.8-1.15,14.67.05,20.82,7.59,39.51,21.85,54.68,13.84,14.71,35.47,21.89,55.29,20.96,5.49-.25,10.97-.54,16.45-.82,11.28-.56,22.56-1.12,33.83-1.7,44.53-2.26,89.06-4.65,133.56-7.51,94.68-6.07,189.03-14.78,283.05-27.53,44.06-5.97,87.97-13.06,131.61-21.58,21.53-4.2,43-8.75,64.38-13.68,9.86-2.27,19.78-4.48,29.43-7.53,9.29-2.94,18.23-6.93,27.16-10.81,4.75-2.06,9.37-4.35,13.7-7.19,16.86-11.08,29.52-23.32,40.53-40.26s15.14-35.17,16.71-54.53c1.47-18.21-4.27-39.51-13.85-55.02s-23-28.92-38.91-37.54c-11.3-6.12-24.01-11.2-36.7-13.94-13.97-3.01-28.3-4.35-42.47-6.03-22.56-2.67-45.1-5.47-67.63-8.37-11.11-1.43-22.22-2.9-33.32-4.39,5.98.8,11.96,1.61,17.94,2.41-80.19-10.78-160.18-23.02-239.92-36.75-39.87-6.87-79.67-14.1-119.41-21.7-19.87-3.8-39.72-7.69-59.55-11.68-13.71-2.75-27.58-5.55-41.57-6.25-8.86-.44-18.59,1.35-26.91,2.77-1.76.3-3.48.65-5.18,1.22-6.75,2.27-14.11,5.13-20.33,8.65s-11.88,8.29-16.95,12.81c-1.39,1.24-2.57,2.55-3.74,3.99-10.24,12.72-15.64,21.13-21.01,37.04-4.24,12.57-4.82,26.64-4.95,39.89-.21,20.34-.38,40.67-.57,61.01-.09,10.01-.19,20.02-.28,30.04-.13,14.35-.31,28.57,3.47,42.67s10.91,25.68,20.58,36.57c4.64,5.23,10.91,9.6,16.64,13.47,6.12,4.14,15,7.29,20.99,9.51,8.4,3.11,17.38,4.63,26.21,5.92,25.1,3.67,49.51,5.25,74.83,4.66,20.25-.48,40.49-1.2,60.74-1.81,40.87-1.24,81.73-2.48,122.6-3.72,81.73-2.48,163.47-4.96,245.2-7.44,10.06-.31,20.12-.61,30.18-.92,16.86-.51,35.99-6.99,47.73-19.77,3.52-4.55,7.04-9.11,10.55-13.66,4.93-7.75,7.6-16.11,8.01-25.1,1.61-5.98,1.61-11.96,0-17.94-.41-8.98-3.08-17.35-8.01-25.1-9.73-15.1-23.02-25.57-40.34-31.02-71.87-22.61-147.34-31.69-222.02-39.37-72.24-7.42-144.54-14.19-216.81-21.25-41.1-4.02-82.24-8.21-123.57-8.47-17.24-.11-35.56,7.6-47.73,19.77-6.58,6.11-11.23,13.36-13.96,21.72-4.23,8.04-6.16,16.71-5.81,26.01.78,17.46,6.52,35.56,19.77,47.73s29.4,19.66,47.73,19.77c53.24.33,106.29,6.78,159.21,11.95,52.92,5.17,105.85,10.3,158.77,15.52,28.7,2.83,57.38,5.8,85.97,9.61l-17.94-2.41c47.5,6.38,94.75,15.19,140.52,29.59l17.94-132.59c-67.27,2.04-134.55,4.08-201.82,6.12s-133.92,4.06-200.88,6.1c-36.83,1.12-74.44,4.35-111.12-.33l17.94,2.41c-9.37-1.28-19.13-2.73-27.99-6.17l16.12,6.8c-1.73-.77-3.31-1.62-4.87-2.7,4.55,3.52,9.11,7.04,13.66,10.55-1.12-.92-2.04-1.81-2.98-2.92l10.55,13.66c-.82-1.16-1.47-2.25-2.09-3.53l6.8,16.12c-.88-2.2-1.44-4.38-1.82-6.71.8,5.98,1.61,11.96,2.41,17.94-1.2-9.77-.37-19.91-.28-29.72.11-11.26.21-22.53.32-33.79s.2-21.9.31-32.85c.09-9.87-.31-19.89.87-29.71-.8,5.98-1.61,11.96-2.41,17.94.54-3.72,1.37-7.27,2.8-10.75l-6.8,16.12c.77-1.66,1.64-3.19,2.67-4.7l-10.55,13.66c1.42-1.84,2.96-3.39,4.79-4.82l-13.66,10.55c1.47-1.01,2.96-1.85,4.58-2.59l-16.12,6.8c2.51-.99,5.02-1.61,7.69-2.01l-17.94,2.41c4.68-.52,9.3-.3,13.96.26-5.98-.8-11.96-1.61-17.94-2.41,17.08,2.31,34.02,6.55,50.93,9.86,18.02,3.52,36.05,6.97,54.1,10.35,36.1,6.75,72.25,13.19,108.45,19.33,72.1,12.22,144.41,23.24,216.88,33.05,45.61,6.17,91.34,11.41,136.96,17.45l-17.94-2.41c9.9,1.36,19.76,3.27,29.01,7.17l-16.12-6.8c3.79,1.68,7.34,3.67,10.66,6.15-4.55-3.52-9.11-7.04-13.66-10.55,2.55,2.03,4.8,4.26,6.8,6.82l-10.55-13.66c1.5,2.06,2.75,4.19,3.84,6.5-2.27-5.37-4.54-10.75-6.8-16.12,1.22,2.94,2.02,5.86,2.47,9l-2.41-17.94c.32,3.14.28,6.18-.09,9.32l2.41-17.94c-.63,4.09-1.77,7.97-3.37,11.78l6.8-16.12c-1.74,3.83-3.86,7.39-6.39,10.76l10.55-13.66c-2.97,3.76-6.31,7-10.09,9.94l13.66-10.55c-5.44,4.02-11.3,7.21-17.5,9.87l16.12-6.8c-13.29,5.47-27.39,8.53-41.36,11.74-16.04,3.69-32.12,7.17-48.25,10.44-31.63,6.43-63.42,12.08-95.31,17.08-18.35,2.88-36.74,5.54-55.16,8.01l17.94-2.41c-116.79,15.63-234.43,23.61-352.05,29.9-16.46.88-32.93,1.73-49.4,2.56-7.92.4-15.85.8-23.78,1.19s-16.34,1.36-24.42,1.09l17.94,2.41c-.82-.05-1.6-.27-2.34-.64l16.12,6.8-.91-.64,13.66,10.55-.72-.81c3.52,4.55,7.04,9.11,10.55,13.66l-.54-.95,6.8,16.12c-.31-.7-.52-1.43-.64-2.19l2.41,17.94c-.52-4.32.2-8.76.57-13.07.44-5.21.91-10.42,1.41-15.62,1.03-10.7,2.18-21.39,3.39-32.07,2.39-21,5.03-41.97,7.51-62.95,4.86-41.09,9.13-82.34,9.57-123.75.25-23.82-.8-47.63-3.57-71.29l-67.5,67.5c58.73-2.58,117.56-3.7,176.21,1.19,16.83,1.4,33.61,3.27,50.34,5.51l-17.94-2.41c50,6.79,99.22,17.66,148.62,27.8,53.58,11,107.46,18.9,161.79,25.22,27.28,3.17,54.58,6.15,81.8,9.8-5.98-.8-11.96-1.61-17.94-2.41,25.64,3.46,51.21,7.52,76.51,12.98,23.38,5.04,47.38,10.58,69.49,19.89l-16.12-6.8c7.28,3.16,14.23,6.89,20.54,11.72l-13.66-10.55c3.55,2.84,6.77,5.94,9.63,9.47-3.52-4.55-7.04-9.11-10.55-13.66,2.63,3.42,4.77,7.05,6.51,10.99l-6.8-16.12c2.03,5.06,3.27,10.25,4,15.65-.8-5.98-1.61-11.96-2.41-17.94,1.9,16.62.23,33.96-1.98,50.49.8-5.98,1.61-11.96,2.41-17.94-2.21,15.93-5.8,31.68-11.96,46.57l6.8-16.12c-3.56,8.38-7.91,16.34-13.4,23.61l10.55-13.66c-4.21,5.42-8.96,10.29-14.36,14.53,4.55-3.52,9.11-7.04,13.66-10.55-5.08,3.84-10.51,6.96-16.37,9.45l16.12-6.8c-7.36,2.93-14.96,4.69-22.8,5.8l17.94-2.41c-14.55,1.87-29.25,1.72-43.88,2.62-20.64,1.27-41.1,4-61.57,6.86-29.9,4.18-59.46,10.49-88.73,17.81-59.93,14.99-118.92,33.57-178.67,49.27s-121.68,30.33-182.88,43.96c-61.22,13.63-122.61,26.46-184,39.33-19.44,4.08-38.73,8.7-57.4,15.57-14.96,5.51-29.86,10.49-45.39,14.23-6.66,1.61-13.36,3.08-20.06,4.49-8.78,2.09-16.44,6.12-22.95,12.08-7.35,4.76-13.14,11.07-17.39,18.94-4.93,7.75-7.6,16.11-8.01,25.1-2.01,8.97-1.61,17.94,1.21,26.92,5.29,16.33,15.41,32.09,31.02,40.34,5.37,2.27,10.75,4.54,16.12,6.8,11.96,3.21,23.93,3.21,35.89,0,8.89-1.29,17.83-2.9,26.29-5.99,7.95-2.91,16.03-6.08,23.53-10.06,4.81-2.56,8.91-6.07,13.22-9.4,4-3.09,8.12-5.95,11.57-9.64,5.34-5.7,9.91-12.25,14.55-18.46,3-4.01,5.78-8.18,8.83-12.16-3.52,4.55-7.04,9.11-10.55,13.66,5-6.42,10.72-12.1,17.11-17.14-4.55,3.52-9.11,7.04-13.66,10.55,5.82-4.49,11.99-8.42,18.39-12.03,7.87-4.24,14.18-10.04,18.94-17.39,5.97-6.52,9.99-14.17,12.08-22.95.8-5.98,1.61-11.96,2.41-17.94.35-9.29-1.59-17.96-5.81-26.01-1.6-5.72-4.5-10.68-8.68-14.89-4.76-7.35-11.07-13.14-18.94-17.39-15.69-8.29-34.61-12.38-52.01-6.8-32.13,10.3-62.28,25.21-93.25,38.37l16.12-6.8c-11.81,4.97-23.82,9.39-36.03,13.3-16.6,5.32-31.41,15.75-40.34,31.02-4.93,7.75-7.6,16.11-8.01,25.1-2.01,8.97-1.61,17.94,1.21,26.92,5.29,16.33,15.41,32.09,31.02,40.34,15.69,8.29,34.61,12.38,52.01,6.8h0Z"/>
  </g>
  <g class="cls-5">
    <path class="cls-3" d="m1504.82,1586.41c.46-31.04.92-62.08,1.37-93.12.35-9.29-1.59-17.96-5.81-26.01-2.72-8.37-7.37-15.61-13.96-21.72l-13.66-10.55c-10.53-6.11-21.88-9.18-34.07-9.22-35.33-.58-70.66-1.16-106-1.74-34.77-.57-69.67-2.03-104.44-1.06-24.93.7-50.11,3.35-74.48,8.65l-16.12,6.8c-7.87,4.24-14.18,10.04-18.94,17.39-4.18,4.21-7.08,9.18-8.68,14.89-4.23,8.04-6.16,16.71-5.81,26.01,1.8,25.47,2.24,51.02,1.31,76.53-.35,9.29,1.59,17.96,5.81,26.01,2.72,8.37,7.37,15.61,13.96,21.72l13.66,10.55c7.75,4.93,16.11,7.6,25.1,8.01,5.98,1.61,11.96,1.61,17.94,0,8.98-.41,17.35-3.08,25.1-8.01l13.66-10.55c8.37-8.42,14.15-18.35,17.36-29.79,1.69-7.41,3.38-14.81,5.07-22.22,1.52-6.64,2.48-13.79,5.01-20.13l-6.8,16.12c.5-1.09,1.05-2.09,1.75-3.06l-10.55,13.66c.59-.7,1.16-1.27,1.87-1.85l-13.66,10.55c.53-.39,1.1-.73,1.69-1.01-5.37,2.27-10.75,4.54-16.12,6.8,1.57-.66,3.12-1.03,4.8-1.29-5.98.8-11.96,1.61-17.94,2.41,12.44-1.5,25.05-2.09,37.54-3.11,12.95-1.05,25.9-2.1,38.85-3.15,25.49-2.07,50.97-4.14,76.46-6.21,14.59-1.19,29.19-2.37,43.78-3.56,9.29.35,17.96-1.59,26.01-5.81,8.37-2.72,15.61-7.37,21.72-13.96,3.52-4.55,7.04-9.11,10.55-13.66,6.11-10.53,9.18-21.88,9.22-34.07,2.13-19.81,4.25-40.16,3.4-60.11-.63-14.87-2.53-30.09-7.42-44.21-2.9-8.37-6.42-16.6-7.71-25.42l2.41,17.94c-.36-2.92-.44-5.81-.12-8.74l-2.41,17.94c.34-2.3.9-4.46,1.75-6.62l-6.8,16.12.41-.93c-19.43,11.14-38.86,22.29-58.28,33.43,9.93.75,19.89.47,29.79-.59,15.52-1.66,31.05-3.85,46.32-7.18,19.42-4.23,38.61-9.63,57.84-14.65,19.5-5.09,38.99-10.18,58.49-15.27,9.55-2.49,19.1-4.99,28.65-7.48,9.24-2.41,19.04-4.16,27.94-7.63,14.3-5.57,21.57-8.34,32.85-19.23,5.22-5.04,9.92-10.9,13.18-17.38,7.32-14.53,8.84-21.3,10.04-37.73.17-2.35.06-4.67-.07-7.02-.55-9.79-1.06-19.58-1.49-29.38-.88-20-1.5-40.01-1.86-60.03-.71-40.04-.36-80.09,1.05-120.11,1.59-45.33,4.55-90.6,8.84-135.75-.04-12.18-3.11-23.54-9.22-34.07-4.24-7.87-10.04-14.18-17.39-18.94-6.52-5.97-14.17-9.99-22.95-12.08-11.96-3.21-23.93-3.21-35.89,0-40.82,12.74-83.03,20.02-125.34,25.72,5.98-.8,11.96-1.61,17.94-2.41-39.98,5.36-80.07,9.73-120.03,15.25-35.04,4.84-69.7,11.54-104.31,18.84-71.16,15.01-142.29,30.13-213.44,45.19-4.48.95-9.1,1.66-13.5,2.96-12.53,3.71-23.57,9.85-32.85,19.12-4.46,4.46-8.6,9.51-11.63,15.01-.31.5-.57,1.02-.79,1.57-2.27,5.37-4.54,10.75-6.8,16.12-.68,2-1.08,3.99-1.4,6.08-1.21,8.07-2.47,16.17-3.15,24.31-.39,4.62-.47,9.27-.33,13.91.77,25.23,6.53,50.06,9.92,75l-2.41-17.94c3.18,24.09,1.69,48-1.51,72l2.41-17.94c-3.68,27.26-8.61,54.39-10.93,81.82-1.85,21.94-1.59,44.06.78,65.96.28,2.61.6,5.22.94,7.82,1.01,7.8,1.35,16.11,3.5,23.77.98,3.49,2.79,7.05,4.12,10.2s2.71,7.22,4.61,10.43c1.46,2.46,5.94,7.76,5.78,7.55-.87-1.13,3.91,5.55,5.84,7.52.44.45.87.85,1.34,1.27l13.66,10.55.77.56c3.23,2.04,7.26,3.34,10.58,4.74s6.81,3.14,10.34,4.2c2.35.7,4.78,1.15,7.18,1.6,10.71,2,21.56,3.41,32.41,4.4,26.01,2.37,52.2-1.55,77.86-5.41,23.42-3.52,46.57-8.63,70.03-11.84-5.98.8-11.96,1.61-17.94,2.41,18.43-2.47,36.77-3.23,55.34-2.32s37.72,2.8,56.61,1.86c23.93-1.19,47.25-5.28,69.38-14.39,22.71-9.36,45-19.63,67.37-29.76,16.89-7.65,33.88-15.1,50.66-22.99,7.32-3.44,14.56-7.14,21.29-11.65,10.89-7.31,22.33-15.54,30.68-25.9,5.6-6.95,11.77-14.25,16.24-22.19,4.86-8.63,8.5-18.11,11.98-27.3,2.81-7.43,4.7-15.18,6.14-22.99,4.48-24.4,6.72-49.11,6.81-73.9.08-21.4-.71-42.8-1.22-64.19-.52-22.04-1.04-44.08-1.56-66.11.35-9.29-1.59-17.96-5.81-26.01-2.72-8.37-7.37-15.61-13.96-21.72-4.55-3.52-9.11-7.04-13.66-10.55-10.53-6.11-21.88-9.18-34.07-9.22-18.89.66-37.64,3.24-56.37,5.6-19.17,2.41-38.34,4.82-57.51,7.23-38.34,4.82-76.67,9.64-115.01,14.46-37.93,4.77-75.86,9.54-113.79,14.31-9.79,1.23-19.58,2.46-29.36,3.69-4.49.56-8.97,1.12-13.46,1.69-8.19,1.04-19.13,1.45-27.62,4.51-6.77,2.44-13.86,4.88-19.93,8.86-11.79,7.72-14,10.25-21.39,19.82s-9.71,13.34-13.84,26.28c-2.41,7.56-2.82,15.71-3.53,23.58-.81,9.02-.69,18.2-.99,27.25-1.29,38.54-2.59,77.08-3.88,115.62-.63,18.8-1.76,37.73-1.44,56.53.26,15.25,3.28,28.56,10.55,41.93,3.27,6.02,7.61,11.62,12.44,16.46,8.42,8.41,21.83,16.85,33.57,19.51,17.74,4.02,26.37,3.01,44.09-.06,4.66-.81,9.29-1.88,13.92-2.83,75.87-15.55,151.74-31.09,227.6-46.64,18.97-3.89,37.94-7.77,56.9-11.66,6.62-1.36,13.22-2.84,19.61-5.07,8.17-2.86,16.28-6.27,24.04-10.08s14.72-9.96,21.43-15.27c13.97-11.07,22.31-27.6,28.08-44.02.62-1.76,1.03-3.57,1.36-5.4,1.39-7.69,2.6-15.65,2.98-23.52.22-4.62-.05-9.25-.22-13.86-.72-19.26-1.45-38.53-2.17-57.79-.35-9.43-.71-18.85-1.06-28.28-.8-5.98-1.61-11.96-2.41-17.94l-6.8-16.12-10.55-13.66c-6.11-6.58-13.36-11.23-21.72-13.96-5.26-3.05-10.94-4.59-17.03-4.61-5.98-1.61-11.96-1.61-17.94,0-6.09.02-11.77,1.55-17.03,4.61-8.37,2.72-15.61,7.37-21.72,13.96-2.16,2.02-4.4,3.92-6.73,5.73,4.55-3.52,9.11-7.04,13.66-10.55-6.77,5.15-14.15,9.3-21.96,12.66l16.12-6.8c-12.25,5.14-25.18,8.23-38.32,10.01,5.98-.8,11.96-1.61,17.94-2.41-25.01,3.27-50.26,1.58-75.39,1.41-31.18-.22-61.95,4.2-92.53,10.03-13.89,2.65-27.76,5.42-41.77,7.33,5.98-.8,11.96-1.61,17.94-2.41-15.6,2.06-31.34,2.93-47.02,1.21-9.29-.35-17.96,1.59-26.01,5.81-8.37,2.72-15.61,7.37-21.72,13.96-3.52,4.55-7.04,9.11-10.55,13.66-6.11,10.53-9.18,21.88-9.22,34.07-2.29,26.42-1.95,52.99,1.01,79.34l2.41,17.94c2.09,8.78,6.12,16.44,12.08,22.95,3,5.07,7.04,9.11,12.11,12.11,6.52,5.97,14.17,9.99,22.95,12.08,2.13.9,4.28,1.61,6.55,2.07,7.76,1.57,15.7,2.76,23.63,3.08,2.1.08,4.21,0,6.31-.21,7.74-.77,15.61-1.73,23.25-3.2,9.25-1.78,18.02-5.33,26.9-8.36,17.76-6.07,36.25-9.59,54.81-12.13-5.98.8-11.96,1.61-17.94,2.41,22.59-3.04,45.34-4.63,67.94-7.51,17.02-2.16,34.14-4.26,50.92-7.89,5.43-1.18,10.83-2.51,16.17-4.04,2.68-.77,5.34-1.59,7.98-2.46,1.15-.38,2.29-.77,3.43-1.18,4.79-1.75,12.48-4.71,16.91-7.16.5-.28.96-.59,1.44-.9-3.14,2.02,10.29-7.11,14.25-11.1,9.4-9.49,10.1-12.15,14.4-22.34s3.35-6.33,4.89-17.73c1.46-10.88,2.79-15.24-1.13-27.69-1.05-3.35,1.46,3.24-3.5-8.51-.72-3.07-1.93-5.87-3.63-8.41l-10.55-13.66c-4.55-3.52-9.11-7.04-13.66-10.55l-.33-.25c-5.37-2.27-10.75-4.54-16.12-6.8-.2-.11-.4-.18-.63-.2-.72-.2-17.31-2.45-18.17-2.45-2.52-.02-16.14,1.78-18.63,2.44-3.16.84-3.82,1.51-8.69,3.57-2.96.88-5.75,2.08-8.4,3.59l-13.66,10.55-.12.12c-4.07,4.15-7.63,8.74-10.67,13.78-1.21,2.29-6.15,14.02-6.91,16.41-.8,5.98-1.61,11.96-2.41,17.94.8,5.98,1.61,11.96,2.41,17.94,1.33,5.92,3.83,11.67,7.08,16.82,4.24,7.87,10.04,14.18,17.39,18.94,6.52,5.97,14.17,9.99,22.95,12.08,8.97,2.81,17.94,3.21,26.92,1.21,8.98-.41,17.35-3.08,25.1-8.01,4.55-3.52,9.11-7.04,13.66-10.55,8.37-8.42,14.15-18.35,17.36-29.79l2.41-17.94c-.04-12.18-3.11-23.54-9.22-34.07l-.23-.36,6.8,16.12-.05-.33v35.89l.11-.29c-5.79,9.93-11.57,19.86-17.36,29.79l.24-.24-13.66,10.55.34-.19-16.12,6.8c.27-.11.56-.18.85-.2l-17.94,2.41h.46c-5.98-.8-11.96-1.6-17.94-2.41.3.02.58.1.85.24l-16.12-6.8.33.25c-8.07-8.07-16.14-16.14-24.22-24.22l.23.35-6.8-16.12.1.45-2.41-17.94-.07.78,2.41-17.94-.28.7,6.8-16.12-.45.62,10.55-13.66-.58.55,13.66-10.55c-.73.51-1.41.88-2.23,1.25l16.12-6.8c-17.91,6.71-37.25,10.01-56.13,12.58l17.94-2.41c-20.93,2.81-41.99,4.39-62.95,6.89-26.34,3.14-53.11,6.36-78.48,14.51-11.2,3.6-22.09,8.37-33.8,10.13l17.94-2.41c-3.85.51-7.67.64-11.54.22l17.94,2.41c-3.17-.44-6.17-1.25-9.12-2.49,16.52,21.7,33.04,43.39,49.56,65.09-2.97-26.35-3.3-52.92-1.01-79.34l-67.5,67.5c25.64,2.83,51.74-1.24,76.98-5.43,20.1-3.34,39.98-7.91,60.18-10.67l-17.94,2.41c28.05-3.73,56.11-1.82,84.29-1.86,18.67-.03,36.69-2.02,55.19-4.69,11.46-1.65,22.83-4.35,33.61-8.62s22.55-8.79,32.76-15.05c2.78-1.7,5.44-3.57,8.04-5.53,6.91-5.22,14.04-10.36,20.39-16.29-38.41-15.91-76.82-31.82-115.23-47.73.66,17.62,1.32,35.25,1.99,52.87.32,8.61.65,17.21.97,25.82s1.16,17.22.1,25.71l2.41-17.94c-.44,2.88-1.13,5.64-2.24,8.33,2.27-5.37,4.54-10.75,6.8-16.12-1,2.24-2.23,4.31-3.71,6.27,3.52-4.55,7.04-9.11,10.55-13.66-1.85,2.32-3.95,4.33-6.3,6.14l13.66-10.55c-3.37,2.5-7.01,4.46-10.85,6.13,5.37-2.27,10.75-4.54,16.12-6.8-7.2,3.02-14.77,4.93-22.39,6.52-10.76,2.24-21.53,4.41-32.3,6.62-21.99,4.51-43.99,9.01-65.98,13.52-43.79,8.97-87.57,17.94-131.36,26.92-12.11,2.48-24.21,4.96-36.32,7.44-12.05,2.47-24.17,5.62-36.36,7.33l17.94-2.41c-1.55.17-3.05.23-4.6.1l17.94,2.41c-.91-.14-1.71-.32-2.58-.6l16.12,6.8c-.86-.37-1.54-.76-2.31-1.3l13.66,10.55c-.45-.36-.86-.76-1.22-1.21,3.52,4.55,7.04,9.11,10.55,13.66-.52-.71-.92-1.37-1.31-2.17l6.8,16.12c-.55-1.39-.88-2.76-1.11-4.24l2.41,17.94c-.68-6.18-.12-12.59,0-18.8s.31-12.98.5-19.47c.4-13.43.87-26.87,1.32-40.3.91-27.28,1.83-54.56,2.74-81.84.25-7.59.51-15.18.76-22.77s.02-14.63.97-21.8l-2.41,17.94c.27-1.59.65-3.08,1.24-4.58l-6.8,16.12c.42-.88.86-1.65,1.41-2.45-3.52,4.55-7.04,9.11-10.55,13.66.74-.92,1.53-1.7,2.45-2.44l-13.66,10.55c.96-.67,1.94-1.22,3-1.72l-16.12,6.8c3.09-1.28,6.31-1.87,9.61-2.32-5.98.8-11.96,1.61-17.94,2.41,50.44-6.49,100.92-12.69,151.38-19.04,50.16-6.31,100.33-12.61,150.49-18.92,28.05-3.53,56.23-8.15,84.51-9.13l-67.5-67.5c.54,23.06,1.09,46.12,1.63,69.17.54,22.76,1.47,45.55,1.07,68.32-.22,12.75-.97,25.49-2.65,38.14l2.41-17.94c-1.71,12.44-4.17,24.84-8.96,36.49l6.8-16.12c-2.42,5.69-5.38,11.07-9.09,16.02,3.52-4.55,7.04-9.11,10.55-13.66-3.71,4.78-8.01,8.94-12.78,12.66l13.66-10.55c-8.33,6.34-17.63,11.17-27.08,15.58-10.58,4.94-21.26,9.66-31.89,14.48-22.29,10.09-44.44,20.62-66.98,30.15l16.12-6.8c-12.79,5.36-25.82,9.65-39.58,11.59l17.94-2.41c-27.02,3.59-54.15-.36-81.22-.99-32.04-.75-64.03,4.81-95.45,10.51-14.62,2.65-29.23,5.41-43.96,7.42,5.98-.8,11.96-1.61,17.94-2.41-20.04,2.69-40.3,3.89-60.41,1.21,5.98.8,11.96,1.61,17.94,2.41-5.56-.78-11.42-1.52-16.69-3.56l16.12,6.8c-1.18-.53-2.24-1.13-3.29-1.9l13.66,10.55c-.71-.62-1.3-1.23-1.9-1.96l10.55,13.66c-.69-.99-1.23-1.99-1.71-3.09l6.8,16.12c-.97-2.58-1.43-5.25-1.8-7.97l2.41,17.94c-4.17-32.11-3.47-64.25.82-96.3l-2.41,17.94c3.46-25.47,7.9-50.83,10.41-76.43.98-10.02,1.57-20.09,1.41-30.17-.24-15.49-2.61-30.86-4.82-46.15-1.63-11.29-3.75-22.5-5.28-33.8l2.41,17.94c-1.67-12.71-2.51-25.52-.91-38.29l-2.41,17.94c.36-2.65.72-5.29,1.64-7.82l-6.8,16.12c.38-.83.76-1.53,1.29-2.27l-10.55,13.66c.36-.46.77-.86,1.24-1.22-4.55,3.52-9.11,7.04-13.66,10.55.48-.36,1-.65,1.55-.88l-16.12,6.8c4.9-1.83,10.44-2.45,15.54-3.53l16.29-3.45c11.06-2.34,22.12-4.68,33.17-7.02,22.32-4.73,44.64-9.45,66.95-14.18,44.1-9.34,88.13-19.09,132.36-27.79,24.4-4.8,48.91-8.81,73.55-12.13l-17.94,2.41c63.77-8.55,128.22-13.8,191.18-27.49,16.3-3.54,32.47-7.72,48.4-12.69-28.48-21.7-56.96-43.39-85.44-65.09-4.37,45.96-7.35,92.06-8.93,138.2-1.57,46.14-1.74,92.34-.5,138.49.35,13.07.82,26.14,1.39,39.2.28,6.33.59,12.65.92,18.98s1.29,12.36.53,18.37c.8-5.98,1.61-11.96,2.41-17.94-.18.95-.39,1.8-.71,2.71l6.8-16.12c-.4.9-.81,1.62-1.37,2.42l10.55-13.66c-.62.71-1.21,1.26-1.96,1.84,4.55-3.52,9.11-7.04,13.66-10.55-.77.51-1.52.92-2.36,1.32l16.12-6.8c-5.45,2.27-11.5,3.33-17.2,4.82-6.57,1.71-13.13,3.43-19.7,5.14-12.93,3.38-25.86,6.75-38.79,10.13-25.57,6.68-51.12,13.47-76.73,20.02-14.17,3.63-28.43,6.95-42.94,8.96l17.94-2.41c-11.86,1.58-23.78,2.21-35.72,1.31-12.18.04-23.54,3.11-34.07,9.22-10.14,6-18.21,14.07-24.22,24.22-3.16,7.22-7.32,14.76-8.82,22.72-1.41,7.48-3.01,15.84-2.77,23.73.33,10.72,1.97,21.93,5.19,32.27s7.8,20.49,9.42,31.49l-2.41-17.94c1.52,11.4.96,22.93.34,34.37-.64,11.86-1.62,23.7-2.89,35.51l67.5-67.5c-34.94,2.84-69.88,5.68-104.82,8.51-17.26,1.4-34.53,2.8-51.79,4.21-8.63.7-17.26,1.4-25.9,2.1-4.03.33-8.07.6-12.1.99-16.12,1.53-28.51,2.98-42.57,11.73-1.96,1.22-10.71,7.55-14.97,11.74-2.05,2.41-4,4.91-5.84,7.5-2.02,2.44-3.95,4.96-5.79,7.54-.47.77-.85,1.54-1.24,2.35-2.72,5.61-5.45,11.9-7.44,17.82-1.37,4.07-2.09,8.41-3.04,12.59-2.14,9.36-4.27,18.71-6.41,28.07l132.59,17.94c.93-25.52.49-51.06-1.31-76.53-16.52,21.7-33.04,43.39-49.56,65.09,6.57-1.43,13.19-2.57,19.86-3.48-5.98.8-11.96,1.61-17.94,2.41,31.25-4.11,62.86-2.99,94.29-2.48s64.91,1.07,97.37,1.6c18.49.3,36.98.61,55.46.91l-67.5-67.5c-.46,31.04-.92,62.08-1.37,93.12-.35,9.29,1.59,17.96,5.81,26.01,2.72,8.37,7.37,15.61,13.96,21.72,6.11,6.58,13.36,11.23,21.72,13.96,8.04,4.23,16.71,6.16,26.01,5.81,5.98-.8,11.96-1.61,17.94-2.41,11.43-3.21,21.36-8.99,29.79-17.36,3.52-4.55,7.04-9.11,10.55-13.66,6.11-10.53,9.18-21.88,9.22-34.07h0Z"/>
  </g>
  <g>
    <path class="cls-2" d="m1003.75,1050.15c67.51-13.2,135.18-25.62,202.98-37.25s135.13-22.37,202.87-32.38c38.14-5.63,76.32-11.02,114.54-16.15l-7.98,1.07c21.64-2.91,43.29-5.73,64.94-8.48,10.61-1.34,21.21-2.67,31.83-3.98,9.98-1.23,20.52-3.54,30.58-2.26l-7.98-1.07c2.28.38,4.42.96,6.56,1.83l-7.17-3.02c1.76.83,3.36,1.78,4.91,2.95l-6.07-4.69c1.8,1.46,3.37,3.08,4.81,4.9l-4.69-6.07c2.21,2.95,3.94,6.15,5.38,9.54l-3.02-7.17c3.43,8.41,5.11,17.37,6.32,26.34l-1.07-7.98c6.26,47.74,8.25,96.11,8.42,144.22.18,48.7-1.79,97.37-4.36,146-.73,13.76-1.5,27.52-2.29,41.28-.71,12.46-1.16,24.98-2.79,37.36l1.07-7.98c-1.12,8.05-2.83,15.99-5.88,23.55l3.02-7.17c-1.81,4.27-4.02,8.26-6.78,11.99l4.69-6.07c-2.73,3.51-5.83,6.6-9.32,9.34l6.07-4.69c-4.75,3.6-9.95,6.41-15.43,8.73,2.39-1.01,4.78-2.02,7.17-3.02-9.17,3.77-18.81,6.21-28.39,8.7-12,3.12-24.05,6.04-36.14,8.76-23.87,5.38-47.91,10-72.06,13.96-13.64,2.24-27.32,4.26-41.03,6.1l7.98-1.07c-53.95,7.21-108.25,11.49-162.61,14-54.42,2.52-108.91,3.29-163.39,3.57-15.12.08-30.24.12-45.36.14-12.58.02-25.29.56-37.8-1.03l7.98,1.07c-5.92-.81-11.72-2.13-17.27-4.38l7.17,3.02c-3.52-1.5-6.82-3.34-9.89-5.63l6.07,4.69c-2.63-2.06-4.96-4.37-7.04-6.98l4.69,6.07c-2.27-3-4.09-6.21-5.57-9.67l3.02,7.17c-1.97-4.93-3.15-10.02-3.88-15.27l1.07,7.98c-1.4-11.18-.86-22.47-.54-33.7.35-12.37.71-24.74,1.06-37.11.71-24.97,1.42-49.93,2.14-74.9,1.43-50.15,2.86-100.31,4.29-150.46.8-28.11,1.6-56.23,2.41-84.34.22-7.55-3.5-15.92-8.79-21.21s-13.74-9.12-21.21-8.79c-16.64.75-29.52,13.18-30,30-2.18,76.47-4.36,152.94-6.54,229.41-1.09,38.23-2.18,76.47-3.27,114.7-.25,8.63-.66,17.29-.36,25.93.34,10.18,1.34,20.9,4.61,30.6,3.78,11.24,9.51,21.81,18.12,30.11,8.05,7.76,17.02,12.59,27.32,16.57,13.8,5.33,29.42,6.16,44.09,6.17,18.57,0,37.14-.05,55.71-.13,36.54-.16,73.07-.51,109.6-1.44,73.19-1.86,146.41-6.01,219.04-15.49,38.7-5.05,77.23-11.22,115.39-19.44,18.28-3.94,36.47-8.3,54.53-13.15,6.73-1.8,13.42-3.72,19.89-6.32,5.13-2.06,10.33-4.15,15.21-6.78,5.18-2.8,9.78-6.37,14.38-10.04,32.06-25.57,31.66-70.24,33.78-107.45,2.16-37.75,4.19-75.51,5.37-113.3s1.53-75.5.29-113.23c-.61-18.59-1.6-37.17-3.07-55.72-1.58-19.93-3.29-40.06-6.64-59.78-1.62-9.52-4.52-18.1-8.36-26.96-3.33-7.68-8.43-15.15-14.88-20.51s-12.16-8.8-20.29-11.48c-6.05-1.99-12.85-2.6-19.22-2.42-8.81.25-17.67,1.85-26.41,2.92-39.81,4.91-79.58,10.11-119.32,15.53-75.11,10.24-150.09,21.45-224.92,33.62-74.92,12.19-149.69,25.34-224.27,39.44-18,3.41-36,6.87-53.98,10.38-7.06,1.38-14.4,7.76-17.93,13.79-3.76,6.43-5.36,15.91-3.02,23.12s6.85,14.26,13.79,17.93c7.44,3.93,14.84,4.64,23.12,3.02h0Z"/>
    <path class="cls-2" d="m1661.97,1385.48c56.66,1.52,113.32,3.04,169.99,4.32,56.67,1.28,113.34,2.32,170.02,2.88,56.66.56,113.33.65,169.99.01,56.66-.63,113.31-1.98,169.92-4.29,28.18-1.15,56.35-2.53,84.5-4.18,27.19-1.59,55.29-2.69,79.61-16.42,6.65-3.75,12.84-8.62,18.37-13.86,11.41-10.82,11.72-31.67,0-42.43s-30.25-11.54-42.43,0c-1.65,1.57-3.36,3.04-5.15,4.45l6.07-4.69c-4.21,3.16-8.71,5.75-13.53,7.88l7.17-3.02c-8.4,3.52-17.23,5.48-26.23,6.71l7.98-1.07c-24.06,3.07-48.63,3.47-72.85,4.67-26.21,1.3-52.43,2.39-78.66,3.28-51.88,1.76-103.79,2.76-155.7,3.18-104.41.85-208.83-.64-313.22-2.96-58.62-1.31-117.24-2.88-175.85-4.45-15.7-.42-30.71,14.1-30,30,.74,16.61,13.18,29.55,30,30h0Z"/>
    <path class="cls-2" d="m1640.13,941.92c66.02,14.13,133.45,20.55,200.7,25.34,65.14,4.64,130.27,8.72,195.24,15.4,36.8,3.78,73.54,8.15,110.21,13.07l-7.98-1.07c102.85,13.85,205.08,32.15,306.35,54.84,28.38,6.36,56.69,13.07,84.92,20.1,15.2,3.79,33.25-4.89,36.9-20.95s-4.66-32.84-20.95-36.9c-104.77-26.11-210.69-47.6-317.39-64.22-107.78-16.79-216.19-28.66-325.01-36.04-59.98-4.07-120.04-7.59-179.66-15.54l7.98,1.07c-25.27-3.41-50.42-7.61-75.36-12.95-7.89-1.69-16.01-1.13-23.12,3.02-6.22,3.64-12.16,10.78-13.79,17.93-3.44,15.09,4.54,33.39,20.95,36.9h0Z"/>
    <path class="cls-2" d="m2522.56,1077.43c1.44.71,2.8,1.56,4.08,2.52l-6.07-4.69c2.23,1.72,4.16,3.75,5.88,5.98l-4.69-6.07c3.28,4.31,5.74,9.15,7.84,14.12l-3.02-7.17c3.49,8.36,6.14,17.11,8.61,25.82,2.66,9.38,4.93,18.87,6.75,28.45,1.04,5.48,1.93,10.98,2.68,16.5l-1.07-7.98c2.33,17.49,3.12,35.2,1.92,52.82-.34,4.96-.84,9.91-1.5,14.84l1.07-7.98c-2.32,17.01-6.71,33.71-13.39,49.54l3.02-7.17c-5.25,12.36-11.86,24.14-20.06,34.79l4.69-6.07c-6.16,7.94-13.18,15.2-21.13,21.36l6.07-4.69c-2.95,2.26-6.02,4.37-9.2,6.3-3.5,1.89-6.3,4.46-8.42,7.73-2.65,2.9-4.44,6.3-5.37,10.2-1.25,3.99-1.43,7.98-.54,11.96.18,3.99,1.37,7.71,3.56,11.15l4.69,6.07c3.74,3.72,8.16,6.29,13.24,7.72l7.98,1.07c5.42-.02,10.46-1.38,15.14-4.1,5.76-3.49,11.06-7.64,16.34-11.82,3.43-2.72,6.69-5.65,9.77-8.75s6.03-6.42,8.79-9.86c4.33-5.39,8.58-10.89,12.39-16.67,5.19-7.88,9.62-16.26,13.36-24.92,4.79-11.09,9.15-22.22,12.21-33.91,3.26-12.44,5.14-25.2,6.52-37.98,1.2-11.15,1.56-22.39,1.21-33.6-.44-13.76-2.08-27.42-4.14-41.02-1.68-11.08-3.97-22.06-6.8-32.91-2.68-10.27-5.67-20.57-9.56-30.45-2.57-6.54-5.22-13.31-8.9-19.36-2.43-4-5.41-7.71-8.36-11.32-1.33-1.62-2.8-3.14-4.42-4.47-3.37-2.76-6.9-5.83-10.89-7.79-3.44-2.19-7.16-3.38-11.15-3.56-3.99-.89-7.98-.71-11.96.54-3.9.93-7.3,2.72-10.2,5.37-3.27,2.12-5.84,4.92-7.73,8.42l-3.02,7.17c-1.43,5.32-1.43,10.63,0,15.95l3.02,7.17c2.67,4.51,6.25,8.1,10.76,10.76h0Z"/>
    <path class="cls-2" d="m1113.14,1828.61c-46.4,34.15-47.65,100.66-20.87,147.65s78.98,79.02,128.87,99.72c51.6,21.4,108.33,35.08,163.9,40.21,30.23,2.79,60.66,1.42,90.47-4.51s56.26-16.51,82.88-28.65c50.78-23.16,99.3-51.99,147.43-80.15,48.4-28.32,96.16-57.72,143.46-87.83,95.28-60.66,188.68-124.2,281.88-188,93.33-63.9,186.47-128.11,281.11-190.06,11.79-7.72,23.6-15.4,35.44-23.04,13.17-8.5,19.81-27.01,10.76-41.05-8.48-13.16-26.94-19.87-41.05-10.76-91.82,59.3-182.08,120.98-272.24,182.75-90.18,61.79-180.31,123.69-271.9,183.38-90.44,58.94-182.35,115.76-276.95,167.8-23.85,13.12-47.82,26.11-72.71,37.18-1.74.77-10.2,4.74-4.1,1.82-2.92,1.4-6.05,2.47-9.07,3.63-6.42,2.48-12.9,4.79-19.45,6.9-12.65,4.07-25.55,7.35-38.65,9.55-1.54.26-3.48.8-4.99.79,1,.01,6.38-.72.47-.08-2.92.31-5.84.63-8.77.87-7.1.59-14.21.89-21.33.94-13.86.09-27.71-.79-41.47-2.38-.96-.11-6.32-.74-2.29-.25,4.03.49-1.33-.19-2.29-.33-3.35-.49-6.69-1.02-10.02-1.59-7.11-1.21-14.19-2.57-21.24-4.07-13.47-2.86-26.83-6.18-40.12-9.79-11.96-3.26-23.86-6.79-35.6-10.76-5.72-1.94-11.41-3.98-17.05-6.14-2.47-.95-4.94-1.92-7.39-2.92-.94-.38-5.46-2.33-1.66-.67,4.09,1.79-1.87-.84-2.68-1.21-11.5-5.14-22.73-10.89-33.53-17.37-5.3-3.18-10.5-6.54-15.58-10.07-2.56-1.79-5.05-3.67-7.59-5.49-3.52-2.53,3.81,3.15.47.36-1.41-1.18-2.88-2.31-4.29-3.49-8.64-7.22-16.21-15.18-23.62-23.61-2.69-3.05,3.23,4.52.88,1.18-.8-1.13-1.63-2.23-2.43-3.37-1.59-2.28-3.11-4.61-4.54-6.99-1.27-2.1-2.47-4.23-3.61-6.4-.65-1.25-1.24-2.53-1.89-3.78-3.3-6.34,2.08,6.11-.35-.68-1.85-5.17-3.56-10.35-4.67-15.74-.23-1.14-.29-2.63-.67-3.68.21.58.69,7.55.34,2.37-.17-2.52-.4-5.03-.45-7.57s0-5.06.14-7.58c.07-1.26.21-2.51.29-3.77.33-5.17-.15,1.78-.36,2.38,1.77-5.14,2.34-10.77,4.14-15.98,1.19-3.43,1.41.22-.98,2.24.51-.43,1.32-2.71,1.55-3.14.94-1.78,2.02-3.46,3.08-5.17,3.55-5.76-4.29,4.13.49-.51,1.67-1.62,8.41-6.93.69-1.25,6.5-4.78,11.57-9.86,13.79-17.93,1.98-7.18,1.08-16.74-3.02-23.12-8.05-12.48-27.53-20.71-41.05-10.76h0Z"/>
    <path class="cls-2" d="m1481.7,1429.47c-3.8,44.18-7.61,88.36-11.41,132.54-.79,9.21,4.89,18.2,11.82,23.56,7.63,5.9,16.73,7.71,26.15,5.37,48.06-11.94,96.12-23.88,144.17-35.82,48.3-12,96.59-24,144.89-36s96.12-23.88,144.17-35.82c48.06-11.94,96.12-23.88,144.17-35.82,48.3-12,96.59-24,144.89-36,5.98-1.49,11.95-2.97,17.93-4.46,15.24-3.79,25.86-21.76,20.95-36.9-5.11-15.79-20.58-25.01-36.9-20.95-48.06,11.94-96.12,23.88-144.17,35.82-48.3,12-96.59,24-144.89,36-48.06,11.94-96.12,23.88-144.17,35.82-48.06,11.94-96.12,23.88-144.17,35.82s-96.59,24-144.89,36c-5.98,1.49-11.95,2.97-17.93,4.46,12.66,9.64,25.32,19.29,37.98,28.93,3.8-44.18,7.61-88.36,11.41-132.54.63-7.27-3.8-16.22-8.79-21.21s-13.74-9.12-21.21-8.79-15.81,2.9-21.21,8.79-8.07,12.9-8.79,21.21h0Z"/>
    <path class="cls-2" d="m1101.94,1476.37c-2.63,43.37-5.26,86.74-7.9,130.12-.3,4.88-.95,9.89-.54,14.77.65,7.8,1.66,12.92,5.4,19.89,2.94,5.48,8.81,11.43,14.37,14.26,3.66,1.86,7.54,3.66,11.62,4.38,2.46.44,4.95.72,7.42,1.06,7.82,1.06,15.65,2.11,23.49,3.01,10.59,1.21,21.21,2.2,31.84,2.97,5.44.39,10.88.73,16.32,1.01,7.37.38,14.2.72,21.55-1.01,14.44-3.39,24.28-15.82,28.09-29.57,1.55-5.6,2.75-11.31,4.11-16.96,2.87-11.93,5.74-23.85,8.61-35.78-9.64,7.34-19.29,14.68-28.93,22.02,35.82-1.6,71.74-.73,107.43,2.64,10.11.95,20.2,2.11,30.27,3.46l-7.98-1.07c3.69.5,7.37,1.02,11.05,1.56l-22.02-28.93c.16,8.28.32,16.55.47,24.83s.04,15.8.49,23.65,1.72,15.93,5.97,22.89c.18.3.39.56.59.84,1.37,1.95,3.34,4.78,5.02,6.46.28.28.56.53.86.8,1.82,1.6,4.47,3.77,6.53,5.02,3.36,2.04,7.18,3.75,11.08,4.43,10.05,1.77,20.39,2.31,30.55,3.27,16.24,1.52,32.48,3.05,48.73,4.57,6.13.58,11.18.29,17.48-.88,7.2-1.34,15.48-6.12,20.23-11.7,2.11-2.49,4.96-5.8,6.56-9.02,1.82-3.65,3.47-7.51,4.68-11.42,1.01-3.26,1.64-6.64,2.35-9.97,3.89-18.15,7.77-36.29,11.66-54.44,1.25-3.99,1.43-7.98.54-11.96-.18-3.99-1.37-7.71-3.56-11.15-1.89-3.5-4.46-6.3-7.73-8.42-2.9-2.65-6.3-4.44-10.2-5.37-7.68-1.75-16.3-1.37-23.12,3.02-6.36,4.1-12.15,10.3-13.79,17.93-2.49,11.65-4.99,23.3-7.48,34.94-1.23,5.76-2.47,11.53-3.7,17.29-1.07,4.99-1.9,10.14-3.79,14.9l3.02-7.17c-.65,1.52-1.41,2.96-2.4,4.28l4.69-6.07c-.55.68-1.14,1.29-1.81,1.87l6.07-4.69c-.81.62-1.64,1.12-2.56,1.53l7.17-3.02c-1.1.43-2.2.7-3.37.87l7.98-1.07c-2.86.32-5.7.02-8.56-.24-3.47-.33-6.94-.65-10.41-.98-6.7-.63-13.39-1.26-20.09-1.89-13.43-1.26-26.95-2.16-40.34-3.81l7.98,1.07c-1.12-.16-2.19-.39-3.25-.78,2.39,1.01,4.78,2.02,7.17,3.02-.7-.3-1.33-.65-1.95-1.09l6.07,4.69c-.44-.37-.82-.75-1.19-1.18l4.69,6.07c-.53-.71-.93-1.44-1.28-2.25l3.02,7.17c-.46-1.23-.74-2.46-.94-3.75l1.07,7.98c-.49-3.82-.38-7.73-.45-11.58l-.25-13.17c-.17-8.78-.34-17.55-.5-26.33l-1.07-7.98c-.93-3.9-2.72-7.3-5.37-10.2-1.33-2.25-3.13-4.05-5.38-5.38-2.9-2.65-6.3-4.44-10.2-5.37-41-6.08-82.27-9.61-123.73-9.52-11,.02-22,.29-32.99.78l-7.98,1.07c-3.9.93-7.3,2.72-10.2,5.37-2.25,1.33-4.05,3.13-5.38,5.38-2.65,2.9-4.44,6.3-5.37,10.2-2.28,9.49-4.57,18.98-6.85,28.48-1.11,4.62-2.23,9.25-3.34,13.87s-1.83,9.02-3.48,13.25l3.02-7.17c-.45,1.06-.98,2.04-1.67,2.97l4.69-6.07c-.38.45-.75.82-1.19,1.21l6.07-4.69c-.63.47-1.26.84-1.99,1.16l7.17-3.02c-.72.26-1.43.44-2.19.58l7.98-1.07c-2.74.37-5.54.11-8.29-.02-3.22-.14-6.43-.31-9.65-.5-6.43-.37-12.86-.82-19.28-1.36-12.85-1.07-25.68-2.47-38.47-4.17l7.98,1.07c-3.86-.52-8-.72-11.67-2.09l7.17,3.02c-.81-.34-1.54-.74-2.26-1.24l6.07,4.69c-.57-.45-1.06-.94-1.53-1.5l4.69,6.07c-.45-.62-.81-1.25-1.13-1.95l3.02,7.17c-.43-1.1-.69-2.21-.87-3.38l1.07,7.98c-.48-4.22.06-8.53.32-12.75.3-4.87.59-9.75.89-14.62.58-9.5,1.15-19,1.73-28.5,1.16-19.12,2.32-38.25,3.48-57.37.65-10.75,1.3-21.5,1.96-32.25.16-4.13-.71-7.98-2.58-11.56-1.21-3.72-3.28-6.94-6.2-9.65-2.72-2.93-5.94-4.99-9.65-6.2-3.58-1.88-7.43-2.74-11.56-2.58-7.76.35-15.81,2.9-21.21,8.79l-4.69,6.07c-2.71,4.68-4.08,9.73-4.1,15.14h0Z"/>
    <path class="cls-2" d="m2448.57,1393.28c.11,6.08-.25,12.16-1.06,18.19l1.07-7.98c-1.44,10.52-4.22,20.83-8.32,30.63l3.02-7.17c-3.62,8.56-8.22,16.68-13.9,24.04l4.69-6.07c-3.46,4.45-7.29,8.59-11.52,12.33-2.93,2.72-4.99,5.94-6.2,9.65-1.88,3.58-2.74,7.43-2.58,11.56-.16,4.13.71,7.98,2.58,11.56,1.21,3.72,3.28,6.94,6.2,9.65l6.07,4.69c4.68,2.71,9.73,4.08,15.14,4.1l7.98-1.07c5.08-1.43,9.49-4,13.24-7.72,6.3-5.56,11.35-12.04,16.44-18.7,3.7-4.85,6.97-10.02,9.78-15.44,4.01-7.74,7.43-15.88,10.17-24.16,2.02-6.09,3.54-12.34,4.57-18.67,1.58-9.74,2.79-19.55,2.62-29.43.16-4.13-.71-7.98-2.58-11.56-1.21-3.72-3.28-6.94-6.2-9.65-2.72-2.93-5.94-4.99-9.65-6.2-3.58-1.88-7.43-2.74-11.56-2.58l-7.98,1.07c-5.08,1.43-9.49,4-13.24,7.72l-4.69,6.07c-2.71,4.68-4.08,9.73-4.1,15.14h0Z"/>
    <path class="cls-2" d="m1445.81,2097.63c-2.06,25.04-3.03,50.17-2.91,75.29.03,7.11.16,14.22.37,21.33-.16,4.13.71,7.98,2.58,11.56,1.21,3.72,3.28,6.94,6.2,9.65,2.72,2.93,5.94,4.99,9.65,6.2,3.58,1.88,7.43,2.74,11.56,2.58l7.98-1.07c5.08-1.43,9.49-4,13.24-7.72l4.69-6.07c2.71-4.68,4.08-9.73,4.1-15.14-.73-25.12-.39-50.27,1.06-75.37.41-7.09.91-14.18,1.49-21.26.16-4.13-.71-7.98-2.58-11.56-1.21-3.72-3.28-6.94-6.2-9.65-2.72-2.93-5.94-4.99-9.65-6.2-3.58-1.88-7.43-2.74-11.56-2.58l-7.98,1.07c-5.08,1.43-9.49,4-13.24,7.72l-4.69,6.07c-2.71,4.68-4.08,9.73-4.1,15.14h0Z"/>
    <path class="cls-2" d="m1484.25,2262.18c70.26-51,141.25-100.99,212.96-149.93s143.44-96.35,216.2-142.92c72.47-46.38,145.7-91.51,219.4-135.91,36.72-22.12,73.33-44.45,108.53-68.95,36.34-25.3,71.32-52.58,105.49-80.74,33.06-27.25,65.33-55.43,97.49-83.73,17.77-15.64,36.38-30.04,43.3-53.85,2.88-9.93,3.67-20.58,5.13-30.79,1.54-10.75,3.09-21.5,4.63-32.25,1.54-10.75,3.09-21.5,4.63-32.25,1.2-8.32,1.4-15.55-3.02-23.12-3.64-6.22-10.78-12.16-17.93-13.79-7.68-1.75-16.3-1.37-23.12,3.02-6.09,3.92-12.71,10.41-13.79,17.93-2.48,17.27-4.96,34.53-7.44,51.8-1.22,8.47-2.43,16.94-3.65,25.41-1.11,7.74-2.11,15.49-4.94,22.83l3.02-7.17c-.91,2.08-1.98,3.97-3.09,5.94-.49.87-2.4,3.26.45-.35s.59-.78-.21.13c-2.84,3.22-6.02,6.09-9.23,8.93-7.39,6.55-14.81,13.06-22.23,19.58-14.67,12.9-29.36,25.76-44.16,38.51-29.42,25.36-59.22,50.3-89.89,74.14-5.84,4.54,4.42-3.39-1.44,1.11-1.75,1.35-3.51,2.69-5.27,4.03-4.02,3.06-8.05,6.1-12.1,9.11-7.57,5.64-15.21,11.21-22.9,16.68-16.19,11.52-32.68,22.6-49.4,33.34-33.06,21.25-66.9,41.24-100.53,61.58-67.57,40.86-134.58,82.64-201.01,125.33-66.18,42.52-131.78,85.94-196.8,130.22-65.84,44.84-131.08,90.58-195.7,137.17-7.9,5.7-15.79,11.41-23.67,17.13-6.5,4.72-11.58,9.91-13.79,17.93-1.98,7.18-1.08,16.74,3.02,23.12,8.09,12.55,27.46,20.62,41.05,10.76h0Z"/>
    <path class="cls-2" d="m1994.7,1444.94c-83.05,38.14-166.33,75.78-249.84,112.91-83.38,37.07-166.98,73.64-250.81,109.69-47.1,20.26-94.26,40.35-141.5,60.28l7.17-3.02c-58.46,24.67-117.03,49.09-175.7,73.26-16.56,6.82-33.14,13.63-49.72,20.41-7.54,3.08-13.65,6.48-17.93,13.79-3.76,6.43-5.36,15.91-3.02,23.12s6.85,14.26,13.79,17.93,15.82,6.01,23.12,3.02c56.87-23.27,113.64-46.77,170.32-70.51,58.6-24.54,117.1-49.31,175.49-74.33,56.85-24.36,113.61-48.96,170.26-73.79,56.45-24.74,112.79-49.71,169.03-74.92,56.3-25.23,112.5-50.69,168.59-76.38,7.02-3.21,14.03-6.43,21.04-9.65,6.44-2.96,11.98-11.36,13.79-17.93,1.98-7.18,1.08-16.74-3.02-23.12s-10.28-12.04-17.93-13.79c-8.3-1.89-15.41-.51-23.12,3.02h0Z"/>
    <path class="cls-2" d="m1460.27,1739.71c20.43,9.42,40.8,18.98,61.1,28.69,20.43,9.77,40.79,19.68,61.08,29.73,20.24,10.03,40.4,20.2,60.5,30.5,20.22,10.37,40.38,20.89,60.46,31.54,20.03,10.63,39.98,21.4,59.87,32.3,2.49,1.36,4.97,2.73,7.46,4.1,3.44,2.19,7.16,3.38,11.15,3.56,3.99.89,7.98.71,11.96-.54,3.9-.93,7.3-2.72,10.2-5.37,3.27-2.12,5.84-4.92,7.73-8.42,3.68-6.96,5.52-15.4,3.02-23.12s-6.87-14.12-13.79-17.93c-19.87-10.94-39.81-21.74-59.82-32.41-20.07-10.69-40.2-21.24-60.42-31.66-20.08-10.35-40.24-20.55-60.46-30.62s-40.62-20.04-61.04-29.84c-20.29-9.74-40.64-19.35-61.06-28.8-2.55-1.18-5.1-2.36-7.65-3.54-3.44-2.19-7.16-3.38-11.15-3.56-3.99-.89-7.98-.71-11.96.54-3.9.93-7.3,2.72-10.2,5.37-3.27,2.12-5.84,4.92-7.73,8.42-3.68,6.96-5.52,15.4-3.02,23.12,1.01,2.39,2.02,4.78,3.02,7.17,2.67,4.51,6.25,8.1,10.76,10.76h0Z"/>
    <path class="cls-2" d="m1251.95,1924.95c18.81-8.13,37.62-16.26,56.42-24.4,5.35-2.31,10.7-4.63,16.06-6.94,3.5-1.89,6.3-4.46,8.42-7.73,2.65-2.9,4.44-6.3,5.37-10.2,1.25-3.99,1.43-7.98.54-11.96-.18-3.99-1.37-7.71-3.56-11.15l-4.69-6.07c-3.74-3.72-8.16-6.29-13.24-7.72l-7.98-1.07c-5.42.02-10.46,1.38-15.14,4.1-18.81,8.13-37.62,16.26-56.42,24.4-5.35,2.31-10.7,4.63-16.06,6.94-3.5,1.89-6.3,4.46-8.42,7.73-2.65,2.9-4.44,6.3-5.37,10.2-1.25,3.99-1.43,7.98-.54,11.96.18,3.99,1.37,7.71,3.56,11.15l4.69,6.07c3.74,3.72,8.16,6.29,13.24,7.72l7.98,1.07c5.42-.02,10.46-1.38,15.14-4.1h0Z"/>
    <path class="cls-2" d="m1424.91,2013.72c24.89-13.06,49.24-27.13,73.01-42.13,6.81-4.3,13.56-8.67,20.27-13.11,3.5-1.89,6.3-4.46,8.42-7.73,2.65-2.9,4.44-6.3,5.37-10.2,1.25-3.99,1.43-7.98.54-11.96-.18-3.99-1.37-7.71-3.56-11.15l-4.69-6.07c-3.74-3.72-8.16-6.29-13.24-7.72l-7.98-1.07c-5.42.02-10.46,1.38-15.14,4.1-23.51,15.58-47.63,30.25-72.3,43.92-6.95,3.85-13.95,7.63-20.99,11.32-3.5,1.89-6.3,4.46-8.42,7.73-2.65,2.9-4.44,6.3-5.37,10.2-1.25,3.99-1.43,7.98-.54,11.96.18,3.99,1.37,7.71,3.56,11.15l4.69,6.07c3.74,3.72,8.16,6.29,13.24,7.72l7.98,1.07c5.42-.02,10.46-1.38,15.14-4.1h0Z"/>
    <path class="cls-2" d="m1088.05,1962.31c1.25,34.96,2.5,69.91,3.75,104.87.32,8.85.63,17.7.95,26.55.37,10.39.27,21.18,2.91,31.3,1.05,4.01,2.84,7.94,4.64,11.64s4.92,7.3,7.37,10.23c3.72,4.44,8.74,7.83,13.4,11.15,6.53,4.66,13.3,9.02,20.18,13.14,30.14,18.07,63.1,30.74,96.99,39.73,16.43,4.36,33.01,8.15,49.5,12.29,16.63,4.18,33.2,8.57,49.7,13.19,33.13,9.27,66.02,19.43,98.61,30.45,3.98,1.35,7.96,2.71,11.93,4.08,3.99,1.25,7.98,1.43,11.96.54,3.99-.18,7.71-1.37,11.15-3.56,3.5-1.89,6.3-4.46,8.42-7.73,2.65-2.9,4.44-6.3,5.37-10.2l1.07-7.98c-.02-5.42-1.38-10.46-4.1-15.14l-4.69-6.07c-3.74-3.72-8.16-6.29-13.24-7.72-33.79-11.66-67.9-22.41-102.28-32.19-17.13-4.87-34.32-9.51-51.58-13.91-17.03-4.34-34.17-8.27-51.19-12.67-18.82-4.87-37.45-10.48-55.39-18.03l7.17,3.02c-10.92-4.62-21.58-9.87-31.91-15.7s-20.44-11.92-29.72-19.07l6.07,4.69c-1.96-1.54-3.78-3.21-5.35-5.16l4.69,6.07c-1.13-1.48-2.06-3.04-2.8-4.75l3.02,7.17c-1.01-2.47-1.59-5.04-1.98-7.68l1.07,7.98c-.59-4.43-.65-8.92-.81-13.38l-.53-14.79c-.35-9.86-.7-19.72-1.06-29.58-.7-19.72-1.41-39.44-2.11-59.16-.4-11.2-.8-22.41-1.2-33.61-.28-7.86-3.15-15.58-8.79-21.21-2.72-2.93-5.94-4.99-9.65-6.2-3.58-1.88-7.43-2.74-11.56-2.58-7.76.35-15.81,2.9-21.21,8.79s-9.07,13.19-8.79,21.21h0Z"/>
    <path class="cls-2" d="m2052.07,1410.48c-2.71,2.32-5.48,4.58-8.3,6.76,2.02-1.56,4.05-3.13,6.07-4.69-13.1,10.1-27.41,18.59-42.64,25.05,2.39-1.01,4.78-2.02,7.17-3.02-5.48,2.31-11.07,4.35-16.75,6.11-3.9.93-7.3,2.72-10.2,5.37-3.27,2.12-5.84,4.92-7.73,8.42-2.19,3.44-3.38,7.16-3.56,11.15-.89,3.99-.71,7.98.54,11.96l3.02,7.17c2.67,4.51,6.25,8.1,10.76,10.76l7.17,3.02c5.32,1.43,10.63,1.43,15.95,0,11.95-3.7,23.64-8.56,34.81-14.17,9.22-4.63,18.06-10.01,26.42-16.05,6.76-4.87,13.37-10,19.69-15.43,2.93-2.72,4.99-5.94,6.2-9.65,1.88-3.58,2.74-7.43,2.58-11.56.16-4.13-.71-7.98-2.58-11.56-1.21-3.72-3.28-6.94-6.2-9.65l-6.07-4.69c-4.68-2.71-9.73-4.08-15.14-4.1l-7.98,1.07c-5.08,1.43-9.49,4-13.24,7.72h0Z"/>
    <path class="cls-2" d="m2487.68,1326.1c-.2,0-.38.02-.57.03-.87.05-7.32.89-8.11,1.1-1.34.36-3.09,1.26-3.97,1.63,2.8-1.18-2.88,1.04-3.82,1.63-.16.1-.29.2-.45.3-.76.52-5.56,4.16-6.17,4.78-.13.13-.26.27-.39.41-.84,1.03-1.65,2.08-2.44,3.15-.88,1.06-1.72,2.15-2.52,3.27-.19.31-.35.62-.51.94-1.21,2.49-2.42,5.28-3.31,7.91-.27.78-.42,1.59-.54,2.4-.72,4.86-1.4,9.73-2.1,14.6-1.38,9.65-2.77,19.3-4.15,28.95-.79,5.53-1.59,11.05-2.38,16.58-1.25,3.99-1.43,7.98-.54,11.96.18,3.99,1.37,7.71,3.56,11.15,1.89,3.5,4.46,6.3,7.73,8.42,2.9,2.65,6.3,4.44,10.2,5.37l7.98,1.07c5.42-.02,10.46-1.38,15.14-4.1l6.07-4.69c3.72-3.74,6.29-8.16,7.72-13.24,2.41-16.83,4.83-33.65,7.24-50.48.33-2.31.66-4.62.99-6.93.28-1.93.43-3.9,1.16-5.72l-3.02,7.17c.21-.47.44-.91.74-1.33l-4.69,6.07c.18-.23.36-.42.58-.61l-6.07,4.69c.23-.17.43-.3.69-.42l-7.17,3.02c.17-.07.34-.12.52-.15l-7.98,1.07c.19-.03.38-.04.57-.03,4.13.16,7.98-.71,11.56-2.58,3.72-1.21,6.94-3.28,9.65-6.2,2.93-2.72,4.99-5.94,6.2-9.65,1.88-3.58,2.74-7.43,2.58-11.56l-1.07-7.98c-1.43-5.08-4-9.49-7.72-13.24l-6.07-4.69c-4.68-2.71-9.73-4.08-15.14-4.1h0Z"/>
    <path class="cls-2" d="m1999.52,1500.08c22.77-5.72,45.46-11.72,68.07-18.03,22.61-6.31,45.14-12.9,67.58-19.8,22.44-6.89,44.79-14.08,67.04-21.55,22.25-7.47,44.41-15.24,66.46-23.29,22.05-8.05,44-16.39,65.83-25.01,2.77-1.09,5.53-2.19,8.3-3.29,3.9-.93,7.3-2.72,10.2-5.37,3.27-2.12,5.84-4.92,7.73-8.42,2.19-3.44,3.38-7.16,3.56-11.15.89-3.99.71-7.98-.54-11.96-2.35-7.26-6.85-14.26-13.79-17.93l-7.17-3.02c-5.32-1.43-10.63-1.43-15.95,0-21.81,8.69-43.72,17.1-65.74,25.23-22.02,8.12-44.15,15.96-66.38,23.51-22.23,7.55-44.55,14.8-66.97,21.77-22.42,6.97-44.92,13.64-67.51,20.02-22.59,6.38-45.26,12.47-68.01,18.25-2.88.73-5.77,1.46-8.65,2.19-3.9.93-7.3,2.72-10.2,5.37-3.27,2.12-5.84,4.92-7.73,8.42-2.19,3.44-3.38,7.16-3.56,11.15-.89,3.99-.71,7.98.54,11.96,2.35,7.26,6.85,14.26,13.79,17.93s15.06,5.05,23.12,3.02h0Z"/>
  </g>
</svg>