<?xml version="1.0" encoding="UTF-8"?>
<svg id="Layer_1" data-name="Layer 1" xmlns="http://www.w3.org/2000/svg" viewBox="0 0 2791.44 2638.84">
  <defs>
    <style>
      .cls-1 {
        fill: #999;
      }

      .cls-1, .cls-2 {
        stroke-width: 0px;
      }

      .cls-2 {
        fill: #1a1a1a;
      }

      .cls-3 {
        opacity: .8;
      }
    </style>
  </defs>
  <path class="cls-2" d="m1200.5,36.8c-153.03.25-298.46,57.9-429.44,133.13-118.92,68.3-231.41,150.07-332.92,242.28C234.36,597.32,77.61,834.95,24.79,1107.93c-51.88,268.11-21.62,552.09,84.15,803.72,97.75,232.53,259.71,439.83,478.61,569.27,246.69,145.87,543.07,179.57,823.73,145.8,143.56-17.28,284.69-49.75,421.91-95.24,128.76-42.68,255.07-96.03,371.78-165.52,114.93-68.43,222.04-153.38,307.38-256.86,95.31-115.56,161.65-250.45,205.88-393.12,42.97-138.58,68.37-284.75,72.47-429.83s-13.6-284.52-64.54-416.13c-26.11-67.45-59.57-131.3-101.95-189.97-43.93-60.81-94.36-116.36-148.65-168.04-106.51-101.4-223.55-194.01-347.46-273.24C1876.36,77.78,1576.86-25.65,1275.08,5.55c-74.89,7.74-148.68,22.7-219.95,47.12-22.22,7.61-39.23,31.24-31.43,55.36,7.13,22.03,31.51,39.6,55.36,31.43,34.82-11.93,70.28-21.84,106.29-29.52,17.18-3.67,34.46-6.84,51.81-9.55,4.73-.74,9.47-1.44,14.22-2.11-8.35,1.16,7.22-.89,7.04-.87,9.52-1.15,19.05-2.16,28.6-3.03,73.46-6.71,147.59-5.3,220.85,3.08,4,.46,7.99.94,11.98,1.44,1.6.2,11.7,1.56,4.79.6,9.57,1.32,19.11,2.79,28.64,4.36,19.07,3.14,38.06,6.74,56.95,10.78,34.62,7.41,68.92,16.32,102.79,26.63s68.45,22.47,101.94,35.7c8.58,3.39,17.14,6.86,25.66,10.42-5.9-2.47,1.21.52,2,.86,4.24,1.83,8.47,3.66,12.7,5.51,16.89,7.43,33.64,15.17,50.25,23.21,63.77,30.86,125.42,66.04,184.9,104.49,56.78,36.71,116.02,79.69,163.71,117.63,55.61,44.24,109.77,90.59,161.11,139.74,25.7,24.61,50.63,50.04,74.32,76.6,11.3,12.66,22.32,25.58,33,38.77,11.61,14.34,17.03,21.44,29.27,38.77,19.7,27.9,37.7,56.98,53.63,87.19,7.23,13.71,14.05,27.64,20.46,41.75,1.83,4.02,3.6,8.07,5.38,12.12,5.84,13.22-3.04-7.89,2.32,5.53,3.28,8.2,6.54,16.39,9.62,24.67,23.67,63.6,39.57,130.02,48.87,197.21-1.3-9.39.63,5.15.7,5.7.36,2.95.71,5.9,1.04,8.86,1.01,8.87,1.91,17.75,2.7,26.65,1.59,17.84,2.75,35.71,3.52,53.6,1.47,34.44,1.47,68.94.14,103.39-1.3,33.79-3.86,67.53-7.54,101.15-.9,8.21-1.87,16.42-2.9,24.61-.06.45-2.03,15.13-.75,5.89-.41,2.97-.83,5.94-1.25,8.91-2.55,17.78-5.41,35.52-8.55,53.21-12.45,70.14-29.07,139.66-50.61,207.57-10.85,34.19-22.99,67.98-36.59,101.17-4.31,10.51-10.67,25.02-17.92,40.56-7.89,16.9-16.19,33.6-24.93,50.07-16.02,30.19-33.51,59.6-52.55,87.99-9.23,13.75-18.82,27.26-28.77,40.5-.32.43-8.85,11.5-3.28,4.36-2.6,3.34-5.24,6.66-7.89,9.96-5.29,6.6-10.68,13.12-16.14,19.58-41.8,49.33-88.56,94.34-138.76,135.06-5.47,4.43-10.98,8.8-16.51,13.15-10.93,8.58,6.85-5.04-4.28,3.28-3.39,2.53-6.75,5.09-10.15,7.61-13.6,10.1-27.42,19.91-41.42,29.45-26.95,18.36-54.59,35.69-82.77,52.08-55.52,32.29-113.14,60.9-172.03,86.49-3.94,1.71-7.88,3.4-11.83,5.09-12.99,5.56,7.99-3.26-5.07,2.12-6.61,2.72-13.22,5.45-19.86,8.13-15.91,6.41-31.9,12.62-47.97,18.63-30.69,11.49-61.65,22.27-92.81,32.41-65.15,21.21-131.23,39.62-198.05,54.78-33.35,7.57-66.89,14.33-100.58,20.21-16.47,2.87-32.97,5.54-49.51,7.99-4.51.67-9.02,1.29-13.53,1.95-14.81,2.16,8.74-1.07-6.09.84-9.03,1.16-18.06,2.29-27.11,3.33-68.98,7.95-138.45,11.93-207.89,11.11-34.41-.41-68.82-1.99-103.11-4.88-16.33-1.38-32.63-3.04-48.9-5.01-2.95-.36-5.9-.74-8.86-1.1-14.55-1.81,8.78,1.37-5.71-.78-9.55-1.42-19.09-2.83-28.61-4.4-66.45-11.01-132.04-27.41-195.58-49.81-15.38-5.42-30.64-11.19-45.76-17.32-.2-.08-13.73-5.66-5.72-2.3-4.11-1.73-8.2-3.52-12.29-5.31-8.18-3.6-16.32-7.31-24.4-11.12-29.31-13.82-57.98-29.03-85.81-45.64-25.81-15.4-50.91-31.98-75.21-49.66-5.27-3.83-10.5-7.71-15.69-11.64-.93-.7-11.16-8.69-3.28-2.49-3.07-2.41-6.14-4.83-9.19-7.26-11.68-9.34-23.15-18.95-34.42-28.79-44.59-38.96-85.86-81.69-123.55-127.35-4.98-6.04-9.9-12.12-14.76-18.26-1.62-2.05-3.23-4.1-4.84-6.16-8.02-10.23,5.26,7.12-2.52-3.31-9.39-12.58-18.72-25.17-27.7-38.04-17.26-24.72-33.59-50.1-48.97-76.03-15.44-26.03-29.93-52.63-43.47-79.7-6.49-12.98-12.76-26.07-18.82-39.26-2.75-6-5.46-12.03-8.13-18.07-1.6-3.63-3.16-7.27-4.75-10.9-4.27-9.76,2.06,5.14-1.64-3.86-23.2-56.4-42.92-114.1-58.54-173.05-7.81-29.49-14.64-59.23-20.47-89.18-2.79-14.31-5.35-28.67-7.68-43.06-1.06-6.54-2.07-13.09-3.03-19.64-.58-3.93-1.13-7.87-1.68-11.8,1.53,10.88-.74-5.85-.97-7.73-7.66-62.1-10.91-124.68-10.02-187.24,1.11-78.03,7.83-148.78,22.27-221.75,14.06-71.04,34.87-140.57,62.58-207.48-3.14,7.58.37-.87,1.18-2.73,1.38-3.2,2.78-6.39,4.19-9.57,3.38-7.64,6.86-15.23,10.42-22.79,7.11-15.1,14.56-30.03,22.33-44.8,14.25-27.06,29.58-53.55,45.88-79.42,17.08-27.1,35.22-53.52,54.29-79.25,2.49-3.36,5-6.71,7.53-10.05.39-.51,8.79-11.47,3.15-4.19,4.28-5.52,8.61-11,12.97-16.45,10.5-13.1,21.23-26.01,32.19-38.73,42.21-48.99,87.71-95.13,135.69-138.47,23.56-21.29,47.72-41.91,72.4-61.89,6.04-4.89,12.1-9.73,18.2-14.54,3.33-2.62,6.66-5.23,10-7.83-6.13,4.77,1.12-.86,2.63-2.01,12.89-9.86,25.91-19.55,39.04-29.07,54.47-39.5,110.93-76.5,169.29-110.01,31.43-18.05,63.5-35.01,96.35-50.35,31.06-14.51,57.71-25.41,93.9-37.29,32.44-10.65,65.56-19.29,99.18-25.28,28.2-5.02,59.37-7.87,94.59-7.93,23.54-.04,46.09-20.67,45-45-1.09-24.35-19.77-45.04-45-45h0Z"/>
  <g class="cls-3">
    <path class="cls-1" d="m1200.71,81.88c-168.84-.44-328.57,75.66-471.22,165.99C455.91,421.1,213.3,664.06,108.12,970.31c-46.59,135.65-64.99,280.11-62.6,423.52,7.11,427.89,222.4,864.93,599.27,1067.68,347.81,187.12,776.14,154.84,1152.33,34.56,276.93-88.54,549.54-230.09,719.91-465.69,104.07-143.92,164.39-315.59,199.18-489.76,52.48-262.71,45.46-550.22-92.4-779.93-65.2-108.64-156.46-199.23-252.17-282.26-179.35-155.58-380.56-290.29-605.21-367.14-224.65-76.85-474.74-92.74-699.13-15.15"/>
    <path class="cls-2" d="m1200.71,36.88c-153.03.25-298.46,57.9-429.44,133.13-118.92,68.3-231.41,150.07-332.92,242.28C234.56,597.4,77.82,835.02,24.99,1108.01c-51.88,268.11-21.62,552.09,84.15,803.72,97.75,232.53,259.71,439.83,478.61,569.27,246.69,145.87,543.07,179.57,823.73,145.8,143.56-17.28,284.69-49.75,421.91-95.24,128.76-42.68,255.07-96.03,371.78-165.52,114.93-68.43,222.04-153.38,307.38-256.86,95.31-115.56,161.65-250.45,205.88-393.12,42.97-138.58,68.37-284.75,72.47-429.83,3.97-140.49-13.6-284.52-64.54-416.13-26.11-67.45-59.57-131.3-101.95-189.97-43.93-60.81-94.36-116.36-148.65-168.04-106.51-101.4-223.55-194.01-347.46-273.24C1876.57,77.86,1577.06-25.57,1275.28,5.63c-74.89,7.74-148.68,22.7-219.95,47.12-22.22,7.61-39.23,31.24-31.43,55.36,7.13,22.03,31.51,39.6,55.36,31.43,34.82-11.93,70.28-21.84,106.29-29.52,17.18-3.67,34.46-6.84,51.81-9.55,4.73-.74,9.47-1.44,14.22-2.11-8.35,1.16,7.22-.89,7.04-.87,9.52-1.15,19.05-2.16,28.6-3.03,73.46-6.71,147.59-5.3,220.85,3.08,4,.46,7.99.94,11.98,1.44,1.6.2,11.7,1.56,4.79.6,9.57,1.32,19.11,2.79,28.64,4.36,19.07,3.14,38.06,6.74,56.95,10.78,34.62,7.41,68.92,16.32,102.79,26.63,34.45,10.49,68.45,22.47,101.94,35.7,8.58,3.39,17.14,6.86,25.66,10.42-5.9-2.47,1.21.52,2,.86,4.24,1.83,8.47,3.66,12.7,5.51,16.89,7.43,33.64,15.17,50.25,23.21,63.77,30.86,125.42,66.04,184.9,104.49,56.78,36.71,116.02,79.69,163.71,117.63,55.61,44.24,109.77,90.59,161.11,139.74,25.7,24.61,50.63,50.04,74.32,76.6,11.3,12.66,22.32,25.58,33,38.77,11.61,14.34,17.03,21.44,29.27,38.77,19.7,27.9,37.7,56.98,53.63,87.19,7.23,13.71,14.05,27.64,20.46,41.75,1.83,4.02,3.6,8.07,5.38,12.12,5.84,13.22-3.04-7.89,2.32,5.53,3.28,8.2,6.54,16.39,9.62,24.67,23.67,63.6,39.57,130.02,48.87,197.21-1.3-9.39.63,5.15.7,5.7.36,2.95.71,5.9,1.04,8.86,1.01,8.87,1.91,17.75,2.7,26.65,1.59,17.84,2.75,35.71,3.52,53.6,1.47,34.44,1.47,68.94.14,103.39-1.3,33.79-3.86,67.53-7.54,101.15-.9,8.21-1.87,16.42-2.9,24.61-.06.45-2.03,15.13-.75,5.89-.41,2.97-.83,5.94-1.25,8.91-2.55,17.78-5.41,35.52-8.55,53.21-12.45,70.14-29.07,139.66-50.61,207.57-10.85,34.19-22.99,67.98-36.59,101.17-4.31,10.51-10.67,25.02-17.92,40.56-7.89,16.9-16.19,33.6-24.93,50.07-16.02,30.19-33.51,59.6-52.55,87.99-9.23,13.75-18.82,27.26-28.77,40.5-.32.43-8.85,11.5-3.28,4.36-2.6,3.34-5.24,6.66-7.89,9.96-5.29,6.6-10.68,13.12-16.14,19.58-41.8,49.33-88.56,94.34-138.76,135.06-5.47,4.43-10.98,8.8-16.51,13.15-10.93,8.58,6.85-5.04-4.28,3.28-3.39,2.53-6.75,5.09-10.15,7.61-13.6,10.1-27.42,19.91-41.42,29.45-26.95,18.36-54.59,35.69-82.77,52.08-55.52,32.29-113.14,60.9-172.03,86.49-3.94,1.71-7.88,3.4-11.83,5.09-12.99,5.56,7.99-3.26-5.07,2.12-6.61,2.72-13.22,5.45-19.86,8.13-15.91,6.41-31.9,12.62-47.97,18.63-30.69,11.49-61.65,22.27-92.81,32.41-65.15,21.21-131.23,39.62-198.05,54.78-33.35,7.57-66.89,14.33-100.58,20.21-16.47,2.87-32.97,5.54-49.51,7.99-4.51.67-9.02,1.29-13.53,1.95-14.81,2.16,8.74-1.07-6.09.84-9.03,1.16-18.06,2.29-27.11,3.33-68.98,7.95-138.45,11.93-207.89,11.11-34.41-.41-68.82-1.99-103.11-4.88-16.33-1.38-32.63-3.04-48.9-5.01-2.95-.36-5.9-.74-8.86-1.1-14.55-1.81,8.78,1.37-5.71-.78-9.55-1.42-19.09-2.83-28.61-4.4-66.45-11.01-132.04-27.41-195.58-49.81-15.38-5.42-30.64-11.19-45.76-17.32-.2-.08-13.73-5.66-5.72-2.3-4.11-1.73-8.2-3.52-12.29-5.31-8.18-3.6-16.32-7.31-24.4-11.12-29.31-13.82-57.98-29.03-85.81-45.64-25.81-15.4-50.91-31.98-75.21-49.66-5.27-3.83-10.5-7.71-15.69-11.64-.93-.7-11.16-8.69-3.28-2.49-3.07-2.41-6.14-4.83-9.19-7.26-11.68-9.34-23.15-18.95-34.42-28.79-44.59-38.96-85.86-81.69-123.55-127.35-4.98-6.04-9.9-12.12-14.76-18.26-1.62-2.05-3.23-4.1-4.84-6.16-8.02-10.23,5.26,7.12-2.52-3.31-9.39-12.58-18.72-25.17-27.7-38.04-17.26-24.72-33.59-50.1-48.97-76.03-15.44-26.03-29.93-52.63-43.47-79.7-6.49-12.98-12.76-26.07-18.82-39.26-2.75-6-5.46-12.03-8.13-18.07-1.6-3.63-3.16-7.27-4.75-10.9-4.27-9.76,2.06,5.14-1.64-3.86-23.2-56.4-42.92-114.1-58.54-173.05-7.81-29.49-14.64-59.23-20.47-89.18-2.79-14.31-5.35-28.67-7.68-43.06-1.06-6.54-2.07-13.09-3.03-19.64-.58-3.93-1.13-7.87-1.68-11.8,1.53,10.88-.74-5.85-.97-7.73-7.66-62.1-10.91-124.68-10.02-187.24,1.11-78.03,7.83-148.78,22.27-221.75s34.87-140.57,62.58-207.48c-3.14,7.58.37-.87,1.18-2.73,1.38-3.2,2.78-6.39,4.19-9.57,3.38-7.64,6.86-15.23,10.42-22.79,7.11-15.1,14.56-30.03,22.33-44.8,14.25-27.06,29.58-53.55,45.88-79.42,17.08-27.1,35.22-53.52,54.29-79.25,2.49-3.36,5-6.71,7.53-10.05.39-.51,8.79-11.47,3.15-4.19,4.28-5.52,8.61-11,12.97-16.45,10.5-13.1,21.23-26.01,32.19-38.73,42.21-48.99,87.71-95.13,135.69-138.47,23.56-21.29,47.72-41.91,72.4-61.89,6.04-4.89,12.1-9.73,18.2-14.54,3.33-2.62,6.66-5.23,10-7.83-6.13,4.77,1.12-.86,2.63-2.01,12.89-9.86,25.91-19.55,39.04-29.07,54.47-39.5,110.93-76.5,169.29-110.01,31.43-18.05,63.5-35.01,96.35-50.35,31.06-14.51,57.71-25.41,93.9-37.29,32.44-10.65,65.56-19.29,99.18-25.28,28.2-5.02,59.37-7.87,94.59-7.93,23.54-.04,46.09-20.67,45-45s-19.77-45.04-45-45h0Z"/>
  </g>
  <path class="cls-2" d="m555.47,598.02c8.91,39.69,18.24,79.28,28,118.76s19.94,78.85,30.54,118.11,21.51,78.01,32.89,116.84,23.28,77.89,35.55,116.64c12.26,38.74,24.94,77.35,38.04,115.82,1.63,4.78,3.26,9.57,4.91,14.35,3.82,11.14,10.3,20.82,20.68,26.89,5.17,3.29,10.74,5.07,16.73,5.34,5.98,1.34,11.96,1.07,17.94-.8,10.89-3.52,21.39-10.27,26.89-20.68s8.46-23.24,4.54-34.68c-13.19-38.43-25.98-77-38.35-115.71s-24.33-77.57-35.86-116.54c-11.48-38.8-22.55-77.72-33.2-116.75-10.71-39.23-20.99-78.57-30.85-118.03s-19.3-79.02-28.32-118.69c-1.12-4.93-2.24-9.87-3.34-14.81-1.39-5.86-4.08-10.96-8.05-15.3-3.17-4.9-7.38-8.76-12.63-11.59-5.17-3.29-10.74-5.07-16.73-5.34-5.98-1.34-11.96-1.07-17.94.8-10.89,3.52-21.39,10.27-26.89,20.68l-4.54,10.75c-2.14,7.98-2.14,15.95,0,23.93h0Z"/>
  <path class="cls-2" d="m444.88,1017.57c50.17-24.4,100.4-48.7,151.35-71.43,14.44-6.44,28.94-12.75,43.51-18.9l-10.75,4.54c37.88-15.97,76.23-30.86,115.22-43.92s77.94-24.1,117.8-32.68c22.31-4.8,44.8-8.77,67.42-11.82l-11.96,1.61c25.81-3.45,51.77-5.68,77.8-6.54,11.77-.39,23.39-4.75,31.82-13.18,4.39-4.08,7.49-8.9,9.3-14.48,2.82-5.36,4.11-11.14,3.88-17.34-.52-11.64-4.34-23.71-13.18-31.82s-19.78-13.58-31.82-13.18c-42.98,1.41-85.9,6.55-128.19,14.22-38.69,7.02-76.89,16.61-114.49,28.08s-75.53,25.12-112.49,39.87c-40.31,16.08-80.14,33.42-119.58,51.54-36.19,16.63-72.07,33.91-107.89,51.31-4.4,2.14-8.79,4.27-13.19,6.41-5.24,2.83-9.45,6.69-12.63,11.59-3.98,4.35-6.66,9.45-8.05,15.3-1.88,5.98-2.14,11.96-.8,17.94.27,5.99,2.05,11.57,5.34,16.73,6.19,9.61,15.42,18.07,26.89,20.68l11.96,1.61c8.12-.03,15.69-2.07,22.71-6.14h0Z"/>
</svg>