<?xml version="1.0" encoding="UTF-8"?>
<svg id="Layer_1" data-name="Layer 1" xmlns="http://www.w3.org/2000/svg" viewBox="0 0 192.01 301.03">
  <defs>
    <style>
      .cls-1 {
        fill: #f9cb40;
      }

      .cls-1, .cls-2 {
        stroke-width: 0px;
      }

      .cls-2 {
        fill: #ef8354;
      }
    </style>
  </defs>
  <path class="cls-2" d="m58.36,284.93l-21.17-17.13c-4.94-3.99-5.48-11.52-1.2-16.8l88.51-109.36L4.09,44.21c-4.94-4-5.48-11.52-1.2-16.8L21.22,4.76c4.27-5.29,11.75-6.33,16.68-2.33l150.02,121.38c3.29,2.66,4.63,6.89,3.89,10.98-.2,2.46-1.13,4.93-2.84,7.05l-113.93,140.76c-4.27,5.29-11.75,6.33-16.68,2.33Z"/>
  <g>
    <path class="cls-1" d="m66.91,298.53c-.71,0-1.42-.07-2.12-.21l-28.55-5.78c-2.68-.54-5.04-2.1-6.48-4.29-1.29-1.96-1.76-4.26-1.3-6.47l12.53-60.66c.85-4.11,4.77-7.1,9.32-7.1.71,0,1.42.07,2.12.21l28.55,5.78c2.68.54,5.04,2.11,6.49,4.29,1.29,1.96,1.75,4.26,1.3,6.47l-12.53,60.66c-.85,4.11-4.77,7.1-9.32,7.1Z"/>
    <path class="cls-2" d="m50.3,216.53h0c.54,0,1.09.06,1.63.16l28.55,5.78c2.03.41,3.82,1.58,4.89,3.21.92,1.4,1.26,3.03.94,4.58l-12.53,60.66c-.61,2.96-3.5,5.1-6.87,5.1-.54,0-1.09-.06-1.63-.16l-28.55-5.78c-2.03-.41-3.82-1.58-4.89-3.21-.92-1.4-1.26-3.03-.94-4.58l12.53-60.66c.61-2.96,3.5-5.1,6.87-5.1m0-5c-5.66,0-10.66,3.69-11.77,9.09l-12.53,60.66c-1.28,6.22,3.07,12.36,9.74,13.71l28.55,5.78c.88.18,1.76.26,2.62.26,5.66,0,10.66-3.69,11.77-9.09l12.53-60.66c1.28-6.22-3.07-12.36-9.74-13.71l-28.55-5.78c-.88-.18-1.76-.26-2.62-.26h0Z"/>
  </g>
</svg>