<?xml version="1.0" encoding="UTF-8"?>
<svg id="Layer_1" data-name="Layer 1" xmlns="http://www.w3.org/2000/svg" viewBox="0 0 45.01 45.01">
  <defs>
    <style>
      .cls-1 {
        fill: none;
        stroke: #2d3142;
        stroke-miterlimit: 10;
        stroke-width: 5px;
      }

      .cls-2 {
        fill: #ddd9bf;
      }

      .cls-2, .cls-3 {
        stroke-width: 0px;
      }

      .cls-3 {
        fill: #2d3142;
      }
    </style>
  </defs>
  <g>
    <path class="cls-2" d="m22.47,42.5c-4.78,0-9.42-1.73-13.06-4.88-3.7-3.2-6.09-7.63-6.74-12.48-.71-5.3.69-10.55,3.94-14.79s7.95-6.97,13.25-7.67c.89-.12,1.78-.18,2.67-.18,3.81,0,7.53,1.09,10.75,3.16,4.97,3.18,8.27,8.36,9.04,14.21.71,5.29-.69,10.55-3.94,14.79-3.25,4.24-7.95,6.97-13.25,7.67-.88.12-1.78.18-2.67.18Z"/>
    <path class="cls-3" d="m22.53,5c3.33,0,6.58.96,9.4,2.76,4.35,2.79,7.23,7.32,7.91,12.43,1.27,9.57-5.47,18.38-15.04,19.66-.78.1-1.56.16-2.34.16-4.18,0-8.24-1.52-11.42-4.27-3.24-2.8-5.33-6.68-5.89-10.92C3.88,15.25,10.63,6.43,20.19,5.16c.78-.1,1.56-.16,2.34-.16M22.53,0c-.99,0-1.99.07-3,.2C7.21,1.84-1.44,13.16.2,25.47c.76,5.68,3.57,10.57,7.58,14.04,3.99,3.45,9.16,5.49,14.69,5.49.99,0,1.99-.07,3-.2,12.32-1.64,20.97-12.96,19.33-25.27-.91-6.83-4.79-12.53-10.17-15.98C31.1,1.29,26.93,0,22.53,0h0Z"/>
  </g>
  <line class="cls-1" x1="35.1" y1="7.16" x2="10.56" y2="37.27"/>
  <line class="cls-1" x1="7.1" y1="11.31" x2="38.84" y2="35.22"/>
</svg>