<?xml version="1.0" encoding="UTF-8"?>
<svg id="Layer_1" data-name="Layer 1" xmlns="http://www.w3.org/2000/svg" viewBox="0 0 192.01 301.03">
  <defs>
    <style>
      .cls-1 {
        fill: #f9cb40;
      }

      .cls-1, .cls-2 {
        stroke-width: 0px;
      }

      .cls-2 {
        fill: #ef8354;
      }
    </style>
  </defs>
  <path class="cls-2" d="m133.65,284.93l21.17-17.13c4.94-3.99,5.48-11.52,1.2-16.8l-88.51-109.36,120.41-97.42c4.94-4,5.48-11.52,1.2-16.8l-18.33-22.65c-4.27-5.29-11.75-6.33-16.68-2.33L4.09,123.81c-3.29,2.66-4.63,6.89-3.89,10.98.2,2.46,1.13,4.93,2.84,7.05l113.93,140.76c4.27,5.29,11.75,6.33,16.68,2.33Z"/>
  <g>
    <path class="cls-1" d="m125.1,298.53c-4.55,0-8.47-2.98-9.32-7.09l-12.53-60.66c-.46-2.21,0-4.51,1.3-6.47,1.44-2.18,3.8-3.74,6.49-4.29l28.55-5.78c.7-.14,1.42-.21,2.12-.21,4.55,0,8.47,2.98,9.32,7.1l12.53,60.66c.46,2.21,0,4.51-1.3,6.47-1.44,2.18-3.8,3.74-6.49,4.29l-28.55,5.78c-.7.14-1.42.21-2.12.21h0Z"/>
    <path class="cls-2" d="m141.71,216.53c3.37,0,6.26,2.15,6.87,5.1l12.53,60.66c.32,1.56-.01,3.18-.94,4.58-1.08,1.63-2.86,2.8-4.89,3.21l-28.55,5.78c-.54.11-1.09.16-1.63.16-3.37,0-6.26-2.15-6.87-5.1l-12.53-60.66c-.32-1.56.01-3.18.94-4.58,1.08-1.63,2.86-2.8,4.89-3.21l28.55-5.78c.54-.11,1.09-.16,1.63-.16m0-5c-.86,0-1.74.09-2.62.26l-28.55,5.78c-6.66,1.35-11.02,7.49-9.74,13.71l12.53,60.66c1.12,5.4,6.11,9.09,11.77,9.09.86,0,1.74-.09,2.62-.26l28.55-5.78c6.66-1.35,11.02-7.49,9.74-13.71l-12.53-60.66c-1.12-5.4-6.11-9.09-11.77-9.09h0Z"/>
  </g>
</svg>