<?xml version="1.0" encoding="UTF-8"?>
<svg id="Layer_1" data-name="Layer 1" xmlns="http://www.w3.org/2000/svg" viewBox="0 0 453 351.26">
  <defs>
    <style>
      .cls-1 {
        fill: #f9cb40;
      }

      .cls-1, .cls-2, .cls-3 {
        stroke-width: 0px;
      }

      .cls-2 {
        fill: #ede6d1;
      }

      .cls-3 {
        fill: #ef8354;
      }
    </style>
  </defs>
  <g>
    <path class="cls-3" d="m139.79,81.26c1.22,0,2.21.99,2.21,2.21v197.58c0,1.22-.99,2.21-2.21,2.21h-44.58c-1.22,0-2.21-.99-2.21-2.21V83.48c0-1.22.99-2.21,2.21-2.21h44.58m0-20h-44.58c-12.27,0-22.21,9.94-22.21,22.21v197.58c0,12.27,9.94,22.21,22.21,22.21h44.58c12.27,0,22.21-9.94,22.21-22.21V83.48c0-12.27-9.94-22.21-22.21-22.21h0Z"/>
    <g>
      <rect class="cls-1" x="46" y="264.26" width="397" height="77" rx="12.21" ry="12.21"/>
      <path class="cls-3" d="m430.79,274.26c1.22,0,2.21.99,2.21,2.21v52.58c0,1.22-.99,2.21-2.21,2.21H58.21c-1.22,0-2.21-.99-2.21-2.21v-52.58c0-1.22.99-2.21,2.21-2.21h372.58m0-20H58.21c-12.27,0-22.21,9.94-22.21,22.21v52.58c0,12.27,9.94,22.21,22.21,22.21h372.58c12.27,0,22.21-9.94,22.21-22.21v-52.58c0-12.27-9.94-22.21-22.21-22.21h0Z"/>
    </g>
  </g>
  <rect class="cls-2" width="235" height="184.6" rx="22.21" ry="22.21"/>
</svg>