<?xml version="1.0" encoding="UTF-8"?>
<svg id="Layer_1" data-name="Layer 1" xmlns="http://www.w3.org/2000/svg" viewBox="0 0 99.37 417.33">
  <defs>
    <style>
      .cls-1 {
        fill: none;
        stroke: #2d3142;
        stroke-miterlimit: 10;
        stroke-width: 5px;
      }

      .cls-2 {
        fill: #f9cb40;
      }

      .cls-2, .cls-3, .cls-4, .cls-5 {
        stroke-width: 0px;
      }

      .cls-3 {
        fill: #ddd9bf;
      }

      .cls-4 {
        fill: #2d3142;
      }

      .cls-5 {
        fill: #ef8354;
      }
    </style>
  </defs>
  <g>
    <path class="cls-2" d="m24.58,407.33c-6.69,0-12.17-5.44-12.21-12.13L10,22.62c-.04-6.73,5.4-12.25,12.13-12.29l52.58-.33c6.77,0,12.25,5.44,12.29,12.13l2.38,372.57c.04,6.73-5.4,12.25-12.13,12.29l-52.66.34Z"/>
    <path class="cls-5" d="m74.79,20h0c1.21,0,2.2.99,2.21,2.2l2.38,372.57c0,1.22-.98,2.22-2.2,2.22l-52.59.34c-1.21,0-2.2-.99-2.21-2.2L20,22.56c0-.61.21-1.13.64-1.57.43-.43.95-.65,1.56-.66l52.6-.34M74.79,0s-.1,0-.14,0L22.07.34C9.8.41-.08,10.42,0,22.69l2.38,372.57c.08,12.22,10.01,22.07,22.21,22.07.05,0,.1,0,.14,0l52.58-.34c12.27-.08,22.15-10.09,22.07-22.35l-2.38-372.57C96.92,9.85,86.99,0,74.79,0h0Z"/>
  </g>
  <g>
    <path class="cls-3" d="m50.75,387.86c-4.78,0-9.42-1.73-13.06-4.88-3.7-3.2-6.09-7.63-6.74-12.48-1.46-10.93,6.25-21.01,17.18-22.46.89-.12,1.78-.18,2.67-.18,3.81,0,7.53,1.09,10.75,3.16,4.97,3.18,8.27,8.36,9.04,14.21.71,5.3-.69,10.55-3.94,14.79-3.25,4.24-7.95,6.97-13.25,7.67-.88.12-1.78.18-2.67.18Z"/>
    <path class="cls-4" d="m50.81,350.36c3.33,0,6.58.95,9.4,2.76,4.35,2.79,7.23,7.32,7.91,12.43,1.27,9.57-5.47,18.38-15.04,19.66-.78.1-1.56.16-2.34.16-4.18,0-8.24-1.52-11.42-4.27-3.24-2.8-5.33-6.68-5.89-10.92-1.27-9.57,5.47-18.38,15.04-19.66.78-.1,1.56-.16,2.34-.16m0-5c-.99,0-1.99.07-3,.2-12.32,1.64-20.97,12.96-19.33,25.27.76,5.68,3.57,10.57,7.58,14.04,3.99,3.45,9.16,5.49,14.69,5.49.99,0,1.99-.07,3-.2,12.32-1.64,20.97-12.96,19.33-25.27-.91-6.83-4.79-12.53-10.17-15.98-3.53-2.26-7.7-3.55-12.1-3.55h0Z"/>
  </g>
  <line class="cls-1" x1="63.38" y1="352.51" x2="38.83" y2="382.63"/>
  <line class="cls-1" x1="35.38" y1="356.67" x2="67.12" y2="380.57"/>
</svg>