<?xml version="1.0" encoding="UTF-8"?>
<svg id="Layer_1" data-name="Layer 1" xmlns="http://www.w3.org/2000/svg" viewBox="0 0 135 135">
  <defs>
    <style>
      .cls-1 {
        fill: #99c24d;
      }

      .cls-1, .cls-2 {
        stroke-width: 0px;
      }

      .cls-3 {
        opacity: .2;
      }

      .cls-2 {
        fill: #35605a;
      }
    </style>
  </defs>
  <g class="cls-3">
    <path class="cls-1" d="m22.21,10h90.58c6.74,0,12.21,5.47,12.21,12.21v90.58c0,6.74-5.47,12.21-12.21,12.21H22.21c-6.74,0-12.21-5.47-12.21-12.21V22.21c0-6.74,5.47-12.21,12.21-12.21Z"/>
    <path class="cls-2" d="m112.79,20c1.22,0,2.21.99,2.21,2.21v90.58c0,1.22-.99,2.21-2.21,2.21H22.21c-1.22,0-2.21-.99-2.21-2.21V22.21c0-1.22.99-2.21,2.21-2.21h90.58m0-20H22.21C9.94,0,0,9.94,0,22.21v90.58c0,12.27,9.94,22.21,22.21,22.21h90.58c12.27,0,22.21-9.94,22.21-22.21V22.21c0-12.27-9.94-22.21-22.21-22.21h0Z"/>
  </g>
</svg>