<?xml version="1.0" encoding="UTF-8"?>
<svg id="Layer_1" data-name="Layer 1" xmlns="http://www.w3.org/2000/svg" viewBox="0 0 81 81">
  <defs>
    <style>
      .cls-1 {
        fill: #ef8354;
        stroke-width: 0px;
      }

      .cls-2 {
        fill: none;
        stroke: #f9cb40;
        stroke-miterlimit: 10;
        stroke-width: 8px;
      }
    </style>
  </defs>
  <g>
    <rect class="cls-1" x="10" y="10" width="61" height="61" rx="12.21" ry="12.21"/>
    <path class="cls-1" d="m58.79,20c1.22,0,2.21.99,2.21,2.21v36.58c0,1.22-.99,2.21-2.21,2.21H22.21c-1.22,0-2.21-.99-2.21-2.21V22.21c0-1.22.99-2.21,2.21-2.21h36.58m0-20H22.21C9.94,0,0,9.94,0,22.21v36.58c0,12.27,9.94,22.21,22.21,22.21h36.58c12.27,0,22.21-9.94,22.21-22.21V22.21c0-12.27-9.94-22.21-22.21-22.21h0Z"/>
  </g>
  <g>
    <polyline class="cls-2" points="18.4 32.68 16.52 18.61 30.76 23.92"/>
    <line class="cls-2" x1="16.52" y1="18.61" x2="30.76" y2="35.8"/>
  </g>
  <g>
    <polyline class="cls-2" points="18.12 52.38 16.24 66.45 30.48 61.14"/>
    <line class="cls-2" x1="16.24" y1="66.45" x2="30.48" y2="49.25"/>
  </g>
  <g>
    <polyline class="cls-2" points="62.51 31.4 64.4 17.33 50.15 22.64"/>
    <line class="cls-2" x1="64.4" y1="17.33" x2="50.15" y2="34.53"/>
  </g>
  <g>
    <polyline class="cls-2" points="62.24 52.38 64.13 66.45 49.88 61.14"/>
    <line class="cls-2" x1="64.13" y1="66.45" x2="49.88" y2="49.25"/>
  </g>
</svg>