<?xml version="1.0" encoding="UTF-8"?>
<svg id="Layer_1" data-name="Layer 1" xmlns="http://www.w3.org/2000/svg" viewBox="0 0 1920 114">
  <defs>
    <style>
      .cls-1 {
        fill: #6d6875;
      }

      .cls-1, .cls-2 {
        stroke-width: 0px;
      }

      .cls-2 {
        fill: #2d3142;
      }
    </style>
  </defs>
  <path class="cls-1" d="m15.83,10h1888.34c3.22,0,5.83,2.61,5.83,5.83v82.34c0,3.22-2.61,5.83-5.83,5.83H15.83c-3.22,0-5.83-2.61-5.83-5.83V15.83c0-3.22,2.61-5.83,5.83-5.83Z"/>
  <path class="cls-2" d="m1900,20v74H20V20h1880m4.17-20H15.83C7.09,0,0,7.09,0,15.83v82.34c0,8.74,7.09,15.83,15.83,15.83h1888.34c8.74,0,15.83-7.09,15.83-15.83V15.83c0-8.74-7.09-15.83-15.83-15.83h0Z"/>
</svg>