<?xml version="1.0" encoding="UTF-8"?>
<svg id="Layer_1" data-name="Layer 1" xmlns="http://www.w3.org/2000/svg" viewBox="0 0 128 128">
  <defs>
    <style>
      .cls-1 {
        fill: #99c24d;
      }

      .cls-1, .cls-2, .cls-3, .cls-4 {
        stroke-width: 0px;
      }

      .cls-2 {
        fill: #f9cb40;
      }

      .cls-3 {
        fill: #35605a;
      }

      .cls-4, .cls-5 {
        fill: #ef8354;
      }

      .cls-5 {
        stroke: #ef8354;
        stroke-miterlimit: 10;
        stroke-width: 10px;
      }
    </style>
  </defs>
  <g>
    <rect class="cls-1" x="5" y="5" width="118" height="118"/>
    <path class="cls-3" d="m118,10v108H10V10h108m10-10H0v128h128V0h0Z"/>
  </g>
  <g>
    <path class="cls-4" d="m94.18,124.77l-10.74-6.47c-2.51-1.51-3.23-4.9-1.62-7.58l33.4-55.49L54.13,18.47c-2.51-1.51-3.23-4.91-1.62-7.59L59.43-.61c1.61-2.68,4.95-3.63,7.46-2.12l76.12,45.81c1.67,1,2.55,2.85,2.47,4.76.07,1.13-.2,2.32-.85,3.39l-43,71.42c-1.61,2.68-4.95,3.63-7.46,2.12Z"/>
    <path class="cls-2" d="m105.75,98.22l-1.85,28.45c-.19,2.92-2.88,5.13-6,4.94l-13.39-.82c-3.12-.19-5.5-2.71-5.31-5.63l1.85-28.45c.19-2.92,2.88-5.13,6-4.94l13.39.82c3.12.19,5.5,2.71,5.31,5.63Z"/>
  </g>
  <line class="cls-5" y1="58" x2="128" y2="58"/>
  <g>
    <path class="cls-4" d="m32.9,124.7l10.74-6.47c2.51-1.51,3.23-4.9,1.62-7.58L11.86,55.16l61.09-36.76c2.51-1.51,3.23-4.91,1.62-7.59l-6.92-11.49c-1.61-2.68-4.95-3.63-7.46-2.12L-15.93,43c-1.67,1-2.55,2.85-2.47,4.76-.07,1.13.2,2.32.85,3.39L25.44,122.58c1.61,2.68,4.95,3.63,7.46,2.12Z"/>
    <path class="cls-2" d="m21.33,98.15l1.85,28.45c.19,2.92,2.88,5.13,6,4.94l13.39-.82c3.12-.19,5.5-2.71,5.31-5.63l-1.85-28.45c-.19-2.92-2.88-5.13-6-4.94l-13.39.82c-3.12.19-5.5,2.71-5.31,5.63Z"/>
  </g>
</svg>