<?xml version="1.0" encoding="UTF-8"?>
<svg id="Layer_1" data-name="Layer 1" xmlns="http://www.w3.org/2000/svg" viewBox="0 0 713.23 700.17">
  <defs>
    <style>
      .cls-1 {
        fill: #f9cb40;
      }

      .cls-1, .cls-2 {
        stroke-width: 0px;
      }

      .cls-3 {
        fill: #ddd9bf;
        stroke: #ddd9bf;
        stroke-width: 57px;
      }

      .cls-3, .cls-4, .cls-5, .cls-6 {
        stroke-miterlimit: 10;
      }

      .cls-4 {
        stroke: #f9cb40;
        stroke-width: 28px;
      }

      .cls-4, .cls-6 {
        fill: none;
      }

      .cls-7 {
        opacity: .75;
      }

      .cls-2 {
        fill: #ef8354;
      }

      .cls-5 {
        fill: #ff865c;
        font-family: Impact, Impact;
        font-size: 60px;
        stroke: #000;
        stroke-width: 2px;
      }

      .cls-6 {
        stroke: #ef8354;
        stroke-width: 15px;
      }
    </style>
  </defs>
  <g class="cls-7">
    <rect class="cls-1" x="151.5" y="247.79" width="111.81" height="101" rx="24.87" ry="24.87"/>
  </g>
  <g class="cls-7">
    <rect class="cls-1" x="297.5" y="248.79" width="111.81" height="101" rx="24.87" ry="24.87"/>
  </g>
  <g class="cls-7">
    <rect class="cls-1" x="5.5" y="248.79" width="111.81" height="101" rx="24.87" ry="24.87"/>
  </g>
  <g class="cls-7">
    <rect class="cls-1" x="152.5" y="119.79" width="111.81" height="101" rx="24.87" ry="24.87"/>
  </g>
  <path class="cls-2" d="m488.97,282.94v83.05c0,15.19,34.06,40,73,40s73-24.81,73-40v-83.05h-146Z"/>
  <path class="cls-2" d="m634.97,272.94v-47.95c0-11.63-19.97-35.91-46.79-46.66v40.62c0,11.41-12.23,30.04-26.21,30.04s-26.21-18.63-26.21-30.04v-40.62c-26.83,10.76-46.79,35.04-46.79,46.66v47.95h146Z"/>
  <path class="cls-2" d="m571.62,204.76v26.51c0,2.86-4.68,7.52-10.04,7.52s-10.04-4.66-10.04-7.52v-26.51c0-2.86,4.68-9.78,10.04-9.78s10.04,6.92,10.04,9.78Z"/>
  <path class="cls-6" d="m561.97,178.32l30.71-30.1c25.42-24.91,17.44-67.64-15.24-81.7l-9.45-4.07c-3.64-1.57-7.45-2.68-11.35-3.36-16.24-2.82-63.3-14.73-51.67-57.11"/>
  <rect class="cls-6" x="152.07" y="119.49" width="111.81" height="101" rx="24.87" ry="24.87"/>
  <rect class="cls-6" x="152.5" y="247.79" width="111.81" height="101" rx="24.87" ry="24.87"/>
  <rect class="cls-6" x="297.5" y="247.79" width="111.81" height="101" rx="24.87" ry="24.87"/>
  <rect class="cls-6" x="7.5" y="247.79" width="111.81" height="101" rx="24.87" ry="24.87"/>
  <text class="cls-5" transform="translate(182.62 192.54)"><tspan x="0" y="0">W</tspan></text>
  <text class="cls-5" transform="translate(46.89 321.93)"><tspan x="0" y="0">A</tspan></text>
  <text class="cls-5" transform="translate(191.07 319.93)"><tspan x="0" y="0">S</tspan></text>
  <text class="cls-5" transform="translate(334.89 321.93)"><tspan x="0" y="0">D</tspan></text>
  <g>
    <polyline class="cls-4" points="434.45 175.8 428.32 129.99 474.7 147.28"/>
    <line class="cls-4" x1="428.32" y1="129.99" x2="474.7" y2="185.98"/>
  </g>
  <g>
    <polyline class="cls-4" points="434.33 422.17 428.2 467.99 474.58 450.7"/>
    <line class="cls-4" x1="428.2" y1="467.99" x2="474.58" y2="411.99"/>
  </g>
  <g>
    <polyline class="cls-4" points="689.8 180.43 695.93 134.61 649.55 151.9"/>
    <line class="cls-4" x1="695.93" y1="134.61" x2="649.55" y2="190.6"/>
  </g>
  <g>
    <polyline class="cls-4" points="690.12 422.17 696.25 467.99 649.87 450.7"/>
    <line class="cls-4" x1="696.25" y1="467.99" x2="649.87" y2="411.99"/>
  </g>
  <g>
    <polyline class="cls-3" points="593.18 656.35 608.63 540.98 491.83 584.53"/>
    <line class="cls-3" x1="608.63" y1="540.98" x2="491.83" y2="681.99"/>
  </g>
</svg>