<?xml version="1.0" encoding="UTF-8"?>
<svg id="Layer_1" data-name="Layer 1" xmlns="http://www.w3.org/2000/svg" viewBox="0 0 2119.07 1202.34">
  <defs>
    <style>
      .cls-1 {
        fill: #7d7d7d;
      }

      .cls-1, .cls-2 {
        stroke: #646464;
        stroke-miterlimit: 10;
        stroke-width: 7px;
      }

      .cls-3 {
        fill: #595a5d;
      }

      .cls-3, .cls-4, .cls-5 {
        stroke-width: 0px;
      }

      .cls-4 {
        fill: #edecec;
      }

      .cls-4, .cls-5, .cls-6 {
        opacity: .4;
      }

      .cls-2 {
        fill: #979696;
        opacity: .9;
      }

      .cls-5 {
        fill: #fcdc4d;
      }
    </style>
  </defs>
  <rect class="cls-3" x="108.6" y="39.28" width="1920" height="1080"/>
  <g class="cls-6">
    <path class="cls-3" d="M2117.98,812.85c-4-.58-8.01-1.16-12.01-1.74-.8-.12-1.61.2-1.85,1.05-.19.7.24,1.73,1.05,1.85,4,.58,8.01,1.16,12.01,1.74.8.12,1.61-.2,1.85-1.05.19-.7-.24-1.73-1.05-1.85h0Z"/>
  </g>
  <rect class="cls-4" x="51.64" y="608.1" width="180.51" height="27.18" rx="13.59" ry="13.59"/>
  <rect class="cls-4" x="313.08" y="608.53" width="180.51" height="27.18" rx="13.59" ry="13.59"/>
  <rect class="cls-4" x="575.08" y="607.53" width="180.51" height="27.18" rx="13.59" ry="13.59"/>
  <rect class="cls-4" x="837.08" y="607.53" width="180.51" height="27.18" rx="13.59" ry="13.59"/>
  <rect class="cls-4" x="1120.36" y="607.6" width="180.51" height="27.18" rx="13.59" ry="13.59"/>
  <rect class="cls-4" x="1381.8" y="608.03" width="180.51" height="27.18" rx="13.59" ry="13.59"/>
  <rect class="cls-4" x="1643.8" y="607.03" width="180.51" height="27.18" rx="13.59" ry="13.59"/>
  <rect class="cls-4" x="1905.8" y="607.03" width="180.51" height="27.18" rx="13.59" ry="13.59"/>
  <rect class="cls-5" x="83" y="302.85" width="180.51" height="27.18" rx="13.59" ry="13.59"/>
  <rect class="cls-5" x="344.44" y="303.28" width="180.51" height="27.18" rx="13.59" ry="13.59"/>
  <rect class="cls-5" x="606.44" y="302.28" width="180.51" height="27.18" rx="13.59" ry="13.59"/>
  <rect class="cls-5" x="868.44" y="302.28" width="180.51" height="27.18" rx="13.59" ry="13.59"/>
  <rect class="cls-5" x="1151.72" y="302.35" width="180.51" height="27.18" rx="13.59" ry="13.59"/>
  <rect class="cls-5" x="1413.17" y="302.78" width="180.51" height="27.18" rx="13.59" ry="13.59"/>
  <rect class="cls-5" x="1675.17" y="301.78" width="180.51" height="27.18" rx="13.59" ry="13.59"/>
  <rect class="cls-5" x="1937.17" y="301.78" width="180.51" height="27.18" rx="13.59" ry="13.59"/>
  <rect class="cls-5" x="0" y="914.85" width="180.51" height="27.18" rx="13.59" ry="13.59"/>
  <rect class="cls-5" x="261.44" y="915.28" width="180.51" height="27.18" rx="13.59" ry="13.59"/>
  <rect class="cls-5" x="523.44" y="914.28" width="180.51" height="27.18" rx="13.59" ry="13.59"/>
  <rect class="cls-5" x="785.44" y="914.28" width="180.51" height="27.18" rx="13.59" ry="13.59"/>
  <rect class="cls-5" x="1068.72" y="914.35" width="180.51" height="27.18" rx="13.59" ry="13.59"/>
  <rect class="cls-5" x="1330.17" y="914.78" width="180.51" height="27.18" rx="13.59" ry="13.59"/>
  <rect class="cls-5" x="1592.17" y="913.78" width="180.51" height="27.18" rx="13.59" ry="13.59"/>
  <rect class="cls-5" x="1854.17" y="913.78" width="180.51" height="27.18" rx="13.59" ry="13.59"/>
  <rect class="cls-2" x="104.08" y="109.53" width="64.52" height="52.76" rx="15.9" ry="15.9"/>
  <rect class="cls-2" x="104.56" y="56.5" width="64.52" height="52.76" rx="15.9" ry="15.9"/>
  <rect class="cls-2" x="104.56" y="3.5" width="64.52" height="52.76" rx="15.9" ry="15.9"/>
  <rect class="cls-2" x="168.32" y="131.51" width="64.52" height="52.76" rx="15.9" ry="15.9"/>
  <rect class="cls-2" x="168.8" y="78.49" width="64.52" height="52.76" rx="15.9" ry="15.9"/>
  <rect class="cls-2" x="168.8" y="25.49" width="64.52" height="52.76" rx="15.9" ry="15.9"/>
  <rect class="cls-2" x="234.2" y="112.52" width="64.52" height="52.76" rx="15.9" ry="15.9"/>
  <rect class="cls-2" x="234.68" y="59.49" width="64.52" height="52.76" rx="15.9" ry="15.9"/>
  <rect class="cls-2" x="234.68" y="6.49" width="64.52" height="52.76" rx="15.9" ry="15.9"/>
  <rect class="cls-2" x="298.44" y="134.51" width="64.52" height="52.76" rx="15.9" ry="15.9"/>
  <rect class="cls-2" x="298.92" y="81.48" width="64.52" height="52.76" rx="15.9" ry="15.9"/>
  <rect class="cls-2" x="298.92" y="28.48" width="64.52" height="52.76" rx="15.9" ry="15.9"/>
  <rect class="cls-2" x="363.14" y="112.02" width="64.52" height="52.76" rx="15.9" ry="15.9"/>
  <rect class="cls-2" x="363.62" y="59" width="64.52" height="52.76" rx="15.9" ry="15.9"/>
  <rect class="cls-2" x="363.62" y="6" width="64.52" height="52.76" rx="15.9" ry="15.9"/>
  <rect class="cls-2" x="427.38" y="134.01" width="64.52" height="52.76" rx="15.9" ry="15.9"/>
  <rect class="cls-2" x="427.86" y="80.98" width="64.52" height="52.76" rx="15.9" ry="15.9"/>
  <rect class="cls-2" x="427.86" y="27.98" width="64.52" height="52.76" rx="15.9" ry="15.9"/>
  <rect class="cls-2" x="492.26" y="115.02" width="64.52" height="52.76" rx="15.9" ry="15.9"/>
  <rect class="cls-2" x="492.74" y="61.99" width="64.52" height="52.76" rx="15.9" ry="15.9"/>
  <rect class="cls-2" x="492.74" y="8.99" width="64.52" height="52.76" rx="15.9" ry="15.9"/>
  <rect class="cls-2" x="556.5" y="128" width="64.52" height="52.76" rx="15.9" ry="15.9"/>
  <rect class="cls-2" x="556.98" y="74.98" width="64.52" height="52.76" rx="15.9" ry="15.9"/>
  <rect class="cls-2" x="556.98" y="21.98" width="64.52" height="52.76" rx="15.9" ry="15.9"/>
  <rect class="cls-2" x="620.61" y="110.77" width="64.52" height="52.76" rx="15.9" ry="15.9"/>
  <rect class="cls-2" x="621.09" y="57.75" width="64.52" height="52.76" rx="15.9" ry="15.9"/>
  <rect class="cls-2" x="621.09" y="4.75" width="64.52" height="52.76" rx="15.9" ry="15.9"/>
  <rect class="cls-2" x="684.85" y="132.76" width="64.52" height="52.76" rx="15.9" ry="15.9"/>
  <rect class="cls-2" x="685.33" y="79.74" width="64.52" height="52.76" rx="15.9" ry="15.9"/>
  <rect class="cls-2" x="685.33" y="26.74" width="64.52" height="52.76" rx="15.9" ry="15.9"/>
  <rect class="cls-2" x="750.73" y="113.77" width="64.52" height="52.76" rx="15.9" ry="15.9"/>
  <rect class="cls-2" x="751.21" y="60.74" width="64.52" height="52.76" rx="15.9" ry="15.9"/>
  <rect class="cls-2" x="751.21" y="7.74" width="64.52" height="52.76" rx="15.9" ry="15.9"/>
  <rect class="cls-2" x="814.97" y="135.75" width="64.52" height="52.76" rx="15.9" ry="15.9"/>
  <rect class="cls-2" x="815.45" y="82.73" width="64.52" height="52.76" rx="15.9" ry="15.9"/>
  <rect class="cls-2" x="815.45" y="29.73" width="64.52" height="52.76" rx="15.9" ry="15.9"/>
  <rect class="cls-2" x="879.67" y="113.27" width="64.52" height="52.76" rx="15.9" ry="15.9"/>
  <rect class="cls-2" x="880.15" y="60.25" width="64.52" height="52.76" rx="15.9" ry="15.9"/>
  <rect class="cls-2" x="880.15" y="7.25" width="64.52" height="52.76" rx="15.9" ry="15.9"/>
  <rect class="cls-2" x="943.91" y="135.26" width="64.52" height="52.76" rx="15.9" ry="15.9"/>
  <rect class="cls-2" x="944.39" y="82.23" width="64.52" height="52.76" rx="15.9" ry="15.9"/>
  <rect class="cls-2" x="944.39" y="29.23" width="64.52" height="52.76" rx="15.9" ry="15.9"/>
  <rect class="cls-2" x="1009.79" y="116.26" width="64.52" height="52.76" rx="15.9" ry="15.9"/>
  <rect class="cls-2" x="1010.27" y="63.24" width="64.52" height="52.76" rx="15.9" ry="15.9"/>
  <rect class="cls-2" x="1010.27" y="10.24" width="64.52" height="52.76" rx="15.9" ry="15.9"/>
  <rect class="cls-2" x="1074.03" y="138.25" width="64.52" height="52.76" rx="15.9" ry="15.9"/>
  <rect class="cls-2" x="1074.51" y="85.23" width="64.52" height="52.76" rx="15.9" ry="15.9"/>
  <rect class="cls-2" x="1074.51" y="32.23" width="64.52" height="52.76" rx="15.9" ry="15.9"/>
  <rect class="cls-2" x="1139.29" y="116.75" width="64.52" height="52.76" rx="15.9" ry="15.9"/>
  <rect class="cls-2" x="1139.77" y="63.72" width="64.52" height="52.76" rx="15.9" ry="15.9"/>
  <rect class="cls-2" x="1139.77" y="10.72" width="64.52" height="52.76" rx="15.9" ry="15.9"/>
  <rect class="cls-2" x="1203.53" y="138.73" width="64.52" height="52.76" rx="15.9" ry="15.9"/>
  <rect class="cls-2" x="1204" y="85.71" width="64.52" height="52.76" rx="15.9" ry="15.9"/>
  <rect class="cls-2" x="1204" y="32.71" width="64.52" height="52.76" rx="15.9" ry="15.9"/>
  <rect class="cls-2" x="1267.41" y="110.74" width="64.52" height="52.76" rx="15.9" ry="15.9"/>
  <rect class="cls-2" x="1267.89" y="57.71" width="64.52" height="52.76" rx="15.9" ry="15.9"/>
  <rect class="cls-2" x="1267.89" y="4.71" width="64.52" height="52.76" rx="15.9" ry="15.9"/>
  <rect class="cls-2" x="1331.65" y="132.73" width="64.52" height="52.76" rx="15.9" ry="15.9"/>
  <rect class="cls-2" x="1332.12" y="79.7" width="64.52" height="52.76" rx="15.9" ry="15.9"/>
  <rect class="cls-2" x="1332.12" y="26.7" width="64.52" height="52.76" rx="15.9" ry="15.9"/>
  <rect class="cls-2" x="1396.35" y="110.24" width="64.52" height="52.76" rx="15.9" ry="15.9"/>
  <rect class="cls-2" x="1396.83" y="57.22" width="64.52" height="52.76" rx="15.9" ry="15.9"/>
  <rect class="cls-2" x="1396.83" y="4.22" width="64.52" height="52.76" rx="15.9" ry="15.9"/>
  <rect class="cls-2" x="1460.59" y="132.23" width="64.52" height="52.76" rx="15.9" ry="15.9"/>
  <rect class="cls-2" x="1461.06" y="79.2" width="64.52" height="52.76" rx="15.9" ry="15.9"/>
  <rect class="cls-2" x="1461.06" y="26.2" width="64.52" height="52.76" rx="15.9" ry="15.9"/>
  <rect class="cls-2" x="1525.47" y="113.24" width="64.52" height="52.76" rx="15.9" ry="15.9"/>
  <rect class="cls-2" x="1525.95" y="60.21" width="64.52" height="52.76" rx="15.9" ry="15.9"/>
  <rect class="cls-2" x="1525.95" y="7.21" width="64.52" height="52.76" rx="15.9" ry="15.9"/>
  <rect class="cls-2" x="1589.71" y="135.22" width="64.52" height="52.76" rx="15.9" ry="15.9"/>
  <rect class="cls-2" x="1590.18" y="82.2" width="64.52" height="52.76" rx="15.9" ry="15.9"/>
  <rect class="cls-2" x="1590.18" y="29.2" width="64.52" height="52.76" rx="15.9" ry="15.9"/>
  <rect class="cls-2" x="1653.82" y="118" width="64.52" height="52.76" rx="15.9" ry="15.9"/>
  <rect class="cls-2" x="1654.3" y="64.97" width="64.52" height="52.76" rx="15.9" ry="15.9"/>
  <rect class="cls-2" x="1654.3" y="11.97" width="64.52" height="52.76" rx="15.9" ry="15.9"/>
  <rect class="cls-2" x="1718.06" y="139.98" width="64.52" height="52.76" rx="15.9" ry="15.9"/>
  <rect class="cls-2" x="1718.53" y="86.96" width="64.52" height="52.76" rx="15.9" ry="15.9"/>
  <rect class="cls-2" x="1718.53" y="33.96" width="64.52" height="52.76" rx="15.9" ry="15.9"/>
  <rect class="cls-2" x="1782.94" y="113.99" width="64.52" height="52.76" rx="15.9" ry="15.9"/>
  <rect class="cls-2" x="1783.42" y="60.96" width="64.52" height="52.76" rx="15.9" ry="15.9"/>
  <rect class="cls-2" x="1783.42" y="7.96" width="64.52" height="52.76" rx="15.9" ry="15.9"/>
  <rect class="cls-2" x="1847.18" y="135.98" width="64.52" height="52.76" rx="15.9" ry="15.9"/>
  <rect class="cls-2" x="1847.65" y="82.95" width="64.52" height="52.76" rx="15.9" ry="15.9"/>
  <rect class="cls-2" x="1847.65" y="29.95" width="64.52" height="52.76" rx="15.9" ry="15.9"/>
  <rect class="cls-2" x="1911.88" y="113.49" width="64.52" height="52.76" rx="15.9" ry="15.9"/>
  <rect class="cls-2" x="1912.36" y="60.47" width="64.52" height="52.76" rx="15.9" ry="15.9"/>
  <rect class="cls-2" x="1912.36" y="7.47" width="64.52" height="52.76" rx="15.9" ry="15.9"/>
  <rect class="cls-2" x="1976.12" y="135.48" width="64.52" height="52.76" rx="15.9" ry="15.9"/>
  <rect class="cls-2" x="1976.59" y="82.45" width="64.52" height="52.76" rx="15.9" ry="15.9"/>
  <rect class="cls-2" x="1976.59" y="29.45" width="64.52" height="52.76" rx="15.9" ry="15.9"/>
  <rect class="cls-1" x="97.01" y="166.07" width="1949.09" height="31.8" rx="15.9" ry="15.9"/>
  <rect class="cls-2" x="106.8" y="1040.06" width="64.52" height="52.76" rx="15.9" ry="15.9"/>
  <rect class="cls-2" x="107.28" y="1093.08" width="64.52" height="52.76" rx="15.9" ry="15.9"/>
  <rect class="cls-2" x="107.28" y="1146.08" width="64.52" height="52.76" rx="15.9" ry="15.9"/>
  <rect class="cls-2" x="171.04" y="1018.07" width="64.52" height="52.76" rx="15.9" ry="15.9"/>
  <rect class="cls-2" x="171.51" y="1071.1" width="64.52" height="52.76" rx="15.9" ry="15.9"/>
  <rect class="cls-2" x="171.51" y="1124.1" width="64.52" height="52.76" rx="15.9" ry="15.9"/>
  <rect class="cls-2" x="236.92" y="1037.06" width="64.52" height="52.76" rx="15.9" ry="15.9"/>
  <rect class="cls-2" x="237.39" y="1090.09" width="64.52" height="52.76" rx="15.9" ry="15.9"/>
  <rect class="cls-2" x="237.39" y="1143.09" width="64.52" height="52.76" rx="15.9" ry="15.9"/>
  <rect class="cls-2" x="301.16" y="1015.08" width="64.52" height="52.76" rx="15.9" ry="15.9"/>
  <rect class="cls-2" x="301.63" y="1068.1" width="64.52" height="52.76" rx="15.9" ry="15.9"/>
  <rect class="cls-2" x="301.63" y="1121.1" width="64.52" height="52.76" rx="15.9" ry="15.9"/>
  <rect class="cls-2" x="365.86" y="1037.56" width="64.52" height="52.76" rx="15.9" ry="15.9"/>
  <rect class="cls-2" x="366.34" y="1090.59" width="64.52" height="52.76" rx="15.9" ry="15.9"/>
  <rect class="cls-2" x="366.34" y="1143.59" width="64.52" height="52.76" rx="15.9" ry="15.9"/>
  <rect class="cls-2" x="430.1" y="1015.57" width="64.52" height="52.76" rx="15.9" ry="15.9"/>
  <rect class="cls-2" x="430.57" y="1068.6" width="64.52" height="52.76" rx="15.9" ry="15.9"/>
  <rect class="cls-2" x="430.57" y="1121.6" width="64.52" height="52.76" rx="15.9" ry="15.9"/>
  <rect class="cls-2" x="494.98" y="1034.57" width="64.52" height="52.76" rx="15.9" ry="15.9"/>
  <rect class="cls-2" x="495.45" y="1087.59" width="64.52" height="52.76" rx="15.9" ry="15.9"/>
  <rect class="cls-2" x="495.45" y="1140.59" width="64.52" height="52.76" rx="15.9" ry="15.9"/>
  <rect class="cls-2" x="559.22" y="1021.58" width="64.52" height="52.76" rx="15.9" ry="15.9"/>
  <rect class="cls-2" x="559.69" y="1074.61" width="64.52" height="52.76" rx="15.9" ry="15.9"/>
  <rect class="cls-2" x="559.69" y="1127.61" width="64.52" height="52.76" rx="15.9" ry="15.9"/>
  <rect class="cls-2" x="623.33" y="1038.81" width="64.52" height="52.76" rx="15.9" ry="15.9"/>
  <rect class="cls-2" x="623.81" y="1091.83" width="64.52" height="52.76" rx="15.9" ry="15.9"/>
  <rect class="cls-2" x="623.81" y="1144.83" width="64.52" height="52.76" rx="15.9" ry="15.9"/>
  <rect class="cls-2" x="687.57" y="1016.82" width="64.52" height="52.76" rx="15.9" ry="15.9"/>
  <rect class="cls-2" x="688.04" y="1069.85" width="64.52" height="52.76" rx="15.9" ry="15.9"/>
  <rect class="cls-2" x="688.04" y="1122.85" width="64.52" height="52.76" rx="15.9" ry="15.9"/>
  <rect class="cls-2" x="753.45" y="1035.81" width="64.52" height="52.76" rx="15.9" ry="15.9"/>
  <rect class="cls-2" x="753.92" y="1088.84" width="64.52" height="52.76" rx="15.9" ry="15.9"/>
  <rect class="cls-2" x="753.92" y="1141.84" width="64.52" height="52.76" rx="15.9" ry="15.9"/>
  <rect class="cls-2" x="817.69" y="1013.83" width="64.52" height="52.76" rx="15.9" ry="15.9"/>
  <rect class="cls-2" x="818.16" y="1066.85" width="64.52" height="52.76" rx="15.9" ry="15.9"/>
  <rect class="cls-2" x="818.16" y="1119.85" width="64.52" height="52.76" rx="15.9" ry="15.9"/>
  <rect class="cls-2" x="882.39" y="1036.31" width="64.52" height="52.76" rx="15.9" ry="15.9"/>
  <rect class="cls-2" x="882.87" y="1089.34" width="64.52" height="52.76" rx="15.9" ry="15.9"/>
  <rect class="cls-2" x="882.87" y="1142.34" width="64.52" height="52.76" rx="15.9" ry="15.9"/>
  <rect class="cls-2" x="946.63" y="1014.32" width="64.52" height="52.76" rx="15.9" ry="15.9"/>
  <rect class="cls-2" x="947.1" y="1067.35" width="64.52" height="52.76" rx="15.9" ry="15.9"/>
  <rect class="cls-2" x="947.1" y="1120.35" width="64.52" height="52.76" rx="15.9" ry="15.9"/>
  <rect class="cls-2" x="1012.51" y="1033.32" width="64.52" height="52.76" rx="15.9" ry="15.9"/>
  <rect class="cls-2" x="1012.98" y="1086.34" width="64.52" height="52.76" rx="15.9" ry="15.9"/>
  <rect class="cls-2" x="1012.98" y="1139.34" width="64.52" height="52.76" rx="15.9" ry="15.9"/>
  <rect class="cls-2" x="1076.75" y="1011.33" width="64.52" height="52.76" rx="15.9" ry="15.9"/>
  <rect class="cls-2" x="1077.22" y="1064.36" width="64.52" height="52.76" rx="15.9" ry="15.9"/>
  <rect class="cls-2" x="1077.22" y="1117.36" width="64.52" height="52.76" rx="15.9" ry="15.9"/>
  <rect class="cls-2" x="1142" y="1032.83" width="64.52" height="52.76" rx="15.9" ry="15.9"/>
  <rect class="cls-2" x="1142.48" y="1085.86" width="64.52" height="52.76" rx="15.9" ry="15.9"/>
  <rect class="cls-2" x="1142.48" y="1138.86" width="64.52" height="52.76" rx="15.9" ry="15.9"/>
  <rect class="cls-2" x="1206.24" y="1010.85" width="64.52" height="52.76" rx="15.9" ry="15.9"/>
  <rect class="cls-2" x="1206.72" y="1063.87" width="64.52" height="52.76" rx="15.9" ry="15.9"/>
  <rect class="cls-2" x="1206.72" y="1116.87" width="64.52" height="52.76" rx="15.9" ry="15.9"/>
  <rect class="cls-2" x="1270.12" y="1038.84" width="64.52" height="52.76" rx="15.9" ry="15.9"/>
  <rect class="cls-2" x="1270.6" y="1091.87" width="64.52" height="52.76" rx="15.9" ry="15.9"/>
  <rect class="cls-2" x="1270.6" y="1144.87" width="64.52" height="52.76" rx="15.9" ry="15.9"/>
  <rect class="cls-2" x="1334.36" y="1016.85" width="64.52" height="52.76" rx="15.9" ry="15.9"/>
  <rect class="cls-2" x="1334.84" y="1069.88" width="64.52" height="52.76" rx="15.9" ry="15.9"/>
  <rect class="cls-2" x="1334.84" y="1122.88" width="64.52" height="52.76" rx="15.9" ry="15.9"/>
  <rect class="cls-2" x="1399.06" y="1039.34" width="64.52" height="52.76" rx="15.9" ry="15.9"/>
  <rect class="cls-2" x="1399.54" y="1092.36" width="64.52" height="52.76" rx="15.9" ry="15.9"/>
  <rect class="cls-2" x="1399.54" y="1145.36" width="64.52" height="52.76" rx="15.9" ry="15.9"/>
  <rect class="cls-2" x="1463.3" y="1017.35" width="64.52" height="52.76" rx="15.9" ry="15.9"/>
  <rect class="cls-2" x="1463.78" y="1070.38" width="64.52" height="52.76" rx="15.9" ry="15.9"/>
  <rect class="cls-2" x="1463.78" y="1123.38" width="64.52" height="52.76" rx="15.9" ry="15.9"/>
  <rect class="cls-2" x="1528.18" y="1036.34" width="64.52" height="52.76" rx="15.9" ry="15.9"/>
  <rect class="cls-2" x="1528.66" y="1089.37" width="64.52" height="52.76" rx="15.9" ry="15.9"/>
  <rect class="cls-2" x="1528.66" y="1142.37" width="64.52" height="52.76" rx="15.9" ry="15.9"/>
  <rect class="cls-2" x="1592.42" y="1014.36" width="64.52" height="52.76" rx="15.9" ry="15.9"/>
  <rect class="cls-2" x="1592.9" y="1067.38" width="64.52" height="52.76" rx="15.9" ry="15.9"/>
  <rect class="cls-2" x="1592.9" y="1120.38" width="64.52" height="52.76" rx="15.9" ry="15.9"/>
  <rect class="cls-2" x="1656.53" y="1031.59" width="64.52" height="52.76" rx="15.9" ry="15.9"/>
  <rect class="cls-2" x="1657.01" y="1084.61" width="64.52" height="52.76" rx="15.9" ry="15.9"/>
  <rect class="cls-2" x="1657.01" y="1137.61" width="64.52" height="52.76" rx="15.9" ry="15.9"/>
  <rect class="cls-2" x="1720.77" y="1009.6" width="64.52" height="52.76" rx="15.9" ry="15.9"/>
  <rect class="cls-2" x="1721.25" y="1062.63" width="64.52" height="52.76" rx="15.9" ry="15.9"/>
  <rect class="cls-2" x="1721.25" y="1115.63" width="64.52" height="52.76" rx="15.9" ry="15.9"/>
  <rect class="cls-2" x="1785.65" y="1035.59" width="64.52" height="52.76" rx="15.9" ry="15.9"/>
  <rect class="cls-2" x="1786.13" y="1088.62" width="64.52" height="52.76" rx="15.9" ry="15.9"/>
  <rect class="cls-2" x="1786.13" y="1141.62" width="64.52" height="52.76" rx="15.9" ry="15.9"/>
  <rect class="cls-2" x="1849.89" y="1013.61" width="64.52" height="52.76" rx="15.9" ry="15.9"/>
  <rect class="cls-2" x="1850.37" y="1066.63" width="64.52" height="52.76" rx="15.9" ry="15.9"/>
  <rect class="cls-2" x="1850.37" y="1119.63" width="64.52" height="52.76" rx="15.9" ry="15.9"/>
  <rect class="cls-2" x="1914.59" y="1036.09" width="64.52" height="52.76" rx="15.9" ry="15.9"/>
  <rect class="cls-2" x="1915.07" y="1089.12" width="64.52" height="52.76" rx="15.9" ry="15.9"/>
  <rect class="cls-2" x="1915.07" y="1142.12" width="64.52" height="52.76" rx="15.9" ry="15.9"/>
  <rect class="cls-2" x="1978.83" y="1014.1" width="64.52" height="52.76" rx="15.9" ry="15.9"/>
  <rect class="cls-2" x="1979.31" y="1067.13" width="64.52" height="52.76" rx="15.9" ry="15.9"/>
  <rect class="cls-2" x="1979.31" y="1120.13" width="64.52" height="52.76" rx="15.9" ry="15.9"/>
  <rect class="cls-1" x="99.72" y="1004.46" width="1949.09" height="31.8" rx="15.9" ry="15.9"/>
</svg>